<svg width="100" height="100" viewBox="0 0 100 100" fill="none" xmlns="http://www.w3.org/2000/svg">
<path d="M33.0346 57.4312V48.662L31.3129 48.1748V46.669L37.1121 45.8718V57.4312L38.7884 58.0956V59.6014H31.3129V58.0956L33.0346 57.4312ZM32.6268 42.7273C32.6268 41.4872 33.2611 41 34.9374 41C36.7497 41 37.3839 41.4429 37.3839 42.7273C37.3839 43.9674 36.7497 44.4545 35.0733 44.4545C33.2158 44.4545 32.6268 44.0117 32.6268 42.7273Z" fill="#A9A9A9"/>
<path d="M40.4647 59.1142V43.8345L38.7884 43.3473V41.8415L44.5423 41V47.1562L44.95 46.9347C46.717 46.049 47.3966 45.7832 48.3933 45.7832C51.0663 45.7832 53.0145 48.4406 53.0145 52.1608C53.0145 56.7226 50.1149 59.8671 45.8562 59.8671C45.086 59.8671 44.2251 59.7786 43.2737 59.6014L41.0084 59.2028L40.4647 59.1142ZM44.5423 58.0513C44.8141 58.0513 44.9953 58.0956 45.1313 58.0956C47.3512 58.0956 48.6198 56.2797 48.6198 53.1352C48.6198 49.9464 47.4872 48.352 45.1766 48.352C44.95 48.352 44.8141 48.352 44.5423 48.3963V58.0513Z" fill="#A9A9A9"/>
<path d="M55.3251 57.4312V48.662L53.6035 48.1748V46.669L59.4026 45.8718V57.4312L61.0789 58.0956V59.6014H53.6488V58.0956L55.3251 57.4312ZM54.9173 42.7273C54.9173 41.4872 55.5516 41 57.2279 41C59.0402 41 59.6744 41.4429 59.6744 42.7273C59.6744 43.9674 59.0402 44.4545 57.3638 44.4545C55.5516 44.4545 54.9173 44.0117 54.9173 42.7273Z" fill="#A9A9A9"/>
<path d="M66.9687 48.1749V55.5711C66.9687 57.077 67.4671 57.5642 69.234 57.5642C69.5058 57.5642 69.6871 57.5642 70.0948 57.5199V59.1143L69.6418 59.2471L68.5544 59.5129C67.1499 59.8672 66.8781 59.9115 66.0626 59.9115C63.9332 59.9115 62.9365 58.9371 62.9365 56.9441V48.1749H61.532V46.5362L62.9365 46.049C63.5708 45.8276 63.752 45.739 64.0238 45.3404L64.2503 45.0304L65.5189 43.2588H67.014V46.1376H70.0948V48.2192H66.9687V48.1749Z" fill="#A9A9A9"/>
<path d="M70.5479 53.1355C70.5479 48.6623 73.0397 45.8721 76.9813 45.8721C81.0135 45.8721 83.3695 48.3523 83.3695 52.6483C83.3695 57.1215 80.8323 59.9117 76.8907 59.9117C72.9491 59.8674 70.5479 57.3429 70.5479 53.1355ZM74.7613 52.6926C74.7613 56.8115 75.3503 58.2287 77.0266 58.2287C77.7515 58.2287 78.3858 57.9187 78.6576 57.3429C78.9748 56.6786 79.156 55.3942 79.156 53.3126C79.156 51.0982 78.9295 49.4595 78.567 48.618C78.2952 47.9979 77.7062 47.6436 76.936 47.6436C76.1658 47.6436 75.5768 47.9979 75.305 48.5737C74.8973 49.3266 74.7613 50.3896 74.7613 52.6926Z" fill="#A9A9A9"/>
<path d="M89.8482 48.5737V57.3872L91.2527 58.0516V59.6017H84.049V58.0958L85.7707 57.4315V48.6623L84.049 48.1751V46.6693L89.8482 45.8721V47.3336C90.3919 47.0679 90.5731 47.0236 91.298 46.6693C92.4306 46.1378 92.929 46.0049 93.7445 46.0049C94.6959 46.0049 95.4661 46.315 96.1004 46.935C96.9612 47.7765 97.2784 48.7509 97.2784 50.6996V57.4758L99 58.1401V59.6017H91.7964V58.0958L93.2008 57.4315V51.3639C93.2008 49.238 92.5666 48.3965 91.0262 48.3965C90.6637 48.4408 90.3466 48.4851 89.8482 48.5737Z" fill="#A9A9A9"/>
<path d="M30.135 54.9951L29.9991 55.2609C28.7305 58.0068 26.3746 59.9998 24.3358 59.9998C22.886 59.9998 21.4362 59.5126 21.4362 58.3611C21.4362 58.3168 21.4362 58.3168 21.6175 56.9881C22.7501 49.8133 23.2938 45.6058 23.2938 44.4543C23.022 44.5429 22.6595 44.7643 21.844 45.4287C21.5269 45.6944 21.255 45.8716 21.0285 46.093C20.5301 46.4916 20.1224 46.8016 19.9865 46.9345C19.624 47.2445 19.0803 47.7317 18.3101 48.4403L17.993 48.7061L16.5885 59.6455H12.0579L12.1032 59.2469C12.8281 54.2865 13.9608 46.403 14.0061 44.6758C13.553 44.8086 12.8734 45.3844 10.9253 47.0231L10.5175 47.3774C9.97384 47.8646 9.6567 48.1746 9.02242 48.7061L7.61794 59.6455H2.95142L4.94489 45.783L3.13265 47.6431L2 46.7574L2.13592 46.4916C3.72163 43.3914 5.851 41.5312 7.84446 41.5312C8.97711 41.5312 9.70201 42.2399 9.70201 43.3028C9.70201 43.48 9.70201 43.7457 9.6567 44.0114L9.38487 46.1373C10.6081 44.4986 11.6049 43.5243 12.8281 42.6828C13.9608 41.8856 14.9122 41.5755 16.0448 41.5755C18.3101 41.5755 18.6273 42.8599 18.6273 43.6571C18.6273 43.8786 18.582 44.1 18.582 44.3657L18.3554 46.1816C19.4881 44.7201 20.666 43.5243 21.844 42.7271C22.7954 42.0184 24.064 41.6198 25.1966 41.6198C26.9636 41.6198 28.2321 42.5942 28.2321 43.9229C28.2321 44.1 28.2321 44.3657 28.1868 44.5872L26.4199 56.5009L29.0023 54.065L30.135 54.9951Z" fill="#515150"/>
</svg>
