<svg width="100" height="100" viewBox="0 0 100 100" fill="none" xmlns="http://www.w3.org/2000/svg">
<path d="M15.9535 42.7321H13.6507V40.2877H18.5442V55.0982C18.5442 57.5426 15.5217 58.8367 13.7946 57.1112L7.89355 51.2158V47.7648L15.5217 55.3857C15.6657 55.5295 15.9535 55.3857 15.9535 55.242V42.7321ZM5.5907 42.7321C5.5907 42.4446 5.87856 42.4446 6.02249 42.5884L13.6507 50.0655V46.6145L7.74963 40.8629C6.02249 38.9936 3 40.2877 3 42.8759V57.6864H7.89355V55.242H5.44678L5.5907 42.7321ZM34.2324 51.2158C34.2324 54.9544 31.2099 57.8302 27.6117 57.8302C24.0135 57.8302 20.991 54.8106 20.991 51.2158C20.991 47.621 24.0135 44.6014 27.6117 44.6014C31.2099 44.6014 34.2324 47.4772 34.2324 51.2158ZM27.6117 46.9021C25.3088 46.9021 23.2939 48.7714 23.2939 51.2158C23.2939 53.6603 25.1649 55.5295 27.6117 55.5295C30.0585 55.5295 31.9295 53.6603 31.9295 51.2158C31.9295 48.7714 29.9145 46.9021 27.6117 46.9021ZM85.1829 51.2158C85.1829 54.9544 82.1604 57.8302 78.5622 57.8302C74.8201 57.8302 71.9415 54.8106 71.9415 51.2158C71.9415 47.621 74.964 44.6014 78.5622 44.6014C82.1604 44.6014 85.1829 47.4772 85.1829 51.2158ZM78.5622 46.9021C76.2594 46.9021 74.2444 48.7714 74.2444 51.2158C74.2444 53.6603 76.1154 55.5295 78.5622 55.5295C81.009 55.5295 82.8801 53.6603 82.8801 51.2158C82.8801 48.7714 80.8651 46.9021 78.5622 46.9021ZM53.2309 50.2093C53.2309 48.0524 54.0945 47.1897 56.3973 47.1897C56.5412 47.1897 57.4048 47.1897 57.5487 47.1897V44.7452C57.5487 44.7452 56.6852 44.7452 56.3973 44.7452C52.7991 44.7452 50.6402 46.1831 50.6402 50.2093V57.5426C51.072 57.6864 51.5037 57.6864 51.9355 57.6864C52.3673 57.6864 52.7991 57.6864 53.2309 57.5426V50.2093ZM39.1259 44.7452H36.5352V52.5099C36.5352 55.3857 38.5502 57.6864 42.2924 57.6864C46.0345 57.6864 48.0495 55.2419 48.0495 52.5099V44.7452H45.4588V52.7975C45.4588 54.2354 44.4513 55.3857 42.2924 55.3857C40.1334 55.3857 39.1259 54.2354 39.1259 52.9413V44.7452ZM99 49.7779C99 46.9021 96.985 44.6014 93.2429 44.6014C89.5008 44.6014 87.4858 47.0459 87.4858 49.7779V57.5426C87.9175 57.6864 88.3493 57.6864 88.7811 57.6864C89.2129 57.6864 89.6447 57.6864 90.0765 57.5426V49.4903C90.0765 48.0524 91.084 46.9021 93.2429 46.9021C95.4018 46.9021 96.4093 48.0524 96.4093 49.4903V57.5426C96.8411 57.6864 97.2729 57.6864 97.7047 57.6864C98.1364 57.6864 98.5682 57.6864 99 57.5426V49.7779ZM68.4873 44.7452C68.4873 44.7452 66.3283 50.0655 64.8891 53.9478L61.2909 44.7452H58.7002L63.5937 57.255C62.8741 58.8367 62.1544 59.5557 60.5712 59.5557V61.8563C63.5937 61.8563 65.033 60.1308 66.1844 57.255C67.4798 53.9478 71.078 44.7452 71.078 44.7452H68.4873Z" fill="#A9A9A9"/>
</svg>
