<svg width="64" height="64" viewBox="0 0 64 64" fill="none" xmlns="http://www.w3.org/2000/svg">
<path d="M63.5698 0.322266H0.322693V63.5693H63.5698V0.322266Z" fill="white"/>
<path d="M0 64V0H64V63.6773V64H0ZM63.6773 63.6773V63.3546V63.6773ZM0.752941 63.2471H63.2471V0.752941H0.752941V63.2471Z" fill="#D7D7D7"/>
<path fill-rule="evenodd" clip-rule="evenodd" d="M4.62524 58.1922H6.02356V55.0729H6.45382C7.74457 55.0729 7.85213 55.5031 8.17482 56.6863L8.60508 58.1922H10.0034L9.46558 56.1485C9.25045 55.3956 9.14289 54.7502 7.9597 54.5351C8.92777 54.3199 9.68071 53.8897 9.68071 52.8141C9.68071 51.4157 8.60508 50.8779 7.09919 50.8779H4.62524V58.1922ZM5.916 51.7384H6.99163C7.74457 51.7384 8.17482 52.1687 8.17482 52.9216C8.17482 53.9973 7.31432 54.2124 6.45382 54.2124H5.916V51.7384Z" fill="#D7D7D7"/>
<path fill-rule="evenodd" clip-rule="evenodd" d="M13.4454 58.1922H18.2857V57.2242H14.8437V54.8578H18.0706V53.8897H14.8437V51.7384H18.1781V50.8779H13.4454V58.1922Z" fill="#D7D7D7"/>
<path fill-rule="evenodd" clip-rule="evenodd" d="M21.9429 58.1922H23.1261V52.4914H23.2336L26.4605 58.1922H28.074V50.8779H26.7832V56.2561L23.5563 50.8779H21.9429V58.1922Z" fill="#D7D7D7"/>
<path fill-rule="evenodd" clip-rule="evenodd" d="M34.8504 58.2989C37.4319 58.2989 38.1848 56.6855 38.1848 54.5342C38.1848 52.383 37.4319 50.7695 34.8504 50.7695C32.2689 50.7695 31.5159 52.383 31.5159 54.5342C31.6235 56.6855 32.2689 58.2989 34.8504 58.2989ZM33.1294 54.5342C33.1294 52.9208 33.4521 51.63 34.8504 51.63C36.2487 51.63 36.5714 52.9208 36.5714 54.5342C36.5714 56.1477 36.2487 57.4384 34.8504 57.4384C33.4521 57.4384 33.1294 56.0401 33.1294 54.5342Z" fill="#D7D7D7"/>
<path fill-rule="evenodd" clip-rule="evenodd" d="M41.7344 58.1922H46.3596V57.2242H43.1328V50.8779H41.7344V58.1922Z" fill="#D7D7D7"/>
<path d="M50.9849 50.8779H49.5865V58.1922H50.9849V50.8779Z" fill="#D7D7D7"/>
<path fill-rule="evenodd" clip-rule="evenodd" d="M56.0403 58.1922H57.4387V51.7384H59.4824V50.8779H53.9966V51.7384H56.0403V58.1922Z" fill="#D7D7D7"/>
<path fill-rule="evenodd" clip-rule="evenodd" d="M32.2689 45.7146H59.3748V26.5684C49.1563 28.6121 39.6908 34.6356 32.2689 45.7146Z" fill="#A9A9A9"/>
<path fill-rule="evenodd" clip-rule="evenodd" d="M4.62524 45.7142H27.9664C34.4202 33.6672 47.758 24.5243 59.4824 22.8033V4.51758H36.4639C30.5479 8.60497 25.3849 17.21 23.6639 20.8672V4.62514H4.62524V45.7142Z" fill="#D7D7D7"/>
</svg>
