<svg width="100" height="100" viewBox="0 0 100 100" fill="none" xmlns="http://www.w3.org/2000/svg">
<path d="M45.125 35.625L50.5 30.25L55.875 35.625L58.75 32.625L53.5 27.25L58.75 22L55.875 19L50.5 24.375L45.125 19L42.125 22L47.5 27.25L42.125 32.625L45.125 35.625Z" fill="#949598"/>
<path d="M45.125 55.375L50.5 50L55.875 55.375L58.75 52.375L53.5 47L58.75 41.625L55.875 38.75L50.5 44L45.125 38.75L42.125 41.625L47.5 47L42.125 52.375L45.125 55.375Z" fill="#949598"/>
<path d="M45.125 82.75L50.5 77.375L55.875 82.75L58.75 79.75L53.5 74.375L58.75 69.125L55.875 66.125L50.5 71.5L45.125 66.125L42.125 69.125L47.5 74.375L42.125 79.75L45.125 82.75Z" fill="#949598"/>
<path d="M66.625 35.5L60.5 35.75C60.5 35.75 61.375 42.25 61 48.875C60.625 55.125 59.625 56.25 59.625 56.25C58.25 58.875 53.875 59.5 51.75 59.625C49.5 59.75 48.5 59.625 48.5 59.625C48.5 59.625 42.125 59.5 40.75 56.5C40 54.875 39.75 51.5 39.75 51.5C39.75 51.5 39.75 36 39.625 35.625C39.625 35.5 38.375 35.75 36.875 35.75C35.75 35.75 34 35.625 34 35.625L34.5 47L34.375 53.75C34.375 53.75 34.375 57.375 35.25 58.75C36.875 61.25 38.5 62.125 39.5 62.5C40.5 63 42 63.375 43.75 63.75C45.5 64.125 48.375 64.25 52.25 63.25C56.125 62.25 57.75 60.5 57.75 60.5L60.625 57.75V64.25L66.75 62.5C66.75 62.5 66 57.375 66 48.625C66.125 40.25 66.625 35.5 66.625 35.5Z" fill="#949598"/>
</svg>
