<svg width="1024" height="1024" viewBox="0 0 1024 1024" fill="none" xmlns="http://www.w3.org/2000/svg">
<rect width="1024" height="1024" fill="#0A064A"/>
<path d="M276.875 140.957C277.873 138.969 278.87 137.976 280.864 137.976C284.852 137.976 286.847 140.957 288.841 143.939C290.835 147.915 293.826 151.89 295.821 156.86C311.775 186.677 327.729 215.5 344.68 244.323C352.657 259.231 361.631 273.146 369.608 288.054C373.596 295.012 378.582 302.963 382.57 309.92C389.55 321.847 398.524 331.786 404.507 343.713C406.501 346.694 407.498 349.676 407.498 353.652C406.501 357.627 402.512 358.621 399.521 357.627C396.53 356.633 394.536 354.645 393.538 351.664C387.556 343.713 382.57 335.761 377.585 327.81C359.636 299.981 343.682 271.158 327.729 242.335C320.749 230.408 314.766 218.481 307.786 206.555C301.803 194.628 294.824 183.695 289.838 171.768C286.847 166.799 284.852 160.835 282.858 155.866C281.861 152.884 280.864 150.896 279.867 147.915C279.867 146.921 278.87 145.927 278.87 144.933C277.873 142.945 276.875 141.951 276.875 140.957ZM926 439.127C925.003 434.157 917.026 436.145 913.037 437.139C905.061 438.133 897.084 440.121 890.104 442.109C882.127 444.096 873.153 445.09 865.176 447.078C848.225 450.06 831.274 453.041 815.32 456.023C811.331 457.017 807.343 457.017 803.354 458.011C799.366 459.005 795.377 459.005 791.389 459.999C783.412 460.993 774.438 462.98 766.461 463.974C739.539 468.944 712.617 471.925 686.691 476.895C684.697 476.895 681.706 477.889 680.709 478.883C676.72 481.864 677.717 486.834 681.706 488.822C683.7 489.816 685.694 489.816 687.689 488.822C720.594 483.852 754.495 476.895 787.4 471.925C820.305 465.962 854.207 461.987 886.115 454.035C894.092 452.048 902.069 450.06 910.046 448.072C914.035 447.078 918.023 447.078 922.011 445.09C924.006 444.096 926 442.109 926 439.127ZM436.415 328.804C433.423 321.847 430.432 315.883 428.438 308.926C422.455 293.024 416.472 278.115 410.489 262.213C398.524 231.402 387.556 199.597 376.587 168.786C374.593 162.823 372.599 155.866 370.605 149.902C369.608 146.921 365.619 134 360.633 134C359.636 134 359.636 134.994 358.639 134.994C351.659 140.957 358.639 152.884 360.633 159.841C361.631 167.793 363.625 175.744 366.616 183.695C371.602 199.597 377.585 214.506 383.567 230.408C387.556 241.341 392.541 253.268 396.53 264.201C402.512 278.115 407.498 293.024 413.481 306.938C415.475 312.902 418.466 318.865 420.461 325.822C422.455 330.792 424.449 337.749 427.44 341.725C429.435 344.706 433.423 346.694 436.415 344.706C441.4 342.719 439.406 336.755 438.409 333.774C437.412 332.78 436.415 330.792 436.415 328.804ZM241.976 221.463C257.93 244.323 274.881 267.182 292.829 288.054C294.824 290.042 296.818 292.03 297.815 295.012C307.786 307.932 317.757 319.859 328.726 330.792C339.694 342.719 350.662 356.633 361.631 368.56C363.625 370.548 365.619 372.536 367.613 374.523C369.608 377.505 372.599 380.487 376.587 379.493C381.573 379.493 383.567 373.53 381.573 369.554C379.579 364.584 375.59 361.603 371.602 357.627C348.668 334.768 327.729 308.926 307.786 283.085C297.815 270.164 286.847 257.243 276.875 245.317C267.901 235.378 258.927 223.451 247.959 213.512C243.971 209.536 238.985 214.506 240.979 218.481C240.979 219.475 241.976 220.469 241.976 221.463ZM896.086 511.681H892.098C858.196 509.694 824.294 511.681 790.392 511.681C756.49 511.681 721.591 511.681 687.689 511.681C683.7 511.681 678.714 512.675 678.714 517.645C677.717 522.614 682.703 524.602 686.691 524.602C720.593 525.596 755.493 525.596 789.395 525.596C823.297 525.596 856.202 524.602 890.104 523.608C894.092 523.608 900.075 524.602 903.066 520.627C908.052 514.663 900.075 511.681 896.086 511.681ZM466.328 312.902C465.331 310.914 465.331 309.92 465.331 307.932C463.337 300.975 461.343 293.024 460.345 286.066C456.357 270.164 453.366 253.268 450.374 237.365C448.38 223.451 445.389 208.542 443.394 194.628C442.397 186.677 441.4 178.725 440.403 169.78C439.406 161.829 438.409 152.884 436.415 145.927C435.417 142.945 433.423 140.957 430.432 140.957C428.438 140.957 426.443 142.945 426.443 144.933C426.443 146.921 425.446 148.908 426.443 150.896C428.438 184.689 433.423 217.487 439.406 250.286C442.397 264.201 445.389 277.121 448.38 291.036C450.374 297.993 451.371 304.951 452.368 310.914C453.366 317.871 453.366 328.804 460.345 332.78C464.334 335.761 467.325 332.78 468.322 328.804C468.322 322.841 467.325 317.871 466.328 312.902ZM766.461 409.31C755.493 413.285 743.527 417.261 732.559 421.237C721.591 425.212 711.619 429.188 700.651 432.17C695.665 434.157 689.683 436.145 684.697 438.133C679.712 440.121 674.726 441.115 670.738 444.096C668.743 446.084 666.749 449.066 667.746 451.054C668.743 454.035 672.732 455.029 675.723 455.029C680.709 454.035 685.694 451.054 689.683 449.066C694.668 447.078 699.654 445.09 704.64 443.102C714.611 439.127 725.579 436.145 735.55 432.17C737.544 431.176 739.539 431.176 741.533 430.182C762.472 422.231 784.409 415.273 805.349 407.322C825.291 400.365 844.236 393.408 863.182 385.456C865.176 384.462 867.17 383.469 869.164 382.475C871.158 381.481 871.158 378.499 870.161 376.511C868.167 373.53 864.179 374.523 861.187 375.517C839.251 382.475 818.311 389.432 796.375 397.383C786.403 402.353 776.432 405.334 766.461 409.31ZM165.198 641.882C197.106 630.949 228.017 619.022 259.924 607.096C273.884 602.126 286.847 597.157 300.806 591.193C307.786 588.212 314.766 586.224 320.749 583.242C325.734 581.254 328.726 577.279 324.737 572.309C321.746 569.328 316.76 573.303 313.769 574.297C283.855 587.218 251.948 598.151 221.037 609.083C213.06 612.065 205.083 614.053 198.103 617.035C168.19 627.968 138.276 637.907 107.365 648.839C105.371 649.833 102.38 650.827 100.385 652.815C98.3912 654.803 97.3941 657.785 98.3912 659.772C100.385 663.748 105.371 662.754 109.359 660.766C128.305 654.803 146.253 648.839 165.198 641.882ZM100.385 587.218L101.383 588.212C103.377 589.206 105.371 589.206 107.365 588.212C111.354 588.212 115.342 587.218 119.331 586.224C123.319 585.23 127.308 585.23 132.293 584.236C140.27 583.242 149.244 581.254 157.221 580.26C174.172 577.279 191.123 575.291 208.074 572.309C229.014 569.328 249.953 565.352 270.893 561.376C283.855 559.389 295.821 556.407 308.783 554.419C311.775 553.425 315.763 553.425 316.76 550.443C318.754 546.468 314.766 542.492 310.778 541.498C305.792 540.504 298.812 543.486 293.827 544.48C261.919 552.431 229.014 559.389 196.109 563.364C180.155 565.352 163.204 567.34 147.25 569.328C139.273 570.321 130.299 572.309 122.322 573.303C118.334 574.297 114.345 575.291 110.357 576.285C107.365 577.279 103.377 577.279 101.383 579.267C99.3883 581.254 98.3912 585.23 100.385 587.218ZM222.034 681.638C233.002 675.675 242.973 668.717 253.942 662.754C267.901 653.809 281.861 644.864 295.821 636.913C302.801 632.937 309.78 627.968 316.76 623.992C319.752 622.004 323.74 620.016 326.731 617.035C329.723 615.047 332.714 614.053 334.708 612.065C337.7 610.077 336.703 605.108 334.708 603.12C332.714 601.132 329.723 601.132 326.731 603.12C320.749 606.102 315.763 609.083 310.778 613.059C304.795 617.035 299.809 621.01 293.827 624.986C281.861 632.937 270.893 640.888 258.927 647.846C227.02 666.73 192.12 681.638 161.21 703.504C159.215 705.492 156.224 707.479 157.221 709.467C157.221 712.449 160.213 713.443 163.204 713.443C166.195 713.443 168.19 712.449 170.184 711.455C186.138 701.516 204.086 691.577 222.034 681.638ZM736.547 795.936C732.559 786.991 721.591 775.065 719.596 773.077C709.625 760.156 698.657 748.229 688.686 735.309C667.746 708.473 645.81 681.638 621.879 656.791C619.884 654.803 617.89 653.809 614.899 653.809C604.928 654.803 611.908 664.742 614.899 668.717C620.882 676.669 628.859 682.632 635.838 690.583C645.81 702.51 655.781 713.443 665.752 725.37C686.691 751.211 707.631 775.065 728.57 800.906C729.568 802.894 731.562 803.888 733.556 804.881C739.539 807.863 738.542 799.912 736.547 795.936ZM276.875 708.473C291.832 696.547 306.789 683.626 321.746 670.705C331.717 662.754 341.688 653.809 350.662 644.864C352.657 643.87 353.654 641.882 354.651 640.888C356.645 638.9 357.642 636.913 356.645 634.925C355.648 629.955 348.668 629.955 345.677 632.937C339.694 638.9 332.714 643.87 326.731 648.839C319.752 653.809 313.769 659.772 306.789 664.742C293.827 675.675 280.864 686.608 266.904 697.54C250.95 710.461 235.994 723.382 220.04 736.302C218.045 737.296 216.051 739.284 215.054 741.272C214.057 743.26 214.057 746.241 215.054 748.229C218.045 751.211 222.034 749.223 226.022 747.235C232.005 743.26 236.991 739.284 242.973 734.315C254.939 726.364 265.907 717.418 276.875 708.473ZM869.164 576.285C866.173 574.297 862.184 574.297 858.196 573.303C854.207 572.309 850.219 571.315 845.233 571.315C837.256 569.328 828.282 568.334 820.305 566.346C803.354 563.364 786.403 560.382 769.452 556.407C754.496 553.425 740.536 550.443 725.579 547.462C711.619 544.48 697.66 540.504 683.7 540.504C680.709 540.504 677.717 543.486 678.714 546.468C679.712 549.45 682.703 551.437 685.694 551.437C689.683 552.431 693.671 553.425 697.66 554.419C705.637 556.407 714.611 557.401 722.588 559.389C739.539 562.37 756.49 566.346 772.444 569.328C800.363 575.291 827.285 580.26 855.205 585.23C859.193 586.224 873.153 586.224 870.161 578.273C871.158 577.279 870.161 576.285 869.164 576.285ZM836.259 633.931C832.271 627.968 823.297 626.974 816.317 624.986C784.409 615.047 752.501 604.114 720.593 592.187C710.622 588.212 700.651 585.23 690.68 581.254C685.694 579.267 680.709 577.279 675.723 575.291C672.732 574.297 669.74 573.303 666.749 574.297C663.758 575.291 661.763 579.267 662.761 582.248C663.758 585.23 667.746 586.224 670.738 587.218C701.648 596.163 731.562 609.083 761.475 620.016C773.441 623.992 785.406 628.961 797.372 632.937C803.354 634.925 809.337 636.913 816.317 638.9C821.302 640.888 827.285 642.876 833.268 642.876C838.254 641.882 839.251 636.913 836.259 633.931ZM691.677 343.713C688.686 345.7 685.694 348.682 682.703 350.67C667.746 363.591 652.789 375.517 638.83 388.438C636.835 390.426 634.841 391.42 633.844 393.408C632.847 396.389 632.847 400.365 635.838 402.353C639.827 406.328 645.81 402.353 648.801 399.371C673.729 377.505 698.657 354.645 723.585 332.78C731.562 325.822 739.539 318.865 747.516 312.902C751.504 309.92 755.493 305.944 759.481 302.963C761.475 300.975 767.458 293.024 761.475 292.03C760.478 292.03 758.484 292.03 757.487 292.03C735.55 307.932 713.614 325.822 691.677 343.713ZM757.487 725.37C752.501 720.4 747.516 716.424 744.524 713.443C735.55 704.498 725.579 695.553 715.608 686.608C695.665 668.717 673.729 652.815 651.792 635.919C647.804 632.937 637.833 625.98 634.841 632.937C631.85 638.9 642.818 644.864 646.807 646.852C651.792 650.827 657.775 653.809 662.761 657.784C672.732 665.736 682.703 673.687 691.677 682.632C702.645 692.571 713.614 702.51 724.582 712.449C730.565 717.418 735.55 722.388 741.533 727.357C745.521 730.339 751.504 738.29 757.487 738.29C769.452 742.266 760.478 728.351 757.487 725.37ZM224.028 296.005C226.022 299.981 231.008 303.957 233.002 305.944C270.893 334.767 307.786 365.578 343.682 397.383C346.674 400.365 350.662 403.346 354.651 401.359C357.642 399.371 358.639 395.395 356.645 391.42C354.651 387.444 351.659 385.456 349.665 383.469C310.778 354.645 275.878 318.865 234.996 292.03C233.002 291.036 228.017 287.06 226.022 290.042L225.025 292.03C224.028 293.024 224.028 294.018 224.028 296.005ZM125.313 519.633C127.308 520.626 129.302 520.627 130.299 520.627C145.256 520.627 160.213 521.62 175.169 521.62C192.12 521.62 209.071 521.62 226.022 520.627C251.948 519.633 276.875 519.633 302.801 520.627C304.795 520.627 307.786 520.627 309.78 520.627C311.775 519.633 314.766 518.639 314.766 515.657C315.763 512.675 312.772 509.694 310.778 507.706C307.786 506.712 304.795 506.712 301.803 506.712C266.904 506.712 232.005 511.681 197.106 510.688C182.149 510.688 167.192 509.694 153.233 509.694C146.253 509.694 138.276 509.694 131.296 509.694C128.305 509.694 122.322 512.675 122.322 515.657C122.322 518.639 123.319 519.633 125.313 519.633ZM158.218 459.999C192.12 466.956 225.025 472.919 258.927 479.877C266.904 481.864 274.881 482.858 282.858 484.846C286.847 485.84 290.835 485.84 293.827 486.834C296.818 487.828 300.806 488.822 303.798 488.822C306.789 489.816 308.783 489.816 311.775 488.822C313.769 487.828 316.76 486.834 317.757 483.852C317.757 481.864 316.76 479.877 315.763 477.889C313.769 476.895 311.775 475.901 309.78 474.907C293.826 470.932 276.875 468.944 260.922 465.962C243.971 462.98 227.02 459.999 210.069 457.017C192.12 455.029 174.172 452.048 157.221 449.066C155.227 449.066 153.233 448.072 151.238 449.066C148.247 450.06 147.25 452.048 148.247 455.029C150.241 459.005 154.23 459.999 158.218 459.999ZM759.481 357.627C748.513 362.597 736.547 368.56 725.579 374.523C706.634 384.462 687.689 396.389 668.743 407.322C663.758 410.304 658.772 412.292 654.784 416.267C651.792 419.249 651.792 426.206 657.775 427.2C660.766 427.2 664.755 426.206 667.746 424.218C670.738 422.231 674.726 420.243 677.717 418.255C683.7 415.273 688.686 411.298 694.668 408.316C704.64 402.353 713.614 397.383 723.585 391.42C725.579 390.426 727.573 389.432 728.57 388.438C743.527 380.487 758.484 373.53 771.447 363.591C774.438 361.603 776.432 358.621 775.435 355.639C774.438 353.652 772.444 352.658 770.449 352.658C768.455 352.658 766.461 353.652 764.467 354.645C763.47 355.639 761.475 356.633 759.481 357.627ZM339.694 711.455C349.665 697.54 360.633 683.626 370.605 669.711C373.596 665.736 379.579 658.778 373.596 653.809C368.61 649.833 362.628 659.772 360.633 662.754C348.668 679.65 335.706 696.547 322.743 712.449C309.78 728.351 295.821 742.266 283.855 759.162C282.858 760.156 282.858 760.156 281.861 761.15C279.867 765.126 276.875 768.107 273.884 772.083C271.89 776.058 273.884 783.016 278.87 780.034C284.852 776.058 289.838 770.095 294.824 765.126C299.809 759.162 305.792 753.199 310.778 747.235C321.746 734.315 330.72 723.382 339.694 711.455ZM627.861 347.688C625.867 349.676 624.87 351.664 622.876 353.652C621.879 353.652 618.887 358.621 618.887 358.621C616.893 360.609 615.896 362.597 614.899 364.584C613.902 367.566 614.899 371.542 617.89 372.536C623.873 375.517 627.861 369.554 630.853 365.578C651.792 339.737 672.732 314.89 694.668 289.048C696.663 287.06 704.64 275.134 699.654 273.146C694.668 271.158 690.68 274.14 687.689 277.121C665.752 299.981 646.807 323.835 627.861 347.688ZM609.913 804.881C608.916 796.93 603.931 787.985 601.936 782.022C597.948 772.083 593.959 762.144 589.971 751.211C584.985 738.29 580 726.363 575.014 713.443C573.02 707.479 570.029 700.522 568.034 694.559C567.037 690.583 560.057 671.699 553.077 682.632C549.089 690.583 558.063 702.51 560.057 709.467C564.046 720.4 568.034 731.333 572.023 742.266C580 764.132 587.977 785.997 595.954 807.863C597.948 812.833 606.922 823.766 608.916 811.839C609.913 809.851 609.913 807.863 609.913 804.881ZM227.02 364.584C233.999 370.548 242.973 374.523 249.953 378.499C258.927 383.469 267.901 388.438 276.875 393.408C290.835 401.359 304.795 409.31 318.754 418.255C321.746 420.243 325.734 422.231 328.726 424.218C330.72 425.212 333.711 427.2 335.706 426.206C339.694 425.212 341.688 420.243 339.694 417.261C337.7 414.279 334.708 413.285 331.717 411.298C328.726 409.31 324.737 407.322 321.746 404.34C314.766 400.365 307.786 395.395 300.806 391.42C286.847 383.469 271.89 374.523 257.93 367.566C255.936 366.572 254.939 365.578 252.945 364.584C247.959 361.603 242.973 359.615 237.988 356.633C234.996 354.645 221.037 347.688 222.034 357.627C222.034 358.621 223.031 360.609 224.028 361.603C225.025 363.591 226.022 363.591 227.02 364.584ZM493.25 333.774C495.245 333.774 496.242 332.78 497.239 331.786C498.236 329.798 499.233 327.81 499.233 325.822C500.23 309.92 500.23 291.036 499.233 275.134C499.233 258.237 499.233 242.335 499.233 224.445C499.233 204.567 499.233 183.695 499.233 163.817C499.233 160.835 499.233 152.884 494.247 153.878C492.253 153.878 490.259 155.866 489.262 158.847C489.262 160.835 488.265 161.829 488.265 163.817C485.273 196.616 486.27 230.408 487.268 263.207C487.268 280.103 488.265 297.993 486.271 314.89C486.271 316.877 486.271 318.865 486.271 321.847C486.271 322.841 486.271 323.835 486.271 324.829C486.271 326.816 486.271 329.798 488.265 332.78C489.262 332.78 491.256 333.774 493.25 333.774ZM183.146 406.328C183.146 407.322 183.146 407.322 183.146 406.328C188.132 409.31 192.12 411.298 197.106 413.285C235.994 428.194 275.878 442.109 314.766 457.017C316.76 458.011 318.754 459.005 320.749 459.005C322.743 459.005 325.734 458.011 325.734 456.023C326.731 454.035 325.734 451.054 323.74 450.06C322.743 449.066 320.749 448.072 319.752 448.072C288.841 436.145 256.933 424.218 226.022 412.292C219.043 410.304 212.063 407.322 205.083 405.334C202.092 404.34 198.103 403.346 195.112 402.353C192.12 401.359 189.129 399.371 186.138 399.371C182.149 398.377 179.158 403.346 183.146 406.328ZM669.74 805.875C656.778 784.01 644.812 763.138 631.85 741.272C619.884 720.4 608.916 699.528 595.954 678.656C592.962 673.687 584.985 672.693 583.988 679.65C582.991 686.608 590.968 693.565 594.956 699.528C600.939 709.467 605.925 718.412 611.907 728.351C623.873 748.229 634.841 768.107 646.807 786.991C650.795 793.949 654.784 800.906 658.772 806.869C660.766 809.851 663.758 815.814 666.749 816.808C675.723 821.778 671.735 809.851 669.74 805.875ZM781.418 671.699C776.432 665.736 766.461 661.76 760.478 658.778C752.501 653.809 744.524 649.833 735.55 644.864C716.605 633.931 696.663 622.998 676.72 612.065C672.732 610.077 669.74 607.096 665.752 606.102C661.763 605.108 658.772 605.108 655.781 608.09C647.804 618.029 672.732 623.992 677.717 626.974C687.689 631.943 696.663 635.919 705.637 640.888C715.608 646.852 726.576 652.815 736.547 658.778C747.516 664.742 758.484 671.699 768.455 678.656C770.449 680.644 774.438 682.632 777.429 682.632C781.418 682.632 783.412 679.65 782.415 676.669C783.412 674.681 782.415 673.687 781.418 671.699ZM557.066 328.804C556.069 329.798 556.069 329.798 557.066 328.804C555.072 333.774 555.072 336.755 558.063 340.731C558.063 341.725 559.06 341.725 560.057 341.725H563.049C564.046 341.725 564.046 341.725 564.046 340.731C567.037 338.743 568.034 336.755 569.031 333.774C570.029 329.798 572.023 325.822 574.017 321.847C577.008 313.896 580 306.938 582.991 298.987C589.971 281.097 597.948 262.213 602.933 243.329C602.933 241.341 603.931 237.365 600.939 235.378H599.942H595.954C595.954 235.378 594.956 235.378 593.959 236.372C593.959 236.372 592.962 236.372 592.962 237.365C586.98 243.329 584.985 252.274 581.994 260.225C578.005 269.17 575.014 278.115 572.023 287.06C568.034 296.999 565.043 306.938 561.054 316.877C560.057 319.859 558.063 324.829 557.066 328.804ZM554.075 225.439C556.069 216.494 559.06 205.561 558.063 196.616C558.063 196.616 557.066 195.622 557.066 194.628V193.634C557.066 192.64 556.069 192.64 555.072 192.64C549.089 191.646 547.095 196.616 546.098 201.585C542.109 218.481 539.118 234.384 536.126 251.28C535.129 259.231 534.132 267.182 532.138 276.127C531.141 284.079 529.147 293.024 527.152 300.975C527.152 302.963 526.155 305.944 526.155 307.932C525.158 311.908 525.158 315.883 524.161 319.859C524.161 323.835 524.161 327.81 525.158 331.786C526.155 333.774 529.147 333.774 531.141 332.78C533.135 331.786 533.135 329.798 534.132 327.81C540.115 295.012 541.112 288.054 548.092 255.256C548.092 254.262 554.075 227.426 554.075 225.439ZM394.536 702.51C397.527 696.547 401.515 690.583 404.507 685.614C405.504 683.626 407.498 680.644 407.498 678.656C407.498 675.675 404.507 672.693 401.515 673.687C397.527 673.687 396.53 677.662 394.536 680.644C389.55 690.583 383.567 699.528 378.582 709.467C367.613 728.351 356.645 747.235 344.68 766.119C342.685 769.101 340.691 773.077 338.697 776.058C338.697 777.052 334.708 785.003 333.711 785.003C332.714 785.003 331.717 790.967 331.717 791.961C331.717 794.942 336.703 795.936 338.697 794.943C339.694 794.943 339.694 793.949 339.694 793.949C343.682 788.979 346.674 784.01 349.665 778.046C360.633 759.162 371.602 741.272 382.57 722.388C387.556 716.424 390.547 709.467 394.536 702.51ZM430.432 685.614C427.44 685.614 424.449 689.589 423.452 692.571C415.475 715.431 406.501 737.296 398.524 760.156C395.533 770.095 389.55 780.034 388.553 790.967C388.553 793.949 388.553 796.93 391.544 798.918C400.518 802.894 404.507 781.028 406.501 776.058C410.489 767.113 413.481 757.174 417.469 748.229C421.458 737.296 425.446 726.364 429.435 714.437C431.429 708.473 433.423 703.504 434.42 697.54C435.417 694.559 436.415 691.577 435.417 688.595C433.423 686.608 432.426 685.614 430.432 685.614ZM548.092 773.077C546.098 762.144 544.103 750.217 542.109 739.284C540.115 731.333 539.118 723.382 537.124 715.431C536.126 709.467 537.124 693.565 528.15 691.577C519.175 689.589 524.161 709.467 525.158 713.443C527.152 723.382 529.147 734.315 530.144 744.254C532.138 754.193 532.138 765.126 534.132 775.065C535.129 782.022 535.129 790.967 540.115 795.936C547.095 801.9 551.083 793.949 550.086 787.985C549.089 783.016 548.092 778.046 548.092 773.077ZM599.942 321.847C596.951 326.816 593.959 332.78 590.968 337.749C587.977 341.725 583.988 345.7 582.991 350.67C581.994 354.645 584.985 360.609 589.971 358.621C592.962 357.627 594.956 355.639 595.954 352.658C602.933 341.725 608.916 331.786 614.899 320.853C620.882 310.914 625.867 300.975 630.853 291.036C632.847 288.054 634.841 280.103 629.856 279.109C625.867 278.115 623.873 282.091 621.879 285.073C618.887 288.054 616.893 292.03 614.899 296.005C609.913 302.963 605.925 310.914 601.936 318.865C601.936 319.859 600.939 320.853 599.942 321.847ZM465.331 694.559C464.334 692.571 462.34 692.571 459.348 695.553C457.354 697.54 456.357 700.522 456.357 703.504C454.363 715.431 451.371 727.357 449.377 739.284C448.38 745.248 447.383 751.211 446.386 758.168C445.389 763.138 443.394 769.101 447.383 774.071C449.377 777.052 454.363 776.058 456.357 774.071C458.351 772.083 458.351 769.101 459.348 766.119C461.342 753.199 463.337 740.278 465.331 727.357C466.328 721.394 467.325 716.424 467.325 710.461C467.325 706.486 468.322 697.54 465.331 694.559ZM496.242 696.547C494.247 695.553 493.25 696.547 491.256 698.534C489.262 701.516 489.262 704.498 489.262 708.473C488.265 715.431 488.265 722.388 488.265 729.345C488.265 733.321 488.265 736.302 488.265 740.278C488.265 743.26 488.265 747.235 490.259 750.217C492.253 752.205 496.242 751.211 498.236 749.223C499.233 748.229 499.233 746.241 499.233 744.254C500.23 732.327 500.23 720.4 500.23 709.467C500.23 706.486 500.23 703.504 498.236 700.522C498.236 697.54 497.239 696.547 496.242 696.547Z" fill="url(#paint0_linear)"/>
<defs>
<linearGradient id="paint0_linear" x1="175.076" y1="749.936" x2="768.276" y2="250.569" gradientUnits="userSpaceOnUse">
<stop stop-color="#009EE2"/>
<stop offset="0.093799" stop-color="#05A0DD"/>
<stop offset="0.2124" stop-color="#15A4D0"/>
<stop offset="0.3445" stop-color="#2FACBA"/>
<stop offset="0.4862" stop-color="#53B79C"/>
<stop offset="0.6357" stop-color="#82C574"/>
<stop offset="0.7918" stop-color="#BAD644"/>
<stop offset="0.95" stop-color="#FCEA0D"/>
</linearGradient>
</defs>
</svg>
