<svg width="40" height="40" viewBox="0 0 40 40" fill="none" xmlns="http://www.w3.org/2000/svg">
<path d="M34.8142 7.59724C34.5584 8.22177 34.2004 8.84631 33.7911 9.4188C31.2845 13.0619 28.8291 16.705 26.3225 20.3482C26.3225 20.3482 26.2713 20.3482 26.2713 20.2961C23.6624 24.0433 21.0535 27.8426 18.4446 31.5898C18.24 31.85 18.0353 32.1623 17.7284 32.3705C16.9099 33.0991 15.7845 33.1511 14.9149 32.5787C14.7103 32.4746 14.5568 32.3184 14.4545 32.1623C14.3522 32.1103 14.301 32.0582 14.2499 32.0062C10.9759 28.5712 7.75316 25.1363 4.53039 21.7534C4.32577 21.5452 4.1723 21.2329 4.06999 20.9727C3.86537 20.4523 4.12115 19.8277 4.68385 19.2032C5.24656 18.6307 5.91158 18.3184 6.47428 18.5266C6.83237 18.6827 7.1393 18.8909 7.39507 19.0991C9.08319 20.6084 10.7713 22.1177 12.4083 23.679C12.4083 23.679 12.4083 23.7311 12.3571 23.7311C13.5337 24.824 14.7103 25.9169 15.8868 26.9578C20.9 20.2441 25.9132 13.5303 30.8753 6.81657C31.2334 6.34817 31.6426 5.93181 32.103 5.5675C32.8703 4.89092 33.6888 4.83887 34.3538 5.30727C35.0188 5.77568 35.2235 6.60839 34.8142 7.59724Z" fill="#0A064A"/>
</svg>
