<svg width="40" height="40" viewBox="0 0 40 40" fill="none" xmlns="http://www.w3.org/2000/svg">
<path d="M29.5242 12.9172C27.172 15.3768 24.8198 17.882 22.4214 20.3416C24.8659 22.9379 27.3103 25.6253 29.7086 28.2671C30.0776 28.6315 30.3543 29.1325 30.585 29.588C30.6772 29.8613 30.6311 30.3623 30.4466 30.5445C30.2621 30.7267 29.7086 30.7723 29.4319 30.6812C28.9707 30.499 28.5095 30.1801 28.1405 29.8613C25.5116 27.4017 22.8826 24.9876 20.2537 22.528C17.8093 25.0787 15.3648 27.5839 12.9204 30.1346C12.6898 30.3623 12.4592 30.5445 12.1824 30.7267C11.3522 31.2278 10.3376 31.1367 9.64575 30.499C8.95392 29.8613 8.72332 28.8592 9.18453 27.9938C9.3229 27.675 9.5535 27.4017 9.83023 27.1739C12.3669 24.7143 14.9036 22.2547 17.4403 19.795C14.9497 17.1988 12.413 14.6936 9.83023 12.1884C9.00005 11.3685 8.95392 10.2754 9.73799 9.5466C10.5221 8.86337 11.5829 8.90892 12.3208 9.72879C14.8114 12.3251 17.3019 14.9213 19.7925 17.5176C22.2831 15.1035 24.8198 12.6895 27.3103 10.2298C27.6793 9.86544 28.0944 9.5466 28.5556 9.27331C29.3397 8.81782 30.0776 8.86337 30.585 9.31886C31.0923 9.91099 31.1845 10.6398 30.6772 11.4596C30.3543 11.9607 29.9392 12.4617 29.5242 12.9172Z" fill="#0A064A"/>
</svg>
