<svg width="40" height="40" viewBox="0 0 40 40" fill="none" xmlns="http://www.w3.org/2000/svg">
<path d="M20.3874 12.929C16.4431 13.0194 12.4539 13.1548 8.50953 13.2452C8.19578 13.2452 7.88202 13.2452 7.61309 13.1548C6.67182 12.929 6.04431 12.1161 5.99949 11.2129C5.95466 10.2645 6.53735 9.45161 7.4338 9.13548C7.74755 9.04516 8.10613 9 8.46471 9C16.3534 9.09032 24.287 9.13548 32.1757 9.27097C32.6687 9.27097 33.2066 9.36129 33.6996 9.45161C34.5513 9.67742 35.0443 10.2194 35.0443 10.8968C35.0443 11.6194 34.5961 12.2065 33.6996 12.3871C33.0721 12.5677 32.4446 12.6129 31.8619 12.6129C28.052 12.7484 24.2421 12.8387 20.3874 12.9742V12.929Z" fill="#0A064A"/>
<path d="M20.388 29.9097C16.2195 29.9097 12.0511 29.9097 7.88261 29.9097C6.76205 29.9097 5.95525 29.1871 6.00007 28.1484C6.04489 27.1097 6.85169 26.4322 7.92743 26.4774C12.5441 26.6129 17.2056 26.7484 21.8223 26.8839C25.4978 27.0193 29.218 27.2 32.8934 27.4258C33.4313 27.471 33.9692 27.5613 34.4174 27.7871C34.6863 27.9226 35.0001 28.329 35.0001 28.6C35.0001 28.871 34.6863 29.2774 34.4174 29.3677C33.9692 29.5484 33.4313 29.6387 32.9382 29.6839C28.7698 29.8193 24.5565 29.9097 20.388 30.0452C20.388 29.9548 20.388 29.9548 20.388 29.9097Z" fill="#0A064A"/>
<path d="M20.0293 21.5097C16.2194 21.3742 12.6336 21.2839 9.04785 21.1032C8.33069 21.0581 7.56872 20.9678 6.9412 20.6968C5.59654 20.2 5.64136 19.0258 6.98603 18.529C7.56872 18.3032 8.24105 18.2129 8.91338 18.1678C16.3987 17.8516 23.884 17.7613 31.3245 18.2581C32.0417 18.3032 32.7588 18.3936 33.4312 18.4839C34.4172 18.6645 34.9999 19.1613 34.9551 19.7032C34.9551 20.2452 34.3724 20.742 33.3863 20.9226C32.4451 21.0581 31.4142 21.1484 30.4729 21.1936C26.9319 21.3742 23.391 21.4645 20.0293 21.5097Z" fill="#0A064A"/>
</svg>
