<svg width="40" height="40" viewBox="0 0 40 40" fill="none" xmlns="http://www.w3.org/2000/svg">
<path d="M38 9.19611C36.7501 9.73902 35.4049 10.1052 33.9935 10.2691C35.4346 9.42609 36.5396 8.09072 37.0607 6.49773C35.7128 7.27939 34.2206 7.84658 32.6311 8.15277C31.3592 6.8282 29.5461 6 27.5397 6C23.6879 6 20.5648 9.05178 20.5648 12.8164C20.5648 13.3499 20.6263 13.8699 20.7457 14.3696C14.9482 14.085 9.80781 11.3718 6.36729 7.24769C5.76684 8.25393 5.42314 9.42474 5.42314 10.6751C5.42314 13.0397 6.65441 15.1263 8.52616 16.3484C7.38323 16.3127 6.30725 16.0058 5.36654 15.4953C5.36585 15.5236 5.36585 15.5526 5.36585 15.5816C5.36585 18.8836 7.77042 21.6379 10.9618 22.2652C10.3765 22.4203 9.76018 22.5039 9.12385 22.5039C8.67385 22.5039 8.23697 22.4614 7.81114 22.3812C8.69939 25.089 11.2751 27.0603 14.3271 27.115C11.9398 28.9433 8.93267 30.0332 5.66401 30.0332C5.10152 30.0332 4.54593 30.0008 4 29.9374C7.08783 31.8724 10.754 33 14.6929 33C27.5239 33 34.5395 22.6138 34.5395 13.6062C34.5395 13.3108 34.5333 13.0161 34.5201 12.7234C35.8825 11.7643 37.0655 10.5632 38 9.19611Z" fill="#0A064A"/>
</svg>
