<svg width="99" height="100" viewBox="0 0 99 100" fill="none" xmlns="http://www.w3.org/2000/svg">
<path d="M60.2087 58.3379C60.2087 58.5234 60.2087 58.7001 60.2087 58.8856C60.2087 64.0354 60.2087 69.1763 60.2087 74.3261C60.2087 75.2536 59.6657 76.0044 58.7897 76.2694C58.562 76.34 58.2992 76.3577 58.054 76.3577C52.6759 76.3665 47.289 76.3489 41.9109 76.3754C40.597 76.3842 39.7474 75.2712 39.7562 74.1759C39.8 69.088 39.7737 64 39.7737 58.9121C39.7737 58.7266 39.7737 58.5323 39.7737 58.3468C39.7386 58.3291 39.7036 58.3203 39.6686 58.3026C39.5722 58.4439 39.4671 58.5853 39.397 58.7354C38.0481 61.4561 36.708 64.1767 35.3591 66.8885C34.0102 69.6091 32.6613 72.3298 31.3299 75.0504C30.9007 75.9337 30.235 76.3665 29.2452 76.3665C23.7007 76.3577 18.1649 76.3665 12.6204 76.3577C11.5693 76.3577 10.8948 75.6864 11.0087 74.7412C11.0437 74.4586 11.1751 74.1759 11.2978 73.9197C13.1021 70.2628 14.9153 66.6147 16.7197 62.9665C17.9897 60.3872 19.2598 57.8079 20.5386 55.2286C20.6262 55.0431 20.7401 54.8753 20.889 54.6191C21.0992 54.6986 21.3883 54.7251 21.4408 54.8488C21.5197 55.0255 21.4846 55.3081 21.397 55.4936C19.8642 58.6294 18.3138 61.7476 16.7635 64.8745C15.2043 68.0368 13.6452 71.1903 12.0861 74.3437C12.0335 74.4497 11.9722 74.5557 11.9372 74.6617C11.8058 75.0504 11.981 75.3772 12.3751 75.4744C12.5416 75.5097 12.7255 75.5097 12.9007 75.5097C18.2788 75.5097 23.6656 75.5009 29.0438 75.5185C29.8058 75.5185 30.2788 75.2182 30.6204 74.5204C33.0292 69.5915 35.473 64.6802 37.908 59.7689C38.2233 59.1418 38.5124 58.4969 38.8452 57.8786C39.1781 57.2603 39.9313 57.1543 40.3868 57.6578C40.5007 57.7903 40.5795 57.9846 40.6146 58.1613C40.6584 58.3733 40.6408 58.6029 40.6408 58.8238C40.6408 63.8234 40.6408 68.823 40.6408 73.8226C40.6408 73.9816 40.6321 74.1494 40.6496 74.3084C40.7021 74.9974 41.1313 75.4391 41.8233 75.5097C41.9284 75.5185 42.0248 75.5185 42.1299 75.5185C47.3766 75.5185 52.6321 75.5185 57.8788 75.5185C58.0978 75.5185 58.3167 75.4921 58.527 75.4391C58.9737 75.3154 59.2452 75.0062 59.3328 74.5469C59.3678 74.3349 59.3766 74.1052 59.3766 73.8932C59.3766 68.876 59.3766 63.8675 59.3766 58.8503C59.3766 58.6559 59.3766 58.4704 59.3854 58.2761C59.4204 57.8168 59.6744 57.5076 60.1036 57.3928C60.489 57.2868 60.9357 57.4634 61.1459 57.8521C61.3912 58.2849 61.6014 58.7443 61.8204 59.1859C63.8438 63.2757 65.8584 67.3655 67.8817 71.4553C68.416 72.5329 68.9591 73.6017 69.4759 74.6882C69.7562 75.2801 70.1941 75.5362 70.8335 75.5362C76.2992 75.5362 81.7737 75.5362 87.2394 75.5362C87.3007 75.5362 87.3533 75.5362 87.4146 75.5362C88.0277 75.5009 88.273 75.1034 88.0102 74.5469C87.6861 73.8579 87.3445 73.1777 87.0029 72.4888C84.2963 67.0122 81.581 61.5267 78.8744 56.0501C78.7868 55.8823 78.7168 55.7056 78.6204 55.476C78.7693 55.3258 78.9095 55.1845 79.0233 55.0696C79.4262 55.105 79.5401 55.3611 79.6627 55.6173C80.8978 58.1348 82.1416 60.6434 83.3766 63.152C85.1547 66.756 86.9416 70.3511 88.7197 73.9551C88.9649 74.4409 89.1401 74.9267 88.9124 75.4656C88.6759 76.0132 88.2817 76.3312 87.6773 76.3754C87.5197 76.3842 87.3533 76.3842 87.1956 76.3842C81.7825 76.3842 76.3781 76.3665 70.9649 76.393C69.8175 76.4019 69.0905 75.9337 68.5912 74.9091C65.9547 69.5208 63.2919 64.159 60.6292 58.7796C60.5503 58.6294 60.4715 58.4793 60.3839 58.3291C60.3138 58.3203 60.2613 58.3291 60.2087 58.3379Z" fill="#949598"/>
<path d="M19.7065 73.0533C19.2861 73.1417 18.9007 73.2212 18.4102 73.3272C18.4978 73.0003 18.5153 72.7707 18.6116 72.5675C19.9168 69.7851 21.8 67.4884 24.3927 65.8278C24.454 65.7924 24.5241 65.7571 24.6292 65.6953C25.7941 66.7464 26.6438 68.0449 27.327 69.4229C27.7299 69.3876 27.7649 69.1932 27.6598 68.9547C27.4759 68.5396 27.2919 68.1156 27.0467 67.7357C26.5737 67.0203 26.0481 66.3313 25.5401 65.6334C25.4613 65.5274 25.3825 65.4303 25.2598 65.2801C25.943 64.9445 26.6 64.6353 27.2394 64.2996C28.4919 63.646 29.7533 63.0011 30.9708 62.2856C31.5576 61.9412 32.0481 61.4377 32.5737 60.996C32.6963 60.8988 32.7839 60.7575 32.8715 60.6515C32.6788 60.2982 32.6087 60.2805 32.3372 60.4925C31.9255 60.8193 31.5314 61.1727 31.1109 61.4818C29.9372 62.321 28.6321 62.8951 27.3095 63.4428C27.2744 63.4605 27.2219 63.4516 27.1518 63.4516C26.8189 62.5241 26.4423 61.6055 25.8116 60.7663C25.6803 60.8282 25.5664 60.8812 25.4438 60.9342C25.8204 61.8882 26.1795 62.798 26.5474 63.7166C25.4175 64.3085 24.3489 64.865 23.2452 65.4391C22.7635 64.4586 22.2467 63.487 21.397 62.6743C21.2481 62.7891 21.1518 62.8775 21.0204 62.9746C21.7299 63.8933 22.273 64.8296 22.5883 65.8543C21.616 66.7906 20.6788 67.6916 19.7065 68.6279C19.6627 68.3276 19.5927 68.0096 19.5752 67.6827C19.4963 66.4549 19.435 65.2183 19.7416 63.9993C20.1182 62.533 21.0116 61.5172 22.3956 60.943C23.5255 60.4748 24.7168 60.2893 25.9168 60.1568C28.2992 59.883 30.6992 59.7947 33.0554 59.2735C33.3533 59.2029 33.6598 59.141 34.0452 59.0615C33.9314 59.5297 33.8438 59.9007 33.7474 60.2628C33.108 62.6213 32.3197 64.9179 31.0584 67.0203C30.5503 67.8682 29.9635 68.6544 29.254 69.3346C27.4934 71.0217 25.4262 71.4634 23.1226 70.8274C22.6146 70.686 22.1241 70.5005 21.6423 70.3062C21.3182 70.1737 21.0905 70.2355 20.8627 70.4829C20.4511 70.9245 20.2233 71.4545 20.0306 72.011C19.9518 72.3467 19.8379 72.6735 19.7065 73.0533Z" fill="#949598"/>
<path d="M70.2905 41.8018C70.9649 41.8018 71.6219 41.7753 72.27 41.8195C72.4452 41.8283 72.6379 42.0403 72.7518 42.2082C73.9167 43.86 75.0642 45.5206 76.2204 47.1813C76.308 47.3049 76.4043 47.4198 76.5007 47.5434C76.5357 47.5346 76.5708 47.5169 76.6058 47.5081C76.6058 45.6266 76.6058 43.7451 76.6058 41.8195C77.4291 41.8195 78.1824 41.8195 78.9795 41.8195C78.9795 45.291 78.9795 48.7271 78.9795 52.2162C78.3489 52.2162 77.7532 52.2604 77.1751 52.1985C76.9562 52.172 76.7197 51.9424 76.5795 51.7392C75.3883 50.0521 74.2233 48.3472 73.0496 46.6513C72.9532 46.5099 72.8481 46.3863 72.743 46.2538C72.708 46.2626 72.6817 46.2714 72.6467 46.2891C72.6467 48.2501 72.6467 50.2022 72.6467 52.1985C71.8408 52.1985 71.0963 52.1985 70.2992 52.1985C70.2905 48.7536 70.2905 45.3175 70.2905 41.8018Z" fill="#949598"/>
<path d="M49.6978 52.0928C49.6978 48.692 49.6978 45.3266 49.6978 41.9169C49.8204 41.8816 49.9606 41.8198 50.0919 41.8109C51.6248 41.7756 53.1489 41.7226 54.6817 41.7314C55.146 41.7314 55.6277 41.8816 56.0744 42.0406C56.8803 42.3233 57.3182 42.9504 57.3971 43.7984C57.4496 44.3461 57.4409 44.9114 57.3883 45.4591C57.327 46.1657 56.9241 46.6427 56.2409 46.8547C56.1357 46.8901 56.0394 46.9254 55.943 47.0402C56.0131 47.0579 56.0919 47.0932 56.162 47.1021C57.0379 47.261 57.5109 47.6762 57.6248 48.5595C57.7036 49.1602 57.6686 49.7874 57.5898 50.3968C57.4671 51.3155 56.8628 51.8543 56.0044 52.0663C55.4963 52.19 54.9708 52.2695 54.454 52.2695C52.9562 52.2607 51.4496 52.1988 49.9518 52.1635C49.8905 52.1458 49.8204 52.1193 49.6978 52.0928ZM52.0978 50.1848C52.8686 50.1848 53.5781 50.2113 54.2876 50.176C54.8919 50.1495 55.2248 49.7874 55.2773 49.2132C55.3387 48.5065 55.0846 48.0384 54.4715 47.9059C54.1124 47.8264 53.727 47.844 53.3503 47.8352C52.9387 47.8264 52.5182 47.8352 52.0978 47.8352C52.0978 48.6479 52.0978 49.3899 52.0978 50.1848ZM52.0978 46.1216C52.7898 46.1216 53.4292 46.1569 54.0598 46.1127C54.7255 46.0686 55.0146 45.7064 55.0146 45.0439C55.0146 44.9556 55.0146 44.8672 55.0146 44.7789C54.9971 44.3019 54.7781 43.9928 54.3226 43.8779C53.5956 43.6836 52.8598 43.7984 52.089 43.7808C52.0978 44.5846 52.0978 45.3266 52.0978 46.1216Z" fill="#949598"/>
<path d="M45.5985 48.3387C46.3956 49.6284 47.1664 50.865 47.9635 52.1724C47.7795 52.2077 47.6744 52.2342 47.5693 52.2342C46.9737 52.243 46.3781 52.2254 45.7737 52.243C45.4584 52.2519 45.2569 52.1282 45.0992 51.8632C44.4861 50.865 43.8554 49.8757 43.2248 48.8864C43.1372 48.7539 43.0496 48.6214 42.9532 48.4801C42.6817 48.4801 42.4189 48.4801 42.0686 48.4801C42.0686 49.7344 42.0686 50.9622 42.0686 52.2165C41.2365 52.2165 40.5007 52.2165 39.7211 52.2165C39.7211 48.7804 39.7211 45.3708 39.7211 41.9082C39.8262 41.8728 39.9489 41.811 40.0715 41.811C41.6131 41.7757 43.1547 41.7315 44.7051 41.7227C45.0642 41.7227 45.4233 41.8198 45.7737 41.9258C46.6584 42.182 47.2189 42.7826 47.4204 43.6925C47.6306 44.62 47.6306 45.5474 47.4642 46.4838C47.2978 47.3936 46.781 47.9854 45.8963 48.2416C45.835 48.2681 45.7649 48.2946 45.5985 48.3387ZM42.1124 46.6251C42.1649 46.6516 42.2087 46.6958 42.2438 46.6869C42.9357 46.6693 43.6365 46.6781 44.3284 46.6074C44.7138 46.5721 45.0292 46.3159 45.0817 45.9096C45.1343 45.4768 45.1255 45.0351 45.073 44.6023C45.0204 44.1871 44.7314 43.9045 44.3109 43.8603C43.7678 43.7985 43.2073 43.7896 42.6642 43.7631C42.4803 43.7543 42.3051 43.7631 42.1124 43.7631C42.1124 44.7878 42.1124 45.7064 42.1124 46.6251Z" fill="#949598"/>
<path d="M59.3065 46.8541C59.4117 46.0061 59.4642 45.0344 59.6657 44.0981C59.9722 42.7025 60.8394 41.934 62.2496 41.8103C63.2744 41.722 64.3168 41.722 65.3328 41.8191C66.7343 41.9516 67.5839 42.7555 67.8992 44.1423C68.3109 45.9708 68.3022 47.8169 67.9518 49.6454C67.6365 51.253 66.8219 52.0127 65.0963 52.1982C64.054 52.313 62.9679 52.26 61.9255 52.1099C60.5328 51.9067 59.7883 50.9174 59.5693 49.5659C59.4379 48.7091 59.3941 47.8434 59.3065 46.8541ZM65.8058 47.1279C65.7533 46.4742 65.7445 45.9619 65.6744 45.4496C65.5781 44.7783 65.3854 44.0981 64.6496 43.9038C64.1854 43.7801 63.6686 43.7801 63.1868 43.8243C62.5036 43.8949 62.1007 44.3454 61.9606 45.0168C61.6978 46.2799 61.689 47.5607 61.9343 48.8239C62.1182 49.8044 62.635 50.1754 63.6248 50.1842C63.7562 50.1842 63.8876 50.1842 64.019 50.1842C64.9036 50.1665 65.4292 49.769 65.5956 48.9034C65.7095 48.2851 65.7445 47.6402 65.8058 47.1279Z" fill="#949598"/>
<path d="M30.8481 52.2075C30.0861 52.2075 29.3678 52.2075 28.6058 52.2075C28.6146 52.075 28.6146 51.9779 28.6321 51.8895C29.4292 48.9657 30.2262 46.0419 31.0233 43.1181C31.0584 42.9945 31.0934 42.862 31.1372 42.7383C31.4087 41.9787 31.7591 41.7225 32.5737 41.7137C33.0817 41.7048 33.5897 41.7048 34.1065 41.7137C34.9912 41.7313 35.3503 41.9698 35.6131 42.8266C35.9459 43.9485 36.2438 45.0791 36.5503 46.2098C37.0584 48.0559 37.5576 49.9109 38.0569 51.757C38.0919 51.8807 38.1095 52.0132 38.1445 52.1899C37.3824 52.1899 36.6554 52.1899 35.8584 52.1899C35.6043 51.2535 35.3416 50.2907 35.07 49.3102C33.9138 49.3102 32.8014 49.3102 31.6627 49.3102C31.3824 50.2996 31.1197 51.2535 30.8481 52.2075ZM33.5635 43.7365C33.1956 43.657 33.1168 43.816 33.0642 44.0191C32.9241 44.558 32.7751 45.0879 32.635 45.6268C32.4861 46.1744 32.3459 46.7221 32.1883 47.3228C32.9766 47.3228 33.7036 47.3228 34.5182 47.3228C34.2029 46.0861 33.8788 44.8936 33.5635 43.7365Z" fill="#949598"/>
<path d="M49.9956 16.009C52.8511 16.009 55.7153 16.0266 58.5708 16.0001C59.6131 15.9913 60.2963 16.4241 60.7518 17.3604C62.8365 21.6092 64.9387 25.8492 67.0321 30.0891C67.0671 30.151 67.0934 30.2216 67.1284 30.2835C67.2598 30.5484 67.216 30.7869 66.9533 30.9194C66.6817 31.0608 66.4627 30.9371 66.3401 30.6809C66.0949 30.2128 65.8759 29.7358 65.6394 29.2588C63.7387 25.4252 61.8292 21.5916 59.946 17.7403C59.6306 17.1043 59.1839 16.8393 58.4919 16.8393C52.816 16.8481 47.1489 16.8481 41.4729 16.8393C40.781 16.8393 40.3343 17.1043 40.0189 17.7403C37.9518 21.9537 35.8671 26.1583 33.7912 30.363C33.7299 30.4955 33.6598 30.6279 33.581 30.7516C33.4408 30.9636 33.2394 31.0343 33.0116 30.9106C32.7927 30.7958 32.7226 30.5926 32.8014 30.3453C32.8364 30.2481 32.889 30.1598 32.9328 30.0715C35.0262 25.8315 37.1372 21.5916 39.2131 17.3428C39.6948 16.4241 40.3868 15.9913 41.4204 16.0001C44.2846 16.0266 47.1401 16.009 49.9956 16.009Z" fill="#949598"/>
<path d="M27.4584 50.194C27.4584 50.8035 27.4584 51.3335 27.4584 51.8812C27.1255 52.208 26.6525 52.208 26.2408 52.2169C25.1372 52.2522 24.0248 52.2787 22.9299 52.155C21.4233 51.9784 20.67 51.1745 20.3547 49.6905C20.0919 48.4716 20.127 47.2349 20.1795 46.0071C20.2058 45.2916 20.3022 44.5761 20.4686 43.8783C20.7664 42.6681 21.6248 41.9968 22.8248 41.8201C24.2087 41.617 25.6102 41.6347 26.9941 41.8908C27.143 41.9173 27.2919 41.988 27.4496 42.041C27.4496 42.6063 27.4496 43.1451 27.4496 43.737C27.2919 43.7458 27.1343 43.7635 26.9854 43.7723C26.2146 43.7723 25.4438 43.7723 24.6642 43.7723C23.2277 43.7723 22.7022 44.1786 22.597 45.6096C22.527 46.6431 22.5708 47.6942 22.6671 48.7277C22.7635 49.7524 23.3241 50.1764 24.3401 50.1852C25.216 50.1852 26.0919 50.1852 26.9591 50.1852C27.1255 50.194 27.2657 50.194 27.4584 50.194Z" fill="#949598"/>
<path d="M55.0058 65.5277C54.9358 66.0842 54.9095 66.7908 54.7606 67.4798C54.5416 68.5663 53.8671 69.1316 52.781 69.2906C51.8788 69.4231 50.9854 69.4231 50.1007 69.2111C49.2861 69.0168 48.7693 68.4956 48.5503 67.7006C48.2525 66.6318 48.235 65.5277 48.3226 64.4323C48.3489 64.0702 48.3927 63.6992 48.4628 63.3459C48.6642 62.33 49.2423 61.6675 50.2846 61.4644C51.1518 61.2877 52.019 61.2789 52.8861 61.4467C54.1036 61.6852 54.7255 62.3919 54.8744 63.6815C54.927 64.2292 54.9533 64.8033 55.0058 65.5277ZM53.1839 65.4923C53.1401 64.9623 53.1314 64.5383 53.0788 64.1232C52.9649 63.2752 52.5533 62.9307 51.6949 62.9219C51.5898 62.9219 51.4934 62.9219 51.3883 62.9219C50.7839 62.9395 50.3722 63.231 50.2496 63.814C50.0306 64.8298 50.0306 65.8457 50.2409 66.8615C50.3284 67.2943 50.5825 67.63 51.0204 67.7183C51.3445 67.7801 51.6774 67.789 52.0102 67.7625C52.5795 67.7183 52.9124 67.3738 53.0087 66.8261C53.0876 66.3491 53.1314 65.8722 53.1839 65.4923Z" fill="#949598"/>
<path d="M52.1241 38.0825C52.4744 36.7134 52.5883 35.2824 52.9124 33.8867C53.3241 33.8867 53.7095 33.8867 54.1387 33.8867C53.9898 34.7259 53.8584 35.5297 53.7182 36.3335C53.5781 37.102 53.4379 37.8617 53.2978 38.6213C53.1839 39.2308 53.035 39.3633 52.4394 39.3898C51.2306 39.4428 51.1868 39.4075 50.9153 38.2327C50.7664 37.579 50.6087 36.9342 50.4598 36.2805C50.4248 36.2805 50.3898 36.2805 50.3547 36.2805C50.2934 36.5102 50.2146 36.7487 50.162 36.9783C50.0131 37.5878 49.8817 38.2062 49.7241 38.8157C49.6014 39.2662 49.4788 39.3545 49.0146 39.381C48.7693 39.3987 48.5153 39.3986 48.27 39.3898C47.7533 39.3633 47.6043 39.2132 47.4992 38.6743C47.3941 38.1002 47.289 37.5172 47.1839 36.943C47 35.936 46.8248 34.929 46.6321 33.8867C47.0438 33.8867 47.4204 33.8867 47.8496 33.8867C48.1912 35.2559 48.3051 36.7045 48.7343 38.0913C49.2248 36.784 49.435 35.4149 49.8204 34.0634C50.1971 34.0634 50.5562 34.0634 50.9679 34.0634C51.2832 35.3972 51.6073 36.7398 51.9314 38.0737C51.9927 38.0737 52.054 38.0825 52.1241 38.0825Z" fill="#949598"/>
<path d="M47.762 67.8333C47.762 68.3103 47.762 68.7078 47.762 69.1583C47.4029 69.2201 47.07 69.3173 46.7284 69.3261C45.87 69.3261 45.0029 69.3703 44.162 69.2466C43.0233 69.0788 42.4978 68.2308 42.3576 67.1532C42.1825 65.8724 42.1474 64.5739 42.419 63.2931C42.673 62.0829 43.3825 61.5176 44.6 61.3851C45.5547 61.2791 46.4832 61.3409 47.4204 61.4911C47.4905 61.4999 47.5606 61.5176 47.6306 61.5441C47.6657 61.5617 47.7007 61.5882 47.762 61.6324C47.762 62.0211 47.762 62.4274 47.762 62.8867C47.6131 62.8956 47.473 62.9221 47.3328 62.9221C46.6934 62.9221 46.0452 62.9221 45.4058 62.9221C44.6263 62.9221 44.1795 63.2754 44.127 64.0615C44.0744 64.9095 44.0744 65.7575 44.127 66.6055C44.1708 67.3387 44.5299 67.7097 45.2482 67.7803C45.8963 67.8422 46.562 67.8157 47.2102 67.8245C47.3854 67.8333 47.5518 67.8333 47.762 67.8333Z" fill="#949598"/>
<path d="M37.1985 39.3378C36.743 39.3378 36.3664 39.3378 35.9722 39.3378C35.9722 37.5269 35.9722 35.7338 35.9722 33.9053C36.3401 33.9053 36.708 33.9053 37.1284 33.9053C37.8116 34.877 38.5124 35.8751 39.2131 36.8733C39.2569 36.8644 39.2919 36.8468 39.3357 36.8379C39.3357 35.8663 39.3357 34.8946 39.3357 33.8965C39.7562 33.8965 40.1153 33.8965 40.5095 33.8965C40.5095 35.6985 40.5095 37.5004 40.5095 39.3289C40.1854 39.3289 39.8788 39.3289 39.4584 39.3289C38.7751 38.3396 38.0394 37.2973 37.3124 36.2461C37.2773 36.255 37.2423 36.2726 37.2073 36.2815C37.1985 37.2884 37.1985 38.2866 37.1985 39.3378Z" fill="#949598"/>
<path d="M60.5416 39.2494C60.5416 37.4739 60.5416 35.7073 60.5416 33.8523C60.8481 33.8523 61.1284 33.8523 61.4175 33.8523C62.0569 33.8523 62.6963 33.8258 63.327 33.8611C64.1941 33.9141 64.5708 34.3646 64.5883 35.2215C64.6058 35.8133 64.5532 36.3521 63.7912 36.5906C64.2379 36.7761 64.6321 36.9174 64.6584 37.3768C64.6846 37.7478 64.7109 38.1364 64.6408 38.4986C64.5357 39.0551 64.0803 39.3112 63.5897 39.3289C62.6438 39.3819 61.6978 39.3466 60.7518 39.3377C60.6905 39.3466 60.6292 39.2847 60.5416 39.2494ZM61.7678 38.3838C62.2321 38.3484 62.6525 38.3308 63.0642 38.2778C63.362 38.2424 63.4671 37.9863 63.4759 37.7301C63.4934 37.4563 63.4058 37.1824 63.108 37.0941C62.67 36.9704 62.2233 36.9528 61.7678 37.0764C61.7678 37.5004 61.7678 37.8979 61.7678 38.3838ZM61.7591 36.149C62.1445 36.149 62.4773 36.1666 62.8014 36.1401C63.143 36.1136 63.3007 35.937 63.327 35.619C63.362 35.195 63.2657 34.9918 62.9065 34.93C62.5474 34.8593 62.1708 34.877 61.7591 34.8593C61.7591 35.3186 61.7591 35.7073 61.7591 36.149Z" fill="#949598"/>
<path d="M74.5474 69.459C74.5474 70.6161 74.5474 71.7291 74.5474 72.8774C73.1985 72.8774 71.8759 72.8774 70.4569 72.8774C69.835 71.7821 69.1781 70.6515 68.4949 69.459C70.5445 69.459 72.5241 69.459 74.5474 69.459Z" fill="#949598"/>
<path d="M28.6671 37.3676C29.0701 38.0213 29.4467 38.6396 29.8671 39.3198C29.4029 39.3198 28.9912 39.3198 28.5007 39.3198C28.1241 38.7191 27.7036 38.0743 27.2832 37.4118C27.1255 37.4118 26.9679 37.4118 26.7839 37.4118C26.7839 38.0566 26.7839 38.675 26.7839 39.3286C26.3635 39.3286 25.9868 39.3286 25.5664 39.3286C25.5664 37.5355 25.5664 35.7423 25.5664 33.958C25.6102 33.9315 25.6277 33.8962 25.654 33.8962C26.5649 33.8874 27.4847 33.8432 28.3956 33.8697C29.0963 33.8962 29.5168 34.2584 29.6219 34.9562C29.692 35.3978 29.6832 35.866 29.6394 36.3165C29.5781 36.8023 29.4029 36.9525 28.6671 37.3676ZM26.8014 34.9032C26.8014 35.442 26.8014 35.919 26.8014 36.4755C27.1693 36.4578 27.5109 36.4667 27.8525 36.4225C28.2817 36.3695 28.4044 36.2193 28.4131 35.7953C28.4306 35.23 28.3255 34.9827 27.9051 34.9208C27.5635 34.859 27.1956 34.9032 26.8014 34.9032Z" fill="#949598"/>
<path d="M75.6949 71.2081C76.2029 70.3336 76.6847 69.4856 77.1664 68.6465C77.1927 68.6553 77.2277 68.6641 77.254 68.673C77.2978 68.9026 77.3416 69.1235 77.3854 69.3885C78.8394 69.3885 80.3022 69.3885 81.835 69.3885C81.546 69.9185 81.2832 70.3866 81.0204 70.8548C80.7139 71.4025 80.4073 71.9501 80.1095 72.5066C79.9606 72.7804 79.7679 72.9129 79.4438 72.8953C78.9182 72.8688 78.3927 72.8953 77.8672 72.8953C77.7095 72.8953 77.5518 72.9129 77.3766 72.9218C77.3591 73.2133 77.3416 73.4694 77.3241 73.7256C77.2978 73.7344 77.2628 73.7521 77.2365 73.7609C76.6759 72.9659 76.2292 72.1003 75.6949 71.2081Z" fill="#949598"/>
<path d="M75.9664 63.6203C76.2467 63.4083 76.4306 63.2669 76.6584 63.0991C75.8963 61.7918 75.1518 60.5022 74.3898 59.186C74.8014 59.186 75.2306 59.186 75.6598 59.186C76.4131 59.186 77.1752 59.1948 77.9285 59.1772C78.2613 59.1683 78.4803 59.3008 78.6379 59.5835C78.9007 60.0605 79.1723 60.5287 79.4438 60.9968C79.5051 61.1116 79.5839 61.2176 79.6628 61.3501C79.8993 61.2353 80.1182 61.1293 80.3372 61.0321C80.3635 61.0498 80.3898 61.0763 80.4248 61.094C79.9518 61.9331 79.4876 62.7723 79.0058 63.6114C77.9985 63.6203 77.035 63.6203 75.9664 63.6203Z" fill="#949598"/>
<path d="M74.2671 33.8867C74.2671 34.2312 74.2671 34.5139 74.2671 34.8849C73.4175 34.8849 72.5766 34.8849 71.7095 34.8849C71.7095 35.3265 71.7095 35.6799 71.7095 36.1127C72.4803 36.1127 73.2248 36.1127 74.0131 36.1127C74.0131 36.4837 74.0131 36.784 74.0131 37.1373C73.2511 37.1373 72.5065 37.1373 71.7095 37.1373C71.7095 37.5348 71.7095 37.8705 71.7095 38.268C72.5503 38.268 73.3737 38.268 74.2408 38.268C74.2408 38.6478 74.2408 38.9747 74.2408 39.328C72.997 39.328 71.7708 39.328 70.5095 39.328C70.5095 37.5083 70.5095 35.7152 70.5095 33.8867C71.7708 33.8867 72.997 33.8867 74.2671 33.8867Z" fill="#949598"/>
<path d="M43.1985 36.1127C43.9606 36.1127 44.7051 36.1127 45.4846 36.1127C45.4846 36.4837 45.4846 36.7928 45.4846 37.1373C44.7226 37.1373 43.9868 37.1373 43.1985 37.1373C43.1985 37.5172 43.1985 37.8617 43.1985 38.268C44.0306 38.268 44.8715 38.268 45.7299 38.268C45.7299 38.6478 45.7299 38.9658 45.7299 39.3191C44.4949 39.3191 43.2686 39.3191 41.9897 39.3191C41.9897 37.526 41.9897 35.724 41.9897 33.8867C43.2248 33.8867 44.4511 33.8867 45.7211 33.8867C45.7211 34.1782 45.7211 34.4785 45.7211 34.8672C44.8978 34.8672 44.0657 34.8672 43.1897 34.8672C43.1985 35.3089 43.1985 35.6622 43.1985 36.1127Z" fill="#949598"/>
<path d="M30.9532 39.3201C30.9532 37.5093 30.9532 35.7161 30.9532 33.8965C32.197 33.8965 33.4321 33.8965 34.7021 33.8965C34.7021 34.188 34.7021 34.4883 34.7021 34.8858C33.87 34.8858 33.0292 34.8858 32.1532 34.8858C32.1532 35.3275 32.1532 35.672 32.1532 36.096C32.9153 36.096 33.6598 36.096 34.4569 36.096C34.4569 36.4758 34.4569 36.7849 34.4569 37.1559C33.6861 37.1559 32.9416 37.1559 32.1532 37.1559C32.1532 37.5446 32.1532 37.8714 32.1532 38.2689C33.0029 38.2689 33.835 38.2689 34.7021 38.2689C34.7021 38.6576 34.7021 38.9668 34.7021 39.3201C33.4759 39.3201 32.2496 39.3201 30.9532 39.3201Z" fill="#949598"/>
<path d="M59.5343 39.3369C59.1401 39.3369 58.781 39.3369 58.3956 39.3369C58.2555 38.8422 58.1153 38.3475 57.9664 37.8352C57.3533 37.8352 56.7664 37.8352 56.1445 37.8352C55.9956 38.3387 55.8555 38.8245 55.7066 39.328C55.3387 39.328 54.9795 39.328 54.5679 39.328C54.6029 39.1514 54.6204 39.0189 54.6555 38.8775C55.0409 37.4642 55.4175 36.0509 55.8029 34.6376C55.9956 33.9309 56.1095 33.8426 56.819 33.7719C56.9328 33.7631 57.0555 33.7543 57.1693 33.7719C57.9927 33.8779 58.0803 33.8249 58.3255 34.6906C58.7109 36.1039 59.0963 37.5172 59.4817 38.9305C59.508 39.063 59.5168 39.1955 59.5343 39.3369ZM56.4073 36.7929C56.8715 36.7929 57.2482 36.7929 57.6949 36.7929C57.5022 36.0951 57.3971 35.4326 57.1168 34.8319C57.0642 34.8319 57.0117 34.8319 56.9503 34.8319C56.7752 35.4591 56.6 36.0774 56.4073 36.7929Z" fill="#949598"/>
<path d="M78.0686 65.5281C79.0671 64.9451 80.0219 64.3886 80.9941 63.8232C81.073 63.9204 81.1431 63.9911 81.1956 64.0706C81.6511 64.8391 82.0628 65.6429 82.562 66.376C83.2628 67.4095 82.2555 68.9642 81.1956 68.7787C80.8102 68.708 80.416 68.7698 79.9781 68.7698C79.3387 67.701 78.7168 66.6322 78.0686 65.5281Z" fill="#949598"/>
<path d="M69.9226 62.772C70.1679 62.3215 70.3956 61.9152 70.6146 61.5088C70.8686 61.0495 71.1226 60.5902 71.3854 60.1308C71.946 59.168 73.5752 59.1592 74.1445 60.122C74.346 60.4577 74.5387 60.8022 74.7489 61.1467C74.127 62.2597 73.5138 63.355 72.8657 64.4945C71.8846 63.9115 70.9211 63.355 69.9226 62.772Z" fill="#949598"/>
<path d="M70.3781 68.8405C69.835 68.8405 69.327 68.8582 68.819 68.8317C68.6613 68.8229 68.4774 68.7434 68.346 68.6462C67.6978 68.1515 67.3474 67.1357 67.8292 66.3319C68.0569 65.9432 68.2759 65.5457 68.5036 65.1394C68.2496 64.9716 68.0394 64.8302 67.7766 64.6536C67.873 64.6183 67.9255 64.5829 67.9693 64.5829C68.8102 64.5829 69.6598 64.5652 70.5007 64.5917C70.6496 64.5917 70.8598 64.6889 70.9299 64.8126C71.3941 65.5634 71.8233 66.3231 72.2525 67.0916C72.27 67.1181 72.2438 67.171 72.235 67.2594C71.981 67.1445 71.7533 67.0386 71.4817 66.9149C71.1226 67.5509 70.746 68.1957 70.3781 68.8405Z" fill="#949598"/>
<path d="M67.1022 38.2778C67.908 38.2778 68.6262 38.2778 69.3883 38.2778C69.3883 38.6576 69.3883 38.9756 69.3883 39.3289C68.2146 39.3289 67.0759 39.3289 65.9022 39.3289C65.9022 37.5181 65.9022 35.725 65.9022 33.8965C66.2876 33.8965 66.6642 33.8965 67.1022 33.8965C67.1022 35.3275 67.1022 36.7584 67.1022 38.2778Z" fill="#949598"/>
<path d="M55.5752 67.754C55.5489 67.5597 55.5314 67.4713 55.5314 67.3918C55.5314 67.3035 55.5489 67.224 55.5664 67.118C56.2759 66.9678 56.9766 66.8707 57.6774 67.0915C57.8263 67.1357 58.054 67.277 58.0715 67.4007C58.1416 67.86 58.1766 68.3282 58.1503 68.7875C58.1241 69.1496 57.7912 69.291 57.4934 69.4323C57.1606 69.5913 56.8365 69.7503 56.5124 69.9093C56.346 69.9976 56.162 70.0683 56.2233 70.3775C56.8452 70.3775 57.4759 70.3775 58.1591 70.3775C58.1679 70.6425 58.1854 70.8545 58.1941 71.1018C57.1956 71.1018 56.2233 71.1018 55.2598 71.1018C55.0233 70.2715 55.2423 69.7061 55.9781 69.2998C56.3985 69.0702 56.8277 68.8493 57.2832 68.6108C57.2832 68.337 57.2832 68.0897 57.2832 67.754C56.6963 67.754 56.1533 67.754 55.5752 67.754Z" fill="#949598"/>
<path d="M19.8817 82.9467C19.5138 82.9467 19.1985 82.9467 18.7956 82.9467C18.6642 82.452 18.5241 81.9485 18.3839 81.4362C18.3576 81.4274 18.3226 81.4274 18.2963 81.4186C18.1649 81.9132 18.0335 82.4079 17.9197 82.8672C17.8233 82.9114 17.7883 82.9379 17.7445 82.9467C16.8598 83.088 16.7459 83.0085 16.5708 82.134C16.4394 81.4804 16.3168 80.8179 16.1854 80.1289C16.4306 80.1289 16.6321 80.1289 16.8511 80.1289C16.9912 80.8974 17.1226 81.6482 17.2627 82.399C17.3065 82.4079 17.3591 82.4079 17.4029 82.4167C17.7357 81.7277 17.7445 80.9239 18.0248 80.2172C18.235 80.2172 18.4189 80.2172 18.6467 80.2172C18.8306 80.9504 19.0146 81.6835 19.1897 82.4079C19.2335 82.4167 19.2686 82.4167 19.3124 82.4255C19.3649 82.3107 19.4438 82.2047 19.4613 82.0899C19.5576 81.5422 19.6452 80.9946 19.7328 80.4469C19.7503 80.3497 19.7941 80.2526 19.8292 80.1377C20.0306 80.1377 20.2321 80.1377 20.4773 80.1377C20.2846 81.0917 20.2146 82.0369 19.8817 82.9467Z" fill="#949598"/>
<path d="M11.1489 80.1299C11.3941 80.1299 11.5605 80.1299 11.797 80.1299C11.9372 80.8808 12.0861 81.6581 12.2262 82.4266C12.2876 82.4266 12.3489 82.4266 12.4102 82.4266C12.5941 81.7022 12.7693 80.9779 12.962 80.2271C13.1635 80.2271 13.3562 80.2271 13.6102 80.2271C13.7941 80.9426 13.9781 81.6846 14.162 82.4177C14.2058 82.4177 14.2584 82.4177 14.3021 82.4177C14.6087 81.6934 14.5299 80.8719 14.8102 80.1211C14.9941 80.1211 15.1693 80.1211 15.4233 80.1211C15.2657 81.0839 15.143 82.0202 14.854 82.9477C14.4686 82.9477 14.1532 82.9477 13.7503 82.9477C13.6189 82.4531 13.4788 81.9407 13.3386 81.4372C13.3124 81.4372 13.2861 81.4372 13.2598 81.4284C13.1197 81.9319 12.9795 82.4442 12.8481 82.9477C12.4627 82.9477 12.1474 82.9477 11.7708 82.9477C11.4029 82.0467 11.3416 81.0927 11.1489 80.1299Z" fill="#949598"/>
<path d="M24.9445 82.938C24.5416 82.938 24.2087 82.938 23.8321 82.938C23.7007 82.4257 23.5781 81.9398 23.4467 81.454C23.4116 81.4452 23.3766 81.4452 23.3503 81.4364C23.2189 81.9222 23.0876 82.4168 22.9562 82.938C22.5708 82.938 22.2379 82.938 21.8525 82.938C21.5109 82.0282 21.4759 81.0742 21.2394 80.129C21.4934 80.129 21.6861 80.129 21.9226 80.129C22.0627 80.8975 22.2029 81.6572 22.343 82.4168C22.4043 82.4168 22.4657 82.4168 22.527 82.4257C22.7109 81.6925 22.9036 80.9594 23.0876 80.2174C23.3065 80.2174 23.4905 80.2174 23.7182 80.2174C23.9022 80.9594 24.0949 81.6925 24.2788 82.4257C24.3313 82.4257 24.3751 82.4168 24.4277 82.4168C24.6992 81.7014 24.6817 80.924 24.9007 80.1379C25.0934 80.129 25.2949 80.1202 25.5576 80.1025C25.3386 81.0742 25.2598 82.0193 24.9445 82.938Z" fill="#949598"/>
<path d="M42.6905 80.2084C42.9007 80.2084 43.0671 80.2084 43.3036 80.2084C43.4876 80.9415 43.6715 81.6747 43.8642 82.4167C43.9168 82.4167 43.9606 82.4167 44.0131 82.4167C44.2846 81.7012 44.2671 80.9062 44.4774 80.1377C44.6876 80.1377 44.889 80.1377 45.143 80.1377C44.9241 81.0829 44.8715 82.0368 44.5299 82.9467C44.1533 82.9467 43.8292 82.9467 43.435 82.9467C43.3036 82.4343 43.1722 81.9397 43.0496 81.445C43.0146 81.445 42.9795 81.445 42.9445 81.445C42.8131 81.9397 42.6905 82.4343 42.5503 82.9467C42.1649 82.9467 41.8409 82.9467 41.4555 82.9467C41.0963 82.0545 41.0701 81.0917 40.8336 80.1465C41.0788 80.1465 41.2803 80.1465 41.5168 80.1465C41.6569 80.915 41.7883 81.6659 41.9284 82.4167C41.9722 82.4167 42.0248 82.4167 42.0686 82.4255C42.4014 81.7277 42.4102 80.9415 42.6905 80.2084Z" fill="#949598"/>
<path d="M49.435 78.9814C49.654 78.9814 49.8204 78.9814 50.0394 78.9814C50.0569 79.3436 50.0744 79.6881 50.0919 80.0944C50.3985 80.0944 50.6613 80.0856 50.9328 80.0944C51.581 80.1121 51.8613 80.3771 51.8876 81.0308C51.9051 81.3929 51.9051 81.7639 51.8788 82.1261C51.8438 82.6561 51.5722 82.9299 51.0379 82.9476C50.5124 82.9652 49.9781 82.9387 49.4175 82.9299C49.435 81.5696 49.435 80.2976 49.435 78.9814ZM50.1007 80.6774C50.1007 81.2781 50.1007 81.8081 50.1007 82.3292C50.6963 82.4706 50.9941 82.4264 51.143 82.2056C51.2919 81.9847 51.3007 81.1014 51.143 80.8806C50.8715 80.5184 50.4949 80.6951 50.1007 80.6774Z" fill="#949598"/>
<path d="M69.9839 82.8062C69.9839 81.4989 69.9839 80.2622 69.9839 78.9902C70.1941 78.9902 70.3781 78.9902 70.6146 78.9902C70.6146 79.3524 70.6146 79.6969 70.6146 80.1032C70.9649 80.1032 71.2452 80.0944 71.5343 80.1032C72.0511 80.1209 72.3313 80.2887 72.3927 80.7922C72.454 81.3222 72.4102 81.8699 72.3664 82.3999C72.3401 82.6914 72.1036 82.9034 71.8408 82.921C71.2803 82.9564 70.7109 82.921 70.1503 82.9122C70.089 82.9034 70.0365 82.8327 69.9839 82.8062ZM70.6408 82.3645C71.0262 82.3734 71.4029 82.55 71.6832 82.2055C71.8759 81.967 71.8671 81.0661 71.6657 80.8541C71.3766 80.5361 71.0087 80.6686 70.6408 80.7127C70.6408 81.2604 70.6408 81.7815 70.6408 82.3645Z" fill="#949598"/>
<path d="M40.0189 81.7547C39.4321 81.7547 38.8715 81.7547 38.3197 81.7547C38.2146 82.214 38.3284 82.3819 38.7314 82.3995C39.073 82.4084 39.4233 82.3995 39.7912 82.3995C39.7912 82.5939 39.7912 82.7352 39.7912 82.9295C39.2306 82.9825 38.6613 83.062 38.1182 82.903C37.9168 82.8412 37.7065 82.6027 37.6365 82.3995C37.4525 81.8519 37.4876 81.2689 37.6189 80.7035C37.7065 80.3502 37.9606 80.1736 38.3022 80.1206C38.4423 80.0941 38.5912 80.1117 38.7401 80.1029C39.7737 80.0411 40.1065 80.306 40.0189 81.7547ZM39.3095 81.313C39.397 81.048 39.362 80.8095 39.1255 80.7389C38.9241 80.677 38.67 80.677 38.4686 80.7477C38.2321 80.8272 38.2146 81.0657 38.2846 81.313C38.635 81.313 38.9679 81.313 39.3095 81.313Z" fill="#949598"/>
<path d="M57.2656 81.7547C56.5824 81.7547 56.0131 81.7547 55.4437 81.7547C55.3912 82.2406 55.4875 82.3819 55.8642 82.3996C56.2058 82.4172 56.5562 82.3996 56.9416 82.3996C56.9416 82.5939 56.9416 82.7441 56.9416 82.9472C56.4073 82.9472 55.8905 82.9737 55.3737 82.9384C55.0583 82.9119 54.8131 82.6822 54.7868 82.3731C54.743 81.8254 54.7343 81.2689 54.7868 80.7213C54.8306 80.3149 55.1635 80.1118 55.6715 80.1118C56.2058 80.1118 56.8364 79.9351 57.0992 80.6329C57.2043 80.9421 57.1956 81.3131 57.2656 81.7547ZM56.4686 81.3219C56.5299 81.0392 56.4948 80.7831 56.2583 80.7301C56.0394 80.6771 55.7678 80.6947 55.5664 80.7919C55.4525 80.8449 55.435 81.1099 55.3474 81.3396C55.6802 81.3396 55.8905 81.3396 56.1094 81.3396C56.2233 81.3396 56.3372 81.3307 56.4686 81.3219Z" fill="#949598"/>
<path d="M75.9839 81.4894C75.9752 82.7878 75.7211 83.0352 74.5036 82.9822C73.7241 82.9468 73.5401 82.7967 73.4525 82.0017C73.4087 81.6042 73.435 81.1802 73.4876 80.7827C73.5314 80.3852 73.8204 80.1555 74.2408 80.1202C74.5124 80.0937 74.7927 80.1025 75.073 80.1114C75.6248 80.1379 75.8963 80.4117 75.9489 80.9505C75.9752 81.1537 75.9752 81.3569 75.9839 81.4894ZM74.1182 81.5424C74.127 81.6925 74.1095 81.8339 74.127 81.984C74.1533 82.2137 74.2671 82.355 74.5036 82.3992C75.0642 82.4964 75.3007 82.302 75.3182 81.7367C75.327 81.56 75.327 81.3834 75.3095 81.2067C75.2744 80.8092 75.0817 80.6502 74.67 80.659C74.2934 80.6679 74.1357 80.8269 74.1095 81.2332C74.1095 81.3392 74.1182 81.4364 74.1182 81.5424Z" fill="#949598"/>
<path d="M32.9766 81.7722C32.3547 81.7722 31.7766 81.7722 31.2073 81.7722C31.2336 82.3022 31.3124 82.3905 31.7328 82.3994C32.0657 82.4082 32.3985 82.3994 32.7752 82.3994C32.7839 82.5849 32.7927 82.735 32.8014 82.9382C32.2058 82.9382 31.654 82.9735 31.1109 82.9294C30.7781 82.9029 30.5679 82.6114 30.5504 82.2845C30.5153 81.7899 30.5416 81.2952 30.5591 80.8006C30.5679 80.6769 30.6204 80.5356 30.6993 80.4384C31.146 79.9261 31.7504 80.1027 32.2934 80.1381C32.7139 80.1646 32.9153 80.4914 32.9591 80.8889C33.0029 81.1362 32.9766 81.4012 32.9766 81.7722ZM32.2934 81.3041C32.3109 80.8271 32.1796 80.6681 31.7854 80.6592C31.3562 80.6504 31.2248 80.7829 31.2073 81.3041C31.5664 81.3041 31.9255 81.3041 32.2934 81.3041Z" fill="#949598"/>
<path d="M84.8306 81.7542C84.1562 81.7542 83.5868 81.7542 83.0175 81.7542C82.9737 82.2577 83.0788 82.3902 83.4817 82.399C83.8146 82.4079 84.1474 82.399 84.5066 82.399C84.5066 82.5934 84.5066 82.7435 84.5066 82.9467C83.981 82.9467 83.473 82.9732 82.9649 82.9379C82.5795 82.9114 82.3343 82.6022 82.308 82.1782C82.2817 81.7542 82.2817 81.3302 82.308 80.9062C82.3343 80.5264 82.5095 80.1996 82.9124 80.1554C83.3153 80.1112 83.727 80.1112 84.1211 80.1466C84.4102 80.1731 84.6204 80.3851 84.6817 80.6942C84.7606 81.0034 84.7781 81.3302 84.8306 81.7542ZM84.0598 81.3126C84.0861 80.8179 83.9722 80.6677 83.5606 80.6677C83.1226 80.6589 82.9825 80.8179 83 81.3126C83.3503 81.3126 83.7007 81.3126 84.0598 81.3126Z" fill="#949598"/>
<path d="M65.5868 81.3394C65.6482 80.8359 65.5518 80.6857 65.1752 80.6681C64.8423 80.6504 64.5095 80.6681 64.1503 80.6681C64.1416 80.5002 64.1241 80.3766 64.1153 80.1911C64.7547 80.0674 65.3679 79.9879 65.9547 80.2529C66.1299 80.3324 66.2963 80.6327 66.3139 80.8447C66.3577 81.4896 66.3314 82.1344 66.3314 82.8234C66.1912 82.8676 66.0598 82.9471 65.9284 82.9471C65.4817 82.9647 65.0263 82.9824 64.5795 82.9559C64.1065 82.9294 63.9226 82.6821 63.9226 82.1609C63.9226 81.6486 64.1241 81.3836 64.5795 81.3482C64.9036 81.3217 65.2365 81.3394 65.5868 81.3394ZM65.6219 81.7634C64.816 81.6221 64.4394 81.7899 64.6496 82.3287C64.9562 82.5496 65.2803 82.5407 65.6569 82.3199C65.6394 82.1344 65.6306 81.9577 65.6219 81.7634Z" fill="#949598"/>
<path d="M47.5693 81.3399C47.6131 80.8275 47.5167 80.6862 47.1401 80.6685C46.8073 80.6509 46.4744 80.6685 46.124 80.6685C46.124 80.4919 46.124 80.3682 46.124 80.1827C46.7284 80.0767 47.3328 79.9972 47.9021 80.2446C48.0861 80.3241 48.27 80.6155 48.2875 80.8187C48.3401 81.4724 48.3051 82.1349 48.3051 82.8769C48.0423 82.9122 47.797 82.9564 47.543 82.9652C47.2277 82.9829 46.9036 82.9829 46.5883 82.9652C46.089 82.9299 45.8963 82.7002 45.8963 82.1525C45.8963 81.6314 46.1153 81.3752 46.6058 81.3487C46.9211 81.3222 47.2364 81.3399 47.5693 81.3399ZM47.6481 82.4617C47.6131 82.1349 47.5956 81.9317 47.5781 81.7462C46.6233 81.6667 46.4919 81.755 46.6496 82.4087C46.9299 82.4264 47.2364 82.444 47.6481 82.4617Z" fill="#949598"/>
<path d="M88.2642 82.8937C87.5985 82.9997 86.9328 83.035 86.2759 82.9114C86.0131 82.8672 85.8467 82.6375 85.8379 82.3637C85.8204 81.6305 85.8292 80.8974 85.8292 80.1289C86.0306 80.1289 86.2058 80.1289 86.416 80.1289C86.6 80.8444 86.2934 81.6305 86.6175 82.3637C86.9591 82.3637 87.2394 82.3637 87.616 82.3637C87.6248 81.9927 87.6335 81.6217 87.6423 81.2507C87.6423 80.8886 87.6423 80.5264 87.6423 80.1289C87.8788 80.1289 88.0627 80.1289 88.2729 80.1289C88.2642 81.0476 88.2642 81.9485 88.2642 82.8937Z" fill="#949598"/>
<path d="M35.6744 80.6856C35.3416 80.6856 35.0613 80.6856 34.7022 80.6856C34.7022 81.4276 34.7022 82.1519 34.7022 82.9292C34.4569 82.9381 34.273 82.9469 34.0102 82.9646C34.0102 82.4876 34.0102 82.0371 34.0102 81.5866C34.0102 81.1449 34.0102 80.7033 34.0102 80.2263C34.1679 80.1821 34.3168 80.1115 34.4657 80.1115C34.9036 80.0938 35.3416 80.085 35.7795 80.1115C36.2175 80.138 36.4715 80.3676 36.489 80.7916C36.5153 81.4894 36.4978 82.1961 36.4978 82.9292C36.2876 82.9292 36.1036 82.9292 35.9109 82.9292C35.7095 82.1961 36.0511 81.4099 35.6744 80.6856Z" fill="#949598"/>
<path d="M77.727 82.9381C77.4642 82.9381 77.2978 82.9381 77.0963 82.9381C77.0963 82.0283 77.0963 81.1449 77.0963 80.2175C77.2102 80.1821 77.3241 80.1203 77.4467 80.1115C77.8934 80.0938 78.3489 80.085 78.7956 80.1115C79.2423 80.1291 79.5138 80.3764 79.5314 80.8181C79.5576 81.5071 79.5401 82.1961 79.5401 82.9292C79.3386 82.9381 79.1547 82.9469 78.9007 82.9557C78.9007 82.6466 78.9007 82.3816 78.9007 82.1078C78.9007 81.9311 78.9007 81.7544 78.9007 81.5778C78.9007 80.6591 78.6905 80.5001 77.727 80.7298C77.727 81.4453 77.727 82.1696 77.727 82.9381Z" fill="#949598"/>
<path d="M63.0905 82.3997C63.0817 82.6205 63.073 82.753 63.0642 82.9473C62.5299 82.9473 62.0394 82.9738 61.5577 82.9385C61.2686 82.9208 61.0058 82.7177 60.9883 82.4173C60.9533 81.8432 60.9445 81.2514 60.9971 80.6772C61.0146 80.5005 61.2423 80.262 61.435 80.1914C61.9606 79.9882 62.5124 80.103 63.073 80.1295C63.073 80.3239 63.073 80.4475 63.073 80.58C63.0292 80.6065 62.9941 80.6419 62.9591 80.6419C62.6701 80.6507 62.381 80.6507 62.092 80.6595C61.8292 80.6684 61.654 80.792 61.619 81.0747C61.6014 81.216 61.5664 81.3662 61.5664 81.5075C61.5576 82.276 61.6803 82.3997 62.4336 82.3997C62.6175 82.3997 62.819 82.3997 63.0905 82.3997Z" fill="#949598"/>
<path d="M53.0175 78.9814C53.2365 78.9814 53.4029 78.9814 53.6043 78.9814C53.6043 80.2976 53.6043 81.5961 53.6043 82.9299C53.4116 82.9299 53.2365 82.9299 53.0175 82.9299C53.0175 81.6226 53.0175 80.3241 53.0175 78.9814Z" fill="#949598"/>
<path d="M29.6569 80.0938C29.6569 80.3235 29.6569 80.4648 29.6569 80.615C29.3678 80.6503 29.1051 80.6768 28.7897 80.7121C28.7897 81.4718 28.7897 82.1784 28.7897 82.9204C28.5357 82.9204 28.343 82.9204 28.0627 82.9204C28.0627 82.7349 28.0627 82.5494 28.0627 82.3728C28.0627 81.8604 28.054 81.3481 28.0715 80.8358C28.089 80.3146 28.308 80.1026 28.8335 80.085C29.0876 80.0938 29.3503 80.0938 29.6569 80.0938Z" fill="#949598"/>
<path d="M68.197 80.6941C67.943 81.4096 68.1883 82.1692 68.0481 82.9289C67.8729 82.9289 67.689 82.9289 67.435 82.9289C67.435 82.6639 67.435 82.3901 67.435 82.1162C67.435 81.6569 67.4262 81.2064 67.4438 80.7471C67.4525 80.3849 67.6189 80.1553 67.9343 80.1199C68.2759 80.0846 68.6262 80.1111 69.0204 80.1111C69.0292 80.3054 69.0379 80.4556 69.0467 80.6323C68.7489 80.6499 68.5036 80.6676 68.197 80.6941Z" fill="#949598"/>
<path d="M58.1854 81.7018C58.1854 81.4898 58.1854 81.3573 58.1854 81.1895C58.7285 81.1895 59.254 81.1895 59.8233 81.1895C59.8233 81.3484 59.8233 81.5163 59.8233 81.7018C59.2715 81.7018 58.7372 81.7018 58.1854 81.7018Z" fill="#949598"/>
<path d="M27.0467 82.3995C27.0204 82.5762 27.0029 82.744 26.9766 82.8942C26.6262 83.009 26.3547 83.0443 26.2146 82.5762C26.3197 82.4702 26.4511 82.3288 26.5825 82.1875C26.7576 82.267 26.8803 82.3288 27.0467 82.3995Z" fill="#949598"/>
<path d="M81.4146 82.5761C81.327 82.7263 81.2744 82.8323 81.1956 82.9736C81.0117 82.9559 80.819 82.9383 80.6 82.9206C80.6 82.7086 80.6 82.5584 80.6 82.3818C80.7138 82.3288 80.8365 82.2758 80.9941 82.1963C81.1343 82.32 81.2744 82.4436 81.4146 82.5761Z" fill="#949598"/>
</svg>
