<svg width="100" height="100" viewBox="0 0 100 100" fill="none" xmlns="http://www.w3.org/2000/svg">
<g clip-path="url(#clip0)">
<path d="M16.9378 40.7611C17.2245 44.6182 16.2689 48.1896 14.0711 51.8087C13.0678 51.1896 12.16 50.4754 11.3956 49.7611C9.48446 47.9515 8.52891 45.9992 8.7678 44.2373C8.95891 42.6658 10.1534 41.2373 12.16 40.142C12.59 39.9039 13.1156 39.6658 13.6411 39.4277C14.0711 39.5706 14.4534 39.7134 14.8834 39.8563C15.6 40.142 16.2689 40.4277 16.9378 40.7611Z" fill="#7C7C7C"/>
<path d="M21.62 55.8096C19.04 55.0953 16.2211 54 13.9756 52.6667C12.7811 51.9524 11.73 51.1429 10.87 50.3334C8.05111 47.6667 7.66889 45 8.91111 42.8096C7.90778 44.0953 7.38222 45.6191 7.09555 47.381C6.47444 51.6191 8.48111 56.2381 13.02 58.7143C16.1256 60.381 20.33 60.3334 22.5756 58.9524C24.3433 57.8572 24.1522 56.5239 21.62 55.8096Z" fill="#7C7C7C"/>
<path d="M14.74 52.19C15.9822 52.9043 17.3678 53.5233 18.8489 54.0947C19.2311 54.2376 19.6611 54.3804 20.0911 54.5233C20.6167 54.2852 21.0945 54.0471 21.5245 53.809C23.5311 52.7138 24.6778 51.2852 24.9167 49.7138C25.1556 47.9995 24.2 45.9995 22.2889 44.19C21.4289 43.3804 20.4256 42.6185 19.2789 41.9519C18.8011 41.6662 18.2756 41.3804 17.7022 41.0947C17.7978 42.8566 17.6067 44.5709 17.2245 46.19C16.7945 48.2376 15.9822 50.19 14.74 52.19Z" fill="#A9A9A9"/>
<path d="M12.0644 38.1902C14.6444 38.9045 17.4633 39.9998 19.7089 41.3331C20.9033 42.0474 21.9544 42.8569 22.8144 43.6664C25.6333 46.3331 26.0156 48.9998 24.7733 51.1902C25.7767 49.9045 26.3022 48.3807 26.5889 46.6188C27.21 42.3807 25.2033 37.7617 20.6644 35.2855C17.5589 33.6188 13.3544 33.6664 11.1089 35.0474C9.38889 36.1426 9.58 37.476 12.0644 38.1902Z" fill="#A9A9A9"/>
<path d="M86.8367 51.2381C87.6967 50.5238 88.7956 50.0953 89.56 50.0953C91.5667 50.0953 93 51.2857 93 53.8095V59.7143H91.0889V53.7619C91.0889 52.1905 90.42 51.6191 89.5122 51.6191C88.7478 51.6191 88.0311 51.8572 86.8844 52.7143V59.7143H84.9256V50.3334C85.7856 50.1429 86.5022 50.381 86.8367 51.2381ZM78.7622 51.6191C77.09 51.6191 76.3733 52.4286 76.3733 55C76.3733 57.5714 77.09 58.4286 78.7622 58.4286C80.4344 58.4286 81.1511 57.5714 81.1511 55C81.1033 52.4762 80.4344 51.6191 78.7622 51.6191ZM78.7622 60C75.5611 60 74.4144 58.0953 74.4144 55.0476C74.4144 52 75.5611 50.0953 78.7622 50.0953C81.9633 50.0953 83.11 52 83.11 55.0476C83.11 58.0953 81.9156 60 78.7622 60ZM47.5156 60C44.3144 60 43.1678 58.0953 43.1678 55.0476C43.1678 52 44.3144 50.0953 47.5156 50.0953C50.7167 50.0953 51.8633 52 51.8633 55.0476C51.8633 58.0953 50.6689 60 47.5156 60ZM47.5156 51.6191C45.8433 51.6191 45.1267 52.4286 45.1267 55C45.1267 57.5714 45.8433 58.4286 47.5156 58.4286C49.1878 58.4286 49.9044 57.5714 49.9044 55C49.8567 52.4762 49.1878 51.6191 47.5156 51.6191ZM64.4767 50.0476C63.8556 50.0476 62.8522 50.2857 62.0878 50.7143C62.2311 50.381 62.2311 50.2381 62.2311 50V46.5238C61.9444 46 61.18 45.8095 60.2722 46.0476V59.7143C60.8933 59.8572 61.4189 59.8095 61.8489 59.4286C62.5656 59.8095 63.4256 60 64.2378 60C67.2 60 68.7289 58.5238 68.7289 55.0476C68.7767 51.6191 67.3433 50.0476 64.4767 50.0476ZM64.2856 58.5238C63.4733 58.5238 62.9 58.381 62.2789 58V52.2381C62.9478 51.9048 63.6644 51.6667 64.4289 51.6667C66.1011 51.6667 66.8178 52.5714 66.8178 55.0476C66.8178 57.2857 66.34 58.5238 64.2856 58.5238ZM55.59 51.1429C56.2589 50.4762 57.1667 50.0953 57.9789 50.0953C58.2656 50.0953 58.6 50.1429 58.8867 50.1905V51.8572C58.5044 51.8095 58.1222 51.7619 57.6922 51.7619C56.9756 51.7619 56.2589 52.0476 55.6378 52.6191V59.7619H53.6789V50.3334C54.5867 50.1429 55.2556 50.381 55.59 51.1429ZM72.5511 47.1905C72.2644 46.6667 71.5 46.4762 70.64 46.7143V48.7143H72.5511V47.1905ZM72.5511 50.8095C72.2644 50.2857 71.5 50.0953 70.64 50.3334V59.7143H72.5511V50.8095ZM40.4444 56.2381L41.9733 57.1429C41.3522 58.5714 40.11 59.9524 37.4344 59.9524C33.0867 59.9524 32.1311 56.9048 32.1311 53.381C32.1311 49.381 33.3733 46.8095 37.3389 46.8095C40.3011 46.8095 41.5911 48.4762 41.83 50.2857H39.9667C39.7278 49.2381 39.0589 48.4762 37.3389 48.4762C34.52 48.4762 34.1378 50.381 34.1378 53.381C34.1378 56.0953 34.5678 58.2857 37.4344 58.2857C38.82 58.3334 39.7278 57.7619 40.4444 56.2381Z" fill="#7C7C7C"/>
</g>
<defs>
<clipPath id="clip0">
<rect width="86" height="26" fill="white" transform="translate(7 34)"/>
</clipPath>
</defs>
</svg>
