<svg width="100" height="100" viewBox="0 0 100 100" fill="none" xmlns="http://www.w3.org/2000/svg">
<g clip-path="url(#clip0)">
<path d="M14.4303 75.9548V71.5674H17.6171V72.3071H15.3086V73.2764H17.4666V74.0162H15.3086V75.215H17.7175V75.9548H14.4303Z" fill="#7C7C7C"/>
<path d="M18.3951 71.5674H19.2733V73.9396C19.2733 74.3223 19.2733 74.5518 19.2984 74.6794C19.3235 74.8579 19.4239 75.011 19.5744 75.113C19.725 75.215 19.9006 75.2661 20.1516 75.2661C20.4025 75.2661 20.5782 75.215 20.7036 75.113C20.8291 75.011 20.9044 74.8834 20.9295 74.7304C20.9546 74.5773 20.9797 74.3223 20.9797 73.9907V71.5674H21.8579V73.8631C21.8579 74.3988 21.8328 74.7559 21.7826 74.9855C21.7325 75.215 21.6572 75.3936 21.5317 75.5467C21.4062 75.6997 21.2306 75.8272 21.0298 75.9038C20.8291 75.9803 20.5531 76.0313 20.2018 76.0313C19.8003 76.0313 19.4741 75.9803 19.2733 75.8783C19.0726 75.7762 18.8969 75.6487 18.7714 75.4956C18.646 75.3426 18.5707 75.1895 18.5205 75.011C18.4703 74.7559 18.4452 74.3988 18.4452 73.8886V71.5674H18.3951Z" fill="#7C7C7C"/>
<path d="M22.7613 75.9548V71.5674H24.5931C25.0448 71.5674 25.3961 71.6184 25.5968 71.6949C25.7976 71.7714 25.9732 71.9245 26.0987 72.1031C26.2242 72.2816 26.2994 72.5367 26.2994 72.7918C26.2994 73.1234 26.1991 73.404 26.0234 73.608C25.8478 73.8121 25.5466 73.9652 25.1702 74.0162C25.371 74.1182 25.5215 74.2457 25.647 74.3733C25.7725 74.5008 25.923 74.7559 26.1489 75.0875L26.6758 75.9548H25.647L25.0197 75.011C24.7938 74.6794 24.6433 74.4498 24.568 74.3733C24.4927 74.2968 24.3924 74.2202 24.3171 74.1947C24.2418 74.1692 24.0912 74.1437 23.8905 74.1437H23.7148V75.9803H22.7613V75.9548ZM23.6145 73.4295H24.2669C24.6935 73.4295 24.9444 73.404 25.0448 73.3785C25.1452 73.353 25.2204 73.2764 25.2957 73.1999C25.371 73.1234 25.3961 72.9958 25.3961 72.8683C25.3961 72.7153 25.3459 72.6132 25.2706 72.5112C25.1953 72.4092 25.095 72.3581 24.9444 72.3326C24.8691 72.3326 24.6684 72.3071 24.3171 72.3071H23.6396V73.4295H23.6145Z" fill="#7C7C7C"/>
<path d="M26.8766 73.786C26.8766 73.3268 26.9519 72.9697 27.0773 72.6636C27.1777 72.434 27.3032 72.23 27.4788 72.0514C27.6545 71.8729 27.8301 71.7453 28.0309 71.6688C28.3069 71.5412 28.608 71.4902 28.9593 71.4902C29.5866 71.4902 30.1136 71.6943 30.49 72.1024C30.8664 72.5106 31.0671 73.0717 31.0671 73.786C31.0671 74.5002 30.8664 75.0359 30.49 75.444C30.1136 75.8521 29.6117 76.0307 28.9844 76.0307C28.332 76.0307 27.8301 75.8266 27.4537 75.444C27.0773 75.0614 26.8766 74.5002 26.8766 73.786ZM27.7799 73.7605C27.7799 74.2451 27.8803 74.6277 28.1061 74.8828C28.332 75.1379 28.608 75.2654 28.9593 75.2654C29.3106 75.2654 29.5866 75.1379 29.8125 74.8828C30.0383 74.6277 30.1387 74.2451 30.1387 73.735C30.1387 73.2248 30.0383 72.8677 29.8125 72.6126C29.5866 72.3575 29.3106 72.23 28.9593 72.23C28.608 72.23 28.3069 72.3575 28.081 72.6126C27.8552 72.8677 27.7799 73.2503 27.7799 73.7605Z" fill="#7C7C7C"/>
<path d="M31.7447 75.9548V71.5674H33.1499C33.6768 71.5674 34.0281 71.5929 34.1787 71.6439C34.4296 71.7204 34.6304 71.848 34.806 72.0775C34.9817 72.3071 35.057 72.5877 35.057 72.9193C35.057 73.1999 35.0068 73.404 34.9064 73.608C34.806 73.8121 34.6806 73.9396 34.53 74.0417C34.3795 74.1437 34.2289 74.2202 34.0783 74.2457C33.8776 74.2968 33.5765 74.2968 33.175 74.2968H32.5978V75.9548H31.7447ZM32.5978 72.3326V73.5825H33.0746C33.4259 73.5825 33.6517 73.557 33.7521 73.506C33.8525 73.455 33.9529 73.3785 34.0281 73.3019C34.1034 73.2254 34.1285 73.0979 34.1285 72.9703C34.1285 72.8173 34.0783 72.6897 33.978 72.5877C33.8776 72.4857 33.7772 72.4092 33.6267 72.3836C33.5263 72.3581 33.3255 72.3581 32.9993 72.3581H32.5978V72.3326Z" fill="#7C7C7C"/>
<path d="M35.7847 75.9538V71.5664H38.9715V72.3061H36.6378V73.2755H38.7959V74.0152H36.6378V75.2141H39.0468V75.9538H35.7847Z" fill="#7C7C7C"/>
<path d="M43.6891 75.9538H42.7355L42.3591 74.959H40.6277L40.2764 75.9538H39.3479L41.0292 71.5664H41.9576L43.6891 75.9538ZM42.0831 74.2193L41.4808 72.5867L40.9037 74.2193H42.0831Z" fill="#7C7C7C"/>
<path d="M44.1407 75.9538V71.5664H44.9939L46.7504 74.4998V71.5664H47.5534V75.9538H46.6751L44.9437 73.0969V75.9538H44.1407Z" fill="#7C7C7C"/>
<path d="M50.1631 71.5664H51.0414V73.9387C51.0414 74.3213 51.0414 74.5509 51.0665 74.6784C51.0915 74.857 51.1919 75.01 51.3425 75.112C51.493 75.2141 51.6687 75.2651 51.9196 75.2651C52.1706 75.2651 52.3462 75.2141 52.4717 75.112C52.5971 75.01 52.6724 74.8825 52.6975 74.7294C52.7226 74.5764 52.7477 74.3213 52.7477 73.9897V71.5664H53.626V73.8621C53.626 74.3978 53.6009 74.7549 53.5507 74.9845C53.5005 75.2141 53.4252 75.3926 53.2998 75.5457C53.1743 75.6987 52.9986 75.8263 52.7979 75.9028C52.5971 75.9793 52.3211 76.0303 51.9698 76.0303C51.5683 76.0303 51.2421 75.9793 51.0414 75.8773C50.8406 75.7752 50.665 75.6477 50.5395 75.4947C50.414 75.3416 50.3388 75.1886 50.2886 75.01C50.2384 74.7549 50.2133 74.3978 50.2133 73.8876V71.5664H50.1631Z" fill="#7C7C7C"/>
<path d="M54.5293 75.9538V71.5664H55.3825L57.139 74.4998V71.5664H57.942V75.9538H57.0637L55.3323 73.0969V75.9538H54.5293Z" fill="#7C7C7C"/>
<path d="M58.8454 75.9538V71.5664H59.7236V75.9538H58.8454Z" fill="#7C7C7C"/>
<path d="M60.351 73.786C60.351 73.3268 60.4262 72.9697 60.5517 72.6636C60.6521 72.434 60.7775 72.23 60.9532 72.0514C61.1288 71.8729 61.3045 71.7453 61.5052 71.6688C61.7813 71.5412 62.0824 71.4902 62.4337 71.4902C63.061 71.4902 63.588 71.6943 63.9644 72.1024C64.3408 72.5106 64.5415 73.0717 64.5415 73.786C64.5415 74.5002 64.3408 75.0359 63.9644 75.444C63.588 75.8521 63.0861 76.0307 62.4588 76.0307C61.8064 76.0307 61.3045 75.8266 60.9281 75.444C60.5517 75.0614 60.351 74.5002 60.351 73.786ZM61.2543 73.7605C61.2543 74.2451 61.3547 74.6277 61.5805 74.8828C61.8064 75.1379 62.0824 75.2654 62.4337 75.2654C62.785 75.2654 63.061 75.1379 63.2869 74.8828C63.5127 74.6277 63.6131 74.2451 63.6131 73.735C63.6131 73.2248 63.5127 72.8677 63.2869 72.6126C63.061 72.3575 62.785 72.23 62.4337 72.23C62.0824 72.23 61.7813 72.3575 61.5554 72.6126C61.3296 72.8677 61.2543 73.2503 61.2543 73.7605Z" fill="#7C7C7C"/>
<path d="M65.2191 75.9538V71.5664H66.0722L67.8288 74.4998V71.5664H68.6317V75.9538H67.7535L66.022 73.0969V75.9538H65.2191Z" fill="#7C7C7C"/>
<path d="M87 18H13V69.0929H87V18Z" fill="white"/>
<path d="M85.5948 19.4023H14.4303V67.6383H85.5948V19.4023Z" fill="#E0E0E0"/>
<path d="M48.4819 29.9125L49.9875 28.7901L51.4931 29.9125L50.9159 28.1014L52.4466 27.0046H50.5646L49.9875 25.168L49.4103 27.0046H47.5283L49.059 28.1014L48.4819 29.9125Z" fill="#595959"/>
<path d="M40.728 32.0287L42.2086 30.9063L43.7141 32.0287L43.1621 30.2176L44.6677 29.1208H42.7857L42.2086 27.2842L41.6314 29.1208H39.7745L41.2801 30.2176L40.728 32.0287Z" fill="#595959"/>
<path d="M36.5375 33.0752L35.9603 34.9118H34.0783L35.609 36.0341L35.0319 37.8197L36.5375 36.7229L38.0431 37.8197L37.4659 36.0341L38.9966 34.9118H37.1146L36.5375 33.0752Z" fill="#595959"/>
<path d="M34.4547 44.6056L35.9603 45.7024L35.3832 43.9168L36.9139 42.7945H35.0319L34.4547 40.9834L33.8776 42.7945H31.9956L33.5263 43.9168L32.9491 45.7024L34.4547 44.6056Z" fill="#595959"/>
<path d="M37.1146 50.7017L36.5375 48.8906L35.9603 50.7272L34.0783 50.7017L35.609 51.8241L35.0319 53.6351L36.5375 52.5128L38.0431 53.6351L37.4659 51.8241L38.9966 50.7017H37.1146Z" fill="#595959"/>
<path d="M42.8108 56.4917L42.2336 54.6807L41.6565 56.5172L39.7745 56.4917L41.3052 57.6141L40.728 59.4252L42.2336 58.3028L43.7392 59.4252L43.1621 57.6141L44.6928 56.4917H42.8108Z" fill="#595959"/>
<path d="M50.5646 58.609L49.9875 56.7725L49.4103 58.609H47.5283L49.059 59.7059L48.4819 61.517L49.9875 60.3946L51.4931 61.517L50.9159 59.7059L52.4466 58.609H50.5646Z" fill="#595959"/>
<path d="M58.3184 56.4917L57.7664 54.6807L57.1892 56.5172L55.3072 56.4917L56.8128 57.6141L56.2608 59.4252L57.7664 58.3028L59.2469 59.4252L58.6948 57.6141L60.2004 56.4917H58.3184Z" fill="#595959"/>
<path d="M64.0397 50.7017L63.4625 48.8906L62.8854 50.7272L61.0034 50.7017L62.5341 51.8241L61.9569 53.6351L63.4625 52.5128L64.943 53.6351L64.391 51.8241L65.8966 50.7017H64.0397Z" fill="#595959"/>
<path d="M67.9793 42.7681H66.0973L65.5202 40.957L64.943 42.7681H63.061L64.5917 43.8905L64.0146 45.7016L65.5202 44.5792L67.0258 45.7016L66.4486 43.8905L67.9793 42.7681Z" fill="#595959"/>
<path d="M61.9569 37.7943L63.4625 36.6975L64.943 37.7943L64.391 36.0088L65.8966 34.8864H64.0397L63.4625 33.0498L62.8854 34.8864H61.0034L62.5341 36.0088L61.9569 37.7943Z" fill="#595959"/>
<path d="M57.7664 27.2842L57.1892 29.1208H55.3323L56.8379 30.2431L56.2859 32.0287L57.7664 30.9063L59.272 32.0287L58.6948 30.2431L60.2255 29.1208H58.3435L57.7664 27.2842Z" fill="#595959"/>
<path d="M14.3048 81.1835V78.4541H16.2621V78.7857H14.6561V79.6275H16.1366V79.9591H14.6561V80.9029H16.3123V81.2345H14.3048V81.1835Z" fill="#7C7C7C"/>
<path d="M18.0437 81.1839V80.9033C17.8932 81.1328 17.6924 81.2349 17.4164 81.2349C17.2909 81.2349 17.1906 81.2094 17.0902 81.1584C16.9898 81.1073 16.9145 81.0563 16.8644 80.9798C16.8142 80.9033 16.7891 80.8267 16.764 80.7247C16.7389 80.6482 16.7389 80.5462 16.7389 80.4186V79.2197H17.0651V80.3166C17.0651 80.4951 17.0651 80.6227 17.0902 80.6737C17.1153 80.7502 17.1655 80.8267 17.2157 80.8778C17.2909 80.9288 17.3662 80.9543 17.4666 80.9543C17.567 80.9543 17.6673 80.9288 17.7426 80.8778C17.8179 80.8267 17.8932 80.7502 17.9183 80.6737C17.9434 80.5972 17.9685 80.4441 17.9685 80.2911V79.2197H18.2947V81.2094H18.0437V81.1839Z" fill="#7C7C7C"/>
<path d="M18.8467 81.1841V79.22H19.1478V79.5261C19.2231 79.373 19.2984 79.2965 19.3486 79.2455C19.4239 79.1945 19.474 79.1689 19.5493 79.1689C19.6497 79.1689 19.7752 79.1945 19.9006 79.271L19.7752 79.5771C19.6999 79.5261 19.6246 79.5006 19.5242 79.5006C19.4489 79.5006 19.3988 79.5261 19.3235 79.5771C19.2733 79.6281 19.2231 79.6791 19.198 79.7556C19.1729 79.8832 19.1478 80.0107 19.1478 80.1383V81.1841H18.8467Z" fill="#7C7C7C"/>
<path d="M19.9759 80.2148C19.9759 79.8577 20.0763 79.5771 20.277 79.3985C20.4527 79.2455 20.6534 79.1689 20.8792 79.1689C21.1553 79.1689 21.356 79.271 21.5317 79.4495C21.7073 79.6281 21.7826 79.8832 21.7826 80.1893C21.7826 80.4444 21.7575 80.6484 21.6571 80.8015C21.5819 80.9545 21.4815 81.0566 21.3309 81.1331C21.1804 81.2096 21.0298 81.2606 20.8542 81.2606C20.5781 81.2606 20.3523 81.1841 20.2017 81.0055C20.0512 80.827 19.9759 80.5464 19.9759 80.2148ZM20.3272 80.2148C20.3272 80.4699 20.3774 80.6484 20.5028 80.776C20.6283 80.9035 20.7538 80.9545 20.9043 80.9545C21.08 80.9545 21.2055 80.9035 21.3058 80.776C21.4062 80.6484 21.4815 80.4444 21.4815 80.1893C21.4815 79.9342 21.4313 79.7556 21.3058 79.6281C21.2055 79.5006 21.0549 79.4495 20.9043 79.4495C20.7287 79.4495 20.6032 79.5006 20.5028 79.6281C20.4025 79.7556 20.3272 79.9597 20.3272 80.2148Z" fill="#7C7C7C"/>
<path d="M22.2092 81.9493V79.22H22.5103V79.475C22.5856 79.373 22.6609 79.2965 22.7612 79.2455C22.8616 79.1945 22.962 79.1689 23.0875 79.1689C23.2631 79.1689 23.3886 79.22 23.5391 79.2965C23.6897 79.373 23.765 79.5005 23.8152 79.6536C23.8904 79.8066 23.9155 79.9852 23.9155 80.1638C23.9155 80.3678 23.8904 80.5464 23.8152 80.6994C23.7399 80.8525 23.6395 80.98 23.514 81.0821C23.3886 81.1586 23.238 81.2096 23.0875 81.2096C22.9871 81.2096 22.8867 81.1841 22.7863 81.1331C22.7111 81.0821 22.6358 81.031 22.5605 80.9545V81.9238H22.2092V81.9493ZM22.5103 80.2148C22.5103 80.4699 22.5605 80.6484 22.6609 80.776C22.7612 80.9035 22.8867 80.9545 23.0373 80.9545C23.1878 80.9545 23.3133 80.9035 23.4137 80.776C23.514 80.6484 23.5642 80.4444 23.5642 80.1893C23.5642 79.9342 23.514 79.7556 23.4137 79.6281C23.3133 79.5006 23.1878 79.4495 23.0373 79.4495C22.8867 79.4495 22.7612 79.5261 22.6609 79.6536C22.5605 79.7556 22.5103 79.9597 22.5103 80.2148Z" fill="#7C7C7C"/>
<path d="M25.6219 80.5453L25.9732 80.5963C25.923 80.8004 25.8227 80.9534 25.6721 81.081C25.5215 81.2085 25.3459 81.2595 25.12 81.2595C24.844 81.2595 24.6182 81.1575 24.4425 80.9789C24.2669 80.8004 24.1916 80.5453 24.1916 80.2392C24.1916 79.9076 24.2669 79.6525 24.4425 79.474C24.6182 79.2954 24.8189 79.1934 25.0949 79.1934C25.3459 79.1934 25.5717 79.2954 25.7223 79.474C25.8728 79.6525 25.9732 79.9076 25.9732 80.2392C25.9732 80.2647 25.9732 80.2902 25.9732 80.3412H24.5178C24.5178 80.5708 24.5931 80.7239 24.6935 80.8514C24.7938 80.9789 24.9444 81.03 25.0949 81.03C25.2204 81.03 25.3208 81.0044 25.3961 80.9279C25.4713 80.8514 25.5717 80.6983 25.6219 80.5453ZM24.5429 80.0096H25.6219C25.5968 79.8311 25.5717 79.729 25.4964 79.627C25.3961 79.4995 25.2455 79.4229 25.0949 79.4229C24.9444 79.4229 24.8189 79.474 24.7185 79.576C24.6182 79.7035 24.568 79.8311 24.5429 80.0096Z" fill="#7C7C7C"/>
<path d="M27.6544 80.9543C27.529 81.0563 27.4035 81.1328 27.3031 81.1839C27.2028 81.2349 27.0773 81.2604 26.9267 81.2604C26.7009 81.2604 26.5503 81.2094 26.4249 81.1073C26.2994 81.0053 26.2492 80.8522 26.2492 80.6992C26.2492 80.5972 26.2743 80.5206 26.3245 80.4441C26.3747 80.3676 26.4249 80.2911 26.5002 80.2401C26.5754 80.189 26.6507 80.1635 26.726 80.138C26.8013 80.1125 26.8766 80.1125 27.0271 80.087C27.3031 80.0615 27.4788 80.0105 27.6293 79.9595C27.6293 79.9084 27.6293 79.8829 27.6293 79.8829C27.6293 79.7554 27.6043 79.6534 27.529 79.6023C27.4537 79.5258 27.3282 79.5003 27.1526 79.5003C27.002 79.5003 26.8766 79.5258 26.8013 79.5768C26.726 79.6279 26.6758 79.7299 26.6256 79.8829L26.2994 79.8319C26.3245 79.6789 26.3747 79.5768 26.45 79.5003C26.5252 79.4238 26.6256 79.3473 26.7511 79.2963C26.8766 79.2452 27.0271 79.2197 27.2028 79.2197C27.3784 79.2197 27.5039 79.2452 27.6043 79.2707C27.7046 79.2963 27.7799 79.3728 27.8301 79.4238C27.8803 79.4748 27.9054 79.5513 27.9305 79.6534C27.9305 79.7044 27.9556 79.8064 27.9556 79.9595V80.4186C27.9556 80.7247 27.9556 80.9288 27.9807 81.0053C28.0057 81.0818 28.0308 81.1583 28.0559 81.2349H27.7046C27.7046 81.1328 27.6795 81.0308 27.6544 80.9543ZM27.6293 80.189C27.5039 80.2401 27.3282 80.2911 27.0773 80.3166C26.9518 80.3421 26.8515 80.3676 26.8013 80.3931C26.7511 80.4186 26.7009 80.4441 26.6758 80.4951C26.6507 80.5461 26.6256 80.5972 26.6256 80.6482C26.6256 80.7502 26.6507 80.8012 26.726 80.8778C26.8013 80.9288 26.9016 80.9798 27.0271 80.9798C27.1526 80.9798 27.278 80.9543 27.3784 80.9033C27.4788 80.8522 27.5541 80.7757 27.6043 80.6737C27.6294 80.5972 27.6544 80.4951 27.6544 80.3421V80.189H27.6293Z" fill="#7C7C7C"/>
<path d="M28.4825 81.1841V79.22H28.7836V79.5006C28.9342 79.271 29.135 79.1689 29.411 79.1689C29.5364 79.1689 29.6368 79.1945 29.7372 79.2455C29.8376 79.2965 29.9128 79.3475 29.963 79.424C30.0132 79.5006 30.0383 79.5771 30.0634 79.6791C30.0634 79.7301 30.0885 79.8577 30.0885 80.0107V81.2351H29.7623V79.9852C29.7623 79.8577 29.7372 79.7556 29.7121 79.6791C29.687 79.6026 29.6368 79.5516 29.5866 79.5261C29.5114 79.475 29.4361 79.475 29.3608 79.475C29.2102 79.475 29.1099 79.5261 28.9844 79.6026C28.884 79.7046 28.8338 79.8577 28.8338 80.1127V81.1841H28.4825Z" fill="#7C7C7C"/>
<path d="M31.6694 81.1835V78.4541H32.8738C33.1248 78.4541 33.3004 78.4796 33.4259 78.5306C33.5514 78.5816 33.6517 78.6582 33.727 78.7857C33.8023 78.9132 33.8274 79.0408 33.8274 79.1938C33.8274 79.3979 33.7772 79.551 33.6517 79.6785C33.5263 79.806 33.3255 79.9081 33.0746 79.9336C33.175 79.9846 33.2502 80.0356 33.3004 80.0611C33.4008 80.1632 33.5012 80.2907 33.6016 80.4182L34.0783 81.158H33.6266L33.2753 80.5968C33.175 80.4437 33.0746 80.3162 33.0244 80.2142C32.9742 80.1121 32.8989 80.0611 32.8488 80.0356C32.7986 80.0101 32.7484 79.9846 32.6982 79.9591C32.648 79.9591 32.5978 79.9336 32.4974 79.9336H32.096V81.158H31.6694V81.1835ZM32.0207 79.653H32.7986C32.9491 79.653 33.0997 79.6275 33.175 79.602C33.2753 79.5765 33.3255 79.5254 33.3757 79.4489C33.4259 79.3724 33.451 79.2959 33.451 79.1938C33.451 79.0663 33.4008 78.9643 33.3004 78.8622C33.2001 78.7602 33.0495 78.7347 32.8738 78.7347H32.0207V79.653Z" fill="#7C7C7C"/>
<path d="M35.6843 80.5453L36.0356 80.5963C35.9854 80.8004 35.885 80.9534 35.7345 81.081C35.5839 81.2085 35.4083 81.2595 35.1824 81.2595C34.9064 81.2595 34.6806 81.1575 34.5049 80.9789C34.3292 80.8004 34.254 80.5453 34.254 80.2392C34.254 79.9076 34.3292 79.6525 34.5049 79.474C34.6806 79.2954 34.8813 79.1934 35.1573 79.1934C35.4083 79.1934 35.6341 79.2954 35.7847 79.474C35.9352 79.6525 36.0356 79.9076 36.0356 80.2392C36.0356 80.2647 36.0356 80.2902 36.0356 80.3412H34.5802C34.5802 80.5708 34.6555 80.7239 34.7558 80.8514C34.8562 80.9789 35.0068 81.03 35.1573 81.03C35.2828 81.03 35.3832 81.0044 35.4584 80.9279C35.5337 80.8514 35.6341 80.6983 35.6843 80.5453ZM34.5802 80.0096H35.6592C35.6341 79.8311 35.609 79.729 35.5337 79.627C35.4334 79.4995 35.2828 79.4229 35.1322 79.4229C34.9817 79.4229 34.8562 79.474 34.7558 79.576C34.6555 79.7035 34.6053 79.8311 34.5802 80.0096Z" fill="#7C7C7C"/>
<path d="M36.3618 81.3618L36.688 81.4128C36.7131 81.5148 36.7382 81.5914 36.7884 81.6424C36.8637 81.6934 36.9891 81.7444 37.1146 81.7444C37.2652 81.7444 37.3906 81.7189 37.4659 81.6424C37.5412 81.5658 37.6165 81.4893 37.6416 81.3873C37.6667 81.3108 37.6667 81.1832 37.6667 80.9537C37.5161 81.1322 37.3404 81.2087 37.1146 81.2087C36.8386 81.2087 36.6378 81.1067 36.4873 80.9026C36.3367 80.6986 36.2614 80.469 36.2614 80.1884C36.2614 80.0099 36.2865 79.8313 36.3618 79.6527C36.4371 79.4742 36.5375 79.3722 36.6629 79.2701C36.7884 79.1936 36.9389 79.1426 37.1146 79.1426C37.3404 79.1426 37.5412 79.2446 37.6917 79.4232V79.2191H37.9929V80.9281C37.9929 81.2342 37.9678 81.4638 37.8925 81.5914C37.8423 81.7189 37.7419 81.8209 37.5914 81.8974C37.4659 81.974 37.2903 81.9995 37.0895 81.9995C36.8637 81.9995 36.6629 81.9485 36.5375 81.8464C36.4371 81.7444 36.3618 81.5658 36.3618 81.3618ZM36.6378 80.1629C36.6378 80.418 36.688 80.622 36.7884 80.7241C36.8888 80.8261 37.0142 80.9026 37.1648 80.9026C37.3153 80.9026 37.4408 80.8516 37.5412 80.7241C37.6416 80.5965 37.6917 80.418 37.6917 80.1629C37.6917 79.9078 37.6416 79.7293 37.5412 79.6017C37.4408 79.4742 37.3153 79.4232 37.1648 79.4232C37.0142 79.4232 36.8888 79.4742 36.7884 79.6017C36.688 79.7548 36.6378 79.9333 36.6378 80.1629Z" fill="#7C7C7C"/>
<path d="M38.5198 78.8367V78.4541H38.846V78.8367H38.5198ZM38.5198 81.1835V79.2193H38.846V81.209H38.5198V81.1835Z" fill="#7C7C7C"/>
<path d="M39.2475 80.2148C39.2475 79.8577 39.3479 79.5771 39.5487 79.3985C39.7243 79.2455 39.9251 79.1689 40.1509 79.1689C40.4269 79.1689 40.6277 79.271 40.8033 79.4495C40.979 79.6281 41.0543 79.8832 41.0543 80.1893C41.0543 80.4444 41.0292 80.6484 40.9288 80.8015C40.8535 80.9545 40.7531 81.0566 40.6026 81.1331C40.452 81.2096 40.3015 81.2606 40.1258 81.2606C39.8498 81.2606 39.6239 81.1841 39.4734 81.0055C39.3228 80.827 39.2475 80.5464 39.2475 80.2148ZM39.5738 80.2148C39.5738 80.4699 39.6239 80.6484 39.7494 80.776C39.8749 80.9035 40.0003 80.9545 40.1509 80.9545C40.3266 80.9545 40.452 80.9035 40.5524 80.776C40.6528 80.6484 40.728 80.4444 40.728 80.1893C40.728 79.9342 40.6779 79.7556 40.5524 79.6281C40.452 79.5006 40.3015 79.4495 40.1509 79.4495C39.9752 79.4495 39.8498 79.5006 39.7494 79.6281C39.649 79.7556 39.5738 79.9597 39.5738 80.2148Z" fill="#7C7C7C"/>
<path d="M41.4557 81.1841V79.22H41.7569V79.5006C41.9074 79.271 42.1082 79.1689 42.3842 79.1689C42.5097 79.1689 42.61 79.1945 42.7104 79.2455C42.8108 79.2965 42.8861 79.3475 42.9362 79.424C42.9864 79.5006 43.0115 79.5771 43.0366 79.6791C43.0366 79.7301 43.0617 79.8577 43.0617 80.0107V81.2351H42.7355V79.9852C42.7355 79.8577 42.7104 79.7556 42.6853 79.6791C42.6602 79.6026 42.61 79.5516 42.5598 79.5261C42.4846 79.475 42.4093 79.475 42.334 79.475C42.1834 79.475 42.0831 79.5261 41.9576 79.6026C41.8572 79.7046 41.807 79.8577 41.807 80.1127V81.1841H41.4557Z" fill="#7C7C7C"/>
<path d="M44.8182 80.9543C44.6928 81.0563 44.5673 81.1328 44.4669 81.1839C44.3666 81.2349 44.2411 81.2604 44.0905 81.2604C43.8647 81.2604 43.7141 81.2094 43.5887 81.1073C43.4632 81.0053 43.413 80.8522 43.413 80.6992C43.413 80.5972 43.4381 80.5206 43.4883 80.4441C43.5385 80.3676 43.5887 80.2911 43.664 80.2401C43.7392 80.189 43.8145 80.1635 43.8898 80.138C43.9651 80.1125 44.0404 80.1125 44.1909 80.087C44.4669 80.0615 44.6426 80.0105 44.7931 79.9595C44.7931 79.9084 44.7931 79.8829 44.7931 79.8829C44.7931 79.7554 44.7681 79.6534 44.6928 79.6023C44.6175 79.5258 44.492 79.5003 44.3164 79.5003C44.1658 79.5003 44.0404 79.5258 43.9651 79.5768C43.8898 79.6279 43.8396 79.7299 43.7894 79.8829L43.4632 79.8319C43.4883 79.6789 43.5385 79.5768 43.6138 79.5003C43.6891 79.4238 43.7894 79.3473 43.9149 79.2963C44.0404 79.2452 44.1909 79.2197 44.3666 79.2197C44.5422 79.2197 44.6677 79.2452 44.7681 79.2707C44.8684 79.3218 44.9437 79.3728 44.9939 79.4238C45.0441 79.4748 45.0692 79.5513 45.0943 79.6534C45.0943 79.7044 45.1194 79.8064 45.1194 79.9595V80.4186C45.1194 80.7247 45.1194 80.9288 45.1445 81.0053C45.1695 81.0818 45.1946 81.1583 45.2197 81.2349H44.8684C44.8433 81.1328 44.8433 81.0308 44.8182 80.9543ZM44.7931 80.189C44.6677 80.2401 44.492 80.2911 44.2411 80.3166C44.1156 80.3421 44.0153 80.3676 43.94 80.3931C43.8647 80.4186 43.8396 80.4441 43.8145 80.4951C43.7894 80.5461 43.7643 80.5972 43.7643 80.6482C43.7643 80.7502 43.7894 80.8012 43.8647 80.8778C43.94 80.9288 44.0404 80.9798 44.1658 80.9798C44.2913 80.9798 44.4168 80.9543 44.5171 80.9033C44.6175 80.8522 44.6928 80.7757 44.743 80.6737C44.7681 80.5972 44.7931 80.4951 44.7931 80.3421V80.189Z" fill="#7C7C7C"/>
<path d="M45.6463 81.1835V78.4541H45.9725V81.1835H45.6463Z" fill="#7C7C7C"/>
<path d="M47.5785 81.1835V78.4541H48.5069C48.7077 78.4541 48.8833 78.4796 48.9837 78.5051C49.1343 78.5306 49.2597 78.6072 49.3852 78.7092C49.5358 78.8367 49.6361 78.9898 49.7114 79.1683C49.7867 79.3469 49.8118 79.5765 49.8118 79.8315C49.8118 80.0356 49.7867 80.2142 49.7365 80.3927C49.6863 80.5458 49.6361 80.6988 49.5609 80.8009C49.4856 80.9029 49.4103 80.9794 49.3099 81.0559C49.2096 81.107 49.1092 81.158 48.9837 81.1835C48.8582 81.209 48.7077 81.2345 48.5571 81.2345H47.5785V81.1835ZM47.9298 80.8774H48.5069C48.6826 80.8774 48.8332 80.8519 48.9335 80.8264C49.0339 80.8009 49.1092 80.7498 49.1845 80.6733C49.2597 80.5968 49.335 80.4693 49.3852 80.3162C49.4354 80.1632 49.4605 79.9846 49.4605 79.7805C49.4605 79.4999 49.4103 79.2704 49.3099 79.1173C49.2096 78.9643 49.1092 78.8622 48.9837 78.8112C48.8833 78.7857 48.7328 78.7602 48.532 78.7602H47.9549V80.8774H47.9298Z" fill="#7C7C7C"/>
<path d="M51.5683 80.5453L51.9196 80.5963C51.8694 80.8004 51.7691 80.9534 51.6185 81.081C51.4679 81.183 51.2923 81.2595 51.0664 81.2595C50.7904 81.2595 50.5646 81.1575 50.3889 80.9789C50.2133 80.8004 50.138 80.5453 50.138 80.2392C50.138 79.9076 50.2133 79.6525 50.3889 79.474C50.5646 79.2954 50.7653 79.1934 51.0414 79.1934C51.2923 79.1934 51.5181 79.2954 51.6687 79.474C51.8443 79.6525 51.9196 79.9076 51.9196 80.2392C51.9196 80.2647 51.9196 80.2902 51.9196 80.3412H50.4642C50.4642 80.5708 50.5395 80.7239 50.6399 80.8514C50.7402 80.9789 50.8908 81.03 51.0414 81.03C51.1668 81.03 51.2672 81.0044 51.3425 80.9279C51.4178 80.8514 51.5181 80.6983 51.5683 80.5453ZM50.4893 80.0096H51.5683C51.5432 79.8311 51.5181 79.729 51.4428 79.627C51.3425 79.4995 51.1919 79.4229 51.0414 79.4229C50.8908 79.4229 50.7653 79.474 50.665 79.576C50.5646 79.7035 50.5144 79.8311 50.4893 80.0096Z" fill="#7C7C7C"/>
<path d="M52.8732 81.183L52.1204 79.1934H52.4717L52.8983 80.3923C52.9484 80.5198 52.9735 80.6473 53.0237 80.8004C53.0488 80.6983 53.099 80.5708 53.1492 80.4178L53.5758 79.2189H53.9271L53.1994 81.2085H52.8732V81.183Z" fill="#7C7C7C"/>
<path d="M55.5582 80.5453L55.9095 80.5963C55.8593 80.8004 55.7589 80.9534 55.6083 81.081C55.4578 81.183 55.2821 81.2595 55.0563 81.2595C54.7803 81.2595 54.5544 81.1575 54.3788 80.9789C54.2031 80.8004 54.1278 80.5453 54.1278 80.2392C54.1278 79.9076 54.2031 79.6525 54.3788 79.474C54.5544 79.2954 54.7552 79.1934 55.0312 79.1934C55.2821 79.1934 55.508 79.2954 55.6585 79.474C55.8342 79.6525 55.9095 79.9076 55.9095 80.2392C55.9095 80.2647 55.9095 80.2902 55.9095 80.3412H54.4541C54.4541 80.5708 54.5293 80.7239 54.6297 80.8514C54.7301 80.9789 54.8806 81.03 55.0312 81.03C55.1567 81.03 55.257 81.0044 55.3323 80.9279C55.4076 80.8514 55.508 80.6983 55.5582 80.5453ZM54.4791 80.0096H55.5582C55.5331 79.8311 55.508 79.729 55.4327 79.627C55.3323 79.4995 55.1818 79.4229 55.0312 79.4229C54.8806 79.4229 54.7552 79.474 54.6548 79.576C54.5293 79.7035 54.4791 79.8311 54.4791 80.0096Z" fill="#7C7C7C"/>
<path d="M56.3109 81.1835V78.4541H56.6372V81.1835H56.3109Z" fill="#7C7C7C"/>
<path d="M57.0135 80.2148C57.0135 79.8577 57.1139 79.5771 57.3147 79.3985C57.4903 79.2455 57.6911 79.1689 57.9169 79.1689C58.1929 79.1689 58.3937 79.271 58.5693 79.4495C58.745 79.6281 58.8203 79.8832 58.8203 80.1893C58.8203 80.4444 58.7952 80.6484 58.6948 80.8015C58.6195 80.9545 58.5191 81.0566 58.3686 81.1331C58.218 81.2096 58.0675 81.2606 57.8918 81.2606C57.6158 81.2606 57.39 81.1841 57.2394 81.0055C57.1139 80.8015 57.0135 80.5464 57.0135 80.2148ZM57.3649 80.2148C57.3649 80.4699 57.415 80.6484 57.5405 80.776C57.666 80.9035 57.7914 80.9545 57.942 80.9545C58.1177 80.9545 58.2431 80.9035 58.3435 80.776C58.4439 80.6484 58.5191 80.4444 58.5191 80.1893C58.5191 79.9342 58.469 79.7556 58.3435 79.6281C58.2431 79.5006 58.0926 79.4495 57.942 79.4495C57.7664 79.4495 57.6409 79.5006 57.5405 79.6281C57.4401 79.7556 57.3649 79.9597 57.3649 80.2148Z" fill="#7C7C7C"/>
<path d="M59.2469 81.9493V79.22H59.548V79.475C59.6233 79.373 59.6985 79.2965 59.7989 79.2455C59.8993 79.1945 59.9997 79.1689 60.1251 79.1689C60.3008 79.1689 60.4262 79.22 60.5768 79.2965C60.7274 79.373 60.8026 79.5005 60.8779 79.6536C60.9532 79.8066 60.9783 79.9852 60.9783 80.1638C60.9783 80.3678 60.9532 80.5464 60.8779 80.6994C60.8026 80.8525 60.7023 80.98 60.5768 81.0821C60.4513 81.1586 60.3008 81.2096 60.1502 81.2096C60.0498 81.2096 59.9495 81.1841 59.8491 81.1331C59.7738 81.0821 59.6985 81.031 59.6233 80.9545V81.9238H59.2469V81.9493ZM59.548 80.2148C59.548 80.4699 59.5982 80.6484 59.6985 80.776C59.7989 80.9035 59.9244 80.9545 60.0749 80.9545C60.2255 80.9545 60.351 80.9035 60.4513 80.776C60.5517 80.6484 60.6019 80.4444 60.6019 80.1893C60.6019 79.9342 60.5517 79.7556 60.4513 79.6281C60.351 79.5006 60.2255 79.4495 60.0749 79.4495C59.9244 79.4495 59.7989 79.5261 59.6985 79.6536C59.5982 79.7556 59.548 79.9597 59.548 80.2148Z" fill="#7C7C7C"/>
<path d="M61.3296 81.183V79.2189H61.6307V79.4995C61.6809 79.3974 61.7813 79.3209 61.8816 79.2699C61.982 79.2189 62.1075 79.1934 62.2329 79.1934C62.3835 79.1934 62.4839 79.2189 62.5843 79.2954C62.6846 79.3464 62.7348 79.4484 62.785 79.5505C62.9356 79.3209 63.1363 79.1934 63.3872 79.1934C63.588 79.1934 63.7385 79.2444 63.8389 79.3464C63.9393 79.4484 63.9895 79.627 63.9895 79.8566V81.2085H63.6633V79.9586C63.6633 79.8311 63.6633 79.729 63.6382 79.678C63.6131 79.627 63.588 79.576 63.5127 79.525C63.4374 79.474 63.3872 79.474 63.312 79.474C63.1865 79.474 63.061 79.525 62.9606 79.6015C62.8603 79.678 62.8352 79.8311 62.8352 80.0351V81.183H62.509V79.8821C62.509 79.729 62.4839 79.627 62.4337 79.5505C62.3835 79.474 62.2831 79.4484 62.1577 79.4484C62.0573 79.4484 61.982 79.474 61.9067 79.525C61.8315 79.576 61.7813 79.6525 61.7311 79.7545C61.6809 79.8566 61.6809 79.9841 61.6809 80.1627V81.183H61.3296Z" fill="#7C7C7C"/>
<path d="M65.7962 80.5453L66.1475 80.5963C66.0973 80.8004 65.9969 80.9534 65.8464 81.081C65.6958 81.183 65.5202 81.2595 65.2943 81.2595C65.0183 81.2595 64.7925 81.1575 64.6168 80.9789C64.4412 80.8004 64.3659 80.5453 64.3659 80.2392C64.3659 79.9076 64.4412 79.6525 64.6168 79.474C64.7925 79.2954 64.9932 79.1934 65.2692 79.1934C65.5202 79.1934 65.746 79.2954 65.8966 79.474C66.0722 79.6525 66.1475 79.9076 66.1475 80.2392C66.1475 80.2647 66.1475 80.2902 66.1475 80.3412H64.6921C64.6921 80.5708 64.7674 80.7239 64.8677 80.8514C64.9681 80.9789 65.1187 81.03 65.2692 81.03C65.3947 81.03 65.4951 81.0044 65.5704 80.9279C65.6456 80.8514 65.746 80.6983 65.7962 80.5453ZM64.7172 80.0096H65.7962C65.7711 79.8311 65.746 79.729 65.6707 79.627C65.5704 79.4995 65.4198 79.4229 65.2692 79.4229C65.1187 79.4229 64.9932 79.474 64.8928 79.576C64.7925 79.7035 64.7423 79.8311 64.7172 80.0096Z" fill="#7C7C7C"/>
<path d="M66.5741 81.1841V79.22H66.8752V79.5006C67.0258 79.271 67.2265 79.1689 67.5025 79.1689C67.628 79.1689 67.7284 79.1945 67.8288 79.2455C67.9291 79.2965 68.0044 79.3475 68.0546 79.424C68.1048 79.5006 68.1299 79.5771 68.155 79.6791C68.155 79.7301 68.1801 79.8577 68.1801 80.0107V81.2351H67.8539V79.9852C67.8539 79.8577 67.8288 79.7556 67.8037 79.6791C67.7786 79.6026 67.7284 79.5516 67.6782 79.5261C67.6029 79.475 67.5276 79.475 67.4524 79.475C67.3018 79.475 67.2014 79.5261 67.076 79.6026C66.9756 79.7046 66.9254 79.8577 66.9254 80.1127V81.1841H66.5741Z" fill="#7C7C7C"/>
<path d="M69.3845 80.9027L69.4347 81.2088C69.3343 81.2343 69.2591 81.2343 69.1838 81.2343C69.0583 81.2343 68.983 81.2088 68.9078 81.1832C68.8325 81.1577 68.8074 81.0812 68.7572 81.0302C68.7321 80.9792 68.707 80.8261 68.707 80.6221V79.4742H68.4561V79.2191H68.707V78.7089L69.0332 78.5049V79.1936H69.3594V79.4487H69.0332V80.5966C69.0332 80.6986 69.0332 80.7496 69.0583 80.7751C69.0583 80.8006 69.0834 80.8261 69.1085 80.8516C69.1336 80.8771 69.1838 80.8771 69.234 80.8771C69.2591 80.9027 69.3093 80.9027 69.3845 80.9027Z" fill="#7C7C7C"/>
<path d="M70.8148 81.1835V78.4541H72.6215V78.7857H71.1661V79.6275H72.4208V79.9591H71.1661V81.209H70.8148V81.1835Z" fill="#7C7C7C"/>
<path d="M74.3279 81.1839V80.9033C74.1773 81.1328 73.9766 81.2349 73.7006 81.2349C73.5751 81.2349 73.4747 81.2094 73.3744 81.1584C73.274 81.1073 73.1987 81.0563 73.1485 80.9798C73.0983 80.9033 73.0732 80.8267 73.0482 80.7247C73.0231 80.6482 73.0231 80.5462 73.0231 80.4186V79.2197H73.3493V80.3166C73.3493 80.4951 73.3493 80.6227 73.3744 80.6737C73.3995 80.7502 73.4496 80.8267 73.4998 80.8778C73.5751 80.9288 73.6504 80.9543 73.7508 80.9543C73.8511 80.9543 73.9515 80.9288 74.0268 80.8778C74.1021 80.8267 74.1773 80.7502 74.2024 80.6737C74.2275 80.5972 74.2526 80.4441 74.2526 80.2911V79.2197H74.5788V81.2094H74.3279V81.1839Z" fill="#7C7C7C"/>
<path d="M75.1309 81.1841V79.22H75.432V79.5006C75.5826 79.271 75.7833 79.1689 76.0593 79.1689C76.1848 79.1689 76.2852 79.1945 76.3856 79.2455C76.4859 79.2965 76.5612 79.3475 76.6114 79.424C76.6616 79.5006 76.6867 79.5771 76.7118 79.6791C76.7118 79.7301 76.7369 79.8577 76.7369 80.0107V81.2351H76.4106V79.9852C76.4106 79.8577 76.3855 79.7556 76.3605 79.6791C76.3354 79.6026 76.2852 79.5516 76.235 79.5261C76.1597 79.475 76.0844 79.475 76.0092 79.475C75.8586 79.475 75.7582 79.5261 75.6328 79.6026C75.5324 79.7046 75.4822 79.8577 75.4822 80.1127V81.1841H75.1309Z" fill="#7C7C7C"/>
<path d="M78.4934 81.1835V80.9284C78.3679 81.1325 78.1923 81.2345 77.9413 81.2345C77.7908 81.2345 77.6402 81.1835 77.5147 81.107C77.3893 81.0304 77.2889 80.9029 77.2136 80.7498C77.1383 80.5968 77.1133 80.4182 77.1133 80.2142C77.1133 80.0101 77.1383 79.8315 77.2136 79.6785C77.2889 79.5254 77.3642 79.3979 77.5147 79.2959C77.6653 79.1938 77.7908 79.1683 77.9413 79.1683C78.0668 79.1683 78.1672 79.1938 78.2676 79.2449C78.3679 79.2959 78.4432 79.3724 78.4934 79.4489V78.4541H78.8196V81.1835H78.4934ZM77.4646 80.2142C77.4646 80.4693 77.5147 80.6478 77.6151 80.7754C77.7155 80.9029 77.841 80.9539 77.9915 80.9539C78.1421 80.9539 78.2675 80.9029 78.3679 80.7754C78.4683 80.6478 78.5185 80.4693 78.5185 80.2142C78.5185 79.9336 78.4683 79.755 78.3679 79.6275C78.2675 79.4999 78.1421 79.4489 77.9915 79.4489C77.841 79.4489 77.7155 79.4999 77.6151 79.6275C77.5147 79.755 77.4646 79.9336 77.4646 80.2142Z" fill="#7C7C7C"/>
</g>
<defs>
<clipPath id="clip0">
<rect width="74" height="64" fill="white" transform="translate(13 18)"/>
</clipPath>
</defs>
</svg>
