<svg width="99" height="100" viewBox="0 0 99 100" fill="none" xmlns="http://www.w3.org/2000/svg">
<path d="M9.87459 30V21.6H11.4106V25.092H15.1786V21.6H16.7146V30H15.1786V26.34H11.4106V30H9.87459ZM22.2833 30.144C21.4433 30.144 20.7073 29.96 20.0753 29.592C19.4513 29.224 18.9593 28.716 18.5993 28.068C18.2473 27.412 18.0713 26.656 18.0713 25.8C18.0713 24.944 18.2473 24.192 18.5993 23.544C18.9593 22.888 19.4513 22.376 20.0753 22.008C20.7073 21.64 21.4433 21.456 22.2833 21.456C23.1153 21.456 23.8473 21.64 24.4793 22.008C25.1113 22.376 25.6033 22.888 25.9553 23.544C26.3073 24.192 26.4833 24.944 26.4833 25.8C26.4833 26.656 26.3073 27.412 25.9553 28.068C25.6033 28.716 25.1113 29.224 24.4793 29.592C23.8473 29.96 23.1153 30.144 22.2833 30.144ZM22.2833 28.764C23.0833 28.764 23.7193 28.5 24.1913 27.972C24.6713 27.444 24.9113 26.72 24.9113 25.8C24.9113 24.88 24.6713 24.156 24.1913 23.628C23.7193 23.1 23.0833 22.836 22.2833 22.836C21.4833 22.836 20.8433 23.1 20.3633 23.628C19.8833 24.156 19.6433 24.88 19.6433 25.8C19.6433 26.72 19.8833 27.444 20.3633 27.972C20.8433 28.5 21.4833 28.764 22.2833 28.764ZM27.8394 30V21.6H30.9234C31.5954 21.6 32.1474 21.716 32.5794 21.948C33.0194 22.172 33.3474 22.48 33.5634 22.872C33.7794 23.256 33.8874 23.684 33.8874 24.156C33.8874 24.668 33.7514 25.136 33.4794 25.56C33.2154 25.984 32.7994 26.292 32.2314 26.484L33.9714 30H32.2074L30.6474 26.688H29.3754V30H27.8394ZM29.3754 25.56H30.8274C31.3394 25.56 31.7154 25.436 31.9554 25.188C32.1954 24.94 32.3154 24.612 32.3154 24.204C32.3154 23.804 32.1954 23.484 31.9554 23.244C31.7234 23.004 31.3434 22.884 30.8154 22.884H29.3754V25.56ZM35.316 30V21.6H36.852V30H35.316ZM38.2281 30V28.824L42.0921 22.884H38.2641V21.6H43.8681V22.776L39.9801 28.716H43.8921V30H38.2281ZM48.9786 30.144C48.1386 30.144 47.4026 29.96 46.7706 29.592C46.1466 29.224 45.6546 28.716 45.2946 28.068C44.9426 27.412 44.7666 26.656 44.7666 25.8C44.7666 24.944 44.9426 24.192 45.2946 23.544C45.6546 22.888 46.1466 22.376 46.7706 22.008C47.4026 21.64 48.1386 21.456 48.9786 21.456C49.8106 21.456 50.5426 21.64 51.1746 22.008C51.8066 22.376 52.2986 22.888 52.6506 23.544C53.0026 24.192 53.1786 24.944 53.1786 25.8C53.1786 26.656 53.0026 27.412 52.6506 28.068C52.2986 28.716 51.8066 29.224 51.1746 29.592C50.5426 29.96 49.8106 30.144 48.9786 30.144ZM48.9786 28.764C49.7786 28.764 50.4146 28.5 50.8866 27.972C51.3666 27.444 51.6066 26.72 51.6066 25.8C51.6066 24.88 51.3666 24.156 50.8866 23.628C50.4146 23.1 49.7786 22.836 48.9786 22.836C48.1786 22.836 47.5386 23.1 47.0586 23.628C46.5786 24.156 46.3386 24.88 46.3386 25.8C46.3386 26.72 46.5786 27.444 47.0586 27.972C47.5386 28.5 48.1786 28.764 48.9786 28.764ZM54.5348 30V21.6H56.0708L60.0188 27.516V21.6H61.5548V30H60.0188L56.0708 24.096V30H54.5348ZM62.9792 30V28.884C63.4912 28.46 63.9872 28.04 64.4672 27.624C64.9552 27.208 65.3872 26.796 65.7632 26.388C66.1472 25.98 66.4512 25.584 66.6752 25.2C66.9072 24.808 67.0232 24.428 67.0232 24.06C67.0232 23.716 66.9272 23.412 66.7352 23.148C66.5512 22.884 66.2432 22.752 65.8112 22.752C65.3712 22.752 65.0392 22.896 64.8152 23.184C64.5912 23.472 64.4792 23.82 64.4792 24.228H62.9912C63.0072 23.612 63.1432 23.1 63.3992 22.692C63.6552 22.276 63.9952 21.968 64.4192 21.768C64.8432 21.56 65.3192 21.456 65.8472 21.456C66.7032 21.456 67.3672 21.692 67.8392 22.164C68.3192 22.628 68.5592 23.232 68.5592 23.976C68.5592 24.44 68.4512 24.892 68.2352 25.332C68.0272 25.772 67.7512 26.196 67.4072 26.604C67.0632 27.012 66.6912 27.396 66.2912 27.756C65.8912 28.108 65.5032 28.436 65.1272 28.74H68.7632V30H62.9792ZM73.4241 30.144C72.6481 30.144 71.9841 29.964 71.4321 29.604C70.8801 29.236 70.4521 28.728 70.1481 28.08C69.8521 27.424 69.7041 26.664 69.7041 25.8C69.7041 24.944 69.8521 24.188 70.1481 23.532C70.4521 22.876 70.8801 22.368 71.4321 22.008C71.9841 21.64 72.6481 21.456 73.4241 21.456C74.2001 21.456 74.8641 21.64 75.4161 22.008C75.9681 22.368 76.3921 22.876 76.6881 23.532C76.9921 24.188 77.1441 24.944 77.1441 25.8C77.1441 26.664 76.9921 27.424 76.6881 28.08C76.3921 28.728 75.9681 29.236 75.4161 29.604C74.8641 29.964 74.2001 30.144 73.4241 30.144ZM73.4241 28.764C74.0561 28.764 74.5721 28.5 74.9721 27.972C75.3721 27.444 75.5721 26.72 75.5721 25.8C75.5721 24.88 75.3721 24.156 74.9721 23.628C74.5721 23.1 74.0561 22.836 73.4241 22.836C72.7841 22.836 72.2641 23.1 71.8641 23.628C71.4721 24.156 71.2761 24.88 71.2761 25.8C71.2761 26.72 71.4721 27.444 71.8641 27.972C72.2641 28.5 72.7841 28.764 73.4241 28.764ZM78.237 30V28.884C78.749 28.46 79.245 28.04 79.725 27.624C80.213 27.208 80.645 26.796 81.021 26.388C81.405 25.98 81.709 25.584 81.933 25.2C82.165 24.808 82.281 24.428 82.281 24.06C82.281 23.716 82.185 23.412 81.993 23.148C81.809 22.884 81.501 22.752 81.069 22.752C80.629 22.752 80.297 22.896 80.073 23.184C79.849 23.472 79.737 23.82 79.737 24.228H78.249C78.265 23.612 78.401 23.1 78.657 22.692C78.913 22.276 79.253 21.968 79.677 21.768C80.101 21.56 80.577 21.456 81.105 21.456C81.961 21.456 82.625 21.692 83.097 22.164C83.577 22.628 83.817 23.232 83.817 23.976C83.817 24.44 83.709 24.892 83.493 25.332C83.285 25.772 83.009 26.196 82.665 26.604C82.321 27.012 81.949 27.396 81.549 27.756C81.149 28.108 80.761 28.436 80.385 28.74H84.021V30H78.237ZM88.6819 30.144C87.9059 30.144 87.2419 29.964 86.6899 29.604C86.1379 29.236 85.7099 28.728 85.4059 28.08C85.1099 27.424 84.9619 26.664 84.9619 25.8C84.9619 24.944 85.1099 24.188 85.4059 23.532C85.7099 22.876 86.1379 22.368 86.6899 22.008C87.2419 21.64 87.9059 21.456 88.6819 21.456C89.4579 21.456 90.1219 21.64 90.6739 22.008C91.2259 22.368 91.6499 22.876 91.9459 23.532C92.2499 24.188 92.4019 24.944 92.4019 25.8C92.4019 26.664 92.2499 27.424 91.9459 28.08C91.6499 28.728 91.2259 29.236 90.6739 29.604C90.1219 29.964 89.4579 30.144 88.6819 30.144ZM88.6819 28.764C89.3139 28.764 89.8299 28.5 90.2299 27.972C90.6299 27.444 90.8299 26.72 90.8299 25.8C90.8299 24.88 90.6299 24.156 90.2299 23.628C89.8299 23.1 89.3139 22.836 88.6819 22.836C88.0419 22.836 87.5219 23.1 87.1219 23.628C86.7299 24.156 86.5339 24.88 86.5339 25.8C86.5339 26.72 86.7299 27.444 87.1219 27.972C87.5219 28.5 88.0419 28.764 88.6819 28.764Z" fill="#7C7C7C"/>
<rect x="17" y="41" width="66" height="39" fill="#E0E0E0"/>
<g clip-path="url(#clip0)">
<path d="M50.1383 48.0989L50.4841 49.1524L51.5905 49.1623C51.7287 49.1623 51.788 49.3512 51.6794 49.4307L50.7903 50.0866L51.1262 51.1501C51.1657 51.2892 51.0175 51.3986 50.899 51.319L50 50.673L49.1011 51.319C48.9825 51.3986 48.8245 51.2892 48.8739 51.1501L49.2097 50.0866L48.3207 49.4307C48.2021 49.3412 48.2614 49.1623 48.4096 49.1623L49.516 49.1524L49.8617 48.0989C49.9012 47.9697 50.0988 47.9697 50.1383 48.0989Z" fill="#595959"/>
<path d="M50.1383 70.7489L50.4841 71.8024L51.5905 71.8123C51.7287 71.8123 51.788 72.0012 51.6794 72.0807L50.7903 72.7366L51.1262 73.8001C51.1657 73.9392 51.0175 74.0486 50.899 73.969L50 73.323L49.1011 73.969C48.9825 74.0486 48.8245 73.9392 48.8739 73.8001L49.2097 72.7366L48.3207 72.0807C48.2021 71.9912 48.2614 71.8123 48.4096 71.8123L49.516 71.8024L49.8617 70.7489C49.9012 70.6097 50.0988 70.6097 50.1383 70.7489Z" fill="#595959"/>
<path d="M61.3898 59.4296L61.7356 60.4831L62.842 60.493C62.9803 60.493 63.0395 60.6818 62.9309 60.7614L62.0418 61.4173L62.3777 62.4808C62.4172 62.6199 62.269 62.7292 62.1505 62.6497L61.2515 62.0037L60.3526 62.6497C60.2341 62.7292 60.076 62.6199 60.1254 62.4808L60.4613 61.4173L59.5722 60.7614C59.4537 60.6719 59.5129 60.493 59.6611 60.493L60.7675 60.4831L61.1133 59.4296C61.1528 59.2904 61.3503 59.2904 61.3898 59.4296Z" fill="#595959"/>
<path d="M38.8868 59.4296L39.2326 60.4831L40.3389 60.493C40.4772 60.493 40.5365 60.6818 40.4278 60.7614L39.5388 61.4173L39.8747 62.4808C39.9142 62.6199 39.766 62.7292 39.6475 62.6497L38.7485 62.0037L37.8496 62.6497C37.731 62.7292 37.573 62.6199 37.6224 62.4808L37.9484 61.4173L37.0593 60.7614C36.9408 60.6719 37 60.493 37.1482 60.493L38.2546 60.4831L38.6003 59.4296C38.6497 59.2904 38.8374 59.2904 38.8868 59.4296Z" fill="#595959"/>
<path d="M40.576 53.5155L40.9217 54.569L42.0281 54.5789C42.1664 54.5789 42.2257 54.7678 42.117 54.8473L41.228 55.5033L41.5638 56.5667C41.6034 56.7059 41.4552 56.8152 41.3366 56.7357L40.4377 56.0896L39.5388 56.7357C39.4202 56.8152 39.2622 56.7059 39.3116 56.5667L39.6474 55.5033L38.7584 54.8473C38.6398 54.7578 38.6991 54.5789 38.8473 54.5789L39.9537 54.569L40.2994 53.5155C40.3389 53.3763 40.5266 53.3763 40.576 53.5155Z" fill="#595959"/>
<path d="M60.0661 64.8358L60.4119 65.8893L61.5183 65.8993C61.6566 65.8993 61.7158 66.0881 61.6072 66.1676L60.7181 66.8236L61.054 67.887C61.0935 68.0262 60.9453 68.1355 60.8268 68.056L59.9278 67.41L59.0289 68.056C58.9104 68.1355 58.7523 68.0262 58.8017 67.887L59.1376 66.8236L58.2485 66.1676C58.13 66.0782 58.1892 65.8993 58.3374 65.8993L59.4438 65.8893L59.7895 64.8358C59.8291 64.6967 60.0266 64.6967 60.0661 64.8358Z" fill="#595959"/>
<path d="M55.9469 49.371L56.2926 50.4245L57.399 50.4344C57.5373 50.4344 57.5965 50.6233 57.4879 50.7028L56.5988 51.3587L56.9347 52.4222C56.9742 52.5613 56.826 52.6707 56.7075 52.5911L55.8086 51.9451L54.9096 52.5911C54.7911 52.6707 54.633 52.5613 54.6824 52.4222L55.0183 51.3587L54.1292 50.7028C54.0107 50.6133 54.07 50.4344 54.2181 50.4344L55.3245 50.4245L55.6703 49.371C55.7098 49.2318 55.9073 49.2318 55.9469 49.371Z" fill="#595959"/>
<path d="M44.6953 68.9803L45.0411 70.0339L46.1475 70.0438C46.2858 70.0438 46.345 70.2326 46.2364 70.3121L45.3473 70.9681L45.6832 72.0316C45.7227 72.1707 45.5745 72.28 45.456 72.2005L44.557 71.5545L43.6581 72.2005C43.5396 72.28 43.3815 72.1707 43.4309 72.0316L43.7668 70.9681L42.8777 70.3121C42.7592 70.2227 42.8184 70.0438 42.9666 70.0438L44.073 70.0339L44.4187 68.9803C44.4582 68.8412 44.6459 68.8412 44.6953 68.9803Z" fill="#595959"/>
<path d="M59.7895 53.5155L59.4438 54.569L58.3374 54.5789C58.1991 54.5789 58.1398 54.7678 58.2485 54.8473L59.1376 55.5033L58.8017 56.5667C58.7622 56.7059 58.9104 56.8152 59.0289 56.7357L59.9278 56.0896L60.8268 56.7357C60.9453 56.8152 61.1034 56.7059 61.054 56.5667L60.7181 55.5033L61.6072 54.8473C61.7257 54.7578 61.6664 54.5789 61.5183 54.5789L60.4119 54.569L60.0661 53.5155C60.0266 53.3763 59.8291 53.3763 59.7895 53.5155Z" fill="#595959"/>
<path d="M40.2895 64.8358L39.9438 65.8893L38.8374 65.8993C38.6991 65.8993 38.6398 66.0881 38.7485 66.1676L39.6376 66.8236L39.3017 67.887C39.2622 68.0262 39.4104 68.1355 39.5289 68.056L40.4278 67.41L41.3268 68.056C41.4453 68.1355 41.6034 68.0262 41.554 67.887L41.2181 66.8236L42.1072 66.1676C42.2257 66.0782 42.1664 65.8993 42.0183 65.8993L40.9218 65.8893L40.576 64.8358C40.5266 64.6967 40.3389 64.6967 40.2895 64.8358Z" fill="#595959"/>
<path d="M44.4088 49.371L44.0631 50.4245L42.9567 50.4344C42.8184 50.4344 42.7591 50.6233 42.8678 50.7028L43.7569 51.3587L43.421 52.4222C43.3815 52.5613 43.5297 52.6707 43.6482 52.5911L44.5471 51.9451L45.4461 52.5911C45.5646 52.6707 45.7227 52.5613 45.6733 52.4222L45.3374 51.3587L46.2265 50.7028C46.345 50.6133 46.2857 50.4344 46.1376 50.4344L45.0312 50.4245L44.6854 49.371C44.6459 49.2318 44.4582 49.2318 44.4088 49.371Z" fill="#595959"/>
<path d="M55.6702 68.9803L55.3245 70.0339L54.2181 70.0438C54.0798 70.0438 54.0205 70.2326 54.1292 70.3121L55.0183 70.9681L54.6824 72.0316C54.6429 72.1707 54.7911 72.28 54.9096 72.2005L55.8085 71.5545L56.7075 72.2005C56.826 72.28 56.9841 72.1707 56.9347 72.0316L56.5988 70.9681L57.4879 70.3121C57.6064 70.2227 57.5471 70.0438 57.399 70.0438L56.2926 70.0339L55.9468 68.9803C55.9073 68.8412 55.7098 68.8412 55.6702 68.9803Z" fill="#595959"/>
</g>
<defs>
<clipPath id="clip0">
<rect width="26" height="26" fill="white" transform="translate(37 48)"/>
</clipPath>
</defs>
</svg>
