<svg width="99" height="100" viewBox="0 0 99 100" fill="none" xmlns="http://www.w3.org/2000/svg">
<path d="M6.94491 76V67.6H8.48091V71.092H12.2489V67.6H13.7849V76H12.2489V72.34H8.48091V76H6.94491ZM19.3536 76.144C18.5136 76.144 17.7776 75.96 17.1456 75.592C16.5216 75.224 16.0296 74.716 15.6696 74.068C15.3176 73.412 15.1416 72.656 15.1416 71.8C15.1416 70.944 15.3176 70.192 15.6696 69.544C16.0296 68.888 16.5216 68.376 17.1456 68.008C17.7776 67.64 18.5136 67.456 19.3536 67.456C20.1856 67.456 20.9176 67.64 21.5496 68.008C22.1816 68.376 22.6736 68.888 23.0256 69.544C23.3776 70.192 23.5536 70.944 23.5536 71.8C23.5536 72.656 23.3776 73.412 23.0256 74.068C22.6736 74.716 22.1816 75.224 21.5496 75.592C20.9176 75.96 20.1856 76.144 19.3536 76.144ZM19.3536 74.764C20.1536 74.764 20.7896 74.5 21.2616 73.972C21.7416 73.444 21.9816 72.72 21.9816 71.8C21.9816 70.88 21.7416 70.156 21.2616 69.628C20.7896 69.1 20.1536 68.836 19.3536 68.836C18.5536 68.836 17.9136 69.1 17.4336 69.628C16.9536 70.156 16.7136 70.88 16.7136 71.8C16.7136 72.72 16.9536 73.444 17.4336 73.972C17.9136 74.5 18.5536 74.764 19.3536 74.764ZM24.9098 76V67.6H27.9938C28.6658 67.6 29.2178 67.716 29.6498 67.948C30.0898 68.172 30.4178 68.48 30.6338 68.872C30.8498 69.256 30.9578 69.684 30.9578 70.156C30.9578 70.668 30.8218 71.136 30.5498 71.56C30.2858 71.984 29.8698 72.292 29.3018 72.484L31.0418 76H29.2778L27.7178 72.688H26.4458V76H24.9098ZM26.4458 71.56H27.8978C28.4098 71.56 28.7858 71.436 29.0258 71.188C29.2658 70.94 29.3858 70.612 29.3858 70.204C29.3858 69.804 29.2658 69.484 29.0258 69.244C28.7938 69.004 28.4138 68.884 27.8858 68.884H26.4458V71.56ZM32.3863 76V67.6H33.9223V76H32.3863ZM35.2984 76V74.824L39.1624 68.884H35.3344V67.6H40.9384V68.776L37.0504 74.716H40.9624V76H35.2984ZM46.0489 76.144C45.2089 76.144 44.4729 75.96 43.8409 75.592C43.2169 75.224 42.7249 74.716 42.3649 74.068C42.0129 73.412 41.8369 72.656 41.8369 71.8C41.8369 70.944 42.0129 70.192 42.3649 69.544C42.7249 68.888 43.2169 68.376 43.8409 68.008C44.4729 67.64 45.2089 67.456 46.0489 67.456C46.8809 67.456 47.6129 67.64 48.2449 68.008C48.8769 68.376 49.3689 68.888 49.7209 69.544C50.0729 70.192 50.2489 70.944 50.2489 71.8C50.2489 72.656 50.0729 73.412 49.7209 74.068C49.3689 74.716 48.8769 75.224 48.2449 75.592C47.6129 75.96 46.8809 76.144 46.0489 76.144ZM46.0489 74.764C46.8489 74.764 47.4849 74.5 47.9569 73.972C48.4369 73.444 48.6769 72.72 48.6769 71.8C48.6769 70.88 48.4369 70.156 47.9569 69.628C47.4849 69.1 46.8489 68.836 46.0489 68.836C45.2489 68.836 44.6089 69.1 44.1289 69.628C43.6489 70.156 43.4089 70.88 43.4089 71.8C43.4089 72.72 43.6489 73.444 44.1289 73.972C44.6089 74.5 45.2489 74.764 46.0489 74.764ZM51.6051 76V67.6H53.1411L57.0891 73.516V67.6H58.6251V76H57.0891L53.1411 70.096V76H51.6051ZM62.9089 76V74.884C63.4209 74.46 63.9169 74.04 64.3969 73.624C64.8849 73.208 65.3169 72.796 65.6929 72.388C66.0769 71.98 66.3809 71.584 66.6049 71.2C66.8369 70.808 66.9529 70.428 66.9529 70.06C66.9529 69.716 66.8569 69.412 66.6649 69.148C66.4809 68.884 66.1729 68.752 65.7409 68.752C65.3009 68.752 64.9689 68.896 64.7449 69.184C64.5209 69.472 64.4089 69.82 64.4089 70.228H62.9209C62.9369 69.612 63.0729 69.1 63.3289 68.692C63.5849 68.276 63.9249 67.968 64.3489 67.768C64.7729 67.56 65.2489 67.456 65.7769 67.456C66.6329 67.456 67.2969 67.692 67.7689 68.164C68.2489 68.628 68.4889 69.232 68.4889 69.976C68.4889 70.44 68.3809 70.892 68.1649 71.332C67.9569 71.772 67.6809 72.196 67.3369 72.604C66.9929 73.012 66.6209 73.396 66.2209 73.756C65.8209 74.108 65.4329 74.436 65.0569 74.74H68.6929V76H62.9089ZM73.3538 76.144C72.5778 76.144 71.9138 75.964 71.3618 75.604C70.8098 75.236 70.3818 74.728 70.0778 74.08C69.7818 73.424 69.6338 72.664 69.6338 71.8C69.6338 70.944 69.7818 70.188 70.0778 69.532C70.3818 68.876 70.8098 68.368 71.3618 68.008C71.9138 67.64 72.5778 67.456 73.3538 67.456C74.1298 67.456 74.7938 67.64 75.3458 68.008C75.8978 68.368 76.3218 68.876 76.6178 69.532C76.9218 70.188 77.0738 70.944 77.0738 71.8C77.0738 72.664 76.9218 73.424 76.6178 74.08C76.3218 74.728 75.8978 75.236 75.3458 75.604C74.7938 75.964 74.1298 76.144 73.3538 76.144ZM73.3538 74.764C73.9858 74.764 74.5018 74.5 74.9018 73.972C75.3018 73.444 75.5018 72.72 75.5018 71.8C75.5018 70.88 75.3018 70.156 74.9018 69.628C74.5018 69.1 73.9858 68.836 73.3538 68.836C72.7138 68.836 72.1938 69.1 71.7938 69.628C71.4018 70.156 71.2058 70.88 71.2058 71.8C71.2058 72.72 71.4018 73.444 71.7938 73.972C72.1938 74.5 72.7138 74.764 73.3538 74.764ZM78.1667 76V74.884C78.6787 74.46 79.1747 74.04 79.6547 73.624C80.1427 73.208 80.5747 72.796 80.9507 72.388C81.3347 71.98 81.6387 71.584 81.8627 71.2C82.0947 70.808 82.2107 70.428 82.2107 70.06C82.2107 69.716 82.1147 69.412 81.9227 69.148C81.7387 68.884 81.4307 68.752 80.9987 68.752C80.5587 68.752 80.2267 68.896 80.0027 69.184C79.7787 69.472 79.6667 69.82 79.6667 70.228H78.1787C78.1947 69.612 78.3307 69.1 78.5867 68.692C78.8427 68.276 79.1827 67.968 79.6067 67.768C80.0307 67.56 80.5067 67.456 81.0347 67.456C81.8907 67.456 82.5547 67.692 83.0267 68.164C83.5067 68.628 83.7467 69.232 83.7467 69.976C83.7467 70.44 83.6387 70.892 83.4227 71.332C83.2147 71.772 82.9387 72.196 82.5947 72.604C82.2507 73.012 81.8787 73.396 81.4787 73.756C81.0787 74.108 80.6907 74.436 80.3147 74.74H83.9507V76H78.1667ZM88.6116 76.144C87.8356 76.144 87.1716 75.964 86.6196 75.604C86.0676 75.236 85.6396 74.728 85.3356 74.08C85.0396 73.424 84.8916 72.664 84.8916 71.8C84.8916 70.944 85.0396 70.188 85.3356 69.532C85.6396 68.876 86.0676 68.368 86.6196 68.008C87.1716 67.64 87.8356 67.456 88.6116 67.456C89.3876 67.456 90.0516 67.64 90.6036 68.008C91.1556 68.368 91.5796 68.876 91.8756 69.532C92.1796 70.188 92.3316 70.944 92.3316 71.8C92.3316 72.664 92.1796 73.424 91.8756 74.08C91.5796 74.728 91.1556 75.236 90.6036 75.604C90.0516 75.964 89.3876 76.144 88.6116 76.144ZM88.6116 74.764C89.2436 74.764 89.7596 74.5 90.1596 73.972C90.5596 73.444 90.7596 72.72 90.7596 71.8C90.7596 70.88 90.5596 70.156 90.1596 69.628C89.7596 69.1 89.2436 68.836 88.6116 68.836C87.9716 68.836 87.4516 69.1 87.0516 69.628C86.6596 70.156 86.4636 70.88 86.4636 71.8C86.4636 72.72 86.6596 73.444 87.0516 73.972C87.4516 74.5 87.9716 74.764 88.6116 74.764Z" fill="#7C7C7C"/>
<rect x="15" y="21" width="66" height="39" fill="#E0E0E0"/>
<g clip-path="url(#clip0)">
<path d="M48.1383 28.0989L48.4841 29.1524L49.5905 29.1623C49.7287 29.1623 49.788 29.3512 49.6794 29.4307L48.7903 30.0866L49.1262 31.1501C49.1657 31.2892 49.0175 31.3986 48.899 31.319L48 30.673L47.1011 31.319C46.9825 31.3986 46.8245 31.2892 46.8739 31.1501L47.2097 30.0866L46.3207 29.4307C46.2021 29.3412 46.2614 29.1623 46.4096 29.1623L47.516 29.1524L47.8617 28.0989C47.9012 27.9697 48.0988 27.9697 48.1383 28.0989Z" fill="#595959"/>
<path d="M48.1383 50.7489L48.4841 51.8024L49.5905 51.8123C49.7287 51.8123 49.788 52.0012 49.6794 52.0807L48.7903 52.7366L49.1262 53.8001C49.1657 53.9392 49.0175 54.0486 48.899 53.969L48 53.323L47.1011 53.969C46.9825 54.0486 46.8245 53.9392 46.8739 53.8001L47.2097 52.7366L46.3207 52.0807C46.2021 51.9912 46.2614 51.8123 46.4096 51.8123L47.516 51.8024L47.8617 50.7489C47.9012 50.6097 48.0988 50.6097 48.1383 50.7489Z" fill="#595959"/>
<path d="M59.3898 39.4296L59.7356 40.4831L60.842 40.493C60.9803 40.493 61.0395 40.6818 60.9309 40.7614L60.0418 41.4173L60.3777 42.4808C60.4172 42.6199 60.269 42.7292 60.1505 42.6497L59.2515 42.0037L58.3526 42.6497C58.2341 42.7292 58.076 42.6199 58.1254 42.4808L58.4613 41.4173L57.5722 40.7614C57.4537 40.6719 57.5129 40.493 57.6611 40.493L58.7675 40.4831L59.1133 39.4296C59.1528 39.2904 59.3503 39.2904 59.3898 39.4296Z" fill="#595959"/>
<path d="M36.8868 39.4296L37.2325 40.4831L38.3389 40.493C38.4772 40.493 38.5365 40.6818 38.4278 40.7614L37.5388 41.4173L37.8746 42.4808C37.9141 42.6199 37.766 42.7292 37.6474 42.6497L36.7485 42.0037L35.8495 42.6497C35.731 42.7292 35.573 42.6199 35.6223 42.4808L35.9483 41.4173L35.0593 40.7614C34.9407 40.6719 35 40.493 35.1482 40.493L36.2546 40.4831L36.6003 39.4296C36.6497 39.2904 36.8374 39.2904 36.8868 39.4296Z" fill="#595959"/>
<path d="M38.576 33.5155L38.9217 34.569L40.0281 34.5789C40.1664 34.5789 40.2257 34.7678 40.117 34.8473L39.228 35.5033L39.5638 36.5667C39.6034 36.7059 39.4552 36.8152 39.3366 36.7357L38.4377 36.0896L37.5388 36.7357C37.4202 36.8152 37.2622 36.7059 37.3116 36.5667L37.6474 35.5033L36.7584 34.8473C36.6398 34.7578 36.6991 34.5789 36.8473 34.5789L37.9537 34.569L38.2994 33.5155C38.3389 33.3763 38.5266 33.3763 38.576 33.5155Z" fill="#595959"/>
<path d="M58.0661 44.8358L58.4119 45.8893L59.5182 45.8993C59.6565 45.8993 59.7158 46.0881 59.6071 46.1676L58.7181 46.8236L59.054 47.887C59.0935 48.0262 58.9453 48.1355 58.8268 48.056L57.9278 47.41L57.0289 48.056C56.9103 48.1355 56.7523 48.0262 56.8017 47.887L57.1375 46.8236L56.2485 46.1676C56.1299 46.0782 56.1892 45.8993 56.3374 45.8993L57.4438 45.8893L57.7895 44.8358C57.829 44.6967 58.0266 44.6967 58.0661 44.8358Z" fill="#595959"/>
<path d="M53.9468 29.371L54.2925 30.4245L55.3989 30.4344C55.5372 30.4344 55.5965 30.6233 55.4878 30.7028L54.5988 31.3587L54.9346 32.4222C54.9741 32.5613 54.826 32.6707 54.7074 32.5911L53.8085 31.9451L52.9096 32.5911C52.791 32.6707 52.633 32.5613 52.6824 32.4222L53.0182 31.3587L52.1292 30.7028C52.0106 30.6133 52.0699 30.4344 52.2181 30.4344L53.3245 30.4245L53.6702 29.371C53.7097 29.2318 53.9073 29.2318 53.9468 29.371Z" fill="#595959"/>
<path d="M42.6953 48.9803L43.0411 50.0339L44.1475 50.0438C44.2858 50.0438 44.345 50.2326 44.2364 50.3121L43.3473 50.9681L43.6832 52.0316C43.7227 52.1707 43.5745 52.28 43.456 52.2005L42.557 51.5545L41.6581 52.2005C41.5396 52.28 41.3815 52.1707 41.4309 52.0316L41.7668 50.9681L40.8777 50.3121C40.7592 50.2227 40.8184 50.0438 40.9666 50.0438L42.073 50.0339L42.4187 48.9803C42.4582 48.8412 42.6459 48.8412 42.6953 48.9803Z" fill="#595959"/>
<path d="M57.7895 33.5155L57.4438 34.569L56.3374 34.5789C56.1991 34.5789 56.1398 34.7678 56.2485 34.8473L57.1375 35.5033L56.8017 36.5667C56.7622 36.7059 56.9103 36.8152 57.0289 36.7357L57.9278 36.0896L58.8267 36.7357C58.9453 36.8152 59.1033 36.7059 59.0539 36.5667L58.7181 35.5033L59.6071 34.8473C59.7257 34.7578 59.6664 34.5789 59.5182 34.5789L58.4118 34.569L58.0661 33.5155C58.0266 33.3763 57.829 33.3763 57.7895 33.5155Z" fill="#595959"/>
<path d="M38.2895 44.8358L37.9438 45.8893L36.8374 45.8993C36.6991 45.8993 36.6398 46.0881 36.7485 46.1676L37.6375 46.8236L37.3017 47.887C37.2622 48.0262 37.4103 48.1355 37.5289 48.056L38.4278 47.41L39.3267 48.056C39.4453 48.1355 39.6033 48.0262 39.5539 47.887L39.2181 46.8236L40.1071 46.1676C40.2257 46.0782 40.1664 45.8993 40.0182 45.8993L38.9217 45.8893L38.576 44.8358C38.5266 44.6967 38.3389 44.6967 38.2895 44.8358Z" fill="#595959"/>
<path d="M42.4088 29.371L42.0631 30.4245L40.9567 30.4344C40.8184 30.4344 40.7591 30.6233 40.8678 30.7028L41.7569 31.3587L41.421 32.4222C41.3815 32.5613 41.5297 32.6707 41.6482 32.5911L42.5471 31.9451L43.4461 32.5911C43.5646 32.6707 43.7227 32.5613 43.6733 32.4222L43.3374 31.3587L44.2265 30.7028C44.345 30.6133 44.2857 30.4344 44.1376 30.4344L43.0312 30.4245L42.6854 29.371C42.6459 29.2318 42.4582 29.2318 42.4088 29.371Z" fill="#595959"/>
<path d="M53.6702 48.9803L53.3245 50.0339L52.2181 50.0438C52.0798 50.0438 52.0205 50.2326 52.1292 50.3121L53.0183 50.9681L52.6824 52.0316C52.6429 52.1707 52.7911 52.28 52.9096 52.2005L53.8085 51.5545L54.7075 52.2005C54.826 52.28 54.9841 52.1707 54.9347 52.0316L54.5988 50.9681L55.4879 50.3121C55.6064 50.2227 55.5471 50.0438 55.399 50.0438L54.2926 50.0339L53.9468 48.9803C53.9073 48.8412 53.7098 48.8412 53.6702 48.9803Z" fill="#595959"/>
</g>
<defs>
<clipPath id="clip0">
<rect width="26" height="26" fill="white" transform="translate(35 28)"/>
</clipPath>
</defs>
</svg>
