<svg width="100" height="100" viewBox="0 0 100 100" fill="none" xmlns="http://www.w3.org/2000/svg">
<g clip-path="url(#clip0)">
<path d="M8.2194 35.8883C8.15672 34.1343 8.09403 32.349 8 30.501C8.34478 30.5636 8.7209 30.5949 9.03433 30.6263C9.3791 30.6576 9.69254 30.6889 10.0373 30.6889C10.3821 30.6889 10.6955 30.6576 11.0403 30.6263C11.3851 30.5949 11.7299 30.5323 12.0746 30.501C12.0119 32.3176 11.9179 34.1343 11.8552 35.8883C11.7925 37.6423 11.7612 39.4276 11.7612 41.2756V48.4169C11.7612 50.2336 11.7925 52.0502 11.8552 53.8043C11.9179 55.5896 11.9806 57.3123 12.0746 59.035C11.4478 59.0036 10.7582 58.9723 10.0373 58.9723C9.31642 58.9723 8.62687 59.0036 8 59.035C8.09403 57.3123 8.15672 55.5896 8.2194 53.8043C8.28209 52.0189 8.31343 50.2336 8.31343 48.4169V41.2756C8.31343 39.4276 8.28209 37.6423 8.2194 35.8883Z" fill="#A9A9A9"/>
<path d="M42.1955 44.4087C42.1955 44.4087 46.4895 44.8472 48.8089 39.4285C50.7836 34.7929 51.7552 30.6272 56.8328 30.4079C56.8328 30.4079 49.5298 29.3116 45.2671 35.7952C41.9448 40.838 42.1955 44.4087 42.1955 44.4087Z" fill="#7C7C7C"/>
<path d="M71.1253 44.4087C71.1253 44.4087 66.8313 44.8472 64.5119 39.4285C62.5373 34.7929 61.5656 30.6272 56.488 30.4079C56.488 30.4079 63.791 29.3116 68.0537 35.7952C71.3761 40.838 71.1253 44.4087 71.1253 44.4087Z" fill="#7C7C7C"/>
<path d="M38.0269 58.0955C37.494 58.3461 36.8358 58.5966 36.0836 58.8159C35.3313 59.0351 34.4851 59.2231 33.5134 59.3797C32.5731 59.5363 31.6015 59.6303 30.5672 59.6303C28.3731 59.6303 26.3672 59.317 24.4866 58.6906C22.6373 58.0642 21.0388 57.1245 19.691 55.8403C18.3433 54.5561 17.3089 53.0214 16.5254 51.1734C15.7731 49.3254 15.397 47.2269 15.397 44.8778C15.397 42.5286 15.7731 40.4301 16.5254 38.5821C17.2776 36.7341 18.3433 35.1994 19.7224 33.9152C21.1015 32.631 22.7313 31.66 24.6433 31.0023C26.5552 30.3445 28.6866 30 30.9746 30C32.7925 30 34.4851 30.1879 35.9895 30.5638C37.494 30.9396 38.8418 31.3782 40.0015 31.9106C39.7821 32.2865 39.594 32.8189 39.4686 33.4767C39.3433 34.1345 39.2179 34.6982 39.1239 35.1367L38.8731 35.2307C38.591 34.8862 38.2149 34.5103 37.7134 34.1031C37.2119 33.696 36.6477 33.2888 35.9582 32.9129C35.3 32.5057 34.5478 32.1925 33.7328 31.9106C32.8866 31.66 31.9776 31.5034 30.9746 31.5034C29.3448 31.5034 27.8089 31.754 26.4298 32.2865C25.0194 32.8189 23.797 33.6333 22.7627 34.7296C21.7283 35.8258 20.9134 37.204 20.3179 38.8953C19.7224 40.5867 19.4403 42.56 19.4403 44.8464C19.4403 47.1329 19.7224 49.1375 20.3179 50.7976C20.9134 52.4889 21.697 53.8671 22.7627 54.9633C23.797 56.0596 25.0194 56.8739 26.4298 57.4064C27.8403 57.9389 29.3448 58.1895 30.9746 58.1895C31.9776 58.1895 32.8866 58.0642 33.7328 57.8136C34.5791 57.563 35.3627 57.2498 36.0522 56.9053C36.7731 56.5607 37.4 56.1849 37.9642 55.7777C38.5283 55.3705 38.9985 55.026 39.406 54.7128L39.5627 54.8694L39.1866 57.3125C38.9672 57.5943 38.5597 57.8136 38.0269 58.0955Z" fill="#A9A9A9"/>
<path d="M77.1119 55.1514C77.488 55.6525 77.9582 56.1224 78.491 56.5296C79.0239 56.9367 79.6507 57.2813 80.3716 57.5318C81.0925 57.7824 81.9074 57.939 82.7851 57.939C83.694 57.939 84.5403 57.7824 85.2612 57.4692C85.9821 57.156 86.6089 56.7175 87.1418 56.185C87.6433 55.6525 88.0507 54.9948 88.3328 54.2744C88.6149 53.554 88.7403 52.771 88.7403 51.9253C88.7403 50.6411 88.3955 49.6388 87.7686 48.8871C87.1104 48.1354 86.2955 47.5089 85.3239 47.0078C84.3522 46.5066 83.3179 46.0681 82.1895 45.6296C81.0612 45.2225 80.0268 44.69 79.0552 44.0635C78.0836 43.4371 77.2686 42.6541 76.6104 41.6831C75.9522 40.7121 75.6388 39.4279 75.6388 37.7679C75.6388 36.609 75.8582 35.5441 76.2657 34.6044C76.6731 33.6648 77.2686 32.8191 78.0836 32.13C78.8671 31.4409 79.8074 30.9085 80.9358 30.5013C82.0328 30.1254 83.2865 29.9375 84.6657 29.9375C85.9821 29.9375 87.1418 30.0941 88.1134 30.4073C89.0851 30.7205 89.994 31.2217 90.8089 31.8794C90.5582 32.3493 90.3388 32.8504 90.1821 33.3829C90.0254 33.9153 89.8373 34.5731 89.6806 35.3875H89.1791C89.0537 35.0116 88.8657 34.5731 88.6149 34.1033C88.3642 33.6335 88.0507 33.2263 87.6433 32.8504C87.2985 32.5059 86.797 32.1927 86.2642 31.9108C85.7 31.6602 85.0418 31.5036 84.2582 31.5036C83.4746 31.5036 82.7537 31.6289 82.1268 31.8794C81.4686 32.13 80.9045 32.4746 80.4343 32.9444C79.9328 33.3829 79.5567 33.9467 79.306 34.5731C79.0552 35.1995 78.8985 35.8886 78.8985 36.6403C78.8985 37.9558 79.2119 38.9581 79.8701 39.7098C80.5283 40.4616 81.3433 41.088 82.3149 41.5891C83.2865 42.0903 84.3209 42.5601 85.4492 42.9673C86.5776 43.3745 87.6119 43.8756 88.5836 44.4394C89.5552 45.0345 90.3701 45.7549 91.0283 46.6946C91.6865 47.6029 92 48.8244 92 50.3592C92 51.6434 91.7806 52.8336 91.3104 53.9612C90.8403 55.0888 90.1821 56.091 89.3045 56.9367C88.4268 57.7824 87.3612 58.4402 86.1074 58.8787C84.8537 59.3485 83.4119 59.5678 81.8134 59.5678C80.0895 59.5678 78.7104 59.3485 77.6134 58.8787C76.5477 58.4088 75.6388 57.8764 74.9179 57.3126C75.1686 56.6862 75.3254 56.091 75.4507 55.5899C75.5448 55.0888 75.6388 54.431 75.7328 53.6166H76.2343C76.4224 54.1491 76.7358 54.6503 77.1119 55.1514Z" fill="#A9A9A9"/>
<path d="M42.1955 44.7213C42.1955 44.7213 46.4895 44.2828 48.8089 49.7328C50.7836 54.3684 51.7552 58.5342 56.8328 58.7534C56.8328 58.7534 49.5298 59.8497 45.2671 53.3348C41.9448 48.292 42.1955 44.7213 42.1955 44.7213Z" fill="#7C7C7C"/>
<path d="M71.1253 44.7213C71.1253 44.7213 66.8313 44.2828 64.5119 49.7328C62.5373 54.3684 61.5656 58.5342 56.488 58.7534C56.488 58.7534 63.791 59.8497 68.0537 53.3348C71.3761 48.292 71.1253 44.7213 71.1253 44.7213Z" fill="#7C7C7C"/>
<path d="M44.1388 70.1541C44.1075 70.3107 44.0761 70.436 44.0448 70.5926C43.5119 70.8745 42.8224 70.9998 41.9761 70.9998C41.3806 70.9998 40.8791 70.9058 40.4089 70.7492C39.9388 70.5926 39.5627 70.342 39.2492 70.0602C38.9358 69.7469 38.6851 69.4024 38.5284 68.9952C38.3716 68.588 38.2776 68.1495 38.2776 67.6797C38.2776 66.9906 38.3716 66.3955 38.591 65.8944C38.8104 65.3932 39.0925 65.0174 39.4686 64.7042C39.8448 64.3909 40.2522 64.1717 40.7537 64.0464C41.2239 63.8898 41.7567 63.8271 42.2895 63.8271C42.4776 63.8271 42.6343 63.8271 42.8537 63.8585C43.0418 63.8898 43.2298 63.9211 43.4179 63.9524C43.606 63.9838 43.7627 64.0464 43.9194 64.109C44.0761 64.1717 44.2328 64.2343 44.3269 64.297C44.2642 64.4536 44.2015 64.6415 44.1701 64.7981C44.1388 64.9547 44.1075 65.1427 44.1075 65.3306H43.9507C43.7 65.0174 43.4492 64.7668 43.1672 64.6415C42.8851 64.5162 42.5716 64.4223 42.2269 64.4223C41.9448 64.4223 41.694 64.4849 41.4119 64.6102C41.1298 64.7355 40.8791 64.9234 40.6597 65.174C40.4403 65.4246 40.2522 65.7378 40.1269 66.1136C40.0015 66.4895 39.9075 66.9593 39.9075 67.4918C39.9075 68.0242 39.9701 68.4628 40.1269 68.8073C40.2522 69.1831 40.4403 69.465 40.6597 69.7156C40.8791 69.9349 41.1298 70.1228 41.4433 70.2168C41.7254 70.3107 42.0075 70.3734 42.2895 70.3734C42.4463 70.3734 42.603 70.342 42.791 70.3107C42.9478 70.2794 43.1358 70.2168 43.2925 70.1541C43.4492 70.0915 43.606 69.9975 43.7627 69.9035C43.9194 69.8096 44.0448 69.7156 44.1388 69.5903L44.2642 69.653C44.2328 69.8722 44.2015 69.9975 44.1388 70.1541Z" fill="#A9A9A9"/>
<path d="M53.3224 70.843C53.1657 70.843 53.0089 70.8117 52.8522 70.8117C52.6955 70.8117 52.5701 70.8117 52.4134 70.8117C52.288 70.8117 52.1313 70.8117 51.9746 70.8117C51.8179 70.8117 51.6925 70.8117 51.5358 70.843C51.4418 70.5298 51.3164 70.1853 51.191 69.8408C51.0657 69.4962 50.9403 69.1517 50.8149 68.8071C50.5955 68.8071 50.3761 68.8071 50.1567 68.7758C49.9373 68.7758 49.7179 68.7758 49.5298 68.7758C49.3418 68.7758 49.1851 68.7758 48.997 68.7758C48.8089 68.7758 48.6522 68.7758 48.4642 68.8071C48.3388 69.1517 48.2134 69.4962 48.088 69.8408C47.9627 70.1853 47.8686 70.5298 47.7746 70.843C47.6806 70.843 47.6179 70.8117 47.5239 70.8117C47.4612 70.8117 47.3671 70.8117 47.2731 70.8117C47.1791 70.8117 47.1164 70.8117 47.0224 70.8117C46.9283 70.8117 46.8657 70.8117 46.7716 70.843C46.8657 70.6551 46.9597 70.4359 47.0851 70.1227C47.2104 69.8094 47.3671 69.4649 47.5239 69.089C47.6806 68.7132 47.8686 68.2747 48.0567 67.8362C48.2448 67.3977 48.4328 66.9278 48.6209 66.4893C48.8089 66.0195 48.997 65.581 49.1537 65.1425C49.3418 64.704 49.4985 64.2968 49.6552 63.8896C49.7179 63.8896 49.7806 63.921 49.8433 63.921C49.906 63.921 49.9686 63.9523 50.0313 63.9523C50.094 63.9523 50.1567 63.9523 50.2194 63.921C50.2821 63.921 50.3448 63.8896 50.4074 63.8896C50.6268 64.4534 50.8463 65.0799 51.097 65.7376C51.3477 66.3954 51.5985 67.0218 51.8492 67.6482C52.1 68.2747 52.3507 68.8698 52.5701 69.4336C52.9149 69.9974 53.1343 70.4672 53.3224 70.843ZM49.7492 65.8316C49.5612 66.2388 49.4045 66.646 49.2477 67.0218C49.091 67.429 48.9343 67.8049 48.7776 68.2434H50.6268C50.4701 67.8362 50.3448 67.429 50.188 67.0218C50.0627 66.6146 49.906 66.2388 49.7492 65.8316Z" fill="#A9A9A9"/>
<path d="M56.7701 65.2365C56.7388 64.798 56.7388 64.3595 56.7074 63.921C56.8328 63.921 56.9582 63.9523 57.0836 63.9523C57.2089 63.9523 57.3657 63.9523 57.5224 63.9523C57.7731 63.9523 57.9925 63.9523 58.2433 63.921C58.494 63.8897 58.7448 63.8896 58.9955 63.8896C59.4657 63.8896 59.8418 63.921 60.1239 63.9836C60.406 64.0463 60.594 64.1715 60.7507 64.2968C60.9701 64.4848 61.1269 64.6727 61.2209 64.8919C61.3149 65.1112 61.3776 65.3618 61.3776 65.675C61.3776 66.0508 61.3149 66.3954 61.1895 66.6773C61.0642 66.9592 60.8761 67.1784 60.6567 67.335C60.4373 67.4916 60.1552 67.6169 59.8418 67.7109C59.5283 67.8049 59.1836 67.8362 58.8074 67.8362H58.306C58.306 68.3373 58.306 68.8385 58.306 69.3396C58.306 69.8408 58.3373 70.3419 58.3686 70.8117C58.2433 70.8117 58.1179 70.7804 57.9925 70.7804C57.8671 70.7804 57.7104 70.7804 57.5224 70.7804C57.3657 70.7804 57.2089 70.7804 57.0836 70.7804C56.9582 70.7804 56.8328 70.7804 56.7074 70.8117C56.7388 70.4045 56.7388 69.966 56.7701 69.5275C56.7701 69.089 56.8015 68.5879 56.8015 68.0554V66.6773C56.7701 66.1761 56.7701 65.675 56.7701 65.2365ZM59.6851 65.2365C59.6224 65.0485 59.5597 64.9233 59.4657 64.8293C59.3716 64.7353 59.2463 64.6414 59.1209 64.61C58.9955 64.5474 58.8701 64.5474 58.7134 64.5474H58.494C58.4627 64.5474 58.4313 64.5474 58.4 64.5474C58.3686 64.5474 58.3373 64.5474 58.306 64.5474C58.306 65.0172 58.2746 65.5184 58.2746 65.9569C58.2746 66.4267 58.2746 66.8965 58.2746 67.3663C58.4313 67.3663 58.6194 67.335 58.8074 67.3037C58.9955 67.2724 59.1522 67.2097 59.3089 67.0845C59.4657 66.9905 59.591 66.8339 59.6851 66.646C59.7791 66.458 59.8104 66.2074 59.8104 65.8629C59.7791 65.6123 59.7477 65.3931 59.6851 65.2365Z" fill="#A9A9A9"/>
<path d="M65.0134 65.2364C65.0134 64.7979 64.9821 64.3594 64.9507 63.9209C65.0761 63.9209 65.2015 63.9522 65.3268 63.9522C65.4522 63.9522 65.6089 63.9522 65.797 63.9522C65.9537 63.9522 66.1104 63.9522 66.2672 63.9522C66.3925 63.9522 66.5179 63.9209 66.6433 63.9209C66.6119 64.3594 66.5806 64.7979 66.5806 65.2364C66.5806 65.6749 66.5492 66.1761 66.5492 66.7085V68.0867C66.5492 68.6505 66.5492 69.1516 66.5806 69.5588C66.5806 69.9973 66.6119 70.4045 66.6433 70.843C66.5179 70.843 66.3925 70.8117 66.2672 70.8117C66.1418 70.8117 65.9851 70.8117 65.797 70.8117C65.6403 70.8117 65.4836 70.8117 65.3268 70.8117C65.2015 70.8117 65.0761 70.8117 64.9507 70.843C64.9821 70.4358 65.0134 69.9973 65.0134 69.5588C65.0448 69.1203 65.0448 68.6191 65.0448 68.0867V66.7085C65.0448 66.1761 65.0448 65.6749 65.0134 65.2364Z" fill="#A9A9A9"/>
<path d="M72.0657 65.0494C72.0657 64.8928 72.0343 64.7675 72.0343 64.7048C71.9403 64.7048 71.8149 64.7048 71.6582 64.7048C71.5015 64.7048 71.3448 64.7362 71.188 64.7362C71.0313 64.7362 70.8433 64.7675 70.6866 64.7675C70.4985 64.7988 70.3418 64.7988 70.2164 64.8301C70.2164 64.7675 70.2477 64.6735 70.2477 64.6109C70.2477 64.5482 70.2791 64.4543 70.2791 64.3916C70.2791 64.329 70.2791 64.235 70.2477 64.1724C70.2477 64.1097 70.2164 64.0158 70.2164 63.9531C70.4358 63.9531 70.6552 63.9531 70.8433 63.9844C71.0313 63.9844 71.2194 63.9844 71.4074 63.9844C71.5955 63.9844 71.8149 63.9844 72.0343 63.9844C72.2537 63.9844 72.5358 63.9844 72.8492 63.9844C73.1627 63.9844 73.4448 63.9844 73.6642 63.9844C73.8836 63.9844 74.103 63.9844 74.291 63.9844C74.4791 63.9844 74.6672 63.9844 74.8239 63.9844C75.0119 63.9844 75.2 63.9531 75.3881 63.9531C75.3881 64.0158 75.3567 64.1097 75.3567 64.1724C75.3567 64.235 75.3254 64.329 75.3254 64.3916C75.3254 64.4543 75.3254 64.5482 75.3567 64.6109C75.3567 64.6735 75.3881 64.7675 75.3881 64.8301C75.2627 64.7988 75.106 64.7988 74.9492 64.7675C74.7612 64.7362 74.6045 64.7362 74.4478 64.7362C74.291 64.7362 74.1343 64.7048 73.9776 64.7048C73.8209 64.7048 73.6955 64.7048 73.6015 64.7048C73.6015 64.7362 73.6015 64.7988 73.6015 64.8615C73.6015 64.9241 73.6015 64.9867 73.6015 65.0807V65.6132V68.1189C73.6015 68.6827 73.6015 69.1838 73.6328 69.591C73.6642 70.0295 73.6642 70.4367 73.6955 70.8752C73.5701 70.8752 73.4448 70.8439 73.3194 70.8439C73.194 70.8439 73.0373 70.8439 72.8806 70.8439C72.7239 70.8439 72.5672 70.8439 72.4104 70.8439C72.2851 70.8439 72.1597 70.8439 72.0343 70.8752C72.0657 70.468 72.097 70.0295 72.097 69.591C72.1283 69.1525 72.1283 68.6514 72.1283 68.1189V65.6132C72.0657 65.3939 72.0657 65.206 72.0657 65.0494Z" fill="#A9A9A9"/>
<path d="M83.9447 70.843C83.788 70.843 83.6313 70.8117 83.4746 70.8117C83.3179 70.8117 83.1925 70.8117 83.0358 70.8117C82.9104 70.8117 82.7537 70.8117 82.597 70.8117C82.4403 70.8117 82.3149 70.8117 82.1582 70.843C82.0642 70.5298 81.9388 70.1853 81.8134 69.8408C81.688 69.4962 81.594 69.1517 81.4373 68.8071C81.2179 68.8071 80.9985 68.8071 80.7791 68.7758C80.5597 68.7758 80.3403 68.7758 80.1209 68.7758C79.9328 68.7758 79.7761 68.7758 79.588 68.7758C79.4 68.7758 79.2433 68.7758 79.0552 68.8071C78.9298 69.1517 78.8045 69.4962 78.6791 69.8408C78.5537 70.1853 78.4597 70.5298 78.3657 70.843C78.2716 70.843 78.2089 70.8117 78.1149 70.8117C78.0209 70.8117 77.9582 70.8117 77.8642 70.8117C77.7701 70.8117 77.7074 70.8117 77.6134 70.8117C77.5194 70.8117 77.4567 70.8117 77.3627 70.843C77.4567 70.6551 77.5507 70.4359 77.6761 70.1227C77.8015 69.8094 77.9582 69.4649 78.1149 69.089C78.2716 68.7132 78.4597 68.2747 78.6477 67.8362C78.8358 67.3977 79.0239 66.9278 79.2119 66.4893C79.4 66.0195 79.588 65.581 79.7448 65.1425C79.9328 64.704 80.0895 64.2968 80.2462 63.8896C80.3089 63.8896 80.3716 63.921 80.4343 63.921C80.497 63.921 80.5597 63.9523 80.6224 63.9523C80.6851 63.9523 80.7477 63.9523 80.8104 63.921C80.8731 63.921 80.9358 63.8896 80.9985 63.8896C81.2179 64.4534 81.4373 65.0799 81.688 65.7376C81.9388 66.3954 82.1895 67.0218 82.4403 67.6482C82.691 68.2747 82.9418 68.8698 83.1612 69.4336C83.5373 69.9974 83.7567 70.4672 83.9447 70.843ZM80.3716 65.8316C80.1836 66.2388 80.0268 66.646 79.8701 67.0218C79.7134 67.429 79.5567 67.8049 79.4 68.2434H81.2492C81.0925 67.8362 80.9358 67.429 80.8104 67.0218C80.6851 66.6146 80.5283 66.2388 80.3716 65.8316Z" fill="#A9A9A9"/>
<path d="M87.4865 65.2364C87.4552 64.7979 87.4552 64.3594 87.4239 63.9209C87.5492 63.9209 87.6746 63.9522 87.8 63.9522C87.9254 63.9522 88.0821 63.9522 88.2701 63.9522C88.4268 63.9522 88.5836 63.9522 88.7403 63.9522C88.8656 63.9522 88.991 63.9209 89.1164 63.9209C89.085 64.3594 89.0537 64.7979 89.0537 65.2364C89.0224 65.6749 89.0224 66.1761 89.0224 66.7085V68.0867C89.0224 68.4625 89.0224 68.8384 89.0224 69.1829C89.0224 69.5275 89.0224 69.8407 89.0537 70.1226C89.4298 70.1226 89.8059 70.1226 90.2134 70.0913C90.5895 70.0599 90.997 70.0286 91.3731 69.9973C91.3731 70.0599 91.3418 70.1539 91.3418 70.1852C91.3418 70.2479 91.3418 70.3418 91.3418 70.4358C91.3418 70.5298 91.3418 70.6237 91.3418 70.6864C91.3418 70.749 91.3731 70.8117 91.3731 70.843C91.185 70.843 90.9656 70.843 90.7149 70.843C90.4328 70.843 90.088 70.843 89.6179 70.843C89.2104 70.843 88.8657 70.843 88.6149 70.843C88.3642 70.843 88.1761 70.843 88.0194 70.843C87.8627 70.843 87.7686 70.843 87.6746 70.843C87.6119 70.843 87.5179 70.843 87.4865 70.843C87.5179 70.4358 87.5179 69.9973 87.5492 69.5588C87.5492 69.1203 87.5806 68.6191 87.5806 68.0867V66.7085C87.4865 66.1761 87.4865 65.6749 87.4865 65.2364Z" fill="#A9A9A9"/>
</g>
<defs>
<clipPath id="clip0">
<rect width="84" height="41" fill="white" transform="translate(8 30)"/>
</clipPath>
</defs>
</svg>
