<?xml version="1.0" encoding="utf-8"?>
<!-- Generator: Adobe Illustrator 24.3.0, SVG Export Plug-In . SVG Version: 6.00 Build 0)  -->
<svg version="1.1" id="Layer_1" xmlns="http://www.w3.org/2000/svg" xmlns:xlink="http://www.w3.org/1999/xlink" x="0px" y="0px"
	 viewBox="0 0 854 350" style="enable-background:new 0 0 854 350;" xml:space="preserve">
<style type="text/css">
	.st0{opacity:0.5;}
	.st1{fill:#62B55C;}
	.st2{opacity:0.3;}
	.st3{fill:#FAFDFD;}
	.st4{fill:#15223E;}
	.st5{fill:#DE6F5A;}
	.st6{fill:#C6D2E5;}
	.st7{fill:#A33E3E;}
	.st8{opacity:0.41;fill:url(#SVGID_1_);enable-background:new    ;}
	.st9{fill:#CFAD68;}
	.st10{fill:#FFFFFF;}
	.st11{fill:none;}
	.st12{fill:#FFEB72;}
	.st13{opacity:0.41;fill:url(#SVGID_2_);enable-background:new    ;}
	.st14{clip-path:url(#SVGID_4_);}
	.st15{fill:#999999;}
	.st16{fill:#D1D1D1;}
	.st17{clip-path:url(#SVGID_6_);}
	.st18{opacity:0.41;fill:url(#SVGID_7_);enable-background:new    ;}
	.st19{fill:#D9F4FF;}
	.st20{fill:#56A2D6;}
	.st21{opacity:0.7;fill:url(#SVGID_8_);enable-background:new    ;}
	.st22{fill:#79C0E8;}
	.st23{fill:#7D9AB2;}
	.st24{fill:#DBDBDB;}
	.st25{fill:#848484;}
	.st26{fill:#405868;}
	.st27{opacity:0.41;fill:url(#SVGID_9_);enable-background:new    ;}
	.st28{clip-path:url(#SVGID_11_);}
	.st29{fill:#8E8E8E;}
	.st30{fill:#6B6B6B;}
	.st31{clip-path:url(#SVGID_13_);}
	.st32{clip-path:url(#SVGID_15_);}
	.st33{clip-path:url(#SVGID_17_);}
	.st34{fill:#62B55A;}
	.st35{fill:#A8E2A1;}
	.st36{fill:#747474;}
	.st37{clip-path:url(#SVGID_19_);}
	.st38{clip-path:url(#SVGID_21_);}
	.st39{fill:#CBE6F7;}
</style>
<g>
	<g class="st0">
		<path class="st1" d="M681,155.5l-0.1,32.5c-0.1,37.7-24.9,75.4-74.4,104.1c-99.6,57.9-261.7,57.9-362,0
			c-50.5-29.2-75.7-67.4-75.5-105.6l0.1-32.5c-0.1,38.2,25.1,76.4,75.6,105.6c100.3,57.9,262.4,57.9,362,0
			C656.1,230.9,680.9,193.2,681,155.5z"/>
	</g>
	<g class="st2">
		
			<ellipse transform="matrix(2.792587e-03 -1 1 2.792587e-03 269.0562 579.3363)" class="st1" cx="425" cy="154.8" rx="143.1" ry="247"/>
	</g>
</g>
<path class="st3" d="M420.9,271l208.7-104.3c0.9-0.4,2-0.2,2.8,0.4c2.2,1.7,3.6,4.3,3.5,7.1c0,1-0.5,2-1.3,2.5L425.9,281
	c0.9-0.5,1.4-1.5,1.3-2.5c0-2.8-1.3-5.4-3.5-7.1C422.9,270.8,421.9,270.6,420.9,271z"/>
<ellipse transform="matrix(0.8954 -0.4453 0.4453 0.8954 -78.6106 217.4046)" class="st4" cx="423.4" cy="276" rx="3.2" ry="5.6"/>
<path class="st5" d="M543.7,209.6l9.3-4.6c5.2-1,10.3,7.2,15.8,4.4l-9.2,4.6C554.1,216.8,548.9,208.6,543.7,209.6z M599.2,194.3
	l9.2-4.6c-5.4,2.7-10.5-5.2-15.7-4.5l-9.2,4.6C588.6,189,593.7,197,599.2,194.3z M579.4,204.2l9.2-4.6c-5.5,2.7-10.6-5.3-15.7-4.5
	l-9.2,4.6C568.7,198.8,573.9,206.9,579.4,204.2z M619,184.4l9.2-4.6c-5.4,2.7-10.5-5.1-15.6-4.5l-9.2,4.6
	C608.4,179.2,613.5,187,619,184.4z M635.9,175c0.1-0.2,0.1-0.5,0.1-0.7c0-2.8-1.3-5.4-3.5-7.1c-0.8-0.6-1.8-0.8-2.8-0.4l-6.5,3.2
	C627.4,169.4,631.5,174.6,635.9,175z M440.8,273.6l9.2-4.6c-5.7,2.8-11.1-6.2-16.5-4.3l-9.3,4.6
	C429.6,267.3,435.1,276.4,440.8,273.6z M480.4,253.7l9.2-4.6c-5.6,2.8-10.9-5.9-16.2-4.4l-9.3,4.6
	C469.4,247.8,474.8,256.5,480.4,253.7L480.4,253.7z M460.6,263.6l9.2-4.6c-5.7,2.8-11-6-16.4-4.3l-9.3,4.6
	C449.5,257.6,454.9,266.5,460.6,263.6L460.6,263.6z M500.2,243.8l9.2-4.6c-5.6,2.8-10.9-5.7-16.1-4.4l-9.3,4.6
	C489.3,238.1,494.6,246.6,500.2,243.8L500.2,243.8z M520,233.9l9.2-4.6c-5.5,2.8-10.8-5.6-16-4.4l-9.2,4.6
	C509.2,228.3,514.4,236.7,520,233.9z M539.8,224l9.2-4.6c-5.5,2.7-10.7-5.5-15.9-4.4l-9.2,4.6C529,218.4,534.3,226.7,539.8,224z"/>
<path class="st6" d="M427.1,276.8c0.1,0.6,0.2,1.2,0.1,1.8c0,1-0.5,2-1.3,2.5l208.7-104.3c0.9-0.5,1.4-1.5,1.3-2.5
	c0-0.7,0-1.3-0.2-2L427.1,276.8z"/>
<path class="st7" d="M520,233.9l9.2-4.6c-2.1,1-4.2,0.5-6.2-0.6l-9.2,4.6C515.8,234.4,517.9,235,520,233.9z"/>
<path class="st7" d="M539.8,224l9.2-4.6c-2.1,1.1-4.2,0.5-6.2-0.6l-9.2,4.6C535.6,224.5,537.7,225.1,539.8,224z"/>
<path class="st7" d="M559.6,214.1l9.2-4.6c-2.1,1.1-4.2,0.5-6.2-0.6l-9.2,4.6C555.4,214.6,557.5,215.1,559.6,214.1z"/>
<path class="st7" d="M599.2,194.3l9.2-4.6c-2.1,1-4.2,0.5-6.2-0.6l-9.2,4.6C595,194.7,597,195.3,599.2,194.3z"/>
<path class="st7" d="M500.2,243.8l9.2-4.6c-2.1,1-4.2,0.5-6.2-0.6l-9.2,4.6C496,244.3,498.1,244.9,500.2,243.8z"/>
<path class="st7" d="M579.4,204.2l9.2-4.6c-2.1,1.1-4.2,0.5-6.2-0.6l-9.2,4.6C575.2,204.6,577.2,205.2,579.4,204.2z"/>
<path class="st7" d="M621.9,179.2l-9.2,4.6c2,1,4.1,1.6,6.2,0.6l9.2-4.6C626,180.8,624,180.2,621.9,179.2z"/>
<path class="st7" d="M636,173.7c0-0.1,0-0.3,0-0.4l0,0c0-0.3-0.1-0.7-0.2-1l-3.3,1.6c1,0.6,2.2,1,3.4,1.1l0.1-0.3c0-0.1,0-0.2,0-0.4
	S636,173.9,636,173.7C636,173.6,636,173.7,636,173.7z"/>
<path class="st7" d="M440.8,273.6l9.2-4.6c-2.1,1-4.2,0.5-6.2-0.6l-9.2,4.6C436.6,274,438.7,274.6,440.8,273.6z"/>
<path class="st7" d="M480.4,253.7l9.2-4.6c-2.1,1.1-4.2,0.5-6.2-0.6l-9.2,4.6C476.2,254.2,478.3,254.8,480.4,253.7z"/>
<path class="st7" d="M460.6,263.6l9.2-4.6c-2.1,1-4.2,0.5-6.2-0.6l-9.2,4.6C456.4,264.1,458.5,264.7,460.6,263.6z"/>
<linearGradient id="SVGID_1_" gradientUnits="userSpaceOnUse" x1="462.4442" y1="273.4369" x2="488.5286" y2="228.2465" gradientTransform="matrix(1 0 0 -1 0 350)">
	<stop  offset="0" style="stop-color:#000000;stop-opacity:0"/>
	<stop  offset="3.000000e-02" style="stop-color:#15223E;stop-opacity:3.000000e-02"/>
	<stop  offset="1" style="stop-color:#15223E"/>
</linearGradient>
<polygon class="st8" points="493.6,118.1 441.5,89.9 457.7,79.3 510,109.4 "/>
<path class="st9" d="M510.9,84.8c0,0.1,0,0.2,0,0.3c0,0.1,0,0.2,0,0.3s0,0.2-0.1,0.3s0,0.2-0.1,0.3s-0.1,0.2-0.1,0.3
	s-0.1,0.2-0.2,0.3l-0.1,0.2l-0.2,0.4l-0.3,0.4l-0.1,0.1c-0.1,0.2-0.3,0.3-0.5,0.4l-0.3,0.3l-0.3,0.2l-0.4,0.3
	c-0.1,0.1-0.3,0.2-0.4,0.3c-0.3,0.2-0.7,0.4-1,0.5l-0.3,0.1c-0.3,0.1-0.6,0.2-0.9,0.3l-0.3,0.1l-0.6,0.2l-0.4,0.1l-0.6,0.1l-0.4,0.1
	c-0.4,0.1-0.8,0.1-1.2,0.2h-0.4L501,91h-1.1h-0.5c-0.2,0-0.4,0-0.5,0h-0.5l-0.5-0.1l-0.5-0.1l-0.6-0.1l-0.5-0.1l-0.7-0.2l-0.4-0.1
	c-0.4-0.1-0.8-0.2-1.2-0.4l-0.5-0.2l-0.3-0.1c-0.3-0.1-0.5-0.3-0.8-0.4c-1.6-0.8-2.7-2.2-3.1-3.9c0-0.2-0.1-0.4,0-0.6l-0.1,27.9
	c0,1.6,1.1,3.2,3.2,4.5c0.3,0.2,0.5,0.3,0.8,0.4l0.3,0.1c0.2,0.1,0.3,0.2,0.5,0.2h0.1c0.4,0.2,0.8,0.3,1.2,0.4h0.1l0.3,0.1l0.7,0.2
	h0.2h0.3l0.6,0.1h0.2c0.1,0,0.2,0,0.2,0c0.2,0,0.4,0,0.5,0.1c0.1,0,0.2,0,0.3,0h0.2h0.5h0.3h1.3h0.7h0.3h0.1c0.4,0,0.8-0.1,1.2-0.2
	h0.1l0.4-0.1l0.6-0.1l0.4-0.1l0.6-0.2h0.1l0.2-0.1c0.3-0.1,0.6-0.2,0.9-0.3l0.3-0.1c0.3-0.2,0.7-0.3,1-0.5l0.1-0.1l0.3-0.2l0.4-0.3
	l0.3-0.2l0.3-0.3l0.1-0.1c0.1-0.1,0.3-0.3,0.4-0.4l0.1-0.1l0.2-0.2c0,0,0.1-0.1,0.1-0.1c0.1-0.1,0.2-0.2,0.3-0.4
	c0,0,0.1-0.1,0.1-0.2v-0.1c0.1-0.1,0.1-0.2,0.2-0.3l0.1-0.2c0,0,0,0,0-0.1s0.1-0.2,0.1-0.3c0-0.1,0-0.1,0.1-0.2l0,0
	c0-0.1,0-0.2,0-0.3s0-0.1,0-0.2v-0.1l0,0L510.9,84.8z"/>
<path class="st10" d="M508.2,88.9L508.2,88.9c-0.1,0.1-0.3,0.2-0.4,0.3c-0.3,0.2-0.7,0.4-1,0.5l-0.3,0.1L506,90v27.9l0.3-0.1
	l0.3-0.1c0.3-0.2,0.7-0.3,1-0.5l0.1-0.1l0.3-0.2l0.1-0.1L508.2,88.9z"/>
<path class="st4" d="M492.3,117.2c0.3,0.2,0.5,0.3,0.8,0.4l0.3,0.1l0.1,0.1l0.1-28h-0.1l-0.3-0.1c-0.3-0.1-0.5-0.3-0.8-0.4
	c-1.6-0.8-2.7-2.2-3.1-3.9c0-0.2-0.1-0.4,0-0.6l-0.1,27.9C489.1,114.3,490.2,115.9,492.3,117.2z"/>
<ellipse transform="matrix(2.792587e-03 -1 1 2.792587e-03 413.8614 584.5561)" class="st11" cx="500" cy="84.8" rx="6.3" ry="10.9"/>
<ellipse transform="matrix(2.792587e-03 -1 1 2.792587e-03 413.8614 584.5561)" class="st12" cx="500" cy="84.8" rx="6.3" ry="10.9"/>
<path class="st9" d="M509.5,50.1c0,0.1,0,0.2,0,0.3c0,0.1,0,0.2,0,0.3c0,0.1,0,0.2-0.1,0.2c0,0.1,0,0.2-0.1,0.3
	c0,0.1-0.1,0.2-0.1,0.2l-0.1,0.3l-0.1,0.2l-0.2,0.3c-0.1,0.1-0.2,0.2-0.2,0.3l-0.1,0.1L508,53l-0.3,0.2l-0.3,0.2l-0.3,0.2l-0.4,0.2
	c-0.3,0.2-0.6,0.3-0.9,0.5l-0.3,0.1l-0.8,0.3l-0.3,0.1l-0.5,0.1l-0.4,0.1l-0.5,0.1l-0.4,0.1c-0.4,0.1-0.7,0.1-1.1,0.2
	c-0.1,0-0.2,0-0.3,0h-0.6h-1.4h-0.5h-0.4H498l-0.4-0.1c-0.2,0-0.3,0-0.5-0.1l-0.4-0.1l-0.6-0.2l-0.3-0.1c-0.4-0.1-0.7-0.2-1-0.3
	l-0.5-0.2l-0.2-0.1c-0.2-0.1-0.5-0.2-0.7-0.4c-1.4-0.7-2.4-1.9-2.8-3.4c0-0.2,0-0.4,0-0.5L490.5,84c0,1.4,0.9,2.8,2.8,3.9
	c0.2,0.1,0.5,0.2,0.7,0.4l0.2,0.1l0.4,0.2h0c0.3,0.1,0.7,0.2,1,0.3h0.1c0.1,0,0.2,0,0.2,0.1l0.6,0.2h0.2h0.2l0.5,0.1h0.2h0.2
	l0.5,0.1h0.2h0.2h0.5h1.4h0.6h0.3c0.4,0,0.7-0.1,1.1-0.2h0l0.3-0.1l0.5-0.1l0.4-0.1l0.5-0.1h0.1l0.2-0.1l0.8-0.3l0.3-0.1
	c0.3-0.1,0.6-0.3,0.9-0.4l0.1-0.1l0.2-0.2l0.3-0.2l0.3-0.2l0.3-0.2c0,0,0,0,0,0c0.1-0.1,0.2-0.2,0.3-0.3c0,0,0,0,0.1-0.1l0.2-0.2
	l0.1-0.1c0.1-0.1,0.1-0.2,0.2-0.3l0.1-0.1c0,0,0-0.1,0-0.1c0-0.1,0.1-0.2,0.1-0.3l0.1-0.2c0,0,0,0,0-0.1c0-0.1,0.1-0.2,0.1-0.3
	c0-0.1,0-0.1,0.1-0.2l0,0c0-0.1,0-0.2,0-0.3s0-0.1,0-0.2V84l0,0L509.5,50.1z"/>
<path class="st4" d="M493.3,87.8c0.2,0.1,0.5,0.2,0.7,0.4l0.2,0.1h0.1l0.1-33.9h-0.1l-0.2-0.1c-0.2-0.1-0.5-0.2-0.7-0.4
	c-1.4-0.7-2.4-1.9-2.8-3.4c0-0.2,0-0.4,0-0.5l-0.1,33.9C490.5,85.3,491.4,86.8,493.3,87.8z"/>
<ellipse transform="matrix(2.792587e-03 -1 1 2.792587e-03 448.5984 549.8962)" class="st11" cx="500" cy="50" rx="5.5" ry="9.5"/>
<ellipse transform="matrix(2.792587e-03 -1 1 2.792587e-03 448.5984 549.8962)" class="st12" cx="500" cy="50" rx="5.5" ry="9.5"/>
<g>
	<path class="st5" d="M508.2,30.5c0,0.1,0,0.2,0,0.2c0,0.1,0,0.2,0,0.3c0,0.1,0,0.1,0,0.2c0,0.1,0,0.2-0.1,0.2
		c0,0.1-0.1,0.1-0.1,0.2l-0.1,0.3c0,0.1-0.1,0.1-0.1,0.2l-0.2,0.3c-0.1,0.1-0.1,0.2-0.2,0.3l-0.1,0.1c-0.1,0.1-0.2,0.2-0.3,0.3
		l-0.2,0.2l-0.2,0.2l-0.3,0.2c-0.1,0.1-0.2,0.1-0.3,0.2s-0.5,0.3-0.8,0.4l-0.2,0.1c-0.2,0.1-0.4,0.2-0.6,0.2l-0.2,0.1
		c-0.1,0-0.3,0.1-0.4,0.1l-0.3,0.1l-0.5,0.1l-0.3,0.1l-0.9,0.1h-0.3h-0.5h-1.2h-0.4h-0.4h-0.4l-0.4,0l-0.4-0.1l-0.3-0.1l-0.5-0.1
		l-0.3-0.1c-0.3-0.1-0.6-0.2-0.9-0.3l-0.4-0.2l-0.2-0.1c-0.2-0.1-0.4-0.2-0.6-0.3c-1.2-0.6-2.1-1.6-2.4-2.9c0-0.1,0-0.3,0-0.5
		l-0.1,19c0,1.2,0.8,2.5,2.4,3.4l0.6,0.3l0.2,0.1l0.4,0.2h0c0.3,0.1,0.6,0.2,0.9,0.3h0.1h0.2l0.5,0.1h0.1h0.2l0.4,0.1h0.2h0.2l0.4,0
		h0.2h0.1h0.4h1.2h0.5h0.3l0.9-0.1h0l0.3-0.1l0.5-0.1l0.3-0.1l0.4-0.1h0.1h0.1c0.2-0.1,0.4-0.2,0.6-0.2l0.2-0.1
		c0.3-0.1,0.5-0.2,0.8-0.4l0.1-0.1c0.1-0.1,0.1-0.1,0.2-0.1l0.3-0.2l0.2-0.2l0.2-0.2l0,0c0.1-0.1,0.2-0.2,0.3-0.3l0.1-0.1l0.2-0.2
		v-0.1l0.2-0.3c0,0,0-0.1,0.1-0.1v-0.1l0.1-0.3l0.1-0.2l0,0c0-0.1,0.1-0.2,0.1-0.2c0-0.1,0-0.1,0-0.2l0,0c0-0.1,0-0.2,0-0.3
		c0-0.1,0-0.1,0-0.2v-0.1l0,0L508.2,30.5z"/>
	<path class="st7" d="M495.9,34.6l-0.4-0.1l-0.4-0.2l-0.2-0.1c-0.2-0.1-0.4-0.2-0.6-0.3c-1.2-0.6-2.1-1.6-2.4-2.9c0-0.1,0-0.3,0-0.5
		l-0.1,19c0,1.2,0.8,2.5,2.4,3.4l0.6,0.3l0.2,0.1l0.4,0.2h0l0.4,0.1L495.9,34.6z"/>
	
		<ellipse transform="matrix(0.9999 -1.064631e-02 1.064631e-02 0.9999 -0.297 5.3252)" class="st5" cx="500" cy="30.6" rx="8.2" ry="9.5"/>
</g>
<path class="st10" d="M506.6,54c-0.2,0.1-0.5,0.2-0.7,0.4l-0.3,0.1c-0.2,0.1-0.5,0.2-0.8,0.3l-0.3,0.1l-0.5,0.1l-0.3,0.1V89h0.2
	l0.5-0.1h0.1l0.2-0.1l0.8-0.3l0.3-0.1c0.3-0.1,0.5-0.2,0.8-0.4V54z"/>
<linearGradient id="SVGID_2_" gradientUnits="userSpaceOnUse" x1="367.571" y1="244.7667" x2="399.6504" y2="189.1977" gradientTransform="matrix(1 0 0 -1 0 350)">
	<stop  offset="0" style="stop-color:#000000;stop-opacity:0"/>
	<stop  offset="3.000000e-02" style="stop-color:#15223E;stop-opacity:3.000000e-02"/>
	<stop  offset="1" style="stop-color:#15223E"/>
</linearGradient>
<polygon class="st13" points="396.2,162.8 332.5,128.4 371.9,102.7 435.7,139.4 "/>
<g>
	<g>
		<defs>
			<path id="SVGID_3_" d="M429.8,161.5c-0.6,0.3-1.3,0.2-1.8-0.1c-8.7,5.2-23.1,5.4-32.2,0.3s-9.4-13.4-0.7-18.6s23.1-5.4,32.2-0.3
				s9.4,13.4,0.7,18.6C428.6,161.7,429.3,161.7,429.8,161.5c1.3-0.8,2.5-1.7,3.7-2.8c2.2-2,3.7-4.8,4.2-7.8c0.6-4.4-2-8.9-8-12.2
				c-10.5-5.8-27-5.7-37.1,0.4c-5.4,3.2-7.8,7.5-7.2,11.7c1,6.9,7.4,11.1,13.8,13.3C408.6,167.1,420.9,166.7,429.8,161.5z"/>
		</defs>
		<clipPath id="SVGID_4_">
			<use xlink:href="#SVGID_3_"  style="overflow:visible;"/>
		</clipPath>
		<g class="st14">
			<path class="st15" d="M428.8,161.6c10.3-5.8,11.6-14.6,3.1-21.5c4.4,3.1,6.3,7,5.8,10.8l-0.1,0.9v0.2l-0.2,0.9
				c-0.1,0.4-0.3,0.9-0.5,1.3l-0.4,0.9c-0.2,0.4-0.6,0.9-0.8,1.3l-0.6,0.9c-0.4,0.5-1,1.1-1.4,1.5l-1,0.9c-0.8,0.7-1.7,1.3-2.7,1.9
				C429.6,161.6,429.2,161.7,428.8,161.6"/>
		</g>
	</g>
</g>
<path class="st4" d="M437.5,152.1c-0.8,2.9-3.1,5.8-7,8.1c-10,6-26.6,6.2-37.1,0.4c-4.4-2.4-6.9-5.5-7.8-8.7
	c-0.1-0.4-0.2-0.7-0.2-1.1c0.2,1.3,0.6,2.6,1.2,3.8c1,1.9,2.3,3.6,4,4.9c1.1,0.9,2.2,1.7,3.5,2.3c3.2,1.7,6.6,2.9,10.1,3.5
	c5.3,1,10.8,0.9,16.1-0.3l1-0.2c2.3-0.6,4.6-1.4,6.7-2.4c0.5-0.3,1.2-0.6,1.7-0.9l0,0c1-0.6,2-1.3,2.9-2.1c1.6-1.3,2.9-2.9,3.8-4.7
	c0.6-1.2,1-2.4,1.2-3.7C437.6,151.3,437.6,151.7,437.5,152.1z"/>
<path class="st10" d="M386,55.3l0.9-0.5l0.2-0.1l0.9-0.5l0.1-0.1l0.9-0.4l0.2-0.1l1-0.4l0.2-0.1c0.3-0.1,0.6-0.3,1-0.4h0l1-0.4
	l0.2-0.1l1.1-0.4l0.1,0l1-0.3l0.2-0.1l1.1-0.3l0.2-0.1l1-0.3h0.1l1.1-0.3l0.3-0.1l1.1-0.2h0.1l1.1-0.2h0.2l1.2-0.2h0.2l1.1-0.2h0.1
	l1.2-0.1h0.3l1.2-0.1h0.1l1.1-0.1h0.3l1.2,0h0.2h1.1h1.6h1.2l0,0h1.2h0.3l1.2,0.1h0.2l1.1,0.1h0.2l1.2,0.1h0.3l1.2,0.2l0,0
	c0.4,0,0.8,0.1,1.2,0.2h0.3L423,50h0.2l1,0.2h0.2l1.1,0.3l0.2,0.1l1.1,0.3h0.2c1.1,0.3,2.3,0.7,3.4,1l0.1,0.1l0.6,0.2l0.4,0.2
	l0.3,0.1l0.6,0.2h0.1c1.3,0.5,2.6,1.1,3.9,1.8l0.3,0.2h0l0.2,0.1c0.9,0.5,1.8,1.1,2.7,1.7h0.1l0.3,0.2l0.2,0.1l0.6,0.4h0l0.5,0.4
	c0.1,0,0.1,0.1,0.2,0.2l0.4,0.3l0.2,0.2l0.3,0.3l0.2,0.2c0.1,0.1,0.2,0.2,0.3,0.3l0.2,0.2l0.3,0.3l0.2,0.2l0.3,0.4
	c0,0,0.1,0.1,0.1,0.1c0.1,0.2,0.3,0.3,0.4,0.5l0.1,0.1l0.3,0.4c0,0.1,0.1,0.1,0.1,0.2l0.2,0.3l0.1,0.2l0.2,0.3l0.1,0.2l0.2,0.3
	l0.1,0.2l0.2,0.3l0.1,0.2c0.1,0.2,0.2,0.3,0.3,0.5l0,0l0.2,0.5c0,0.1,0,0.1,0.1,0.2s0.1,0.2,0.1,0.3s0,0.1,0.1,0.2s0.1,0.2,0.1,0.3
	c0,0.1,0.1,0.1,0.1,0.2c0,0.1,0.1,0.2,0.1,0.3l0.1,0.2l0.1,0.3c0,0.1,0,0.1,0,0.2l0.1,0.4c0,0,0,0.1,0,0.1c0,0.2,0.1,0.4,0.1,0.5
	c0,0.1,0,0.1,0,0.1s0,0.3,0,0.4s0,0.1,0,0.2s0,0.2,0,0.3c0,0.1,0,0.1,0,0.2c0,0.1,0,0.2,0,0.3v0.2c0,0.1,0,0.2,0,0.3
	c0,0.1,0,0.1,0,0.2c0,0.1,0,0.2,0,0.4s0,0.1,0,0.2c0,0.2,0,0.4-0.1,0.5c-3.7,26.6-7.5,53.2-11.3,79.8c0-0.1,0-0.2,0-0.4
	c0,0,0-0.1,0-0.1c0-0.1,0-0.2,0-0.2c0,0,0-0.1,0-0.1v-0.6c0,0,0-0.1,0-0.1c0-0.1,0-0.2,0-0.2c0,0,0-0.1,0-0.1c0-0.1,0-0.2,0-0.3
	c0,0,0-0.1,0-0.1c0-0.1,0-0.2-0.1-0.4c0,0,0-0.1,0-0.1l-0.1-0.3c0,0,0-0.1,0-0.1c0-0.1,0-0.2-0.1-0.2c0,0,0-0.1,0-0.1
	c0-0.1,0-0.2-0.1-0.2c0,0,0-0.1,0-0.1l-0.1-0.2c0,0,0-0.1,0-0.1c0-0.1-0.1-0.2-0.1-0.2v-0.1l-0.1-0.3l0,0l-0.2-0.4l-0.1-0.1
	l-0.1-0.2l-0.1-0.1c0-0.1-0.1-0.2-0.1-0.2l-0.1-0.1l-0.1-0.2l-0.1-0.1c-0.1-0.1-0.1-0.1-0.2-0.2l-0.1-0.1l-0.2-0.2l-0.1-0.1
	l-0.3-0.3l-0.1-0.1l-0.2-0.3l-0.1-0.1l-0.2-0.2c0,0-0.1-0.1-0.1-0.1l-0.2-0.2l-0.1-0.1l-0.2-0.2l-0.1-0.1l-0.2-0.2L432,142l-0.3-0.3
	l0,0l-0.4-0.3l-0.1-0.1l-0.3-0.2c-0.6-0.4-1.2-0.8-1.9-1.2l-0.1-0.1h-0.1c-0.9-0.5-1.9-1-2.9-1.4l0,0l-1-0.4l-0.2-0.1
	c-0.3-0.1-0.6-0.2-0.9-0.3l-0.3-0.1l-0.7-0.2l-0.3-0.1l-0.8-0.2l-0.4-0.1l-0.8-0.2l-0.3-0.1c-0.3-0.1-0.7-0.1-1-0.2h-0.2l-0.8-0.1
	l-0.4-0.1l-0.7-0.1H417l-0.8-0.1h-0.3l-1.1-0.1h-0.3h-0.8h-0.4h-0.8h-1.5h-1.1h-0.3H409h-0.4l-0.8,0.1h-0.4l-0.9,0.1h-0.2
	c-0.4,0.1-0.7,0.1-1.1,0.1h-0.3l-0.8,0.1l-0.4,0.1l-0.7,0.1l-0.3,0.1l-0.9,0.2h-0.1l-1,0.3l-0.3,0.1l-0.7,0.2l-0.3,0.1l-0.7,0.2
	l-0.3,0.1l-0.9,0.3h-0.1l-0.9,0.4l-0.3,0.1l-0.6,0.3l-0.3,0.1l-0.6,0.3l-0.3,0.1c-0.3,0.1-0.5,0.3-0.8,0.5
	c-5.1,3.1-7.4,7.1-6.8,11.1c-3.6-26.7-7.2-53.3-10.8-79.9C375.3,65.6,378.6,59.7,386,55.3z"/>
<path class="st16" d="M429,105l14.9-7.4c1.2-8.7,2.4-17.3,3.7-26c0-0.2,0-0.4,0.1-0.5c0-0.1,0-0.1,0-0.2s0-0.2,0-0.4
	c0-0.1,0-0.1,0-0.2c0-0.1,0-0.2,0-0.3v-0.2c0-0.1,0-0.2,0-0.3c0-0.1,0-0.1,0-0.2c0-0.1,0-0.2,0-0.3s0-0.1,0-0.2s0-0.3,0-0.4
	s0-0.1,0-0.1c0-0.2-0.1-0.4-0.1-0.5c0,0,0-0.1,0-0.1l-0.1-0.4c0-0.1,0-0.1,0-0.2l-0.1-0.3l-0.1-0.2c0-0.1-0.1-0.2-0.1-0.3
	c0-0.1,0-0.1-0.1-0.2c0-0.1-0.1-0.2-0.1-0.3s0-0.1-0.1-0.2s-0.1-0.2-0.1-0.3s0-0.1-0.1-0.2l-0.2-0.5l0,0c-0.1-0.2-0.2-0.3-0.3-0.5
	l-0.1-0.2l-0.2-0.3l-0.1-0.2l-0.2-0.3l-0.1-0.2l-0.2-0.3l-0.1-0.2l-0.2-0.3c0-0.1-0.1-0.1-0.1-0.2l-0.3-0.4l-0.1-0.1
	c-0.1-0.2-0.3-0.3-0.4-0.5c0,0-0.1-0.1-0.1-0.1l-0.3-0.4l-0.2-0.2l-0.4-0.4l-0.2-0.2c-0.1-0.1-0.2-0.2-0.3-0.3l-0.2-0.2l-0.3-0.3
	l-0.2-0.2l-0.4-0.3c-0.1,0-0.1-0.1-0.2-0.2l-0.5-0.4c0,0,0,0,0,0l-0.6-0.4l-0.2-0.1l-0.3-0.2h-0.1c-0.9-0.6-1.8-1.2-2.7-1.7
	l-0.2-0.1h0l-0.3-0.2c-0.2-0.1-0.4-0.2-0.6-0.3l-1.1-1.9L429,105z"/>
<path class="st10" d="M386.2,86.7c14.8,8.2,38.2,8,52.3-0.5c6.1-3.7,9.5-8.3,10.2-13.1l-11,77.8c-0.5,3.4-2.9,6.6-7.2,9.3
	c-10,6-26.6,6.2-37.1,0.4c-1.9-1-3.6-2.4-5.1-3.9l-0.5-0.6l-0.2-0.3c-0.2-0.3-0.4-0.6-0.6-0.9c-0.1-0.2-0.3-0.4-0.4-0.6
	s-0.2-0.4-0.3-0.7s-0.3-0.6-0.4-1c-0.2-0.5-0.3-1.1-0.4-1.7c-3.5-26-7-51.9-10.5-77.8C375.6,78,379.4,82.9,386.2,86.7z"/>
<path class="st16" d="M399.4,163.1c-2.1-0.6-4.1-1.5-6-2.5c-1.9-1-3.6-2.4-5.1-3.9l-0.5-0.6l-0.2-0.3c-0.2-0.3-0.4-0.6-0.6-0.9
	c-0.1-0.2-0.3-0.4-0.4-0.6s-0.2-0.4-0.3-0.7s-0.3-0.6-0.4-1c-0.2-0.5-0.3-1.1-0.4-1.7c-3.5-26-7-51.9-10.5-77.8
	c0.7,5.1,4.5,10,11.3,13.8c3.4,1.9,7,3.3,10.8,4.2L399.4,163.1z"/>
<g>
	<g>
		<defs>
			<path id="SVGID_5_" d="M440.4,87c-10.3,6-22.6,7.6-33.8,6.8c-5.9-0.4-11.7-1.7-17.2-3.8c-6.7-2.7-12.8-6.8-15.9-12.9
				c-0.4-0.8-0.7-1.6-1-2.4c-0.2-0.7-0.4-1.6-0.5-2.3c-0.2-2-0.1-3.9,0.4-5.8c1.9-6.4,7.3-10.7,12.9-13.6
				c12.6-6.5,29.5-7.4,43.3-3.6c7,2,13.5,5,18.3,10.2c1.9,2,3.2,4.3,4.1,6.9c0.5,1.6,0.7,3.3,0.6,5c-0.1,2.2-0.7,4.3-1.8,6.3
				c-1.5,2.7-3.5,5-5.9,6.9C442.9,85.4,441.7,86.2,440.4,87c-0.2,0.1-0.4,0.1-0.5,0c14.9-9,14.4-23.2-1.1-31.9s-40.1-8.4-55,0.6
				s-14.4,23.2,1.1,31.9s40.1,8.4,55-0.6C440.1,87.1,440.3,87.1,440.4,87z"/>
		</defs>
		<clipPath id="SVGID_6_">
			<use xlink:href="#SVGID_5_"  style="overflow:visible;"/>
		</clipPath>
		<g class="st17">
			<path class="st15" d="M440.4,87c-10.2,5.9-21.9,7.6-33.8,6.8c-3.9-0.3-7.8-1-11.6-2c-3.5-1-7-2.3-10.2-4
				c-11-5.8-18.1-17.5-8-28.6c15.9-16.8,59.5-16.7,72.7,3.7c3.3,5.3,2.9,12.1-1,17.1c-1.3,1.7-2.8,3.3-4.5,4.6
				C443,85.3,441.6,86.3,440.4,87c-0.1,0.1-0.4,0.1-0.6,0c14.9-9,14.4-23.2-1.1-31.9s-40.1-8.4-55,0.6s-14.4,23.2,1.1,31.9
				s40.1,8.4,55-0.6C440,87.1,440.2,87.1,440.4,87"/>
			<path class="st15" d="M440.1,87.1c21.6-13.5,10.2-32.5-13.9-38c-30.6-6.9-62.5,11.9-50.9,30C384.3,93.4,417.4,99.8,440.1,87.1
				l-1.9,1.2c-0.8,0.4-1.9,0.9-2.7,1.3l-2.5,1c-0.9,0.3-2,0.7-2.8,0.9l-2.7,0.8c-0.9,0.2-2,0.5-2.9,0.7l-2.9,0.5
				c-0.9,0.1-2.1,0.3-3,0.4l-3,0.2c-0.9,0-2.1,0.1-3,0.1h-3c-0.9,0-2.1-0.1-3-0.2l-3-0.3c-0.9-0.1-2.1-0.3-3-0.4l-2.9-0.6
				c-0.9-0.2-2-0.5-2.9-0.7l-2.7-0.9c-0.8-0.3-2-0.7-2.8-1l-2.4-1c-0.8-0.4-1.9-0.9-2.6-1.3l-2-1.2c-0.7-0.5-1.6-1.1-2.3-1.6
				l-1.5-1.2c-0.6-0.6-1.4-1.3-2-1.9l-1-1.2c-0.5-0.6-1.1-1.5-1.5-2.2l-0.6-1.3c-0.3-0.7-0.7-1.7-1-2.4l-0.3-1.2
				c-0.2-0.8-0.3-1.7-0.3-2.5v-1.1l0.1-1l0.2-1.2c0.2-0.9,0.5-1.7,0.8-2.5l0.5-1.2c0.4-0.8,0.9-1.6,1.4-2.3l0.9-1.2
				c0.6-0.6,1.3-1.5,1.9-2.1l1.4-1.2c1.3-1.1,2.7-2.1,4.2-3l2.1-1.2c0.8-0.4,1.9-0.9,2.7-1.3l2.5-1c0.9-0.3,2-0.7,2.9-1l2.7-0.8
				c0.9-0.2,2-0.5,2.9-0.7l2.9-0.5c0.9-0.1,2.1-0.3,3-0.4l3-0.2c0.9,0,2.1-0.1,3-0.1h3c0.9,0,2.1,0.1,3,0.2l3,0.3
				c0.9,0.1,2.1,0.3,3,0.4l2.9,0.6c0.9,0.2,2,0.5,2.9,0.7l2.6,0.8c0.8,0.3,2,0.7,2.8,1l2.3,1c0.8,0.4,1.9,0.9,2.7,1.4l2,1.2
				c0.7,0.5,1.7,1.1,2.4,1.7l1.5,1.4c0.6,0.6,1.4,1.3,2,2l1,1.2c0.5,0.7,1.1,1.5,1.5,2.2l0.6,1.1c0.4,0.8,0.7,1.6,1,2.4l0.3,1.1
				c0.1,0.4,0.2,1,0.2,1.5l0.1,1.2c0,0.9,0,1.7-0.1,2.6l-0.2,1.2c-0.2,0.8-0.5,1.7-0.8,2.5l-0.6,1.2c-0.4,0.7-1,1.6-1.4,2.3l-1,1.3
				c-0.6,0.6-1.3,1.4-1.9,2l-1.5,1.3c-1.2,0.9-2.4,1.8-3.7,2.5C440.3,87,440.2,87,440.1,87.1"/>
		</g>
	</g>
</g>
<path class="st16" d="M386.2,86.7c14.8,8.2,38.2,8,52.3-0.5c6.1-3.7,9.5-8.3,10.2-13.1c-0.5,3.4-1,6.7-1.4,10.1
	c-2.1,2.6-4.6,4.7-7.4,6.3c-14.9,8.9-39.5,9.2-54.9,0.6c-3.3-1.8-6.3-4.2-8.6-7.2c-0.5-3.4-0.9-6.7-1.4-10.1
	C375.6,78,379.4,82.9,386.2,86.7z"/>
<path class="st16" d="M372.1,72.1v0.1c0,0.3,0.1,0.7,0.2,1v0.2c0.1,0.3,0.1,0.5,0.2,0.8c0.3,1.1,0.7,2.1,1.2,3.2
	c0,0.1,0.1,0.2,0.1,0.3l0.1,0.1c1.9,3.5,5.2,6.8,9.9,9.5l0.6,0.3c0.7,0.4,1.5,0.8,2.2,1.1h0.1l0,0c0.9,0.4,1.8,0.8,2.7,1.2l2.6,1
	c0.8,0.2,1.8,0.6,2.6,0.8h0.1h0.1h0.1h0.1c0.9,0.2,1.8,0.5,2.7,0.7h0.1h0.1c1.1,0.2,2.1,0.4,3.2,0.6c8.7,1.5,17.6,1.2,26.2-0.9h0.2
	h0.1l0,0c1.1-0.3,2.2-0.6,2.8-0.8l0,0l2.6-0.9c0.8-0.3,1.9-0.7,2.7-1.1l0.1-0.1c0.7-0.3,1.5-0.6,2.1-1s1.8-1,2.6-1.4l0,0
	c1.6-1,3.2-2.1,4.6-3.3l0,0c1.2-1,2.2-2.2,3.2-3.4l0.3-0.4l0.8-1.2l0.1-0.3c0.9-1.3,1.5-2.8,2-4.3c0-0.1,0-0.1,0-0.2
	s0.1-0.4,0.1-0.6s0.1-0.4,0.1-0.6l0,0l0.1-1.2v-0.3c0-0.2,0-0.4,0-0.7c0-0.5,0-0.9-0.1-1.4c-0.4-3.8-2.1-7.3-4.8-10
	c-0.3-0.4-0.7-0.7-1-1.1l0,0l0,0c-0.6-0.6-1.3-1.2-2-1.7l-0.2-0.1l0,0l-0.2-0.2c-0.5-0.4-1-0.7-1.5-1.1c-2.9-2-6.1-3.5-9.5-4.7
	l-0.5-0.2l-0.4-0.1c-0.8-0.2-1.5-0.5-2.3-0.7l0,0l-1.1-0.3L428,49l-0.9-0.2l-0.6-0.1l-0.2-0.1h-0.1h-0.1l-0.5-0.1
	c-7.8-1.6-15.8-1.8-23.7-0.7c-1.4,0.2-2.7,0.5-4.1,0.8s-2.7,0.7-4,1h-0.1h-0.1c-0.8,0.2-1.5,0.5-2.2,0.7l-0.2,0.1l0,0
	c-0.1,0-0.8,0.3-1.9,0.7c-4,1.5-7.7,3.8-10.8,6.6l-0.2,0.2l-0.1,0.1c-1.1,1.1-2.1,2.2-3,3.5c-0.6,0.8-1.1,1.7-1.5,2.6
	c-0.1,0.3-0.3,0.6-0.4,0.9l-0.4,1.1c-0.1,0.2-0.1,0.4-0.1,0.6s-0.1,0.4-0.1,0.6s-0.1,0.3-0.1,0.4c-0.1,0.3-0.1,0.7-0.1,1l0,0
	c-0.1,0.4-0.1,0.7-0.1,1.1l0,0v1L372.1,72.1z M439.9,85.3c-14.9,8.9-39.5,9.2-54.9,0.6s-16-22.9-1.1-31.8s39.5-9.2,54.9-0.5
	S454.7,76.4,439.9,85.3z M386.1,52.5l-0.5,0.2l0.2-0.1L386.1,52.5z"/>
<path class="st10" d="M385,85.9c15.5,8.6,40.1,8.4,54.9-0.6s14.3-23.2-1.1-31.8s-40.1-8.4-54.9,0.5S369.5,77.3,385,85.9z M386,55.3
	c13.7-8.2,36.4-8.5,50.7-0.5s14.8,21.1,1.1,29.4s-36.4,8.5-50.7,0.5S372.2,63.5,386,55.3z"/>
<path class="st16" d="M380.6,104.3c0.9,1.4,2,2.6,3.3,3.7c1.2,1.1,2.6,2,4,2.9l0.5,0.3l0.5,0.3l1.1,0.6c0.4,0.2,0.7,0.4,1.1,0.6
	l1.1,0.5c3,1.3,6.2,2.2,9.5,2.8c3.2,0.6,6.5,0.9,9.8,0.9c6.6,0.1,13.1-1.1,19.3-3.4l2.2-1c0.4-0.2,0.7-0.4,1.1-0.6l1.1-0.6
	c1.4-0.8,2.8-1.7,4.1-2.8c2.6-2.1,4.5-4.8,5.5-8c-1.1,3.1-3.1,5.8-5.7,7.8c-1.3,1-2.6,1.9-4.1,2.7l-1.1,0.6
	c-0.4,0.2-0.7,0.4-1.1,0.5l-2.2,1c-3,1.1-6.2,2-9.4,2.5l-2.4,0.4l-2.4,0.2c-0.8,0.1-1.6,0.1-2.4,0.1s-1.6,0.1-2.4,0
	c-3.3,0-6.5-0.3-9.7-0.9c-0.8-0.2-1.6-0.3-2.4-0.5l-2.4-0.6c-1.6-0.4-3.1-1-4.6-1.6l-1.1-0.4c-0.4-0.2-0.7-0.4-1.1-0.5l-1.1-0.5
	l-0.5-0.3l-0.5-0.3c-1.4-0.8-2.7-1.7-4-2.8c-1.3-1-2.4-2.2-3.3-3.6c-0.5-0.7-0.9-1.4-1.3-2.1c-0.4-0.7-0.7-1.5-0.9-2.3
	c0.2,0.8,0.5,1.6,0.8,2.3C379.8,102.9,380.2,103.6,380.6,104.3z"/>
<path class="st16" d="M438.7,112.5c-1.2,1-2.6,1.9-4,2.6l-1.1,0.6c-0.3,0.2-0.7,0.4-1.1,0.5l-2.2,1c-3,1.1-6.1,1.9-9.2,2.5l-2.4,0.4
	l-2.4,0.2c-0.8,0.1-1.6,0.1-2.4,0.1s-1.6,0.1-2.4,0c-3.2,0-6.4-0.3-9.5-0.8c-0.8-0.2-1.6-0.3-2.4-0.5l-2.3-0.6c-1.5-0.4-3-1-4.5-1.6
	l-1.1-0.4c-0.4-0.2-0.7-0.3-1.1-0.5l-1.1-0.5l-0.5-0.3l-0.5-0.3c-1.4-0.8-2.7-1.7-3.9-2.7c-1.2-1-2.3-2.2-3.3-3.5
	c-0.5-0.6-0.9-1.3-1.2-2c-0.4-0.7-0.6-1.5-0.9-2.2c0.2,0.8,0.5,1.5,0.8,2.3c0.3,0.7,0.7,1.4,1.2,2.1c0.9,1.3,2,2.5,3.2,3.6
	c0.9,0.8,1.9,1.6,3,2.2c0.4,0.2,0.7,0.4,1.1,0.7l0.5,0.3l0.5,0.3l0.6,0.3l0.4,0.2c0.2,0.1,0.6,0.3,0.9,0.4l0.2,0.1l1.1,0.5
	c2.9,1.2,6,2.1,9.1,2.7c3.2,0.6,6.4,0.9,9.6,0.9c6.5,0.1,12.9-1.1,18.9-3.4l2.2-1c0.4-0.2,0.7-0.4,1.1-0.6l1.1-0.6
	c1.4-0.8,2.8-1.7,4-2.7c2.5-2,4.4-4.8,5.4-7.8C443.1,107.9,441.2,110.6,438.7,112.5z"/>
<path class="st16" d="M438.1,116.9c-1.2,1-2.5,1.8-3.9,2.6l-1,0.6c-0.3,0.2-0.7,0.4-1,0.5l-2.1,0.9c-2.9,1.1-6,1.9-9,2.4l-2.3,0.3
	l-2.3,0.2c-0.8,0.1-1.6,0.1-2.3,0.1s-1.6,0.1-2.4,0c-3.1,0-6.3-0.3-9.3-0.8c-0.8-0.2-1.5-0.3-2.3-0.5l-2.3-0.6
	c-1.5-0.4-3-0.9-4.4-1.5l-1.1-0.4c-0.4-0.2-0.7-0.3-1-0.5l-1-0.5l-0.5-0.3l-0.5-0.3c-1.4-0.8-2.7-1.7-3.9-2.7
	c-1.2-1-2.3-2.1-3.2-3.4c-0.5-0.6-0.9-1.3-1.2-2c-0.3-0.7-0.6-1.4-0.9-2.2c0.2,0.8,0.4,1.5,0.8,2.2c0.3,0.7,0.7,1.4,1.2,2
	c0.9,1.3,2,2.5,3.2,3.5c1,0.8,2,1.6,3.1,2.3c0.4,0.2,0.7,0.4,1.1,0.7l0.6,0.3l0.5,0.3l0.6,0.3l0.4,0.2l0.8,0.4l0.2,0.1l1,0.4
	c2.8,1.2,5.8,2,8.8,2.5c3.1,0.6,6.3,0.9,9.4,0.9c6.3,0.1,12.6-1.1,18.6-3.3l2.2-1c0.4-0.2,0.7-0.3,1-0.5l1-0.6
	c1.4-0.8,2.7-1.7,3.9-2.7c2.5-2,4.3-4.7,5.3-7.7C442.6,112.4,440.7,115,438.1,116.9z"/>
<path class="st16" d="M437.6,121.3c-1.2,1-2.5,1.8-3.8,2.5l-1,0.5c-0.3,0.2-0.7,0.4-1,0.5l-2.1,0.9c-2.9,1.1-5.8,1.9-8.9,2.4
	l-2.3,0.3l-2.3,0.2c-0.8,0.1-1.5,0.1-2.3,0.1s-1.5,0.1-2.3,0c-3.1,0-6.1-0.3-9.1-0.8c-0.8-0.2-1.5-0.3-2.3-0.4L398,127
	c-1.5-0.4-2.9-0.9-4.3-1.5l-1.1-0.4c-0.4-0.2-0.7-0.3-1-0.5l-1-0.5l-0.5-0.3l-0.5-0.3c-1.3-0.8-2.6-1.6-3.8-2.6
	c-1.2-1-2.2-2.1-3.1-3.3c-0.5-0.6-0.9-1.3-1.2-2c-0.3-0.7-0.6-1.4-0.8-2.2c0.2,0.8,0.4,1.5,0.8,2.2c0.3,0.7,0.7,1.4,1.1,2
	c0.9,1.3,1.9,2.4,3.1,3.5c1,0.9,2.1,1.6,3.2,2.3c0.4,0.2,0.8,0.5,1.1,0.7l0.6,0.3l0.5,0.2l0.6,0.3l0.4,0.2l0.8,0.4l0.2,0.1l1,0.4
	c2.7,1.1,5.6,1.9,8.5,2.4c3,0.6,6.1,0.9,9.2,0.9c6.2,0.1,12.4-1,18.2-3.2l2.1-1c0.3-0.2,0.7-0.3,1-0.5l1-0.6
	c1.4-0.7,2.6-1.6,3.8-2.6c2.4-1.9,4.2-4.6,5.2-7.5C442,116.8,440.1,119.4,437.6,121.3z"/>
<path class="st16" d="M437.1,125.8c-1.2,0.9-2.4,1.8-3.8,2.5l-1,0.5c-0.3,0.2-0.7,0.4-1,0.5l-2.1,0.9c-2.8,1-5.7,1.8-8.7,2.3
	l-2.2,0.3l-2.2,0.2c-0.8,0.1-1.5,0.1-2.2,0.1s-1.5,0.1-2.2,0c-3,0-6-0.3-9-0.8c-0.7-0.1-1.5-0.2-2.2-0.4l-2.2-0.6
	c-1.4-0.4-2.9-0.9-4.2-1.5l-1-0.4c-0.3-0.1-0.7-0.3-1-0.5l-1-0.5l-0.5-0.2L390,128c-1.3-0.7-2.5-1.6-3.7-2.6c-1.2-1-2.2-2-3.1-3.3
	c-0.4-0.6-0.8-1.3-1.2-1.9c-0.3-0.7-0.6-1.4-0.8-2.1c0.2,0.7,0.4,1.5,0.7,2.1c0.3,0.7,0.7,1.4,1.1,2c0.9,1.2,1.9,2.4,3,3.4
	c1,0.9,2.1,1.7,3.2,2.4c0.4,0.2,0.8,0.5,1.2,0.7l0.6,0.3l0.5,0.2l0.6,0.3l0.4,0.2l0.8,0.4l0.2,0.1l1,0.4c2.6,1.1,5.3,1.8,8.1,2.3
	c3,0.6,6,0.8,9,0.9c6.1,0.1,12.1-1,17.8-3.2l2.1-0.9c0.4-0.1,0.7-0.3,1-0.5l1-0.6c1.3-0.7,2.6-1.6,3.8-2.6c2.4-1.9,4.2-4.5,5.1-7.4
	C441.3,121.4,439.5,123.9,437.1,125.8z"/>
<path class="st16" d="M436.5,130.2c-1.1,0.9-2.4,1.7-3.7,2.4l-1,0.5c-0.3,0.2-0.7,0.3-1,0.5l-2,0.9c-2.8,1-5.6,1.8-8.5,2.3l-2.2,0.3
	l-2.2,0.2c-0.7,0.1-1.5,0.1-2.2,0.1s-1.5,0.1-2.2,0c-2.9,0-5.9-0.3-8.8-0.8c-0.7-0.1-1.5-0.2-2.2-0.4l-2.1-0.5
	c-1.4-0.4-2.8-0.9-4.2-1.4l-1-0.4c-0.3-0.1-0.7-0.3-1-0.5s-0.8-0.4-1-0.5l-0.5-0.2c-0.1-0.1-0.4-0.2-0.5-0.3
	c-1.3-0.7-2.5-1.6-3.6-2.5c-1.1-0.9-2.1-2-3-3.2c-0.4-0.6-0.8-1.2-1.1-1.9c-0.3-0.7-0.6-1.4-0.8-2.1c0.2,0.7,0.4,1.4,0.7,2.1
	c0.3,0.7,0.7,1.3,1.1,1.9c0.9,1.2,1.9,2.3,3,3.3c1,0.9,2.1,1.7,3.3,2.4c0.4,0.2,0.8,0.5,1.2,0.7l0.6,0.3l0.5,0.2
	c0.1,0.1,0.4,0.2,0.6,0.3l0.3,0.2l0.7,0.3l0.2,0.1l0.9,0.4c2.5,1,5.1,1.7,7.8,2.2c2.9,0.5,5.9,0.8,8.9,0.8c5.9,0.1,11.8-1,17.4-3.1
	l2-0.9c0.3-0.1,0.7-0.3,1-0.5l1-0.5c1.3-0.7,2.5-1.6,3.7-2.5c2.3-1.9,4.1-4.4,5-7.2C440.6,125.9,438.9,128.4,436.5,130.2z"/>
<path class="st16" d="M436,134.6c-1.1,0.9-2.3,1.7-3.6,2.4l-1,0.5c-0.3,0.2-0.7,0.3-1,0.5l-2,0.9c-2.7,1-5.5,1.8-8.3,2.2l-2.1,0.3
	l-2.1,0.2c-0.7,0.1-1.4,0.1-2.1,0.1s-1.4,0.1-2.2,0c-2.9,0-5.7-0.2-8.6-0.8c-0.7-0.1-1.4-0.2-2.1-0.4l-2.1-0.5
	c-1.4-0.4-2.7-0.9-4.1-1.4l-1-0.4l-1-0.5l-1-0.5l-0.5-0.2l-0.5-0.3c-1.2-0.7-2.4-1.5-3.5-2.4c-1.1-0.9-2.1-2-3-3.1
	c-0.4-0.6-0.8-1.2-1.1-1.8c-0.3-0.6-0.6-1.3-0.8-2c0.2,0.7,0.4,1.4,0.7,2c0.3,0.7,0.7,1.3,1.1,1.9c0.8,1.2,1.8,2.3,2.9,3.2
	c1.1,0.9,2.2,1.7,3.4,2.4c0.4,0.2,0.8,0.5,1.2,0.7l0.6,0.3l0.5,0.2c0.2,0.1,0.4,0.2,0.5,0.3l0.3,0.1l0.7,0.3l0.2,0.1l0.9,0.4
	c2.4,0.9,4.9,1.6,7.5,2.1c2.9,0.5,5.8,0.8,8.7,0.8c5.8,0.1,11.6-1,17.1-3.1l2-0.9c0.3-0.1,0.7-0.3,1-0.5l1-0.5
	c1.3-0.7,2.5-1.5,3.6-2.5c2.3-1.8,4-4.2,4.9-7C440,130.4,438.3,132.8,436,134.6z"/>
<path class="st16" d="M435.5,139c-1.1,0.9-2.3,1.7-3.5,2.3l-0.9,0.5c-0.3,0.2-0.6,0.3-1,0.5l-1.9,0.8c-2.6,1-5.4,1.7-8.1,2.2
	l-2.1,0.3l-2.1,0.2c-0.7,0.1-1.4,0.1-2.1,0.1s-1.4,0.1-2.1,0c-2.8,0-5.6-0.2-8.4-0.7c-0.7-0.1-1.4-0.2-2.1-0.4l-2-0.5
	c-1.3-0.4-2.7-0.8-4-1.4l-1-0.4c-0.3-0.1-0.6-0.3-1-0.5c-0.6-0.3-1.3-0.6-1.9-1c-1.2-0.7-2.4-1.5-3.5-2.4c-2.2-1.7-3.9-4.1-4.8-6.8
	c0.8,2.7,2.4,5.2,4.6,7c1.1,0.9,2.2,1.8,3.5,2.5c0.6,0.4,1.2,0.7,1.9,1c0.3,0.2,0.6,0.3,1,0.5l1,0.4c2.6,1.1,5.4,1.9,8.2,2.4
	c2.8,0.5,5.6,0.8,8.5,0.8c5.7,0.1,11.4-1,16.7-3l1.9-0.9c0.3-0.1,0.6-0.3,1-0.5l0.9-0.5c1.2-0.7,2.4-1.5,3.5-2.4
	c2.2-1.8,3.9-4.2,4.7-6.9C439.5,134.9,437.8,137.3,435.5,139z"/>
<path class="st4" d="M392.9,117l-1.1-0.4c-0.4-0.2-0.7-0.3-1.1-0.5l-1.1-0.5l-0.5-0.3l-0.5-0.3c-1.4-0.8-2.7-1.7-3.9-2.7
	c-1.2-1-2.3-2.2-3.3-3.5c-0.5-0.6-0.9-1.3-1.2-2c-0.4-0.7-0.6-1.5-0.9-2.2c0.2,0.8,0.5,1.5,0.8,2.3c0.3,0.7,0.7,1.4,1.2,2.1
	c0.9,1.3,2,2.5,3.2,3.6c0.9,0.8,1.9,1.6,3,2.2c0.4,0.2,0.7,0.4,1.1,0.7l0.5,0.3l0.5,0.3l0.6,0.3l0.4,0.2c0.2,0.1,0.6,0.3,0.9,0.4
	l0.2,0.1l1.1,0.5c1.7,0.7,3.4,1.3,5.1,1.8v-0.5l-0.5-0.1C395.8,118.2,394.3,117.6,392.9,117z"/>
<path class="st4" d="M381.8,113.3c0.9,1.3,2,2.5,3.2,3.5c1,0.8,2,1.6,3.1,2.3c0.4,0.2,0.7,0.4,1.1,0.7l0.6,0.3l0.5,0.3l0.6,0.3
	l0.4,0.2l0.8,0.4l0.2,0.1l1,0.4c1.5,0.6,3.1,1.2,4.7,1.6v-0.5l-0.4-0.1c-1.5-0.4-3-0.9-4.4-1.5l-1.1-0.4c-0.4-0.2-0.7-0.3-1-0.5
	l-1-0.5l-0.5-0.3l-0.5-0.3c-1.4-0.8-2.7-1.7-3.9-2.7c-1.2-1-2.3-2.1-3.2-3.4c-0.5-0.6-0.9-1.3-1.2-2c-0.3-0.7-0.6-1.4-0.9-2.2
	c0.2,0.8,0.4,1.5,0.8,2.2C381,111.9,381.4,112.6,381.8,113.3z"/>
<path class="st4" d="M378.6,99.8L378.6,99.8c0.2,0.8,0.5,1.6,0.8,2.3c0.4,0.7,0.8,1.5,1.2,2.1c0.9,1.4,2,2.6,3.3,3.7
	c1.2,1.1,2.6,2,4,2.9l0.5,0.3l0.5,0.3l1.1,0.6c0.4,0.2,0.7,0.4,1.1,0.6l1.1,0.5c1.8,0.8,3.6,1.4,5.5,1.9v-0.5l-0.7-0.2
	c-1.6-0.4-3.1-1-4.6-1.6l-1.1-0.4c-0.4-0.2-0.7-0.4-1.1-0.5l-1.1-0.5l-0.5-0.3l-0.5-0.3c-1.4-0.8-2.7-1.7-4-2.8
	c-1.3-1-2.4-2.2-3.3-3.6c-0.5-0.7-0.9-1.4-1.3-2.1C379.1,101.4,378.8,100.6,378.6,99.8z"/>
<path class="st4" d="M398.8,144.2c-1.2-0.4-2.5-0.8-3.7-1.3l-1-0.4c-0.3-0.1-0.6-0.3-1-0.5c-0.6-0.3-1.3-0.6-1.9-1
	c-1.2-0.7-2.4-1.5-3.5-2.4c-2.2-1.7-3.9-4.1-4.8-6.8c0.8,2.7,2.4,5.2,4.6,7c1.1,0.9,2.2,1.8,3.5,2.5c0.6,0.4,1.2,0.7,1.9,1
	c0.3,0.2,0.6,0.3,1,0.5l1,0.4c1.3,0.5,2.5,1,3.9,1.4L398.8,144.2z"/>
<path class="st4" d="M383.6,126.8c0.9,1.2,1.9,2.3,3,3.3c1,0.9,2.1,1.7,3.3,2.4c0.4,0.2,0.8,0.5,1.2,0.7l0.6,0.3l0.5,0.2
	c0.1,0.1,0.4,0.2,0.6,0.3l0.3,0.2l0.7,0.3l0.2,0.1l0.9,0.4c1.2,0.5,2.4,0.9,3.6,1.2v-0.5c-1.4-0.4-2.8-0.9-4.1-1.4l-1-0.4
	c-0.3-0.1-0.7-0.3-1-0.5s-0.8-0.4-1-0.5l-0.5-0.2c-0.1-0.1-0.4-0.2-0.5-0.3c-1.3-0.7-2.5-1.6-3.6-2.5c-1.1-0.9-2.1-2-3-3.2
	c-0.4-0.6-0.8-1.2-1.1-1.9c-0.3-0.7-0.6-1.4-0.8-2.1c0.2,0.7,0.4,1.4,0.7,2.1C382.9,125.5,383.2,126.1,383.6,126.8z"/>
<path class="st4" d="M384.2,131.2c0.8,1.2,1.8,2.3,2.9,3.2c1.1,0.9,2.2,1.7,3.4,2.4c0.4,0.2,0.8,0.5,1.2,0.7l0.6,0.3l0.5,0.2
	c0.2,0.1,0.4,0.2,0.5,0.3l0.3,0.1l0.7,0.3l0.2,0.1l0.9,0.4c1,0.4,2.1,0.8,3.2,1.1v-0.5c-1.3-0.4-2.6-0.8-3.9-1.4l-1-0.4l-1-0.5
	l-1-0.5l-0.5-0.2l-0.5-0.3c-1.2-0.7-2.4-1.5-3.5-2.4C386.2,133.4,385.2,132.3,384.2,131.2c-0.3-0.7-0.7-1.3-1-1.9
	c-0.3-0.6-0.6-1.3-0.8-2c0.2,0.7,0.4,1.4,0.7,2C383.4,130,383.8,130.6,384.2,131.2z"/>
<path class="st4" d="M383,122.3c0.9,1.2,1.9,2.4,3,3.4c1,0.9,2.1,1.7,3.2,2.4c0.4,0.2,0.8,0.5,1.2,0.7l0.6,0.3l0.5,0.2l0.6,0.3
	l0.4,0.2l0.8,0.4l0.2,0.1l1,0.4c1.3,0.5,2.6,1,4,1.4v-0.5h-0.1c-1.4-0.4-2.9-0.9-4.2-1.5l-1-0.4c-0.3-0.1-0.7-0.3-1-0.5l-1-0.5
	l-0.5-0.2L390,128c-1.3-0.7-2.5-1.6-3.7-2.6c-1.2-1-2.2-2-3.1-3.3c-0.4-0.6-0.8-1.3-1.2-1.9c-0.3-0.7-0.6-1.4-0.8-2.1
	c0.2,0.7,0.4,1.5,0.7,2.1C382.3,121,382.6,121.6,383,122.3z"/>
<path class="st4" d="M382.4,117.8c0.9,1.3,1.9,2.4,3.1,3.5c1,0.9,2.1,1.6,3.2,2.3c0.4,0.2,0.8,0.5,1.1,0.7l0.6,0.3l0.5,0.2l0.6,0.3
	l0.4,0.2l0.8,0.4l0.2,0.1l1,0.4c1.4,0.6,2.9,1.1,4.3,1.5v-0.5l-0.3-0.1c-1.5-0.4-2.9-0.9-4.3-1.5l-1.1-0.4c-0.4-0.2-0.7-0.3-1-0.5
	l-1-0.5l-0.5-0.3l-0.5-0.3c-1.3-0.8-2.6-1.6-3.8-2.6c-1.2-1-2.2-2.1-3.1-3.3c-0.5-0.6-0.9-1.3-1.2-2c-0.3-0.7-0.6-1.4-0.8-2.2
	c0.2,0.8,0.4,1.5,0.8,2.2C381.6,116.4,382,117.1,382.4,117.8z"/>
<linearGradient id="SVGID_7_" gradientUnits="userSpaceOnUse" x1="455.3088" y1="228.6172" x2="489.5694" y2="169.2862" gradientTransform="matrix(1 0 0 -1 0 350)">
	<stop  offset="0" style="stop-color:#000000;stop-opacity:0"/>
	<stop  offset="3.000000e-02" style="stop-color:#15223E;stop-opacity:3.000000e-02"/>
	<stop  offset="1" style="stop-color:#15223E"/>
</linearGradient>
<polygon class="st18" points="485.9,182.9 417.9,146.1 459.9,118.7 528,157.9 "/>
<g>
	<path class="st19" d="M543.6,153c-1.3,5.8-2.7,11.6-4,17.4c1.2-5.3-1.6-10.8-8.4-14.9c-11.9-7.2-31.6-7.4-44.1-0.4
		c-7.5,4.2-10.6,10-9.3,15.5l0,0c-1.3-5.8-2.7-11.5-4.1-17.3c-1.5-6.3,2-12.8,10.5-17.6c14-7.8,36.4-7.6,49.9,0.5
		C541.8,140.8,544.9,147.1,543.6,153z"/>
	<path class="st19" d="M529.7,182c-0.5,0.3-1.2,0.6-1.7,0.9s-1.5,0.7-2.2,1c-1.2,0.4-2.8,1-4,1.3c-0.7,0.2-1.6,0.4-2.3,0.6
		c-2.2,0.5-4.5,0.8-4.5,0.8c-0.7,0.1-1.6,0.2-2.3,0.2s-1.6,0.1-2.3,0.1s-1.6,0-2.3,0c-1.4,0-3.2-0.1-4.6-0.2
		c-0.7-0.1-1.6-0.2-2.2-0.3c-1.5-0.2-2.9-0.5-4.4-0.9c-0.7-0.2-1.5-0.4-2.2-0.6c-1.2-0.4-2.7-0.9-3.9-1.4c-0.6-0.2-1.4-0.6-2-0.9
		s-1.5-0.8-2.1-1.1c0.5,0.2,1.1,0.2,1.6-0.1c10.8,6.5,28.6,6.7,39.8,0.4s11.6-16.6,0.8-23.1s-28.6-6.7-39.8-0.4s-11.6,16.6-0.8,23.1
		c-0.5,0.3-1.1,0.4-1.6,0.1c-0.9-0.6-1.8-1.2-2.6-1.8c-0.4-0.3-0.8-0.7-1.2-1c-0.6-0.6-1.2-1.2-1.8-1.8c-0.2-0.3-0.5-0.7-0.8-1
		c-0.4-0.5-0.8-1.1-1.1-1.6c-0.2-0.4-0.6-1-0.8-1.5c-0.1-0.3-0.3-0.6-0.4-0.9s-0.3-0.9-0.4-1.4c-1.3-5.5,1.8-11.4,9.3-15.5
		c12.4-6.9,32.2-6.7,44.1,0.4c6.8,4.1,9.6,9.6,8.4,14.9c-0.2,0.6-0.4,1.3-0.6,1.9c-0.2,0.5-0.4,0.9-0.6,1.4c-0.2,0.4-0.6,1-0.8,1.4
		c-0.4,0.6-1,1.4-1.5,1.9c-0.5,0.6-1.1,1.2-1.7,1.7c-0.4,0.4-0.8,0.7-1.2,1C532,180.5,530.8,181.3,529.7,182z"/>
	<path class="st20" d="M486,182.8c-0.5-0.3-1-0.6-1.5-1c-0.8-0.6-1.9-1.4-2.6-2c-0.8-0.7-1.6-1.5-2.2-2.3c-0.4-0.5-1-1.3-1.3-1.9
		c-0.2-0.3-0.4-0.7-0.6-1c-0.3-0.5-0.5-1.1-0.7-1.6c-0.2-0.6-0.5-1.4-0.6-2.1c0.9,3.8,3.8,7.5,8.8,10.5
		C485.2,182,485.5,182.5,486,182.8z"/>
	
		<ellipse transform="matrix(1 -2.792512e-03 2.792512e-03 1 -0.473 1.4211)" class="st10" cx="508.7" cy="170.1" rx="28.2" ry="16.3"/>
	<path class="st20" d="M530.4,183.3c1.3-0.7,2.5-1.5,3.6-2.4c0.4-0.3,0.9-0.7,1.3-1.1c0.7-0.6,1.3-1.2,1.9-1.9
		c0.4-0.5,1-1.1,1.3-1.7c0.5-0.7,0.9-1.4,1.3-2.1c0.2-0.5,0.5-0.9,0.6-1.4c0.2-0.6,0.5-1.4,0.7-2.1c-1,4.1-4.2,8.1-9.8,11.1
		c-13,7.2-33.7,7.1-46.2-0.5c0.1,0.6,0.4,1.1,0.9,1.4c0.6,0.4,1.5,0.9,2.2,1.2s1.4,0.7,2.1,0.9c1.2,0.5,2.8,1.1,4,1.4
		c0.7,0.2,1.6,0.4,2.3,0.6c1.9,0.5,4.3,0.9,4.5,0.9c0.7,0.1,1.6,0.2,2.3,0.3c1.4,0.1,3.3,0.2,4.7,0.3c0.7,0,1.7,0,2.4,0
		s1.6-0.1,2.4-0.1s1.7-0.2,2.4-0.2s2.8-0.4,4.7-0.8c0.7-0.2,1.7-0.4,2.4-0.6c1.2-0.4,2.9-0.9,4.1-1.4c0.7-0.3,1.6-0.7,2.3-1
		S529.9,183.6,530.4,183.3z"/>
	<path class="st20" d="M476.3,170.9l-3.9-16.3c1,4.3,4.3,8.4,9.8,11.7l2.8,15.1C480.1,178.4,477.2,174.7,476.3,170.9z"/>
	<path class="st19" d="M544.8,154.4l-3.8,16.4c-1,4.1-4.2,8.1-9.8,11.1c-13,7.2-33.7,7.1-46.2-0.5l-2.8-15.1
		c14,8.4,37.1,8.6,51.6,0.5C540.1,163.4,543.8,159,544.8,154.4z"/>
	<path class="st20" d="M469.2,151.7v-1.2c0,5.7,3.7,11.3,11,15.7v1.2C472.9,163.1,469.2,157.4,469.2,151.7z"/>
	<path class="st20" d="M548,150.3v1.2c0,6-4,12-12.1,16.5c-15.7,8.8-40.6,8.5-55.7-0.6v-1.2c15,9.1,40,9.3,55.7,0.6
		C544,162.3,548,156.3,548,150.3z"/>
	<path class="st10" d="M480.2,166.2c-15.1-9.1-14.5-23.5,1.1-32.2s40.6-8.5,55.7,0.6s14.5,23.5-1.2,32.2S495.2,175.3,480.2,166.2z
		 M483.2,164.6c13.5,8.1,35.8,8.3,49.9,0.5s14.5-20.8,1-28.9s-35.8-8.3-49.9-0.5S469.7,156.5,483.2,164.6"/>
</g>
<linearGradient id="SVGID_8_" gradientUnits="userSpaceOnUse" x1="356.5166" y1="189.2022" x2="396.0934" y2="120.6478" gradientTransform="matrix(1 0 0 -1 0 350)">
	<stop  offset="0.23" style="stop-color:#000000;stop-opacity:0"/>
	<stop  offset="1" style="stop-color:#000000"/>
</linearGradient>
<polygon class="st21" points="378.8,233.5 302.3,192.1 367.5,157.2 450.3,198.1 "/>
<path class="st22" d="M470.6,182.6c-1.1-1.5-2.3-2.9-3.6-4.2c-0.9-0.8-2.3-1.9-3.3-2.6c-0.5-0.4-1.3-0.8-1.9-1.2l0,0
	c-9.6-5.7-20.4-7-27.7-7c-5-0.1-9.9,0.4-14.8,1.5c-4.6,1-9.1,2.6-13.3,4.9c-1.9,1-3.7,2.3-5.3,3.6c-1.8,1.5-3.3,3.1-4.6,5
	c-1.2,1.6-2,3.5-2.6,5.4c-0.2,0.7-0.4,1.5-0.5,2.3c-0.1,0.9-0.2,1.7-0.2,2.6c0,5.9,3.8,11.7,11.3,16.2c15.5,9.4,41.2,9.6,57.4,0.6
	c8.3-4.6,12.5-10.9,12.5-17.1C473.9,189,472.7,185.5,470.6,182.6z M458.6,204.8c-14.6,8.1-37.8,7.9-51.8-0.5
	c-6.8-4.1-10.2-9.4-10.2-14.6c0-5.6,3.8-11.2,11.3-15.4c14.6-8.1,37.8-7.9,51.8,0.5c6.8,4.1,10.2,9.4,10.2,14.6
	C469.9,195,466.1,200.6,458.6,204.8L458.6,204.8z"/>
<path class="st10" d="M465.9,203.1c-0.3,1.4-5.9,6.8-16.4,9.6c-10.7,2.8-20.8,1.1-21.4,0.3c-0.1-0.1-0.1-0.2,0-0.3
	c0.2-0.2,1.5-0.3,3.9-0.4c5.6-0.2,11.2-1,16.6-2.3c5.2-1.3,10.2-3.4,14.8-6.1c1.3-0.8,2.1-1.3,2.3-1.2S465.9,203,465.9,203.1"/>
<path class="st22" d="M459.7,174.8c-14-8.4-37.2-8.7-51.8-0.5c-7.5,4.2-11.3,9.8-11.3,15.4c0,5.3,3.4,10.5,10.2,14.6
	c14,8.4,37.2,8.7,51.8,0.5l0.2-0.1c2.8-1.4,5.3-3.4,7.4-5.9c2.3-2.6,3.7-5.9,3.7-9.4C469.9,184.2,466.5,178.9,459.7,174.8z M459,175
	c0,0-0.1,0-0.1,0l0,0C458.9,175,459,175,459,175L459,175z M458.9,175L458.9,175z M458.6,175L458.6,175h-0.1H458.6z M467.6,188.1
	c0,0.1,0,0.1,0,0.2c0,0.1,0,0.2,0,0.4s0,0.1,0,0.2s0,0.2,0,0.3v0.2l-0.1,0.3c0,0.1,0,0.1,0,0.2c0,0.1,0,0.2-0.1,0.3s0,0.1,0,0.2
	s-0.1,0.2-0.1,0.4s0,0.1,0,0.2s-0.1,0.4-0.2,0.5c0,0,0,0.1,0,0.1L467,192l-0.1,0.2c0,0.1-0.1,0.2-0.1,0.3l-0.1,0.2l-0.1,0.3
	l-0.1,0.2l-0.2,0.3c0,0.1-0.1,0.1-0.1,0.2c-0.1,0.1-0.1,0.2-0.2,0.3c0,0.1-0.1,0.1-0.1,0.2l-0.2,0.4l0,0c-0.3,0.5-0.7,1-1.2,1.6
	c-2.1,2.4-4.6,4.3-7.5,5.8c-5.2,2.8-10.8,4.5-16.7,5.1l-0.7,0.1h-0.3l-0.8,0.1h-0.2l-1,0.1h-0.2h-0.8h-0.3h-0.7h-0.3h-1h-2.3h-0.9h0
	h-1h-0.3h-0.7h-0.3l-0.8-0.1h-0.2l-1-0.1h-0.2l-0.7-0.1h-0.2l-0.9-0.1h-0.2l-1-0.2h-0.1H423l-0.7-0.1h-0.1l-0.4-0.1l-0.7-0.1
	l-0.4-0.1l-0.7-0.1l-0.4-0.1l-0.6-0.2l-0.4-0.1l-0.7-0.2l-0.4-0.1l-0.8-0.2l-0.2-0.1h-0.1l-0.8-0.3l-0.2-0.1h-0.1l-0.8-0.3l-0.4-0.1
	l-0.6-0.2l-0.4-0.2l-0.6-0.2l-0.4-0.2l-0.6-0.3l-0.4-0.2l-0.6-0.3l-0.4-0.2l-0.6-0.3l-0.2-0.1l-0.1-0.1l-0.8-0.5
	c-6.4-3.8-9.5-8.8-9.5-13.7v-0.2c0-0.1,0-0.2,0-0.3c0-0.3,0-0.6,0.1-0.9c0-0.2,0.1-0.4,0.1-0.6s0.1-0.4,0.1-0.5l0.1-0.5
	c0.1-0.3,0.2-0.6,0.3-0.8c0.1-0.2,0.2-0.5,0.4-1v-0.1l0.5-0.8c0.3-0.5,0.8-1.2,1.2-1.7l0.8-0.9l0.1-0.1c0.4-0.4,0.9-0.9,1.3-1.3
	l0.6-0.5l0.9-0.7c0.6-0.4,1.4-1,2-1.4l0,0l1.5-0.9l0.3-0.2c0.7-0.4,1.5-0.8,2.2-1.1l0.5-0.2c0.8-0.4,1.8-0.8,2.7-1.1
	c9.1-3.1,18.7-3.9,28.2-2.5l1.8,0.3l1.4,0.3l0.6,0.1c0.6,0.1,1.2,0.3,1.8,0.5l0.3,0.1c2.8,0.8,5.4,1.8,8,3.1l2,1.1
	c0.6,0.4,1.3,0.9,2,1.3c0.4,0.3,0.9,0.7,1.6,1.2l0.4,0.4c0.3,0.3,0.7,0.6,1,0.9s0.8,0.9,1.2,1.3s0.6,0.9,0.9,1.2s0.5,0.9,0.8,1.3
	c0,0.1,0.1,0.2,0.1,0.2l0,0l0.2,0.5c0.1,0.2,0.2,0.5,0.3,0.8s0.1,0.3,0.1,0.4v0.1c0,0.2,0.1,0.3,0.1,0.4l0.1,0.6
	c0,0.2,0.1,0.6,0.1,0.9s0,0.6,0.1,0.9l0,0C467.6,187.7,467.6,187.9,467.6,188.1L467.6,188.1z"/>
<path class="st10" d="M455.8,175.3c11.9,7.2,11.5,18.6-0.9,25.6s-32.2,6.7-44.1-0.4s-11.5-18.6,0.9-25.6S443.9,168.1,455.8,175.3z
	 M433.3,187.8C433.3,187.8,433.3,187.8,433.3,187.8 M433.2,187.9C433.3,187.9,433.3,187.9,433.2,187.9
	C433.3,187.9,433.3,187.9,433.2,187.9"/>
<path class="st23" d="M435.6,179.5L435.6,179.5 M435.6,179.5L435.6,179.5z"/>
<path class="st19" d="M424.5,185.6c-4.6-2.8-5.5-6.8-2.7-10.1l-0.5,0.3c-6.1,3.4-6.3,9-0.4,12.6s15.6,3.6,21.7,0.2
	c1.2-0.6,2.3-1.5,3.1-2.5C439.5,189.2,430.2,189.1,424.5,185.6z"/>
<path class="st23" d="M433.9,181.6L433.9,181.6L433.9,181.6L433.9,181.6z"/>
<path class="st19" d="M440.2,178.1c2.6,1.6,3.1,3.9,1.5,5.7l0.3-0.2c3.5-1.9,3.6-5.1,0.2-7.1c-3.9-2-8.4-2.1-12.3-0.1
	c-0.7,0.4-1.3,0.8-1.8,1.4C432,176,436.4,176.1,440.2,178.1z"/>
<path class="st24" d="M423.9,182.5C423.9,182.5,423.9,182.5,423.9,182.5C423.9,182.6,424,182.6,423.9,182.5
	C424,182.6,424,182.6,423.9,182.5L423.9,182.5z"/>
<path class="st19" d="M455.8,175.3c-1.8-1.1-3.8-2-5.8-2.7c8.1,7.1,6.6,16.8-4.5,23c-10.6,5.9-26.5,6.6-38.4,2.3
	c1.1,1,2.3,1.8,3.5,2.6c11.9,7.2,31.7,7.4,44.1,0.4S467.8,182.5,455.8,175.3z"/>
<path class="st20" d="M464.5,195.8l0.2-0.3l0.1-0.2l0.2-0.3l0.1-0.2l0.2-0.4l0.1-0.1l0.3-0.5l0.1-0.1l0.2-0.4l0.1-0.2l0.2-0.3
	l0.1-0.2l0.1-0.3l0.1-0.2c0-0.1,0.1-0.2,0.1-0.3c0-0.1,0.1-0.1,0.1-0.2c0-0.1,0.1-0.2,0.1-0.3s0-0.1,0.1-0.2l0.1-0.3l0.1-0.2
	c0-0.1,0-0.2,0.1-0.3c0-0.1,0-0.1,0-0.2c0-0.1,0-0.2,0.1-0.3s0-0.1,0-0.2s0-0.2,0-0.3c0-0.1,0-0.1,0-0.2c0-0.1,0-0.2,0-0.3
	c0-0.1,0-0.1,0-0.2v-0.4v-0.1l0,0c0-0.2,0-0.3,0-0.5l0,0l0,0v-5.9c0,0.2,0,0.4,0,0.6c-0.2,3.1-1.4,6-3.5,8.2c-2,2.2-4.3,4.1-6.9,5.6
	c-5.2,2.7-10.8,4.5-16.6,5.1c-4.9,0.6-9.8,0.6-14.7,0c-6.1-0.7-12-2.6-17.3-5.6c-6.4-3.8-9.5-8.8-9.5-13.7v5.9v0.2
	c0,0.1,0,0.2,0,0.2c0,0.1,0,0.2,0,0.2s0,0.2,0,0.2c0,0.1,0,0.2,0,0.2c0,0.1,0,0.1,0,0.2c0,0.1,0,0.2,0,0.2v0.2c0,0.1,0,0.1,0,0.2
	c0,0.1,0,0.2,0,0.2l0.1,0.2c0,0.1,0,0.2,0,0.2l0.1,0.2l0.1,0.2c0,0.1,0,0.1,0.1,0.2c0,0.1,0,0.1,0.1,0.2c0,0.1,0,0.2,0.1,0.2
	c0,0.1,0,0.1,0.1,0.2l0.1,0.2c0,0.1,0,0.1,0.1,0.2c0,0.1,0.1,0.2,0.1,0.2c0,0.1,0.1,0.1,0.1,0.2l0.1,0.2c0,0.1,0.1,0.1,0.1,0.2
	l0.1,0.2l0.1,0.2c0,0.1,0.1,0.2,0.1,0.2l0.1,0.2c0,0.1,0.1,0.1,0.1,0.2c0,0.1,0.1,0.1,0.1,0.2l0.1,0.2c0,0.1,0.1,0.1,0.1,0.2
	l0.2,0.2l0.1,0.2c0.1,0.1,0.1,0.1,0.2,0.2l0.2,0.2l0.2,0.2l0.2,0.2c0.1,0.1,0.1,0.1,0.2,0.2s0.1,0.1,0.2,0.2
	c0.1,0.1,0.1,0.2,0.2,0.2l0.2,0.2l0.2,0.2l0.2,0.2l0.2,0.2l0.2,0.2l0.2,0.2l0.2,0.2l0.2,0.2l0.2,0.2l0.2,0.2l0.2,0.2l0.3,0.2
	l0.2,0.2c0.1,0.1,0.2,0.1,0.3,0.2l0.2,0.2l0.3,0.2l0.2,0.2l0.3,0.2l0.2,0.1l0.4,0.3l0.1,0.1l0.6,0.4l0.8,0.5l0.2,0.1l0.8,0.4h0.1
	c0.3,0.1,0.6,0.3,0.9,0.4l0.2,0.1l0.8,0.4h0.1l0.9,0.4l0.2,0.1l0.8,0.3l0.1,0.1l0.9,0.3l0.2,0.1l0.8,0.3l0.2,0.1
	c0.3,0.1,0.6,0.2,1,0.3l0.2,0.1l0.8,0.2l0.2,0.1l1,0.2l0.2,0.1l0.9,0.2l0.2,0.1l1,0.2h0.2l0.9,0.2h0.2l1,0.2h0.2l0.9,0.1h0.2h0.1
	l0.5,0.1h0.3l0.6,0.1h0.2l0.9,0.1h0.2h0.6h0.3h0.5h0.4h0.5h3h0.6h0.6h0.9h0.1h0.7h0.3h0.6h0.4l0.5-0.1h0.4l0.5-0.1h0.4l0.5-0.1h0.2
	h0.1l1-0.1h0l1-0.1l0.3-0.1l0.8-0.1h0.2l1-0.2l0.2-0.1l0.8-0.2l0.3-0.1l1-0.2l0,0l0.9-0.2l0.3-0.1l0.8-0.2l0.2-0.1l0.9-0.3l0.2-0.1
	l0.7-0.2l0.2-0.1l0.9-0.3l0,0l0.9-0.4l0.2-0.1l0.7-0.3l0.2-0.1l0.9-0.4l0.2-0.1l0.7-0.3l0.2-0.1l0.8-0.3l0.6-0.4l0.2-0.1l0.4-0.2
	l0.2-0.1l0.4-0.2l0.2-0.1l0.4-0.2l0.2-0.1l0.4-0.3l0.1-0.1l0.5-0.4l0.1-0.1l0.4-0.3l0.2-0.1l0.3-0.2l0.2-0.1l0.3-0.2l0.2-0.1
	l0.3-0.3l0.1-0.1l0.3-0.3l0.1-0.1l0.4-0.4l0.1-0.1c0.1-0.1,0.2-0.2,0.3-0.3l0.1-0.1c0-0.1,0.1-0.1,0.1-0.2l0.1-0.1l0.2-0.3
	L464.5,195.8z"/>
<path class="st22" d="M468,177.6c-0.8-1.5-1.8-3-3-4.2c-0.8-0.9-1.7-1.7-2.7-2.5c-0.9-0.7-2.2-1.5-3.1-2.2c-2.2-1.3-4.5-2.4-6.9-3.2
	c-1.5-0.5-3.4-1.1-4.9-1.5c-1.7-0.4-3.5-0.8-5.2-1c-3.6-0.5-7.3-0.7-10.9-0.6c-3.6,0.1-7.3,0.6-10.8,1.4c-5.1,1.1-10,3.1-14.4,5.9
	c-5,3.4-7.1,6.9-8,9.2c-0.6,1.6-1,3.4-0.9,5.1c0.1,1.8,0.5,3.6,1.3,5.3c0.9,2,2.2,3.7,3.8,5.2c1.5,1.5,3.3,2.8,5.1,3.9
	c2.2,1.3,4.5,2.4,6.9,3.2c1.5,0.5,3.4,1.1,4.9,1.5s3.6,0.8,5.2,1c3.6,0.5,7.3,0.7,10.9,0.6c3.7-0.1,7.3-0.6,10.9-1.4
	c5.1-1.1,10-3.1,14.4-5.9c5-3.4,7.1-6.9,8-9.2C469.8,184.8,469.7,180.9,468,177.6z M408.5,196.9c-13.1-7.9-12.7-20.5,1-28.1
	s35.5-7.4,48.6,0.5s12.7,20.5-1,28.1S421.6,204.8,408.5,196.9L408.5,196.9z"/>
<path class="st10" d="M463.1,194.8c-3.6,4.1-17.4,11-34.5,9.1c0.5,0,0.9,0,1.4,0c6,0.2,11.9-0.4,17.7-1.8c5.6-1.3,10.9-3.9,15.5-7.4
	C463.2,194.7,463.1,194.7,463.1,194.8"/>
<path class="st22" d="M469.3,180.3c0-0.7-0.2-1.5-0.4-2.2c-0.3-1.1-0.7-2.1-1.2-3c-0.8-1.5-1.7-2.8-2.9-4c-0.7-0.7-1.8-1.7-2.6-2.3
	s-2.2-1.6-3.2-2.2c-2.2-1.3-4.5-2.4-6.9-3.2c-1.5-0.5-3.4-1.1-4.9-1.5c-1.7-0.4-3.5-0.8-5.2-1c-3.6-0.5-7.3-0.7-10.9-0.6
	c-3.6,0.1-7.3,0.6-10.8,1.4c-5.1,1.1-9.9,3-14.3,5.9c-1.7,1.1-3.3,2.5-4.7,4c-1.4,1.5-2.5,3.3-3.3,5.2c-1.4,3.5-1.2,7.3,0.5,10.7
	c1,1.9,2.2,3.6,3.8,5.1c1.5,1.5,3.2,2.7,5,3.8c2.2,1.3,4.5,2.4,6.9,3.2c1.5,0.5,3.4,1.1,4.9,1.5c1.7,0.4,3.5,0.8,5.2,1
	c3.6,0.5,7.3,0.7,10.9,0.6c3.7-0.1,7.3-0.6,10.9-1.4c5.1-1.1,10-3,14.4-5.9c5-3.4,7.1-6.8,8-9.1
	C469.1,184.2,469.4,182.2,469.3,180.3z M457,195c-13.7,7.6-35.4,7.4-48.5-0.5s-12.7-20.5,1-28.1s35.4-7.4,48.5,0.5
	S470.7,187.4,457,195z"/>
<path class="st10" d="M463,192.4c-6.8,7.1-24.2,10.7-34.5,9c14.8,0,23.3-1.3,34.7-9.2L463,192.4"/>
<path class="st4" d="M474,220.4c0,0.2,0,0.4,0,0.5v0.1c0,0.2,0,0.3,0,0.5v0.1l-0.1,0.5v0.1c0,0.2,0,0.3-0.1,0.5v0.1
	c0,0.2-0.1,0.3-0.1,0.5v0.1c0,0.2-0.1,0.4-0.1,0.5l0,0c0,0.2-0.1,0.4-0.1,0.5l0,0c0,0.2-0.1,0.4-0.2,0.5v0.1l-0.2,0.5v0.1l-0.2,0.5
	v0.1c-0.1,0.2-0.1,0.3-0.2,0.5v0.1c-0.1,0.2-0.2,0.3-0.2,0.5l0,0c-0.1,0.2-0.2,0.4-0.3,0.5l0,0c-0.1,0.2-0.2,0.4-0.3,0.5l0,0
	c-0.1,0.2-0.2,0.3-0.3,0.5v0.1l-0.3,0.5l-0.1,0.1c-0.1,0.2-0.2,0.3-0.4,0.5l-0.1,0.1c-0.1,0.2-0.2,0.3-0.4,0.5l0,0.1
	c-0.1,0.1-0.2,0.2-0.3,0.4l-0.2,0.2l-0.3,0.4l-0.1,0.1c-0.1,0.2-0.3,0.3-0.5,0.5l-0.1,0.1l-0.4,0.4l-0.2,0.2l-0.3,0.3l-0.2,0.2
	l-0.3,0.3l-0.2,0.2l-0.4,0.3l-0.2,0.2l-0.5,0.4l-0.1,0.1l-0.6,0.4l-0.2,0.1l-0.5,0.3l-0.2,0.2l-0.4,0.3l-0.2,0.2l-0.4,0.3l-0.3,0.2
	l-0.5,0.3l-0.2,0.1l-0.7,0.4l-1,0.5l-0.3,0.1l-0.8,0.4l-0.2,0.1l-1,0.5l-0.2,0.1l-0.8,0.4l-0.3,0.1l-1,0.4l0,0l-1.1,0.4l-0.3,0.1
	l-0.9,0.3l-0.2,0.1l-1.1,0.3l-0.2,0.1l-0.9,0.3l-0.3,0.1l-1.1,0.3l0,0l-1.1,0.3l-0.3,0.1l-0.9,0.2l-0.3,0.1l-1.2,0.2H446l-1,0.2
	l-0.3,0.1l-1.1,0.2h-0.1l-1.2,0.2l-0.4,0.1l-0.6,0.1l-0.4,0.1l-0.6,0.1h-0.4l-0.6,0.1h-0.4h-0.7h-0.4h-0.9h-0.1h-1h-3.5h-0.6h-0.4
	h-0.6h-0.4h-0.6h-0.4l-0.8-0.1h-0.3l-1-0.1h-0.2l-0.8-0.1h-0.4l-0.6-0.1l-0.7-0.1h-0.1l-0.9-0.1h-0.2l-0.6-0.1h-0.2l-0.8-0.1l0,0
	l-0.8-0.1h-0.2l-0.6-0.1l-0.2-0.1l-0.8-0.2h-0.1l-0.7-0.2l-0.2-0.1l-0.6-0.2l-0.2-0.1l-0.8-0.2h-0.1l-0.7-0.2l-0.2-0.1l-0.6-0.2
	l-0.2-0.1l-0.8-0.2l-0.2-0.1l-0.6-0.2l-0.2-0.1l-0.6-0.2l-0.2-0.1l-0.7-0.3l-0.2-0.1l-0.6-0.2l-0.2-0.1l-0.6-0.3l-0.1-0.1l-0.7-0.3
	l-0.2-0.1l-0.5-0.2l-0.2-0.1l-0.6-0.3h-0.1l-0.7-0.4l-0.2-0.1l-0.5-0.3l-0.2-0.1l-0.7-0.4c-7.5-4.5-11.3-10.4-11.3-16.2v1.6
	c0,5.9,3.8,11.7,11.3,16.2l0.7,0.4l0.2,0.1l0.5,0.3l0.2,0.1c0.2,0.1,0.5,0.2,0.7,0.4h0.1l0.6,0.3l0.2,0.1l0.5,0.3l0.2,0.1l0.7,0.3
	l0.1,0.1l0.6,0.3l0.2,0.1l0.6,0.2l0.2,0.1l0.8,0.3l0.2,0.1l0.6,0.2l0.2,0.1l0.6,0.2l0.2,0.1l0.8,0.3l0.2,0.1l0.6,0.2l0.2,0.1
	l0.7,0.2h0.1l0.8,0.2l0.2,0.1l0.6,0.1l0.2,0.1l0.7,0.2h0.1l0.8,0.2l0.2,0.1l0.6,0.1l0.2,0.1l0.8,0.2l0,0l0.8,0.1h0.2l0.6,0.1h0.2
	l0.9,0.1h0.1l0.6,0.1h0.1l0.6,0.1l0.4,0.1l0.8,0.1h0.2l1,0.1h0.3l0.8,0.1h0.4h0.6h0.4h0.6h3.6h0.7h0.3h1h0.1h0.9h0.4l0.7-0.1h0.4
	h0.6h0.4l0.6-0.1h0.4l0.6-0.1h0.3h0.1l1.2-0.2h0.1l1.1-0.2l0.3-0.1l1-0.2l0.2-0.1l1.2-0.2l0.3-0.1l0.9-0.2l0.3-0.1l1.1-0.3l0,0
	l1.1-0.3l0.3-0.1l0.9-0.3l0.2-0.1l1.1-0.4l0.2-0.1l0.9-0.3l0.3-0.1l1.1-0.4l0,0l1-0.4l0.3-0.1l0.8-0.4l0.2-0.1l1-0.5l0.2-0.1
	l0.8-0.4l0.3-0.1l1-0.5l0.7-0.4l0.2-0.1l0.5-0.3l0.2-0.2l0.4-0.3l0.2-0.2l0.4-0.3l0.2-0.2l0.5-0.3l0.2-0.1l0.6-0.4l0.1-0.1l0.5-0.4
	c0.1-0.1,0.1-0.1,0.2-0.2l0.4-0.3l0.2-0.2l0.3-0.3l0.2-0.2l0.3-0.3l0.2-0.2l0.4-0.4l0.1-0.1l0.5-0.5l0.1-0.1l0.3-0.4l0.2-0.2
	l0.2-0.2l0.1-0.2l0-0.1l0.4-0.5l0-0.1l0.4-0.5l0.1-0.1l0.3-0.5l0-0.1c0.1-0.2,0.2-0.3,0.3-0.5v-0.1l0.3-0.5l0,0l0.3-0.5v-0.1
	c0.1-0.2,0.2-0.3,0.2-0.5v-0.1c0.1-0.2,0.2-0.3,0.2-0.5v-0.1c0.1-0.2,0.1-0.3,0.2-0.5v-0.1l0.2-0.5v-0.1c0.1-0.2,0.1-0.4,0.2-0.5
	l0,0c0-0.2,0.1-0.4,0.1-0.5l0,0l0.1-0.5v-0.1c0-0.2,0.1-0.4,0.1-0.5v-0.1c0-0.2,0.1-0.3,0.1-0.5v-0.1c0-0.2,0-0.3,0-0.5v-0.1v-0.5
	v-0.1c0-0.2,0-0.4,0-0.5l0,0L474,220.4z"/>
<path class="st20" d="M473.9,192.7c0,0.2,0,0.4,0,0.5v0.1c0,0.2,0,0.3,0,0.5v0.1c0,0.2,0,0.3,0,0.5v0.1c0,0.2,0,0.3-0.1,0.5v0
	c0,0.2-0.1,0.3-0.1,0.5v0.1c0,0.2-0.1,0.4-0.1,0.5l0,0c0,0.2-0.1,0.4-0.1,0.5v0.1c0,0.2-0.1,0.3-0.2,0.5v0.1c0,0.2-0.1,0.3-0.2,0.5
	v0.1c-0.1,0.2-0.1,0.3-0.2,0.5v0.1c-0.1,0.2-0.1,0.3-0.2,0.5v0.1c-0.1,0.2-0.2,0.3-0.3,0.5l0,0c-0.1,0.2-0.2,0.4-0.3,0.5l0,0
	c-0.1,0.2-0.2,0.3-0.3,0.5v0.1c-0.1,0.2-0.2,0.3-0.3,0.5v0.1l-0.3,0.5l-0.1,0.1l-0.4,0.5l-0.1,0.1l-0.4,0.5l0,0.1l-0.3,0.4l-0.2,0.2
	c-0.1,0.1-0.2,0.2-0.3,0.4c0,0.1-0.1,0.1-0.1,0.1c-0.1,0.2-0.3,0.3-0.5,0.5l-0.1,0.1l-0.4,0.4l-0.2,0.2l-0.3,0.3l-0.2,0.2l-0.3,0.3
	l-0.2,0.2l-0.4,0.3l-0.2,0.2l-0.5,0.4l-0.1,0.1l-0.6,0.4l-0.2,0.1l-0.5,0.3l-0.2,0.2l-0.4,0.3l-0.2,0.2l-0.4,0.3l-0.2,0.2l-0.5,0.3
	l-0.2,0.1l-0.7,0.4l-1,0.5l-0.3,0.1l-0.8,0.4l-0.2,0.1l-1,0.5l-0.2,0.1l-0.8,0.4l-0.3,0.1l-1,0.4l0,0l-1.1,0.4l-0.3,0.1l-0.9,0.3
	l-0.2,0.1l-1.1,0.4l-0.2,0.1l-0.9,0.3l-0.3,0.1l-1.1,0.3l0,0l-1.1,0.3l-0.3,0.1l-0.9,0.2l-0.3,0.1l-1.2,0.2H446l-1,0.2l-0.3,0.1
	l-1.1,0.2h-0.1l-1.2,0.2h-0.4l-0.6,0.1h-0.4l-0.6,0.1h-0.4l-0.6,0.1h-0.4h-0.7h-0.4l-0.9,0.1h-0.1h-1H435h-0.7h-3.1h-0.4h-0.6h-0.4
	H429h-0.4h-0.8h-0.2l-1-0.1h-0.3l-0.8-0.1h-0.4l-0.6-0.1l-0.7-0.1h-0.1l-0.9-0.1h-0.2l-0.6-0.1h-0.2l-0.8-0.1l0,0l-0.8-0.2h-0.2
	l-0.6-0.1H419l-0.8-0.2h-0.1l-0.7-0.2l-0.2-0.1l-0.6-0.2l-0.2-0.1l-0.8-0.2h-0.1l-0.7-0.2l-0.2-0.1l-0.6-0.2l-0.2-0.1l-0.8-0.2
	l-0.2-0.1l-0.6-0.2l-0.2-0.1l-0.6-0.2l-0.2-0.1l-0.8-0.3l-0.2-0.1l-0.6-0.2l-0.2-0.1l-0.6-0.3l-0.1-0.1l-0.7-0.3l-0.2-0.1l-0.5-0.3
	l-0.2-0.1l-0.6-0.3h-0.1l-0.7-0.4l-0.2-0.1l-0.5-0.3l-0.2-0.1c-0.2-0.1-0.5-0.2-0.7-0.4c-7.5-4.5-11.3-10.4-11.3-16.2l0.1,27.7
	c0,5.8,3.8,11.7,11.3,16.2l0.7,0.4l0.2,0.1l0.5,0.3l0.2,0.1l0.7,0.4h0.1l0.6,0.3l0.2,0.1l0.5,0.2l0.2,0.1l0.7,0.3l0.1,0.1l0.6,0.3
	l0.2,0.1l0.6,0.2l0.2,0.1l0.7,0.3l0.2,0.1l0.6,0.2l0.2,0.1l0.6,0.2l0.2,0.1l0.8,0.2l0.2,0.1l0.6,0.2l0.2,0.1l0.7,0.2h0.1l0.8,0.2
	l0.2,0.1l0.6,0.2l0.2,0.1l0.7,0.2h0.1l0.8,0.2l0.2,0.1l0.6,0.1h0.2l0.8,0.1l0,0l0.8,0.1h0.2l0.6,0.1h0.2l0.9,0.1h0.1l0.6,0.1h0.1
	l0.6,0.1h0.4l0.8,0.1h0.2l1,0.1h0.3l0.8,0.1h0.4h0.6h0.4h0.6h0.4h0.6h3.5h1h0.1h0.9h0.4h0.7h0.4l0.6-0.1h0.4l0.6-0.1l0.4-0.1
	l0.6-0.1h0.3h0.1l1.2-0.2h0.1l1.1-0.2l0.3-0.1l1-0.2h0.2l1.2-0.2l0.3-0.1l0.9-0.2l0.3-0.1l1.1-0.3l0,0l1.1-0.3l0.3-0.1l0.9-0.3
	l0.2-0.1l1.1-0.3l0.2-0.1l0.9-0.3l0.3-0.1l1.1-0.4l0,0l1-0.4l0.3-0.1l0.8-0.4l0.2-0.1l1-0.5l0.2-0.1l0.8-0.4l0.3-0.1l1-0.5l0.7-0.4
	l0.2-0.1l0.5-0.3l0.3-0.2l0.4-0.3l0.2-0.2l0.4-0.3l0.2-0.2l0.5-0.3l0.2-0.1l0.6-0.4l0.1-0.1l0.5-0.4l0.2-0.2l0.4-0.3l0.2-0.2
	l0.3-0.3l0.2-0.2l0.3-0.3l0.2-0.2l0.4-0.4l0.1-0.1c0.1-0.2,0.3-0.3,0.5-0.5l0.1-0.1l0.3-0.4l0.2-0.2l0.2-0.2l0.1-0.2l0-0.1
	c0.1-0.2,0.3-0.3,0.4-0.5l0.1-0.1c0.1-0.1,0.2-0.3,0.4-0.5l0.1-0.1l0.3-0.5v-0.1c0.1-0.2,0.2-0.3,0.3-0.5l0,0
	c0.1-0.2,0.2-0.3,0.3-0.5l0,0c0.1-0.2,0.2-0.3,0.3-0.5l0,0c0.1-0.2,0.2-0.3,0.2-0.5v-0.1c0.1-0.2,0.1-0.3,0.2-0.5v-0.1l0.2-0.5v-0.1
	l0.2-0.5V225c0-0.2,0.1-0.3,0.2-0.5l0,0c0.1-0.2,0.1-0.4,0.1-0.5l0,0c0-0.2,0.1-0.4,0.1-0.5v-0.1c0-0.2,0.1-0.3,0.1-0.5v-0.1
	c0-0.2,0-0.3,0.1-0.5v-0.1l0.1-0.5v-0.1v-0.5v-0.1c0-0.2,0-0.4,0-0.5L473.9,192.7z"/>
<path class="st4" d="M416.1,214.1l-0.6-0.2h-0.1l-0.7-0.2l-0.2-0.1l-0.6-0.2l-0.2-0.1l-0.8-0.2l-0.2-0.1l-0.6-0.2l-0.2-0.1l-0.6-0.2
	l-0.2-0.1l-0.8-0.3l-0.2-0.1l-0.6-0.2l-0.2-0.1l-0.6-0.3l-0.1-0.1l-0.7-0.3l-0.2-0.1l-0.5-0.3l-0.2-0.1l-0.6-0.3h-0.1l-0.7-0.4
	l-0.2-0.1l-0.5-0.3l-0.2-0.1c-0.2-0.1-0.5-0.2-0.7-0.4c-7.5-4.5-11.3-10.4-11.3-16.2l0.1,27.7c0,5.8,3.8,11.7,11.3,16.2l0.7,0.4
	l0.2,0.1l0.5,0.3l0.2,0.1l0.7,0.4h0.1l0.6,0.3l0.2,0.1l0.5,0.2l0.2,0.1l0.7,0.3l0.1,0.1l0.6,0.3l0.2,0.1l0.6,0.2l0.2,0.1l0.7,0.3
	l0.2,0.1l0.6,0.2l0.2,0.1l0.6,0.2l0.2,0.1l0.8,0.2l0.2,0.1l0.6,0.2l0.2,0.1l0.7,0.2h0.1l0.5,0.1V214.1z"/>
<path class="st22" d="M467.6,178.1c0,0.2,0,0.4,0,0.5s0,0.1,0,0.2s0,0.2,0,0.3v0.2v0.3v0.2c0,0.1,0,0.2,0,0.3s0,0.1,0,0.2l-0.1,0.3
	c0,0.1,0,0.1,0,0.2s0,0.2-0.1,0.3c0,0.1,0,0.1-0.1,0.2c0,0.1,0,0.2-0.1,0.3c0,0.1,0,0.1-0.1,0.2l-0.1,0.3c0,0.1,0,0.1-0.1,0.2
	l-0.1,0.3c0,0.1,0,0.1-0.1,0.2c0,0.1-0.1,0.2-0.1,0.3s0,0.1-0.1,0.2s-0.1,0.2-0.2,0.3s0,0.1-0.1,0.2l-0.3,0.5v0.1l-0.3,0.4l-0.1,0.2
	c-0.1,0.1-0.1,0.2-0.2,0.3l-0.1,0.2c-0.1,0.1-0.1,0.2-0.2,0.3l-0.1,0.2l-0.2,0.3l-0.2,0.2l-0.2,0.3l-0.2,0.2l-0.1,0.2l-0.3,0.3
	l-0.1,0.1c-0.1,0.1-0.3,0.3-0.4,0.4l-0.1,0.1l-0.4,0.4l-0.1,0.1l-0.3,0.3L462,189l-0.3,0.2l-0.2,0.1l-0.3,0.3l-0.2,0.1l-0.4,0.3
	l-0.1,0.1l-0.5,0.4l-0.1,0.1l-0.4,0.3l-0.2,0.1l-0.4,0.2c-0.1,0.1-0.1,0.1-0.2,0.1l-0.4,0.2l-0.2,0.1l-0.4,0.2l-0.2,0.1l-0.6,0.4
	c-0.3,0.1-0.5,0.3-0.8,0.4l-0.2,0.1l-0.7,0.3l-0.2,0.1l-0.8,0.4l-0.2,0.1l-0.7,0.3l-0.2,0.1l-0.9,0.4l0,0l-0.9,0.3l-0.2,0.1
	l-0.7,0.2l-0.2,0.1l-0.9,0.3l-0.2,0.1l-0.8,0.2l-0.3,0.1l-0.9,0.2l0,0c-0.3,0.1-0.6,0.2-1,0.2l-0.3,0.1l-0.8,0.2h-0.2l-1,0.2h-0.2
	l-0.8,0.1l-0.3,0.1l-1,0.1h-0.1l-1,0.1h-0.3l-0.5,0.1h-0.4h-0.5h-0.4l-0.5,0.1h-0.3H437h-0.3H436h-0.1H435h-0.3h-0.6h-3h-0.5h-0.4
	h-0.5h-0.3h-0.7h-0.2l-0.9-0.1h-0.2l-0.6-0.1h-0.3l-0.5-0.1h-0.3l-0.9-0.1h-0.2l-1-0.2h-0.2l-0.9-0.2h-0.2l-1-0.2l-0.2-0.1l-0.9-0.2
	l-0.2-0.1l-1-0.2l-0.2-0.1l-0.8-0.2l-0.2-0.1c-0.3-0.1-0.6-0.2-1-0.3h-0.2l-0.8-0.3l-0.2-0.1l-0.9-0.3h-0.1l-0.8-0.3l-0.2-0.1
	l-0.9-0.4h-0.1l-0.8-0.4l-0.2-0.1l-0.9-0.4h0c-0.3-0.1-0.5-0.3-0.8-0.4l-0.2-0.1l-0.8-0.5c-6.4-3.8-9.5-8.8-9.5-13.7v2.5
	c0,4.9,3.2,9.9,9.5,13.7c0.3,0.2,0.5,0.3,0.8,0.5l0.2,0.1l0.8,0.4l0,0l0.9,0.4l0.2,0.1l0.8,0.4l0.1,0.1l0.9,0.4l0.2,0.1l0.8,0.3h0.1
	l0.9,0.3l0.2,0.1l0.8,0.3h0.2l1,0.3l0.2,0.1l0.8,0.2l0.2,0.1l1,0.3l0.2,0.1l0.9,0.2l0.2,0.1l1,0.2l0.2,0.1l0.9,0.2h0.2l1,0.2h0.2
	l0.9,0.1h0.2h0.1l0.5,0.1h0.3l0.6,0.1h0.2l0.9,0.1h0.2l0.6,0.1h0.3h0.6h0.4h0.5h0.4h3.6h0.9h0.1h0.8h0.3h0.6h0.3l0.5-0.1h0.4h0.5
	h0.4l0.5-0.1h0.2h0.1l1-0.1h0c0.3,0,0.6-0.1,1-0.1h0.3l0.8-0.1h0.2l1-0.2h0.2l0.8-0.2l0.3-0.1l1-0.2l0,0l0.9-0.2l0.3-0.1l0.8-0.2
	l0.2-0.1l0.9-0.3l0.2-0.1l0.7-0.2l0.2-0.1l0.9-0.3l0,0l0.9-0.4l0.2-0.1l0.7-0.3l0.2-0.1l0.8-0.4l0.2-0.1l0.7-0.3l0.2-0.1l0.8-0.6
	l0.6-0.3l0.2-0.1l0.4-0.2l0.2-0.1l0.4-0.2l0.2-0.1l0.4-0.2l0.2-0.1l0.4-0.3l0.1-0.1l0.5-0.4l0.1-0.1l0.4-0.3l0.2-0.1l0.3-0.3
	l0.2-0.1l0.3-0.2l0.2-0.1l0.3-0.3l0.1-0.1l0.4-0.3l0.1-0.1c0.1-0.1,0.3-0.3,0.4-0.4l0.1-0.1l0.3-0.3l0.1-0.1c0-0.1,0.1-0.1,0.1-0.2
	l0.1-0.1l0.2-0.3l0.2-0.2l0.2-0.3l0.1-0.2l0.2-0.3l0.1-0.2l0.2-0.3l0.1-0.2c0.1-0.1,0.2-0.3,0.2-0.4v-0.1l0.3-0.5l0.1-0.1l0.2-0.3
	l0.1-0.2l0.1-0.3l0.1-0.2l0.1-0.3c0-0.1,0-0.1,0.1-0.2c0-0.1,0.1-0.2,0.1-0.3s0-0.1,0.1-0.2s0-0.2,0.1-0.3l0.1-0.2
	c0-0.1,0.1-0.2,0.1-0.3l0.1-0.2l0.1-0.3c0-0.1,0-0.2,0-0.2c0-0.1,0-0.2,0-0.3c0-0.1,0-0.1,0-0.2v-0.3c0-0.1,0-0.1,0-0.2
	c0-0.1,0-0.2,0-0.3c0-0.1,0-0.1,0-0.2l0,0c0-0.2,0-0.4,0-0.5l0,0L467.6,178.1z"/>
<path class="st10" d="M458,164.4c13.1,7.9,12.7,20.5-1,28.1s-35.4,7.4-48.5-0.5s-12.7-20.5,1-28.1S444.9,156.5,458,164.4z
	 M455.8,165.7c-11.9-7.2-31.7-7.4-44.1-0.4s-12.9,18.4-0.9,25.6s31.7,7.4,44.1,0.4S467.7,172.8,455.8,165.7"/>
<path class="st20" d="M450,162.9l-0.5-0.2l-0.2-0.1l-0.8-0.2l-0.1-0.1c-0.3-0.1-0.6-0.2-0.9-0.3l-0.2-0.1l-0.8-0.2l-0.2-0.1
	l-0.9-0.2l-0.2-0.1l-0.8-0.2h-0.2l-0.9-0.2h-0.2l-0.8-0.1h-0.2l-0.9-0.1H441l-0.8-0.1H440h0l-0.5-0.1h-0.3c-0.2,0-0.4,0-0.6-0.1
	h-0.2l-0.8-0.1h-0.2h-0.6h-0.3H436h-0.3h-0.5h-3.5h-0.8h-0.1h-0.7h-0.3h-0.5H429h-0.5h-0.3l-0.5,0.1h-0.3l-0.5,0.1h-0.2h-0.1
	l-0.9,0.1l0,0l-0.9,0.1h-0.2l-0.7,0.1h-0.2l-0.9,0.2h-0.2l-0.7,0.1l-0.2,0.1l-0.9,0.2l0,0l-0.8,0.2l-0.2,0.1l-0.7,0.2l-0.2,0.1
	l-0.8,0.3l-0.2,0.1l-0.7,0.2l-0.2,0.1l-0.8,0.3l0,0l-0.8,0.3l-0.2,0.1l-0.6,0.3l-0.2,0.1l-0.8,0.4l-0.2,0.1l-0.6,0.3l-0.2,0.1
	l-0.7,0.4l-0.5,0.3l-0.2,0.1l-0.4,0.2l-0.2,0.1l-0.3,0.2l-0.2,0.1l-0.3,0.2l-0.2,0.1l-0.3,0.2l-0.1,0.1l-0.5,0.4l-0.1,0.1l-0.4,0.3
	l-0.1,0.1l-0.3,0.2l-0.2,0.1l-0.3,0.2l-0.1,0.1l-0.3,0.2l-0.1,0.1l-0.3,0.3l-0.1,0.1l-0.4,0.4l-0.1,0.1l-0.3,0.3l-0.1,0.1l-0.1,0.1
	l-0.1,0.1l-0.2,0.2l-0.1,0.2l-0.2,0.2l-0.1,0.2l-0.2,0.3l-0.1,0.2c-0.1,0.1-0.1,0.2-0.2,0.3l-0.1,0.1c-0.1,0.1-0.2,0.3-0.3,0.4
	c0,0,0,0.1,0,0.1c-0.1,0.1-0.1,0.2-0.2,0.4l-0.1,0.2l-0.1,0.3c0,0.1,0,0.1-0.1,0.2l-0.1,0.3c0,0.1-0.1,0.1-0.1,0.2
	c0,0.1-0.1,0.2-0.1,0.3l-0.1,0.2l-0.1,0.3l-0.1,0.2c0,0.1-0.1,0.2-0.1,0.3l-0.1,0.2l-0.1,0.3c0,0.1,0,0.1,0,0.2c0,0.1,0,0.2,0,0.3
	c0,0.1,0,0.1,0,0.2c0,0.1,0,0.2,0,0.3c0,0.1,0,0.1,0,0.2c0,0.1,0,0.2,0,0.3c0,0.1,0,0.1,0,0.2c0,0.1,0,0.2,0,0.3c0,0,0,0.1,0,0.1
	l0,0c0,0.2,0,0.3,0,0.5l0,0l0,0v5.8c0,1.2,0,2.4,0,3.6l0,0c0-0.1,0-0.2,0-0.4s0-0.1,0-0.1s0-0.2,0-0.3s0-0.1,0-0.2v-0.3v-0.2
	c0-0.1,0-0.2,0-0.3v-0.2l0.1-0.3c0-0.1,0-0.1,0-0.2s0-0.2,0.1-0.3l0.1-0.2l0.1-0.2c0-0.1,0.1-0.1,0.1-0.2l0.1-0.3l0.1-0.2l0.1-0.3
	c0-0.1,0-0.1,0.1-0.2c0-0.1,0.1-0.2,0.1-0.3c0-0.1,0-0.1,0.1-0.2c0-0.1,0.1-0.2,0.1-0.3c0-0.1,0-0.1,0.1-0.2l0.2-0.4
	c0,0,0-0.1,0-0.1c0.1-0.1,0.2-0.3,0.3-0.4c0,0,0.1-0.1,0.1-0.1l0.2-0.3l0.1-0.2l0.2-0.3l0.1-0.2l0.2-0.3l0.1-0.2l0.2-0.2l0.2-0.2
	l0.1-0.1c0.1-0.1,0.2-0.2,0.2-0.3l0.1-0.1l0.4-0.4l0.1-0.1l0.3-0.3c0,0,0.1-0.1,0.1-0.1l0.2-0.2l0.2-0.1l0.3-0.2l0.2-0.1l0.3-0.2
	l0.1-0.1l0.4-0.3l0.1-0.1l0.5-0.3l0.1-0.1l0.4-0.2l0.2-0.1l0.3-0.2l0.2-0.1l0.3-0.2l0.2-0.1l0.4-0.2l0.2-0.1l0.5-0.3l0.7-0.4
	l0.2-0.1l0.6-0.3l0.2-0.1c0.2-0.1,0.5-0.2,0.8-0.4l0.2-0.1l0.6-0.3l0.2-0.1l0.8-0.3l0,0l0.8-0.3l0.2-0.1l0.7-0.2l0.2-0.1l0.8-0.3
	l0.2-0.1l0.7-0.2l0.2-0.1l0.8-0.2l0,0l0.9-0.2l0.2-0.1l0.7-0.2h0.2l0.9-0.2h0.2l0.7-0.1l0.3-0.1l0.9-0.1l0,0l0.9-0.1h0.3l0.5-0.1
	h0.3l0.5-0.1h0.3h0.5h0.3h0.5h0.3h0.7h0.1h0.8h2.7h0.5h0.8h0.3h0.5h0.3h0.6h0.2l0.8,0.1h0.2l0.6,0.1h0.3l0.5,0.1h0.2l0.8,0.1h0.2
	l0.9,0.1h0.2l0.8,0.1h0.2l0.9,0.2h0.2l0.8,0.2h0.2l0.9,0.2h0.2l0.8,0.2l0.2,0.1l0.9,0.3h0.1l0.8,0.2l0.2,0.1l0.5,0.2L450,162.9z"/>
<path class="st25" d="M394.8,205.1c7.7,0,7.7-11.9,0-11.9S387.1,205.1,394.8,205.1z"/>
<ellipse transform="matrix(0.3331 -0.9429 0.9429 0.3331 72.1649 491.027)" class="st4" cx="383.2" cy="194.5" rx="38.6" ry="22.4"/>
<path class="st23" d="M396.1,158.1l14.5,5.1c5.4,1.9,9.5,7.3,11.1,15.8c3.3,17.1-4.8,40.1-18,51.5c-6.7,5.7-13.4,7.4-18.8,5.5
	l-14.5-5.1c5.4,1.9,12.1,0.2,18.8-5.5c13.2-11.4,21.3-34.4,18-51.5C405.6,165.4,401.4,160,396.1,158.1z"/>
<path class="st10" d="M407.5,188.5c-0.6,4.5-1.6,8.9-3.1,13.2l14.6,4.9c1.5-4.3,2.5-8.7,3-13.2L407.5,188.5z"/>
<path class="st10" d="M416.3,213.2c0.6-1.2,1.1-2.4,1.6-3.7l-14.6-4.9c-0.5,1.2-1,2.5-1.6,3.7L416.3,213.2z"/>
<path class="st26" d="M394.2,220.1c-1.5,1.9-3.2,3.6-5.1,5.2c-6.7,5.7-13.4,7.4-18.8,5.5l14.5,5.1c5.4,1.9,12.1,0.2,18.8-5.5
	c1.9-1.7,3.7-3.5,5.3-5.5L394.2,220.1z"/>
<linearGradient id="SVGID_9_" gradientUnits="userSpaceOnUse" x1="253.1427" y1="175.7059" x2="290.651" y2="110.7388" gradientTransform="matrix(1 0 0 -1 0 350)">
	<stop  offset="0" style="stop-color:#000000;stop-opacity:0"/>
	<stop  offset="3.000000e-02" style="stop-color:#15223E;stop-opacity:3.000000e-02"/>
	<stop  offset="1" style="stop-color:#15223E"/>
</linearGradient>
<polygon class="st27" points="286.6,241.6 212.2,201.3 258.2,171.4 332.8,214.3 "/>
<g>
	<g>
		<defs>
			<path id="SVGID_10_" d="M349.5,226.8c0-5.2-3.4-10.5-10.1-14.6c-13.9-8.4-37-8.6-51.5-0.5c-7.5,4.2-11.2,9.7-11.2,15.3
				l-0.4-141.4c0-5.6,3.7-11.1,11.2-15.3c14.5-8.1,37.6-7.9,51.5,0.5c6.8,4.1,10.1,9.3,10.1,14.6L349.5,226.8z"/>
		</defs>
		<clipPath id="SVGID_11_">
			<use xlink:href="#SVGID_10_"  style="overflow:visible;"/>
		</clipPath>
		<g class="st28">
			<path class="st29" d="M291.1,210.1l-0.4-141.4c-1.1,0.5-2.2,1-3.2,1.6l-0.8,0.4l0.4,141.4l0.8-0.4
				C288.9,211.1,290,210.6,291.1,210.1"/>
			<path class="st30" d="M287.1,212.1l-0.4-141.4c-7,4.1-10.5,9.5-10.5,14.9l0.4,141.4C276.7,221.6,280.1,216.3,287.1,212.1"/>
		</g>
	</g>
</g>
<g>
	<g>
		<defs>
			<path id="SVGID_12_" d="M349.1,85.4c0-5.2-3.4-10.5-10.1-14.6c-13.9-8.4-37-8.6-51.5-0.5c-7.5,4.2-11.2,9.7-11.2,15.3
				c0-2,0.3-4.1,0.8-6c0.5-1.8,1.3-3.5,2.2-5.1c0.6-1,1.3-2,2-2.9c0,0,0.9-1.1,1.9-2.1c0.8-0.8,1.6-1.5,2.4-2.2
				c1-0.8,2.1-1.6,3.2-2.3c0.4-0.2,0.8-0.5,1.2-0.7c13.1-7.3,33.8-7.1,46.3,0.5c0.7,0.4,1.5,1,2.2,1.4c0.9,0.7,1.8,1.4,2.7,2.2
				c0.7,0.7,1.4,1.3,2,2.1c0.3,0.3,0.7,0.8,1,1.1c0.5,0.6,1,1.3,1.4,2c1.2,1.8,2.1,3.7,2.7,5.8c0.3,1,0.5,2,0.7,3
				C349.1,83.4,349.1,84.4,349.1,85.4z"/>
		</defs>
		<clipPath id="SVGID_13_">
			<use xlink:href="#SVGID_12_"  style="overflow:visible;"/>
		</clipPath>
		<g class="st31">
			<path class="st30" d="M349.1,85.4c-0.2-8.4-4.5-15.3-12.8-20.5c-12.5-7.5-33.3-7.8-46.3-0.5c-0.4,0.2-0.8,0.5-1.2,0.7
				c-3,2-12.2,8-12.5,20.4c0-5.4,3.7-11,11.2-15.2c14.5-8.1,37.6-7.9,51.5,0.5C345.8,74.9,349.1,80.1,349.1,85.4"/>
			<path class="st30" d="M286.8,70.7c1.1-0.6,2.6-1.4,3.8-1.9c14.5-6.5,35.5-5.8,48.5,2.1c6.8,4.1,10.1,9.3,10.1,14.6v-0.9
				c0-0.3,0-0.7-0.1-1l-0.1-0.9c0-0.3-0.1-0.7-0.2-1.1l-0.2-0.9c-0.1-0.3-0.2-0.7-0.3-1l-0.3-0.9c-0.1-0.3-0.3-0.7-0.4-1l-0.4-0.9
				c-0.1-0.3-0.4-0.7-0.5-1l-0.5-0.9c-0.2-0.3-0.5-0.8-0.7-1.1l-0.6-0.9c-0.2-0.3-0.6-0.8-0.8-1.1l-0.8-0.9
				c-0.3-0.3-0.8-0.8-1.1-1.2l-1-0.9c-0.4-0.4-1-0.9-1.4-1.2l-1.3-1c-0.6-0.4-1.5-1-2.2-1.4c-12.5-7.5-33.3-7.8-46.3-0.5
				c-0.4,0.2-0.8,0.5-1.2,0.7l-1.3,0.8c-0.6,0.4-1.4,1-1.9,1.4l-1,0.9c-0.4,0.4-1,0.9-1.4,1.3l-0.8,0.9c-0.3,0.3-0.7,0.8-1,1.2
				l-0.7,0.9l-0.8,1.1l-0.5,0.9c-0.2,0.3-0.4,0.8-0.6,1.1l-0.4,0.9c-0.1,0.3-0.3,0.8-0.5,1.1l-0.3,0.9l-0.3,1.1l-0.2,0.9
				c-0.1,0.3-0.2,0.7-0.2,1.1l-0.1,0.9c0,0.3-0.1,0.7-0.1,1.1l-0.1,0.9c0,0.3,0,0.7,0,1C276.3,80.3,279.8,74.9,286.8,70.7"/>
		</g>
	</g>
</g>
<g>
	<g>
		<defs>
			<path id="SVGID_14_" d="M301.5,57.2l0.6-0.4c6.1-3.4,15.7-3.3,21.6,0.2l12.7,7.8c-12.5-7.5-33.3-7.8-46.3-0.5
				c-0.5,0.2-0.9,0.5-1.3,0.8L301.5,57.2z"/>
		</defs>
		<clipPath id="SVGID_15_">
			<use xlink:href="#SVGID_14_"  style="overflow:visible;"/>
		</clipPath>
		<g class="st32">
			<path class="st30" d="M336.3,64.8L323.6,57c-5.8-3.5-15.5-3.6-21.6-0.2l-0.6,0.4l-12.8,8c0.4-0.3,0.9-0.5,1.3-0.8
				C303.1,57.1,323.8,57.3,336.3,64.8"/>
		</g>
	</g>
</g>
<path class="st4" d="M276.7,227l-0.4-141.4c0,5.2,3.4,10.5,10.1,14.6l0.4,141.4C280,237.5,276.7,232.2,276.7,227z"/>
<g>
	<defs>
		<path id="SVGID_16_" d="M276.7,227l-0.4-141.4c0,5.2,3.4,10.5,10.1,14.6l0.4,141.4C280,237.5,276.7,232.2,276.7,227z"/>
	</defs>
	<clipPath id="SVGID_17_">
		<use xlink:href="#SVGID_16_"  style="overflow:visible;"/>
	</clipPath>
	<g class="st33">
		<path class="st4" d="M276.7,227l-0.4-141.4c0,5.2,3.4,10.5,10.1,14.6l0.4,141.4C280,237.5,276.7,232.2,276.7,227"/>
	</g>
</g>
<path class="st34" d="M297.6,61.6c0.2-0.6,0.4-1.1,0.8-1.6c0.4-0.5,0.8-1,1.3-1.5c0.6-0.5,1.2-1,1.8-1.4l0,0l-12.8,8l-0.2,0.1
	l-0.8,0.5l0,0c-1,0.7-1.5,1-2.2,1.6c-0.5,0.4-0.9,0.7-1.3,1.1l-0.2,0.2l-1,0.9c-0.6,0.6-1.2,1.3-1.8,2h0c0,0.1-0.1,0.1-0.1,0.2
	c-0.5,0.6-0.9,1.2-1.3,1.8l0,0v0.1l-0.1,0.1l-0.1,0.2l-0.1,0.2l-0.1,0.1l-0.2,0.3l-0.1,0.1c-0.1,0.2-0.3,0.5-0.4,0.8l0,0v0.1
	c-0.3,0.6-0.6,1.3-0.9,2l-0.3,0.9l0,0v0.1l-0.3,0.9c-0.1,0.3-0.3,0.9-0.5,2l0,0c0,0.1,0,0.2,0,0.3s-0.1,0.5-0.1,0.8
	s-0.1,0.6-0.1,0.9l0,0c0,0.1,0,0.3,0,0.5s0,0.1,0,0.2s0,0.3,0,0.4v0.9c0,5.2,3.4,10.5,10.1,14.6c0-3.1,0.8-6.1,2.3-8.8l12.6-21.9
	C298.1,67.2,296.8,64.3,297.6,61.6z"/>
<ellipse transform="matrix(1 -2.792512e-03 2.792512e-03 1 -0.1753 0.8733)" class="st30" cx="312.6" cy="63.2" rx="15.3" ry="8.8"/>
<path class="st34" d="M344.9,237.2l0.4-0.4c0.1-0.2,0.3-0.3,0.4-0.5l0.4-0.4c0.1-0.2,0.3-0.3,0.4-0.5c0.1-0.1,0.2-0.3,0.3-0.4
	s0.2-0.4,0.4-0.5s0.2-0.3,0.3-0.4s0.2-0.4,0.3-0.5s0.2-0.3,0.2-0.5s0.2-0.4,0.3-0.5l0.2-0.4c0.1-0.2,0.1-0.4,0.2-0.6
	s0.1-0.3,0.2-0.4s0.1-0.4,0.2-0.6l0.1-0.4c0-0.2,0.1-0.4,0.1-0.6s0.1-0.3,0.1-0.4s0.1-0.5,0.1-0.7s0-0.2,0-0.3c0-0.3,0-0.7,0-1
	l-0.4-141.4c0,0.3,0,0.7,0,1c0,0.1,0,0.2,0,0.3s0,0.4-0.1,0.7l-0.1,0.4c0,0.2-0.1,0.4-0.1,0.6s-0.1,0.3-0.1,0.4s-0.1,0.4-0.2,0.6
	s-0.1,0.3-0.2,0.4s-0.1,0.4-0.2,0.6l-0.2,0.4c-0.1,0.2-0.2,0.4-0.3,0.5s-0.2,0.3-0.2,0.5s-0.2,0.3-0.3,0.5s-0.2,0.3-0.3,0.4
	l-0.4,0.5c-0.1,0.2-0.2,0.3-0.3,0.4s-0.2,0.3-0.4,0.5l-0.4,0.4l-0.4,0.5l-0.4,0.4c-0.2,0.2-0.3,0.3-0.5,0.5l-0.5,0.4l-0.5,0.5
	l-0.5,0.4c-0.2,0.2-0.4,0.3-0.6,0.5l-0.5,0.4l-0.6,0.4l-0.6,0.4l-0.7,0.4c-0.2,0.1-0.4,0.3-0.6,0.4s-0.7,0.4-1.1,0.6s-1,0.5-1.5,0.8
	l-0.5,0.2l-1,0.5l-0.4,0.2c-0.8,0.3-1.7,0.7-2.5,1l-0.2,0.1c-0.9,0.3-1.8,0.6-2.7,0.9l0,0c-0.9,0.3-1.9,0.5-2.8,0.7l-0.3,0.1
	c-0.9,0.2-1.9,0.4-2.8,0.6l-0.4,0.1c-0.9,0.2-1.8,0.3-2.8,0.4h-0.5c-0.9,0.1-1.9,0.2-2.8,0.2h-0.5c-0.9,0-1.9,0.1-2.8,0.1H313
	c-1,0-2,0-2.9,0h-0.3c-1-0.1-2-0.1-3-0.2l0,0c-1-0.1-2-0.2-3-0.4h-0.3c-1-0.1-1.9-0.3-2.8-0.5l-0.4-0.1c-0.9-0.2-1.8-0.4-2.7-0.6
	l-0.4-0.1c-0.9-0.2-1.7-0.5-2.6-0.8l-0.4-0.1c-0.8-0.3-1.7-0.6-2.5-0.9l-0.3-0.1c-0.8-0.3-1.6-0.7-2.4-1.1l-0.2-0.1
	c-0.8-0.4-1.6-0.8-2.4-1.3l0.4,141.4c0.8,0.5,1.6,0.9,2.4,1.3l0.2,0.1c0.8,0.4,1.6,0.8,2.4,1.1l0.3,0.1c0.8,0.3,1.6,0.6,2.5,0.9
	l0.4,0.1c0.8,0.3,1.7,0.5,2.6,0.8l0.4,0.1c0.9,0.2,1.8,0.4,2.7,0.6l0.4,0.1c0.9,0.2,1.9,0.4,2.8,0.5h0.3c1,0.1,2,0.3,3,0.4l0,0
	c1,0.1,2,0.2,3,0.2h0.2c1,0,2,0.1,2.9,0.1h0.4c1,0,1.9-0.1,2.8-0.1h0.5c0.9-0.1,1.9-0.1,2.8-0.2l0.5-0.1c0.9-0.1,1.9-0.2,2.8-0.4
	l0.4-0.1c0.9-0.2,1.9-0.4,2.8-0.6l0.3-0.1c1-0.2,1.9-0.5,2.8-0.7l0,0c0.9-0.3,1.8-0.6,2.7-0.9l0.2-0.1c0.9-0.3,1.7-0.6,2.5-1
	l0.2-0.1l0.2-0.1l1-0.5l0.5-0.2c0.5-0.3,1-0.5,1.5-0.8l0.7-0.4l0.3-0.2c0.2-0.1,0.4-0.2,0.6-0.4l0.7-0.4l0.6-0.4l0.6-0.4l0.5-0.4
	l0.7-0.4l0.5-0.4l0.5-0.5l0.5-0.4C344.6,237.5,344.7,237.3,344.9,237.2z"/>
<path class="st35" d="M349.1,85.3L349.1,85.3c0-0.4,0-0.7,0-1v-0.4c0-0.1,0-0.1,0-0.2v-0.3c0-0.3-0.1-0.7-0.1-1.1l0,0
	c0,0,0-0.1,0-0.1l-0.1-0.8c0-0.1-0.1-0.3-0.1-0.5s0-0.2-0.1-0.3s0-0.2-0.1-0.3l-0.2-0.9v-0.1l0,0l-0.1-0.2c-0.1-0.3-0.2-0.5-0.2-0.8
	v-0.1l-0.1-0.2l-0.2-0.6v-0.1c-0.1-0.2-0.1-0.3-0.2-0.4l0-0.1c-0.1-0.2-0.1-0.3-0.2-0.4v-0.1l-0.1-0.2c-0.1-0.2-0.2-0.3-0.3-0.5
	l-0.1-0.2l-0.2-0.3l-0.1-0.2l-0.4-0.6l-0.6-0.9c-0.3-0.5-0.8-1.2-1.4-1.9l-0.1-0.1v-0.1c-0.8-0.9-1.6-1.7-2.5-2.4l-0.1-0.1
	c-0.2-0.2-0.4-0.4-0.6-0.6s-0.7-0.6-1.2-1l-0.1-0.1l0,0l-0.5-0.4l-0.3-0.2c-0.3-0.2-0.6-0.4-0.9-0.7l-0.4-0.2l-0.2-0.1l-0.1-0.1
	c-0.3-0.2-0.7-0.4-1.1-0.7c0.2,0.1,0.4,0.3,0.6,0.4l0,0c-0.2-0.1-0.4-0.3-0.6-0.4L323.6,57c0.3,0.2,0.6,0.4,0.9,0.6l0.2,0.1
	c0.3,0.2,0.5,0.4,0.8,0.6l0.1,0.1c0.2,0.2,0.4,0.4,0.6,0.6c0,0,0,0,0,0c0.2,0.2,0.4,0.5,0.5,0.7c0,0,0.1,0.1,0.1,0.2
	c0.1,0.2,0.3,0.5,0.4,0.7c0.1,0.3,0.2,0.5,0.3,0.8c0,0,0,0.1,0,0.1c0.1,0.3,0.1,0.6,0.2,0.9c0,0.1,0,0.2,0,0.3s0,0.4,0,0.6
	s0,0.2,0,0.3s0,0.4-0.1,0.6s-0.1,0.2-0.1,0.4s-0.1,0.3-0.2,0.5s-0.1,0.2-0.2,0.4s-0.2,0.3-0.3,0.5l-0.2,0.4
	c-0.1,0.2-0.2,0.3-0.4,0.5l-0.3,0.3c-0.1,0.2-0.3,0.3-0.5,0.5s-0.2,0.2-0.3,0.3c-0.2,0.2-0.4,0.4-0.6,0.5c-0.1,0.1-0.2,0.2-0.3,0.2
	c-0.4,0.2-0.7,0.5-1.1,0.7s-0.9,0.5-1.4,0.7l-0.5,0.2c-0.3,0.1-0.7,0.3-1,0.4l-0.5,0.2c-0.3,0.1-0.7,0.2-1,0.3l-0.5,0.1
	c-0.5,0.1-0.9,0.2-1.4,0.3h-0.2c-0.5,0.1-1.1,0.2-1.6,0.2c-0.2,0-0.5,0-0.7,0h-0.8h-1.5h-0.8h-0.7l-0.8-0.1l-0.7-0.1l-0.8-0.1
	l-0.7-0.1c-0.2,0-0.5-0.1-0.7-0.2c-0.2,0-0.4-0.1-0.6-0.1c-0.3-0.1-0.5-0.1-0.8-0.2l-0.6-0.2c-0.2-0.1-0.5-0.2-0.8-0.3l-0.5-0.2
	c-0.3-0.1-0.5-0.2-0.8-0.3l-0.4-0.2c-0.4-0.2-0.8-0.4-1.1-0.6L289,91.2c-1.6,2.7-2.5,5.8-2.6,8.9c0.8,0.5,1.6,0.9,2.4,1.3l0.2,0.1
	c0.8,0.4,1.6,0.8,2.4,1.1l0.3,0.1c0.8,0.3,1.6,0.6,2.5,0.9l0.4,0.1c0.9,0.3,1.7,0.5,2.6,0.8l0.4,0.1c0.9,0.2,1.8,0.4,2.7,0.6
	l0.4,0.1c0.9,0.2,1.9,0.3,2.8,0.5h0.3c1,0.1,2,0.3,3,0.4h0.1c1,0.1,2,0.2,3,0.2h0.2c1,0,2,0,3,0h0.4c1,0,1.9,0,2.9-0.1h0.4
	c1-0.1,1.9-0.1,2.8-0.2l0.5-0.1c0.9-0.1,1.9-0.2,2.8-0.4l0.4-0.1c0.9-0.2,1.8-0.3,2.8-0.6l0.3-0.1c0.9-0.2,1.9-0.5,2.8-0.7l0.2-0.1
	c0.9-0.3,1.8-0.6,2.7-0.9h0.1c0.9-0.3,1.8-0.7,2.6-1l0.2-0.1h-0.1c1.1-0.5,2.1-1,3.2-1.6c0.4-0.2,0.7-0.4,1-0.6l-0.3,0.2l0.3-0.2
	l0.6-0.4l0.7-0.4l0.6-0.4l0.6-0.4L342,98l0.6-0.4l0.5-0.4l0.5-0.5l0.5-0.4c0.2-0.2,0.3-0.3,0.5-0.5l0.4-0.4c0.1-0.2,0.3-0.3,0.4-0.5
	l0.4-0.4l0.4-0.5l0.3-0.4l0.3-0.5l0.3-0.4l0.3-0.5l0.2-0.4l0.3-0.5l0.2-0.5l0.2-0.6c0.1-0.2,0.1-0.3,0.2-0.4s0.1-0.4,0.2-0.6
	s0.1-0.3,0.1-0.4s0.1-0.4,0.1-0.6l0.1-0.4c0-0.2,0.1-0.5,0.1-0.7s0-0.2,0-0.3c0-0.3,0-0.7,0-1L349.1,85.3z"/>
<ellipse transform="matrix(1 -2.792512e-03 2.792512e-03 1 -0.1714 0.8733)" class="st36" cx="312.6" cy="61.8" rx="17" ry="9.8"/>
<path class="st34" d="M324.4,57l0.2,0.1c0.3,0.2,0.5,0.4,0.8,0.6l0.1,0.1c0.2,0.2,0.4,0.4,0.6,0.6v0.1c0.2,0.2,0.4,0.4,0.5,0.7
	l0.1,0.2c0.1,0.2,0.3,0.5,0.4,0.7c0.1,0.2,0.2,0.5,0.3,0.8V61c0.1,0.3,0.1,0.6,0.2,0.9c0,0.1,0,0.2,0,0.3c0,0.2,0,0.4,0,0.6
	c0,0.1,0,0.2,0,0.3s0,0.4-0.1,0.5s-0.1,0.2-0.1,0.4c-0.1,0.2-0.1,0.3-0.2,0.5c0,0.1-0.1,0.2-0.2,0.4c-0.1,0.2-0.2,0.3-0.3,0.5
	l-0.2,0.4c-0.1,0.2-0.2,0.3-0.4,0.5s-0.2,0.2-0.3,0.3s-0.3,0.3-0.5,0.5s-0.2,0.2-0.3,0.3s-0.4,0.3-0.6,0.5s-0.2,0.2-0.3,0.2
	c-0.4,0.2-0.7,0.5-1.1,0.7s-0.9,0.5-1.4,0.7l-0.5,0.2c-0.3,0.1-0.7,0.3-1,0.4l-0.5,0.2l-1,0.3l-0.5,0.1c-0.5,0.1-0.9,0.2-1.4,0.3
	h-0.2c-0.5,0.1-1.1,0.2-1.6,0.2h-0.7h-0.8h-0.7H312c-0.3,0-0.5,0-0.8,0h-0.7l-0.8-0.1l-0.7-0.1l-0.7-0.1l-0.7-0.1l-0.7-0.2l-0.6-0.1
	l-0.8-0.2l-0.6-0.2c-0.3-0.1-0.5-0.2-0.8-0.3l-0.5-0.2l-0.8-0.3l-0.4-0.2c-0.4-0.2-0.8-0.4-1.1-0.6l-0.7,1.3l0.7,0.4l0.4,0.2
	c0.3,0.1,0.6,0.3,0.9,0.4l0.5,0.2c0.3,0.1,0.5,0.2,0.8,0.3l0.6,0.2l0.8,0.2l0.6,0.2c0.3,0.1,0.5,0.1,0.8,0.2c0.2,0,0.4,0.1,0.7,0.1
	l0.9,0.1l0.7,0.1c0.3,0,0.6,0.1,0.9,0.1h0.7h0.9h0.7h0.9h0.7l0.9-0.1c0.2,0,0.4,0,0.7-0.1s0.6-0.1,0.9-0.1l0.6-0.1l1-0.2l0.5-0.1
	c0.5-0.1,0.9-0.2,1.4-0.3h0.1c0.5-0.1,1-0.3,1.4-0.5l0.4-0.2c0.3-0.1,0.6-0.2,0.8-0.3h0.1c0.5-0.2,1-0.4,1.4-0.7l0.4-0.2
	c0.2-0.1,0.3-0.2,0.5-0.3l0.5-0.3c0.2-0.1,0.4-0.3,0.6-0.4l0.5-0.4c0.2-0.2,0.3-0.3,0.5-0.5s0.3-0.3,0.4-0.4s0.3-0.3,0.4-0.5
	l0.3-0.4c0.1-0.2,0.2-0.3,0.3-0.5s0.2-0.2,0.2-0.4s0.2-0.4,0.2-0.6s0.1-0.2,0.1-0.4s0.1-0.4,0.2-0.6s0-0.2,0.1-0.3
	c0.1-0.3,0.1-0.7,0.1-1V60l-5.9-3.7C323.8,56.6,324.1,56.8,324.4,57z"/>
<g>
	<g>
		<defs>
			<path id="SVGID_18_" d="M329.6,61.8c0-2.4-1.6-4.9-4.7-6.8c-6.5-3.9-17.2-4-24-0.2c-3.5,1.9-5.2,4.5-5.2,7.1l0-18.7
				c0-2.6,1.7-5.2,5.2-7.1c6.8-3.8,17.5-3.7,24,0.2c3.1,1.9,4.7,4.3,4.7,6.8C329.5,48.7,329.6,56.2,329.6,61.8z"/>
		</defs>
		<clipPath id="SVGID_19_">
			<use xlink:href="#SVGID_18_"  style="overflow:visible;"/>
		</clipPath>
		<g class="st37">
			<path class="st30" d="M329.6,61.8l0-18.7c0-2.4-1.6-4.9-4.7-6.8c-6-3.6-15.7-4-22.5-1V54c6.8-3,16.5-2.6,22.5,1
				C328,56.9,329.5,59.3,329.6,61.8"/>
			<path class="st29" d="M302.4,54V35.3c-0.5,0.2-1,0.5-1.5,0.8c-0.1,0.1-0.2,0.1-0.3,0.2l0,18.7l0.3-0.2
				C301.4,54.5,301.9,54.2,302.4,54"/>
			<path class="st30" d="M300.6,54.9l0-18.6c-3.2,1.9-4.9,4.4-4.9,6.9l0,18.6C295.7,59.3,297.3,56.8,300.6,54.9"/>
		</g>
	</g>
</g>
<path class="st23" d="M328,65.9c0.1-0.1,0.2-0.3,0.3-0.4s0.2-0.3,0.3-0.5c0.1-0.1,0.2-0.3,0.2-0.4c0.1-0.2,0.2-0.4,0.2-0.6
	c0-0.1,0.1-0.2,0.2-0.4s0.1-0.4,0.2-0.6c0-0.1,0.1-0.2,0.1-0.3c0.1-0.3,0.1-0.7,0.1-1l0-18.7c0,0.3,0,0.6-0.1,1c0,0.1,0,0.2-0.1,0.3
	c0,0.2-0.1,0.4-0.2,0.6c0,0.1-0.1,0.2-0.1,0.4s-0.1,0.4-0.2,0.6s-0.1,0.3-0.2,0.4s-0.2,0.3-0.3,0.5l-0.3,0.4
	c-0.1,0.2-0.3,0.3-0.4,0.5s-0.3,0.2-0.4,0.4s-0.3,0.3-0.5,0.5l-0.5,0.4c-0.2,0.1-0.4,0.3-0.6,0.4l-0.5,0.3c-0.3,0.2-0.5,0.3-0.8,0.5
	c-0.5,0.2-0.9,0.5-1.4,0.7c-0.3,0.1-0.6,0.2-0.9,0.4l-0.4,0.2c-0.5,0.2-0.9,0.3-1.4,0.5H320l-1.4,0.3l-0.5,0.1l-1,0.2l-0.6,0.1
	l-0.9,0.1l-0.7,0l-0.9,0.1h-0.7h-0.9h-0.7h-0.9h-0.7l-0.9-0.1l-0.7-0.1c-0.3,0-0.6-0.1-0.9-0.1l-0.7-0.1l-0.8-0.2l-0.6-0.2l-0.8-0.2
	l-0.6-0.2c-0.3-0.1-0.6-0.2-0.8-0.3l-0.5-0.2c-0.3-0.1-0.6-0.2-0.9-0.4l-0.4-0.2c-0.4-0.2-0.8-0.4-1.2-0.7l0.1,18.7
	c0.4,0.2,0.8,0.4,1.2,0.7l0.4,0.2c0.3,0.1,0.6,0.3,0.9,0.4l0.5,0.2l0.8,0.3c0.2,0.1,0.4,0.1,0.6,0.2l0.8,0.2l0.6,0.2l0.8,0.2
	l0.7,0.1c0.3,0,0.6,0.1,0.9,0.1s0.5,0.1,0.7,0.1l0.9,0.1h0.7h0.9h0.7h0.9h0.7l0.9-0.1h0.7l0.9-0.1l0.6-0.1l1-0.2l0.5-0.1
	c0.5-0.1,0.9-0.2,1.4-0.4h0.1c0.5-0.1,1-0.3,1.4-0.5l0.4-0.2l0.8-0.3h0.1c0.5-0.2,1-0.4,1.4-0.7c0.1-0.1,0.2-0.1,0.3-0.2
	c0.2-0.1,0.3-0.2,0.5-0.3l0.5-0.3c0.2-0.1,0.4-0.3,0.6-0.4c0.2-0.1,0.3-0.2,0.5-0.4l0.5-0.5l0.4-0.4C327.8,66.2,327.9,66,328,65.9z"
	/>
<ellipse transform="matrix(1 -2.792512e-03 2.792512e-03 1 -0.1193 0.8731)" class="st4" cx="312.6" cy="43.2" rx="17" ry="9.8"/>
<path class="st16" d="M276.4,117.4l0.2,58.4c0.8,4.5,4.1,8.9,10,12.5l0.1,0.1l-0.2-57C280.2,127.5,276.6,122.4,276.4,117.4z"/>
<path class="st10" d="M349.2,119.1c-0.9,4.8-4.6,9.3-11,12.9c-14.5,8.1-37.6,7.9-51.5-0.5l-0.2-0.1l0.2,57c14,8.3,37,8.5,51.5,0.4
	c7-3.9,10.7-9,11.2-14.1v-2.4l0,0L349.2,119.1z"/>
<g>
	<path class="st4" d="M295.7,61.8l0-18.7c0,2.4,1.6,4.9,4.7,6.8l0.1,18.6C297.3,66.7,295.7,64.3,295.7,61.8z"/>
	<g>
		<defs>
			<path id="SVGID_20_" d="M295.7,61.8l0-18.7c0,2.4,1.6,4.9,4.7,6.8l0.1,18.6C297.3,66.7,295.7,64.3,295.7,61.8z"/>
		</defs>
		<clipPath id="SVGID_21_">
			<use xlink:href="#SVGID_20_"  style="overflow:visible;"/>
		</clipPath>
		<g class="st38">
			<path class="st4" d="M295.7,61.8l0-18.7c0,2.4,1.6,4.9,4.7,6.8l0.1,18.6C297.3,66.7,295.7,64.3,295.7,61.8"/>
		</g>
	</g>
</g>
<path class="st4" d="M328.9,63l0.2-0.6V48.7l-0.2,0.6V63"/>
<path class="st4" d="M327.5,65l0.5-0.6c0-4.6,0-9.1,0-13.7l-0.5,0.5C327.5,55.9,327.5,60.4,327.5,65"/>
<path class="st4" d="M325.3,66.8l0.7-0.5c0-4.6,0-9.1,0-13.7l-0.7,0.5C325.3,57.7,325.3,62.2,325.3,66.8"/>
<path class="st4" d="M322.4,68.3l0.9-0.4c0-4.6,0-9.1,0-13.7l-0.9,0.4C322.4,59.2,322.4,63.7,322.4,68.3"/>
<path class="st4" d="M319.1,69.3l1-0.2c0-4.6,0-9.1,0-13.7l-1,0.2C319.1,60.2,319.1,64.8,319.1,69.3"/>
<path class="st4" d="M315.6,70l1-0.1c0-4.6,0-9.1,0-13.7l-1,0.1C315.6,60.8,315.6,65.4,315.6,70"/>
<path class="st4" d="M312,70.1h1V56.4h-1C312,60.9,312,65.5,312,70.1"/>
<path class="st4" d="M308.4,69.8l1,0.1c0-4.6,0-9.2,0-13.7l-1-0.1C308.4,60.6,308.4,65.2,308.4,69.8"/>
<path class="st4" d="M305,69l1,0.3c0-4.6,0-9.2,0-13.7l-1-0.3C305,59.9,305,64.4,305,69"/>
<path class="st4" d="M301.8,67.8l0.9,0.4c0-4.6,0-9.2,0-13.7l-0.9-0.4C301.8,58.6,301.8,63.2,301.8,67.8"/>
<polygon class="st4" points="317.7,52.4 327.8,46.5 332,43.4 321.9,49.3 "/>
<path class="st39" d="M285.9,9.5c0.3-0.1,0.6-0.2,0.9-0.3h0.1c0.3-0.1,0.6-0.1,1-0.2h0.2c0.3-0.1,0.6-0.1,1-0.1h0.1
	c0.3,0,0.6,0,0.9,0h0.2c0.3,0,0.6,0,1,0.1h0.2c0.3,0,0.6,0.1,1,0.1h0.1l0.9,0.2h0.2l0.5,0.1h0.2l0.7,0.2l0,0l0.6,0.2l0.2,0.1
	l0.4,0.1l0.2,0.1l0.4,0.1l0.2,0.1l0.4,0.1l0.2,0.1l0.3,0.1l0.2,0.1l0.3,0.1l0.1,0.1l0.5,0.2l0,0l0.4,0.2l0.1,0.1l0.2,0.1l0.1,0.1
	l0.2,0.1l0.1,0.1l0.2,0.1l0.1,0.1l0.1,0.1h0.1L301,12l0,0l0.1,0.1l10.1-5.9l-0.1-0.1l0,0L311,6h-0.1l-0.2,0h-0.1l-0.2-0.1l-0.1-0.1
	l-0.2-0.1L310,5.7l-0.2-0.1l-0.1-0.1l-0.4-0.2l-0.1-0.1l-0.4-0.2L308.6,5l-0.3-0.2L308,4.8l-0.3-0.1l-0.2-0.1l-0.3-0.1l-0.2-0.1
	l-0.4-0.1l-0.2-0.1L305.9,4l-0.2-0.1l-0.6-0.2H305l-0.7-0.2l-0.2,0l-0.5-0.1h-0.1h-0.1c-0.3-0.1-0.6-0.1-0.9-0.2h-0.1
	c-0.3,0-0.6-0.1-1-0.1h-0.2c-0.3,0-0.6,0-1-0.1h-0.2c-0.3,0-0.6,0-0.9,0h-0.1c-0.3,0-0.6,0.1-1,0.1h-0.2c-0.3,0-0.6,0.1-1,0.2h-0.1
	c-0.3,0.1-0.6,0.2-0.9,0.3h-0.1c-0.3,0.1-0.6,0.3-0.9,0.4h-0.1l-0.3,0.2l-10,6l0,0l0.4-0.2c0.3-0.1,0.6-0.3,0.9-0.4L285.9,9.5z"/>
<path class="st23" d="M344.2,79.7l0.3,0.6v0.1l0.3,0.6l0.1,0.2l0.2,0.4l0.1,0.2c0,0.1,0.1,0.2,0.1,0.3l0.1,0.2
	c0,0.1,0.1,0.1,0.1,0.2l0.1,0.1l0.1,0.2l0,0.1l0.1,0.1l10.2-5.9l-0.1-0.1l0-0.1l-0.1-0.1c0,0,0-0.1-0.1-0.1s-0.1-0.1-0.1-0.2
	c0-0.1,0-0.1-0.1-0.2c0-0.1-0.1-0.2-0.1-0.3l-0.1-0.2l-0.2-0.3l-0.1-0.2c-0.1-0.2-0.2-0.4-0.3-0.6c0,0,0-0.1-0.1-0.1l-0.3-0.6
	c0-0.1-0.1-0.2-0.1-0.3l-0.2-0.5l-0.1-0.3c-0.1-0.2-0.2-0.5-0.4-0.8c0-0.1-0.1-0.2-0.1-0.3l-0.5-1.1c0-0.1-0.1-0.2-0.1-0.2l-0.4-1
	c0-0.1-0.1-0.2-0.1-0.3l-0.5-1.3v-0.1l-0.5-1.3l-0.1-0.4l-0.4-1.3c0-0.1-0.1-0.2-0.1-0.3c-0.2-0.5-0.4-1-0.5-1.6l-0.1-0.4
	c-0.1-0.4-0.3-0.9-0.4-1.3l-0.1-0.4c-0.2-0.6-0.3-1.1-0.5-1.7c0-0.1,0-0.2-0.1-0.3c-0.1-0.5-0.3-1-0.4-1.5c0-0.2-0.1-0.3-0.1-0.5
	c-0.1-0.5-0.3-1.1-0.4-1.6c0-0.1,0-0.1,0-0.2c-0.1-0.6-0.3-1.2-0.4-1.9c0-0.2-0.1-0.3-0.1-0.5c-0.1-0.5-0.2-1-0.3-1.5l-0.1-0.5
	c-0.1-0.6-0.2-1.3-0.3-2l-0.1-0.3l-0.2-1.6l-0.1-0.6c-0.1-0.7-0.1-1.3-0.2-2c0-0.2,0-0.3,0-0.5c0-0.7,0.2-1.4,0.6-1.9
	c0.1-0.2,0.3-0.3,0.5-0.4l0,0L337,46.8c-0.1,0.1-0.2,0.1-0.3,0.2c-0.7,0.7-1,1.7-0.8,2.7c0,0.7,0.1,1.4,0.2,2l0.1,0.5l0.2,1.6
	l0.1,0.4c0.1,0.7,0.2,1.3,0.3,2l0.1,0.5c0.1,0.5,0.2,1,0.3,1.5c0,0.2,0.1,0.3,0.1,0.5c0.1,0.6,0.3,1.3,0.4,1.9c0,0.1,0,0.1,0,0.2
	c0.1,0.5,0.3,1.1,0.4,1.6c0,0.2,0.1,0.3,0.1,0.5c0.1,0.5,0.3,1,0.4,1.5c0,0.1,0,0.2,0.1,0.3c0.2,0.6,0.3,1.1,0.5,1.7
	c0,0.1,0.1,0.3,0.1,0.4c0.1,0.4,0.3,0.9,0.4,1.3l0.1,0.4c0.2,0.5,0.4,1.1,0.5,1.6c0,0.1,0.1,0.2,0.1,0.3c0.1,0.4,0.3,0.8,0.4,1.2
	l0.1,0.4c0.2,0.4,0.3,0.9,0.5,1.3v0.1l0.5,1.3l0.1,0.3l0.4,1c0,0.1,0.1,0.2,0.1,0.3c0.2,0.4,0.3,0.8,0.5,1.1l0.1,0.3
	c0.1,0.3,0.2,0.6,0.4,0.8c0,0.1,0,0.1,0.1,0.2l0,0.1l0.2,0.5C344.1,79.5,344.1,79.6,344.2,79.7z"/>
<polygon class="st39" points="336.9,32.9 347,27 311.1,6.3 301,12.1 "/>
<polygon class="st39" points="339.4,32.9 349.5,27 347,25.5 336.9,31.4 "/>
<polygon class="st23" points="339.4,34.3 349.5,28.4 349.5,27 339.4,32.9 "/>
<polygon class="st39" points="346.9,38.6 357,32.8 349.5,28.4 339.4,34.3 "/>
<path class="st4" d="M336.9,31.4v1.4L301,12.1c-0.9-0.5-17.2-9.7-21.7,5.2c-0.8,2.5,1.2,6.5,3.8,8.1l4,2.3c2.9,1.8,5.1,4.3,6.6,7.4
	l2.6,5l21.3,12.3l4.2-3.1l9.2,5.3c2.3,10.5,6.9,20.4,13.3,29l1.4-0.8c-0.4-0.8-8.4-16-9.8-33.2c-0.2-2.7,1.5-3.9,3.7-2.6l7.4,4.3
	l-0.1-12.6l-7.5-4.3v-1.4L336.9,31.4z"/>
<polygon class="st23" points="347,51.3 357.1,45.4 357,32.8 346.9,38.6 "/>
<path class="st4" d="M354.2,37.4c-0.9-0.4-1.9-0.3-2.6,0.3c-2.2,1.4-3.5,3.8-3.7,6.4c-0.1,0.9,0.3,1.8,1.1,2.3l2.3,1.3
	c-0.8-0.5-1.2-1.4-1.1-2.4c0.1-2.6,1.5-4.9,3.7-6.3c0.8-0.6,1.8-0.6,2.6-0.2L354.2,37.4z"/>
<path class="st16" d="M353.9,38.9c-2.2,1.4-3.5,3.8-3.7,6.3c0,2.3,1.7,3.3,3.7,2.1c2.2-1.4,3.5-3.8,3.7-6.4
	C357.5,38.7,355.9,37.8,353.9,38.9z"/>
<path class="st4" d="M353.9,42c-0.6,0.4-1,1-1,1.8c0,0.7,0.5,0.9,1,0.6c0.6-0.4,1-1,1-1.8C354.9,41.9,354.4,41.7,353.9,42z"/>
<circle class="st5" cx="315" cy="155.1" r="10"/>
<circle class="st5" cx="304.9" cy="171.9" r="5.2"/>
<circle class="st5" cx="313.7" cy="181.9" r="3.6"/>
</svg>
