<svg id="Layer_1" data-name="Layer 1" xmlns="http://www.w3.org/2000/svg" xmlns:xlink="http://www.w3.org/1999/xlink" viewBox="0 0 854 415"><defs><style>.cls-1,.cls-7{fill:none;}.cls-2{isolation:isolate;}.cls-26,.cls-3{opacity:0.5;}.cls-4,.cls-6{fill:#5bb584;}.cls-19,.cls-21,.cls-5,.cls-6,.cls-9{opacity:0.3;}.cls-7{stroke:#2b4d61;stroke-miterlimit:10;stroke-width:2px;}.cls-26,.cls-8{fill:#fff;}.cls-9{fill:url(#linear-gradient);}.cls-10{fill:#606060;}.cls-11{fill:#2a6982;}.cls-12{fill:url(#linear-gradient-2);}.cls-13{fill:#56a2d6;}.cls-14{fill:#81d9fc;}.cls-15{fill:#cecece;}.cls-16{fill:#7a7c7a;}.cls-17{fill:#15223e;}.cls-18{fill:#4cb4e7;}.cls-19{fill:url(#linear-gradient-3);}.cls-20{fill:url(#linear-gradient-4);}.cls-21{fill:url(#linear-gradient-5);}.cls-22{fill:url(#linear-gradient-6);}.cls-23{clip-path:url(#clip-path);}.cls-24{fill:#cfeff9;}.cls-25{fill:#2b4d61;}.cls-27{fill:#7d9ab2;}.cls-28{fill:#de6f5a;}.cls-29{fill:#365363;}</style><linearGradient id="linear-gradient" x1="302.61" y1="93.77" x2="353.2" y2="181.4" gradientUnits="userSpaceOnUse"><stop offset="0.23" stop-opacity="0"/><stop offset="1"/></linearGradient><linearGradient id="linear-gradient-2" x1="411.93" y1="25.55" x2="412.69" y2="25.55" gradientUnits="userSpaceOnUse"><stop offset="0" stop-color="#4cb4e7" stop-opacity="0.97"/><stop offset="1" stop-color="#95d4ee" stop-opacity="0.98"/></linearGradient><linearGradient id="linear-gradient-3" x1="416.61" y1="115.77" x2="467.2" y2="203.4" xlink:href="#linear-gradient"/><linearGradient id="linear-gradient-4" x1="525.93" y1="47.55" x2="526.69" y2="47.55" xlink:href="#linear-gradient-2"/><linearGradient id="linear-gradient-5" x1="360.06" y1="157.65" x2="407.86" y2="240.45" xlink:href="#linear-gradient"/><linearGradient id="linear-gradient-6" x1="463.35" y1="93.2" x2="464.07" y2="93.2" xlink:href="#linear-gradient-2"/><clipPath id="clip-path"><path class="cls-1" d="M462.23,59H393.35V91.67c-1.57,6.09,1.72,12.53,9.84,17.22,13.57,7.84,35.49,7.84,49,0,6.88-4,10.22-9.26,10-14.5h0Z"/></clipPath></defs><g class="cls-2"><g class="cls-3"><path class="cls-4" d="M681,152l-.09,32.46c-.11,37.7-24.89,75.35-74.39,104.11-99.63,57.9-261.7,57.91-362,0C194.06,259.44,168.86,221.19,169,183l.09-32.46C169,188.73,194.15,227,244.62,256.11c100.29,57.91,262.36,57.9,362,0C656.11,227.35,680.89,189.7,681,152Z"/></g><g class="cls-5"><ellipse class="cls-4" cx="425.03" cy="151.27" rx="143.05" ry="246.97" transform="translate(272.55 575.87) rotate(-89.84)"/></g></g><ellipse class="cls-6" cx="425.01" cy="158.51" rx="92.67" ry="159.99" transform="translate(265.3 583.07) rotate(-89.84)"/><ellipse class="cls-7" cx="425.01" cy="158.51" rx="92.67" ry="159.99" transform="translate(265.3 583.07) rotate(-89.84)"/><circle class="cls-8" cx="430.7" cy="392.81" r="4.39"/><path class="cls-9" d="M356.48,175.63s-58-12.51-99.61-55.46l47.74-24.9C358,91.36,398.94,155,398.94,155Z"/><ellipse class="cls-10" cx="374.69" cy="162.53" rx="22.4" ry="12.98" transform="translate(-0.46 1.06) rotate(-0.16)"/><path class="cls-11" d="M345.51,170.23c-7.39-10.66-7.46-36.36-7.46-37.71l-.12-41.26c0-1.11-.06-22.15,6.9-40.47-11.65-7-14.32-17.14-8.16-25.59-.75,1.05-1.74,2.46-2.38,3.58a58.19,58.19,0,0,0-3.18,6.08A72.67,72.67,0,0,0,327.75,44c-.72,2.58-1.09,3.88-1.48,5.7-.61,2.87-.93,4.48-1.41,7.78a103.07,103.07,0,0,0-1,13.58l.11,41.27c0,3.59.3,7.84.54,10.38.07.75.28,3,.58,5.21.37,2.71.46,3.25.91,5.85.34,1.94.37,2.1,1.34,6.32.21.94.56,2.18.82,3.11,1,3.77,2.45,7.35,2.46,7.38a60,60,0,0,0,3.53,7.5c.48.85,1.14,2,1.68,2.77.74,1.09,1.76,2.52,2.57,3.55a34.84,34.84,0,0,0,4.17,4.25c1,.82,2.33,1.83,3.36,2.57.54.39,1.32.84,1.89,1.21A7.59,7.59,0,0,1,345.51,170.23Z"/><path class="cls-10" d="M415.18,30.14c0-5.88-3.79-11.76-11.37-16.33-15.63-9.4-41.51-9.66-57.79-.58-8.39,4.67-12.6,10.91-12.58,17.15V26.29c0-6.23,4.19-12.47,12.57-17.15,16.29-9.08,42.17-8.82,57.79.59,7.59,4.56,11.37,10.44,11.38,16.33C415.18,27.28,415.18,28.91,415.18,30.14Z"/><path class="cls-12" d="M412.69,26.11c-.24-.38-.48-.75-.76-1.12C412.17,25.34,412.43,25.71,412.69,26.11Z"/><path class="cls-13" d="M425,70.76a99.9,99.9,0,0,0-.79-11.31c-.19-1.44-.48-3.35-.71-4.79-.13-.82-.35-1.9-.51-2.72s-.42-2-.62-2.86-.45-1.95-.69-2.77-.61-2.2-.9-3.13-.65-2-1-2.87A66.58,66.58,0,0,0,417.27,34c-.54-1.18-1.31-2.72-2-3.83s-1.71-2.77-2.61-4.1c5.42,8.54,2,18.53-10.07,25.26-16.29,9.09-42.16,8.82-57.79-.58-7,18.32-6.9,39.36-6.9,40.47l.12,41.26c0,1.35.07,27,7.46,37.71a7.59,7.59,0,0,0,2.3,2.19c.88.51,2.08,1.18,3,1.64s1.85.89,2.67,1.22a46.7,46.7,0,0,0,7.43,2.44c1.29.34,4,.87,5.18,1,.78.1,1.82.26,2.61.32,1.58.12,3.68.27,5.27.29.79,0,1.85,0,2.64,0s1.85-.1,2.64-.15,1.87-.18,2.67-.27a52.94,52.94,0,0,0,5.33-.93c.89-.21,2.08-.48,2.95-.75,1.46-.45,3.38-1.11,4.81-1.64.93-.35,2.13-.92,3-1.34.67-.32,1.53-.79,2.18-1.14a39.73,39.73,0,0,0,5.69-3.83,34.39,34.39,0,0,0,4.62-4.52c.7-.8,1.54-1.95,2.15-2.82s1.24-1.87,1.73-2.69a54.16,54.16,0,0,0,3.32-6.53c.42-1,1-2.42,1.39-3.49.64-1.86,1.46-4.38,2-6.28.28-1,.62-2.32.85-3.33.77-3.46.77-3.46,1.27-6.24.15-.84.47-2.7.87-5.8.28-2.2.48-4.44.54-5.18.14-1.6.47-5.81.47-10.35Z"/><path class="cls-14" d="M425,70.76a99.9,99.9,0,0,0-.79-11.31c-.19-1.44-.48-3.35-.71-4.79-.13-.82-.35-1.9-.51-2.72s-.42-2-.62-2.86-.45-1.95-.69-2.77-.61-2.2-.9-3.13-.65-2-1-2.87A66.58,66.58,0,0,0,417.27,34c-.54-1.18-1.31-2.72-2-3.83s-1.71-2.77-2.61-4.1c3.59,5.66,3.28,11.94-.83,17.5.64,1.44,1.14,2.69,1.9,4.8.31.85.69,2,.95,2.86s.64,2.19.91,3.13.5,2,.69,2.78.46,2,.62,2.86.38,1.9.51,2.72c.23,1.43.51,3.35.71,4.78a100.76,100.76,0,0,1,.78,11.32l.12,41.26c0,4.54-.33,8.75-.47,10.35-.07.73-.26,3-.55,5.18-.39,3.09-.71,5-.86,5.8-.51,2.78-.51,2.78-1.28,6.24-.22,1-.56,2.34-.85,3.33-.54,1.9-1.35,4.41-2,6.28-.37,1.06-1,2.44-1.38,3.48a54.23,54.23,0,0,1-3,6,27.59,27.59,0,0,0,1.88-2c.7-.8,1.54-1.95,2.15-2.82s1.24-1.87,1.73-2.69a54.16,54.16,0,0,0,3.32-6.53c.42-1,1-2.42,1.39-3.49.64-1.86,1.46-4.38,2-6.28.28-1,.62-2.32.85-3.33.77-3.46.77-3.46,1.27-6.24.15-.84.47-2.7.87-5.8.28-2.2.48-4.44.54-5.18.14-1.6.47-5.81.47-10.35Z"/><path class="cls-8" d="M342.16,48.26c-17-10.25-16.45-26.59,1.31-36.49s46-9.62,63,.64S422.91,39,405.16,48.9,359.2,58.51,342.16,48.26Zm3.73-2.08c15.06,9.06,40,9.31,55.69.56s16.21-23.19,1.15-32.25-40-9.32-55.68-.57-16.22,23.2-1.16,32.26"/><path class="cls-15" d="M345,46.5c-10.82-9-12.11-24.69,2.05-32.58,11.59-6.46,28.22-8,42.2-4.72q2.76-1,5.49-1.84c-16.46-4.89-37.16-3.46-51.27,4.41-17.71,9.87-18.34,26.14-1.45,36.4C342,48.5,345,46.5,345,46.5Z"/><path class="cls-16" d="M329.77,34.4V30.46c0,6.41,4.13,12.82,12.4,17.8V52.2C333.91,47.22,329.79,40.81,329.77,34.4Z"/><ellipse class="cls-14" cx="374.31" cy="30.26" rx="36.78" ry="21.31" transform="translate(-0.08 1.06) rotate(-0.16)"/><path class="cls-11" d="M401.21,15.69c6.94,8.1,4.37,18.21-7.5,24.83-14.66,8.18-37.95,7.94-52-.52l-.36-.23a26,26,0,0,0,6.43,5.29c14.06,8.46,37.35,8.7,52,.53S414.9,24.16,401.21,15.69Z"/><path class="cls-10" d="M337.52,26.28c0,5.29,3.41,10.59,10.24,14.7v4.08c-6.83-4.11-10.23-9.4-10.24-14.69Z"/><path class="cls-11" d="M411.08,26.07l0,4.08c0-5.29-3.42-10.58-10.24-14.69-14.07-8.47-37.35-8.7-52-.53-7.55,4.21-11.34,9.82-11.32,15.44V26.28c0-5.61,3.77-11.23,11.31-15.43,14.66-8.18,37.95-7.94,52,.52C407.67,15.48,411.07,20.77,411.08,26.07Z"/><path class="cls-10" d="M411.1,30.15c0,5.61-3.78,11.23-11.32,15.44-14.66,8.17-37.95,7.93-52-.53V41c14.06,8.46,37.35,8.7,52,.52,7.54-4.21,11.33-9.82,11.31-15.43C411.09,27.29,411.09,28.93,411.1,30.15Z"/><path class="cls-11" d="M415.17,26.06v4.08c0,6.24-4.19,12.47-12.57,17.15-16.29,9.08-42.16,8.82-57.79-.59V42.62c15.62,9.4,41.5,9.67,57.79.58C411,38.53,415.19,32.29,415.17,26.06Z"/><path class="cls-15" d="M418.87,30.2v3.94c0,6.8-4.57,13.6-13.71,18.69-17.76,9.9-46,9.62-63-.63V48.26c17,10.25,45.24,10.54,63,.64C414.3,43.8,418.89,37,418.87,30.2Z"/><path class="cls-17" d="M333.44,30.38V26.29c0,5.88,3.79,11.76,11.38,16.33V46.7C337.23,42.14,333.46,36.26,333.44,30.38Z"/><path class="cls-18" d="M344.81,42.62C329.18,33.21,329.72,18.23,346,9.14s42.17-8.82,57.79.59,15.09,24.39-1.19,33.47S360.43,52,344.81,42.62ZM347.76,41c14.06,8.46,37.35,8.7,52,.52s15.14-21.66,1.07-30.13-37.35-8.7-52-.52S333.69,32.51,347.76,41"/><path class="cls-19" d="M470.48,197.63s-58-12.51-99.61-55.46l47.74-24.9C472,113.36,512.94,177,512.94,177Z"/><ellipse class="cls-10" cx="488.69" cy="184.53" rx="22.4" ry="12.98" transform="translate(-0.52 1.39) rotate(-0.16)"/><path class="cls-11" d="M459.51,192.23c-7.39-10.66-7.46-36.36-7.46-37.71l-.12-41.26c0-1.11-.06-22.15,6.9-40.47-11.65-7-14.32-17.14-8.16-25.59-.75,1-1.74,2.46-2.38,3.58a58.19,58.19,0,0,0-3.18,6.08A72.67,72.67,0,0,0,441.75,66c-.72,2.58-1.09,3.88-1.48,5.7-.61,2.87-.93,4.48-1.41,7.78a103.07,103.07,0,0,0-1,13.58l.11,41.27c0,3.59.3,7.84.54,10.38.07.75.28,3,.58,5.21.37,2.71.46,3.25.91,5.85.34,1.94.37,2.1,1.34,6.32.21.94.56,2.18.82,3.11,1,3.77,2.45,7.35,2.46,7.38a60,60,0,0,0,3.53,7.5c.48.85,1.14,2,1.68,2.77.74,1.09,1.76,2.52,2.57,3.55a34.84,34.84,0,0,0,4.17,4.25c1,.82,2.33,1.83,3.36,2.57.54.39,1.32.84,1.89,1.21A7.59,7.59,0,0,1,459.51,192.23Z"/><path class="cls-10" d="M529.18,52.14c0-5.88-3.79-11.76-11.37-16.33-15.63-9.4-41.51-9.66-57.79-.58-8.39,4.67-12.6,10.91-12.58,17.15V48.29c0-6.23,4.19-12.47,12.57-17.15,16.29-9.08,42.17-8.82,57.79.59,7.59,4.56,11.37,10.44,11.38,16.33C529.18,49.28,529.18,50.91,529.18,52.14Z"/><path class="cls-20" d="M526.69,48.11c-.24-.38-.48-.75-.76-1.12C526.17,47.34,526.43,47.71,526.69,48.11Z"/><path class="cls-13" d="M539,92.76a99.9,99.9,0,0,0-.79-11.31c-.19-1.44-.48-3.35-.71-4.79-.13-.82-.35-1.9-.51-2.72s-.42-2-.62-2.86-.45-2-.69-2.77-.61-2.2-.9-3.13-.65-2-.95-2.87A66.58,66.58,0,0,0,531.27,56c-.54-1.18-1.31-2.72-2-3.83s-1.71-2.77-2.61-4.1c5.42,8.54,2,18.53-10.07,25.26-16.29,9.09-42.16,8.82-57.79-.58-7,18.32-6.9,39.36-6.9,40.47l.12,41.26c0,1.35.07,27,7.46,37.71a7.59,7.59,0,0,0,2.3,2.19c.88.51,2.08,1.18,3,1.64s1.85.89,2.67,1.22a46.7,46.7,0,0,0,7.43,2.44c1.29.34,4,.87,5.18,1,.78.1,1.82.26,2.61.32,1.58.12,3.68.27,5.27.29.79,0,1.85,0,2.64,0s1.85-.1,2.64-.15,1.87-.18,2.67-.27a52.94,52.94,0,0,0,5.33-.93c.89-.21,2.08-.48,2.95-.75,1.46-.45,3.38-1.11,4.81-1.64.93-.35,2.13-.92,3-1.34.67-.32,1.53-.79,2.18-1.14a39.73,39.73,0,0,0,5.69-3.83,34.39,34.39,0,0,0,4.62-4.52c.7-.8,1.54-1.95,2.15-2.82s1.24-1.87,1.73-2.69a54.16,54.16,0,0,0,3.32-6.53c.42-1,1-2.42,1.39-3.49.64-1.86,1.46-4.38,2-6.28.28-1,.62-2.32.85-3.33.77-3.46.77-3.46,1.27-6.24.15-.84.47-2.7.87-5.8.28-2.2.48-4.44.54-5.18.14-1.6.47-5.81.47-10.35Z"/><path class="cls-14" d="M539,92.76a99.9,99.9,0,0,0-.79-11.31c-.19-1.44-.48-3.35-.71-4.79-.13-.82-.35-1.9-.51-2.72s-.42-2-.62-2.86-.45-2-.69-2.77-.61-2.2-.9-3.13-.65-2-.95-2.87A66.58,66.58,0,0,0,531.27,56c-.54-1.18-1.31-2.72-2-3.83s-1.71-2.77-2.61-4.1c3.59,5.66,3.28,11.94-.83,17.5.64,1.44,1.14,2.69,1.9,4.8.31.85.69,2,1,2.86s.64,2.19.91,3.13.5,1.95.69,2.78.46,2,.62,2.86.38,1.9.51,2.72c.23,1.43.51,3.35.71,4.78a100.76,100.76,0,0,1,.78,11.32l.12,41.26c0,4.54-.33,8.75-.47,10.35-.07.73-.26,3-.55,5.18-.39,3.09-.71,5-.86,5.8-.51,2.78-.51,2.78-1.28,6.24-.22,1-.56,2.34-.85,3.33-.54,1.9-1.35,4.41-2,6.28-.37,1.06-1,2.44-1.38,3.48a54.23,54.23,0,0,1-3,6,27.59,27.59,0,0,0,1.88-2c.7-.8,1.54-1.95,2.15-2.82s1.24-1.87,1.73-2.69a54.16,54.16,0,0,0,3.32-6.53c.42-1,1-2.42,1.39-3.49.64-1.86,1.46-4.38,2-6.28.28-1,.62-2.32.85-3.33.77-3.46.77-3.46,1.27-6.24.15-.84.47-2.7.87-5.8.28-2.2.48-4.44.54-5.18.14-1.6.47-5.81.47-10.35Z"/><path class="cls-8" d="M456.16,70.26c-17-10.25-16.45-26.59,1.31-36.49s46-9.62,63,.64S536.91,61,519.16,70.9,473.2,80.51,456.16,70.26Zm3.73-2.08c15.06,9.06,40,9.31,55.69.56s16.21-23.19,1.15-32.25-40-9.32-55.68-.57-16.22,23.2-1.16,32.26"/><path class="cls-15" d="M459,68.5c-10.82-9-12.11-24.69,2.05-32.58,11.59-6.46,28.22-8,42.2-4.72q2.76-1.05,5.49-1.84c-16.46-4.89-37.16-3.46-51.27,4.41-17.71,9.87-18.34,26.14-1.45,36.4C456,70.5,459,68.5,459,68.5Z"/><path class="cls-16" d="M443.77,56.4V52.46c0,6.41,4.13,12.82,12.4,17.8V74.2C447.91,69.22,443.79,62.81,443.77,56.4Z"/><ellipse class="cls-14" cx="488.31" cy="52.26" rx="36.78" ry="21.31" transform="translate(-0.15 1.38) rotate(-0.16)"/><path class="cls-11" d="M515.21,37.69c6.94,8.1,4.37,18.21-7.5,24.83-14.66,8.18-37.95,7.94-52-.52l-.36-.23a26,26,0,0,0,6.43,5.29c14.06,8.46,37.35,8.7,52,.53S528.9,46.16,515.21,37.69Z"/><path class="cls-10" d="M451.52,48.28c0,5.29,3.41,10.59,10.24,14.7v4.08c-6.83-4.11-10.23-9.4-10.24-14.69Z"/><path class="cls-11" d="M525.08,48.07l0,4.08c0-5.29-3.42-10.58-10.24-14.69-14.07-8.47-37.35-8.7-52-.53-7.55,4.21-11.34,9.82-11.32,15.44V48.28c0-5.61,3.77-11.23,11.31-15.43,14.66-8.18,37.95-7.94,52,.52C521.67,37.48,525.07,42.77,525.08,48.07Z"/><path class="cls-10" d="M525.1,52.15c0,5.61-3.78,11.23-11.32,15.44-14.66,8.17-37.95,7.93-52-.53V63c14.06,8.46,37.35,8.7,52,.52,7.54-4.21,11.33-9.82,11.31-15.43C525.09,49.29,525.09,50.93,525.1,52.15Z"/><path class="cls-11" d="M529.17,48.06v4.08c0,6.24-4.19,12.47-12.57,17.15-16.29,9.08-42.16,8.82-57.79-.59V64.62c15.62,9.4,41.5,9.67,57.79.58C525,60.53,529.19,54.29,529.17,48.06Z"/><path class="cls-15" d="M532.87,52.2v3.94c0,6.8-4.57,13.6-13.71,18.69-17.76,9.9-46,9.62-63-.63V70.26c17,10.25,45.24,10.54,63,.64C528.3,65.8,532.89,59,532.87,52.2Z"/><path class="cls-17" d="M447.44,52.38V48.29c0,5.88,3.79,11.76,11.38,16.33V68.7C451.23,64.14,447.46,58.26,447.44,52.38Z"/><path class="cls-18" d="M458.81,64.62c-15.63-9.41-15.09-24.39,1.19-33.48s42.17-8.82,57.79.59,15.09,24.39-1.19,33.47S474.43,74,458.81,64.62ZM461.76,63c14.06,8.46,37.35,8.7,52,.52s15.14-21.66,1.07-30.13-37.35-8.7-52-.52S447.69,54.51,461.76,63"/><path class="cls-21" d="M411,235s-54.8-11.82-94.11-52.4L362,159.07c50.46-3.69,89.12,56.43,89.12,56.43Z"/><ellipse class="cls-10" cx="428.16" cy="222.62" rx="21.17" ry="12.26" transform="translate(-0.63 1.21) rotate(-0.16)"/><path class="cls-11" d="M400.6,229.9c-7-10.08-7.05-34.36-7.06-35.63l-.11-39c0-1-.06-20.93,6.53-38.23-11-6.63-13.53-16.19-7.72-24.18-.7,1-1.63,2.32-2.24,3.38a54.79,54.79,0,0,0-3,5.75,69.43,69.43,0,0,0-3.17,8.62c-.69,2.44-1,3.67-1.4,5.39-.58,2.71-.88,4.23-1.33,7.35a96,96,0,0,0-1,12.83l.11,39c0,3.39.28,7.41.51,9.81.06.71.27,2.85.54,4.92.35,2.56.44,3.07.87,5.53.31,1.83.35,2,1.26,6,.2.89.53,2.06.77,2.94,1,3.56,2.32,6.94,2.33,7a54.88,54.88,0,0,0,3.34,7.08c.45.81,1.07,1.86,1.58,2.62.7,1,1.67,2.38,2.43,3.36a33.17,33.17,0,0,0,3.94,4c.91.78,2.2,1.73,3.17,2.43.52.37,1.25.8,1.79,1.14A7,7,0,0,1,400.6,229.9Z"/><path class="cls-10" d="M466.42,97.54c0-5.56-3.58-11.11-10.75-15.43-14.76-8.88-39.21-9.13-54.59-.55-7.92,4.42-11.9,10.31-11.89,16.2V93.9c0-5.89,4-11.78,11.88-16.2,15.39-8.58,39.84-8.33,54.6.55,7.17,4.32,10.74,9.87,10.75,15.43Z"/><path class="cls-22" d="M464.07,93.73c-.22-.36-.46-.71-.72-1.06Z"/><path class="cls-13" d="M475.71,135.92a94,94,0,0,0-.75-10.69c-.18-1.36-.45-3.17-.67-4.52-.12-.78-.33-1.8-.48-2.57s-.39-1.9-.58-2.7-.44-1.85-.66-2.63-.58-2.07-.85-3-.61-1.9-.9-2.7c-.95-2.63-1.47-3.84-2.42-5.93-.51-1.11-1.25-2.57-1.87-3.62s-1.61-2.61-2.46-3.87c5.12,8.07,1.9,17.5-9.52,23.87-15.39,8.58-39.83,8.33-54.59-.55-6.59,17.3-6.53,37.19-6.53,38.23l.11,39c0,1.27.08,25.55,7.06,35.63a7,7,0,0,0,2.17,2.06c.84.49,2,1.12,2.83,1.55s1.75.85,2.53,1.16a44.56,44.56,0,0,0,7,2.3,49.31,49.31,0,0,0,4.89.95c.74.1,1.72.25,2.47.31,1.49.11,3.48.25,5,.27.75,0,1.75,0,2.5,0s1.74-.1,2.49-.14,1.77-.18,2.53-.26c1-.11,3.56-.53,5-.88.84-.2,2-.46,2.78-.71,1.38-.42,3.2-1,4.55-1.55.87-.33,2-.86,2.86-1.27.63-.3,1.45-.74,2.06-1.07a38.22,38.22,0,0,0,5.37-3.62A32.55,32.55,0,0,0,462,224.7c.66-.76,1.45-1.84,2-2.66s1.17-1.77,1.64-2.55a52.36,52.36,0,0,0,3.13-6.17c.4-1,1-2.29,1.31-3.29.61-1.77,1.38-4.14,1.89-5.94.27-.93.59-2.19.8-3.14.73-3.27.73-3.27,1.21-5.9.14-.79.44-2.55.81-5.48.27-2.08.46-4.2.52-4.9.13-1.5.44-5.48.45-9.77Z"/><path class="cls-14" d="M475.71,135.92a94,94,0,0,0-.75-10.69c-.18-1.36-.45-3.17-.67-4.52-.12-.78-.33-1.8-.48-2.57s-.39-1.9-.58-2.7-.44-1.85-.66-2.63-.58-2.07-.85-3-.61-1.9-.9-2.7c-.95-2.64-1.47-3.84-2.42-5.93-.51-1.11-1.25-2.57-1.87-3.62s-1.61-2.61-2.46-3.87c3.39,5.34,3.1,11.28-.78,16.53.6,1.37,1.08,2.54,1.79,4.54.29.8.65,1.89.9,2.7s.6,2.07.85,3,.48,1.84.66,2.63.43,1.89.59,2.7.35,1.79.47,2.57c.22,1.35.49,3.16.68,4.52a94.67,94.67,0,0,1,.74,10.69l.11,39c0,4.29-.31,8.27-.45,9.77-.06.7-.25,2.83-.51,4.9-.38,2.93-.68,4.69-.82,5.48-.48,2.63-.48,2.63-1.2,5.9-.21,1-.54,2.21-.81,3.14-.51,1.8-1.28,4.17-1.89,5.94-.35,1-.91,2.31-1.31,3.29a51.86,51.86,0,0,1-2.83,5.66c.86-.87,1.46-1.57,1.77-1.93.66-.76,1.45-1.84,2-2.66s1.17-1.77,1.64-2.55a52.36,52.36,0,0,0,3.13-6.17c.4-1,1-2.29,1.31-3.29.61-1.77,1.38-4.14,1.89-5.94.27-.93.59-2.19.8-3.14.73-3.27.73-3.27,1.21-5.9.14-.79.44-2.55.81-5.48.27-2.08.46-4.2.52-4.9.13-1.5.44-5.48.45-9.77Z"/><path class="cls-8" d="M397.43,114.66c-16.09-9.69-15.54-25.12,1.24-34.48s43.42-9.08,59.51.6,15.55,25.13-1.23,34.48S413.53,124.34,397.43,114.66Zm3.53-2c14.23,8.57,37.78,8.8,52.61.53s15.32-21.91,1.09-30.47-37.78-8.8-52.61-.53-15.32,21.91-1.09,30.47"/><path class="cls-16" d="M385.73,101.56V97.84c0,6.06,3.9,12.12,11.71,16.82l0,3.72C389.63,113.67,385.74,107.62,385.73,101.56Z"/><ellipse class="cls-11" cx="427.81" cy="97.65" rx="34.75" ry="20.13" transform="translate(-0.28 1.21) rotate(-0.16)"/><path class="cls-10" d="M393,93.89c0,5,3.23,10,9.68,13.89v3.85c-6.45-3.88-9.66-8.88-9.67-13.88Z"/><path class="cls-15" d="M401,112.7h0c-14.23-8.56-13.74-22.2,1.09-30.47a42.29,42.29,0,0,1,6.77-3l.09-3.27a49.22,49.22,0,0,0-10.24,4.21c-16.66,9.29-17.31,24.57-1.56,34.27Z"/><path class="cls-11" d="M462.55,93.69v3.86c0-5-3.22-10-9.67-13.88-13.29-8-35.29-8.22-49.14-.5-7.13,4-10.71,9.28-10.69,14.58l0-3.86c0-5.3,3.57-10.6,10.7-14.58,13.85-7.72,35.85-7.5,49.14.5C459.33,83.69,462.54,88.69,462.55,93.69Z"/><path class="cls-10" d="M462.56,97.55c0,5.3-3.56,10.61-10.69,14.58-13.85,7.72-35.85,7.5-49.14-.5v-3.85c13.29,8,35.29,8.22,49.14.49,7.13-4,10.71-9.28,10.69-14.58Z"/><path class="cls-11" d="M466.41,93.68v3.86c0,5.89-4,11.78-11.88,16.2-15.39,8.58-39.83,8.33-54.6-.55v-3.86c14.77,8.89,39.21,9.13,54.6.55C462.45,105.47,466.43,99.57,466.41,93.68Z"/><path class="cls-15" d="M469.9,97.6v3.72c0,6.42-4.31,12.84-13,17.66-16.77,9.35-43.42,9.08-59.51-.6l0-3.72c16.1,9.68,42.75,10,59.52.6C465.59,110.45,469.92,104,469.9,97.6Z"/><path class="cls-17" d="M389.19,97.76V93.9c0,5.56,3.59,11.12,10.75,15.43v3.86C392.78,108.88,389.21,103.32,389.19,97.76Z"/><g class="cls-23"><circle class="cls-8" cx="403.65" cy="108.56" r="1.93"/><circle class="cls-8" cx="413.31" cy="111.78" r="1.93"/><circle class="cls-8" cx="422.32" cy="113.07" r="1.93"/><circle class="cls-8" cx="418.17" cy="109.44" r="1.93"/><circle class="cls-8" cx="395.38" cy="99.08" r="1.93"/><circle class="cls-8" cx="417.66" cy="114.62" r="1.93"/><circle class="cls-8" cx="430.61" cy="114.62" r="1.93"/><circle class="cls-8" cx="458.58" cy="99.08" r="1.93"/><circle class="cls-8" cx="416.32" cy="85.2" r="1.93"/><circle class="cls-8" cx="429.79" cy="89.34" r="1.93"/><circle class="cls-8" cx="432.9" cy="88.31" r="1.93"/><circle class="cls-8" cx="453.1" cy="97.63" r="1.93"/><circle class="cls-8" cx="446.89" cy="96.08" r="1.93"/><circle class="cls-8" cx="456.73" cy="97.63" r="1.93"/><circle class="cls-8" cx="417.88" cy="89.34" r="1.93"/><circle class="cls-8" cx="422.02" cy="89.86" r="1.93"/><circle class="cls-8" cx="442.74" cy="94.01" r="1.93"/><circle class="cls-8" cx="439.63" cy="92.97" r="1.93"/><circle class="cls-8" cx="441.19" cy="90.9" r="1.93"/><circle class="cls-8" cx="455.69" cy="94.52" r="1.93"/><circle class="cls-8" cx="400.26" cy="89.86" r="1.93"/><circle class="cls-8" cx="425.65" cy="89.34" r="1.93"/><circle class="cls-8" cx="424.09" cy="86.75" r="1.93"/><circle class="cls-8" cx="429.27" cy="88.31" r="1.93"/><circle class="cls-8" cx="427.2" cy="86.75" r="1.93"/><circle class="cls-8" cx="431.86" cy="84.16" r="1.93"/><circle class="cls-8" cx="461.91" cy="99.7" r="1.93"/><circle class="cls-8" cx="453.62" cy="97.11" r="1.93"/><circle class="cls-8" cx="437.56" cy="90.9" r="1.93"/><circle class="cls-8" cx="438.08" cy="89.34" r="1.93"/><circle class="cls-8" cx="440.67" cy="87.27" r="1.93"/><circle class="cls-8" cx="449.99" cy="89.86" r="1.93"/><circle class="cls-8" cx="432.9" cy="90.9" r="1.93"/><circle class="cls-8" cx="431.86" cy="89.34" r="1.93"/><circle class="cls-8" cx="420.98" cy="87.79" r="1.93"/><circle class="cls-8" cx="435.49" cy="88.82" r="1.93"/><circle class="cls-8" cx="448.96" cy="96.6" r="1.93"/><circle class="cls-8" cx="451.03" cy="96.08" r="1.93"/><circle class="cls-8" cx="444.3" cy="94.52" r="1.93"/><circle class="cls-8" cx="444.3" cy="92.97" r="1.93"/><circle class="cls-8" cx="447.92" cy="93.49" r="1.93"/><circle class="cls-8" cx="449.99" cy="94.01" r="1.93"/><circle class="cls-8" cx="452.58" cy="94.52" r="1.93"/><circle class="cls-8" cx="460.35" cy="99.19" r="1.93"/><circle class="cls-8" cx="397.21" cy="96.36" r="1.93"/><circle class="cls-8" cx="401.88" cy="93.77" r="1.93"/><circle class="cls-8" cx="409.13" cy="91.7" r="1.93"/><circle class="cls-8" cx="410.68" cy="89.63" r="1.93"/><circle class="cls-8" cx="405.5" cy="93.25" r="1.93"/><circle class="cls-8" cx="407.57" cy="90.15" r="1.93"/><circle class="cls-8" cx="399.8" cy="95.84" r="1.93"/><circle class="cls-8" cx="412.24" cy="92.22" r="1.93"/><circle class="cls-8" cx="414.31" cy="89.11" r="1.93"/><polygon class="cls-8" points="391.74 101.99 406.25 91.63 417.64 89.04 429.27 88.31 444.06 93.19 458.57 98.89 462.19 100.96 463.75 114.94 412.98 127.89 390.71 108.73 391.74 101.99"/><circle class="cls-24" cx="456.58" cy="104.52" r="1.93"/><circle class="cls-24" cx="452.58" cy="108.52" r="1.93"/><circle class="cls-24" cx="446.58" cy="110.52" r="1.93"/><circle class="cls-24" cx="450.58" cy="107.52" r="1.93"/><circle class="cls-24" cx="453.58" cy="105.52" r="1.93"/><circle class="cls-24" cx="448.58" cy="109.52" r="1.93"/><circle class="cls-24" cx="457.58" cy="99.52" r="1.93"/><circle class="cls-24" cx="455.58" cy="100.52" r="1.93"/><circle class="cls-24" cx="446.58" cy="108.52" r="1.93"/><circle class="cls-24" cx="437.58" cy="112.52" r="1.93"/><circle class="cls-24" cx="434.58" cy="114.52" r="1.93"/><circle class="cls-24" cx="453.58" cy="102.52" r="1.93"/><circle class="cls-24" cx="457.58" cy="101.52" r="1.93"/><circle class="cls-24" cx="451.58" cy="104.52" r="1.93"/><circle class="cls-24" cx="442.58" cy="110.52" r="1.93"/><circle class="cls-24" cx="455.58" cy="102.52" r="1.93"/><circle class="cls-24" cx="440.58" cy="112.52" r="1.93"/><circle class="cls-24" cx="437.58" cy="114.52" r="1.93"/><circle class="cls-24" cx="443.58" cy="112.52" r="1.93"/><circle class="cls-24" cx="444.58" cy="111.52" r="1.93"/><circle class="cls-24" cx="460.58" cy="98.52" r="1.93"/><circle class="cls-24" cx="460.58" cy="100.52" r="1.93"/></g><path class="cls-18" d="M399.93,109.33c-14.76-8.89-14.25-23,1.13-31.63s39.84-8.33,54.6.55,14.26,23-1.13,31.63S414.7,118.22,399.93,109.33Zm2.79-1.55c13.29,8,35.29,8.22,49.14.49s14.3-20.46,1-28.46-35.29-8.22-49.14-.5-14.31,20.47-1,28.47"/><circle class="cls-25" cx="429" cy="251.5" r="7"/><line class="cls-7" x1="429" y1="413.5" x2="429" y2="247.5"/><path class="cls-25" d="M428.07,413.3l-9.55-9.56a1.31,1.31,0,0,1,.93-2.24h19.1a1.31,1.31,0,0,1,.93,2.24l-9.55,9.56A1.32,1.32,0,0,1,428.07,413.3Z"/><path class="cls-26" d="M410.25,186.58a88.46,88.46,0,0,0,37.5,0,2.87,2.87,0,0,0,2.25-2.82V154.3a2.88,2.88,0,0,0-3.45-2.83,89,89,0,0,1-35.1,0A2.88,2.88,0,0,0,408,154.3v29.46A2.87,2.87,0,0,0,410.25,186.58Z"/><path class="cls-27" d="M426.13,171.72l6.25,1.87v0l.23.07.17-.16,4.37-4.08a.43.43,0,0,1,.38-.09l5.23,1.52a.4.4,0,0,0,.49-.26h0a.41.41,0,0,0-.27-.5l-5.66-1.64a.38.38,0,0,0-.38.09h0l-4.54,4.23-6-1.8-1.47-6.1,4.43-4.12-.53-.58-4.44,4.12-5.3-1.61v0h0l-.23.75,5.31,1.61,1.46,6.1-4.23,4.11-.16.16,1.48,6.05.77-.18-1.38-5.61Z"/><polygon class="cls-27" points="431.55 173.82 432.89 179.96 433.66 179.78 432.32 173.64 431.55 173.82"/><polygon class="cls-27" points="433.77 173.47 433 173.65 434.35 179.79 435.12 179.61 433.77 173.47"/><circle class="cls-8" cx="429.12" cy="160.44" r="1.77"/><circle class="cls-8" cx="418.85" cy="162.94" r="1.77"/><circle class="cls-28" cx="437.23" cy="168.78" r="2.23"/><circle class="cls-28" cx="421.61" cy="175.53" r="2.23"/><circle class="cls-28" cx="433.85" cy="179.35" r="2.23"/><circle class="cls-8" cx="422.99" cy="181.21" r="1.77"/><circle class="cls-8" cx="428.03" cy="169.58" r="1.77"/><circle class="cls-8" cx="423.87" cy="161.87" r="1.77"/><circle class="cls-8" cx="443.24" cy="170.59" r="1.77"/><circle class="cls-29" cx="424.59" cy="164.66" r="2.62"/><circle class="cls-29" cx="432.6" cy="173.11" r="2.62"/><circle class="cls-29" cx="426.05" cy="171.22" r="2.62"/></svg>