<svg id="Layer_1" data-name="Layer 1" xmlns="http://www.w3.org/2000/svg" xmlns:xlink="http://www.w3.org/1999/xlink" viewBox="0 0 854 415"><defs><style>.cls-1,.cls-18{fill:none;}.cls-2{isolation:isolate;}.cls-3,.cls-6{opacity:0.5;}.cls-4{fill:#52b4c0;}.cls-5{opacity:0.3;}.cls-12,.cls-6{fill:#aadfec;}.cls-7{fill:#fff;}.cls-8{fill:#e6f9d4;}.cls-9{fill:#b6db8a;}.cls-10{fill:#6cc684;}.cls-11{fill:#7d9ab2;}.cls-13{fill:#f8fcf0;}.cls-14{clip-path:url(#clip-path);}.cls-15{fill:#de6f5a;}.cls-16{fill:#365363;}.cls-17{fill:#2b4d61;}.cls-18{stroke:#2b4d61;stroke-miterlimit:10;stroke-width:2px;}</style><clipPath id="clip-path"><circle class="cls-1" cx="428.85" cy="142.15" r="33.88"/></clipPath></defs><g class="cls-2"><g class="cls-3"><path class="cls-4" d="M681,148.5,680.91,181c-.11,37.7-24.89,75.35-74.39,104.11-99.63,57.9-261.7,57.91-362,0C194.06,255.94,168.86,217.69,169,179.5l.09-32.46c-.11,38.19,25.09,76.44,75.56,105.57,100.29,57.91,262.36,57.9,362,0C656.11,223.85,680.89,186.2,681,148.5Z"/></g><g class="cls-5"><ellipse class="cls-4" cx="425.03" cy="147.77" rx="143.05" ry="246.97" transform="translate(276.05 572.38) rotate(-89.84)"/></g></g><path class="cls-6" d="M608.85,133.36c-.08-26.24-17-52.48-50.8-72.84-2.57-1.55-5.22-3-7.9-4.45-.82-.44-1.65-.85-2.48-1.28q-2.94-1.51-6-2.94c-.89-.43-1.79-.85-2.69-1.26q-3.5-1.58-7.08-3.05l-1.59-.67q-4.4-1.75-8.92-3.33c-.8-.29-1.62-.55-2.44-.83q-3.4-1.16-6.87-2.22c-1-.31-2-.62-3.06-.91q-3.51-1-7.09-2c-.83-.22-1.66-.45-2.5-.66-3.19-.8-6.4-1.55-9.65-2.24l-1.91-.37q-4-.83-8-1.52l-3.21-.54q-3.6-.59-7.23-1.09l-3-.41c-3.36-.43-6.73-.82-10.12-1.14l-.27,0c-3.31-.31-6.63-.55-10-.75l-3.14-.16c-2.46-.12-4.92-.22-7.39-.28l-3.3-.08q-4.26-.08-8.51,0H421.9c-3.42.06-6.84.18-10.26.34l-2.78.17c-2.54.15-5.08.32-7.61.53l-3.34.29c-2.56.24-5.11.52-7.66.82-.65.08-1.31.12-2,.21l-.64.09q-5.32.67-10.59,1.55c-.81.13-1.61.28-2.41.42-2.82.49-5.61,1-8.39,1.58l-2.9.6c-3.47.75-6.92,1.54-10.32,2.41l-.17,0c-3.35.86-6.64,1.8-9.91,2.78q-1.4.42-2.79.87-4,1.23-7.84,2.6c-.72.26-1.45.5-2.16.75q-4.79,1.74-9.41,3.66l-2.07.89q-3.69,1.59-7.28,3.28l-2.52,1.21c-3,1.46-5.89,3-8.72,4.54-2.18,1.21-4.29,2.46-6.34,3.72-.66.41-1.29.83-1.94,1.24-1.37.87-2.73,1.74-4,2.63-.73.49-1.43,1-2.14,1.49q-1.79,1.26-3.5,2.53l-2.06,1.57c-1.12.88-2.21,1.76-3.28,2.65l-1.82,1.52c-1.18,1-2.31,2-3.43,3.09-.41.39-.85.76-1.26,1.15q-2.24,2.15-4.28,4.34c-.29.31-.56.63-.84.94-.89,1-1.78,2-2.62,2.94-.13.15-.23.31-.36.46-1.14,1.36-2.2,2.74-3.23,4.12-.28.38-.59.74-.86,1.12q-1.91,2.64-3.55,5.33c-.3.49-.55,1-.84,1.47-.76,1.32-1.51,2.64-2.19,4-.34.67-.64,1.35-1,2-.55,1.16-1.08,2.33-1.56,3.5-.3.73-.57,1.46-.84,2.19-.43,1.13-.82,2.27-1.17,3.41-.24.74-.46,1.48-.67,2.23-.31,1.16-.59,2.32-.84,3.49-.16.71-.32,1.43-.45,2.15-.23,1.26-.4,2.53-.55,3.8-.07.61-.17,1.23-.23,1.84-.16,1.88-.26,3.76-.25,5.64l.08,28.15c0-1.89.09-3.77.26-5.65.05-.61.16-1.22.23-1.83.15-1.27.32-2.54.54-3.81.14-.72.3-1.44.46-2.15.25-1.17.52-2.33.84-3.48.21-.75.43-1.49.66-2.24.36-1.14.75-2.27,1.17-3.4.27-.74.55-1.47.85-2.2.48-1.17,1-2.33,1.56-3.49.32-.67.62-1.35,1-2,.68-1.33,1.42-2.64,2.19-4,.29-.49.54-1,.84-1.47q1.65-2.68,3.55-5.34c.27-.37.58-.75.87-1.12,1-1.38,2.08-2.76,3.21-4.12q1.44-1.71,3-3.41c.29-.31.54-.62.83-.93q2.05-2.19,4.29-4.33c.41-.39.84-.77,1.25-1.15,1.12-1,2.26-2.08,3.44-3.1.59-.51,1.21-1,1.82-1.51,1.07-.9,2.16-1.78,3.28-2.66l2.06-1.56q1.71-1.27,3.5-2.54c.71-.5,1.41-1,2.13-1.48,1.32-.9,2.68-1.77,4.05-2.64.65-.41,1.28-.83,1.93-1.23,2.06-1.27,4.16-2.51,6.34-3.73C303.09,84.54,306,83,309,81.58c.83-.41,1.68-.8,2.52-1.2,2.39-1.14,4.81-2.23,7.28-3.28.69-.3,1.37-.61,2.07-.9q4.63-1.92,9.4-3.65c.72-.26,1.45-.5,2.17-.75,2.59-.91,5.2-1.78,7.85-2.61l2.78-.86c3.26-1,6.55-1.92,9.88-2.78l.2,0c3.4-.88,6.85-1.66,10.31-2.41,1-.21,1.95-.41,2.92-.6q4.15-.85,8.37-1.58c.8-.14,1.61-.3,2.42-.43q5.27-.87,10.59-1.55c.86-.11,1.73-.19,2.6-.3q3.82-.45,7.66-.81c1.11-.11,2.22-.2,3.34-.3q3.8-.3,7.6-.53c.93-.05,1.86-.12,2.79-.16,3.42-.17,6.84-.29,10.26-.34h1.83q4.26,0,8.52,0l3.29.08c2.47.07,4.94.16,7.4.29,1.05.05,2.09.09,3.14.16,3.33.2,6.65.44,10,.75l.27,0c3.39.31,6.76.7,10.12,1.13l3,.42q3.63.49,7.23,1.08L480,61q4,.7,8,1.52l1.91.38c3.25.69,6.46,1.44,9.65,2.24l2.5.65c2.38.63,4.75,1.28,7.09,2l3.05.91c2.32.71,4.61,1.46,6.88,2.23l2.44.82c3,1.06,6,2.17,8.91,3.34.54.21,1.07.45,1.6.67q3.59,1.47,7.07,3l2.7,1.26c2,1,4,1.94,6,3,.83.42,1.66.84,2.47,1.27,2.69,1.44,5.34,2.91,7.91,4.45,33.85,20.37,50.71,46.6,50.79,72.85Z"/><path class="cls-7" d="M389.24,30.59l-.95.11-.64.09q-5.32.67-10.59,1.55l-.74.12V60.62l.83-.14q5.27-.87,10.59-1.55l1.5-.17Z"/><path class="cls-7" d="M366.92,34.21l-.66.13-2.9.6c-3.47.75-6.92,1.54-10.32,2.41l-.17,0c-3.35.86-6.64,1.8-9.91,2.78q-1.4.42-2.79.87-4,1.23-7.84,2.6c-.72.26-1.45.5-2.16.75q-4.79,1.74-9.41,3.66l-2.07.89q-3.69,1.59-7.28,3.28l-2.52,1.21c-3,1.46-5.89,3-8.72,4.54-2.18,1.21-4.29,2.46-6.34,3.72-.66.41-1.29.83-1.94,1.24-1.37.87-2.73,1.74-4,2.63-.73.49-1.43,1-2.14,1.49q-1.79,1.26-3.5,2.53l-2.06,1.57c-1.12.88-2.21,1.76-3.28,2.65l-1.82,1.52c-1.18,1-2.31,2-3.43,3.09-.41.39-.85.76-1.26,1.15q-2.24,2.15-4.28,4.34c-.29.31-.56.63-.84.94-.89,1-1.78,2-2.62,2.94-.13.15-.23.31-.36.46-1.14,1.36-2.2,2.74-3.23,4.12-.28.38-.59.74-.86,1.12q-1.91,2.64-3.55,5.33c-.3.49-.55,1-.84,1.47-.76,1.32-1.51,2.64-2.19,4-.34.67-.64,1.35-1,2-.55,1.16-1.08,2.33-1.56,3.5-.3.73-.57,1.46-.84,2.19-.43,1.13-.82,2.27-1.17,3.41-.24.74-.46,1.48-.67,2.23-.31,1.16-.59,2.32-.84,3.49-.16.71-.32,1.43-.45,2.15-.23,1.26-.4,2.53-.55,3.8-.07.61-.17,1.23-.23,1.84-.16,1.88-.26,3.76-.25,5.64l.08,28.15c0-1.89.09-3.77.26-5.65.05-.61.16-1.22.23-1.83.15-1.27.32-2.54.54-3.81.14-.72.3-1.44.46-2.15.25-1.17.52-2.33.84-3.48.21-.75.43-1.49.66-2.24.36-1.14.75-2.27,1.17-3.4.27-.74.55-1.47.85-2.2.48-1.17,1-2.33,1.56-3.49.32-.67.62-1.35,1-2,.68-1.33,1.42-2.64,2.19-4,.29-.49.54-1,.84-1.47q1.65-2.68,3.55-5.34c.27-.37.58-.75.87-1.12,1-1.38,2.08-2.76,3.21-4.12q1.44-1.71,3-3.41c.29-.31.54-.62.83-.93q2.05-2.19,4.29-4.33c.41-.39.84-.77,1.25-1.15,1.12-1,2.26-2.08,3.44-3.1.59-.51,1.21-1,1.82-1.51,1.07-.9,2.16-1.78,3.28-2.66l2.06-1.56q1.71-1.27,3.5-2.54c.71-.5,1.41-1,2.13-1.48,1.32-.9,2.68-1.77,4.05-2.64.65-.41,1.28-.83,1.93-1.23,2.06-1.27,4.16-2.51,6.34-3.73C303.09,84.54,306,83,309,81.58c.83-.41,1.68-.8,2.52-1.2,2.39-1.14,4.81-2.23,7.28-3.28.69-.3,1.37-.61,2.07-.9q4.63-1.92,9.4-3.65c.72-.26,1.45-.5,2.17-.75,2.59-.91,5.2-1.78,7.85-2.61l2.78-.86c3.26-1,6.55-1.92,9.88-2.78l.2,0c3.4-.88,6.85-1.66,10.31-2.41,1-.21,1.95-.41,2.92-.6l.56-.11Z"/><path class="cls-8" d="M293.74,232.21c-70.19-42.23-67.8-109.54,5.34-150.35S488.42,42.2,558.62,84.42,626.43,194,553.28,234.76,363.94,274.43,293.74,232.21Z"/><ellipse class="cls-9" cx="288.2" cy="201.38" rx="7.42" ry="6.54" transform="translate(-48.03 98.62) rotate(-17.95)"/><ellipse class="cls-10" cx="287.17" cy="201.72" rx="5.45" ry="4.81" transform="translate(-48.19 98.31) rotate(-17.95)"/><path class="cls-9" d="M566.12,89.21c23.53,38.17,8,82.56-45.8,112.59-73.15,40.81-189.35,39.66-259.54-2.56q-3.9-2.34-7.5-4.79c8.45,13.7,21.92,26.6,40.46,37.76,70.2,42.22,186.4,43.36,259.54,2.55C623.72,195.46,628.54,131.59,566.12,89.21Z"/><path class="cls-11" d="M238.44,165.45c.09,27.06,17.47,54.12,52.38,75.11,2.65,1.6,5.38,3.11,8.15,4.59.84.45,1.7.88,2.55,1.32q3,1.56,6.16,3c.92.43,1.85.87,2.78,1.29,2.4,1.09,4.83,2.13,7.29,3.14.55.23,1.09.47,1.65.69,3,1.21,6.08,2.35,9.19,3.45.83.29,1.68.56,2.52.84q3.51,1.2,7.09,2.29c1,.33,2.09.64,3.15,1q3.61,1.05,7.31,2c.86.23,1.71.47,2.58.69q4.92,1.23,9.95,2.3c.65.14,1.31.26,2,.39q4.09.84,8.25,1.57l3.31.55c2.47.41,5,.78,7.45,1.12,1,.15,2.08.3,3.13.43,3.46.44,6.94.84,10.43,1.17l.28,0c3.41.32,6.84.57,10.27.77,1.08.07,2.16.12,3.24.17q3.81.19,7.62.3l3.4.08c2.93,0,5.85,0,8.78,0h1.9q5.29-.09,10.57-.35l2.87-.17q3.93-.23,7.85-.55c1.15-.09,2.29-.19,3.44-.3q4-.37,7.9-.84c.67-.08,1.35-.13,2-.22l.66-.09q5.49-.71,10.92-1.6c.84-.13,1.66-.29,2.49-.44q4.35-.75,8.64-1.62c1-.21,2-.41,3-.63,3.58-.77,7.14-1.58,10.64-2.48l.18-.05c3.45-.88,6.84-1.85,10.21-2.87l2.88-.89q4.08-1.27,8.09-2.69c.74-.26,1.49-.5,2.23-.77q4.92-1.78,9.69-3.77l2.14-.92c2.54-1.09,5-2.21,7.51-3.38l2.59-1.25c3.06-1.5,6.08-3,9-4.68,2.25-1.25,4.42-2.53,6.54-3.84.68-.42,1.33-.85,2-1.27,1.41-.9,2.81-1.8,4.16-2.72.75-.5,1.48-1,2.21-1.53,1.23-.87,2.43-1.73,3.61-2.61l2.12-1.62c1.16-.9,2.28-1.81,3.38-2.73.63-.52,1.27-1,1.88-1.57,1.22-1,2.39-2.11,3.54-3.19.43-.39.88-.79,1.29-1.19q2.31-2.21,4.43-4.46l.86-1c.92-1,1.84-2,2.7-3l.37-.48c1.17-1.41,2.27-2.83,3.33-4.25.29-.39.61-.77.89-1.16,1.31-1.81,2.52-3.65,3.66-5.5.3-.5.56-1,.86-1.51.79-1.36,1.56-2.72,2.26-4.08.35-.7.66-1.39,1-2.09.57-1.2,1.12-2.39,1.61-3.6.31-.75.59-1.51.87-2.26.44-1.17.84-2.34,1.21-3.52.24-.76.47-1.53.68-2.3.33-1.19.61-2.39.87-3.59.16-.74.33-1.48.47-2.22.23-1.31.4-2.61.56-3.92.08-.64.18-1.27.24-1.9.17-1.94.27-3.88.26-5.82l-.09-29c0,1.94-.09,3.88-.26,5.82-.06.63-.16,1.26-.24,1.89-.15,1.31-.33,2.62-.56,3.93-.14.74-.31,1.48-.47,2.22-.26,1.2-.54,2.4-.87,3.59-.21.77-.44,1.54-.68,2.3-.37,1.18-.77,2.35-1.21,3.51-.28.76-.56,1.52-.87,2.27-.49,1.2-1,2.4-1.61,3.59-.33.7-.64,1.4-1,2.09-.7,1.37-1.47,2.73-2.26,4.08-.29.51-.56,1-.87,1.52-1.13,1.85-2.34,3.69-3.65,5.5-.28.39-.61.78-.9,1.17-1.06,1.42-2.15,2.83-3.32,4.24-1,1.18-2,2.35-3.08,3.51-.29.32-.56.65-.85,1q-2.12,2.27-4.43,4.47c-.41.4-.86.79-1.28,1.19-1.16,1.07-2.33,2.14-3.55,3.19-.61.53-1.25,1-1.87,1.56-1.11.92-2.23,1.84-3.4,2.74-.69.54-1.4,1.08-2.11,1.61q-1.77,1.32-3.62,2.62l-2.19,1.53c-1.36.92-2.76,1.82-4.18,2.72-.67.42-1.31.85-2,1.27-2.12,1.3-4.29,2.59-6.54,3.84-2.92,1.63-5.94,3.18-9,4.68l-2.59,1.24q-3.7,1.75-7.51,3.39l-2.14.92q-4.77,2-9.69,3.77l-2.23.77q-4,1.41-8.1,2.69l-2.87.89c-3.36,1-6.75,2-10.18,2.86l-.21.06c-3.51.9-7.06,1.71-10.63,2.48-1,.22-2,.42-3,.62q-4.29.89-8.63,1.63l-2.5.44q-5.43.9-10.92,1.6l-2.68.31q-3.94.47-7.9.84c-1.15.11-2.29.21-3.44.3q-3.92.33-7.84.55l-2.88.17c-3.52.17-7.05.29-10.57.35h-1.9q-4.38,0-8.78,0c-1.13,0-2.26,0-3.4-.08q-3.81-.09-7.62-.29c-1.08-.06-2.16-.1-3.24-.17-3.43-.2-6.86-.45-10.27-.77l-.28,0c-3.49-.33-7-.73-10.44-1.17-1-.13-2.08-.29-3.12-.43-2.49-.34-5-.72-7.45-1.12l-3.31-.55q-4.15-.73-8.25-1.57c-.66-.14-1.32-.25-2-.39q-5-1.06-10-2.31c-.87-.21-1.72-.45-2.58-.68q-3.69-1-7.31-2l-3.15-.95q-3.58-1.09-7.09-2.29c-.84-.28-1.69-.55-2.52-.85q-4.67-1.63-9.19-3.44c-.56-.22-1.1-.46-1.65-.69q-3.69-1.51-7.29-3.14c-.93-.42-1.86-.86-2.78-1.3-2.08-1-4.14-2-6.16-3-.85-.44-1.71-.87-2.55-1.32-2.77-1.48-5.5-3-8.15-4.59-34.91-21-52.29-48-52.38-75.11Z"/><path class="cls-12" d="M238.44,159.88c.09,27.06,17.47,54.11,52.38,75.11,2.65,1.59,5.38,3.11,8.15,4.59.84.45,1.7.88,2.55,1.32q3,1.56,6.16,3c.92.44,1.85.88,2.78,1.3q3.6,1.62,7.29,3.14c.55.23,1.09.47,1.65.69q4.52,1.81,9.19,3.44c.83.3,1.68.57,2.52.85q3.51,1.2,7.09,2.29l3.15.95q3.61,1.05,7.31,2c.86.23,1.71.47,2.58.68q4.92,1.25,9.95,2.31c.65.14,1.31.25,2,.39q4.09.84,8.25,1.57l3.31.55c2.47.4,5,.78,7.45,1.12,1,.14,2.08.3,3.13.43,3.46.44,6.94.84,10.43,1.17l.28,0c3.41.32,6.84.57,10.27.77,1.08.07,2.16.11,3.24.17q3.81.2,7.62.29c1.14,0,2.27.07,3.4.08,2.93.05,5.85.06,8.78,0h1.9q5.29-.09,10.57-.35l2.87-.17q3.93-.22,7.85-.55c1.15-.09,2.29-.19,3.44-.3q4-.37,7.9-.84c.67-.08,1.35-.13,2-.22l.66-.09q5.49-.7,10.92-1.6l2.49-.44q4.35-.75,8.64-1.63c1-.2,2-.4,3-.62,3.58-.77,7.14-1.58,10.64-2.48l.18-.05c3.45-.89,6.84-1.86,10.21-2.87l2.88-.89q4.08-1.27,8.09-2.69l2.23-.77q4.92-1.79,9.69-3.77l2.14-.92q3.81-1.63,7.51-3.39l2.59-1.24c3.06-1.5,6.08-3,9-4.68,2.25-1.25,4.42-2.54,6.54-3.84.68-.42,1.33-.85,2-1.27,1.41-.9,2.81-1.8,4.16-2.72l2.21-1.53q1.85-1.31,3.61-2.62l2.12-1.61c1.16-.9,2.28-1.82,3.38-2.73.63-.52,1.27-1,1.88-1.57,1.22-1.05,2.39-2.12,3.54-3.19.43-.4.88-.79,1.29-1.19q2.31-2.21,4.43-4.47l.86-1c.92-1,1.84-2,2.7-3,.13-.15.24-.32.37-.47,1.17-1.41,2.27-2.83,3.33-4.26.29-.38.61-.76.89-1.15,1.31-1.81,2.52-3.65,3.66-5.5.3-.5.56-1,.86-1.51.79-1.36,1.56-2.72,2.26-4.09.35-.69.66-1.39,1-2.08.57-1.2,1.12-2.4,1.61-3.6.31-.76.59-1.51.87-2.27.44-1.16.84-2.33,1.21-3.51.24-.76.47-1.53.68-2.3.33-1.2.61-2.39.87-3.59.16-.74.33-1.48.47-2.22.23-1.31.4-2.62.56-3.93.08-.63.18-1.26.24-1.89.17-1.94.27-3.88.26-5.82l-.09-29c0,1.94-.09,3.88-.26,5.82-.06.63-.16,1.26-.24,1.89-.15,1.31-.33,2.62-.56,3.92-.14.75-.31,1.49-.47,2.23-.26,1.2-.54,2.39-.87,3.59-.21.77-.44,1.53-.68,2.3-.37,1.17-.77,2.34-1.21,3.51-.28.76-.56,1.52-.87,2.27-.49,1.2-1,2.4-1.61,3.59-.33.7-.64,1.4-1,2.09-.7,1.37-1.47,2.73-2.26,4.08-.29.51-.56,1-.87,1.52-1.13,1.85-2.34,3.68-3.65,5.5-.28.39-.61.77-.9,1.16-1.06,1.43-2.15,2.84-3.32,4.24-1,1.19-2,2.36-3.08,3.52l-.85,1q-2.12,2.27-4.43,4.47c-.41.4-.86.79-1.28,1.18-1.16,1.08-2.33,2.15-3.55,3.2-.61.53-1.25,1-1.87,1.56-1.11.92-2.23,1.83-3.4,2.74-.69.54-1.4,1.07-2.11,1.61q-1.77,1.32-3.62,2.62l-2.19,1.53c-1.36.92-2.76,1.82-4.18,2.72-.67.42-1.31.85-2,1.27-2.12,1.3-4.29,2.58-6.54,3.84-2.92,1.63-5.94,3.18-9,4.68l-2.59,1.24q-3.7,1.76-7.51,3.38c-.71.31-1.42.63-2.14.93q-4.77,2-9.69,3.76c-.74.27-1.49.52-2.23.78q-4,1.41-8.1,2.69l-2.87.89c-3.36,1-6.75,2-10.18,2.86l-.21.06c-3.51.9-7.06,1.71-10.63,2.48l-3,.62q-4.29.89-8.63,1.63l-2.5.44c-3.62.59-7.26,1.13-10.92,1.59-.89.12-1.79.21-2.68.32q-3.94.47-7.9.84l-3.44.3q-3.92.31-7.84.54l-2.88.18c-3.52.17-7.05.29-10.57.35h-1.9q-4.38,0-8.78,0l-3.4-.08q-3.81-.11-7.62-.29c-1.08-.06-2.16-.1-3.24-.17-3.43-.21-6.86-.45-10.27-.77l-.28,0c-3.49-.33-7-.73-10.44-1.17l-3.12-.43c-2.49-.35-5-.72-7.45-1.12l-3.31-.55q-4.15-.74-8.25-1.57c-.66-.14-1.32-.25-2-.39-3.35-.71-6.67-1.49-10-2.31l-2.58-.68q-3.69-1-7.31-2c-1.06-.3-2.11-.62-3.15-.94-2.39-.73-4.75-1.5-7.09-2.29-.84-.29-1.69-.56-2.52-.85q-4.67-1.64-9.19-3.44c-.56-.22-1.1-.47-1.65-.69q-3.69-1.51-7.29-3.14l-2.78-1.3c-2.08-1-4.14-2-6.16-3-.85-.43-1.71-.86-2.55-1.31-2.77-1.48-5.5-3-8.15-4.59-34.91-21-52.29-48.05-52.38-75.11Z"/><path class="cls-7" d="M290.76,209.65c-71.92-43.26-69.47-112.23,5.47-154s194-40.64,265.92,2.62,69.48,112.23-5.47,154S362.68,252.91,290.76,209.65Zm4.1-2.29c69.75,42,185.21,43.09,257.89,2.54s75-107.43,5.3-149.38S372.84,17.43,300.17,58s-75.06,107.43-5.31,149.38"/><line class="cls-1" x1="427.7" y1="91.21" x2="447.52" y2="96.11"/><path class="cls-7" d="M614.6,133.23c-.69,28.12-20,56.11-57.84,77.2l-.61.33v27.58l.61-.34c37.8-21.09,57.15-49.08,57.84-77.2h0V133.23Z"/><path class="cls-7" d="M540.77,216.48c-1.07.48-2.14,1-3.22,1.41-.71.31-1.42.63-2.14.93q-4.77,2-9.69,3.76c-.74.27-1.49.52-2.23.78-1.31.46-2.63.91-4,1.35v29c1.35-.45,2.7-.91,4-1.38l2.23-.77q4.92-1.79,9.69-3.77l2.14-.92c1.05-.45,2.09-.91,3.13-1.38Z"/><rect class="cls-9" x="372.54" y="116.96" width="15.27" height="11.18" rx="4.25"/><circle class="cls-10" cx="378.24" cy="122.55" r="4.41"/><rect class="cls-9" x="258.5" y="136.87" width="15.27" height="11.18" rx="4.25"/><circle class="cls-10" cx="264.2" cy="142.46" r="4.41"/><rect class="cls-9" x="314.97" y="176.28" width="15.27" height="11.18" rx="4.25"/><circle class="cls-10" cx="320.67" cy="181.87" r="4.41"/><rect class="cls-9" x="530.88" y="116.96" width="15.27" height="11.18" rx="4.25" transform="translate(340.2 -392.9) rotate(56.14)"/><circle class="cls-10" cx="537.43" cy="120.94" r="4.41"/><g class="cls-3"><rect class="cls-9" x="511.88" y="135.96" width="15.27" height="11.18" rx="4.25" transform="translate(1036.14 -10.16) rotate(148.39)"/><circle class="cls-10" cx="521.16" cy="140.53" r="4.41"/></g><rect class="cls-9" x="494.67" y="208.07" width="15.27" height="11.18" rx="4.25" transform="translate(399.83 -322.49) rotate(56.14)"/><circle class="cls-10" cx="501.23" cy="212.05" r="4.41"/><rect class="cls-9" x="573.72" y="139.28" width="15.27" height="11.18" rx="4.25" transform="translate(6.93 -25.42) rotate(2.52)"/><circle class="cls-10" cx="579.42" cy="144.79" r="4.41"/><rect class="cls-9" x="462.4" y="176.28" width="15.27" height="11.18" rx="4.25" transform="translate(952.42 327.82) rotate(175.68)"/><circle class="cls-10" cx="471.96" cy="181.72" r="4.41"/><ellipse class="cls-9" cx="459.34" cy="95.5" rx="7.42" ry="6.54"/><ellipse class="cls-10" cx="458.25" cy="95.5" rx="5.45" ry="4.81"/><ellipse class="cls-9" cx="554.08" cy="95.5" rx="7.42" ry="6.54"/><ellipse class="cls-10" cx="552.99" cy="95.5" rx="5.45" ry="4.81"/><ellipse class="cls-9" cx="437.62" cy="209.55" rx="6.54" ry="7.42" transform="translate(-12.59 28.62) rotate(-3.69)"/><ellipse class="cls-10" cx="437.55" cy="208.46" rx="4.81" ry="5.45" transform="translate(-12.52 28.62) rotate(-3.69)"/><ellipse class="cls-9" cx="307.44" cy="108.59" rx="7.3" ry="6.54"/><ellipse class="cls-10" cx="306.37" cy="108.59" rx="5.37" ry="4.81"/><ellipse class="cls-9" cx="362.95" cy="211.17" rx="7.3" ry="6.54"/><ellipse class="cls-10" cx="361.88" cy="211.17" rx="5.37" ry="4.81"/><ellipse class="cls-9" cx="525.64" cy="170.96" rx="6.54" ry="7.42" transform="translate(43.07 440.51) rotate(-47.2)"/><ellipse class="cls-10" cx="524.84" cy="170.22" rx="4.81" ry="5.45" transform="translate(43.36 439.68) rotate(-47.2)"/><ellipse class="cls-9" cx="569.09" cy="181.83" rx="6.54" ry="7.42" transform="translate(49.03 475.87) rotate(-47.2)"/><ellipse class="cls-10" cx="568.29" cy="181.08" rx="4.81" ry="5.45" transform="translate(49.32 475.04) rotate(-47.2)"/><ellipse class="cls-9" cx="389.55" cy="174.89" rx="7.42" ry="6.54" transform="translate(-34.94 128.56) rotate(-17.95)"/><ellipse class="cls-10" cx="388.52" cy="175.23" rx="5.45" ry="4.81" transform="translate(-35.09 128.26) rotate(-17.95)"/><g class="cls-3"><ellipse class="cls-9" cx="279.55" cy="168.89" rx="7.42" ry="6.54" transform="translate(-38.44 94.37) rotate(-17.95)"/><ellipse class="cls-10" cx="278.52" cy="169.23" rx="5.45" ry="4.81" transform="translate(-38.6 94.07) rotate(-17.95)"/></g><ellipse class="cls-9" cx="413.11" cy="75.88" rx="7.42" ry="6.54" transform="matrix(0.95, -0.31, 0.31, 0.95, -3.28, 131)"/><ellipse class="cls-10" cx="412.07" cy="76.21" rx="5.45" ry="4.81" transform="translate(-3.43 130.7) rotate(-17.95)"/><ellipse class="cls-9" cx="476.49" cy="148.9" rx="7.42" ry="6.54" transform="translate(-22.7 154.09) rotate(-17.95)"/><ellipse class="cls-10" cx="475.45" cy="149.24" rx="5.45" ry="4.81" transform="translate(-22.85 153.79) rotate(-17.95)"/><g class="cls-3"><ellipse class="cls-9" cx="408.72" cy="108.43" rx="7.42" ry="6.54" transform="translate(-13.52 131.24) rotate(-17.95)"/><ellipse class="cls-10" cx="407.69" cy="108.77" rx="5.45" ry="4.81" transform="translate(-13.68 130.93) rotate(-17.95)"/></g><g class="cls-3"><ellipse class="cls-9" cx="327.72" cy="85.43" rx="6.54" ry="7.42" transform="translate(105.76 341.23) rotate(-63.66)"/><ellipse class="cls-10" cx="326.75" cy="84.95" rx="4.81" ry="5.45" transform="translate(105.65 340.09) rotate(-63.66)"/></g><path class="cls-9" d="M365.2,72.84a6.2,6.2,0,0,0-2.54,1.67,3.13,3.13,0,0,1-2.78,1,6.07,6.07,0,0,0-3,.28,6.54,6.54,0,0,0,4.32,12.35,6.3,6.3,0,0,0,2.54-1.67,3.13,3.13,0,0,1,2.78-1,6.3,6.3,0,0,0,3-.28,6.54,6.54,0,0,0-4.32-12.35Z"/><path class="cls-10" d="M365,74.77a4.79,4.79,0,0,0-3,3.2,4.83,4.83,0,1,0,1.85,5.3,4.82,4.82,0,1,0,1.18-8.5Z"/><path class="cls-9" d="M501.25,119.31a6.24,6.24,0,0,0-2.92-.86,3.1,3.1,0,0,1-2.54-1.49,6.24,6.24,0,0,0-2.18-2.12A6.54,6.54,0,0,0,487,126.13a6.23,6.23,0,0,0,2.92.85,3.13,3.13,0,0,1,2.54,1.49,6.24,6.24,0,0,0,2.17,2.13,6.55,6.55,0,0,0,6.62-11.29Z"/><path class="cls-10" d="M499.68,120.43a4.82,4.82,0,0,0-4.41-.24,4.82,4.82,0,1,0-2.83,4.85,4.82,4.82,0,1,0,7.24-4.61Z"/><path class="cls-9" d="M503.89,74.2a5.55,5.55,0,0,0-2.52,1.08,2.81,2.81,0,0,1-2.61.43,5.47,5.47,0,0,0-2.73-.23,5.89,5.89,0,0,0,1.89,11.63A5.74,5.74,0,0,0,500.43,86a2.83,2.83,0,0,1,2.62-.43,5.68,5.68,0,0,0,2.73.23,5.89,5.89,0,0,0-1.89-11.63Z"/><path class="cls-10" d="M503.45,75.88a4.33,4.33,0,0,0-3.2,2.36,4.35,4.35,0,1,0,.81,5,4.34,4.34,0,1,0,2.39-7.35Z"/><path class="cls-9" d="M338.67,139a6.32,6.32,0,0,0-3,.44,3.12,3.12,0,0,1-2.93-.29,6.24,6.24,0,0,0-2.86-1,6.54,6.54,0,0,0-1.3,13,6.22,6.22,0,0,0,3-.44,3.15,3.15,0,0,1,2.93.3,6.23,6.23,0,0,0,2.86,1,6.54,6.54,0,0,0,1.3-13Z"/><path class="cls-10" d="M337.71,140.65a4.8,4.8,0,0,0-4.1,1.62,4.83,4.83,0,1,0-.56,5.59,4.83,4.83,0,1,0,4.66-7.21Z"/><g class="cls-3"><path class="cls-9" d="M406.67,205a6.32,6.32,0,0,0-3,.44,3.12,3.12,0,0,1-2.93-.29,6.24,6.24,0,0,0-2.86-1,6.54,6.54,0,0,0-1.3,13,6.22,6.22,0,0,0,3-.44,3.15,3.15,0,0,1,2.93.3,6.23,6.23,0,0,0,2.86,1,6.54,6.54,0,0,0,1.3-13Z"/><path class="cls-10" d="M405.71,206.65a4.8,4.8,0,0,0-4.1,1.62,4.83,4.83,0,1,0-.56,5.59,4.83,4.83,0,1,0,4.66-7.21Z"/></g><circle class="cls-13" cx="428.85" cy="142.15" r="33.88"/><g class="cls-14"><ellipse class="cls-9" cx="430.92" cy="110.61" rx="12.75" ry="11.25" transform="translate(-13.11 138.18) rotate(-17.95)"/><ellipse class="cls-10" cx="429.14" cy="111.19" rx="9.37" ry="8.27" transform="matrix(0.95, -0.31, 0.31, 0.95, -13.38, 137.66)"/><ellipse class="cls-9" cx="409.27" cy="170.85" rx="12.75" ry="11.25" transform="translate(143.09 525.59) rotate(-75.78)"/><ellipse class="cls-10" cx="409.73" cy="169.03" rx="9.37" ry="8.27" transform="translate(145.2 524.66) rotate(-75.78)"/><ellipse class="cls-9" cx="460.1" cy="162.38" rx="12.75" ry="11.25" transform="translate(189.64 568.47) rotate(-75.78)"/><ellipse class="cls-10" cx="460.56" cy="160.56" rx="9.37" ry="8.27" transform="translate(191.75 567.54) rotate(-75.78)"/><path class="cls-11" d="M424.9,143.82l8.78,1.23v0l.32,0,.19-.24,5-6.37a.53.53,0,0,1,.49-.2l7.35,1a.55.55,0,0,0,.6-.46h0a.55.55,0,0,0-.46-.61l-7.95-1a.53.53,0,0,0-.49.2h0l-5.23,6.61-8.47-1.19-3.21-7.89,5.11-6.45-.84-.66L421,134.17l-7.46-1.08v0h0l-.16,1.07,7.46,1.08,3.22,7.89-4.84,6.39-.2.25,3.23,7.82,1-.4-3-7.25Z"/><polygon class="cls-11" points="432.61 145.54 435.67 153.52 436.67 153.12 433.61 145.14 432.61 145.54"/><polygon class="cls-11" points="435.53 144.61 434.53 145.01 437.59 152.99 438.59 152.59 435.53 144.61"/><circle class="cls-12" cx="426.62" cy="128.05" r="2.4"/><circle class="cls-12" cx="413.32" cy="133.51" r="2.4"/><circle class="cls-15" cx="439.22" cy="137.6" r="3.04"/><circle class="cls-15" cx="419.6" cy="149.87" r="3.04"/><circle class="cls-15" cx="436.84" cy="152.5" r="3.04"/><circle class="cls-12" cx="422.62" cy="157.22" r="2.4"/><circle class="cls-12" cx="427.02" cy="140.56" r="2.4"/><circle class="cls-12" cx="419.85" cy="131.05" r="2.4"/><circle class="cls-12" cx="447.66" cy="138.81" r="2.4"/><circle class="cls-16" cx="421.38" cy="134.65" r="3.56"/><circle class="cls-16" cx="433.87" cy="144.36" r="3.56"/><circle class="cls-16" cx="424.69" cy="143.17" r="3.56"/></g><path class="cls-17" d="M429.32,105.91a36.24,36.24,0,1,0,36.24,36.24A36.24,36.24,0,0,0,429.32,105.91Zm0,65.89A29.65,29.65,0,1,1,459,142.15,29.64,29.64,0,0,1,429.32,171.8Z"/><line class="cls-18" x1="429" y1="413" x2="429" y2="176"/><path class="cls-17" d="M428.07,412.8l-9.55-9.56a1.31,1.31,0,0,1,.93-2.24h19.1a1.31,1.31,0,0,1,.93,2.24l-9.55,9.56A1.32,1.32,0,0,1,428.07,412.8Z"/><path class="cls-11" d="M355.09,182.88l4.87.69h0l.18,0,.1-.13,2.8-3.54a.31.31,0,0,1,.27-.11l4.07.54a.3.3,0,0,0,.34-.26h0a.29.29,0,0,0-.26-.33l-4.4-.59a.33.33,0,0,0-.28.11h0l-2.9,3.67-4.7-.66-1.78-4.38,2.84-3.57-.47-.37-2.84,3.57-4.14-.6v0h0l-.08.58,4.13.61,1.79,4.37-2.69,3.55-.1.13,1.79,4.35.55-.22-1.66-4Z"/><polygon class="cls-11" points="359.36 183.84 361.06 188.27 361.62 188.05 359.92 183.62 359.36 183.84"/><polygon class="cls-11" points="360.99 183.32 360.43 183.54 362.13 187.97 362.68 187.75 360.99 183.32"/><circle class="cls-12" cx="356.04" cy="174.14" r="1.33"/><circle class="cls-12" cx="348.66" cy="177.17" r="1.33"/><circle class="cls-15" cx="363.03" cy="179.44" r="1.68"/><circle class="cls-15" cx="352.15" cy="186.24" r="1.68"/><circle class="cls-15" cx="361.71" cy="187.7" r="1.68"/><circle class="cls-12" cx="353.82" cy="190.32" r="1.33"/><circle class="cls-12" cx="356.26" cy="181.08" r="1.33"/><circle class="cls-12" cx="352.29" cy="175.8" r="1.33"/><circle class="cls-12" cx="367.71" cy="180.11" r="1.33"/><circle class="cls-16" cx="353.14" cy="177.8" r="1.98"/><circle class="cls-16" cx="360.06" cy="183.19" r="1.98"/><circle class="cls-16" cx="354.97" cy="182.52" r="1.98"/><path class="cls-11" d="M502.09,186.88l4.87.69h0l.18,0,.1-.13,2.8-3.54a.31.31,0,0,1,.27-.11l4.07.54a.3.3,0,0,0,.34-.26h0a.29.29,0,0,0-.26-.33l-4.4-.59a.33.33,0,0,0-.28.11h0l-2.9,3.67-4.7-.66-1.78-4.38,2.84-3.57-.47-.37-2.84,3.57-4.14-.6v0h0l-.08.58,4.13.61,1.79,4.37-2.69,3.55-.1.13,1.79,4.35.55-.22-1.66-4Z"/><polygon class="cls-11" points="506.36 187.84 508.06 192.27 508.62 192.05 506.92 187.62 506.36 187.84"/><polygon class="cls-11" points="507.99 187.32 507.43 187.54 509.13 191.97 509.68 191.75 507.99 187.32"/><circle class="cls-12" cx="503.04" cy="178.14" r="1.33"/><circle class="cls-12" cx="495.66" cy="181.17" r="1.33"/><circle class="cls-15" cx="510.03" cy="183.44" r="1.68"/><circle class="cls-15" cx="499.15" cy="190.24" r="1.68"/><circle class="cls-15" cx="508.71" cy="191.7" r="1.68"/><circle class="cls-12" cx="500.82" cy="194.32" r="1.33"/><circle class="cls-12" cx="503.26" cy="185.08" r="1.33"/><circle class="cls-12" cx="499.29" cy="179.8" r="1.33"/><circle class="cls-12" cx="514.71" cy="184.11" r="1.33"/><circle class="cls-16" cx="500.14" cy="181.8" r="1.98"/><circle class="cls-16" cx="507.06" cy="187.19" r="1.98"/><circle class="cls-16" cx="501.97" cy="186.52" r="1.98"/><path class="cls-11" d="M557.7,136.13l3.18-3.75h0l.11-.14-.05-.16-1.5-4.25a.33.33,0,0,1,.05-.29l2.63-3.16a.3.3,0,0,0,0-.42h0a.3.3,0,0,0-.42,0l-2.85,3.41a.28.28,0,0,0,0,.29h0l1.55,4.42-3.07,3.61-4.66-.83-1.5-4.31-.56.2,1.5,4.31-2.72,3.18h0l.45.39,2.72-3.18,4.66.83,1.56,4.17,0,.16,4.63.81.11-.59-4.29-.74Z"/><polygon class="cls-11" points="560.79 133.02 565.44 133.95 565.55 133.37 560.9 132.44 560.79 133.02"/><polygon class="cls-11" points="561.22 131.38 561.11 131.96 565.76 132.89 565.87 132.31 561.22 131.38"/><circle class="cls-12" cx="550.81" cy="130.65" r="1.33"/><circle class="cls-12" cx="549.43" cy="138.5" r="1.33"/><circle class="cls-15" cx="559.03" cy="127.57" r="1.68"/><circle class="cls-15" cx="558.96" cy="140.41" r="1.68"/><circle class="cls-15" cx="565.31" cy="133.1" r="1.68"/><circle class="cls-12" cx="563.31" cy="141.17" r="1.33"/><circle class="cls-12" cx="556.8" cy="134.17" r="1.33"/><circle class="cls-12" cx="550.21" cy="134.71" r="1.33"/><circle class="cls-12" cx="562.1" cy="123.97" r="1.33"/><circle class="cls-16" cx="552.35" cy="135.06" r="1.98"/><circle class="cls-16" cx="560.61" cy="132.08" r="1.98"/><circle class="cls-16" cx="557.33" cy="136.03" r="1.98"/><path class="cls-11" d="M302.39,142l1.95,5.36h0l.07.2.2,0,5.14.94a.35.35,0,0,1,.27.22l1.67,4.46a.35.35,0,0,0,.44.21h0a.35.35,0,0,0,.2-.45l-1.8-4.83a.33.33,0,0,0-.26-.22h0l-5.34-1-1.88-5.18,3.51-4.21,5.21,1,.13-.68-5.22-1-1.64-4.57h0l-.65.23L306,137.1l-3.52,4.21-5.1-.82-.19,0-3.48,4.2.53.45,3.22-3.89Z"/><polygon class="cls-11" points="303.74 146.9 300.13 151.05 300.65 151.49 304.26 147.34 303.74 146.9"/><polygon class="cls-11" points="305.15 148.27 304.62 147.83 301.01 151.98 301.54 152.43 305.15 148.27"/><circle class="cls-12" cx="311.87" cy="138.2" r="1.55"/><circle class="cls-12" cx="304.74" cy="132.29" r="1.55"/><circle class="cls-15" cx="310.25" cy="148.25" r="1.95"/><circle class="cls-15" cx="297.34" cy="140.81" r="1.95"/><circle class="cls-15" cx="301.06" cy="151.4" r="1.95"/><circle class="cls-12" cx="294.07" cy="144.75" r="1.55"/><circle class="cls-12" cx="304.88" cy="142.21" r="1.55"/><circle class="cls-12" cx="308.12" cy="135.26" r="1.55"/><circle class="cls-12" cx="312.11" cy="153.42" r="1.55"/><circle class="cls-16" cx="306.54" cy="137.22" r="2.29"/><circle class="cls-16" cx="304.79" cy="147.26" r="2.29"/><circle class="cls-16" cx="302.69" cy="141.68" r="2.29"/><path class="cls-11" d="M343.39,105l1.95,5.36h0l.07.2.2,0,5.14.94a.35.35,0,0,1,.27.22l1.67,4.46a.35.35,0,0,0,.44.21h0a.35.35,0,0,0,.2-.45l-1.8-4.83a.33.33,0,0,0-.26-.22h0l-5.34-1-1.88-5.18,3.51-4.21,5.21,1,.13-.68-5.22-1-1.64-4.57h0l-.65.23L347,100.1l-3.52,4.21-5.1-.82-.19,0-3.48,4.2.53.45,3.22-3.89Z"/><polygon class="cls-11" points="344.74 109.89 341.13 114.05 341.65 114.49 345.26 110.34 344.74 109.89"/><polygon class="cls-11" points="346.15 111.27 345.62 110.83 342.01 114.98 342.54 115.42 346.15 111.27"/><circle class="cls-12" cx="352.87" cy="101.2" r="1.55"/><circle class="cls-12" cx="345.74" cy="95.29" r="1.55"/><circle class="cls-15" cx="351.25" cy="111.25" r="1.95"/><circle class="cls-15" cx="338.34" cy="103.81" r="1.95"/><circle class="cls-15" cx="342.06" cy="114.4" r="1.95"/><circle class="cls-12" cx="335.07" cy="107.75" r="1.55"/><circle class="cls-12" cx="345.88" cy="105.21" r="1.55"/><circle class="cls-12" cx="349.12" cy="98.26" r="1.55"/><circle class="cls-12" cx="353.11" cy="116.42" r="1.55"/><circle class="cls-16" cx="347.54" cy="100.22" r="2.29"/><circle class="cls-16" cx="345.79" cy="110.26" r="2.29"/><circle class="cls-16" cx="343.69" cy="104.68" r="2.29"/><path class="cls-11" d="M447.84,62.39l-4.51,1.75h0l-.17.07,0,.16-.71,4.39a.27.27,0,0,1-.18.22l-3.76,1.5a.28.28,0,0,0-.17.37h0a.29.29,0,0,0,.38.17l4.07-1.61a.3.3,0,0,0,.19-.23h0l.73-4.55L448.05,63l3.64,2.91L451,70.31l.58.09.73-4.44,3.84-1.47h0l-.21-.55-3.85,1.47-3.64-2.91.61-4.34,0-.17-3.63-2.88-.37.46,3.37,2.66Z"/><polygon class="cls-11" points="443.7 63.62 440.12 60.63 439.75 61.09 443.33 64.08 443.7 63.62"/><polygon class="cls-11" points="442.56 64.85 442.93 64.39 439.34 61.4 438.97 61.85 442.56 64.85"/><circle class="cls-12" cx="451.22" cy="70.37" r="1.31"/><circle class="cls-12" cx="456.11" cy="64.23" r="1.31"/><circle class="cls-15" cx="442.67" cy="69.17" r="1.66"/><circle class="cls-15" cx="448.76" cy="58.09" r="1.66"/><circle class="cls-15" cx="439.83" cy="61.43" r="1.66"/><circle class="cls-12" cx="445.36" cy="55.39" r="1.31"/><circle class="cls-12" cx="447.7" cy="64.51" r="1.31"/><circle class="cls-12" cx="453.65" cy="67.14" r="1.31"/><circle class="cls-12" cx="438.31" cy="70.84" r="1.31"/><circle class="cls-16" cx="451.96" cy="65.83" r="1.95"/><circle class="cls-16" cx="443.42" cy="64.52" r="1.95"/><circle class="cls-16" cx="448.12" cy="62.65" r="1.95"/></svg>