<svg id="Layer_1" data-name="Layer 1" xmlns="http://www.w3.org/2000/svg" xmlns:xlink="http://www.w3.org/1999/xlink" viewBox="0 0 854 677"><defs><style>.cls-1,.cls-18{fill:none;}.cls-2{fill:#2c6025;}.cls-3{fill:#3485a5;}.cls-4{fill:#cfad68;}.cls-5,.cls-58{opacity:0.3;}.cls-31,.cls-6{fill:#4cb4e5;}.cls-17,.cls-7{fill:#fff;}.cls-8{opacity:0.5;}.cls-9{isolation:isolate;}.cls-10{fill:#2b4d61;}.cls-11{fill:#e2e2e2;}.cls-12{fill:#4a5e71;}.cls-13{fill:#61b459;}.cls-14{fill:#d9f5fc;}.cls-15{clip-path:url(#clip-path);}.cls-16{fill:#abefa3;}.cls-17,.cls-31,.cls-55{opacity:0.2;}.cls-18{stroke:#2b4d61;stroke-miterlimit:10;stroke-width:2px;}.cls-19{clip-path:url(#clip-path-2);}.cls-20{clip-path:url(#clip-path-3);}.cls-21{clip-path:url(#clip-path-4);}.cls-22{clip-path:url(#clip-path-5);}.cls-23{clip-path:url(#clip-path-6);}.cls-24{clip-path:url(#clip-path-7);}.cls-25{clip-path:url(#clip-path-8);}.cls-26{clip-path:url(#clip-path-9);}.cls-27{fill:#4cb4e7;}.cls-28{clip-path:url(#clip-path-10);}.cls-29{clip-path:url(#clip-path-11);}.cls-30{clip-path:url(#clip-path-12);}.cls-32{clip-path:url(#clip-path-13);}.cls-33{clip-path:url(#clip-path-14);}.cls-34{clip-path:url(#clip-path-15);}.cls-35{clip-path:url(#clip-path-16);}.cls-36{clip-path:url(#clip-path-17);}.cls-37{fill:#ffeb72;}.cls-38{clip-path:url(#clip-path-18);}.cls-39{clip-path:url(#clip-path-19);}.cls-40{clip-path:url(#clip-path-20);}.cls-41{clip-path:url(#clip-path-21);}.cls-42{clip-path:url(#clip-path-22);}.cls-43{clip-path:url(#clip-path-23);}.cls-44{clip-path:url(#clip-path-24);}.cls-45{clip-path:url(#clip-path-25);}.cls-46{clip-path:url(#clip-path-26);}.cls-47{clip-path:url(#clip-path-27);}.cls-48{clip-path:url(#clip-path-28);}.cls-49{clip-path:url(#clip-path-29);}.cls-50{clip-path:url(#clip-path-30);}.cls-51{clip-path:url(#clip-path-31);}.cls-52{clip-path:url(#clip-path-32);}.cls-53{clip-path:url(#clip-path-33);}.cls-54{clip-path:url(#clip-path-34);}.cls-56{fill:#81b9cc;}.cls-57{fill:#e8f7fc;}.cls-58{fill:#5592aa;}.cls-59{fill:#0e7899;}</style><clipPath id="clip-path"><circle class="cls-1" cx="430" cy="399" r="36"/></clipPath><clipPath id="clip-path-2"><path class="cls-2" d="M648.9,271.32v0Z"/></clipPath><clipPath id="clip-path-3"><path class="cls-2" d="M618.84,276.21v-4.08a1.05,1.05,0,0,0,.64.87l0,4.08A1.06,1.06,0,0,1,618.84,276.21Z"/></clipPath><clipPath id="clip-path-4"><path class="cls-2" d="M647.56,286.31v4.08c-.1,1.06-2.33,1.56-3.63.8v-4.07C645.24,287.87,647.46,287.38,647.56,286.31Z"/></clipPath><clipPath id="clip-path-5"><path class="cls-2" d="M602.94,294.78V290.7a1.07,1.07,0,0,0,.63.88v4.08A1.07,1.07,0,0,1,602.94,294.78Z"/></clipPath><clipPath id="clip-path-6"><path class="cls-2" d="M614.92,296.39v4.08a3.35,3.35,0,0,1-3,0l0-4.08A3.33,3.33,0,0,0,614.92,296.39Z"/></clipPath><clipPath id="clip-path-7"><path class="cls-3" d="M195.88,276.24v-4.08a1.07,1.07,0,0,0,.63.88v4.08A1.09,1.09,0,0,1,195.88,276.24Z"/></clipPath><clipPath id="clip-path-8"><path class="cls-3" d="M212,294.81v-4.08a1.09,1.09,0,0,0,.64.89A3,3,0,0,0,214,292v4.07a3,3,0,0,1-1.39-.35A1.1,1.1,0,0,1,212,294.81Z"/></clipPath><clipPath id="clip-path-9"><path class="cls-3" d="M242.06,291.57v4.08c0,.7-1,1.26-2.24,1.22V292.8C241,292.84,242.06,292.27,242.06,291.57Z"/></clipPath><clipPath id="clip-path-10"><path class="cls-3" d="M445.06,234.91V239a1,1,0,0,1-.55.82v-4.08A1,1,0,0,0,445.06,234.91Z"/></clipPath><clipPath id="clip-path-11"><path class="cls-3" d="M406.32,239V234.9a1,1,0,0,0,.56.82l0,4.07A1,1,0,0,1,406.32,239Z"/></clipPath><clipPath id="clip-path-12"><path class="cls-3" d="M427.35,246.86v4.07a3.33,3.33,0,0,1-3.1.06v-4.08A3.3,3.3,0,0,0,427.35,246.86Z"/></clipPath><clipPath id="clip-path-13"><path class="cls-4" d="M386.62,148.45V144.1a3.15,3.15,0,0,1,1-2.27v4.36A3.11,3.11,0,0,0,386.62,148.45Z"/></clipPath><clipPath id="clip-path-14"><path class="cls-4" d="M461.37,144.1v4.35a3.14,3.14,0,0,0-1-2.26v-4.36A3.17,3.17,0,0,1,461.37,144.1Z"/></clipPath><clipPath id="clip-path-15"><path class="cls-4" d="M443.68,137.59v-4.36a3.11,3.11,0,0,1,1-2.26A3.33,3.33,0,0,1,447,130v4.36a3.29,3.29,0,0,0-2.31.94A3.11,3.11,0,0,0,443.68,137.59Z"/></clipPath><clipPath id="clip-path-16"><path class="cls-4" d="M398.72,135.33V131A3.34,3.34,0,0,1,401,130v4.36A3.29,3.29,0,0,0,398.72,135.33Z"/></clipPath><clipPath id="clip-path-17"><path class="cls-4" d="M447,134.39V130a3.34,3.34,0,0,1,2.32.94v4.36A3.29,3.29,0,0,0,447,134.39Z"/></clipPath><clipPath id="clip-path-18"><path class="cls-4" d="M404.32,133.23v4.36a3.11,3.11,0,0,0-1-2.26,3.25,3.25,0,0,0-2.31-.94V130a3.29,3.29,0,0,1,2.31.94A3.11,3.11,0,0,1,404.32,133.23Z"/></clipPath><clipPath id="clip-path-19"><path class="cls-4" d="M424,91.81V87.45c13.4,0,24.27,10.61,24.27,23.69v4.36C448.27,102.41,437.4,91.81,424,91.81Z"/></clipPath><clipPath id="clip-path-20"><path class="cls-4" d="M399.73,115.5v-4.36c0-13.08,10.86-23.69,24.27-23.69v4.36C410.59,91.81,399.73,102.41,399.73,115.5Z"/></clipPath><clipPath id="clip-path-21"><path class="cls-4" d="M443.68,92.77V88.41a3.15,3.15,0,0,1,1-2.27V90.5A3.15,3.15,0,0,0,443.68,92.77Z"/></clipPath><clipPath id="clip-path-22"><path class="cls-4" d="M404.32,88.41v4.36a3.15,3.15,0,0,0-1-2.27V86.14A3.15,3.15,0,0,1,404.32,88.41Z"/></clipPath><clipPath id="clip-path-23"><path class="cls-4" d="M389.9,78.7V74.34a3.34,3.34,0,0,1,2.32.94v4.36A3.29,3.29,0,0,0,389.9,78.7Z"/></clipPath><clipPath id="clip-path-24"><path class="cls-4" d="M455.78,79.64V75.28a3.34,3.34,0,0,1,2.32-.94V78.7A3.29,3.29,0,0,0,455.78,79.64Z"/></clipPath><clipPath id="clip-path-25"><path class="cls-4" d="M386.62,81.9V77.54a3.11,3.11,0,0,1,1-2.26,3.33,3.33,0,0,1,2.31-.94V78.7a3.29,3.29,0,0,0-2.31.94A3.11,3.11,0,0,0,386.62,81.9Z"/></clipPath><clipPath id="clip-path-26"><path class="cls-4" d="M461.37,77.54V81.9a3.14,3.14,0,0,0-1-2.26,3.25,3.25,0,0,0-2.31-.94V74.34a3.29,3.29,0,0,1,2.31.94A3.14,3.14,0,0,1,461.37,77.54Z"/></clipPath><clipPath id="clip-path-27"><path class="cls-4" d="M424,64.91V60.56a3.24,3.24,0,0,1,3.28,3.2v4.36A3.25,3.25,0,0,0,424,64.91Z"/></clipPath><clipPath id="clip-path-28"><path class="cls-4" d="M420.72,68.12V63.76a3.24,3.24,0,0,1,3.28-3.2v4.35A3.25,3.25,0,0,0,420.72,68.12Z"/></clipPath><clipPath id="clip-path-29"><path class="cls-4" d="M424,143.67v-4.36a3.25,3.25,0,0,1,3.28,3.21v4.36A3.24,3.24,0,0,0,424,143.67Z"/></clipPath><clipPath id="clip-path-30"><path class="cls-4" d="M420.72,146.88v-4.36a3.25,3.25,0,0,1,3.28-3.21v4.36A3.24,3.24,0,0,0,420.72,146.88Z"/></clipPath><clipPath id="clip-path-31"><path class="cls-4" d="M472.22,112v-4.36a3.24,3.24,0,0,1,3.28,3.2v4.36A3.24,3.24,0,0,0,472.22,112Z"/></clipPath><clipPath id="clip-path-32"><path class="cls-4" d="M453.2,115.18v-4.36a3.23,3.23,0,0,1,3.27-3.2V112A3.23,3.23,0,0,0,453.2,115.18Z"/></clipPath><clipPath id="clip-path-33"><path class="cls-4" d="M391.53,112v-4.36a3.23,3.23,0,0,1,3.27,3.2v4.36A3.23,3.23,0,0,0,391.53,112Z"/></clipPath><clipPath id="clip-path-34"><path class="cls-4" d="M372.5,115.18v-4.36a3.24,3.24,0,0,1,3.28-3.2V112A3.24,3.24,0,0,0,372.5,115.18Z"/></clipPath></defs><g class="cls-5"><path class="cls-6" d="M327.78,206.28a25.53,25.53,0,0,1-12.37-2.93,10.43,10.43,0,0,1-3.18-2.68l-30.93-42.2a3.31,3.31,0,0,1-.63-3.44c.82-2.06,4.07-4.89,10.53-6.08a739.24,739.24,0,0,1,258-.95,22.7,22.7,0,0,1,7.23,2.48c2.19,1.27,3.64,2.84,4,4.32a3.42,3.42,0,0,1-.69,2.75L530.11,200c-2.31,3.31-8.73,5.63-15.62,5.63a31.66,31.66,0,0,1-5-.4,546.28,546.28,0,0,0-176.75.68A29.28,29.28,0,0,1,327.78,206.28Z"/><path class="cls-7" d="M422.89,141.13a728.47,728.47,0,0,1,125.59,10.81,18.62,18.62,0,0,1,5.92,2,6.75,6.75,0,0,1,1.88,1.49l-29.45,42.23c-1.13,1.63-5.71,3.92-12.34,3.92a27,27,0,0,1-4.33-.35,550.27,550.27,0,0,0-178.07.69,25.58,25.58,0,0,1-4.31.36,21.77,21.77,0,0,1-10.37-2.39,6.16,6.16,0,0,1-2-1.58L284.59,156.2c.64-.78,2.74-2.47,7.33-3.32a727.75,727.75,0,0,1,131-11.75h0m0-8A735.88,735.88,0,0,0,290.47,145c-11.37,2.09-17.07,9.44-12.39,15.82L309,203a14.19,14.19,0,0,0,4.4,3.78,29.5,29.5,0,0,0,14.37,3.46,33.66,33.66,0,0,0,5.65-.47,542,542,0,0,1,175.45-.68,35.46,35.46,0,0,0,5.61.45c8.14,0,15.73-2.78,18.9-7.34L563,159.84c3.19-4.58,1-9.58-4.56-12.82a26.05,26.05,0,0,0-8.54-3,735.83,735.83,0,0,0-127-10.94Z"/></g><g class="cls-5"><path class="cls-6" d="M719.85,298.6a25.58,25.58,0,0,1-12.39-2.9,11,11,0,0,1-2.45-1.85c-14.64-15-32.69-28.73-53.63-40.82a369.29,369.29,0,0,0-73.17-31.67,20.5,20.5,0,0,1-4-1.7c-2.22-1.28-3.68-2.86-4-4.33a3.33,3.33,0,0,1,.69-2.73l29.56-42.4c2.32-3.33,8.73-5.65,15.59-5.65a29,29,0,0,1,8.27,1.17C664,177.61,700.07,192.85,731.55,211c30.25,17.46,55.85,37.38,76.12,59.2,1.73,1.87,1.33,3.21,1.2,3.65-.58,1.92-3.35,4.67-9.28,6.12l-72.75,17.78A29.6,29.6,0,0,1,719.85,298.6Z"/><path class="cls-7" d="M616.1,160.55v8h0a24.9,24.9,0,0,1,7.12,1c39.34,11.8,75.12,26.92,106.33,44.94,29.9,17.26,55.2,36.93,75.18,58.46l.08.09c-.61.71-2.41,2.16-6.17,3.07L725.89,293.9a25.82,25.82,0,0,1-6,.7,21.83,21.83,0,0,1-10.39-2.36,7.29,7.29,0,0,1-1.59-1.18c-14.9-15.26-33.23-29.22-54.49-41.49-21.92-12.66-46.81-23.43-74-32a16,16,0,0,1-3.16-1.36,6.62,6.62,0,0,1-1.9-1.49l29.43-42.22c1.14-1.63,5.71-3.93,12.31-3.93v-8m0,0c-8,0-15.65,2.74-18.87,7.36l-29.56,42.4c-3.15,4.51-1.12,9.52,4.59,12.81a23.24,23.24,0,0,0,4.74,2c27.08,8.57,51.33,19.17,72.38,31.33,20.81,12,38.51,25.54,52.77,40.15a15.6,15.6,0,0,0,3.31,2.52,29.55,29.55,0,0,0,14.39,3.43,33.67,33.67,0,0,0,7.94-.93l72.75-17.79c11-2.68,15.71-10.27,10.06-16.37-20.33-21.89-46.2-42.14-77.05-59.95-31.14-18-67.34-33.47-108-45.67a33,33,0,0,0-9.42-1.34Z"/></g><g class="cls-8"><path class="cls-6" d="M533.39,202.24c-3.9,5.59-14.46,8.52-24.51,6.89a542,542,0,0,0-175.45.68c-7.28,1.24-14.9,0-20-3A14.19,14.19,0,0,1,309,203l-30.93-42.2a7.76,7.76,0,0,1-1.64-4.66l-.07,24.5a7.72,7.72,0,0,0,1.64,4.65l30.93,42.21a14,14,0,0,0,4.4,3.77c5.12,3,12.74,4.23,20,3a542,542,0,0,1,175.45-.67c10.05,1.62,20.61-1.3,24.51-6.89l29.57-42.4a7.71,7.71,0,0,0,1.48-4.4l.07-24.49a7.66,7.66,0,0,1-1.48,4.39Z"/><path class="cls-6" d="M800.54,283.88l-72.75,17.79c-7.77,1.89-16.6.81-22.33-2.5a15.6,15.6,0,0,1-3.31-2.52c-14.26-14.61-32-28.14-52.77-40.15-21-12.16-45.3-22.76-72.38-31.33a23.24,23.24,0,0,1-4.74-2c-3.9-2.25-6.08-5.3-6.07-8.44l-.07,24.5c0,3.14,2.17,6.19,6.07,8.44a23.66,23.66,0,0,0,4.75,2c27.07,8.57,51.32,19.17,72.37,31.32,20.81,12,38.51,25.55,52.77,40.15a15.31,15.31,0,0,0,3.31,2.53c5.74,3.31,14.56,4.39,22.33,2.49l72.75-17.78c7.81-1.91,12.45-6.28,12.46-10.84L813,273C813,277.6,808.34,282,800.54,283.88Z"/><path class="cls-6" d="M266.42,226.19c-50.64,16.52-93.76,41.12-123,72.25-5,5.3-16,7.64-25.64,5.36L44.51,286.54A24.61,24.61,0,0,1,37.77,284c-3.88-2.24-6-5.29-6-8.44L31.67,300c0,3.14,2.15,6.2,6,8.44A25.07,25.07,0,0,0,44.44,311l73.29,17.26c9.68,2.28,20.66-.06,25.64-5.37,29.22-31.12,72.34-55.73,123-72.25,6.5-2.12,10.21-6.07,10.22-10.17l.07-24.5C276.63,220.12,272.92,224.06,266.42,226.19Z"/></g><g class="cls-5"><path class="cls-6" d="M125.44,300.67a29.15,29.15,0,0,1-6.72-.76l-73.3-17.26a21.06,21.06,0,0,1-5.65-2.15c-2.29-1.32-3.75-3-4-4.5A4,4,0,0,1,37,272.79C77.13,227.7,139.36,191.15,217,167.1a28,28,0,0,1,8.25-1.2,25.78,25.78,0,0,1,12.46,2.93,10.4,10.4,0,0,1,3.17,2.68l30.93,42.2a3.47,3.47,0,0,1,.72,3.22c-.54,1.66-2.74,4-7.31,5.46-52.65,17.17-95.76,42.52-124.66,73.31C137.69,298.72,131.77,300.67,125.44,300.67Z"/><path class="cls-7" d="M225.21,161.9v8a21.88,21.88,0,0,1,10.46,2.4,6.29,6.29,0,0,1,2,1.58L268.48,216a9.91,9.91,0,0,1-4.54,2.59C210.65,236,167,261.69,137.6,293c-1.67,1.79-6.19,3.71-12.16,3.71a25.59,25.59,0,0,1-5.8-.65l-73.3-17.26A17,17,0,0,1,41.77,277a6.5,6.5,0,0,1-1.87-1.48l.09-.1c39.64-44.54,101.25-80.69,178.15-104.53a24.07,24.07,0,0,1,7.07-1v-8m0,0a32,32,0,0,0-9.44,1.38C139.93,186.79,75.69,223.31,34,270.13c-4.21,4.74-2.35,10.3,3.76,13.83a24.61,24.61,0,0,0,6.74,2.58L117.8,303.8a33.47,33.47,0,0,0,7.64.87c7.32,0,14.31-2.3,18-6.23,29.22-31.13,72.34-55.73,123-72.25,9-2.93,12.62-9.34,8.58-14.84l-30.93-42.2a14.15,14.15,0,0,0-4.4-3.78,29.73,29.73,0,0,0-14.46-3.47Z"/></g><g class="cls-9"><g class="cls-8"><path class="cls-6" d="M680,407.5,679.91,440c-.11,37.7-24.89,75.35-74.39,104.11-99.63,57.9-261.7,57.91-362,0C193.06,514.94,167.86,476.69,168,438.5l.09-32.46c-.11,38.19,25.09,76.44,75.56,105.57,100.29,57.91,262.36,57.9,362,0C655.11,482.85,679.89,445.2,680,407.5Z"/></g><g class="cls-5"><ellipse class="cls-6" cx="424.03" cy="406.77" rx="143.05" ry="246.97" transform="translate(16.05 829.64) rotate(-89.84)"/></g></g><circle class="cls-10" cx="101.46" cy="243.06" r="5.54"/><g class="cls-9"><path class="cls-11" d="M200.37,143.35l4.34,2.52a10.54,10.54,0,0,0-3.6-1.29l-4.34-2.52A10.47,10.47,0,0,1,200.37,143.35Z"/><path class="cls-10" d="M190.53,126.51l4.33,2.52c-3.92-2.28-9.35-2-15.34,1.5a33.75,33.75,0,0,0-4.44,3.09l-4.34-2.51a34.52,34.52,0,0,1,4.44-3.1C181.18,124.55,186.61,124.23,190.53,126.51Z"/><path class="cls-10" d="M101.64,240.23l-4.33-2.52c-3.87-2.25-6.24-7-6.26-13.78,0-9.69,4.78-20.87,11.82-29l4.34,2.52c-7,8.14-11.86,19.32-11.83,29C95.4,233.21,97.77,238,101.64,240.23Z"/><path class="cls-12" d="M145.24,134.43c12-7,22.8-6.75,29.84-.81a33.75,33.75,0,0,1,4.44-3.09c11.91-6.87,21.6-1.35,21.64,12.34,0,.56,0,1.14,0,1.71,5.93,1,9.87,6.4,9.89,15.11,0,12.91-8.52,28.47-19.49,36l-74.2,43c-12.2,7-21.89,1.52-21.93-12.17,0-9.69,4.79-20.87,11.83-29C108.48,173.78,125,146.13,145.24,134.43Z"/><path class="cls-10" d="M168.12,129.25c-7-4-16.58-3.47-27.21,2.67-20.25,11.69-36.77,39.34-38,63l4.34,2.52c1.27-23.66,17.78-51.31,38-63,10.64-6.13,20.26-6.7,27.21-2.66Z"/></g><g class="cls-9"><circle class="cls-10" cx="150.66" cy="219.08" r="5.54"/><circle class="cls-10" cx="206.32" cy="176.95" r="4"/><circle class="cls-10" cx="172.49" cy="117.29" r="4"/><circle class="cls-10" cx="92.54" cy="191.71" r="4"/><circle class="cls-10" cx="191.56" cy="219.39" r="3.38"/><circle class="cls-10" cx="180.18" cy="140.97" r="5.54"/><circle class="cls-10" cx="109.45" cy="138.51" r="5.54"/><circle class="cls-10" cx="117.45" cy="189.56" r="5.54"/></g><path class="cls-7" d="M142.7,175.92a11.24,11.24,0,0,1,1.64-.79,8.35,8.35,0,0,1,1.68-.44,4.89,4.89,0,0,1,1.58.05,3.07,3.07,0,0,1,1.37.69l-3.13,4.76a2.06,2.06,0,0,0-1.49-.44,4.83,4.83,0,0,0-2,.73,9,9,0,0,0-2.13,1.74,12.28,12.28,0,0,0-1.7,2.41,13.14,13.14,0,0,0-1.12,2.83,10.93,10.93,0,0,0-.39,3,6.85,6.85,0,0,0,.41,2.52,3.32,3.32,0,0,0,1.12,1.52,2.55,2.55,0,0,0,1.67.47,4.6,4.6,0,0,0,2-.67,8.53,8.53,0,0,0,2.23-1.89,10.39,10.39,0,0,0,1.58-2.61l3.42,1a16.82,16.82,0,0,1-3,4.52,16.44,16.44,0,0,1-3.71,3.05,11.68,11.68,0,0,1-4,1.52,5.07,5.07,0,0,1-3.17-.41,4.59,4.59,0,0,1-2.09-2.33,10,10,0,0,1-.76-4.2,17.28,17.28,0,0,1,.73-5.07,20.16,20.16,0,0,1,2.07-4.73A20.76,20.76,0,0,1,138.7,179,19,19,0,0,1,142.7,175.92Z"/><path class="cls-7" d="M169.91,166.78a10.31,10.31,0,0,1,.76,4.2,17.9,17.9,0,0,1-.73,5.06,21,21,0,0,1-5.24,8.81,19,19,0,0,1-4,3.09,11.52,11.52,0,0,1-4,1.53,5.07,5.07,0,0,1-3.17-.41,4.78,4.78,0,0,1-2.1-2.33,10.35,10.35,0,0,1-.75-4.2,17.56,17.56,0,0,1,.73-5.07,20.16,20.16,0,0,1,2.07-4.73,20.84,20.84,0,0,1,3.16-4.07,19.15,19.15,0,0,1,4-3.1,11.81,11.81,0,0,1,4-1.53,5.17,5.17,0,0,1,3.18.41A4.7,4.7,0,0,1,169.91,166.78ZM166,176.42a11.38,11.38,0,0,0,.4-3,7.08,7.08,0,0,0-.42-2.51,3,3,0,0,0-1.17-1.5A2.75,2.75,0,0,0,163,169a6,6,0,0,0-2.37.85,11,11,0,0,0-2.37,1.88,13.08,13.08,0,0,0-1.82,2.48,12.52,12.52,0,0,0-1.15,2.85,11,11,0,0,0-.4,3,6.85,6.85,0,0,0,.41,2.52,3,3,0,0,0,1.17,1.49,2.83,2.83,0,0,0,1.83.37,5.84,5.84,0,0,0,2.37-.85,10.12,10.12,0,0,0,2.36-1.88,12.27,12.27,0,0,0,1.82-2.48,12.87,12.87,0,0,0,1.16-2.83"/><path class="cls-7" d="M177.37,167.76a6.36,6.36,0,0,1,1.86-.75,2.61,2.61,0,0,1,1.51.08,1.93,1.93,0,0,1,1,1,4.79,4.79,0,0,1,.37,2,7.84,7.84,0,0,1-.15,1.55,9.59,9.59,0,0,1-.39,1.42,12.31,12.31,0,0,1-.61,1.34c-.23.43-.49.87-.77,1.32l-4.43,7,6.5-3.75v3.14L172.06,188v-3.78l5.67-9.16c.29-.46.58-1,.87-1.52a3.46,3.46,0,0,0,.42-1.58c0-.57-.18-.92-.54-1a1.53,1.53,0,0,0-1.26.24,3.44,3.44,0,0,0-1.35,1.4,4.33,4.33,0,0,0-.54,1.83l-3.11,1.53a9.21,9.21,0,0,1,.47-2.54,9.82,9.82,0,0,1,1.09-2.23,10.34,10.34,0,0,1,1.6-1.89A11.13,11.13,0,0,1,177.37,167.76Z"/><g class="cls-9"><path class="cls-12" d="M421.39,268.78c2.1-1.22,5-1,8.23.81,6.4,3.69,11.56,12.64,11.54,20,0,3.65-1.3,6.22-3.38,7.43l-6.5,3.71c2.08-1.21,3.37-3.78,3.38-7.43,0-7.34-5.14-16.29-11.54-20-3.21-1.85-6.13-2-8.24-.8Z"/><path class="cls-10" d="M441.14,289c0,.19,0,.38,0,.56,0,3.65-1.3,6.22-3.38,7.43l-6.5,3.71c2.08-1.21,3.37-3.78,3.38-7.43,0-.18,0-.37,0-.56Z"/><path class="cls-10" d="M423.12,273.29c-6.39-3.69-11.59-.72-11.61,6.62s5.14,16.3,11.54,20,11.59.73,11.61-6.62S429.52,277,423.12,273.29Z"/></g><g class="cls-9"><path class="cls-12" d="M415.81,276.43c1.71-1,4.07-.85,6.68.66,5.2,3,9.39,10.26,9.37,16.22,0,3-1.05,5.05-2.74,6L250,404.64c1.68-1,2.73-3.07,2.74-6,0-6-4.18-13.23-9.37-16.23-2.61-1.5-5-1.64-6.69-.65Z"/><path class="cls-10" d="M431.84,292.86c0,.15,0,.31,0,.45,0,3-1.05,5.05-2.74,6L250,404.64c1.68-1,2.73-3.07,2.74-6,0-.15,0-.3,0-.45Z"/><path class="cls-10" d="M243.33,382.38c-5.19-3-9.41-.59-9.43,5.38S238.08,401,243.27,404s9.41.58,9.43-5.38S248.52,385.38,243.33,382.38Z"/></g><g class="cls-9"><path class="cls-12" d="M235.41,378.51c2.11-1.23,5-1.05,8.24.8,6.39,3.69,11.56,12.64,11.54,20,0,3.65-1.3,6.22-3.38,7.43l-6.5,3.7c2.08-1.2,3.36-3.77,3.37-7.42,0-7.35-5.14-16.3-11.53-20-3.22-1.86-6.14-2-8.24-.81Z"/><path class="cls-10" d="M255.16,398.74c0,.19,0,.38,0,.56,0,3.65-1.3,6.22-3.38,7.43l-6.5,3.7c2.08-1.2,3.36-3.77,3.37-7.42a5.15,5.15,0,0,0,0-.56Z"/><path class="cls-10" d="M237.15,383c-6.4-3.69-11.6-.73-11.62,6.62s5.15,16.3,11.54,20,11.59.72,11.61-6.62S243.54,386.71,237.15,383Z"/></g><path class="cls-12" d="M445.39,319.47l0,0-18-22,0,0,0,0-.05,0h0l0,0h-.39l-.11,0-.11,0h-.13l-.14.05-.14,0h0l-.18.08-.2.08h0l-.23.11-.22.11h0l-.2.11-.17.09-.14.08h0l-.12.07-.12.07-.12.07-.1.06-.11.07-.1.06-.12.08-.09.06h0l-.13.09-.58.4-.18.13h0l-.09.07-.09.07-.09.06-.09.07-.08.05-.07.06-.07.05-.07.06-.08.05-.07.07-.08.06,0,0h0l0,0-.08.06-.08.06-.09.08-.1.08-.09.08-.11.09-.13.1-.12.1,0,0h0l-.09.08L421,301l-.15.14-.17.15-.17.15-.08.08,0,0-.07.06-.17.16L420,302l-.17.18-.15.14v0l0,0-.19.19-.19.21a2.25,2.25,0,0,0-.21.24l0,0,0,0-.21.24-.29.39a4.18,4.18,0,0,0-.29.45c-.22.4-.27.68-.15.83l18,22h0c.23.31,1.14.08,2.57-.74a24,24,0,0,0,6.37-5.43C445.46,320.09,445.57,319.65,445.39,319.47Zm-2.08.51,0,0h0l.1,0Zm.43-.21.07,0h0l.08,0Zm.4-.17.07,0h.05Zm.35-.13.07,0h0Zm.37-.09h0Zm.23,0h0Zm.17,0h.05Z"/><path class="cls-12" d="M427.65,330h0l-17.3-21.68v0l0,0-.05,0h0l0,0h-.4l-.1,0-.12,0h-.13l-.14.05-.13.05h0l-.18.08-.2.08h0l-.23.11-.22.11h0l-.21.11L408,309l-.14.08h0l-.12.07-.12.07-.11.07-.11.07-.1.06-.1.06-.12.08-.1.06h0l0,0-.13.08-.58.4-.18.13h0l-.09.07-.09.07-.09.06-.09.07-.07.05-.07.06-.08.05-.07.06-.07.06-.08.06-.08.06,0,0h0l0,0-.08.06-.08.06-.1.08-.09.08-.1.08-.11.09-.12.1-.12.1,0,0h0l-.09.08-.15.13-.16.14-.16.15-.17.15-.09.08,0,0-.06.06-.18.16-.17.17-.18.18-.14.14v0l0,0-.19.19-.2.21-.21.24v0l0,0-.2.24c-.11.14-.21.27-.29.39a3.06,3.06,0,0,0-.29.45c-.22.4-.27.68-.15.83l17.29,21.69v0c.22.32,1.13.09,2.57-.74a23.54,23.54,0,0,0,6.36-5.43C427.72,330.64,427.84,330.2,427.65,330Zm-2.07.51,0,0h0l.1-.05Zm.43-.21.06,0h0l.08,0Zm.39-.17.08,0h0Zm.36-.13.06,0h0Zm.37-.09h0Zm.22,0h0Zm.18,0h.05Z"/><path class="cls-10" d="M420.72,336.83l-1.11-3L403.42,312.4l-.05,0,0,0-.06.06-.18.16-.17.17-.18.18-.14.14v0l0,0-.19.19-.2.21-.21.24v0l0,0-.2.24c-.11.14-.21.27-.29.39a3.06,3.06,0,0,0-.29.45c-.22.4-.27.68-.15.83l17.29,21.69v0C418.53,337.79,419.38,337.58,420.72,336.83Z"/><polygon class="cls-10" points="421.35 339.3 418.31 337.5 417.14 333.03 419.59 334.47 421.35 339.3"/><path class="cls-13" d="M599.12,406.35h0L444.21,317.89a3,3,0,0,0-3,.3,9.36,9.36,0,0,0-4.21,7.13h0c0,.05,0,.1,0,.15s0,0,0,.06,0,0,0,.07a4.12,4.12,0,0,0,.08.81.3.3,0,0,0,0,.1,2.93,2.93,0,0,0,.22.69l0,.06a2.44,2.44,0,0,0,.36.56l0,0a1.91,1.91,0,0,0,.49.41l154.06,88c1.38.88,1.35,2.24-.11,3.1a7.52,7.52,0,0,1-6.16.09l-4.89-2.74L426.44,328.41a3,3,0,0,0-3,.3,9.33,9.33,0,0,0-4.21,7.13h0s0,.09,0,.14,0,0,0,.06,0,0,0,.07a5.09,5.09,0,0,0,.07.81l0,.1a2.79,2.79,0,0,0,.22.69l0,.06a2.44,2.44,0,0,0,.36.56l0,0a1.87,1.87,0,0,0,.49.4l155.62,88.81h0a2.09,2.09,0,0,0,.3.14l0,.07c8.38,4.84,18.73,5,26.29-.94C608.9,421.87,611,412.45,599.12,406.35Z"/><path class="cls-10" d="M595.83,415.22l-3.58,1h0c1.38.88,1.35,2.24-.11,3.1a4.82,4.82,0,0,1-.77.33h0S595.91,418.87,595.83,415.22Z"/><path class="cls-2" d="M603.78,423.6A20.35,20.35,0,0,1,591,427.94c-4,0-9.06-1.64-12.82-3.68l-.08.14.08-.14-152.39-87v0l-6.22-3.51a7.45,7.45,0,0,0-.37,2h0s0,.09,0,.14,0,0,0,.06,0,0,0,.07a5.09,5.09,0,0,0,.07.81l0,.1a2.79,2.79,0,0,0,.22.69l0,.06a2.44,2.44,0,0,0,.36.56l0,0a1.87,1.87,0,0,0,.49.4l155.62,88.81h0a2.09,2.09,0,0,0,.3.14l0,.07c8.38,4.84,18.73,5,26.29-.94a13,13,0,0,0,5-7.84A13.25,13.25,0,0,1,603.78,423.6Z"/><path class="cls-2" d="M445.47,327.85l-8.13-4.59a7.59,7.59,0,0,0-.37,2.06h0c0,.05,0,.1,0,.15s0,0,0,.06,0,0,0,.07a4.12,4.12,0,0,0,.08.81.3.3,0,0,0,0,.1,2.93,2.93,0,0,0,.22.69l0,.06a2.44,2.44,0,0,0,.36.56l0,0a1.91,1.91,0,0,0,.49.41l154.06,88a1.76,1.76,0,0,1,1,1.71,5.26,5.26,0,0,0,1-.44,2.76,2.76,0,0,0,1.55-2.27,2.68,2.68,0,0,0-1.4-2.29l-149-85.08Z"/><path class="cls-10" d="M578.36,424.34l-.17-.08h0l1,.47Z"/><polygon class="cls-10" points="578.19 424.26 578.19 424.26 578.19 424.26 578.19 424.26"/><path class="cls-10" d="M438.45,326.28l-1.11-3-16.88-21.75,0,0,0,0-.07.06-.17.16L420,302l-.17.18-.15.14v0l0,0-.19.19-.19.21a2.25,2.25,0,0,0-.21.24l0,0,0,0-.21.24-.29.39a4.18,4.18,0,0,0-.29.45c-.22.4-.27.68-.15.83l18,22h0C436.26,327.24,437.11,327,438.45,326.28Z"/><polygon class="cls-10" points="438.39 328.41 436.05 326.95 434.87 322.49 437.32 323.93 438.39 328.41"/><path class="cls-12" d="M409.14,340.63h0l-18-22h0l-.05,0-.05,0h0l0,0h-.4l-.11,0-.11,0h-.13l-.14.05-.13.05h0l-.19.07-.2.09h0l-.23.11-.22.11h0l-.2.11-.16.09-.15.08h0l-.12.07-.12.07-.12.07-.1.06-.1.07-.11.06-.12.08-.09.06h0l-.13.09-.59.4-.17.13h0l-.09.07-.09.06-.09.07-.09.07-.07.05-.08.06-.07.05-.07.06-.08.05-.07.06-.08.06,0,0h0l-.05,0-.08.07-.08.06-.09.08-.1.08-.09.07-.11.09-.12.11-.13.1,0,0h0l-.1.08-.15.13-.15.14-.17.14a1.29,1.29,0,0,1-.17.16l-.08.08h0l-.07.07-.17.16-.17.17-.18.18a.93.93,0,0,0-.14.14h0l0,0-.19.19-.19.21-.21.24,0,0,0,0-.21.24-.29.39a4.18,4.18,0,0,0-.29.45c-.22.4-.26.68-.14.83l18,22v0c.23.32,1.14.09,2.57-.74a23.59,23.59,0,0,0,6.37-5.43C409.21,341.25,409.32,340.81,409.14,340.63Zm-2.07.51,0,0h0l.11-.05Zm.42-.21.07,0h0l.07,0Zm.4-.18.07,0h0l0,0Zm.36-.12.06,0h0Zm.37-.09h0Zm.22,0h0Zm.17,0h.05Z"/><path class="cls-12" d="M391.4,351.17l0,0L374.14,329.5h0s0,0,0,0l-.05,0h0l0,0h-.4l-.1,0-.12,0h-.12l-.15,0-.13.05h0l-.18.07-.2.09h0l-.23.11-.22.11h0l-.21.11-.16.09-.14.08h0l-.11.07-.12.07-.12.07-.1.06-.11.07-.1.06-.12.08-.09.06h0l-.13.09-.58.4-.18.13h0l-.09.07-.09.06-.08.07-.09.07-.08,0-.07.06-.07.05-.08.06L369,332l-.08.06-.07.06,0,0h0l0,0-.08.07-.08.06-.1.08-.09.08-.1.07-.11.09-.12.11-.12.1,0,0h0l-.09.08-.15.13-.16.14-.16.14-.17.16-.08.08h0l-.07.07-.17.16-.18.17-.18.18-.14.14h0l0,0-.19.19-.19.21a2.25,2.25,0,0,0-.21.24l0,0,0,0-.21.24c-.11.13-.2.26-.29.39a4.18,4.18,0,0,0-.29.45c-.22.4-.27.68-.15.83l17.29,21.69v0c.23.32,1.14.09,2.57-.74a23.39,23.39,0,0,0,6.36-5.43C391.48,351.8,391.59,351.36,391.4,351.17Zm-2.07.52,0,0h0l.1-.05Zm.43-.22.07,0h0l.08,0Zm.39-.17.08,0h0l0,0Zm.36-.13.06,0h0Zm.37-.09h0Zm.22,0h0Zm.18,0h.05Z"/><path class="cls-10" d="M384.47,358l-1.11-3-16.19-21.41,0,0h0l-.07.07-.17.16-.18.17-.18.18-.14.14h0l0,0-.19.19-.19.21a2.25,2.25,0,0,0-.21.24l0,0,0,0-.21.24c-.11.13-.2.26-.29.39a4.18,4.18,0,0,0-.29.45c-.22.4-.27.68-.15.83l17.29,21.69v0C382.28,359,383.13,358.74,384.47,358Z"/><polygon class="cls-10" points="385.1 360.45 382.06 358.66 380.89 354.19 383.34 355.63 385.1 360.45"/><path class="cls-13" d="M562.87,427.51h0L408,339.05a3,3,0,0,0-3,.29,9.35,9.35,0,0,0-4.22,7.13h0a.65.65,0,0,0,0,.14s0,0,0,.06,0,.05,0,.08a4.12,4.12,0,0,0,.08.81.3.3,0,0,0,0,.1,3.49,3.49,0,0,0,.22.69l0,.06a2.18,2.18,0,0,0,.36.55l0,0a2.37,2.37,0,0,0,.49.41l154.06,88c1.38.89,1.36,2.25-.11,3.1a7.42,7.42,0,0,1-6.15.09l-4.89-2.73L390.2,349.57a3,3,0,0,0-3,.29A9.39,9.39,0,0,0,383,357h0a.75.75,0,0,0,0,.15s0,0,0,.06,0,0,0,.07a4.12,4.12,0,0,0,.08.81.3.3,0,0,0,0,.1,3.49,3.49,0,0,0,.22.69l0,.06a2.44,2.44,0,0,0,.36.56l0,0a1.91,1.91,0,0,0,.49.41L539.8,448.73h0a1.68,1.68,0,0,0,.3.15l0,.06c8.38,4.84,18.73,5,26.29-.93C572.65,443,574.75,433.61,562.87,427.51Z"/><path class="cls-10" d="M559.58,436.37l-3.58,1h0c1.38.89,1.36,2.25-.11,3.1a3.83,3.83,0,0,1-.77.34h0S559.66,440,559.58,436.37Z"/><path class="cls-2" d="M567.53,444.76a20.35,20.35,0,0,1-12.77,4.34c-4,0-9.06-1.65-12.82-3.68l-.08.13.08-.13-152.38-87h0L383.33,355a7.52,7.52,0,0,0-.37,2h0a.75.75,0,0,0,0,.15s0,0,0,.06,0,0,0,.07a4.12,4.12,0,0,0,.08.81.3.3,0,0,0,0,.1,3.49,3.49,0,0,0,.22.69l0,.06a2.44,2.44,0,0,0,.36.56l0,0a1.91,1.91,0,0,0,.49.41L539.8,448.73h0a1.68,1.68,0,0,0,.3.15l0,.06c8.38,4.84,18.73,5,26.29-.93a13,13,0,0,0,5-7.85A13.19,13.19,0,0,1,567.53,444.76Z"/><path class="cls-2" d="M409.22,349l-8.13-4.58a7.59,7.59,0,0,0-.37,2.05h0a.65.65,0,0,0,0,.14s0,0,0,.06,0,.05,0,.08a4.12,4.12,0,0,0,.08.81.3.3,0,0,0,0,.1,3.49,3.49,0,0,0,.22.69l0,.06a2.18,2.18,0,0,0,.36.55l0,0a2.37,2.37,0,0,0,.49.41l154.06,88a1.77,1.77,0,0,1,1,1.72,4.75,4.75,0,0,0,1-.45,2.73,2.73,0,0,0,1.55-2.27,2.7,2.7,0,0,0-1.4-2.29L409.22,349Z"/><path class="cls-10" d="M542.11,445.5l-.17-.08h0l1,.47Z"/><polygon class="cls-10" points="541.94 445.42 541.94 445.42 541.94 445.42 541.94 445.42"/><path class="cls-10" d="M402.2,347.44l-1.11-3-16.88-21.76,0,0h0l-.07.07-.17.16-.17.17-.18.18a.93.93,0,0,0-.14.14h0l0,0-.19.19-.19.21-.21.24,0,0,0,0-.21.24-.29.39a4.18,4.18,0,0,0-.29.45c-.22.4-.26.68-.14.83l18,22v0C400,348.4,400.87,348.19,402.2,347.44Z"/><polygon class="cls-10" points="402.15 349.56 399.8 348.11 398.62 343.64 401.07 345.08 402.15 349.56"/><path class="cls-12" d="M372.89,361.78l0,0-18-22h0l0,0-.06,0h-.45l-.11,0-.11,0,0,0h0l-.06,0-.14.05-.13.05h0l-.19.07-.2.09h0l-.24.11-.22.12h0l-.2.11a.65.65,0,0,0-.16.09l-.14.08h0l-.12.07-.12.07-.12.07-.1.06-.1.06-.11.07-.11.08-.1.06h0l0,0-.13.09c-.2.12-.39.26-.58.4l-.18.12h0l-.09.06-.09.07-.09.07-.09.06-.07.06-.08,0-.07.06-.07.05-.07.06-.08.06-.08.06,0,0h0l-.05,0-.07.06-.09.07-.09.08-.1.07-.09.08-.11.09-.12.1-.12.11,0,0h0l-.1.08a.86.86,0,0,0-.14.13l-.16.13-.17.15-.16.16-.09.07,0,0-.07.06-.17.17-.17.17-.18.17-.14.15h0l0,0-.18.2-.2.21-.21.24,0,0,0,0-.2.25q-.17.19-.3.39a5.12,5.12,0,0,0-.28.44c-.23.41-.27.69-.15.84l18,22v0c.23.32,1.14.09,2.58-.74a23.69,23.69,0,0,0,6.36-5.43C373,362.4,373.08,362,372.89,361.78Zm-2.07.52,0,0h0l.1,0Zm.43-.22.06,0h0l.07,0Zm.39-.17.07,0h.06Zm.36-.13.06,0h0Zm.37-.09h0Zm.22,0h0Zm.17,0h.06Z"/><path class="cls-12" d="M355.16,372.33l0,0-17.29-21.69h0l0,0-.05,0h-.45l-.11,0-.11,0-.05,0h0l0,0-.14.05-.14.05h0l-.18.07-.2.09h0l-.23.11-.22.12h0l-.2.11-.17.09-.14.08h0l-.12.07-.12.07-.12.07-.1.06-.1.06-.11.07-.12.08-.09.06h0l0,0-.13.09-.58.4-.17.12h0l-.09.07-.09.06-.09.07-.09.06-.08.06L333,353l-.07.06-.07,0-.08.06-.07.06-.08.06,0,0h0l0,0-.08.06-.08.07-.09.08-.1.07-.09.08-.11.09-.13.1-.12.11,0,0h0l-.09.08-.15.13-.15.13-.17.15-.17.16-.08.07,0,0-.07.07a1.29,1.29,0,0,0-.17.16l-.18.17-.17.17-.15.15h0l0,0-.19.2-.19.21-.21.24,0,0,0,0-.21.25-.29.39c-.12.16-.21.31-.29.44-.22.41-.26.69-.15.84l17.3,21.68h0c.23.32,1.14.09,2.57-.74a23.77,23.77,0,0,0,6.37-5.43C355.23,373,355.34,372.52,355.16,372.33Zm-2.08.52,0,0h0a.31.31,0,0,0,.1-.05Zm.43-.22.07,0h0l.08,0Zm.4-.17.07,0h0Zm.35-.13.07,0h0Zm.37-.09h0Zm.23,0h0Zm.17,0h0l0,0Z"/><path class="cls-10" d="M348.22,379.15l-1.11-3-16.19-21.41,0,0,0,0-.07.07a1.29,1.29,0,0,0-.17.16l-.18.17-.17.17-.15.15h0l0,0-.19.2-.19.21-.21.24,0,0,0,0-.21.25-.29.39c-.12.16-.21.31-.29.44-.22.41-.26.69-.15.84l17.3,21.68h0C346,380.11,346.88,379.9,348.22,379.15Z"/><polygon class="cls-10" points="348.86 381.61 345.82 379.81 344.64 375.35 347.09 376.79 348.86 381.61"/><path class="cls-13" d="M526.62,448.67h0L371.71,360.21a3,3,0,0,0-3,.29,9.35,9.35,0,0,0-4.22,7.13h0v.14s0,0,0,.06a.2.2,0,0,1,0,.07,5.18,5.18,0,0,0,.08.82s0,.06,0,.1a4.3,4.3,0,0,0,.22.69l0,.06a2.75,2.75,0,0,0,.36.55l0,0a2.37,2.37,0,0,0,.49.41l154.06,88c1.38.89,1.36,2.25-.11,3.1a7.5,7.5,0,0,1-6.15.09L508.6,459,354,370.73a3,3,0,0,0-3,.29,9.35,9.35,0,0,0-4.22,7.13h0v.14s0,0,0,.06,0,0,0,.07a5.07,5.07,0,0,0,.08.82.36.36,0,0,0,0,.1,3.49,3.49,0,0,0,.22.69l0,.06a2.38,2.38,0,0,0,.36.55l0,0a2.37,2.37,0,0,0,.49.41l155.62,88.81h0a2,2,0,0,0,.3.14l0,.07c8.38,4.84,18.74,5,26.29-.93C536.4,464.18,538.51,454.77,526.62,448.67Z"/><path class="cls-10" d="M523.34,457.53l-3.59,1h0c1.38.89,1.36,2.25-.11,3.1a3.83,3.83,0,0,1-.77.34h0S523.41,461.19,523.34,457.53Z"/><path class="cls-2" d="M531.29,465.92a20.38,20.38,0,0,1-12.78,4.34c-4,0-9.05-1.65-12.82-3.68l-.08.13.08-.13-152.38-87v0l-6.22-3.51a7.52,7.52,0,0,0-.37,2h0v.14s0,0,0,.06,0,0,0,.07a5.07,5.07,0,0,0,.08.82.36.36,0,0,0,0,.1,3.49,3.49,0,0,0,.22.69l0,.06a2.38,2.38,0,0,0,.36.55l0,0a2.37,2.37,0,0,0,.49.41l155.62,88.81h0a2,2,0,0,0,.3.14l0,.07c8.38,4.84,18.74,5,26.29-.93a13,13,0,0,0,5-7.85A13.27,13.27,0,0,1,531.29,465.92Z"/><path class="cls-2" d="M373,370.16l-8.12-4.58a7.24,7.24,0,0,0-.38,2.05h0v.14s0,0,0,.06,0,.05,0,.07a5.18,5.18,0,0,0,.08.82s0,.06,0,.1a4.3,4.3,0,0,0,.22.69l0,.06a2.75,2.75,0,0,0,.36.55l0,0a2.37,2.37,0,0,0,.49.41l154.06,88a1.78,1.78,0,0,1,1,1.72,4.88,4.88,0,0,0,1-.45,2.76,2.76,0,0,0,1.56-2.27,2.71,2.71,0,0,0-1.41-2.29L373,370.16Z"/><path class="cls-10" d="M505.86,466.66l-.17-.09h0l1,.47Z"/><polygon class="cls-10" points="505.69 466.58 505.69 466.58 505.69 466.58 505.69 466.58"/><path class="cls-10" d="M366,368.6l-1.11-3L348,343.82l-.05,0,0,0-.07.06-.17.17-.17.17-.18.17-.14.15h0l0,0-.18.2-.2.21-.21.24,0,0,0,0-.2.25q-.17.19-.3.39a5.12,5.12,0,0,0-.28.44c-.23.41-.27.69-.15.84l18,22v0C363.76,369.56,364.62,369.35,366,368.6Z"/><polygon class="cls-10" points="365.9 370.72 363.55 369.27 362.37 364.8 364.82 366.24 365.9 370.72"/><path class="cls-12" d="M336.64,382.94l0,0-18-22v0l0,0-.05,0h-.06l-.07,0h-.33l-.1,0-.12,0h-.07l-.06,0-.14,0-.13.05h0l-.18.08-.2.09h0l-.23.11-.22.11h0l-.2.11-.16.09-.14.08h0l-.12.07-.12.07-.11.07-.11.07-.1.06-.1.07-.12.07-.1.07h0l0,0-.13.08-.58.4-.18.13h0l-.09.06-.09.07-.09.06-.09.07-.07.06-.07.05-.08.06-.07.05-.07.06-.08.06-.08.06,0,0h0l0,0-.08.06-.08.07-.1.07-.09.08-.1.08-.11.09-.12.1-.12.1,0,0h0l-.09.08-.15.13-.16.14-.16.15-.17.15-.09.08,0,0-.06.06-.18.17-.17.16-.18.18-.14.14v0l0,0-.18.2-.2.21-.21.23,0,0,0,0-.2.25-.3.38c-.11.17-.21.32-.28.45-.23.41-.27.69-.15.83l18,22h0c.22.32,1.13.09,2.57-.74a24.05,24.05,0,0,0,6.36-5.43C336.71,383.56,336.83,383.13,336.64,382.94Zm-2.07.51,0,0h0l.1-.05Zm.43-.21.06,0h0l.07,0Zm.39-.17.08,0h0Zm.36-.13.06,0h0Zm.37-.09h0Zm.22,0h0Zm.18,0h0l0,0Z"/><path class="cls-12" d="M318.91,393.49l0,0-17.29-21.69v0l-.05,0-.05,0h0l-.07,0h-.33l-.11,0-.11,0h-.08l0,0-.14,0-.13.05h0l-.19.08-.2.09h0l-.23.11-.22.11h0l-.2.11-.16.09-.15.08h0l-.12.07-.12.07-.12.08-.1.06-.1.06-.11.07-.12.07-.09.07h0l0,0-.13.08-.59.4-.17.13h0l-.09.06-.09.07L297,374l-.09.07-.07.06-.08.05-.07.06-.07.05-.08.06-.07.06-.08.06,0,0h0l0,0-.07.06-.09.07-.09.07-.1.08-.09.08-.11.09-.12.1-.13.1,0,0h0l-.1.07-.15.13-.15.14-.17.15-.17.15-.08.08,0,0-.07.06-.17.17-.17.16-.18.18-.14.14,0,0,0,0-.19.2-.19.21-.21.23,0,0,0,0-.21.25-.29.38a4.36,4.36,0,0,0-.28.45c-.23.41-.27.69-.15.83L309.57,401h0c.23.32,1.14.09,2.57-.74a24,24,0,0,0,6.37-5.43C319,394.11,319.09,393.68,318.91,393.49Zm-2.07.51,0,0h0l.11-.05Zm.42-.21.07,0h0l.07,0Zm.4-.17.07,0h0Zm.36-.13.06,0h0Zm.37-.09Zm.22,0h0Zm.17,0h0l0,0Z"/><path class="cls-10" d="M312,400.31l-1.11-3-16.19-21.41,0,0,0,0-.07.06-.17.17-.17.16-.18.18-.14.14,0,0,0,0-.19.2-.19.21-.21.23,0,0,0,0-.21.25-.29.38a4.36,4.36,0,0,0-.28.45c-.23.41-.27.69-.15.83L309.57,401h0C309.78,401.26,310.64,401.06,312,400.31Z"/><polygon class="cls-10" points="312.61 402.77 309.57 400.97 308.39 396.51 310.84 397.95 312.61 402.77"/><path class="cls-13" d="M490.38,469.82h0L335.46,381.36a3,3,0,0,0-3,.3,9.34,9.34,0,0,0-4.22,7.13h0v.27a5.18,5.18,0,0,0,.08.82.3.3,0,0,1,0,.1,3.88,3.88,0,0,0,.22.68s0,0,0,.07a3,3,0,0,0,.35.55l0,0a1.92,1.92,0,0,0,.5.4l154.06,88c1.38.89,1.35,2.25-.12,3.1a7.49,7.49,0,0,1-6.15.09l-4.89-2.74L317.7,391.88a3,3,0,0,0-3,.3,9.34,9.34,0,0,0-4.22,7.13h0v.27a5.18,5.18,0,0,0,.08.82s0,.06,0,.1a4.3,4.3,0,0,0,.22.69l0,.06a2.35,2.35,0,0,0,.35.55l0,0a2.37,2.37,0,0,0,.49.41l155.63,88.81h0l.29.14,0,.07c8.39,4.84,18.74,5,26.3-.93C500.16,485.34,502.26,475.93,490.38,469.82Z"/><path class="cls-10" d="M487.09,478.69l-3.59,1h0c1.38.89,1.35,2.25-.12,3.1a4.17,4.17,0,0,1-.77.34h0S487.16,482.35,487.09,478.69Z"/><path class="cls-2" d="M495,487.08a20.37,20.37,0,0,1-12.77,4.34c-4,0-9.06-1.65-12.83-3.69l-.08.14.08-.14-152.38-87v0l-6.22-3.51a7.52,7.52,0,0,0-.37,2h0v.27a5.18,5.18,0,0,0,.08.82s0,.06,0,.1a4.3,4.3,0,0,0,.22.69l0,.06a2.58,2.58,0,0,0,.35.55l0,0a2.37,2.37,0,0,0,.49.41l155.63,88.81h0l.29.14,0,.07c8.39,4.84,18.74,5,26.3-.93a13,13,0,0,0,4.95-7.85A13.25,13.25,0,0,1,495,487.08Z"/><path class="cls-2" d="M336.72,391.32l-8.12-4.59a7.68,7.68,0,0,0-.38,2.06h0v.27a5.18,5.18,0,0,0,.08.82.3.3,0,0,1,0,.1,3.88,3.88,0,0,0,.22.68s0,0,0,.07a3,3,0,0,0,.35.55l0,0a1.92,1.92,0,0,0,.5.4l154.06,88a1.77,1.77,0,0,1,1,1.71,5.8,5.8,0,0,0,1.05-.44,2.76,2.76,0,0,0,1.55-2.27,2.68,2.68,0,0,0-1.41-2.29l-149-85.08Z"/><path class="cls-10" d="M469.62,487.81l-.17-.08h0l1,.47Z"/><polygon class="cls-10" points="469.44 487.74 469.44 487.73 469.44 487.74 469.44 487.74"/><path class="cls-10" d="M329.71,389.76l-1.11-3L311.72,365l-.05,0,0,0-.06.06-.18.17-.17.16-.18.18-.14.14v0l0,0-.18.2-.2.21-.21.23,0,0,0,0-.2.25-.3.38c-.11.17-.21.32-.28.45-.23.41-.27.69-.15.83l18,22h0C327.51,390.72,328.37,390.51,329.71,389.76Z"/><polygon class="cls-10" points="329.65 391.88 327.3 390.42 326.12 385.96 328.57 387.4 329.65 391.88"/><path class="cls-12" d="M300.39,404.1l0,0-18-22,0,0,0,0s0,0-.05,0h-.06l-.06,0h-.34l-.1,0-.12,0h-.07l-.06,0-.14,0-.13.05h0l-.18.08-.2.08h0l-.23.11-.22.11h0l-.21.11-.16.09-.14.08h0l-.12.07-.12.07a.41.41,0,0,1-.11.07l-.11.07-.1.06-.1.07-.12.07-.1.06h0l0,0-.13.08-.58.4-.18.13h0l-.09.06-.09.07-.09.06-.09.07-.07.05-.07.06-.08,0-.07.06-.07.06-.08.06-.08.06,0,0h0l0,0-.08.06-.08.06-.1.08-.09.08-.1.08-.11.09-.12.1-.12.1,0,0h0l-.09.08-.15.13-.16.14-.16.15-.17.15-.09.08,0,0-.06.06-.18.16a1.37,1.37,0,0,1-.17.17l-.18.18-.14.14v0l0,0-.19.19-.2.21-.21.24v0l0,0-.2.24c-.11.14-.21.27-.29.39a3.06,3.06,0,0,0-.29.45c-.22.4-.27.68-.15.83l18,22h0c.23.32,1.14.08,2.57-.74A23.9,23.9,0,0,0,300,405.4C300.46,404.72,300.58,404.29,300.39,404.1Zm-2.07.51,0,0h0l.1,0Zm.43-.21.06,0h0l.08,0Zm.39-.17s.05,0,.08,0h0Zm.36-.13.06,0h0Zm.37-.09h0Zm.22,0h0Zm.18,0h0l0,0Z"/><path class="cls-12" d="M282.66,414.65l0,0L265.39,393v0l0,0,0,0h-.06l-.07,0h-.33l-.1,0-.12,0h-.07l-.06,0-.14,0-.13.05h0l-.19.08-.2.09h0l-.24.11-.22.11h0l-.2.11-.16.09-.14.08h0l-.12.07-.12.07-.12.07-.1.07-.1.06-.1.07-.12.07-.1.06h0l0,0a.57.57,0,0,0-.13.08l-.58.4-.18.13h0l-.09.06-.09.07-.09.06-.09.07-.07.05-.08.06-.07.05-.07.06-.07.06-.08.06-.08.06,0,0h0l0,0-.07.06-.08.06-.1.08-.1.08-.09.08-.11.09-.12.1-.12.1,0,0h0l-.09.08-.15.13-.16.14-.17.15-.16.15-.09.08,0,0-.07.06a1.29,1.29,0,0,1-.17.16l-.17.17-.18.18-.14.14,0,0,0,0-.18.19-.2.21-.21.24,0,0,0,0a2.43,2.43,0,0,0-.2.25l-.3.38a5.15,5.15,0,0,0-.28.45c-.23.4-.27.68-.15.83l17.29,21.69h0c.23.31,1.14.08,2.58-.74a24.05,24.05,0,0,0,6.36-5.43C282.73,415.27,282.85,414.83,282.66,414.65Zm-2.07.51,0,0h0l.1-.05ZM281,415l.06,0h0l.07,0Zm.39-.17.07,0h.06Zm.36-.13.06,0h0Zm.37-.09h0Zm.22,0h0Zm.17,0h.06Z"/><path class="cls-10" d="M275.73,421.46l-1.11-3L258.43,397l-.05,0,0,0-.07.06a1.29,1.29,0,0,1-.17.16l-.17.17-.18.18-.14.14,0,0,0,0-.18.19-.2.21-.21.24,0,0,0,0a2.43,2.43,0,0,0-.2.25l-.3.38a5.15,5.15,0,0,0-.28.45c-.23.4-.27.68-.15.83l17.29,21.69h0C273.53,422.42,274.39,422.21,275.73,421.46Z"/><polygon class="cls-10" points="276.36 423.93 273.32 422.13 272.14 417.67 274.59 419.1 276.36 423.93"/><path class="cls-13" d="M454.13,491h0L299.21,402.52a3,3,0,0,0-3,.3A9.37,9.37,0,0,0,292,410h0v.2a.2.2,0,0,0,0,.07,4.14,4.14,0,0,0,.07.81.44.44,0,0,1,0,.1,3.49,3.49,0,0,0,.23.69l0,.06a2.44,2.44,0,0,0,.36.56s0,0,0,0a1.92,1.92,0,0,0,.5.4l154.06,88c1.38.88,1.35,2.24-.12,3.1A7.49,7.49,0,0,1,441,504l-4.89-2.74L281.45,413a3,3,0,0,0-3,.3,9.37,9.37,0,0,0-4.22,7.13h0v.27a5.3,5.3,0,0,0,.08.82.29.29,0,0,1,0,.09,4,4,0,0,0,.22.69.43.43,0,0,1,0,.07,2.61,2.61,0,0,0,.36.55s0,0,0,0a1.92,1.92,0,0,0,.5.4l155.62,88.82h0l.29.14,0,.07c8.39,4.84,18.74,5,26.3-.93C463.91,506.5,466,497.08,454.13,491Z"/><path class="cls-10" d="M450.84,499.85l-3.58,1h0c1.38.88,1.35,2.24-.12,3.1a4.36,4.36,0,0,1-.76.33h0S450.92,503.5,450.84,499.85Z"/><path class="cls-2" d="M458.79,508.23A20.35,20.35,0,0,1,446,512.57c-4,0-9.06-1.64-12.82-3.68l-.09.14.08-.14-152.38-87v0l-6.22-3.51a7.45,7.45,0,0,0-.37,2h0v.27a5.3,5.3,0,0,0,.08.82.29.29,0,0,1,0,.09,4,4,0,0,0,.22.69.43.43,0,0,1,0,.07,2.61,2.61,0,0,0,.36.55s0,0,0,0a1.92,1.92,0,0,0,.5.4l155.62,88.82h0l.29.14,0,.07c8.39,4.84,18.74,5,26.3-.93a13.06,13.06,0,0,0,5-7.85A13.25,13.25,0,0,1,458.79,508.23Z"/><path class="cls-2" d="M300.47,412.48l-8.12-4.59A8,8,0,0,0,292,410h0v.2a.2.2,0,0,0,0,.07,4.14,4.14,0,0,0,.07.81.44.44,0,0,1,0,.1,3.49,3.49,0,0,0,.23.69l0,.06a2.44,2.44,0,0,0,.36.56s0,0,0,0a1.92,1.92,0,0,0,.5.4l154.06,88a1.77,1.77,0,0,1,1,1.71,5.51,5.51,0,0,0,1.05-.44,2.76,2.76,0,0,0,1.55-2.27,2.67,2.67,0,0,0-1.41-2.29l-149-85.08Z"/><path class="cls-10" d="M433.37,509l-.17-.08h0l1,.47Z"/><polygon class="cls-10" points="433.2 508.89 433.19 508.89 433.2 508.89 433.2 508.89"/><path class="cls-10" d="M293.46,410.91l-1.11-3-16.88-21.75-.05,0,0,0-.06.06-.18.16a1.37,1.37,0,0,1-.17.17l-.18.18-.14.14v0l0,0-.19.19-.2.21-.21.24v0l0,0-.2.24c-.11.14-.21.27-.29.39a3.06,3.06,0,0,0-.29.45c-.22.4-.27.68-.15.83l18,22h0C291.27,411.87,292.12,411.67,293.46,410.91Z"/><polygon class="cls-10" points="293.4 413.04 291.05 411.58 289.88 407.12 292.33 408.56 293.4 413.04"/><path class="cls-7" d="M580.88,422.69c1.22.42,2.45.75,3.67,1.05a22.27,22.27,0,0,0,3.69.57,14.46,14.46,0,0,0,3.66-.24,12.76,12.76,0,0,0,3.49-1.38,8,8,0,0,1-3.28,2.13,10.9,10.9,0,0,1-3.93.49A14.46,14.46,0,0,1,580.88,422.69Z"/><path class="cls-7" d="M545.11,444c1.22.43,2.45.75,3.66,1.05a22.43,22.43,0,0,0,3.69.57,14.12,14.12,0,0,0,3.67-.24,12.83,12.83,0,0,0,3.48-1.38,8.14,8.14,0,0,1-3.27,2.14,11,11,0,0,1-3.94.48A14.4,14.4,0,0,1,545.11,444Z"/><path class="cls-7" d="M509.33,465.24c1.22.42,2.45.75,3.67,1.05a24.45,24.45,0,0,0,3.68.57,15,15,0,0,0,3.67-.24,13.37,13.37,0,0,0,3.48-1.38,8.15,8.15,0,0,1-3.27,2.13,11,11,0,0,1-3.94.48A14.48,14.48,0,0,1,509.33,465.24Z"/><path class="cls-7" d="M473.55,486.51c1.22.42,2.45.75,3.67,1.05a24.58,24.58,0,0,0,3.69.57,15,15,0,0,0,3.66-.24,12.76,12.76,0,0,0,3.49-1.38,8,8,0,0,1-3.28,2.13,11,11,0,0,1-3.94.49A14.56,14.56,0,0,1,473.55,486.51Z"/><path class="cls-7" d="M437.78,507.78c1.22.42,2.44.75,3.66,1.05a22.43,22.43,0,0,0,3.69.57,14.12,14.12,0,0,0,3.67-.24,12.83,12.83,0,0,0,3.48-1.38,8,8,0,0,1-3.28,2.13,10.9,10.9,0,0,1-3.93.49A14.4,14.4,0,0,1,437.78,507.78Z"/><circle class="cls-14" cx="430" cy="399" r="36"/><g class="cls-15"><path class="cls-12" d="M323.39,324.58s.05,0,.06,0l-45.06-55.2a.08.08,0,0,0,0,0l-.1-.1-.13-.07h-.05l-.09,0-.17,0-.18,0h-.2l-.21,0-.18,0H277l-.26.05-.29.07-.12,0-.07,0-.13,0a2.53,2.53,0,0,0-.36.12c-.11,0-.22.08-.33.12h0l0,0-.45.18-.51.23h0l-.58.28-.55.28h0l-.51.28-.41.22-.35.2,0,0-.3.17-.3.18-.29.18a2.26,2.26,0,0,0-.26.16l-.26.16-.26.16-.3.19-.24.16h0l-.07,0-.32.22c-.49.32-1,.66-1.46,1l-.45.32h0l-.22.16-.23.16-.22.17-.23.17-.18.14-.18.13-.19.14-.18.14-.18.14-.2.15-.19.15-.08.06h0l-.1.09-.2.15-.2.16-.24.2-.24.19-.24.2-.27.22-.31.26-.31.26-.09.08,0,0-.24.2-.37.32-.39.35-.42.37-.42.38-.21.2-.05.05-.17.15-.43.41-.44.42-.44.45-.36.36,0,0-.06.06-.46.48-.49.53-.53.6,0,.05-.06.07-.51.61c-.27.34-.52.66-.74,1s-.53.79-.72,1.12c-.56,1-.67,1.72-.37,2.09L300,343.33a.06.06,0,0,0,0,0c.57.8,2.85.22,6.45-1.85,5.88-3.4,13-9.49,15.94-13.61C323.57,326.13,323.86,325,323.39,324.58Zm-5.19,1.28.09-.05h0l.26-.13Zm1.07-.53.16-.08h0l.19-.08Zm1-.43.18-.08,0,0,.1,0Zm.9-.32.15-.05.06,0h0Zm.92-.23h0Zm.56,0h.05l.1,0Zm.44.08h.07l.05,0Z"/><path class="cls-12" d="M279,351s.05,0,.06.05l-43.33-54.35,0,0a.28.28,0,0,0-.1-.09.57.57,0,0,0-.13-.08h0l-.09,0-.17,0h-.38l-.21,0-.18,0h-.06l-.26.05-.29.07-.12,0-.07,0-.13,0-.36.12-.33.12h0l0,0-.45.18-.51.23h0l-.58.27-.55.29h0l-.51.27-.41.22-.35.21,0,0-.3.17-.3.18-.29.18-.26.16-.26.16-.26.16-.3.2L227,300h0l-.07.05-.32.21c-.49.32-1,.66-1.46,1l-.45.32h0l-.22.16-.23.17-.22.16-.23.17-.18.14-.19.13-.18.14-.18.14-.18.14-.2.15-.19.16-.08.05h0l-.1.09-.2.15-.2.16-.24.2-.24.19-.24.2-.27.22-.31.26-.31.26-.09.08,0,0-.24.2-.37.32-.39.35-.42.37-.42.38-.21.2-.05.05-.17.15-.43.41L217,308l-.44.44-.36.36,0,0-.06.06c-.16.16-.31.32-.46.49s-.33.35-.49.53-.36.39-.53.59l0,.05-.06.07-.51.61c-.27.34-.52.66-.74,1s-.53.79-.72,1.12c-.56,1-.67,1.72-.37,2.09l43.33,54.35a0,0,0,0,0,0,0c.57.79,2.85.22,6.45-1.86,5.88-3.39,13-9.48,15.94-13.61C279.13,352.57,279.42,351.48,279,351Zm-5.19,1.29.09-.05h0l.26-.12Zm1.07-.54.16-.08h0l.19-.08Zm1-.43.18-.08h0l.1,0Zm.9-.32.15-.05.06,0h0Zm.92-.23h0Zm.56,0h.05l.1,0Zm.44.07h.07l.05,0Z"/><path class="cls-10" d="M261.58,368.09l-2.79-7.57-40.57-53.66-.11.1-.05.05-.17.15-.43.41L217,308l-.44.44-.36.36,0,0-.06.06c-.16.16-.31.32-.46.49s-.33.35-.49.53-.36.39-.53.59l0,.05-.06.07-.51.61c-.27.34-.52.66-.74,1s-.53.79-.72,1.12c-.56,1-.67,1.72-.37,2.09l43.33,54.35a0,0,0,0,0,0,0C256.08,370.49,258.22,370,261.58,368.09Z"/><polygon class="cls-10" points="263.16 374.27 255.54 369.76 252.59 358.57 258.74 362.18 263.16 374.27"/><path class="cls-13" d="M708.65,542.31l0,0h0l0,0h0L320.43,320.62c-1.93-1.12-4.61-1-7.57.74-5.73,3.31-10.36,11.22-10.57,17.87h0c0,.12,0,.23,0,.35s0,.1,0,.15,0,.12,0,.18a11.91,11.91,0,0,0,.19,2l.06.24a9.24,9.24,0,0,0,.55,1.73l.09.16a6.05,6.05,0,0,0,.89,1.38l.07.07a5.23,5.23,0,0,0,1.24,1L691.43,567c3.46,2.22,3.4,5.63-.28,7.77s-11.6,2.43-15.42.22l-12.25-6.85L275.92,347c-1.93-1.13-4.61-1-7.57.74C262.62,351,258,358.94,257.79,365.6h0c0,.13,0,.24,0,.36s0,.1,0,.15,0,.11,0,.18a11.76,11.76,0,0,0,.2,2,1.84,1.84,0,0,0,.05.25,9.24,9.24,0,0,0,.55,1.73l.09.15a6.49,6.49,0,0,0,.89,1.39l.07.07a5.48,5.48,0,0,0,1.24,1l390,222.56,0,0a5.06,5.06,0,0,0,.74.36l-.07.17c21,12.12,46.95,12.63,65.89-2.34C733.16,581.19,738.42,557.6,708.65,542.31Z"/><path class="cls-10" d="M700.41,564.52l-9,2.5h0c3.46,2.22,3.4,5.63-.28,7.77a10.51,10.51,0,0,1-1.93.84v0S700.6,573.69,700.41,564.52Z"/><path class="cls-10" d="M720.33,585.54a51,51,0,0,1-32,10.87c-10.12,0-22.7-4.12-32.14-9.22l-.2.34.2-.34-381.87-218,0,0-15.59-8.8a18.82,18.82,0,0,0-.92,5.12h0c0,.13,0,.24,0,.36s0,.1,0,.15,0,.11,0,.18a11.76,11.76,0,0,0,.2,2,1.84,1.84,0,0,0,.05.25,9.24,9.24,0,0,0,.55,1.73l.09.15a6.49,6.49,0,0,0,.89,1.39l.07.07a5.48,5.48,0,0,0,1.24,1l390,222.56,0,0a5.06,5.06,0,0,0,.74.36l-.07.17c21,12.12,46.95,12.63,65.89-2.34,6.49-5.13,11.19-12.13,12.43-19.67A33.21,33.21,0,0,1,720.33,585.54Z"/><path class="cls-2" d="M323.59,345.57l-20.36-11.49a19.46,19.46,0,0,0-.94,5.15h0c0,.12,0,.23,0,.35s0,.1,0,.15,0,.12,0,.18a11.91,11.91,0,0,0,.19,2l.06.24a9.24,9.24,0,0,0,.55,1.73l.09.16a6.05,6.05,0,0,0,.89,1.38l.07.07a5.23,5.23,0,0,0,1.24,1L691.43,567c1.89,1.21,2.69,2.78,2.46,4.3a13.87,13.87,0,0,0,2.63-1.12c2.46-1.42,3.84-3.45,3.89-5.69s-1.2-4.25-3.52-5.74L323.59,345.57Z"/><path class="cls-10" d="M656.62,587.39a3.29,3.29,0,0,1-.42-.21h0l2.41,1.17Z"/><polygon class="cls-10" points="656.2 587.19 656.19 587.19 656.2 587.19 656.2 587.19"/><path class="cls-10" d="M306,341.66l-2.79-7.58-42.3-54.51-.11.1-.05.05-.17.15-.43.41-.44.42-.44.45-.36.36,0,0-.06.06-.46.48-.49.53-.53.6,0,.05-.06.07-.51.61c-.27.34-.52.66-.74,1s-.53.79-.72,1.12c-.56,1-.67,1.72-.37,2.09L300,343.33a.06.06,0,0,0,0,0C300.52,344.06,302.66,343.54,306,341.66Z"/><polygon class="cls-10" points="305.87 346.98 299.98 343.33 297.04 332.14 303.18 335.74 305.87 346.98"/><path class="cls-7" d="M719.57,479.31a48.66,48.66,0,0,0,5.88,1.93,33.33,33.33,0,0,0,6,1,22.11,22.11,0,0,0,6-.46,18.79,18.79,0,0,0,5.58-2.47,14.06,14.06,0,0,1-5.37,3.22,18.57,18.57,0,0,1-6.29.71,25.32,25.32,0,0,1-6.18-1.26A24.85,24.85,0,0,1,719.57,479.31Z"/><path class="cls-7" d="M661.61,513.77a46.43,46.43,0,0,0,5.88,1.93,33.35,33.35,0,0,0,6,1,22.55,22.55,0,0,0,6-.47,18.76,18.76,0,0,0,5.58-2.47,14,14,0,0,1-5.37,3.22,18.38,18.38,0,0,1-6.3.71,25.4,25.4,0,0,1-6.18-1.25A25,25,0,0,1,661.61,513.77Z"/><path class="cls-7" d="M603.65,548.23a46.35,46.35,0,0,0,5.87,1.94,34.54,34.54,0,0,0,6,1,22.18,22.18,0,0,0,6-.46,18.78,18.78,0,0,0,5.58-2.48,14,14,0,0,1-5.37,3.23,18.89,18.89,0,0,1-6.3.71,25.42,25.42,0,0,1-6.18-1.26A24.4,24.4,0,0,1,603.65,548.23Z"/><path class="cls-7" d="M545.69,582.7a47.94,47.94,0,0,0,5.87,1.93,33.63,33.63,0,0,0,6,1,22.08,22.08,0,0,0,6-.46,18.7,18.7,0,0,0,5.59-2.47,14,14,0,0,1-5.38,3.22,18.32,18.32,0,0,1-6.29.71,25.4,25.4,0,0,1-6.18-1.25A24.61,24.61,0,0,1,545.69,582.7Z"/><path class="cls-7" d="M487.73,617.16a44.75,44.75,0,0,0,5.87,1.93,33.35,33.35,0,0,0,6,1,21.72,21.72,0,0,0,6-.47,18.53,18.53,0,0,0,5.58-2.47,14.08,14.08,0,0,1-5.37,3.23,18.83,18.83,0,0,1-6.29.71,25.32,25.32,0,0,1-6.18-1.26A24.61,24.61,0,0,1,487.73,617.16Z"/><circle class="cls-16" cx="421" cy="387" r="1"/><circle class="cls-16" cx="441" cy="392" r="1"/><circle class="cls-16" cx="407" cy="388" r="1"/><circle class="cls-16" cx="457" cy="404" r="1"/><circle class="cls-16" cx="454" cy="413" r="1"/><circle class="cls-16" cx="433" cy="403" r="1"/><circle class="cls-16" cx="425" cy="397" r="1"/><circle class="cls-16" cx="447" cy="407" r="1"/><circle class="cls-16" cx="445" cy="398" r="1"/><circle class="cls-16" cx="440" cy="406" r="1"/><circle class="cls-16" cx="413" cy="393" r="1"/><circle class="cls-16" cx="412" cy="379" r="1"/><circle class="cls-16" cx="404" cy="379" r="1"/><circle class="cls-16" cx="433" cy="392" r="1"/></g><circle class="cls-17" cx="430" cy="399" r="36"/><path class="cls-10" d="M430.5,360.5A38.5,38.5,0,1,0,469,399,38.5,38.5,0,0,0,430.5,360.5Zm0,70A31.5,31.5,0,1,1,462,399,31.5,31.5,0,0,1,430.5,430.5Z"/><line class="cls-18" x1="429" y1="672" x2="429" y2="436"/><path class="cls-10" d="M428.07,671.8l-9.55-9.56a1.31,1.31,0,0,1,.93-2.24h19.1a1.31,1.31,0,0,1,.93,2.24l-9.55,9.56A1.32,1.32,0,0,1,428.07,671.8Z"/><path class="cls-2" d="M648.9,271.32v0Z"/><g class="cls-19"><path class="cls-2" d="M648.9,271.32v0"/><path class="cls-2" d="M648.9,271.34v0"/></g><path class="cls-2" d="M618.84,276.21v-4.08a1.05,1.05,0,0,0,.64.87l0,4.08A1.06,1.06,0,0,1,618.84,276.21Z"/><g class="cls-20"><path class="cls-2" d="M619.49,273l0,4.08a1.06,1.06,0,0,1-.63-.87v-4.08a1.05,1.05,0,0,0,.64.87"/></g><polygon class="cls-2" points="626.03 276.78 626.02 280.86 619.48 277.08 619.49 273 626.03 276.78"/><polygon class="cls-2" points="648.9 271.38 648.89 275.45 647.55 290.39 647.56 286.31 648.9 271.38"/><polygon class="cls-2" points="643.93 287.12 643.91 291.19 637.37 287.41 637.38 283.34 643.93 287.12"/><path class="cls-2" d="M647.56,286.31v4.08c-.1,1.06-2.33,1.56-3.63.8v-4.07C645.24,287.87,647.46,287.38,647.56,286.31Z"/><g class="cls-21"><path class="cls-2" d="M647.56,286.31v4.08s0,.05,0,.08v-4.08a.19.19,0,0,0,0-.08"/><path class="cls-2" d="M647.55,286.39v4.08a.56.56,0,0,1,0,.12l0-4.07,0-.13"/><path class="cls-2" d="M647.52,286.52l0,4.07a.61.61,0,0,1,0,.12v-4.07l.06-.12"/><path class="cls-2" d="M647.46,286.64v4.07l-.09.13v-4.08a.94.94,0,0,0,.09-.12"/><path class="cls-2" d="M647.37,286.76v4.08l-.13.14V286.9a.57.57,0,0,0,.13-.14"/><path class="cls-2" d="M647.24,286.9V291a1.34,1.34,0,0,1-.26.19V287.1a1.37,1.37,0,0,0,.26-.2"/><path class="cls-2" d="M647,287.1v4.07a2.2,2.2,0,0,1-.49.22v-4.07a2.78,2.78,0,0,0,.49-.22"/><path class="cls-2" d="M646.49,287.32v4.07a2.58,2.58,0,0,1-.42.11v-4.08a2.58,2.58,0,0,0,.42-.1"/><path class="cls-2" d="M646.07,287.42v4.08l-.28,0v-4.08l.28,0"/><path class="cls-2" d="M645.79,287.46v4.08h-.24v-4.07l.24,0"/><path class="cls-2" d="M645.55,287.48v4.07h-.22v-4.07h.22"/><path class="cls-2" d="M645.33,287.48v4.07h-.2v-4.07h.2"/><path class="cls-2" d="M645.13,287.47v4.07l-.21,0,0-4.08.2,0"/><path class="cls-2" d="M644.93,287.44l0,4.08-.2,0v-4.07l.21,0"/><path class="cls-2" d="M644.72,287.41v4.07l-.22-.05v-4.07l.22.05"/><path class="cls-2" d="M644.5,287.36v4.07a1.14,1.14,0,0,1-.26-.09v-4.07l.26.09"/><path class="cls-2" d="M644.24,287.27v4.07a1.77,1.77,0,0,1-.31-.15v-4.07l.31.15"/></g><path class="cls-2" d="M602.94,294.78V290.7a1.07,1.07,0,0,0,.63.88v4.08A1.07,1.07,0,0,1,602.94,294.78Z"/><g class="cls-22"><path class="cls-2" d="M603.58,291.58v4.08a1.07,1.07,0,0,1-.63-.88V290.7a1.07,1.07,0,0,0,.63.88"/></g><polygon class="cls-2" points="637.38 283.34 637.37 287.41 614.91 300.47 614.92 296.39 637.38 283.34"/><polygon class="cls-2" points="611.9 296.39 611.89 300.47 603.57 295.66 603.58 291.58 611.9 296.39"/><path class="cls-2" d="M614.92,296.39v4.08a3.35,3.35,0,0,1-3,0l0-4.08A3.33,3.33,0,0,0,614.92,296.39Z"/><g class="cls-23"><path class="cls-2" d="M614.92,296.39v4.08a2.22,2.22,0,0,1-.47.2V296.6a2.9,2.9,0,0,0,.47-.21"/><path class="cls-2" d="M614.45,296.6v4.07a2.6,2.6,0,0,1-.4.1V296.7l.4-.1"/><path class="cls-2" d="M614.05,296.7v4.07l-.27,0v-4.08l.27,0"/><path class="cls-2" d="M613.78,296.73v4.08l-.24,0v-4.08l.24,0"/><path class="cls-2" d="M613.54,296.75v4.08h-.22v-4.08h.22"/><path class="cls-2" d="M613.32,296.75v4.08h-.21v-4.08h.21"/><path class="cls-2" d="M613.11,296.74v4.08l-.21,0,0-4.07.2,0"/><path class="cls-2" d="M612.91,296.72l0,4.07-.21,0,0-4.08.21,0"/><path class="cls-2" d="M612.7,296.68l0,4.08-.22-.06v-4.07l.23.05"/><path class="cls-2" d="M612.47,296.63v4.07a1.34,1.34,0,0,1-.26-.09v-4.07l.26.09"/><path class="cls-2" d="M612.21,296.54v4.07l-.31-.14,0-4.08a1.4,1.4,0,0,0,.3.15"/></g><path class="cls-13" d="M648.27,270.44a1,1,0,0,1,.63.94l-1.34,14.93c-.1,1.07-2.32,1.56-3.63.81l-6.55-3.78-22.46,13.05a3.33,3.33,0,0,1-3,0l-8.33-4.81a.92.92,0,0,1,0-1.74L626,276.78,619.49,273c-1.31-.75-.47-2,1.38-2.1l25.77-.82A3.1,3.1,0,0,1,648.27,270.44Z"/><path class="cls-3" d="M195.88,276.24v-4.08a1.07,1.07,0,0,0,.63.88v4.08A1.09,1.09,0,0,1,195.88,276.24Z"/><g class="cls-24"><path class="cls-3" d="M196.52,273v4.08a1.09,1.09,0,0,1-.63-.88v-4.08a1.07,1.07,0,0,0,.63.88"/></g><polygon class="cls-3" points="219.13 286.09 219.12 290.17 196.51 277.12 196.52 273.04 219.13 286.09"/><path class="cls-3" d="M212,294.81v-4.08a1.09,1.09,0,0,0,.64.89A3,3,0,0,0,214,292v4.07a3,3,0,0,1-1.39-.35A1.1,1.1,0,0,1,212,294.81Z"/><g class="cls-25"><path class="cls-3" d="M214,292v4.07h-.2l0-4.08.19,0"/><path class="cls-3" d="M213.84,292l0,4.08-.21,0v-4.08l.22,0"/><path class="cls-3" d="M213.62,291.94V296l-.21,0V291.9l.21,0"/><path class="cls-3" d="M213.41,291.9V296l-.22-.05v-4.08l.22,0"/><path class="cls-3" d="M213.19,291.85v4.08l-.25-.09v-4.07l.25.08"/><path class="cls-3" d="M212.94,291.77v4.07a2.09,2.09,0,0,1-.3-.14,1.1,1.1,0,0,1-.64-.89v-4.08a1.09,1.09,0,0,0,.64.89l.3.15"/></g><polygon class="cls-3" points="239.82 292.8 239.81 296.87 214.02 296.05 214.03 291.98 239.82 292.8"/><path class="cls-3" d="M242.06,291.57v4.08c0,.7-1,1.26-2.24,1.22V292.8C241,292.84,242.06,292.27,242.06,291.57Z"/><g class="cls-26"><path class="cls-3" d="M242.06,291.57v0"/><path class="cls-3" d="M242.06,291.59v4.08a.5.5,0,0,1,0,.12l0-4.08s0-.08,0-.12"/><path class="cls-3" d="M242.05,291.71l0,4.08a.53.53,0,0,1,0,.12v-4.08a.56.56,0,0,0,0-.12"/><path class="cls-3" d="M242,291.83v4.08a.67.67,0,0,1-.06.12l0-4.08a.61.61,0,0,0,0-.12"/><path class="cls-3" d="M242,292l0,4.08-.08.12v-4.07L242,292"/><path class="cls-3" d="M241.87,292.08v4.07l-.14.15,0-4.08a.86.86,0,0,0,.13-.14"/><path class="cls-3" d="M241.74,292.22l0,4.08a1.18,1.18,0,0,1-.27.2l0-4.08a1.89,1.89,0,0,0,.27-.2"/><path class="cls-3" d="M241.47,292.42l0,4.08a2.78,2.78,0,0,1-.49.22v-4.08a2.52,2.52,0,0,0,.5-.22"/><path class="cls-3" d="M241,292.64v4.08l-.4.1v-4.08a2.6,2.6,0,0,0,.4-.1"/><path class="cls-3" d="M240.57,292.74v4.08l-.27,0v-4.08l.27,0"/><path class="cls-3" d="M240.3,292.78v4.08h-.24V292.8l.24,0"/><path class="cls-3" d="M240.06,292.8v4.07h-.22V292.8h.22"/><path class="cls-3" d="M239.84,292.8v4.07h0V292.8h0"/></g><path class="cls-27" d="M239.94,275.76a1.11,1.11,0,0,1,.61.8l1.51,14.94c.07.73-1,1.34-2.24,1.3L214,292a3,3,0,0,1-1.39-.36c-.78-.45-.91-1.23,0-1.75l6.5-3.78-22.61-13a.92.92,0,0,1,0-1.75l8.27-4.8a3.29,3.29,0,0,1,3,0l22.61,13.05,6.5-3.78A3.33,3.33,0,0,1,239.94,275.76Z"/><polygon class="cls-3" points="417.69 233.66 417.67 237.73 417.58 219.28 417.59 215.2 417.69 233.66"/><path class="cls-3" d="M445.06,234.91V239a1,1,0,0,1-.55.82v-4.08A1,1,0,0,0,445.06,234.91Z"/><g class="cls-28"><path class="cls-3" d="M445.06,234.91v0"/><path class="cls-3" d="M445.06,234.93V239s0,.08,0,.12v-4.07a.5.5,0,0,0,0-.12"/><path class="cls-3" d="M445,235.05v4.07l0,.12v-4.08a.45.45,0,0,0,0-.11"/><path class="cls-3" d="M445,235.16v4.08a.67.67,0,0,1-.06.12v-4.08a.67.67,0,0,0,.06-.12"/><path class="cls-3" d="M445,235.28v4.08a.83.83,0,0,1-.08.12v-4.07l.08-.13"/><path class="cls-3" d="M444.87,235.41v4.07l-.13.15v-4.08l.13-.14"/><path class="cls-3" d="M444.74,235.55v4.08l-.23.17v-4.08a1.37,1.37,0,0,0,.23-.17"/></g><path class="cls-3" d="M406.32,239V234.9a1,1,0,0,0,.56.82l0,4.07A1,1,0,0,1,406.32,239Z"/><g class="cls-29"><path class="cls-3" d="M406.89,235.72l0,4.07a1,1,0,0,1-.55-.82V234.9a1,1,0,0,0,.56.82"/></g><polygon class="cls-3" points="444.51 235.72 444.5 239.8 427.34 250.93 427.35 246.86 444.51 235.72"/><polygon class="cls-3" points="424.25 246.91 424.24 250.99 406.87 239.79 406.88 235.72 424.25 246.91"/><path class="cls-27" d="M433,214.33a1.09,1.09,0,0,1,.64.87l.09,18.46h9.23a3.15,3.15,0,0,1,1.51.35c.75.44.91,1.18.09,1.71l-17.16,11.14a3.3,3.3,0,0,1-3.1,0l-17.36-11.19c-1.24-.79-.27-2.06,1.57-2.06h9.23l-.1-18.46c0-.68.94-1.23,2.12-1.23h11.73A3,3,0,0,1,433,214.33Z"/><path class="cls-3" d="M427.35,246.86v4.07a3.33,3.33,0,0,1-3.1.06v-4.08A3.3,3.3,0,0,0,427.35,246.86Z"/><g class="cls-30"><path class="cls-3" d="M427.35,246.86v4.07l-.06,0V246.9l.06,0"/><path class="cls-3" d="M427.29,246.9V251a2.52,2.52,0,0,1-.5.22v-4.07a2.52,2.52,0,0,0,.5-.22"/><path class="cls-3" d="M426.79,247.12v4.07l-.39.1v-4.08a2.23,2.23,0,0,0,.39-.09"/><path class="cls-3" d="M426.4,247.21v4.08l-.28,0,0-4.08.27,0"/><path class="cls-3" d="M426.13,247.25l0,4.08h-.23v-4.07l.24,0"/><path class="cls-3" d="M425.89,247.27v4.07h-.22v-4.07h.22"/><path class="cls-3" d="M425.67,247.27v4.07h-.21v-4.07h.21"/><path class="cls-3" d="M425.46,247.26v4.07l-.21,0v-4.08l.21,0"/><path class="cls-3" d="M425.25,247.23v4.08l-.21,0V247.2l.21,0"/><path class="cls-3" d="M425,247.2v4.07l-.23-.05,0-4.08.22.06"/><path class="cls-3" d="M424.82,247.14l0,4.08-.25-.09v-4.07l.26.08"/><path class="cls-3" d="M424.56,247.06v4.07l-.31-.14v-4.08l.31.15"/></g><rect class="cls-31" x="368" y="162" width="114" height="10" rx="5"/><path class="cls-4" d="M386.62,148.45V144.1a3.15,3.15,0,0,1,1-2.27v4.36A3.11,3.11,0,0,0,386.62,148.45Z"/><g class="cls-32"><path class="cls-4" d="M386.62,148.45V144.1a3.15,3.15,0,0,1,1-2.27v4.36a3.11,3.11,0,0,0-1,2.26"/></g><path class="cls-4" d="M461.37,144.1v4.35a3.14,3.14,0,0,0-1-2.26v-4.36A3.17,3.17,0,0,1,461.37,144.1Z"/><g class="cls-33"><path class="cls-4" d="M460.41,146.19v-4.36l.16.16v4.36l-.16-.16"/><path class="cls-4" d="M460.57,146.35V142a3.63,3.63,0,0,1,.34.46v4.36a3,3,0,0,0-.34-.46"/><path class="cls-4" d="M460.91,146.81v-4.36l.19.35v4.36a3.9,3.9,0,0,0-.19-.35"/><path class="cls-4" d="M461.1,147.16V142.8c0,.11.09.22.12.33v4.35c0-.11-.08-.21-.12-.32"/><path class="cls-4" d="M461.22,147.48v-4.35c0,.1.06.2.08.3v4.36c0-.1-.05-.2-.08-.31"/><path class="cls-4" d="M461.3,147.79v-4.36c0,.11,0,.21.05.31v4.36c0-.1,0-.21-.05-.31"/><path class="cls-4" d="M461.35,148.1v-4.36a1.67,1.67,0,0,1,0,.31v4.36a1.62,1.62,0,0,0,0-.31"/><path class="cls-4" d="M461.37,148.41v0"/></g><polygon class="cls-4" points="449.28 135.33 449.28 130.97 460.42 141.83 460.42 146.19 449.28 135.33"/><polygon class="cls-4" points="387.59 146.19 387.59 141.83 398.72 130.97 398.72 135.33 387.59 146.19"/><path class="cls-4" d="M443.68,137.59v-4.36a3.11,3.11,0,0,1,1-2.26A3.33,3.33,0,0,1,447,130v4.36a3.29,3.29,0,0,0-2.31.94A3.11,3.11,0,0,0,443.68,137.59Z"/><g class="cls-34"><path class="cls-4" d="M443.68,137.59v-4.36a3.11,3.11,0,0,1,1-2.26,3.32,3.32,0,0,1,.46-.38V135a2.73,2.73,0,0,0-.46.38,3.11,3.11,0,0,0-1,2.26"/><path class="cls-4" d="M445.11,135v-4.36a3.84,3.84,0,0,1,.39-.22v4.35a4,4,0,0,0-.39.23"/><path class="cls-4" d="M445.5,134.72v-4.35a2.44,2.44,0,0,1,.34-.14v4.35l-.34.14"/><path class="cls-4" d="M445.84,134.58v-4.35l.32-.1v4.36c-.11,0-.21.06-.32.09"/><path class="cls-4" d="M446.16,134.49v-4.36l.31-.06v4.36a1.7,1.7,0,0,0-.31.06"/><path class="cls-4" d="M446.47,134.43v-4.36a1.73,1.73,0,0,1,.32,0v4.35l-.32,0"/><path class="cls-4" d="M446.79,134.39V130H447v4.36h-.17"/></g><path class="cls-4" d="M398.72,135.33V131A3.34,3.34,0,0,1,401,130v4.36A3.29,3.29,0,0,0,398.72,135.33Z"/><g class="cls-35"><path class="cls-4" d="M398.72,135.33V131a3.4,3.4,0,0,1,.47-.38V135a2.8,2.8,0,0,0-.47.38"/><path class="cls-4" d="M399.19,135v-4.36a2.46,2.46,0,0,1,.39-.22v4.35a2.5,2.5,0,0,0-.39.23"/><path class="cls-4" d="M399.58,134.72v-4.35a2.33,2.33,0,0,1,.33-.14v4.35l-.33.14"/><path class="cls-4" d="M399.91,134.58v-4.35l.32-.1v4.36c-.11,0-.21.06-.32.09"/><path class="cls-4" d="M400.23,134.49v-4.36c.11,0,.21,0,.32-.06v4.36a1.8,1.8,0,0,0-.32.06"/><path class="cls-4" d="M400.55,134.43v-4.36a1.63,1.63,0,0,1,.31,0v4.35l-.31,0"/><path class="cls-4" d="M400.86,134.39V130H401v4.36h-.18"/></g><path class="cls-4" d="M447,134.39V130a3.34,3.34,0,0,1,2.32.94v4.36A3.29,3.29,0,0,0,447,134.39Z"/><g class="cls-36"><path class="cls-4" d="M447,134.39V130h.16v4.35H447"/><path class="cls-4" d="M447.12,134.39V130a2.07,2.07,0,0,1,.35,0v4.36l-.35,0"/><path class="cls-4" d="M447.47,134.43v-4.36a2.59,2.59,0,0,1,.4.09v4.35l-.4-.08"/><path class="cls-4" d="M447.87,134.51v-4.35a3.16,3.16,0,0,1,.54.2v4.36a3.18,3.18,0,0,0-.54-.21"/><path class="cls-4" d="M448.41,134.72v-4.36a3,3,0,0,1,.87.61v4.36a3,3,0,0,0-.87-.61"/></g><path class="cls-37" d="M447,134.39a3.29,3.29,0,0,1,2.32.94l11.13,10.86a3.15,3.15,0,0,1,0,4.53,3.25,3.25,0,0,1-2.31.94,3.29,3.29,0,0,1-2.32-.94l-11.13-10.87a3.12,3.12,0,0,1,0-4.52A3.29,3.29,0,0,1,447,134.39Z"/><path class="cls-37" d="M401,134.39a3.25,3.25,0,0,1,2.31.94,3.12,3.12,0,0,1,0,4.52l-11.13,10.87a3.32,3.32,0,0,1-4.63,0,3.14,3.14,0,0,1,0-4.53l11.13-10.86A3.29,3.29,0,0,1,401,134.39Z"/><path class="cls-4" d="M404.32,133.23v4.36a3.11,3.11,0,0,0-1-2.26,3.25,3.25,0,0,0-2.31-.94V130a3.29,3.29,0,0,1,2.31.94A3.11,3.11,0,0,1,404.32,133.23Z"/><g class="cls-38"><path class="cls-4" d="M401,134.39V130h.15v4.35H401"/><path class="cls-4" d="M401.19,134.39V130a2,2,0,0,1,.35,0v4.36l-.35,0"/><path class="cls-4" d="M401.54,134.43v-4.36a3,3,0,0,1,.41.09v4.35l-.41-.08"/><path class="cls-4" d="M402,134.51v-4.35a3.93,3.93,0,0,1,.54.2v4.36a4,4,0,0,0-.54-.21"/><path class="cls-4" d="M402.49,134.72v-4.36a3.14,3.14,0,0,1,.86.61l.17.17v4.35l-.17-.16a3.14,3.14,0,0,0-.86-.61"/><path class="cls-4" d="M403.52,135.49v-4.35a3,3,0,0,1,.34.46V136a3.63,3.63,0,0,0-.34-.46"/><path class="cls-4" d="M403.86,136V131.6a2.31,2.31,0,0,1,.18.35v4.35a2.91,2.91,0,0,0-.18-.35"/><path class="cls-4" d="M404,136.3V132a3.05,3.05,0,0,1,.13.32v4.35c0-.1-.08-.21-.13-.32"/><path class="cls-4" d="M404.17,136.62v-4.35c0,.1.06.2.08.3v4.36c0-.1-.05-.2-.08-.31"/><path class="cls-4" d="M404.25,136.93v-4.36c0,.1,0,.21.05.31v4.35c0-.1,0-.2-.05-.3"/><path class="cls-4" d="M404.3,137.23v-4.35a3,3,0,0,1,0,.31v4.36c0-.11,0-.21,0-.32"/><path class="cls-4" d="M404.32,137.55v0"/></g><ellipse class="cls-37" cx="424" cy="115.5" rx="24.27" ry="23.69"/><path class="cls-4" d="M424,91.81V87.45c13.4,0,24.27,10.61,24.27,23.69v4.36C448.27,102.41,437.4,91.81,424,91.81Z"/><g class="cls-39"><path class="cls-4" d="M424,91.81V87.45c.39,0,.78,0,1.16,0v4.36c-.38,0-.77,0-1.16,0"/><path class="cls-4" d="M425.16,91.84V87.48a24.88,24.88,0,0,1,2.6.26v4.35a24.87,24.87,0,0,0-2.6-.25"/><path class="cls-4" d="M427.76,92.09V87.74a24.65,24.65,0,0,1,3,.64v4.36a24.68,24.68,0,0,0-3-.65"/><path class="cls-4" d="M430.74,92.74V88.38a24.6,24.6,0,0,1,4,1.51v4.36a24.6,24.6,0,0,0-4-1.51"/><path class="cls-4" d="M434.74,94.25V89.89a24.38,24.38,0,0,1,7.55,5.68v4.36a24.23,24.23,0,0,0-7.55-5.68"/><path class="cls-4" d="M442.29,99.93V95.57A24.22,24.22,0,0,1,444.84,99v4.36a24.22,24.22,0,0,0-2.55-3.41"/><path class="cls-4" d="M444.84,103.34V99a23.71,23.71,0,0,1,1.39,2.64V106a23.57,23.57,0,0,0-1.39-2.63"/><path class="cls-4" d="M446.23,106v-4.35a24.21,24.21,0,0,1,.92,2.37v4.35a24.21,24.21,0,0,0-.92-2.37"/><path class="cls-4" d="M447.15,108.34V104a20.82,20.82,0,0,1,.6,2.26v4.35a22.12,22.12,0,0,0-.6-2.26"/><path class="cls-4" d="M447.75,110.6v-4.35a21.1,21.1,0,0,1,.37,2.25v4.36a21.29,21.29,0,0,0-.37-2.26"/><path class="cls-4" d="M448.12,112.86V108.5a22.42,22.42,0,0,1,.15,2.33v4.35a22.22,22.22,0,0,0-.15-2.32"/><path class="cls-4" d="M448.27,115.18v0"/></g><path class="cls-4" d="M399.73,115.5v-4.36c0-13.08,10.86-23.69,24.27-23.69v4.36C410.59,91.81,399.73,102.41,399.73,115.5Z"/><g class="cls-40"><path class="cls-4" d="M399.73,115.5v-4.36a23.49,23.49,0,0,1,10.54-19.53V96a23.51,23.51,0,0,0-10.54,19.54"/><path class="cls-4" d="M410.27,96V91.61a22.67,22.67,0,0,1,2.91-1.68v4.36A23.85,23.85,0,0,0,410.27,96"/><path class="cls-4" d="M413.18,94.29V89.93a22.14,22.14,0,0,1,2.51-1.05v4.36a22.14,22.14,0,0,0-2.51,1.05"/><path class="cls-4" d="M415.69,93.24V88.88a23.76,23.76,0,0,1,2.36-.71v4.36a21.37,21.37,0,0,0-2.36.71"/><path class="cls-4" d="M418.05,92.53V88.17a21.74,21.74,0,0,1,2.3-.45v4.36a21.74,21.74,0,0,0-2.3.45"/><path class="cls-4" d="M420.35,92.08V87.72c.77-.11,1.55-.19,2.35-.23v4.35c-.8,0-1.58.12-2.35.24"/><path class="cls-4" d="M422.7,91.84V87.49c.43,0,.86,0,1.3,0v4.36c-.44,0-.87,0-1.3,0"/></g><path class="cls-4" d="M443.68,92.77V88.41a3.15,3.15,0,0,1,1-2.27V90.5A3.15,3.15,0,0,0,443.68,92.77Z"/><g class="cls-41"><path class="cls-4" d="M443.68,92.77V88.41a3.15,3.15,0,0,1,1-2.27V90.5a3.15,3.15,0,0,0-1,2.27"/></g><path class="cls-4" d="M404.32,88.41v4.36a3.15,3.15,0,0,0-1-2.27V86.14A3.15,3.15,0,0,1,404.32,88.41Z"/><g class="cls-42"><path class="cls-4" d="M403.35,90.5V86.14l.16.17v4.35c-.05,0-.1-.11-.16-.16"/><path class="cls-4" d="M403.51,90.66V86.31a3.1,3.1,0,0,1,.35.46v4.36a3.82,3.82,0,0,0-.35-.47"/><path class="cls-4" d="M403.86,91.13V86.77a2.91,2.91,0,0,1,.18.35v4.36a2.31,2.31,0,0,0-.18-.35"/><path class="cls-4" d="M404,91.48V87.12c0,.11.09.22.13.33V91.8c0-.11-.08-.21-.13-.32"/><path class="cls-4" d="M404.17,91.8V87.45c0,.1.06.2.08.3v4.36c0-.1-.05-.21-.08-.31"/><path class="cls-4" d="M404.25,92.11V87.75c0,.1,0,.21.05.31v4.36a2.87,2.87,0,0,0-.05-.31"/><path class="cls-4" d="M404.3,92.42V88.06c0,.1,0,.21,0,.31v4.36a3,3,0,0,0,0-.31"/><path class="cls-4" d="M404.32,92.73v0"/></g><polygon class="cls-4" points="392.22 79.64 392.22 75.28 403.36 86.14 403.36 90.5 392.22 79.64"/><polygon class="cls-4" points="444.65 90.5 444.65 86.14 455.78 75.28 455.78 79.64 444.65 90.5"/><path class="cls-4" d="M389.9,78.7V74.34a3.34,3.34,0,0,1,2.32.94v4.36A3.29,3.29,0,0,0,389.9,78.7Z"/><g class="cls-43"><path class="cls-4" d="M389.9,78.7V74.34h.16V78.7h-.16"/><path class="cls-4" d="M390.06,78.7V74.35a2.07,2.07,0,0,1,.35,0v4.36l-.35,0"/><path class="cls-4" d="M390.41,78.74V74.38a2.59,2.59,0,0,1,.4.09v4.36a2.59,2.59,0,0,0-.4-.09"/><path class="cls-4" d="M390.81,78.83V74.47a3.16,3.16,0,0,1,.54.2V79a2.49,2.49,0,0,0-.54-.2"/><path class="cls-4" d="M391.35,79V74.67a3,3,0,0,1,.87.61v4.36a3,3,0,0,0-.87-.61"/></g><path class="cls-4" d="M455.78,79.64V75.28a3.34,3.34,0,0,1,2.32-.94V78.7A3.29,3.29,0,0,0,455.78,79.64Z"/><g class="cls-44"><path class="cls-4" d="M455.78,79.64V75.28a3.4,3.4,0,0,1,.47-.38v4.36a2.8,2.8,0,0,0-.47.38"/><path class="cls-4" d="M456.25,79.26V74.9a2.46,2.46,0,0,1,.39-.22V79a2.5,2.5,0,0,0-.39.23"/><path class="cls-4" d="M456.64,79V74.68a2.33,2.33,0,0,1,.33-.14v4.35l-.33.14"/><path class="cls-4" d="M457,78.89V74.54l.32-.1V78.8c-.11,0-.21.06-.32.09"/><path class="cls-4" d="M457.29,78.8V74.44l.32-.06v4.36a1.8,1.8,0,0,0-.32.06"/><path class="cls-4" d="M457.61,78.74V74.38a1.63,1.63,0,0,1,.31,0v4.36a1.63,1.63,0,0,0-.31,0"/><path class="cls-4" d="M457.92,78.71V74.35h.18V78.7h-.18"/></g><path class="cls-4" d="M386.62,81.9V77.54a3.11,3.11,0,0,1,1-2.26,3.33,3.33,0,0,1,2.31-.94V78.7a3.29,3.29,0,0,0-2.31.94A3.11,3.11,0,0,0,386.62,81.9Z"/><g class="cls-45"><path class="cls-4" d="M386.62,81.9V77.54a3.11,3.11,0,0,1,1-2.26,3.32,3.32,0,0,1,.46-.38v4.36a2.73,2.73,0,0,0-.46.38,3.11,3.11,0,0,0-1,2.26"/><path class="cls-4" d="M388.05,79.26V74.9a3.84,3.84,0,0,1,.39-.22V79a4,4,0,0,0-.39.23"/><path class="cls-4" d="M388.44,79V74.68a2.44,2.44,0,0,1,.34-.14v4.35l-.34.14"/><path class="cls-4" d="M388.78,78.89V74.54l.32-.1V78.8c-.11,0-.21.06-.32.09"/><path class="cls-4" d="M389.1,78.8V74.44l.31-.06v4.36a1.7,1.7,0,0,0-.31.06"/><path class="cls-4" d="M389.41,78.74V74.38a1.73,1.73,0,0,1,.32,0v4.36a1.73,1.73,0,0,0-.32,0"/><path class="cls-4" d="M389.73,78.71V74.35h.17V78.7h-.17"/></g><path class="cls-4" d="M461.37,77.54V81.9a3.14,3.14,0,0,0-1-2.26,3.25,3.25,0,0,0-2.31-.94V74.34a3.29,3.29,0,0,1,2.31.94A3.14,3.14,0,0,1,461.37,77.54Z"/><g class="cls-46"><path class="cls-4" d="M458.1,78.7V74.34h.15V78.7h-.15"/><path class="cls-4" d="M458.25,78.7V74.35a2,2,0,0,1,.35,0v4.36l-.35,0"/><path class="cls-4" d="M458.6,78.74V74.38a3,3,0,0,1,.41.09v4.36a3,3,0,0,0-.41-.09"/><path class="cls-4" d="M459,78.83V74.47a3.93,3.93,0,0,1,.54.2V79a3,3,0,0,0-.54-.2"/><path class="cls-4" d="M459.55,79V74.67a3.14,3.14,0,0,1,.86.61,1.21,1.21,0,0,1,.16.16v4.35l-.16-.15a3.14,3.14,0,0,0-.86-.61"/><path class="cls-4" d="M460.57,79.79V75.44a3,3,0,0,1,.34.46v4.36a3.12,3.12,0,0,0-.34-.47"/><path class="cls-4" d="M460.91,80.26V75.9a3.9,3.9,0,0,1,.19.35v4.36a3.9,3.9,0,0,0-.19-.35"/><path class="cls-4" d="M461.1,80.61V76.25a3,3,0,0,1,.12.32v4.36a3,3,0,0,0-.12-.32"/><path class="cls-4" d="M461.22,80.93V76.57c0,.1.06.21.08.31v4.36a2.81,2.81,0,0,0-.08-.31"/><path class="cls-4" d="M461.3,81.24V76.88a2.87,2.87,0,0,1,.05.31v4.35c0-.1,0-.2-.05-.3"/><path class="cls-4" d="M461.35,81.54V77.19a1.62,1.62,0,0,1,0,.31v4.36a1.72,1.72,0,0,0,0-.32"/><path class="cls-4" d="M461.37,81.86v0"/></g><path class="cls-37" d="M458.1,78.7a3.25,3.25,0,0,1,2.31.94,3.15,3.15,0,0,1,0,4.53L449.28,95a3.32,3.32,0,0,1-4.63,0,3.14,3.14,0,0,1,0-4.53l11.13-10.86A3.29,3.29,0,0,1,458.1,78.7Z"/><path class="cls-37" d="M389.9,78.7a3.29,3.29,0,0,1,2.32.94L403.35,90.5a3.14,3.14,0,0,1,0,4.53A3.25,3.25,0,0,1,401,96a3.29,3.29,0,0,1-2.32-.94L387.59,84.17a3.14,3.14,0,0,1,0-4.53A3.29,3.29,0,0,1,389.9,78.7Z"/><path class="cls-37" d="M424,64.91a3.25,3.25,0,0,1,3.28,3.21V83.48a3.28,3.28,0,0,1-6.56,0V68.12A3.25,3.25,0,0,1,424,64.91Z"/><path class="cls-4" d="M424,64.91V60.56a3.24,3.24,0,0,1,3.28,3.2v4.36A3.25,3.25,0,0,0,424,64.91Z"/><g class="cls-47"><path class="cls-4" d="M424,64.91V60.56h.16v4.36H424"/><path class="cls-4" d="M424.16,64.92V60.56l.35,0V65c-.12,0-.23,0-.35,0"/><path class="cls-4" d="M424.51,65V60.6l.4.08V65a2.88,2.88,0,0,0-.4-.09"/><path class="cls-4" d="M424.91,65V60.68a2.52,2.52,0,0,1,.54.21v4.35a3.16,3.16,0,0,0-.54-.2"/><path class="cls-4" d="M425.45,65.24V60.89a3.32,3.32,0,0,1,1,.76V66a3.35,3.35,0,0,0-1-.77"/><path class="cls-4" d="M426.47,66V61.65a3,3,0,0,1,.34.46v4.36a3,3,0,0,0-.34-.46"/><path class="cls-4" d="M426.81,66.47V62.11c.07.12.13.24.19.36v4.36a3,3,0,0,0-.19-.36"/><path class="cls-4" d="M427,66.83V62.47a1.75,1.75,0,0,1,.12.32v4.36a1.75,1.75,0,0,0-.12-.32"/><path class="cls-4" d="M427.12,67.15V62.79a2.8,2.8,0,0,1,.09.31v4.35c0-.1,0-.2-.09-.3"/><path class="cls-4" d="M427.21,67.45V63.1c0,.1,0,.2.05.3v4.36c0-.1,0-.2-.05-.31"/><path class="cls-4" d="M427.26,67.76V63.4c0,.11,0,.21,0,.32v4.36c0-.11,0-.21,0-.32"/><path class="cls-4" d="M427.28,68.08v0"/></g><path class="cls-4" d="M420.72,68.12V63.76a3.24,3.24,0,0,1,3.28-3.2v4.35A3.25,3.25,0,0,0,420.72,68.12Z"/><g class="cls-48"><path class="cls-4" d="M420.72,68.12V63.76a3.17,3.17,0,0,1,1.42-2.64v4.36a3.16,3.16,0,0,0-1.42,2.64"/><path class="cls-4" d="M422.14,65.48V61.12c.13-.08.26-.16.4-.23v4.36a3.18,3.18,0,0,0-.4.23"/><path class="cls-4" d="M422.54,65.25V60.89l.34-.14v4.36l-.34.14"/><path class="cls-4" d="M422.88,65.11V60.75l.32-.1V65l-.32.1"/><path class="cls-4" d="M423.2,65V60.65l.31-.06V65l-.31.06"/><path class="cls-4" d="M423.51,65V60.59l.32,0v4.36a3.16,3.16,0,0,0-.32,0"/><path class="cls-4" d="M423.83,64.92V60.56H424v4.35h-.17"/></g><path class="cls-37" d="M424,143.67a3.24,3.24,0,0,1,3.28,3.21v15.36a3.28,3.28,0,0,1-6.56,0V146.88A3.24,3.24,0,0,1,424,143.67Z"/><path class="cls-4" d="M424,143.67v-4.36a3.25,3.25,0,0,1,3.28,3.21v4.36A3.24,3.24,0,0,0,424,143.67Z"/><g class="cls-49"><path class="cls-4" d="M424,143.67v-4.36h.16v4.35H424"/><path class="cls-4" d="M424.16,143.67v-4.35a2.07,2.07,0,0,1,.35,0v4.36l-.35,0"/><path class="cls-4" d="M424.51,143.71v-4.36a2.88,2.88,0,0,1,.4.09v4.36a2.88,2.88,0,0,0-.4-.09"/><path class="cls-4" d="M424.91,143.8v-4.36a3.16,3.16,0,0,1,.54.2V144a3.16,3.16,0,0,0-.54-.2"/><path class="cls-4" d="M425.45,144v-4.36a3.35,3.35,0,0,1,1,.77v4.35a3.49,3.49,0,0,0-1-.76"/><path class="cls-4" d="M426.47,144.76v-4.35a3,3,0,0,1,.34.46v4.36a3.12,3.12,0,0,0-.34-.47"/><path class="cls-4" d="M426.81,145.23v-4.36a3,3,0,0,1,.19.36v4.35a3.9,3.9,0,0,0-.19-.35"/><path class="cls-4" d="M427,145.58v-4.35a1.75,1.75,0,0,1,.12.32v4.35a2.08,2.08,0,0,0-.12-.32"/><path class="cls-4" d="M427.12,145.9v-4.35c0,.1.06.2.09.3v4.36c0-.1,0-.21-.09-.31"/><path class="cls-4" d="M427.21,146.21v-4.36c0,.1,0,.21.05.31v4.36c0-.11,0-.21-.05-.31"/><path class="cls-4" d="M427.26,146.52v-4.36c0,.1,0,.21,0,.32v4.35c0-.1,0-.21,0-.31"/><path class="cls-4" d="M427.28,146.83v0"/></g><path class="cls-4" d="M420.72,146.88v-4.36a3.25,3.25,0,0,1,3.28-3.21v4.36A3.24,3.24,0,0,0,420.72,146.88Z"/><g class="cls-50"><path class="cls-4" d="M420.72,146.88v-4.36a3.16,3.16,0,0,1,1.42-2.64v4.35a3.19,3.19,0,0,0-1.42,2.65"/><path class="cls-4" d="M422.14,144.23v-4.35a3.18,3.18,0,0,1,.4-.23V144a3.11,3.11,0,0,0-.4.22"/><path class="cls-4" d="M422.54,144v-4.36a2,2,0,0,1,.34-.14v4.35a2.07,2.07,0,0,0-.34.15"/><path class="cls-4" d="M422.88,143.86v-4.35l.32-.1v4.36a3,3,0,0,0-.32.09"/><path class="cls-4" d="M423.2,143.77v-4.36a2.84,2.84,0,0,1,.31-.06v4.36a1.55,1.55,0,0,0-.31.06"/><path class="cls-4" d="M423.51,143.71v-4.36a1.66,1.66,0,0,1,.32,0v4.35l-.32,0"/><path class="cls-4" d="M423.83,143.67v-4.35H424v4.36h-.17"/></g><path class="cls-37" d="M472.22,112a3.2,3.2,0,1,1,0,6.4H456.47a3.2,3.2,0,1,1,0-6.4Z"/><path class="cls-4" d="M472.22,112v-4.36a3.24,3.24,0,0,1,3.28,3.2v4.36A3.24,3.24,0,0,0,472.22,112Z"/><g class="cls-51"><path class="cls-4" d="M472.22,112v-4.36h.16V112h-.16"/><path class="cls-4" d="M472.38,112v-4.36l.35,0V112l-.35,0"/><path class="cls-4" d="M472.73,112v-4.36a2.59,2.59,0,0,1,.4.09v4.35l-.4-.08"/><path class="cls-4" d="M473.13,112.1v-4.35a3.16,3.16,0,0,1,.54.2v4.36a3.18,3.18,0,0,0-.54-.21"/><path class="cls-4" d="M473.67,112.31V108a3.23,3.23,0,0,1,1,.77v4.35a3.36,3.36,0,0,0-1-.76"/><path class="cls-4" d="M474.69,113.07v-4.35a2.61,2.61,0,0,1,.34.46v4.35a3.63,3.63,0,0,0-.34-.46"/><path class="cls-4" d="M475,113.53v-4.35a2.37,2.37,0,0,1,.19.35v4.36a3.13,3.13,0,0,0-.19-.36"/><path class="cls-4" d="M475.22,113.89v-4.36c0,.11.09.21.13.32v4.36a3.05,3.05,0,0,0-.13-.32"/><path class="cls-4" d="M475.35,114.21v-4.36a2.81,2.81,0,0,1,.08.31v4.36a2.81,2.81,0,0,0-.08-.31"/><path class="cls-4" d="M475.43,114.52v-4.36c0,.1,0,.2.05.3v4.36a2.68,2.68,0,0,0-.05-.3"/><path class="cls-4" d="M475.48,114.82v-4.36c0,.11,0,.21,0,.32v4.35c0-.1,0-.21,0-.31"/><path class="cls-4" d="M475.5,115.13v0"/></g><path class="cls-4" d="M453.2,115.18v-4.36a3.23,3.23,0,0,1,3.27-3.2V112A3.23,3.23,0,0,0,453.2,115.18Z"/><g class="cls-52"><path class="cls-4" d="M453.2,115.18v-4.36a3.17,3.17,0,0,1,1.42-2.64v4.36a3.17,3.17,0,0,0-1.42,2.64"/><path class="cls-4" d="M454.62,112.54v-4.36A3.84,3.84,0,0,1,455,108v4.35a4,4,0,0,0-.39.23"/><path class="cls-4" d="M455,112.31V108a2.52,2.52,0,0,1,.34-.15v4.36l-.34.14"/><path class="cls-4" d="M455.35,112.17v-4.36c.11,0,.21-.07.32-.09v4.35l-.32.1"/><path class="cls-4" d="M455.67,112.07v-4.35a1.7,1.7,0,0,1,.31-.06V112l-.31.06"/><path class="cls-4" d="M456,112v-4.35a1.66,1.66,0,0,1,.32,0V112l-.32,0"/><path class="cls-4" d="M456.3,112v-4.35h.17V112h-.17"/></g><rect class="cls-4" x="456.47" y="107.62" width="15.75" height="4.36"/><path class="cls-37" d="M391.53,112a3.2,3.2,0,1,1,0,6.4H375.78a3.2,3.2,0,1,1,0-6.4Z"/><path class="cls-4" d="M391.53,112v-4.36a3.23,3.23,0,0,1,3.27,3.2v4.36A3.23,3.23,0,0,0,391.53,112Z"/><g class="cls-53"><path class="cls-4" d="M391.53,112v-4.36h.16V112h-.16"/><path class="cls-4" d="M391.69,112v-4.36l.35,0V112l-.35,0"/><path class="cls-4" d="M392,112v-4.36a2.88,2.88,0,0,1,.4.09v4.35L392,112"/><path class="cls-4" d="M392.44,112.1v-4.35a3.16,3.16,0,0,1,.54.2v4.36a3.18,3.18,0,0,0-.54-.21"/><path class="cls-4" d="M393,112.31V108a3.35,3.35,0,0,1,1,.77v4.35a3.49,3.49,0,0,0-1-.76"/><path class="cls-4" d="M394,113.07v-4.35a2.61,2.61,0,0,1,.34.46v4.35a3.63,3.63,0,0,0-.34-.46"/><path class="cls-4" d="M394.34,113.53v-4.35a3.9,3.9,0,0,1,.19.35v4.36c-.06-.12-.12-.24-.19-.36"/><path class="cls-4" d="M394.53,113.89v-4.36a2.08,2.08,0,0,1,.12.32v4.36a1.75,1.75,0,0,0-.12-.32"/><path class="cls-4" d="M394.65,114.21v-4.36a1.57,1.57,0,0,1,.08.31v4.36a1.57,1.57,0,0,0-.08-.31"/><path class="cls-4" d="M394.73,114.52v-4.36a1.57,1.57,0,0,1,0,.3v4.36a1.45,1.45,0,0,0,0-.3"/><path class="cls-4" d="M394.78,114.82v-4.36a1.72,1.72,0,0,1,0,.32v4.35a1.62,1.62,0,0,0,0-.31"/><path class="cls-4" d="M394.8,115.13v0"/></g><path class="cls-4" d="M372.5,115.18v-4.36a3.24,3.24,0,0,1,3.28-3.2V112A3.24,3.24,0,0,0,372.5,115.18Z"/><g class="cls-54"><path class="cls-4" d="M372.5,115.18v-4.36a3.18,3.18,0,0,1,1.43-2.64v4.36a3.18,3.18,0,0,0-1.43,2.64"/><path class="cls-4" d="M373.93,112.54v-4.36a2.46,2.46,0,0,1,.39-.22v4.35a2.5,2.5,0,0,0-.39.23"/><path class="cls-4" d="M374.32,112.31V108a2.07,2.07,0,0,1,.34-.15v4.36l-.34.14"/><path class="cls-4" d="M374.66,112.17v-4.36a3,3,0,0,1,.32-.09v4.35l-.32.1"/><path class="cls-4" d="M375,112.07v-4.35a1.55,1.55,0,0,1,.31-.06V112l-.31.06"/><path class="cls-4" d="M375.29,112v-4.35a1.63,1.63,0,0,1,.31,0V112l-.31,0"/><path class="cls-4" d="M375.6,112v-4.35h.18V112h-.18"/></g><rect class="cls-4" x="375.78" y="107.62" width="15.75" height="4.36"/><g class="cls-55"><path class="cls-6" d="M707.69,254.31c3.06,1.77,3.08,4.63,0,6.4a12.2,12.2,0,0,1-11,0l-62.39-36c-3-1.77-3.07-4.63,0-6.39a12.14,12.14,0,0,1,11,0Z"/></g><g class="cls-55"><path class="cls-6" d="M114.84,248.73c-3.76,2.17-3.79,5.7,0,7.87a15,15,0,0,0,13.6,0l76.78-44.33c3.76-2.17,3.77-5.69,0-7.87a15,15,0,0,0-13.58,0Z"/></g><g class="cls-55"><path class="cls-6" d="M753.69,259.31c3.06,1.77,3.08,4.63,0,6.4a12.2,12.2,0,0,1-11,0l-62.39-36c-3-1.77-3.07-4.63,0-6.39a12.14,12.14,0,0,1,11,0Z"/></g><g class="cls-9"><path class="cls-56" d="M731.16,157.21l-.23-.13c-8.95-5.09-17.07-5.52-23-2.1l-4.64,2.7c5.89-3.43,14-3,23,2.09l.22.13c12.12,7,22.67,20.69,28.27,35.2l4.63-2.69C753.83,177.89,743.27,164.2,731.16,157.21Z"/><path class="cls-56" d="M774.49,238l-4.63,2.69c3.39-2,5.49-6.16,5.51-12.11,0-12-8.4-26.58-18.82-32.6-.59-.34-1.18-.65-1.76-.92l4.63-2.69a19.85,19.85,0,0,1,1.76.92c10.43,6,18.85,20.61,18.82,32.6C780,231.88,777.88,236.07,774.49,238Z"/><path class="cls-57" d="M726.52,159.9c12.12,7,22.67,20.69,28.27,35.2.58.27,1.17.58,1.76.92,10.42,6,18.85,20.61,18.82,32.6s-8.52,16.81-19,10.79L710.7,212.74c-7-4-13.23-12.81-15.37-21.72a53,53,0,0,1-1.54-12.55c.1-20.46,14.68-28.85,32.51-18.7Z"/></g><g class="cls-9"><path class="cls-56" d="M637.53,125l3.82-2.22c2-1.15,4.72-1,7.74.76.31.18.61.36.9.56l-3.82,2.22c-.3-.2-.59-.38-.9-.56C642.25,124,639.51,123.83,637.53,125Z"/><path class="cls-56" d="M683.87,165.7l-3.82,2.22c1.46-.84,2.36-2.64,2.37-5.21,0-5.15-3.61-11.43-8.1-14l-.63-.33,3.82-2.22.63.33c4.49,2.59,8.11,8.87,8.1,14C686.23,163.06,685.33,164.86,683.87,165.7Z"/><path class="cls-57" d="M659.13,124.93c7.56,4.36,13.77,14.52,14.56,23.43l.63.33c4.49,2.59,8.11,8.87,8.1,14s-3.67,7.24-8.15,4.65l-.47-.29L661,159.71a19.35,19.35,0,0,1-2-1,22,22,0,0,1-2-1.31l-10.13-5.85a12.15,12.15,0,0,1-1.71-.83c-6-3.47-10.86-11.87-10.84-18.78s4.91-9.68,10.91-6.21c.31.18.6.36.9.56C648.68,122.48,653.54,121.7,659.13,124.93Z"/><path class="cls-56" d="M663,122.71c-4.09-2.36-7.79-2.58-10.47-1l-3.82,2.22c2.68-1.55,6.38-1.33,10.47,1,7.56,4.36,13.77,14.52,14.56,23.43l3.82-2.22C676.72,137.23,670.51,127.07,663,122.71Z"/></g><path class="cls-58" d="M731.78,217.43c0-20.57-12.86-45.26-29.82-58.84-5,3.69-8.13,10.52-8.17,19.88A53,53,0,0,0,695.33,191c2.14,8.91,8.36,17.68,15.37,21.72l20.47,11.95A43.49,43.49,0,0,0,731.78,217.43Z"/><path class="cls-56" d="M627.94,161.09l4.63-2.69c3.88-2.26,9.26-1.94,15.2,1.49.67.38,1.33.8,2,1.25l-4.63,2.7c-.66-.45-1.32-.87-2-1.26C637.2,159.15,631.82,158.83,627.94,161.09Z"/><path class="cls-57" d="M677.22,161l.27.15c20.17,11.81,36.56,40.29,36.54,63.5a37.7,37.7,0,0,1-1.82,12.13c-2.47,7.26-9.54,9-17.47,4.45L643,211.68c-11.8-6.81-21.33-23.33-21.29-36.89s9.63-19,21.43-12.21c.67.39,1.33.81,2,1.26C651.53,154.77,663.52,153.09,677.22,161Z"/><path class="cls-56" d="M682.12,158.47a2.26,2.26,0,0,1-.26-.16c-10.26-5.92-19.56-6.47-26.27-2.57L651,158.43c6.71-3.9,16-3.35,26.26,2.58l.27.15c20.17,11.81,36.56,40.29,36.54,63.5a37.7,37.7,0,0,1-1.82,12.13,10.18,10.18,0,0,1-4.4,5.74l4.63-2.69a10.1,10.1,0,0,0,4.4-5.74A37.77,37.77,0,0,0,718.66,222C718.68,198.76,702.29,170.28,682.12,158.47Z"/><path class="cls-59" d="M675.16,191.13a19.58,19.58,0,0,1,.82,5.61,11.47,11.47,0,0,1-.84,4.65,5.21,5.21,0,0,1-2.32,2.59,5.72,5.72,0,0,1-3.52.46,12.88,12.88,0,0,1-4.44-1.7,21.11,21.11,0,0,1-4.44-3.43,23.2,23.2,0,0,1-3.5-4.51,22.72,22.72,0,0,1-2.29-5.25,19.58,19.58,0,0,1-.82-5.61,11.53,11.53,0,0,1,.84-4.66A5.23,5.23,0,0,1,657,176.7a5.71,5.71,0,0,1,3.52-.46,13,13,0,0,1,4.44,1.7,21.63,21.63,0,0,1,4.44,3.43,23.2,23.2,0,0,1,3.5,4.51A22.72,22.72,0,0,1,675.16,191.13Zm-4.34,5.68a7.75,7.75,0,0,0,.46-2.79,13,13,0,0,0-.44-3.29,13.81,13.81,0,0,0-1.29-3.16,14,14,0,0,0-2-2.75,11.6,11.6,0,0,0-2.62-2.08,6.6,6.6,0,0,0-2.63-1,3.11,3.11,0,0,0-2,.42,3.29,3.29,0,0,0-1.3,1.67,7.57,7.57,0,0,0-.46,2.77A12.87,12.87,0,0,0,659,190a14.08,14.08,0,0,0,3.3,5.9,11.6,11.6,0,0,0,2.62,2.08,6.7,6.7,0,0,0,2.63.95,3.19,3.19,0,0,0,2-.42,3.4,3.4,0,0,0,1.3-1.66"/><path class="cls-59" d="M683.93,202.05A11.23,11.23,0,0,1,686,203.6a10.44,10.44,0,0,1,1.67,2,9.62,9.62,0,0,1,1.1,2.39,8.88,8.88,0,0,1,.4,2.68,6,6,0,0,1-.17,1.52,3.14,3.14,0,0,1-.45,1.06,2.71,2.71,0,0,1-.68.71,5.36,5.36,0,0,1-.85.48l-4.94,2,7.2,4.15v3.48l-11.32-6.54v-4.19l6.32-2.86a6.61,6.61,0,0,0,1-.57,1.4,1.4,0,0,0,.48-1.2,3.16,3.16,0,0,0-.59-1.83,4.27,4.27,0,0,0-1.4-1.35q-1-.56-1.5-.18a1.67,1.67,0,0,0-.61,1.33l-3.44-2.27a4.94,4.94,0,0,1,.54-2.21,2.31,2.31,0,0,1,1.22-1.08,3.12,3.12,0,0,1,1.78,0A8.09,8.09,0,0,1,683.93,202.05Z"/></svg>