<svg id="Layer_1" data-name="Layer 1" xmlns="http://www.w3.org/2000/svg" viewBox="0 0 854 415"><defs><style>.cls-1{opacity:0.5;}.cls-2{fill:#57b5a0;}.cls-3{opacity:0.3;}.cls-4{fill:none;stroke:#2b4d61;stroke-miterlimit:10;stroke-width:2px;}.cls-5{fill:#7d9ab2;}.cls-6{fill:#fff;}.cls-7{fill:#de6f5a;}.cls-8{fill:#365363;}.cls-9{fill:#2b4d61;}.cls-10{opacity:0.4;}.cls-11{fill:#000062;}.cls-12{isolation:isolate;}</style></defs><g class="cls-1"><path class="cls-2" d="M681,152l-.09,32.46c-.11,37.7-24.89,75.35-74.39,104.11-99.63,57.9-261.7,57.91-362,0C194.06,259.44,168.86,221.19,169,183l.09-32.46C169,188.73,194.15,227,244.62,256.11c100.29,57.91,262.36,57.9,362,0C656.11,227.35,680.89,189.7,681,152Z"/></g><g class="cls-3"><ellipse class="cls-2" cx="425.03" cy="151.27" rx="143.05" ry="246.97" transform="translate(272.55 575.87) rotate(-89.84)"/></g><g class="cls-3"><ellipse class="cls-2" cx="425.03" cy="151.27" rx="92.66" ry="159.97" transform="translate(272.55 575.87) rotate(-89.84)"/></g><ellipse class="cls-4" cx="425.03" cy="151.27" rx="92.66" ry="159.97" transform="translate(272.55 575.87) rotate(-89.84)"/><path class="cls-5" d="M408.4,144.77,452,150.92v-.13l1.6.23.95-1.2,25-31.65a2.69,2.69,0,0,1,2.45-1L518.47,122a2.67,2.67,0,0,0,3-2.26h0a2.67,2.67,0,0,0-2.29-3l-39.44-5.23a2.69,2.69,0,0,0-2.45,1v0l-25.95,32.84-42.07-5.92-16-39.2,25.42-32-4.19-3.3-25.41,32-37-5.38,0,.12H352l-.76,5.28,37,5.37,16,39.2-24.06,31.74-1,1.21,16,38.86,4.95-2-14.88-36Z"/><polygon class="cls-5" points="446.68 153.34 461.88 192.96 466.83 190.98 451.63 151.37 446.68 153.34"/><polygon class="cls-5" points="461.19 148.72 456.24 150.69 471.43 190.31 476.38 188.34 461.19 148.72"/><circle class="cls-6" cx="416.93" cy="66.49" r="11.93"/><circle class="cls-6" cx="350.88" cy="93.61" r="11.93"/><circle class="cls-7" cx="479.49" cy="113.92" r="15.08"/><circle class="cls-7" cx="382.06" cy="174.85" r="15.08"/><circle class="cls-7" cx="467.7" cy="187.9" r="15.08"/><circle class="cls-6" cx="397.05" cy="211.36" r="11.93"/><circle class="cls-6" cx="418.91" cy="128.6" r="11.93"/><circle class="cls-6" cx="383.32" cy="81.36" r="11.93"/><circle class="cls-6" cx="521.42" cy="119.92" r="11.93"/><circle class="cls-8" cx="390.93" cy="99.24" r="17.69"/><circle class="cls-8" cx="452.95" cy="147.5" r="17.69"/><circle class="cls-8" cx="407.35" cy="141.55" r="17.69"/><circle class="cls-9" cx="429" cy="242.5" r="7"/><line class="cls-4" x1="429" y1="414.5" x2="429" y2="239.5"/><path class="cls-9" d="M428.07,414.3l-9.55-9.56a1.31,1.31,0,0,1,.93-2.24h19.1a1.31,1.31,0,0,1,.93,2.24l-9.55,9.56A1.32,1.32,0,0,1,428.07,414.3Z"/><g class="cls-10"><path class="cls-11" d="M288.21,72.11a3.47,3.47,0,0,1,.06,3.15A7.23,7.23,0,0,1,285.88,78a16.36,16.36,0,0,1-4.28,2.21,19.47,19.47,0,0,1-4.94,1,21.52,21.52,0,0,1-5.24-.24,20.14,20.14,0,0,1-5.12-1.59c-.5-.23-1-.48-1.41-.73a10.38,10.38,0,0,1-2.39-1.81,5.41,5.41,0,0,1-1.57-2.9,4.69,4.69,0,0,1,.62-3,9.64,9.64,0,0,1,2.77-2.91,10.87,10.87,0,0,1,1.61-1,14.23,14.23,0,0,1,2-.84,16.72,16.72,0,0,1,2.32-.59,15.89,15.89,0,0,1,2.62-.21l.08,3.32a9.19,9.19,0,0,0-2.55.37,7.09,7.09,0,0,0-2.22,1.1,4.08,4.08,0,0,0-1.39,1.59,2.52,2.52,0,0,0-.11,1.73,3.87,3.87,0,0,0,1.11,1.68,7.15,7.15,0,0,0,1.4,1,8.85,8.85,0,0,0,.87.45,13.39,13.39,0,0,0,3,1,14.62,14.62,0,0,0,3.07.25,11.17,11.17,0,0,0,2.83-.43,7.31,7.31,0,0,0,2.3-1.08,3.46,3.46,0,0,0,1.38-1.69A2.18,2.18,0,0,0,282.4,73Z"/><path class="cls-11" d="M350.43,47.67a6.21,6.21,0,0,1-2,1.8,13.19,13.19,0,0,1-3.21,1.34,18,18,0,0,1-3.8.64,16.56,16.56,0,0,1-3.69-.18,12.39,12.39,0,0,1-3.22-1c-.19-.09-.37-.19-.55-.29a7,7,0,0,1-1.86-1.53,3.76,3.76,0,0,1-1-2.23,3.29,3.29,0,0,1,.59-2.09,6.23,6.23,0,0,1,2-1.79,12.58,12.58,0,0,1,3.2-1.34,17.46,17.46,0,0,1,3.8-.64,16.07,16.07,0,0,1,3.7.18,12.38,12.38,0,0,1,3.22,1l.54.29A7.1,7.1,0,0,1,350,43.36a3.86,3.86,0,0,1,1,2.22A3.21,3.21,0,0,1,350.43,47.67Zm-7.38.6a3.7,3.7,0,0,0,2.39-1.49,1.71,1.71,0,0,0-.41-2,3.8,3.8,0,0,0-1-.87,5,5,0,0,0-1.45-.55,7.15,7.15,0,0,0-3.5.17A3.73,3.73,0,0,0,336.65,45a1.74,1.74,0,0,0,.41,2,3.7,3.7,0,0,0,1.05.87,5.09,5.09,0,0,0,1.45.55,7.11,7.11,0,0,0,3.49-.17"/><g class="cls-12"><path class="cls-11" d="M329.93,55.15a8.72,8.72,0,0,1-2.66,1.48,9.24,9.24,0,0,1-1.66.45,12.22,12.22,0,0,1-1.68.16,9.8,9.8,0,0,1-1.55,0,9.27,9.27,0,0,1-1.26-.2l1.23,1.18-4.27,1.61L302.77,46.2l4.64-1.75,6.52,5.79a2.76,2.76,0,0,1,1.12-1.69,9.71,9.71,0,0,1,2.41-1.29,11.19,11.19,0,0,1,3.32-.7,13.72,13.72,0,0,1,6.35,1.19q.48.22.93.48a9.62,9.62,0,0,1,1.53,1.1,5.47,5.47,0,0,1,1.51,2,3,3,0,0,1,.12,2A4,4,0,0,1,329.93,55.15Zm-6.29-.53c1.17-.45,1.86-1,2-1.65a1.88,1.88,0,0,0-.82-2,4.76,4.76,0,0,0-.78-.55,5.5,5.5,0,0,0-2-.67,6.67,6.67,0,0,0-3.43.42c-1.18.44-1.86,1-2,1.64a1.92,1.92,0,0,0,.83,2,5.14,5.14,0,0,0,.79.57,5.64,5.64,0,0,0,2,.66,6.91,6.91,0,0,0,3.44-.42"/><path class="cls-11" d="M304.79,52.39l3.2,2.29c-.38.08-.74.19-1.08.29s-.66.25-1,.4a4.9,4.9,0,0,0-1.67,1.12,1.23,1.23,0,0,0-.32,1.07,2.14,2.14,0,0,0,.69,1.1,14.56,14.56,0,0,0,1.43,1.15l4.74,3.39-4.31,2-11.34-8.11,4.3-2,1.82,1.3.06,0a2.34,2.34,0,0,1,.07-1.9A3.8,3.8,0,0,1,303.24,53l.78-.33A6.35,6.35,0,0,1,304.79,52.39Z"/><path class="cls-11" d="M298.67,69.28a5.8,5.8,0,0,1-1.87,1.57,9.83,9.83,0,0,1-2,.84,9.69,9.69,0,0,1-2.2.4,8.65,8.65,0,0,1-2.22-.16,6.5,6.5,0,0,1-2-.75l-.05,0a3.71,3.71,0,0,1-1.43-1.32,1.79,1.79,0,0,1-.14-1.37,3.75,3.75,0,0,1,.83-1.36,11.66,11.66,0,0,1,1.46-1.29c.56-.41,1.15-.81,1.78-1.19s1.2-.71,1.75-1a4.31,4.31,0,0,0-2.4-.55,5.24,5.24,0,0,0-2.39.65A3.55,3.55,0,0,0,286.42,65a2.46,2.46,0,0,0-.34,1.47l-4.23-.07A4,4,0,0,1,282.92,64a9.35,9.35,0,0,1,2.55-2,13.33,13.33,0,0,1,3.29-1.38,10,10,0,0,1,3.05-.27,10.79,10.79,0,0,1,3,.67,20.7,20.7,0,0,1,2.82,1.37l.23.13,6.4,3.79-3.64,2.06L299,67.4l0,0A1.89,1.89,0,0,1,298.67,69.28Zm-5-.1a4.5,4.5,0,0,0,1.6-.52,4.17,4.17,0,0,0,1-.73,2,2,0,0,0,.52-.81,1,1,0,0,0-.06-.81,1.88,1.88,0,0,0-.78-.75l-.83-.49-1,.55c-.29.17-.66.39-1.08.66a5.62,5.62,0,0,0-1.07.87,1.7,1.7,0,0,0-.52.92c0,.3.15.59.58.85a2.45,2.45,0,0,0,1.65.26"/></g><path class="cls-11" d="M366.7,36A5.69,5.69,0,0,1,368,37a11.79,11.79,0,0,1,1.36,1.8l3.29,5.42-5.23,1.06-2.93-4.82c-.17-.28-.37-.57-.59-.87a3.22,3.22,0,0,0-.82-.78l-.17-.1a3.1,3.1,0,0,0-1-.36,5.49,5.49,0,0,0-3.21.61,1.47,1.47,0,0,0-.62.77,1.41,1.41,0,0,0,.05.88,4.85,4.85,0,0,0,.46,1l3,4.9-5.24,1.06-6-9.84,5-1L356.2,38a4,4,0,0,1,.43-.72,2.84,2.84,0,0,1,.77-.72,6.66,6.66,0,0,1,1.2-.66,9.47,9.47,0,0,1,1.67-.49,13.18,13.18,0,0,1,3.42-.3,7.65,7.65,0,0,1,2.5.6A5,5,0,0,1,366.7,36Z"/><g class="cls-12"><path class="cls-11" d="M428.61,37.11a6.09,6.09,0,0,1-2.06,1.75A11.73,11.73,0,0,1,423.42,40a18.56,18.56,0,0,1-3.9.43,18.92,18.92,0,0,1-3.91-.34A12.5,12.5,0,0,1,412.38,39L412,38.8a6.35,6.35,0,0,1-1.8-1.48,3.72,3.72,0,0,1-.86-2.25,3.51,3.51,0,0,1,.69-2.25,6.19,6.19,0,0,1,2.06-1.75,11.8,11.8,0,0,1,3.14-1.14,19.15,19.15,0,0,1,3.89-.43,19.56,19.56,0,0,1,3.91.34,12.5,12.5,0,0,1,3.23,1.07l.41.23a6.25,6.25,0,0,1,1.78,1.47,3.67,3.67,0,0,1,.87,2.24A3.46,3.46,0,0,1,428.61,37.11Zm-9.2.49a6,6,0,0,0,3.25-.76,2.1,2.1,0,0,0,1.09-1.92,2.22,2.22,0,0,0-1.23-1.9l0,0a6.36,6.36,0,0,0-3.26-.67,6.16,6.16,0,0,0-3.25.76A2.12,2.12,0,0,0,414.88,35a2.26,2.26,0,0,0,1.23,1.9l.05,0a6.29,6.29,0,0,0,3.25.67"/><path class="cls-11" d="M404.44,27.12l-3.84,2.46a7.38,7.38,0,0,0-2.31-.73,11.17,11.17,0,0,0-2.92-.07,10.33,10.33,0,0,0-2.88.62,6.8,6.8,0,0,0-2.11,1.21,4,4,0,0,0-1.17,1.67,3.33,3.33,0,0,0,0,2,4.29,4.29,0,0,0,1.08,1.89,6.51,6.51,0,0,0,1.45,1.12,4.11,4.11,0,0,0,.51.27,10,10,0,0,0,2.59.81,12.19,12.19,0,0,0,3,.11,9.81,9.81,0,0,0,3-.7,5.06,5.06,0,0,0,1.92-1.38L408,38a8.48,8.48,0,0,1-3.66,2.33,19.33,19.33,0,0,1-5,1.1,28,28,0,0,1-5.74-.07,18.85,18.85,0,0,1-4.84-1.2,12.15,12.15,0,0,1-1.62-.78A9.53,9.53,0,0,1,385.15,38a6.72,6.72,0,0,1-1.91-3.17,5.06,5.06,0,0,1,.17-3.36,6.66,6.66,0,0,1,2.25-2.74,13.57,13.57,0,0,1,4-2,24.52,24.52,0,0,1,5.46-1,21.24,21.24,0,0,1,2.31-.09,22.23,22.23,0,0,1,2.44.17,17.43,17.43,0,0,1,2.39.48A11.16,11.16,0,0,1,404.44,27.12Z"/></g><path class="cls-11" d="M483.07,42.64a9,9,0,0,1-2.39,1.44,11,11,0,0,1-3.05.78,12.78,12.78,0,0,1-3.53-.1,13.59,13.59,0,0,1-3-.82,7,7,0,0,1-.67-.32,3.55,3.55,0,0,1-1.2-1.09l-2.88,5.76L461,47.41l7.17-14.72,4.91.81-.64,1.32c.38-.13.74-.26,1.18-.39a10.18,10.18,0,0,1,1.45-.31,15.11,15.11,0,0,1,1.7-.12,10.2,10.2,0,0,1,1.81.15,13.25,13.25,0,0,1,3.31,1l.7.36a6,6,0,0,1,1.46,1.16,3.6,3.6,0,0,1,.93,1.92,3.78,3.78,0,0,1-.41,2.18A6,6,0,0,1,483.07,42.64Zm-5.86-1.07a3.29,3.29,0,0,0,2-1.65,1.7,1.7,0,0,0-.23-2,2.64,2.64,0,0,0-.67-.54,6.65,6.65,0,0,0-2.14-.68,7.1,7.1,0,0,0-3.49.18,3.41,3.41,0,0,0-2,1.65,1.71,1.71,0,0,0,.23,2,2.46,2.46,0,0,0,.68.54,6.13,6.13,0,0,0,2.13.68,6.91,6.91,0,0,0,3.5-.18"/><path class="cls-11" d="M459.71,32a3.52,3.52,0,0,1,.9.72,3,3,0,0,1,.72,1.5,4.86,4.86,0,0,1-.08,1.77l-1.34,6.1-5.5-.41,1.32-6a1.52,1.52,0,0,0-.26-1.28,1.23,1.23,0,0,0-.36-.31,3.44,3.44,0,0,0-1.42-.36,7,7,0,0,0-1.63.06,3.12,3.12,0,0,0-1.14.43,2.3,2.3,0,0,0-.72.7,2.82,2.82,0,0,0-.36.88l-1.2,5.46-5.5-.42,1.19-5.46a6.18,6.18,0,0,0,.12-.68,1.77,1.77,0,0,0-.09-.79,1.33,1.33,0,0,0-.58-.66l-.08,0a3.08,3.08,0,0,0-1.31-.32,6.13,6.13,0,0,0-1.78.09,2.94,2.94,0,0,0-1.14.52,2.15,2.15,0,0,0-.64.81,4.94,4.94,0,0,0-.33,1l-1.13,5.15-5.5-.42,2.27-10.33,5.28.4-.3,1.41a9.58,9.58,0,0,1,.93-.54,7,7,0,0,1,1.25-.44,10,10,0,0,1,1.6-.27,10.46,10.46,0,0,1,1.86,0,10.21,10.21,0,0,1,3.23.7c.22.09.42.19.61.29a3.13,3.13,0,0,1,1.26,1.27,6.55,6.55,0,0,1,2.62-1.25,12.09,12.09,0,0,1,3.44-.17,10.31,10.31,0,0,1,2.95.58A6.59,6.59,0,0,1,459.71,32Z"/><path class="cls-11" d="M505.74,45.9a6.37,6.37,0,0,1-2.22,1.9,11.57,11.57,0,0,1-3.11,1.11,16.26,16.26,0,0,1-3.68.29,17.94,17.94,0,0,1-3.85-.53,14,14,0,0,1-3.34-1.23l-.27-.15a6.84,6.84,0,0,1-1.93-1.59,3.44,3.44,0,0,1-.8-2.07,3.66,3.66,0,0,1,.78-2.25,6.72,6.72,0,0,1,2.23-1.9,11.73,11.73,0,0,1,3.12-1.1,16.64,16.64,0,0,1,3.67-.3,18.87,18.87,0,0,1,3.86.53,14.73,14.73,0,0,1,3.33,1.24l.26.14a6.75,6.75,0,0,1,1.94,1.6,3.48,3.48,0,0,1,.8,2.07A3.53,3.53,0,0,1,505.74,45.9Zm-7.46.24a4.1,4.1,0,0,0,2.35-1.49,1.71,1.71,0,0,0,.2-2,2.45,2.45,0,0,0-.88-.79,6.13,6.13,0,0,0-1.65-.62,7.11,7.11,0,0,0-3.51-.07,4,4,0,0,0-2.35,1.49,1.68,1.68,0,0,0-.2,2,2.41,2.41,0,0,0,.87.79,6.21,6.21,0,0,0,1.66.62,7.11,7.11,0,0,0,3.51.07"/><path class="cls-11" d="M542.93,53.07a4.54,4.54,0,0,1,1.12.87,1.88,1.88,0,0,1,.57,1.53,3,3,0,0,1-.8,1.6A14,14,0,0,1,542,58.73l-5.86,4.61-4.48-1.9,5.21-4.11c.3-.24.61-.5.91-.76a2.8,2.8,0,0,0,.64-.84.93.93,0,0,0,0-.83,1.42,1.42,0,0,0-.59-.53,3.56,3.56,0,0,0-.48-.24,5.31,5.31,0,0,0-1.63-.42,4.17,4.17,0,0,0-1.43.14,4.71,4.71,0,0,0-1.24.52,11.84,11.84,0,0,0-1.1.75l-5.29,4.18-4.47-1.92L532.84,49l4.29,1.83L535.69,52l.06,0a6.2,6.2,0,0,1,1.21-.23,7.91,7.91,0,0,1,1.47,0,12,12,0,0,1,1.62.21,8.21,8.21,0,0,1,1.64.52A13.17,13.17,0,0,1,542.93,53.07Z"/><path class="cls-11" d="M528.39,47.33l-8.88,9-4.64-1.54,1.21-1.22-.06,0a8.93,8.93,0,0,1-1.17.31,9,9,0,0,1-1.44.14,13.75,13.75,0,0,1-1.65-.1,10,10,0,0,1-1.74-.41,11,11,0,0,1-2-.85,4,4,0,0,1-.66-.46,2.22,2.22,0,0,1-.88-1.48,2.62,2.62,0,0,1,.5-1.64,10.94,10.94,0,0,1,1.45-1.76l4.91-5,4.82,1.6-4.35,4.43c-.26.26-.51.54-.75.82a2.2,2.2,0,0,0-.47.87.92.92,0,0,0,.18.82,1.3,1.3,0,0,0,.44.37,3.67,3.67,0,0,0,.76.33,5.35,5.35,0,0,0,1.7.3,4,4,0,0,0,1.4-.22,4,4,0,0,0,1.13-.61,8,8,0,0,0,.94-.82l4.42-4.5Z"/><polygon class="cls-11" points="582.35 68.62 586.58 72.04 582.39 77.76 592.97 77.2 597.05 80.5 582.04 80.67 576.37 89.79 572.13 86.36 576.95 79.8 564.77 80.42 560.77 77.19 577.24 76.91 582.35 68.62"/><path class="cls-11" d="M571.54,60.22,552.4,72l-3.73-2,1.62-1c-.43,0-.86,0-1.35,0a9.27,9.27,0,0,1-1.54-.12,10.68,10.68,0,0,1-1.62-.35,6.83,6.83,0,0,1-1.49-.6l-.22-.12a6.65,6.65,0,0,1-2-1.61,3.13,3.13,0,0,1-.72-1.92,3.31,3.31,0,0,1,.7-2,7.42,7.42,0,0,1,2.1-1.82,12.88,12.88,0,0,1,2.89-1.29,15.74,15.74,0,0,1,3.28-.64,13.77,13.77,0,0,1,3.33.13,9.34,9.34,0,0,1,3,1l.24.13a6.85,6.85,0,0,1,1.75,1.38,2,2,0,0,1,.54,1.75l8.22-5ZM551.73,67.1a6.31,6.31,0,0,0,3.1-.92c.93-.57,1.39-1.19,1.4-1.85s-.46-1.22-1.4-1.76l-.13-.08a6.41,6.41,0,0,0-6.35.16c-.93.57-1.4,1.19-1.4,1.85s.46,1.22,1.39,1.76l.13.07a6.23,6.23,0,0,0,3.26.77"/></g></svg>