<svg id="Layer_1" data-name="Layer 1" xmlns="http://www.w3.org/2000/svg" xmlns:xlink="http://www.w3.org/1999/xlink" viewBox="0 0 854 415"><defs><style>.cls-1{fill:none;}.cls-2{fill:#15223e;}.cls-3{isolation:isolate;}.cls-4{opacity:0.5;}.cls-5{fill:#62b55c;}.cls-6{opacity:0.3;}.cls-7{fill:#fafdfd;}.cls-8{fill:#de6f5a;}.cls-9{fill:#c6d2e5;}.cls-10{fill:#a33e3e;}.cls-11,.cls-15,.cls-20,.cls-29{opacity:0.41;}.cls-11{fill:url(#linear-gradient);}.cls-12{fill:#cfad68;}.cls-13{fill:#fff;}.cls-14{fill:#ffeb72;}.cls-15{fill:url(#linear-gradient-2);}.cls-16{clip-path:url(#clip-path);}.cls-17{fill:#999;}.cls-18{fill:#d1d1d1;}.cls-19{clip-path:url(#clip-path-2);}.cls-20{fill:url(#linear-gradient-3);}.cls-21{fill:#d9f4ff;}.cls-22{fill:#56a2d6;}.cls-23{opacity:0.7;fill:url(#linear-gradient-4);}.cls-24{fill:#79c0e8;}.cls-25{fill:#7d9ab2;}.cls-26{fill:#dbdbdb;}.cls-27{fill:#848484;}.cls-28{fill:#405868;}.cls-29{fill:url(#linear-gradient-5);}.cls-30{clip-path:url(#clip-path-3);}.cls-31{fill:#8e8e8e;}.cls-32{fill:#6b6b6b;}.cls-33{clip-path:url(#clip-path-4);}.cls-34{clip-path:url(#clip-path-5);}.cls-35{clip-path:url(#clip-path-6);}.cls-36{fill:#62b55a;}.cls-37{fill:#a8e2a1;}.cls-38{fill:#747474;}.cls-39{clip-path:url(#clip-path-7);}.cls-40{clip-path:url(#clip-path-8);}.cls-41{fill:#cbe6f7;}</style><linearGradient id="linear-gradient" x1="462.44" y1="76.56" x2="488.53" y2="121.76" gradientUnits="userSpaceOnUse"><stop offset="0" stop-opacity="0"/><stop offset="0.03" stop-color="#15223e" stop-opacity="0.03"/><stop offset="1" stop-color="#15223e"/></linearGradient><linearGradient id="linear-gradient-2" x1="367.57" y1="105.23" x2="399.65" y2="160.8" xlink:href="#linear-gradient"/><clipPath id="clip-path"><path class="cls-1" d="M429.84,161.46a1.8,1.8,0,0,1-1.8-.15c-8.71,5.24-23.12,5.39-32.19.33s-9.37-13.41-.67-18.65,23.12-5.38,32.19-.32,9.37,13.4.67,18.64a1.8,1.8,0,0,0,1.8.15,23.55,23.55,0,0,0,3.67-2.77,13.42,13.42,0,0,0,4.23-7.76c.62-4.39-2.05-8.91-8-12.21-10.45-5.83-27-5.66-37.07.37-5.39,3.24-7.78,7.52-7.22,11.69,1,6.93,7.38,11.12,13.76,13.27C408.6,167.14,420.9,166.72,429.84,161.46Z"/></clipPath><clipPath id="clip-path-2"><path class="cls-1" d="M440.42,87c-10.32,6-22.56,7.62-33.81,6.81A59.21,59.21,0,0,1,389.45,90c-6.71-2.74-12.8-6.75-15.91-12.92a18.13,18.13,0,0,1-1-2.4c-.19-.69-.39-1.63-.51-2.33a14.59,14.59,0,0,1,.44-5.84c1.9-6.41,7.31-10.69,12.85-13.62,12.62-6.49,29.45-7.38,43.3-3.64,7,2,13.48,5,18.33,10.22a18,18,0,0,1,4.07,6.87,14.88,14.88,0,0,1,.63,5,15.4,15.4,0,0,1-1.76,6.29,22.53,22.53,0,0,1-5.87,6.87A33.17,33.17,0,0,1,440.42,87a.52.52,0,0,1-.52,0c14.87-9,14.36-23.22-1.14-31.86s-40.12-8.39-55,.56-14.36,23.21,1.14,31.85,40.12,8.4,55-.55A.52.52,0,0,0,440.42,87Z"/></clipPath><linearGradient id="linear-gradient-3" x1="455.31" y1="121.38" x2="489.57" y2="180.71" xlink:href="#linear-gradient"/><linearGradient id="linear-gradient-4" x1="356.51" y1="160.8" x2="396.09" y2="229.36" gradientUnits="userSpaceOnUse"><stop offset="0.23" stop-opacity="0"/><stop offset="1"/></linearGradient><linearGradient id="linear-gradient-5" x1="253.14" y1="174.29" x2="290.65" y2="239.26" xlink:href="#linear-gradient"/><clipPath id="clip-path-3"><path class="cls-1" d="M349.54,226.79c0-5.24-3.38-10.48-10.14-14.55-13.93-8.39-37-8.62-51.52-.53-7.48,4.17-11.23,9.73-11.22,15.29l-.4-141.43c0-5.56,3.74-11.12,11.22-15.29,14.52-8.09,37.59-7.86,51.52.53,6.76,4.07,10.13,9.31,10.14,14.55Z"/></clipPath><clipPath id="clip-path-4"><path class="cls-1" d="M349.14,85.36c0-5.24-3.38-10.48-10.14-14.55-13.93-8.39-37-8.62-51.52-.53C280,74.45,276.25,80,276.26,85.57a21.35,21.35,0,0,1,.84-6,23,23,0,0,1,2.19-5.07,23.91,23.91,0,0,1,2-2.94s.9-1.12,1.86-2.08a30.32,30.32,0,0,1,2.4-2.15,31,31,0,0,1,3.24-2.28c.39-.25.79-.48,1.2-.71,13.06-7.28,33.79-7.07,46.32.47.66.41,1.54,1,2.17,1.42a30.92,30.92,0,0,1,2.7,2.17,25.66,25.66,0,0,1,2.05,2.07c.29.33.68.77.95,1.12a23.94,23.94,0,0,1,1.42,2,22.45,22.45,0,0,1,2.66,5.78,21.91,21.91,0,0,1,.66,3A21.11,21.11,0,0,1,349.14,85.36Z"/></clipPath><clipPath id="clip-path-5"><path class="cls-1" d="M301.47,57.18l.61-.36c6.08-3.38,15.73-3.29,21.57.22l12.67,7.81c-12.53-7.54-33.26-7.75-46.32-.47-.45.25-.88.51-1.3.77Z"/></clipPath><clipPath id="clip-path-6"><path class="cls-2" d="M276.66,227l-.4-141.43c0,5.25,3.39,10.49,10.15,14.56l.4,141.43C280.05,237.49,276.68,232.25,276.66,227Z"/></clipPath><clipPath id="clip-path-7"><path class="cls-1" d="M329.58,61.75c0-2.44-1.57-4.88-4.72-6.77-6.47-3.9-17.2-4-24-.24-3.47,1.94-5.22,4.52-5.21,7.11l-.05-18.65c0-2.59,1.74-5.17,5.21-7.11,6.75-3.77,17.48-3.66,24,.24,3.15,1.89,4.71,4.33,4.72,6.77C329.55,48.7,329.57,56.16,329.58,61.75Z"/></clipPath><clipPath id="clip-path-8"><path class="cls-2" d="M295.69,61.85l-.05-18.65c0,2.44,1.57,4.88,4.71,6.77l.06,18.65C297.26,66.73,295.7,64.29,295.69,61.85Z"/></clipPath></defs><g class="cls-3"><g class="cls-4"><path class="cls-5" d="M681,155.5,680.91,188c-.11,37.7-24.89,75.35-74.39,104.11-99.63,57.9-261.7,57.91-362,0C194.06,262.94,168.86,224.69,169,186.5l.09-32.46c-.11,38.19,25.09,76.44,75.56,105.57,100.29,57.91,262.36,57.9,362,0C656.11,230.85,680.89,193.2,681,155.5Z"/></g><g class="cls-6"><ellipse class="cls-5" cx="425.03" cy="154.77" rx="143.05" ry="246.97" transform="translate(269.05 579.36) rotate(-89.84)"/></g></g><path class="cls-7" d="M420.93,271,629.67,166.72a2.77,2.77,0,0,1,2.77.43,8.76,8.76,0,0,1,3.55,7.1,2.81,2.81,0,0,1-1.33,2.51L425.92,281a2.84,2.84,0,0,0,1.33-2.52,8.77,8.77,0,0,0-3.55-7.1A2.77,2.77,0,0,0,420.93,271Z"/><ellipse class="cls-2" cx="423.42" cy="276" rx="3.25" ry="5.61" transform="translate(-78.6 217.42) rotate(-26.44)"/><path class="cls-8" d="M543.72,209.65,553,205c5.16-1,10.35,7.16,15.82,4.45l-9.19,4.6C554.08,216.81,548.89,208.63,543.72,209.65Zm55.44-15.39,9.2-4.61c-5.42,2.69-10.55-5.23-15.65-4.47l-9.24,4.61C588.58,189,593.73,197,599.16,194.26Zm-19.79,9.91,9.2-4.61c-5.45,2.71-10.61-5.31-15.74-4.46l-9.24,4.62C568.73,198.81,573.91,206.88,579.37,204.17ZM619,184.35l9.2-4.61c-5.39,2.67-10.5-5.15-15.57-4.49l-9.24,4.61C608.43,179.16,613.55,187,619,184.35ZM635.89,175a5.21,5.21,0,0,0,.1-.72,8.76,8.76,0,0,0-3.55-7.1,2.77,2.77,0,0,0-2.77-.43l-6.45,3.22C627.37,169.44,631.55,174.59,635.89,175ZM440.83,273.56,450,269c-5.72,2.84-11.13-6.16-16.51-4.26l-9.3,4.64C429.64,267.29,435.08,276.41,440.83,273.56Zm39.58-19.83,9.2-4.6c-5.62,2.79-10.94-5.86-16.23-4.35l-9.27,4.63C469.43,247.81,474.77,256.53,480.41,253.73Zm-19.79,9.91,9.2-4.6c-5.67,2.81-11-6-16.37-4.31l-9.27,4.63C449.55,257.57,454.93,266.47,460.62,263.64Zm39.59-19.82,9.19-4.61c-5.57,2.77-10.85-5.71-16.1-4.38L484,239.45C489.31,238.05,494.61,246.6,500.21,243.82ZM520,233.91l9.19-4.61c-5.53,2.75-10.77-5.59-16-4.41L504,229.5C509.19,228.27,514.44,236.66,520,233.91ZM539.79,224l9.19-4.61c-5.5,2.73-10.72-5.5-15.9-4.43l-9.24,4.61C529,218.45,534.26,226.74,539.79,224Z"/><path class="cls-9" d="M427.1,276.75a6.66,6.66,0,0,1,.15,1.76,2.84,2.84,0,0,1-1.33,2.52L634.66,176.76a2.81,2.81,0,0,0,1.33-2.51,6.81,6.81,0,0,0-.21-2Z"/><path class="cls-10" d="M520,233.91l9.19-4.61c-2.12,1-4.19.48-6.24-.56l-9.19,4.6C515.8,234.39,517.88,235,520,233.91Z"/><path class="cls-10" d="M539.79,224l9.19-4.61c-2.11,1.05-4.19.48-6.24-.56l-9.2,4.6C535.59,224.47,537.67,225.05,539.79,224Z"/><path class="cls-10" d="M559.58,214.08l9.19-4.6c-2.11,1.05-4.19.47-6.24-.57l-9.2,4.61C555.38,214.56,557.46,215.13,559.58,214.08Z"/><path class="cls-10" d="M599.16,194.26l9.2-4.61c-2.12,1-4.2.48-6.25-.56l-9.19,4.61C595,194.74,597,195.31,599.16,194.26Z"/><path class="cls-10" d="M500.21,243.82l9.19-4.61c-2.12,1-4.19.48-6.24-.56l-9.2,4.61C496,244.3,498.09,244.87,500.21,243.82Z"/><path class="cls-10" d="M579.37,204.17l9.2-4.61c-2.12,1.06-4.2.48-6.25-.56l-9.2,4.61C575.17,204.65,577.25,205.22,579.37,204.17Z"/><path class="cls-10" d="M621.91,179.18l-9.2,4.6c2,1,4.12,1.62,6.24.57l9.2-4.61C626,180.79,624,180.22,621.91,179.18Z"/><path class="cls-10" d="M636,173.7a3.4,3.4,0,0,0,0-.45h0a6.06,6.06,0,0,0-.18-1l-3.28,1.65a9.42,9.42,0,0,0,3.39,1.1l.06-.34c0-.12,0-.25,0-.38s0-.33,0-.49S636,173.72,636,173.7Z"/><path class="cls-10" d="M440.83,273.56,450,269c-2.12,1.05-4.19.48-6.24-.56l-9.2,4.6C436.64,274,438.71,274.61,440.83,273.56Z"/><path class="cls-10" d="M480.41,253.73l9.2-4.6c-2.12,1.05-4.19.47-6.24-.57l-9.2,4.61C476.22,254.21,478.29,254.78,480.41,253.73Z"/><path class="cls-10" d="M460.62,263.64l9.2-4.6c-2.12,1-4.19.48-6.24-.56l-9.2,4.6C456.43,264.12,458.5,264.7,460.62,263.64Z"/><polygon class="cls-11" points="493.65 118.09 441.5 89.87 457.72 79.29 510 109.36 493.65 118.09"/><path class="cls-12" d="M510.91,84.8a3.16,3.16,0,0,1,0,.32c0,.12,0,.23,0,.34s0,.19-.07.28,0,.22-.09.33-.08.17-.11.26-.1.23-.16.34l-.15.24-.25.38-.29.36-.07.08c-.14.15-.3.3-.46.45l-.33.27-.31.25-.39.26c-.13.08-.26.18-.41.26-.33.19-.67.36-1,.52l-.31.13a8.89,8.89,0,0,1-.86.32l-.31.11-.56.16-.43.12-.6.12-.41.09c-.4.07-.81.13-1.23.17l-.39,0-.73.05h-1.07l-.49,0a4.93,4.93,0,0,1-.55,0l-.51,0-.54-.06-.48-.07-.58-.1-.45-.09-.67-.16-.38-.1c-.39-.12-.78-.25-1.16-.4l-.55-.23-.28-.12c-.27-.13-.54-.27-.8-.42a5.82,5.82,0,0,1-3.15-3.87,3.14,3.14,0,0,1-.05-.61l-.1,27.94c0,1.62,1.07,3.25,3.21,4.48.26.15.52.29.8.42l.28.12c.16.07.32.15.49.21l.06,0c.37.15.76.28,1.16.4l.1,0,.27.07.68.16.18,0,.27,0,.57.1.24,0a2.13,2.13,0,0,0,.25,0,5,5,0,0,0,.54.06,2.3,2.3,0,0,0,.26,0l.24,0,.55,0,.28,0h1.29l.73,0,.3,0h.09c.41,0,.82-.1,1.23-.17h.06l.35-.07.6-.13.43-.12.56-.16.12,0,.19-.07c.29-.1.58-.21.85-.33l.31-.13a11,11,0,0,0,1-.52l.13-.08.28-.18.39-.26.3-.24.34-.28.07-.05c.14-.13.26-.26.39-.4l.07-.08.21-.25a.41.41,0,0,0,.07-.11,3.19,3.19,0,0,0,.26-.38s.08-.1.11-.16l0-.08a3.54,3.54,0,0,0,.16-.34l.1-.19s0,0,0-.07.07-.22.1-.33a1.41,1.41,0,0,0,.06-.22.09.09,0,0,1,0,0c0-.12,0-.23,0-.35s0-.14,0-.22v-.09h0Z"/><path class="cls-13" d="M508.21,88.92l0,0c-.13.08-.26.18-.41.26-.33.19-.67.36-1,.52l-.31.13L506,90v27.91l.3-.12.31-.13a11,11,0,0,0,1-.52l.13-.08.28-.18.14-.1Z"/><path class="cls-2" d="M492.3,117.16c.26.15.52.29.8.42l.28.12.13.06.09-27.95-.13,0-.28-.12c-.27-.13-.54-.27-.8-.42a5.82,5.82,0,0,1-3.15-3.87,3.14,3.14,0,0,1-.05-.61l-.1,27.94C489.09,114.3,490.16,115.93,492.3,117.16Z"/><ellipse class="cls-1" cx="500.05" cy="84.77" rx="6.29" ry="10.86" transform="translate(413.86 584.58) rotate(-89.84)"/><ellipse class="cls-14" cx="500.05" cy="84.77" rx="6.29" ry="10.86" transform="translate(413.86 584.58) rotate(-89.84)"/><path class="cls-12" d="M509.51,50.06a2.45,2.45,0,0,1,0,.27c0,.1,0,.2,0,.3a1.05,1.05,0,0,1-.06.24,1.57,1.57,0,0,1-.08.29c0,.07-.06.15-.09.23l-.14.29-.13.21-.22.33a3.76,3.76,0,0,1-.25.31l-.06.08L508,53l-.29.24-.27.21-.34.23-.36.23c-.28.16-.59.31-.89.45l-.27.12-.75.28-.27.09-.49.14-.37.1-.52.11-.36.07a10,10,0,0,1-1.08.15c-.11,0-.22,0-.34,0l-.64,0h-1.36l-.48,0-.44,0-.47,0-.42-.06a4,4,0,0,1-.5-.09l-.4-.07-.59-.15-.32-.09c-.35-.1-.69-.21-1-.34l-.48-.2-.24-.11c-.24-.11-.47-.23-.7-.36a5.1,5.1,0,0,1-2.75-3.38,3.15,3.15,0,0,1,0-.53l-.08,33.92c0,1.42.93,2.83,2.79,3.91.23.13.46.25.7.36l.24.11.43.19h.05c.33.13.67.24,1,.35l.08,0a2.1,2.1,0,0,0,.24.06l.59.15.16,0,.24,0,.5.08.2,0,.22,0,.47.06.23,0h.21l.48,0h1.36l.64,0h.34q.54-.06,1.08-.15h.05l.3-.07.53-.11.37-.1.49-.14.1,0,.17-.06.75-.28.27-.12a9.27,9.27,0,0,0,.89-.45l.11-.07.25-.16.34-.23.26-.21.3-.24s0,0,.05,0a2.73,2.73,0,0,0,.34-.34.46.46,0,0,0,.07-.07l.18-.22.07-.09c.08-.11.15-.22.22-.33l.09-.14s0-.05,0-.08a2.55,2.55,0,0,0,.13-.29l.09-.17s0,0,0-.06a1.72,1.72,0,0,0,.08-.28,1.52,1.52,0,0,0,.06-.2v0c0-.1,0-.2,0-.29s0-.13,0-.2V84h0Z"/><path class="cls-2" d="M493.28,87.83c.23.13.46.25.7.36l.24.11.12,0,.08-33.92-.12,0-.24-.11c-.24-.11-.47-.23-.7-.36a5.1,5.1,0,0,1-2.75-3.38,3.15,3.15,0,0,1,0-.53l-.08,33.92C490.48,85.34,491.42,86.75,493.28,87.83Z"/><ellipse class="cls-1" cx="500.04" cy="50.03" rx="5.49" ry="9.47" transform="translate(448.59 549.92) rotate(-89.84)"/><ellipse class="cls-14" cx="500.04" cy="50.03" rx="5.49" ry="9.47" transform="translate(448.59 549.92) rotate(-89.84)"/><g class="cls-3"><path class="cls-8" d="M508.21,30.53a1.94,1.94,0,0,1,0,.24,2.3,2.3,0,0,1,0,.26,1.6,1.6,0,0,1-.05.21,2.17,2.17,0,0,1-.07.24c0,.07-.06.14-.08.2l-.12.26a1.74,1.74,0,0,0-.11.18l-.2.28a2.47,2.47,0,0,1-.21.27l-.06.07c-.1.11-.22.22-.34.33l-.25.21-.23.18-.29.2c-.11.06-.2.13-.31.2s-.51.27-.78.39l-.23.1c-.21.09-.42.17-.64.24l-.24.08c-.13,0-.28.08-.42.12l-.32.09-.45.09-.31.07-.93.13-.29,0-.55,0H499.5l-.41,0-.38,0-.41,0-.37-.05L497.5,35l-.34-.07-.51-.12-.28-.07q-.45-.14-.87-.3l-.42-.18-.21-.09c-.2-.1-.41-.2-.6-.31a4.41,4.41,0,0,1-2.38-2.92,3.4,3.4,0,0,1,0-.45l-.07,19c0,1.22.8,2.45,2.41,3.38l.6.31.21.09.37.16.05,0a8.07,8.07,0,0,0,.87.29l.08,0,.2,0,.51.12.14,0,.2,0,.43.08.18,0,.19,0,.41.05.19,0H499l.41,0h1.18l.55,0h.29l.93-.13h.05l.26-.06.45-.09.32-.09.42-.12.09,0,.15,0c.22-.07.43-.16.64-.24l.23-.1q.4-.18.78-.39l.1-.06a1.53,1.53,0,0,1,.21-.14l.29-.2.23-.18.25-.21a.1.1,0,0,0,0,0,2.72,2.72,0,0,0,.29-.3l.06-.06.16-.18,0-.09.2-.28a.83.83,0,0,1,.08-.12l0-.06.12-.26.07-.15a.11.11,0,0,1,0,0,2.17,2.17,0,0,0,.07-.24c0-.06,0-.11,0-.17v0a2.3,2.3,0,0,0,0-.26,1,1,0,0,0,0-.17v-.07h0Z"/><path class="cls-10" d="M495.85,34.56l-.35-.12-.42-.18-.21-.09c-.2-.1-.41-.2-.6-.31a4.41,4.41,0,0,1-2.38-2.92,3.4,3.4,0,0,1,0-.45l-.07,19c0,1.22.8,2.45,2.41,3.38l.6.31.21.09.37.16.05,0,.36.12Z"/><ellipse class="cls-8" cx="500.03" cy="30.51" rx="8.18" ry="9.51" transform="translate(-0.3 5.37) rotate(-0.61)"/></g><path class="cls-13" d="M506.57,54c-.23.13-.46.25-.7.36l-.27.11c-.25.11-.49.2-.75.29l-.27.09-.49.14-.26.07V89l.18,0,.49-.14.1,0,.17-.06.75-.28.27-.12q.4-.18.78-.39Z"/><polygon class="cls-15" points="396.19 162.8 332.55 128.36 371.89 102.74 435.69 139.44 396.19 162.8"/><g class="cls-3"><g class="cls-16"><path class="cls-17" d="M428.82,161.61c10.27-5.78,11.56-14.62,3.14-21.51,4.38,3.12,6.32,7,5.78,10.83l-.15.85,0,.21-.23.85c-.14.38-.33.89-.49,1.26l-.42.86c-.24.41-.57.95-.83,1.34l-.65.87c-.41.47-1,1.08-1.41,1.52l-1,.86a22.12,22.12,0,0,1-2.69,1.91,1.44,1.44,0,0,1-1,.15"/></g></g><path class="cls-2" d="M437.5,152.09c-.81,2.95-3.13,5.79-7,8.1-10,6-26.62,6.2-37.06.37-4.35-2.42-6.94-5.5-7.77-8.7-.09-.35-.16-.71-.22-1.08a11.8,11.8,0,0,0,1.2,3.8,15.16,15.16,0,0,0,4,4.92,21.83,21.83,0,0,0,3.45,2.34,33.64,33.64,0,0,0,10.09,3.49,39.58,39.58,0,0,0,16.15-.27l1-.22a34,34,0,0,0,6.7-2.43c.53-.27,1.21-.65,1.72-.95h0a21.5,21.5,0,0,0,2.91-2.1,14.78,14.78,0,0,0,3.81-4.7,11.62,11.62,0,0,0,1.18-3.73A10.34,10.34,0,0,1,437.5,152.09Z"/><path class="cls-13" d="M386,55.27l.93-.53.2-.12.94-.49.15-.08.88-.43.17-.09,1-.44.22-.09c.33-.14.65-.28,1-.41l.05,0,1-.4.23-.08,1.06-.37.15-.05,1-.32.21-.06,1.09-.31.23-.07,1-.27.11,0,1.13-.26.26-.06,1.14-.24.12,0,1.08-.2.23,0,1.16-.19.23,0,1.08-.15.15,0,1.18-.13.27,0,1.19-.11h.09l1.14-.08.26,0,1.18-.05h.23l1.09,0h1.64l1.22,0h0l1.19,0,.27,0,1.18.07.21,0,1.08.09.2,0,1.18.13.26,0,1.16.15h0c.4,0,.79.12,1.18.18l.26,0,1.16.2.17,0,1,.21.22,0,1.12.26.24.06,1.07.28H427c1.14.31,2.26.66,3.35,1l.14.06.58.2.42.16.28.11.6.24.07,0a36.72,36.72,0,0,1,3.85,1.83l.34.18.05,0,.17.09a30.71,30.71,0,0,1,2.71,1.72l.07,0,.33.23.18.14.58.44.05,0,.5.4c.07.05.12.11.18.16l.36.3.2.18.31.29.2.19a4,4,0,0,1,.29.29l.19.18.29.31.16.17.34.38a.94.94,0,0,0,.1.1c.13.17.27.33.4.49l.1.13.29.36c0,.07.09.13.13.19l.23.31.13.2.21.31.13.2.19.32.11.19.2.35.09.16c.09.17.17.34.26.52v0l.22.49c0,.06.05.12.07.17s.1.24.14.35.05.14.08.2.08.22.11.33a1.72,1.72,0,0,1,.07.21,3,3,0,0,1,.1.32l.06.21.09.33c0,.07,0,.13,0,.19l.09.41a.5.5,0,0,1,0,.12,4.89,4.89,0,0,1,.09.53c0,.05,0,.09,0,.14s0,.26,0,.39,0,.13,0,.2,0,.22,0,.33a1.48,1.48,0,0,1,0,.21c0,.11,0,.22,0,.33v.21c0,.11,0,.22,0,.33a1.48,1.48,0,0,1,0,.21c0,.12,0,.24,0,.36s0,.11,0,.17a5.06,5.06,0,0,1-.06.53q-5.62,39.93-11.27,79.85c0-.12,0-.25.05-.37a.49.49,0,0,1,0-.12c0-.08,0-.16,0-.24a.76.76,0,0,0,0-.15v-.6a.71.71,0,0,0,0-.14c0-.08,0-.16,0-.24a.53.53,0,0,1,0-.13,2.51,2.51,0,0,0,0-.27.38.38,0,0,0,0-.1,2.25,2.25,0,0,0-.06-.36s0-.06,0-.09l-.06-.28a.93.93,0,0,0,0-.13,1,1,0,0,0-.06-.23.57.57,0,0,0,0-.14,2,2,0,0,0-.07-.23s0-.09,0-.14l-.08-.23a.69.69,0,0,1-.05-.13c0-.09-.07-.17-.1-.25l0-.11-.15-.34v0l-.18-.36-.06-.11-.14-.24-.08-.13a1.59,1.59,0,0,0-.13-.22l-.09-.14-.14-.21-.09-.14c-.06-.07-.11-.15-.16-.22l-.09-.13-.2-.25-.07-.09-.28-.33-.07-.08-.23-.26-.11-.12-.2-.21a.8.8,0,0,1-.13-.13l-.21-.2-.13-.13-.22-.2-.14-.12-.24-.21L432,142l-.34-.28,0,0-.4-.3-.13-.1-.27-.2c-.61-.42-1.23-.82-1.87-1.18l-.12-.07-.08,0a26.89,26.89,0,0,0-2.86-1.37h0l-.95-.37-.17-.06c-.28-.11-.57-.21-.86-.3l-.29-.1-.72-.22-.3-.08-.77-.22-.35-.08-.76-.19-.27-.06c-.34-.08-.68-.15-1-.21l-.22,0-.83-.15-.36-.06-.73-.1-.36,0-.82-.09-.26,0-1.07-.1h-.26l-.83,0-.37,0-.75,0h-1.45l-1.08,0-.28,0-.81,0-.37,0-.75.06-.35,0-.88.1-.19,0c-.36.05-.71.09-1.06.15l-.29,0-.77.13-.36.07-.72.14-.33.07-.89.2-.14,0-1,.26-.29.09-.71.21-.33.11-.67.22-.31.11-.86.32-.08,0-.92.39-.26.12-.64.29-.3.15-.6.31-.27.15c-.28.15-.55.31-.82.47-5.1,3.07-7.36,7.11-6.83,11.06q-5.4-40-10.81-79.92C375.31,65.57,378.59,59.71,386,55.27Z"/><path class="cls-18" d="M429,105l14.91-7.45q1.83-13,3.67-26a5.06,5.06,0,0,0,.06-.53c0-.06,0-.12,0-.17s0-.24,0-.36a1.48,1.48,0,0,0,0-.21c0-.11,0-.22,0-.33v-.21c0-.11,0-.22,0-.33a1.48,1.48,0,0,0,0-.21c0-.11,0-.22,0-.33s0-.13,0-.2,0-.26,0-.39,0-.09,0-.14a4.89,4.89,0,0,0-.09-.53.5.5,0,0,0,0-.12l-.09-.41c0-.06,0-.12,0-.19l-.09-.33-.06-.21a3,3,0,0,0-.1-.32,1.72,1.72,0,0,0-.07-.21c0-.11-.07-.22-.11-.33s-.05-.13-.08-.2-.09-.23-.14-.35,0-.11-.07-.17l-.22-.49v0c-.09-.18-.17-.35-.26-.52l-.09-.16-.2-.35-.11-.19-.19-.32-.13-.2-.21-.31-.13-.2-.23-.31c0-.06-.09-.12-.13-.19l-.29-.36-.1-.13c-.13-.16-.27-.32-.4-.49a.94.94,0,0,1-.1-.1l-.34-.38-.16-.17L443,59.5l-.19-.18a4,4,0,0,0-.29-.29l-.2-.19-.31-.29-.2-.18-.36-.3c-.06,0-.11-.11-.18-.16l-.5-.4s0,0-.05,0l-.58-.44-.18-.14-.33-.23-.07,0a30.71,30.71,0,0,0-2.71-1.72l-.17-.09-.05,0-.34-.18c-.21-.12-.43-.22-.65-.33l-1.13-1.9Z"/><path class="cls-13" d="M386.22,86.74c14.75,8.22,38.17,8,52.32-.53,6.13-3.69,9.51-8.33,10.18-13.06l-11,77.78c-.47,3.36-2.87,6.64-7.21,9.26-10,6-26.62,6.2-37.06.37a19.53,19.53,0,0,1-5.1-3.94l-.53-.61-.24-.32a11.43,11.43,0,0,1-.65-.95c-.13-.21-.26-.43-.37-.64s-.23-.44-.33-.66-.27-.65-.38-1a9.86,9.86,0,0,1-.39-1.67q-5.26-38.93-10.54-77.85C375.63,78,379.4,82.94,386.22,86.74Z"/><path class="cls-18" d="M399.43,163.06a30.27,30.27,0,0,1-6-2.5,19.53,19.53,0,0,1-5.1-3.94l-.53-.61-.24-.32a11.43,11.43,0,0,1-.65-.95c-.13-.21-.26-.43-.37-.64s-.23-.44-.33-.66-.27-.65-.38-1a9.86,9.86,0,0,1-.39-1.67q-5.26-38.93-10.54-77.85c.69,5.06,4.46,10,11.28,13.81A45.26,45.26,0,0,0,397,90.93Z"/><g class="cls-3"><g class="cls-19"><path class="cls-17" d="M440.42,87c-10.25,5.94-21.92,7.62-33.81,6.81a60,60,0,0,1-11.63-2,49.82,49.82,0,0,1-10.2-4c-11-5.76-18.07-17.53-8-28.63,15.89-16.82,59.47-16.73,72.7,3.68a15,15,0,0,1-1,17.06,23.89,23.89,0,0,1-4.45,4.59c-1,.79-2.44,1.75-3.52,2.46a.58.58,0,0,1-.65,0c14.87-9,14.36-23.22-1.14-31.86s-40.12-8.39-55,.56-14.36,23.21,1.14,31.85,40.12,8.4,55-.55a.52.52,0,0,0,.52,0"/><path class="cls-17" d="M440.12,87.05c21.65-13.54,10.24-32.51-13.94-37.95-30.58-6.89-62.46,11.88-50.92,30,9.08,14.25,42.17,20.67,64.86,8l-1.86,1.16c-.8.39-1.88.92-2.7,1.28l-2.48,1c-.85.28-2,.68-2.83.94l-2.74.75c-.87.2-2,.48-2.92.65l-2.91.5c-.9.11-2.09.28-3,.37l-3,.23c-.9,0-2.12.09-3,.09l-3,0c-.91,0-2.12-.1-3-.17l-3-.31c-.89-.13-2.08-.28-3-.44l-2.87-.56c-.86-.22-2-.48-2.89-.72L392.23,91c-.84-.31-2-.69-2.78-1l-2.38-1c-.8-.4-1.86-.92-2.64-1.35l-2-1.19c-.71-.49-1.65-1.13-2.33-1.64l-1.48-1.23c-.6-.56-1.39-1.32-1.95-1.91l-1-1.21c-.47-.64-1.07-1.51-1.49-2.18L373.54,77c-.32-.71-.7-1.67-1-2.4l-.3-1.16a13.53,13.53,0,0,1-.32-2.54V69.79l.09-1,.18-1.15A16.64,16.64,0,0,1,373,65.1l.52-1.19a18.37,18.37,0,0,1,1.37-2.34l.91-1.23c.56-.64,1.32-1.48,1.91-2.09L379.1,57A33.67,33.67,0,0,1,383.26,54l2.11-1.18c.82-.4,1.91-.94,2.74-1.31l2.46-1c.86-.29,2-.69,2.86-1l2.72-.75c.88-.19,2.05-.47,2.94-.65l2.9-.49c.9-.11,2.1-.28,3-.37l3-.23c.9,0,2.12-.09,3-.1l3,0c.91.05,2.12.09,3,.17l3,.3c.9.13,2.09.29,3,.44l2.85.56c.88.22,2,.49,2.91.72l2.64.81c.84.3,2,.69,2.8,1l2.34,1c.81.4,1.89.93,2.68,1.37l1.95,1.16c.72.49,1.68,1.14,2.38,1.67L445,57.47c.6.58,1.41,1.35,2,2l1,1.17c.47.65,1.09,1.53,1.52,2.22l.61,1.14a14.41,14.41,0,0,1,1,2.43l.3,1.13c.08.44.19,1,.24,1.47l.08,1.16a13.23,13.23,0,0,1-.15,2.56l-.23,1.18a15.85,15.85,0,0,1-.81,2.48l-.58,1.23c-.41.69-1,1.61-1.42,2.28l-1,1.27c-.56.62-1.33,1.43-1.93,2l-1.51,1.3A31.88,31.88,0,0,1,440.42,87a.42.42,0,0,1-.3,0"/></g></g><path class="cls-18" d="M386.22,86.74c14.75,8.22,38.17,8,52.32-.53,6.13-3.69,9.51-8.33,10.18-13.06-.47,3.36-1,6.73-1.42,10.1a26.78,26.78,0,0,1-7.42,6.35c-14.86,8.94-39.45,9.19-54.93.56A27.73,27.73,0,0,1,376.31,83c-.46-3.36-.91-6.72-1.37-10.08C375.63,78,379.4,82.94,386.22,86.74Z"/><path class="cls-18" d="M372.06,72.11l0,.13a8.68,8.68,0,0,0,.17,1l0,.17c.06.29.11.5.19.79a15.32,15.32,0,0,0,1.25,3.15c0,.09.09.18.13.26l.06.12c1.89,3.48,5.18,6.75,9.92,9.47l.6.34c.71.39,1.45.77,2.21,1.14l.06,0,0,0c.9.44,1.81.85,2.71,1.19l2.58,1c.77.24,1.77.56,2.6.8l.06,0,.1,0,.1,0,.07,0q1.32.36,2.67.66l.06,0h.06c1.07.24,2.13.45,3.21.63a63.71,63.71,0,0,0,26.17-.86l.21,0,.06,0h0c1.14-.27,2.18-.55,2.83-.78h0l2.59-.86c.82-.32,1.92-.73,2.72-1.08l.15-.07c.73-.31,1.45-.64,2.14-1s1.8-1,2.56-1.41h0a30.34,30.34,0,0,0,4.58-3.3h0a23.47,23.47,0,0,0,3.18-3.4l.33-.42.79-1.19.15-.27A15.32,15.32,0,0,0,451.3,74c0-.07,0-.14.05-.22s.09-.36.12-.55.07-.38.09-.55h0l.13-1.15v-.31c0-.22,0-.44,0-.66a12.52,12.52,0,0,0-.06-1.38,16.87,16.87,0,0,0-4.82-10c-.33-.36-.68-.72-1-1.06h0l0,0a26.19,26.19,0,0,0-2-1.72l-.16-.13h0l-.25-.18c-.47-.36-1-.71-1.47-1.06a42,42,0,0,0-9.47-4.68l-.5-.17-.35-.12c-.75-.25-1.5-.49-2.27-.71h0l-1.13-.31-.25-.06-.93-.23-.59-.14-.25-.06-.11,0-.15,0-.51-.11a67.08,67.08,0,0,0-23.69-.66c-1.35.19-2.72.45-4.09.77s-2.7.65-4,1l-.12,0-.09,0c-.75.23-1.5.48-2.23.74l-.23.08h0c-.06,0-.78.26-1.92.73a34.38,34.38,0,0,0-10.82,6.62l-.22.21-.09.08a22.57,22.57,0,0,0-3,3.49,17.75,17.75,0,0,0-1.49,2.61,9.52,9.52,0,0,0-.39.91l-.39,1.13c-.06.22-.11.41-.15.58s-.1.38-.15.56-.06.27-.08.42a9.67,9.67,0,0,0-.15,1v0a9.76,9.76,0,0,0-.09,1.12h0v1Zm67.82,13.23c-14.86,8.94-39.45,9.19-54.93.55S369,63,383.81,54.07s39.45-9.19,54.93-.55S454.73,76.4,439.88,85.34ZM386.09,52.49l-.45.23.24-.13Z"/><path class="cls-13" d="M385,85.89c15.48,8.64,40.07,8.39,54.93-.55s14.34-23.19-1.14-31.82-40.08-8.39-54.93.55S369.46,77.26,385,85.89Zm1-30.62c13.71-8.25,36.42-8.48,50.71-.51s14.77,21.12,1.06,29.38-36.42,8.48-50.72.51S372.25,63.53,386,55.27Z"/><path class="cls-18" d="M380.61,104.31A20.41,20.41,0,0,0,383.9,108a27.55,27.55,0,0,0,4,2.86l.53.32.55.28,1.1.56c.36.19.72.39,1.1.56l1.14.47a42.54,42.54,0,0,0,9.45,2.77,53.67,53.67,0,0,0,9.8.92,52.39,52.39,0,0,0,19.31-3.44l2.25-1a11.36,11.36,0,0,0,1.1-.56l1.08-.6a26,26,0,0,0,4.06-2.78,16.44,16.44,0,0,0,5.5-8,16.63,16.63,0,0,1-5.67,7.8,25.1,25.1,0,0,1-4.07,2.68l-1.07.58a11.2,11.2,0,0,1-1.1.54l-2.24,1a51.08,51.08,0,0,1-9.41,2.53l-2.42.37-2.43.22c-.81.1-1.63.1-2.44.13s-1.63.08-2.44,0a54.55,54.55,0,0,1-9.72-.86c-.8-.16-1.61-.28-2.4-.48l-2.37-.6a46.44,46.44,0,0,1-4.61-1.59l-1.13-.45c-.38-.16-.74-.36-1.1-.53l-1.1-.54-.54-.27-.53-.31a27.78,27.78,0,0,1-4-2.76,20.06,20.06,0,0,1-3.34-3.55,15.25,15.25,0,0,1-1.26-2.09,13.42,13.42,0,0,1-.88-2.28,14.79,14.79,0,0,0,.8,2.32A16.17,16.17,0,0,0,380.61,104.31Z"/><path class="cls-18" d="M438.67,112.51a24.92,24.92,0,0,1-4,2.63l-1.06.57a10.64,10.64,0,0,1-1.07.53l-2.2,1a50.94,50.94,0,0,1-9.23,2.48l-2.37.36-2.39.22c-.79.09-1.59.09-2.39.13s-1.59.07-2.39,0a53.35,53.35,0,0,1-9.53-.84c-.78-.16-1.58-.28-2.35-.47l-2.32-.59a44.65,44.65,0,0,1-4.52-1.56l-1.12-.44c-.36-.16-.71-.35-1.07-.52l-1.08-.53-.53-.27-.52-.29a28.15,28.15,0,0,1-3.94-2.72,18.88,18.88,0,0,1-3.27-3.47,15.31,15.31,0,0,1-1.24-2,13.85,13.85,0,0,1-.87-2.24,14.3,14.3,0,0,0,.79,2.28,15.48,15.48,0,0,0,1.2,2.09,19,19,0,0,0,3.22,3.6,25.56,25.56,0,0,0,3,2.25c.36.23.72.44,1.08.65l.55.32.53.27.65.34.41.2c.25.13.59.31.85.43l.21.1,1.1.46a42.55,42.55,0,0,0,9.12,2.65,54.41,54.41,0,0,0,9.62.91,51.43,51.43,0,0,0,18.93-3.39l2.2-1a10,10,0,0,0,1.08-.56l1.06-.58a25.83,25.83,0,0,0,4-2.73,16.18,16.18,0,0,0,5.38-7.85A16.26,16.26,0,0,1,438.67,112.51Z"/><path class="cls-18" d="M438.14,116.92a24.7,24.7,0,0,1-3.91,2.58l-1,.55a7.88,7.88,0,0,1-1.05.52l-2.15.93a49,49,0,0,1-9.05,2.44l-2.32.35-2.34.21c-.78.09-1.56.1-2.34.13s-1.57.07-2.35,0a52.22,52.22,0,0,1-9.34-.82c-.76-.16-1.54-.27-2.3-.46l-2.27-.58a46.46,46.46,0,0,1-4.44-1.52l-1.09-.44c-.36-.15-.7-.34-1-.51l-1.05-.52-.53-.26-.51-.29a27.56,27.56,0,0,1-3.86-2.66,19.17,19.17,0,0,1-3.21-3.4,15.75,15.75,0,0,1-1.21-2,12.9,12.9,0,0,1-.85-2.19,13.67,13.67,0,0,0,.77,2.23,16,16,0,0,0,1.17,2,19.28,19.28,0,0,0,3.16,3.53,25.94,25.94,0,0,0,3.11,2.29c.36.23.73.45,1.1.66l.56.31.51.27.64.32.39.19.82.4.21.1,1.05.44a41.5,41.5,0,0,0,8.79,2.54,53.3,53.3,0,0,0,9.43.89,50.53,50.53,0,0,0,18.56-3.32l2.16-1a10.4,10.4,0,0,0,1.05-.54l1-.57a24.83,24.83,0,0,0,3.91-2.68,15.9,15.9,0,0,0,5.28-7.7A16.07,16.07,0,0,1,438.14,116.92Z"/><path class="cls-18" d="M437.6,121.33a23.72,23.72,0,0,1-3.83,2.53l-1,.54a10.94,10.94,0,0,1-1,.51l-2.11.91a48.63,48.63,0,0,1-8.87,2.39l-2.27.34-2.29.21c-.76.09-1.53.09-2.3.12s-1.53.07-2.3,0a51.86,51.86,0,0,1-9.14-.82c-.76-.15-1.52-.26-2.26-.44l-2.23-.57a44.42,44.42,0,0,1-4.34-1.49l-1.07-.43c-.35-.15-.69-.33-1-.5l-1-.5-.52-.26-.5-.29a26.4,26.4,0,0,1-3.78-2.6,18.7,18.7,0,0,1-3.14-3.33,13.57,13.57,0,0,1-1.19-2,12.42,12.42,0,0,1-.83-2.15,13.16,13.16,0,0,0,.75,2.19,14.29,14.29,0,0,0,1.15,2,18.81,18.81,0,0,0,3.09,3.46,24.18,24.18,0,0,0,3.18,2.32c.37.24.75.46,1.13.67l.58.32.49.25.62.31.37.18.79.38.2.09,1,.42a40.55,40.55,0,0,0,8.46,2.43,51.89,51.89,0,0,0,9.23.87,49.48,49.48,0,0,0,18.18-3.25l2.12-1a10.16,10.16,0,0,0,1-.53l1-.56a23.86,23.86,0,0,0,3.83-2.63,15.48,15.48,0,0,0,5.17-7.54A15.6,15.6,0,0,1,437.6,121.33Z"/><path class="cls-18" d="M437.06,125.75a23.36,23.36,0,0,1-3.75,2.47l-1,.53a9.48,9.48,0,0,1-1,.5l-2.07.89a47.45,47.45,0,0,1-8.67,2.33l-2.23.34-2.24.2c-.75.09-1.5.09-2.25.12s-1.5.07-2.25,0a49.76,49.76,0,0,1-9-.8c-.74-.15-1.48-.25-2.21-.43l-2.18-.56a41.75,41.75,0,0,1-4.25-1.46L393,129.5c-.34-.14-.67-.32-1-.49l-1-.49-.5-.25-.49-.28a25.57,25.57,0,0,1-3.7-2.55,18,18,0,0,1-3.09-3.26,15.54,15.54,0,0,1-1.16-1.92,13.17,13.17,0,0,1-.82-2.11,12.6,12.6,0,0,0,.74,2.14,14.25,14.25,0,0,0,1.12,2,18.76,18.76,0,0,0,3,3.39,25.17,25.17,0,0,0,3.25,2.36c.38.24.77.46,1.16.67l.59.32.48.25.59.29.36.17.76.35.19.09,1,.4a39.72,39.72,0,0,0,8.13,2.32,50.78,50.78,0,0,0,9,.85,48.35,48.35,0,0,0,17.81-3.19l2.08-.93c.35-.15.68-.34,1-.52l1-.56a22.84,22.84,0,0,0,3.75-2.57,15.12,15.12,0,0,0,5.06-7.38A15.37,15.37,0,0,1,437.06,125.75Z"/><path class="cls-18" d="M436.52,130.16a23.05,23.05,0,0,1-3.67,2.42l-1,.52a8.23,8.23,0,0,1-1,.48l-2,.88a47.09,47.09,0,0,1-8.49,2.28l-2.18.33-2.2.2c-.73.08-1.46.08-2.2.12s-1.46.06-2.2,0a48.72,48.72,0,0,1-8.77-.78c-.72-.14-1.45-.25-2.16-.43l-2.13-.54a43.61,43.61,0,0,1-4.17-1.43l-1-.41c-.34-.14-.66-.32-1-.47s-.76-.38-1-.49l-.49-.25c-.11-.05-.37-.2-.48-.27a25,25,0,0,1-3.62-2.49,17.9,17.9,0,0,1-3-3.19,14.48,14.48,0,0,1-1.14-1.88,11.52,11.52,0,0,1-.8-2.07,12.11,12.11,0,0,0,.72,2.1,13.69,13.69,0,0,0,1.1,1.93,17.9,17.9,0,0,0,3,3.31,25.06,25.06,0,0,0,3.32,2.41c.39.24.79.46,1.2.67l.6.32.46.24c.12.06.44.23.57.28l.34.16.73.33.19.08.94.39a39.08,39.08,0,0,0,7.79,2.2,49.68,49.68,0,0,0,8.86.83A47.16,47.16,0,0,0,429,134.85l2-.92a7.72,7.72,0,0,0,1-.51l1-.54a23.36,23.36,0,0,0,3.67-2.51,15,15,0,0,0,4.95-7.24A15.08,15.08,0,0,1,436.52,130.16Z"/><path class="cls-18" d="M436,134.57a22.6,22.6,0,0,1-3.6,2.37l-.95.5a8.59,8.59,0,0,1-1,.48l-2,.85a46,46,0,0,1-8.31,2.24l-2.13.32-2.15.19c-.71.09-1.43.09-2.15.12s-1.44.06-2.16,0a47.41,47.41,0,0,1-8.57-.76c-.71-.14-1.42-.24-2.12-.42l-2.09-.53a41.57,41.57,0,0,1-4.07-1.4l-1-.39-1-.47-1-.48-.48-.24-.47-.26a24.71,24.71,0,0,1-3.54-2.44,17.44,17.44,0,0,1-2.95-3.12,13.28,13.28,0,0,1-1.12-1.84,12.09,12.09,0,0,1-.79-2,11.3,11.3,0,0,0,.71,2,13,13,0,0,0,1.07,1.88,17.61,17.61,0,0,0,2.9,3.25,24,24,0,0,0,3.4,2.44,13.13,13.13,0,0,0,1.22.68l.61.32.45.23a4.68,4.68,0,0,0,.55.27l.33.15.69.3.18.08.9.37a38.72,38.72,0,0,0,7.47,2.09,49.22,49.22,0,0,0,8.66.81,46.06,46.06,0,0,0,17.06-3.05l2-.9a8.74,8.74,0,0,0,1-.5l1-.53a23,23,0,0,0,3.59-2.46A14.56,14.56,0,0,0,441,127.7,14.69,14.69,0,0,1,436,134.57Z"/><path class="cls-18" d="M435.45,139a22.68,22.68,0,0,1-3.51,2.32l-.93.49a8.38,8.38,0,0,1-.95.47l-1.93.83a44,44,0,0,1-8.13,2.18l-2.08.31-2.1.2c-.7.08-1.4.08-2.11.11s-1.4.06-2.1,0a46.24,46.24,0,0,1-8.39-.74c-.69-.14-1.39-.24-2.07-.41l-2-.52c-1.34-.42-2.69-.81-4-1.36l-1-.39c-.33-.14-.63-.31-.95-.46-.62-.32-1.28-.59-1.88-1a25.58,25.58,0,0,1-3.46-2.38,14.08,14.08,0,0,1-4.75-6.83,14,14,0,0,0,4.57,7,24.89,24.89,0,0,0,3.47,2.48c.6.38,1.25.67,1.88,1,.32.16.63.33,1,.48l1,.41a37.56,37.56,0,0,0,8.17,2.4,48.11,48.11,0,0,0,8.47.8,45.31,45.31,0,0,0,16.69-3l1.94-.88a10.64,10.64,0,0,0,.95-.49l.93-.52a21.62,21.62,0,0,0,3.51-2.41,14.25,14.25,0,0,0,4.74-6.92A14.37,14.37,0,0,1,435.45,139Z"/><path class="cls-2" d="M392.87,117l-1.12-.44c-.36-.16-.71-.35-1.07-.52l-1.08-.53-.53-.27-.52-.29a28.15,28.15,0,0,1-3.94-2.72,18.88,18.88,0,0,1-3.27-3.47,15.31,15.31,0,0,1-1.24-2,13.85,13.85,0,0,1-.87-2.24,14.3,14.3,0,0,0,.79,2.28,15.48,15.48,0,0,0,1.2,2.09,19,19,0,0,0,3.22,3.6,25.56,25.56,0,0,0,3,2.25c.36.23.72.44,1.08.65l.55.32.53.27.65.34.41.2c.25.13.59.31.85.43l.21.1,1.1.46a40,40,0,0,0,5.11,1.75l0-.51-.55-.14A44.65,44.65,0,0,1,392.87,117Z"/><path class="cls-2" d="M381.82,113.28a19.28,19.28,0,0,0,3.16,3.53,25.94,25.94,0,0,0,3.11,2.29c.36.23.73.45,1.1.66l.56.31.51.27.64.32.39.19.82.4.21.1,1.05.44a39.36,39.36,0,0,0,4.73,1.62l0-.51-.4-.1a46.46,46.46,0,0,1-4.44-1.52l-1.09-.44c-.36-.15-.7-.34-1-.51l-1.05-.52-.53-.26-.51-.29a27.56,27.56,0,0,1-3.86-2.66,19.17,19.17,0,0,1-3.21-3.4,15.75,15.75,0,0,1-1.21-2,12.9,12.9,0,0,1-.85-2.19,13.67,13.67,0,0,0,.77,2.23A16,16,0,0,0,381.82,113.28Z"/><path class="cls-2" d="M378.59,99.85h0a14.79,14.79,0,0,0,.8,2.32,16.17,16.17,0,0,0,1.22,2.14A20.41,20.41,0,0,0,383.9,108a27.55,27.55,0,0,0,4,2.86l.53.32.55.28,1.1.56c.36.19.72.39,1.1.56l1.14.47a40.76,40.76,0,0,0,5.48,1.89v-.51l-.7-.18a46.44,46.44,0,0,1-4.61-1.59l-1.13-.45c-.38-.16-.74-.36-1.1-.53l-1.1-.54-.54-.27-.53-.31a27.78,27.78,0,0,1-4-2.76,20.06,20.06,0,0,1-3.34-3.55,15.25,15.25,0,0,1-1.26-2.09A13.42,13.42,0,0,1,378.59,99.85Z"/><path class="cls-2" d="M398.8,144.16a38.77,38.77,0,0,1-3.67-1.27l-1-.39c-.33-.14-.63-.31-.95-.46-.62-.32-1.28-.59-1.88-1a25.58,25.58,0,0,1-3.46-2.38,14.08,14.08,0,0,1-4.75-6.83,14,14,0,0,0,4.57,7,24.89,24.89,0,0,0,3.47,2.48c.6.38,1.25.67,1.88,1,.32.16.63.33,1,.48l1,.41a35.3,35.3,0,0,0,3.85,1.38Z"/><path class="cls-2" d="M383.64,126.75a17.9,17.9,0,0,0,3,3.31,25.06,25.06,0,0,0,3.32,2.41c.39.24.79.46,1.2.67l.6.32.46.24c.12.06.44.23.57.28l.34.16.73.33.19.08.94.39a36.78,36.78,0,0,0,3.58,1.22l0-.49a43,43,0,0,1-4.14-1.43l-1-.41c-.34-.14-.66-.32-1-.47s-.76-.38-1-.49l-.49-.25c-.11-.05-.37-.2-.48-.27a25,25,0,0,1-3.62-2.49,17.9,17.9,0,0,1-3-3.19,14.48,14.48,0,0,1-1.14-1.88,11.52,11.52,0,0,1-.8-2.07,12.11,12.11,0,0,0,.72,2.1A13.69,13.69,0,0,0,383.64,126.75Z"/><path class="cls-2" d="M384.24,131.23a17.61,17.61,0,0,0,2.9,3.25,24,24,0,0,0,3.4,2.44,13.13,13.13,0,0,0,1.22.68l.61.32.45.23a4.68,4.68,0,0,0,.55.27l.33.15.69.3.18.08.9.37c1,.41,2.12.77,3.2,1.08l0-.49a39.08,39.08,0,0,1-3.9-1.35l-1-.39-1-.47-1-.48-.48-.24-.47-.26a24.71,24.71,0,0,1-3.54-2.44,17.44,17.44,0,0,1-2.95-3.12,13.28,13.28,0,0,1-1.12-1.84,12.09,12.09,0,0,1-.79-2,11.3,11.3,0,0,0,.71,2A13,13,0,0,0,384.24,131.23Z"/><path class="cls-2" d="M383,122.26a18.76,18.76,0,0,0,3,3.39,25.17,25.17,0,0,0,3.25,2.36c.38.24.77.46,1.16.67l.59.32.48.25.59.29.36.17.76.35.19.09,1,.4a37.76,37.76,0,0,0,4,1.36v-.5l-.12,0a41.75,41.75,0,0,1-4.25-1.46L393,129.5c-.34-.14-.67-.32-1-.49l-1-.49-.5-.25-.49-.28a25.57,25.57,0,0,1-3.7-2.55,18,18,0,0,1-3.09-3.26,15.54,15.54,0,0,1-1.16-1.92,13.17,13.17,0,0,1-.82-2.11,12.6,12.6,0,0,0,.74,2.14A14.25,14.25,0,0,0,383,122.26Z"/><path class="cls-2" d="M382.43,117.77a18.81,18.81,0,0,0,3.09,3.46,24.18,24.18,0,0,0,3.18,2.32c.37.24.75.46,1.13.67l.58.32.49.25.62.31.37.18.79.38.2.09,1,.42a37,37,0,0,0,4.34,1.49l0-.5-.26-.07a44.42,44.42,0,0,1-4.34-1.49l-1.07-.43c-.35-.15-.69-.33-1-.5l-1-.5-.52-.26-.5-.29a26.4,26.4,0,0,1-3.78-2.6,18.7,18.7,0,0,1-3.14-3.33,13.57,13.57,0,0,1-1.19-2,12.42,12.42,0,0,1-.83-2.15,13.16,13.16,0,0,0,.75,2.19A14.29,14.29,0,0,0,382.43,117.77Z"/><polygon class="cls-20" points="485.87 182.85 417.91 146.07 459.92 118.72 528.05 157.9 485.87 182.85"/><g class="cls-3"><path class="cls-21" d="M543.57,153q-2,8.68-4,17.35c1.22-5.26-1.57-10.77-8.4-14.89-11.92-7.17-31.65-7.37-44.08-.44-7.48,4.17-10.61,10-9.3,15.51h0q-2-8.66-4.1-17.32c-1.49-6.26,2.05-12.84,10.52-17.56,14.05-7.84,36.38-7.61,49.86.5C541.8,140.84,544.94,147.08,543.57,153Z"/><path class="cls-21" d="M529.65,182c-.5.28-1.19.64-1.71.89s-1.52.72-2.19,1c-1.18.44-2.77,1-4,1.34-.69.22-1.64.43-2.34.6-2.16.49-4.49.78-4.51.78-.69.07-1.6.19-2.29.23s-1.6.11-2.29.13-1.61,0-2.3,0c-1.37,0-3.2-.15-4.57-.25-.68-.05-1.57-.19-2.25-.28a44.29,44.29,0,0,1-4.38-.85c-.66-.17-1.55-.39-2.2-.6-1.17-.38-2.71-.93-3.85-1.39-.6-.24-1.39-.62-2-.91s-1.46-.78-2.07-1.14a1.57,1.57,0,0,0,1.59-.13c10.76,6.49,28.6,6.67,39.82.41s11.6-16.59.83-23.07-28.6-6.66-39.83-.41-11.59,16.59-.82,23.07a1.57,1.57,0,0,1-1.59.13,31.76,31.76,0,0,1-2.65-1.81c-.35-.29-.83-.66-1.16-1a22,22,0,0,1-1.8-1.81c-.23-.29-.55-.66-.77-1a16,16,0,0,1-1.08-1.64c-.24-.43-.56-1-.75-1.46-.11-.28-.26-.64-.36-.92s-.3-.95-.4-1.36c-1.32-5.54,1.8-11.36,9.29-15.53,12.43-6.93,32.16-6.73,44.08.44,6.84,4.12,9.62,9.64,8.4,14.91-.16.56-.38,1.31-.58,1.86a13.25,13.25,0,0,1-.63,1.38c-.24.44-.57,1-.85,1.44-.42.6-1,1.37-1.49,1.93a22.86,22.86,0,0,1-1.71,1.7,13.93,13.93,0,0,1-1.18,1A26.79,26.79,0,0,1,529.65,182Z"/><path class="cls-22" d="M486,182.83c-.45-.29-1.05-.64-1.48-1-.8-.59-1.85-1.4-2.61-2a20.8,20.8,0,0,1-2.25-2.34c-.43-.53-.95-1.29-1.33-1.86a9.55,9.55,0,0,1-.6-1A16.09,16.09,0,0,1,477,173c-.23-.6-.47-1.43-.65-2.05.91,3.82,3.83,7.5,8.79,10.49A2,2,0,0,0,486,182.83Z"/><ellipse class="cls-13" cx="508.67" cy="170.06" rx="28.17" ry="16.32" transform="translate(-0.48 1.44) rotate(-0.16)"/><path class="cls-22" d="M530.39,183.3a29.84,29.84,0,0,0,3.62-2.36c.39-.31.91-.72,1.27-1.06a24,24,0,0,0,1.89-1.88c.41-.49,1-1.15,1.32-1.67a22.28,22.28,0,0,0,1.26-2.09,12.08,12.08,0,0,0,.64-1.42c.23-.61.48-1.45.65-2.09-.95,4.1-4.21,8.05-9.76,11.15-13,7.25-33.7,7.05-46.19-.47a2,2,0,0,0,.89,1.42c.64.37,1.51.85,2.17,1.19s1.42.7,2.06.95c1.18.48,2.79,1.05,4,1.45.67.22,1.59.45,2.28.62,1.94.5,4.28.85,4.52.88.7.09,1.62.23,2.32.28,1.41.11,3.29.25,4.7.26.71,0,1.66,0,2.37,0s1.65-.09,2.36-.13,1.65-.17,2.36-.24,2.78-.38,4.65-.81c.73-.17,1.71-.39,2.43-.61,1.24-.38,2.89-.94,4.11-1.4.71-.26,1.61-.68,2.29-1S529.86,183.59,530.39,183.3Z"/><path class="cls-22" d="M476.3,170.91l-3.87-16.33c1,4.27,4.28,8.4,9.83,11.74l2.83,15.09C480.13,178.42,477.21,174.73,476.3,170.91Z"/><path class="cls-21" d="M544.82,154.37,541,170.73c-.95,4.1-4.21,8.05-9.76,11.15-13,7.25-33.7,7.05-46.19-.47l-2.83-15.09c14,8.4,37.09,8.64,51.65.52C540.12,163.38,543.76,159,544.82,154.37Z"/><path class="cls-22" d="M469.24,151.73v-1.24c0,5.67,3.66,11.33,11,15.73v1.24C472.89,163.06,469.25,157.4,469.24,151.73Z"/><path class="cls-22" d="M548,150.26v1.24c0,6-4,12-12.12,16.53-15.69,8.75-40.62,8.5-55.68-.57v-1.24c15.05,9.06,40,9.32,55.68.56C544,162.28,548,156.27,548,150.26Z"/><path class="cls-13" d="M480.2,166.22c-15.06-9.06-14.54-23.5,1.15-32.25s40.63-8.5,55.68.56,14.54,23.5-1.15,32.25S495.25,175.28,480.2,166.22Zm3-1.65c13.48,8.11,35.81,8.34,49.86.5s14.52-20.77,1-28.89-35.81-8.34-49.86-.5-14.52,20.77-1,28.89"/></g><polygon class="cls-23" points="378.82 233.48 302.33 192.08 367.47 157.17 450.28 198.07 378.82 233.48"/><path class="cls-24" d="M470.62,182.61a24.78,24.78,0,0,0-3.65-4.16c-.94-.84-2.29-1.86-3.3-2.61-.54-.39-1.32-.84-1.88-1.21h0c-9.59-5.68-20.35-7-27.69-7a64,64,0,0,0-14.79,1.52A49.8,49.8,0,0,0,406,174a36.62,36.62,0,0,0-5.32,3.61,25.63,25.63,0,0,0-4.64,5,19.28,19.28,0,0,0-2.64,5.38,14.64,14.64,0,0,0-.52,2.27,25.45,25.45,0,0,0-.2,2.62c0,5.85,3.77,11.69,11.3,16.22,15.53,9.35,41.24,9.61,57.43.59,8.33-4.65,12.51-10.85,12.5-17.05A17.48,17.48,0,0,0,470.62,182.61Zm-12,22.18c-14.59,8.13-37.77,7.9-51.77-.53-6.79-4.09-10.18-9.35-10.19-14.62,0-5.59,3.75-11.18,11.26-15.36,14.6-8.14,37.77-7.91,51.77.52,6.8,4.09,10.18,9.36,10.2,14.62C469.92,195,466.15,200.6,458.64,204.79Z"/><path class="cls-13" d="M465.9,203.05c-.33,1.36-5.87,6.83-16.35,9.59-10.7,2.81-20.76,1.09-21.35.33a.3.3,0,0,1,0-.3c.16-.23,1.48-.29,3.87-.39A83.81,83.81,0,0,0,448.71,210a55,55,0,0,0,14.82-6.15c1.33-.83,2.13-1.33,2.33-1.2s.08.31,0,.44"/><path class="cls-24" d="M459.71,174.8c-14-8.43-37.17-8.66-51.77-.52-7.51,4.18-11.28,9.77-11.26,15.36,0,5.27,3.4,10.53,10.19,14.62,14,8.43,37.18,8.66,51.77.53l.17-.1a23.67,23.67,0,0,0,7.36-5.87,14.48,14.48,0,0,0,3.74-9.4C469.89,184.16,466.51,178.89,459.71,174.8Zm-.7.21a.34.34,0,0,1-.1,0h0A.34.34,0,0,0,459,175Zm-.11,0h0Zm-.27-.06h0l-.11,0Zm8.95,13.13a1.09,1.09,0,0,1,0,.18c0,.11,0,.23,0,.35s0,.14,0,.21,0,.22,0,.33l0,.21-.06.32a1.55,1.55,0,0,1,0,.21c0,.11,0,.22-.07.33s0,.13,0,.2-.07.25-.1.37,0,.11,0,.16-.1.35-.16.52a.36.36,0,0,1,0,.09l-.15.43-.08.18c0,.11-.09.23-.14.34l-.09.2-.15.32-.1.21-.17.31a2,2,0,0,1-.11.2c-.06.11-.12.22-.19.33a1.74,1.74,0,0,1-.11.18l-.24.39,0,0c-.34.51-.73,1-1.18,1.59A25.21,25.21,0,0,1,457,202a46.24,46.24,0,0,1-16.66,5.13l-.7.09-.31,0-.75.07-.22,0-1,.08-.23,0-.75,0-.31,0-.72,0h-.27l-1,0h-2.28l-.92,0h-.05l-1,0-.28,0-.71,0-.3,0-.79-.06-.18,0-1-.1-.25,0-.71-.08-.16,0-.88-.12-.21,0-1-.17-.11,0-.26,0-.73-.13h-.06l-.39-.08-.68-.14-.44-.1-.66-.15-.44-.1-.65-.17-.42-.11-.67-.19-.39-.11-.77-.24-.23-.07-.13,0-.82-.28-.21-.07-.13,0-.78-.28-.36-.14-.63-.25-.39-.16-.58-.25-.4-.17-.56-.27-.38-.18-.57-.28-.36-.18-.6-.33-.21-.11-.14-.08-.82-.47c-6.37-3.84-9.54-8.77-9.55-13.71v-.17a2.26,2.26,0,0,0,0-.27c0-.27,0-.58.09-.94,0-.18.06-.37.1-.61s.07-.35.11-.52l.14-.5a8.12,8.12,0,0,1,.28-.83c.09-.22.21-.5.43-1l0-.06.45-.82c.33-.54.81-1.22,1.18-1.73l.76-.9.08-.08c.39-.41.9-.9,1.33-1.32l.58-.5.85-.7c.58-.44,1.39-1,2-1.4h0l1.5-.9.31-.18c.66-.35,1.51-.77,2.16-1.09l.45-.2c.84-.36,1.79-.76,2.7-1.1a60,60,0,0,1,28.16-2.47l1.75.3,1.39.29.62.14c.61.14,1.21.29,1.8.46l.31.08a44.91,44.91,0,0,1,8,3.06l2,1.09c.59.37,1.34.87,2,1.3.43.32.88.67,1.6,1.24l.44.4c.32.29.66.61,1,.92s.8.88,1.16,1.3.64.86.9,1.22.55.92.78,1.34a2.4,2.4,0,0,1,.11.23l0,0,.22.49c.1.25.2.51.29.78s.11.3.15.45v.06c0,.16.09.3.12.44l.14.63c.05.25.09.58.12.86s0,.59.06.95v0C467.6,187.73,467.59,187.91,467.58,188.08Zm0-.53Zm.67,1.32Z"/><path class="cls-13" d="M455.81,175.27c11.94,7.19,11.53,18.64-.91,25.57s-32.2,6.74-44.14-.44-11.53-18.64.92-25.57S443.88,168.09,455.81,175.27Zm-22.48,12.54a.07.07,0,0,0-.09,0,0,0,0,0,0,0,.05.07.07,0,0,0,.09,0s0,0,0-.05"/><path class="cls-25" d="M435.6,179.48s0,0,0,0a0,0,0,0,0-.05,0s0,0,0,0A0,0,0,0,0,435.6,179.48Z"/><path class="cls-21" d="M424.52,185.64c-4.59-2.76-5.47-6.8-2.71-10.06l-.55.27c-6.11,3.41-6.31,9-.44,12.57s15.57,3.62,21.68.21a11.41,11.41,0,0,0,3.15-2.49C439.52,189.25,430.21,189.07,424.52,185.64Z"/><path class="cls-25" d="M433.86,181.56s0,0,0,0,0,0,0,0h0Z"/><path class="cls-21" d="M440.17,178.06c2.61,1.57,3.11,3.87,1.54,5.72l.31-.16c3.48-1.94,3.59-5.13.25-7.14a13.57,13.57,0,0,0-12.33-.13,6.54,6.54,0,0,0-1.8,1.42A13.66,13.66,0,0,1,440.17,178.06Z"/><path class="cls-26" d="M423.91,182.51s0,0,0,.05a.07.07,0,0,0,.09,0s0,0,0-.05Z"/><path class="cls-21" d="M455.81,175.27a33.52,33.52,0,0,0-5.79-2.73c8.15,7.13,6.6,16.84-4.45,23-10.6,5.91-26.49,6.64-38.35,2.3a25.6,25.6,0,0,0,3.54,2.56c11.94,7.18,31.7,7.38,44.14.44S467.75,182.46,455.81,175.27Z"/><path class="cls-22" d="M464.55,195.79l.21-.28.15-.2.21-.3.13-.18.22-.35.09-.13.29-.49.06-.1.21-.39.09-.18.16-.32.09-.2.13-.3.09-.21c0-.1.08-.19.11-.29a1.43,1.43,0,0,0,.08-.22c0-.09.07-.19.1-.28s0-.15.07-.22l.09-.29.06-.22c0-.1.05-.19.07-.29a1.74,1.74,0,0,0,.05-.22c0-.1,0-.19.06-.29s0-.15.05-.22,0-.2,0-.3a1.52,1.52,0,0,0,0-.21c0-.1,0-.21,0-.31a1.36,1.36,0,0,0,0-.2l0-.36v-.14h0c0-.17,0-.34,0-.5v0h0l0-5.94c0,.18,0,.37,0,.55a13.74,13.74,0,0,1-3.48,8.24A25.26,25.26,0,0,1,457,196a46.07,46.07,0,0,1-16.58,5.12,59,59,0,0,1-14.66,0,44.69,44.69,0,0,1-17.27-5.61c-6.36-3.83-9.53-8.76-9.55-13.7l0,5.94V188a1.77,1.77,0,0,1,0,.23c0,.08,0,.16,0,.23s0,.16,0,.23a1.94,1.94,0,0,0,0,.24,1.64,1.64,0,0,1,0,.22c0,.08,0,.16,0,.24l0,.23c0,.08,0,.15,0,.23a1.85,1.85,0,0,1,0,.23l.06.23a1.89,1.89,0,0,0,.05.23l.06.23.06.23c0,.08.05.15.07.23a1.42,1.42,0,0,0,.07.22,2.25,2.25,0,0,0,.08.24,2,2,0,0,0,.08.22l.09.23c0,.08.05.15.08.22a2.44,2.44,0,0,1,.1.24,1.47,1.47,0,0,1,.1.22l.11.23c0,.07.07.14.1.22l.12.23.12.21a1.71,1.71,0,0,0,.13.23l.12.22c0,.08.09.15.14.23a2.39,2.39,0,0,0,.13.21l.15.23c0,.07.09.14.14.21l.16.23.14.21a1.84,1.84,0,0,1,.17.22l.16.21.18.22.17.21c.06.07.12.15.19.22s.11.13.17.2a2.09,2.09,0,0,0,.2.22l.18.2.21.22.19.2.22.22.2.19.24.22.2.19.25.22.21.18.25.22.22.18.28.22.22.17c.09.08.2.15.3.23l.21.16.32.22.21.16.34.23.21.14.43.28.14.09.59.37.82.47.22.12.79.43.06,0c.28.15.57.29.86.43l.22.11.81.37.09,0,.9.39.24.09.81.32.13.05.94.34.23.09.83.27.16.05c.32.11.64.21,1,.3l.23.07.84.23.19.06,1,.25.24.06.85.19.21.05,1,.21.23,0,.86.16.23,0,1,.17.22,0,.88.12.16,0h.11l.54.07.32,0,.65.06.21,0,.87.08.22,0,.65,0,.32,0,.55,0,.36,0,.52,0h3l.61,0H435l.88,0H436l.74,0,.3,0,.57,0,.35,0,.53-.05.36,0,.51-.05.36,0,.51-.06.22,0h.12l1-.14h.05l.95-.15.29-.05.8-.14.21,0,1-.2.22-.05.78-.17.27-.06,1-.24h0l.92-.25.26-.08.76-.22.21-.06.92-.29.21-.08.73-.25.25-.09.9-.33h0l.86-.35.25-.1.69-.3.19-.09.85-.39.19-.1.66-.33.23-.12L457,202l.6-.35.19-.11.4-.24.22-.14.36-.22.21-.15.36-.23.19-.13.38-.27.15-.11.51-.38.09-.07.4-.31.17-.14.31-.25.17-.15.29-.25.17-.15.28-.27.15-.14.33-.32.08-.08.4-.41.1-.11c.09-.1.18-.21.28-.31l.13-.15a2.09,2.09,0,0,0,.14-.17l.07-.08.22-.27Z"/><path class="cls-24" d="M468,177.61a17.91,17.91,0,0,0-3-4.23,34.68,34.68,0,0,0-2.68-2.47c-.9-.71-2.18-1.54-3.15-2.16a37.76,37.76,0,0,0-6.88-3.24c-1.46-.49-3.43-1.12-4.93-1.49a51.35,51.35,0,0,0-5.23-1,62.73,62.73,0,0,0-10.92-.6,58.74,58.74,0,0,0-10.84,1.36,42.4,42.4,0,0,0-14.37,5.88c-5,3.38-7.11,6.86-8,9.19a13.19,13.19,0,0,0-.93,5.11,13.37,13.37,0,0,0,1.28,5.31,18.17,18.17,0,0,0,3.8,5.24,27.51,27.51,0,0,0,5.11,3.9,39.59,39.59,0,0,0,6.88,3.23c1.46.5,3.43,1.12,4.93,1.49s3.65.81,5.23,1a62.92,62.92,0,0,0,10.92.59,59,59,0,0,0,10.85-1.36,42.34,42.34,0,0,0,14.36-5.88c5-3.38,7.11-6.86,8-9.18A13,13,0,0,0,468,177.61Zm-59.54,19.28c-13.14-7.91-12.69-20.51,1-28.15s35.45-7.42,48.6.49,12.69,20.51-1,28.15S421.61,204.8,408.47,196.89Z"/><path class="cls-13" d="M463.08,194.77c-3.59,4.11-17.38,11-34.47,9.07a9.08,9.08,0,0,1,1.38,0,64.33,64.33,0,0,0,17.73-1.8,40.5,40.5,0,0,0,15.5-7.44,2.31,2.31,0,0,1-.14.19"/><path class="cls-24" d="M469.31,180.26a10.39,10.39,0,0,0-.35-2.21A14.07,14.07,0,0,0,467.8,175a18.39,18.39,0,0,0-2.87-4c-.74-.73-1.75-1.7-2.56-2.34s-2.22-1.58-3.2-2.21a38.71,38.71,0,0,0-6.86-3.23c-1.46-.49-3.43-1.11-4.92-1.48a51.38,51.38,0,0,0-5.23-1,61.7,61.7,0,0,0-10.9-.59,58.63,58.63,0,0,0-10.82,1.36,42.19,42.19,0,0,0-14.32,5.85,24.61,24.61,0,0,0-4.69,4,17.63,17.63,0,0,0-3.3,5.17,12.88,12.88,0,0,0,.45,10.67,18.78,18.78,0,0,0,3.75,5.06,27.38,27.38,0,0,0,5,3.82,40.16,40.16,0,0,0,6.89,3.24c1.46.49,3.42,1.11,4.92,1.48a51.5,51.5,0,0,0,5.21,1,61.53,61.53,0,0,0,10.9.6A59.6,59.6,0,0,0,446.12,201a42.14,42.14,0,0,0,14.35-5.88c5-3.36,7.07-6.83,7.95-9.14A13,13,0,0,0,469.31,180.26ZM457,195c-13.67,7.63-35.39,7.41-48.51-.49s-12.67-20.47,1-28.1,35.39-7.4,48.51.49S470.69,187.36,457,195Z"/><path class="cls-13" d="M463,192.4c-6.84,7.14-24.18,10.7-34.53,9,14.75,0,23.26-1.29,34.74-9.2l-.21.21"/><path class="cls-2" d="M464.51,187.74h0l0-9.61a1.34,1.34,0,0,0,0-.2v-.21c0-.07,0-.14,0-.21s0-.14,0-.21a1.49,1.49,0,0,0,0-.21c0-.07,0-.14,0-.21l0-.21,0-.21a974306339746.13,974306339746.13,0,0,0-.08-.42c0-.07,0-.14,0-.21s0-.14-.05-.21l-.06-.21a1.17,1.17,0,0,0-.05-.2L464,175c0-.07,0-.13-.07-.2s-.05-.14-.07-.21-.05-.14-.07-.21a1.8,1.8,0,0,1-.08-.21c0-.06,0-.13-.08-.2l-.09-.21-.09-.2-.1-.21a1.86,1.86,0,0,0-.1-.2l-.1-.21-.11-.2c0-.07-.08-.14-.11-.21l-.12-.19-.12-.21-.12-.19-.14-.21-.12-.19-.15-.21a2.14,2.14,0,0,1-.13-.19l-.16-.21-.14-.18-.16-.2-.15-.19-.18-.2a1.46,1.46,0,0,0-.16-.19l-.18-.2-.16-.18-.2-.21-.17-.17-.2-.2-.18-.18-.21-.2a1.54,1.54,0,0,1-.19-.17l-.23-.2-.18-.16-.25-.21-.19-.16-.24-.19-.21-.16-.27-.21-.19-.15-.3-.21-.19-.13-.33-.23-.17-.11c-.12-.09-.25-.17-.38-.25l-.14-.09-.53-.33-.75-.43-.19-.11-.73-.39-.05,0-.78-.39-.21-.1-.73-.33-.09,0-.82-.35-.21-.09-.74-.29-.12-.05-.85-.31-.21-.07-.75-.25-.15-.05c-.29-.1-.59-.19-.88-.27l-.22-.07-.76-.21-.17-.05-.9-.23-.22-.05-.77-.18-.2,0-.92-.19-.21,0-.79-.14-.21,0-.94-.15-.2,0-.8-.11-.14,0H440l-.5-.06-.29,0a5.9,5.9,0,0,0-.59-.06l-.2,0-.78-.07-.2,0-.6,0-.29,0-.5,0-.32,0-.48,0H431.7l-.8,0h-.11l-.68,0-.28,0-.52,0-.31,0-.48,0-.33,0-.46.05-.33,0-.47.06-.2,0h-.1l-.92.13h0l-.87.14-.25,0-.73.13-.2,0-.89.17-.2,0-.71.15-.24.06-.88.22h0l-.84.23-.24.07-.69.2-.19.06-.84.26-.19.07-.66.23-.23.08-.82.3h0l-.79.32-.23.09-.63.28-.17.07-.77.36-.17.09-.6.3-.21.11-.74.39-.55.32-.17.1-.37.22-.19.12-.33.21-.2.13-.32.21-.18.12-.34.25-.14.09-.46.35-.08.06-.37.29-.15.12-.28.23-.16.14-.26.23-.15.14-.26.23-.14.13-.29.29-.08.08-.36.37-.09.1-.26.28-.12.14-.13.15-.06.08-.2.24-.15.19-.19.25-.13.18-.19.27-.12.17c-.07.11-.14.21-.2.32l-.09.12c-.09.15-.18.3-.26.45a.56.56,0,0,0-.05.08c-.07.12-.13.24-.19.36l-.09.17-.14.28c0,.06-.05.13-.08.19l-.12.27a1.54,1.54,0,0,0-.08.19,2.77,2.77,0,0,0-.1.26l-.08.2-.09.26-.06.2a2.58,2.58,0,0,0-.08.26l-.06.2-.06.26c0,.07,0,.14-.05.21a2,2,0,0,0-.05.26,1.42,1.42,0,0,0,0,.2c0,.09,0,.18,0,.27a1.37,1.37,0,0,0,0,.19c0,.1,0,.2,0,.29a1.1,1.1,0,0,1,0,.18c0,.11,0,.22,0,.33a.49.49,0,0,1,0,.12h0c0,.16,0,.31,0,.46v0h0l0,5.84c0,1.24,0,2.49,0,3.73v.05c0-.17,0-.33,0-.49s0-.09,0-.14,0-.22,0-.33,0-.12,0-.17l0-.29,0-.19c0-.1,0-.19.05-.28l0-.2.06-.26c0-.07,0-.13,0-.2s.05-.18.07-.26l.06-.21.07-.25a1.72,1.72,0,0,0,.07-.21l.09-.26.07-.19.11-.27a1.54,1.54,0,0,1,.08-.19,1.59,1.59,0,0,1,.12-.27,1.42,1.42,0,0,1,.08-.18,2.59,2.59,0,0,1,.14-.29c0-.06.05-.11.08-.16l.2-.36a.41.41,0,0,1,.05-.09c.08-.15.17-.3.26-.45a.83.83,0,0,0,.08-.12l.21-.32.11-.16.19-.27.14-.18.19-.26.15-.18.2-.25.19-.23.12-.13c.08-.1.17-.19.25-.28l.09-.1.36-.37.08-.08.3-.29a.86.86,0,0,1,.14-.13l.25-.24.16-.14.26-.23.16-.13.28-.24.15-.12.36-.28.09-.07.46-.34.13-.1.35-.24.18-.13.32-.21.2-.13.32-.2.2-.13.36-.21.18-.11.55-.31.73-.4.21-.11.61-.3.17-.08c.25-.13.51-.25.76-.36l.18-.08.63-.27.22-.1.79-.32h0l.82-.31.23-.08.66-.23.19-.06.84-.27.19-.06.68-.2.25-.07.84-.22h0l.87-.21.25-.06.7-.16.21,0,.89-.18.19,0,.73-.13.26-.05.87-.13h0l.92-.12.3,0,.46-.06.34,0,.46-.05.33,0,.48,0,.31,0,.52,0,.28,0,.68,0h.11l.8,0h2.73l.47,0h.81l.32,0,.5,0h.29l.59,0h.2l.79.07.2,0,.59.06.28,0,.5.06.25,0,.8.12.2,0,.94.15.21,0,.79.15.21,0,.92.2.19,0,.78.18.21,0,.91.23.17,0,.76.22.22.06.88.27.14,0,.75.25.22.07.85.32.12,0,.74.29.21.09.82.35.09,0,.73.34a1.24,1.24,0,0,1,.2.1c.27.12.53.25.79.39l0,0,.72.39.2.11.74.43h0l.54.33.2.14.32.2.21.14.29.2.21.15.27.2.21.16.26.19.21.17.24.19.2.17a2.11,2.11,0,0,1,.23.19l.2.17.22.2.19.17.21.2.18.18.2.19.18.19.18.19a1.54,1.54,0,0,1,.17.19l.18.19c.06.06.11.13.16.19s.12.13.17.2.1.13.16.19l.16.2.14.19.15.2.14.2a1.43,1.43,0,0,1,.14.2,2.14,2.14,0,0,1,.13.19l.14.21.12.2.12.2a2,2,0,0,1,.11.2l.12.21a1.74,1.74,0,0,1,.1.19,2.12,2.12,0,0,1,.11.21c0,.07.07.14.1.2l.1.21c0,.07.06.14.08.2l.1.21c0,.07,0,.14.07.21l.09.21c0,.06,0,.13.07.2s.05.14.07.21l.06.21c0,.07.05.14.07.21s0,.13.05.2l.06.22c0,.06,0,.13,0,.2a1.42,1.42,0,0,1,.05.22,1.18,1.18,0,0,1,0,.2c0,.07,0,.14,0,.21l0,.21,0,.22c0,.06,0,.13,0,.2s0,.14,0,.22a1.27,1.27,0,0,1,0,.2c0,.07,0,.15,0,.22v.2c0,.08,0,.16,0,.23Z"/><path class="cls-2" d="M474,220.36c0,.18,0,.36,0,.54V221a4.36,4.36,0,0,1,0,.51v.08l-.06.5v.09c0,.16,0,.33-.07.5v.08c0,.17-.06.34-.1.51v.06c0,.18-.08.36-.13.53h0c-.05.18-.09.36-.15.54v0c0,.18-.11.35-.16.52l0,.07-.18.5,0,.08-.2.5,0,.08c-.07.16-.14.33-.22.49l0,.07c-.08.17-.16.34-.25.51l0,0c-.09.18-.19.35-.29.52h0c-.1.18-.2.35-.31.52l0,0c-.1.17-.21.33-.32.49l0,.08-.33.47-.06.08c-.11.16-.23.32-.35.47l-.06.08c-.12.16-.25.31-.38.47l-.05.06c-.1.13-.21.25-.31.37l-.16.19-.32.35-.13.14c-.15.16-.31.32-.46.49l-.08.07-.41.41-.18.16-.34.31-.2.18-.34.3-.21.18-.36.3-.2.16-.46.36-.12.1-.6.45-.17.12-.46.32-.23.16-.42.28-.25.16-.43.27-.26.16-.47.29-.22.13-.72.41-1,.52-.27.14-.79.39-.22.11-1,.47-.23.1-.82.35-.29.13-1,.41h0l-1.07.4-.3.1-.86.3-.25.09-1.09.34-.24.08-.9.26-.32.09-1.09.29h0l-1.14.28-.32.07-.91.21-.27.06-1.16.23-.25,0-.95.17-.33.06-1.13.17h-.06l-1.19.16-.4.05-.6.07-.43.05-.61.06-.42,0-.63.05-.4,0-.68,0-.36,0-.89,0h-.14l-1,0h-3.55l-.61,0h-.43l-.62,0-.42,0-.65,0-.39,0-.77-.06h-.26l-1-.09-.25,0-.77-.08-.38,0-.65-.08-.71-.09h-.1l-.85-.13-.24,0-.64-.11-.24,0-.84-.14h0l-.84-.15-.24,0-.62-.13-.24-.05-.82-.19h-.08l-.74-.18-.25-.06-.61-.16-.22-.06-.8-.21-.14,0-.67-.2-.24-.07-.61-.19-.19-.06-.78-.25-.16-.06-.62-.21-.23-.09-.61-.22-.17-.06-.74-.29-.18-.07-.58-.24-.22-.09-.62-.27-.12-.05-.72-.33-.19-.09-.54-.25-.21-.11-.63-.31-.07,0-.68-.36-.19-.11-.51-.28-.2-.11-.66-.39c-7.53-4.54-11.29-10.38-11.3-16.22v1.64c0,5.85,3.77,11.69,11.31,16.23l.66.38.19.11.51.29.19.1c.23.12.45.25.68.36l.08,0,.62.32.22.1.54.26.18.09.72.32.13.06.61.26.22.1.58.23.18.07.75.29.16.07.61.22.24.08.61.22.17.05.77.26.2.06.61.19.24.07.67.19.13,0,.8.22.22.06.61.15.25.06.74.18.08,0,.83.18.23.05.63.13.24.05.84.16h0l.83.15.25,0,.64.1.23,0,.85.12h.1l.59.08.13,0,.65.07.37.05.77.08.25,0,1,.09.26,0,.77.05.38,0,.65,0,.42,0,.62,0h3.56l.72,0h.32l1,0h.15l.89,0,.35,0,.68-.05.41,0,.62,0,.43,0,.6-.07.43,0,.61-.07.26,0,.13,0,1.19-.16h.06l1.13-.18.33-.05.95-.17.25-.05,1.16-.23.27-.06.92-.2.32-.07,1.14-.28h0l1.09-.3.31-.09.9-.26.24-.07,1.09-.35.25-.08.87-.3.3-.11,1.06-.4h0l1-.42.29-.12.82-.36.23-.1,1-.46.23-.11.78-.4.27-.14,1-.51.72-.41.23-.14.47-.28.25-.16.43-.27.25-.17.42-.28.24-.16.45-.32.17-.12.6-.45.13-.09.46-.36a1.56,1.56,0,0,1,.2-.16l.36-.31.21-.18.34-.29.2-.18.34-.32.17-.16.41-.4.08-.08.47-.48.13-.15.31-.35.16-.18.17-.19.15-.18.05-.06.38-.48.05-.07.35-.47.06-.08.33-.48.05-.07c.11-.16.21-.33.31-.49l0-.06.3-.51h0l.28-.52,0-.05c.08-.16.17-.33.25-.5l0-.07c.08-.17.16-.33.23-.5l0-.08c.07-.16.14-.33.2-.49l0-.08.18-.5,0-.07c.06-.18.11-.35.16-.52l0,0c.05-.18.1-.36.14-.54h0l.12-.54v-.05c0-.17.07-.35.1-.52v-.07c0-.17.06-.34.08-.51v-.08c0-.17,0-.34.05-.51v-.08l0-.46v-.12c0-.18,0-.36,0-.53h0Z"/><path class="cls-22" d="M473.92,192.67c0,.18,0,.36,0,.54v.07a4.36,4.36,0,0,1,0,.51v.08c0,.17,0,.34-.05.5l0,.09c0,.17,0,.34-.07.5V195c0,.17-.06.34-.1.52v.05c0,.18-.08.36-.13.54h0a5.26,5.26,0,0,1-.15.53v.05c-.05.17-.1.34-.16.51l0,.07a4.24,4.24,0,0,1-.18.5l0,.09c-.06.16-.13.33-.2.49l0,.08c-.07.17-.14.33-.22.5l0,.07c-.09.16-.17.33-.26.5l0,0c-.09.18-.19.35-.28.52v0c-.1.17-.2.34-.31.51l0,.06c-.1.16-.21.32-.31.49l0,.07-.33.48-.06.07-.35.48-.06.07-.37.48-.05.06-.32.37-.16.18c-.1.12-.21.23-.32.35a.86.86,0,0,1-.13.14c-.15.17-.3.33-.46.49l-.08.07-.41.41-.18.16-.34.32-.2.18-.33.29-.21.18-.37.3-.2.17-.45.35-.13.1-.6.45-.17.12-.46.32-.23.16-.42.28-.25.17-.43.27-.25.16-.48.28-.22.13-.72.42-1,.51-.27.14-.79.4-.22.11-1,.46-.22.1-.83.36-.29.12-1,.41h0l-1.07.4-.3.11-.86.29-.25.09-1.09.35-.24.07-.9.26-.31.09-1.1.29h0l-1.15.28-.32.08-.91.2-.27.06-1.16.23-.25,0-.95.16-.33.06-1.13.18h-.06l-1.19.16-.4,0-.6.07-.43,0-.61.06-.42,0-.63.06-.4,0-.68,0-.36,0-.88.05h-.15l-1,0H435l-.72,0h-3.13l-.43,0-.62,0-.42,0-.65,0-.38,0-.78,0-.25,0-1-.09-.26,0-.76-.08-.38,0-.64-.08-.72-.09h-.1l-.85-.12-.24,0-.64-.1-.24,0-.84-.15h0l-.83-.16-.25,0-.62-.13-.24,0-.82-.18-.08,0-.74-.18-.25-.06-.61-.16-.22-.05-.8-.22-.13,0-.68-.19-.24-.08-.61-.19-.19-.06-.78-.25-.16-.06-.62-.21-.23-.08-.61-.23-.16-.06-.75-.29-.18-.07-.58-.24-.22-.09-.61-.26-.13-.06-.72-.32-.19-.09-.54-.26-.21-.1-.63-.32-.07,0-.68-.36-.19-.1-.51-.29-.19-.11c-.23-.13-.45-.25-.67-.39-7.53-4.53-11.29-10.37-11.3-16.22l.08,27.69c0,5.84,3.77,11.68,11.3,16.22l.66.39.2.11.51.28.19.11.68.36.07,0,.63.31.21.11.54.25.19.09.72.33.12.05.62.27.22.09.58.24.18.07.74.29.17.06.61.22.23.09.62.21.16.06.78.25.19.06.61.19.24.07.67.2.14,0,.8.21.22.06.61.16.25.06.74.18h.08l.82.19.24.05.62.13.24,0,.84.15h0l.84.14.24,0,.64.11.24,0,.85.13h.1l.58.08h.13l.65.08.38,0,.77.08.25,0,1,.09H428l.77.06.39,0,.65,0,.42,0,.62,0h.43l.61,0h3.55l1,0h.14l.89,0,.36,0,.68,0,.4,0,.63-.05.42,0,.61-.06.43-.05.6-.07.26,0,.14,0,1.19-.16h.06l1.13-.17.33-.06.95-.17.25,0,1.16-.23.27-.06.91-.21.32-.07,1.14-.28h0l1.09-.29.32-.09.9-.26.24-.08,1.09-.34.25-.09.86-.3.3-.1,1.07-.4h0l1-.41.29-.13.82-.35.23-.1,1-.47.22-.11.79-.39.27-.14,1-.52.72-.41.22-.13.47-.29.26-.16.43-.27.25-.16.42-.28.23-.16.46-.32.17-.12.6-.45.12-.1.46-.36.2-.16.36-.3.21-.18.34-.3.2-.18.34-.31.18-.16.41-.41.08-.07c.15-.17.31-.33.46-.49l.13-.14.32-.35.16-.19.16-.18.15-.19.05-.06c.13-.16.26-.31.38-.47l.06-.08c.12-.15.24-.31.35-.47l.06-.08.33-.47,0-.08c.11-.16.22-.32.32-.49l0,0c.11-.17.21-.34.31-.52h0c.1-.17.2-.34.29-.52l0,0c.09-.17.17-.34.25-.51l0-.07c.08-.16.15-.33.22-.49l0-.08.2-.5,0-.08.18-.5,0-.07c.05-.17.11-.34.16-.52v0c.06-.18.1-.36.15-.54h0c.05-.17.09-.35.13-.53v-.06c0-.17.07-.34.1-.51v-.08c0-.17.05-.34.07-.5v-.09l.06-.5v-.08l0-.47v-.11c0-.18,0-.36,0-.54Z"/><path class="cls-2" d="M416.07,214.13l-.6-.16-.13,0-.68-.19-.24-.08-.61-.19-.19-.06-.78-.25-.16-.06-.62-.21-.23-.08-.61-.23-.16-.06-.75-.29-.18-.07-.58-.24-.22-.09-.61-.26-.13-.06-.72-.32-.19-.09-.54-.26-.21-.1-.63-.32-.07,0-.68-.36-.19-.1-.51-.29-.19-.11c-.23-.13-.45-.25-.67-.39-7.53-4.53-11.29-10.37-11.3-16.22l.08,27.69c0,5.84,3.77,11.68,11.3,16.22l.66.39.2.11.51.28.19.11.68.36.07,0,.63.31.21.11.54.25.19.09.72.33.12.05.62.27.22.09.58.24.18.07.74.29.17.06.61.22.23.09.62.21.16.06.78.25.19.06.61.19.24.07.67.2.14,0,.52.14Z"/><path class="cls-24" d="M467.57,178.12c0,.18,0,.35,0,.52s0,.13,0,.2,0,.21,0,.31l0,.22,0,.3,0,.22c0,.09,0,.19-.05.29s0,.15,0,.22l-.06.29c0,.07,0,.15-.05.22s-.05.19-.07.29a1.87,1.87,0,0,1-.07.22,2.29,2.29,0,0,1-.08.28c0,.08,0,.15-.07.23l-.1.28c0,.08-.05.15-.08.22l-.12.29a1.8,1.8,0,0,1-.08.21c0,.1-.09.2-.14.31s-.05.13-.08.19-.12.23-.17.34-.05.1-.08.16l-.27.49,0,.06-.26.43-.11.16c-.07.11-.13.22-.2.32l-.14.19a3,3,0,0,1-.2.29l-.15.2-.21.28-.16.21-.22.26-.21.25-.14.16-.26.29-.11.12c-.13.14-.26.28-.4.41l-.06.06-.35.35-.15.14-.28.26L462,189l-.29.25-.18.15-.3.26-.17.14-.39.3-.1.08-.51.38-.14.1-.39.27-.2.14-.35.23a1.64,1.64,0,0,1-.22.14l-.35.23-.22.14-.4.24-.19.11-.61.35c-.26.15-.53.29-.81.43l-.23.12-.66.33-.19.1-.84.39-.19.09-.7.3-.24.1-.87.35h0l-.9.33-.25.09-.73.25-.21.08-.92.29-.21.06-.75.22-.27.08-.92.25h0c-.32.09-.64.16-1,.24l-.27.06-.77.17-.23,0-1,.2-.21,0-.8.14-.28.05-.95.14h-.06l-1,.14-.34,0-.5.06-.37,0-.51,0-.36,0-.53.05-.34,0-.57,0-.3,0-.75,0h-.13l-.87,0h-.27l-.61,0h-3l-.53,0-.35,0-.55,0-.32,0-.66,0-.22,0-.86-.08-.22,0-.65-.06-.31,0-.55-.07-.27,0-.88-.12-.22,0-1-.17-.23,0-.87-.16-.23,0-1-.21-.21-.05-.85-.19-.23-.06-1-.25-.19-.06-.83-.23-.24-.07c-.32-.09-.65-.19-1-.3l-.16,0-.82-.27-.24-.09-.94-.34-.13,0-.81-.32-.23-.09-.9-.39-.1,0-.8-.37-.23-.11-.86-.43-.05,0c-.27-.14-.54-.28-.8-.43l-.21-.12-.83-.47c-6.36-3.84-9.53-8.77-9.55-13.71v2.47c0,4.94,3.18,9.87,9.55,13.7.27.17.55.32.82.48l.22.12.8.43,0,0,.86.44.22.1.81.37.09.05.91.38.23.1.81.32.13,0,.94.34.23.08.83.28.16,0,1,.3.23.07.84.23.19.05,1,.26.24.05.85.2.21.05,1,.2.22.05.87.16.23,0,1,.16.22,0,.88.13.16,0h.11l.54.07.32,0,.65.07.21,0,.87.08h.22l.65.05.32,0,.56,0h.35l.52,0,.37,0H435l.88,0H436l.75,0,.3,0,.58,0,.34,0,.53-.05.36,0,.51,0,.36,0,.51-.06.22,0h.11l1-.14h.05c.32,0,.64-.09.95-.15l.29,0,.8-.15.21,0,1-.19.22,0,.78-.17.27-.06,1-.24h0l.92-.25.27-.07.75-.22.21-.06.92-.3.21-.07.73-.25.25-.09.9-.34h0l.86-.35.25-.11.69-.3.2-.08.84-.4.19-.09.66-.33.23-.12L457,195l.61-.34.19-.12.39-.24.22-.13.36-.23.22-.14.35-.24.2-.13.38-.27.15-.1.5-.38.11-.08.39-.31.16-.13.31-.26.18-.15.28-.25.17-.15.29-.27.15-.14.35-.34.06-.06c.13-.14.27-.27.39-.41l.12-.12.26-.3.14-.15c0-.06.09-.11.13-.16l.08-.09.21-.27.17-.2.21-.28.15-.2.2-.29.13-.19.21-.32.11-.17c.09-.14.17-.28.25-.43l0-.06.27-.49.07-.15.17-.34.09-.2.14-.3.08-.21.12-.29a2,2,0,0,1,.08-.22c0-.1.06-.19.1-.29s0-.14.07-.22.05-.19.08-.28l.06-.23a2.86,2.86,0,0,0,.07-.28l.06-.23.06-.28a1.85,1.85,0,0,1,0-.23,2.54,2.54,0,0,0,0-.29,1.43,1.43,0,0,0,0-.22l0-.3a1.49,1.49,0,0,0,0-.21c0-.1,0-.21,0-.32a.86.86,0,0,0,0-.16v0c0-.17,0-.35,0-.52h0Z"/><path class="cls-13" d="M458,164.42c13.12,7.89,12.67,20.47-1,28.1s-35.39,7.4-48.51-.49-12.66-20.48,1-28.1S444.9,156.52,458,164.42Zm-2.23,1.24c-11.94-7.18-31.7-7.38-44.14-.45s-12.85,18.39-.92,25.57,31.7,7.39,44.14.45,12.85-18.39.92-25.57"/><path class="cls-22" d="M450,162.94l-.51-.19-.21-.07-.75-.25-.15-.05c-.29-.1-.59-.19-.88-.27l-.22-.07-.76-.21-.17-.05-.9-.23-.22-.05-.77-.18-.2,0-.92-.19-.21,0-.79-.14-.21,0-.94-.15-.2,0-.8-.11-.14,0H440l-.5-.06-.29,0a5.9,5.9,0,0,0-.59-.06l-.2,0-.78-.07-.2,0-.6,0-.29,0-.5,0-.32,0-.48,0H431.7l-.8,0h-.11l-.68,0-.28,0-.52,0-.31,0-.48,0-.33,0-.46.05-.33,0-.47.06-.2,0h-.1l-.92.13h0l-.87.14-.25,0-.73.13-.2,0-.89.17-.2,0-.71.15-.24.06-.88.22h0l-.84.23-.24.07-.69.2-.19.06-.84.26-.19.07-.66.23-.23.08-.82.3h0l-.79.32-.23.09-.63.28-.17.07-.77.36-.17.09-.6.3-.21.11-.74.39-.55.32-.17.1-.37.22-.19.12-.33.21-.2.13-.32.21-.18.12-.34.25-.14.09-.46.35-.08.06-.37.29-.15.12-.28.23-.16.14-.26.23-.15.14-.26.23-.14.13-.29.29-.08.08-.36.37-.09.1-.26.28-.12.14-.13.15-.06.08-.2.24-.15.19-.19.25-.13.18-.19.27-.12.17c-.07.11-.14.21-.2.32l-.09.12c-.09.15-.18.3-.26.45a.56.56,0,0,0-.05.08c-.07.12-.13.24-.19.36l-.09.17-.14.28c0,.06-.05.13-.08.19l-.12.27a1.54,1.54,0,0,0-.08.19,2.77,2.77,0,0,0-.1.26l-.08.2-.09.26-.06.2a2.58,2.58,0,0,0-.08.26l-.06.2-.06.26c0,.07,0,.14-.05.21a2,2,0,0,0-.05.26,1.42,1.42,0,0,0,0,.2c0,.09,0,.18,0,.27a1.37,1.37,0,0,0,0,.19c0,.1,0,.2,0,.29a1.1,1.1,0,0,1,0,.18c0,.11,0,.22,0,.33a.49.49,0,0,1,0,.12h0c0,.16,0,.31,0,.46v0h0l0,5.84c0,1.22,0,2.43,0,3.65h0c0-.12,0-.24,0-.36s0-.09,0-.14,0-.22,0-.33,0-.12,0-.17l0-.29,0-.19c0-.1,0-.19.05-.28l0-.2.06-.26c0-.07,0-.13,0-.2s.05-.18.07-.26l.06-.21.07-.25a1.72,1.72,0,0,0,.07-.21l.09-.26.07-.19.11-.27a1.54,1.54,0,0,1,.08-.19,1.59,1.59,0,0,1,.12-.27,1.42,1.42,0,0,1,.08-.18,2.59,2.59,0,0,1,.14-.29c0-.06.05-.11.08-.16l.2-.36a.41.41,0,0,1,.05-.09c.08-.15.17-.3.26-.45a.83.83,0,0,0,.08-.12l.21-.32.11-.16.19-.27.14-.18.19-.26.15-.18.2-.25.19-.23.12-.13c.08-.1.17-.19.25-.28l.09-.1.36-.37.08-.08.3-.29a.86.86,0,0,1,.14-.13l.25-.24.16-.14.26-.23.16-.13.28-.24.15-.12.36-.28.09-.07.46-.34.13-.1.35-.24.18-.13.32-.21.2-.13.32-.2.2-.13.36-.21.18-.11.55-.31.73-.4.21-.11.61-.3.17-.08c.25-.13.51-.25.76-.36l.18-.08.63-.27.22-.1.79-.32h0l.82-.31.23-.08.66-.23.19-.06.84-.27.19-.06.68-.2.25-.07.84-.22h0l.87-.21.25-.06.7-.16.21,0,.89-.18.19,0,.73-.13.26-.05.87-.13h0l.92-.12.3,0,.46-.06.34,0,.46-.05.33,0,.48,0,.31,0,.52,0,.28,0,.68,0h.11l.8,0h2.73l.47,0h.81l.32,0,.5,0h.29l.59,0h.2l.79.07.2,0,.59.06.28,0,.5.06.25,0,.8.12.2,0,.94.15.21,0,.79.15.21,0,.92.2.19,0,.78.18.21,0,.91.23.17,0,.76.22.22.06.88.27.14,0,.75.25.22.07.48.18Z"/><path class="cls-27" d="M394.75,205.09c7.66,0,7.67-11.91,0-11.91s-7.68,11.91,0,11.91Z"/><ellipse class="cls-2" cx="383.22" cy="194.49" rx="38.6" ry="22.36" transform="translate(72.17 491.03) rotate(-70.54)"/><path class="cls-25" d="M396.07,158.1l14.55,5.14c5.36,1.89,9.48,7.3,11.11,15.77,3.27,17.07-4.8,40.13-18,51.52-6.66,5.73-13.36,7.41-18.79,5.49l-14.54-5.14c5.43,1.92,12.13.24,18.79-5.49,13.23-11.39,21.31-34.45,18-51.52C405.56,165.4,401.43,160,396.07,158.1Z"/><path class="cls-13" d="M407.49,188.49a64.22,64.22,0,0,1-3.1,13.17L419,206.54a63.91,63.91,0,0,0,3.05-13.19Z"/><path class="cls-13" d="M416.33,213.18c.57-1.2,1.1-2.43,1.59-3.68l-14.64-4.88c-.5,1.24-1,2.47-1.61,3.68Z"/><path class="cls-28" d="M394.23,220.15a42.85,42.85,0,0,1-5.08,5.24c-6.66,5.73-13.36,7.41-18.79,5.49L384.9,236c5.43,1.92,12.13.24,18.79-5.49a42.8,42.8,0,0,0,5.27-5.47Z"/><polygon class="cls-29" points="286.6 241.6 212.2 201.33 258.19 171.38 332.78 214.28 286.6 241.6"/><g class="cls-3"><g class="cls-30"><path class="cls-31" d="M291.09,210.12l-.4-141.43q-1.67.74-3.21,1.59l-.75.43.4,141.43.75-.43q1.55-.86,3.21-1.59"/><path class="cls-32" d="M287.13,212.14l-.4-141.43c-7,4.12-10.48,9.49-10.47,14.86l.4,141.43c0-5.37,3.49-10.74,10.47-14.86"/></g></g><g class="cls-3"><g class="cls-33"><path class="cls-32" d="M349.14,85.36c-.21-8.44-4.52-15.35-12.82-20.51-12.53-7.54-33.26-7.75-46.32-.47-.41.23-.81.46-1.2.71-3,2-12.23,8-12.54,20.37,0-5.45,3.74-11,11.22-15.18,14.52-8.09,37.59-7.86,51.52.53,6.76,4.07,10.13,9.31,10.14,14.55"/><path class="cls-32" d="M286.78,70.69c1.1-.64,2.61-1.41,3.77-1.94C305.09,62.26,326,63,339,70.81c6.76,4.07,10.13,9.31,10.14,14.55l0-.94c0-.31-.05-.74-.08-1l-.11-.94c-.05-.31-.12-.74-.18-1.05l-.2-.93c-.08-.31-.19-.74-.28-1l-.3-.93c-.11-.31-.26-.73-.39-1l-.4-.93c-.15-.32-.35-.74-.51-1l-.51-.93c-.2-.32-.45-.75-.66-1.07l-.63-.92c-.25-.33-.58-.77-.84-1.1l-.79-.92c-.32-.35-.75-.81-1.08-1.15l-1-.92c-.43-.37-1-.87-1.44-1.22l-1.26-1c-.64-.43-1.51-1-2.17-1.42-12.53-7.54-33.26-7.75-46.32-.47-.41.23-.81.46-1.2.71l-1.32.85c-.58.42-1.36,1-1.92,1.43l-1.05.88c-.41.38-.95.88-1.35,1.27l-.84.9c-.31.35-.72.82-1,1.18l-.68.9-.78,1.13-.55.91c-.19.33-.43.76-.61,1.1l-.44.91c-.14.32-.33.75-.46,1.08l-.34.91-.34,1.07-.24.92c-.07.32-.17.74-.23,1.06l-.15.93c0,.32-.1.74-.13,1.06l-.06.94c0,.31,0,.74,0,1,0-5.38,3.51-10.77,10.52-14.88"/></g></g><g class="cls-3"><g class="cls-34"><path class="cls-32" d="M336.32,64.85,323.65,57c-5.84-3.51-15.49-3.6-21.57-.22l-.61.36-12.77,8c.42-.26.85-.52,1.3-.77,13.06-7.28,33.79-7.07,46.32.47"/></g></g><path class="cls-2" d="M276.66,227l-.4-141.43c0,5.25,3.39,10.49,10.15,14.56l.4,141.43C280.05,237.49,276.68,232.25,276.66,227Z"/><g class="cls-35"><path class="cls-2" d="M276.66,227l-.4-141.43c0,5.25,3.39,10.49,10.15,14.56l.4,141.43c-6.76-4.07-10.13-9.31-10.15-14.56"/></g><path class="cls-36" d="M297.63,61.63a6.42,6.42,0,0,1,.76-1.59,8.68,8.68,0,0,1,1.28-1.49,12.49,12.49,0,0,1,1.8-1.37h0l-12.77,8-.19.12-.77.5,0,0c-1,.65-1.47,1-2.16,1.58-.47.37-.86.7-1.26,1.08l-.17.15-1,.92a24.22,24.22,0,0,0-1.81,2l-.05,0c0,.07-.1.13-.15.2-.47.61-.92,1.23-1.29,1.81l0,0,0,.05-.09.12-.12.21-.15.24-.07.13-.2.33-.07.13c-.13.23-.27.48-.41.75l0,0,0,.09a19.46,19.46,0,0,0-.88,2l-.32.87v0l0,.11-.3.93c-.07.26-.27.94-.46,2v0c0,.09,0,.19-.05.29s-.08.49-.12.76-.08.62-.1.9v0c0,.14,0,.31,0,.47s0,.14,0,.21,0,.26,0,.37l0,.94c0,5.25,3.39,10.49,10.15,14.56A18.33,18.33,0,0,1,289,91.21l12.59-21.89C298.11,67.2,296.79,64.32,297.63,61.63Z"/><ellipse class="cls-32" cx="312.64" cy="63.18" rx="15.25" ry="8.84" transform="translate(-0.18 0.89) rotate(-0.16)"/><path class="cls-36" d="M344.89,237.16l.42-.44c.15-.16.29-.33.43-.49l.37-.45a6.12,6.12,0,0,0,.39-.5c.11-.15.23-.3.33-.45s.24-.35.35-.52.2-.3.29-.45.2-.36.3-.53.17-.3.25-.46.18-.36.26-.54l.21-.45c.08-.19.14-.37.21-.56s.12-.3.17-.45.12-.38.17-.58l.13-.43c.05-.2.08-.41.12-.61s.07-.27.09-.41.06-.46.08-.68,0-.23,0-.34a8.87,8.87,0,0,0,0-1l-.4-141.43c0,.34,0,.69,0,1,0,.11,0,.22,0,.34s-.05.45-.08.68l-.09.41c0,.2-.07.41-.12.61s-.09.29-.13.44-.11.38-.17.57-.11.3-.17.45-.13.37-.21.56l-.21.45c-.08.18-.17.36-.26.54s-.16.31-.25.46-.19.35-.3.53-.19.3-.29.45l-.35.52c-.1.15-.22.3-.33.45s-.25.34-.39.5l-.37.45-.43.49-.42.44c-.16.16-.31.32-.48.48l-.45.43-.52.47-.5.41c-.18.16-.37.31-.56.46l-.54.41-.61.44-.57.39-.66.43c-.2.13-.4.26-.61.38s-.7.42-1.06.62-1,.53-1.49.79l-.51.24-1,.49-.39.17c-.82.35-1.66.69-2.52,1l-.22.07c-.9.33-1.81.63-2.74.9h0c-.93.27-1.88.51-2.84.73l-.27.07c-.92.2-1.85.39-2.79.55l-.4.07c-.91.15-1.84.28-2.77.39l-.46,0c-.93.11-1.86.19-2.8.25l-.46,0c-.94,0-1.89.09-2.84.1H313c-1,0-1.95,0-2.92,0h-.26c-1-.05-2-.11-3-.21h0c-1-.09-2-.22-3-.36l-.27,0c-1-.14-1.88-.3-2.81-.49l-.39-.08c-.9-.18-1.79-.39-2.66-.62l-.43-.12c-.87-.23-1.72-.49-2.56-.76l-.41-.14c-.84-.29-1.66-.59-2.47-.92l-.34-.14c-.82-.34-1.63-.7-2.41-1.09l-.21-.11c-.81-.41-1.61-.84-2.37-1.3l.4,141.43c.76.46,1.56.89,2.37,1.3l.21.11c.78.39,1.59.75,2.41,1.09l.34.14c.81.33,1.63.63,2.47.92l.41.14c.84.27,1.69.53,2.56.76l.43.12c.87.23,1.76.44,2.66.62l.39.08c.93.19,1.86.35,2.81.49l.27,0c1,.14,2,.27,3,.36h0c1,.1,2,.16,3,.21h.25c1,0,1.95.05,2.92.05h.4c.95,0,1.9-.05,2.84-.1l.46,0c.94-.06,1.87-.14,2.8-.25l.46-.05c.93-.11,1.86-.24,2.78-.39l.4-.07c.93-.17,1.86-.35,2.78-.55l.27-.07c1-.22,1.91-.46,2.84-.73h0c.93-.27,1.84-.57,2.74-.9l.22-.07c.86-.32,1.7-.65,2.52-1l.21-.09.18-.08,1-.49.51-.24c.51-.26,1-.52,1.49-.79l.74-.42.32-.2c.21-.12.41-.25.61-.38l.66-.43.57-.39.61-.44.54-.41L343,239l.49-.41.52-.47.45-.43Q344.67,237.4,344.89,237.16Z"/><path class="cls-37" d="M349.14,85.28v-.1c0-.29,0-.61,0-.88l0-.4c0-.06,0-.13,0-.2l0-.33c0-.32-.09-.74-.13-1.06v0s0-.06,0-.09l-.14-.81c0-.14-.06-.3-.1-.46s0-.22-.07-.33,0-.19-.06-.27l-.25-.92,0-.09s0,0,0,0l-.06-.18c-.08-.26-.17-.52-.24-.75l0-.07-.09-.24-.23-.6,0-.06c-.06-.15-.12-.28-.18-.42l-.05-.1c-.06-.15-.12-.3-.19-.44l0-.06-.11-.22c-.09-.18-.17-.35-.26-.51l-.08-.17-.17-.31-.08-.15-.36-.64-.56-.9c-.33-.52-.82-1.2-1.38-1.91l-.09-.11,0-.06A25.82,25.82,0,0,0,341.8,69l-.11-.1c-.23-.22-.42-.4-.63-.58s-.7-.62-1.19-1l-.12-.1h0l-.5-.39-.26-.19c-.28-.22-.61-.44-.94-.67l-.36-.25-.19-.12-.12-.08c-.34-.23-.69-.45-1.06-.67.21.12.4.26.61.39h0c-.2-.13-.4-.27-.61-.39L323.65,57c.32.2.63.41.91.61l.18.13a9.41,9.41,0,0,1,.76.63l.13.12c.22.21.43.42.62.64,0,0,0,0,.05,0a8.06,8.06,0,0,1,.53.7,1.3,1.3,0,0,1,.1.15,6,6,0,0,1,.39.69,7.28,7.28,0,0,1,.31.77s0,.07,0,.11a4.53,4.53,0,0,1,.18.89c0,.09,0,.18,0,.28s0,.41,0,.61,0,.23,0,.35,0,.36-.09.55-.07.24-.1.36-.11.35-.18.52-.11.25-.17.37-.17.34-.27.5l-.24.36a5.6,5.6,0,0,1-.36.49l-.3.35c-.14.16-.3.31-.47.47s-.22.22-.34.32a6.65,6.65,0,0,1-.65.51,4.08,4.08,0,0,1-.33.25c-.36.25-.73.49-1.14.72s-.89.46-1.36.67l-.46.18c-.33.14-.66.26-1,.38l-.53.17c-.34.11-.69.21-1,.3l-.51.13c-.45.11-.92.2-1.38.28l-.21,0c-.54.09-1.08.15-1.63.2-.22,0-.45,0-.68,0l-.77,0h-1.48l-.76,0-.68,0-.75-.08-.67-.07-.75-.11-.66-.11c-.25,0-.49-.1-.73-.16a6.4,6.4,0,0,1-.63-.14c-.26-.06-.51-.14-.76-.21l-.56-.16c-.25-.08-.5-.18-.75-.27l-.51-.18c-.27-.11-.52-.23-.78-.35l-.41-.18c-.39-.19-.76-.4-1.12-.61L289.05,91.21a18.24,18.24,0,0,0-2.64,8.92c.76.46,1.56.89,2.38,1.31l.21.1c.78.39,1.59.75,2.42,1.1l.33.14c.81.33,1.64.63,2.49.92l.4.14c.85.27,1.7.53,2.57.76l.43.12c.88.23,1.77.43,2.67.62l.41.08c.92.19,1.85.35,2.79.49l.31,0c1,.14,2,.26,3,.36h.11c1,.09,2,.15,3,.2h.19c1,0,2,0,3,0h.36c1,0,1.92,0,2.88-.11l.43,0c.95-.06,1.88-.14,2.82-.25l.46-.05c.93-.11,1.85-.24,2.77-.4l.43-.07c.93-.17,1.84-.35,2.75-.56l.34-.08c.94-.22,1.86-.46,2.77-.72l.18-.06q1.39-.4,2.73-.9l.09,0c.88-.32,1.75-.68,2.59-1l.19-.07-.1,0c1.09-.49,2.15-1,3.17-1.58.35-.19.68-.39,1-.59l-.31.19L339,100l.61-.38.66-.42.58-.4.61-.44L342,98l.57-.45.5-.42.52-.47.45-.43q.25-.24.48-.48l.42-.44c.15-.16.29-.33.43-.49l.38-.45.38-.5.34-.45.34-.52.3-.45.3-.54.25-.45.26-.54.21-.46.21-.56c.06-.15.12-.29.17-.44s.11-.39.17-.58.09-.29.13-.44.08-.4.12-.61l.09-.41c0-.23.06-.46.08-.68s0-.23,0-.34c0-.34,0-.69,0-1Z"/><ellipse class="cls-38" cx="312.64" cy="61.8" rx="16.95" ry="9.82" transform="translate(-0.17 0.89) rotate(-0.16)"/><path class="cls-36" d="M324.41,57l.17.12c.27.21.53.41.77.63l.13.12c.22.21.43.42.62.64l0,.06a6.68,6.68,0,0,1,.53.69l.1.15c.14.23.28.46.39.69a6.11,6.11,0,0,1,.3.77l0,.11a6.68,6.68,0,0,1,.18.89,2.62,2.62,0,0,1,0,.28,4.24,4.24,0,0,1,0,.62c0,.11,0,.23,0,.34s-.05.37-.09.55-.07.24-.11.37a5.17,5.17,0,0,1-.18.51c-.05.13-.11.25-.17.37a4.82,4.82,0,0,1-.27.5l-.23.37c-.11.16-.24.32-.37.48s-.19.23-.29.35-.31.32-.47.47-.22.22-.34.32-.43.35-.65.52-.22.17-.33.25c-.36.24-.74.48-1.14.71s-.9.46-1.37.67l-.45.18c-.33.14-.66.27-1,.38l-.53.18-1.05.29-.5.13c-.46.11-.92.2-1.39.28l-.2,0c-.54.09-1.08.15-1.63.21l-.69,0-.76,0-.71,0H312c-.26,0-.51,0-.76,0l-.68,0-.76-.07-.67-.07-.74-.12-.66-.1-.74-.16-.63-.14-.75-.22-.56-.16c-.26-.08-.5-.18-.75-.27l-.51-.18-.79-.35-.4-.18c-.39-.19-.76-.39-1.12-.61l-.73,1.27.72.39.44.2c.29.13.57.26.87.38l.54.2c.27.1.55.21.83.3l.6.18.83.23.65.15q.4.11.84.18c.22,0,.44.08.67.12l.85.13.69.08c.28,0,.57.06.86.09l.7,0,.87,0h.7l.89,0,.68,0,.9-.07c.22,0,.44,0,.66-.06s.62-.07.93-.12l.61-.08,1-.2.51-.1c.47-.1.93-.22,1.38-.35l.08,0c.48-.14,1-.3,1.42-.47l.42-.17c.28-.11.56-.21.83-.33l.08,0c.49-.22,1-.45,1.41-.7l.35-.2c.17-.1.31-.2.46-.3l.54-.35c.2-.14.38-.29.57-.43l.46-.37c.17-.15.32-.31.48-.46s.27-.26.39-.39.27-.32.4-.49l.31-.38c.12-.18.22-.35.32-.53s.16-.25.23-.38.17-.38.24-.57.11-.24.15-.36.12-.43.17-.64.05-.21.07-.31a6.09,6.09,0,0,0,.08-1V60.05l-5.93-3.65A10.48,10.48,0,0,1,324.41,57Z"/><g class="cls-3"><g class="cls-39"><path class="cls-32" d="M329.58,61.75l-.05-18.65c0-2.44-1.57-4.88-4.72-6.77-6-3.62-15.7-4-22.46-1l0,18.66c6.76-3,16.45-2.64,22.46,1,3.15,1.89,4.72,4.33,4.72,6.77"/><path class="cls-31" d="M302.4,54l0-18.66q-.78.34-1.5.75a3.79,3.79,0,0,0-.34.2l.05,18.65.34-.2a14.92,14.92,0,0,1,1.5-.74"/><path class="cls-32" d="M300.56,54.94l-.05-18.65c-3.25,1.91-4.88,4.41-4.87,6.91l.05,18.65c0-2.5,1.62-5,4.87-6.91"/></g></g><path class="cls-25" d="M328,65.88c.11-.13.22-.26.31-.39s.22-.35.32-.52a4,4,0,0,0,.23-.39,5.24,5.24,0,0,0,.24-.56c.05-.13.12-.25.16-.37s.11-.42.16-.64a2.82,2.82,0,0,0,.07-.31,5,5,0,0,0,.08-1l-.05-18.65a6,6,0,0,1-.08.95c0,.11-.05.21-.07.31a4.64,4.64,0,0,1-.17.64c0,.12-.1.25-.15.37s-.15.37-.24.56-.15.26-.23.39-.2.35-.32.52l-.31.39c-.13.16-.26.33-.4.49s-.26.25-.39.38-.31.31-.48.46l-.46.37c-.19.14-.37.29-.57.43l-.54.35c-.26.17-.52.34-.8.5-.46.25-.93.49-1.42.7-.29.13-.59.25-.9.37l-.43.18c-.46.16-.93.32-1.41.46l-.11,0-1.36.35-.52.1-1,.19-.62.08-.92.13-.66.05-.9.07-.69,0-.88,0h-.7l-.87,0-.7,0-.86-.08-.69-.09c-.29,0-.57-.08-.85-.13l-.67-.11-.84-.18-.65-.16-.83-.23-.6-.18c-.28-.09-.56-.19-.83-.3l-.54-.2c-.3-.12-.58-.25-.87-.38l-.44-.2c-.42-.21-.82-.43-1.22-.66l.06,18.65c.39.23.8.45,1.22.66l.43.2c.29.13.57.26.87.38l.54.21.83.29c.2.07.4.12.6.18l.84.24.64.15.84.18.67.11c.28,0,.57.1.85.13s.46.06.69.09l.86.08.7,0,.88,0h.69l.89,0,.68,0,.9-.07.66,0,.93-.12.61-.09,1-.19.51-.1q.7-.17,1.38-.36l.09,0c.48-.14,1-.29,1.41-.46l.43-.17.82-.33.08,0c.49-.21,1-.45,1.42-.7a3.79,3.79,0,0,0,.34-.2c.17-.09.31-.2.47-.3l.53-.35c.2-.14.39-.29.57-.43a5.72,5.72,0,0,0,.46-.37l.49-.46.38-.38C327.76,66.21,327.88,66,328,65.88Z"/><ellipse class="cls-2" cx="312.58" cy="43.15" rx="16.95" ry="9.82" transform="translate(-0.12 0.89) rotate(-0.16)"/><path class="cls-18" d="M276.35,117.4l.17,58.43c.78,4.53,4.09,8.95,10,12.48l.15.09-.16-57C280.17,127.51,276.65,122.37,276.35,117.4Z"/><path class="cls-13" d="M349.24,119.13c-.9,4.75-4.57,9.35-11,12.93-14.52,8.09-37.59,7.86-51.52-.52l-.23-.15.16,57c14,8.3,37,8.5,51.55.43,7-3.87,10.71-9,11.19-14.11v-2.41h0Z"/><g class="cls-3"><path class="cls-2" d="M295.69,61.85l-.05-18.65c0,2.44,1.57,4.88,4.71,6.77l.06,18.65C297.26,66.73,295.7,64.29,295.69,61.85Z"/><g class="cls-40"><path class="cls-2" d="M295.69,61.85l-.05-18.65c0,2.44,1.57,4.88,4.71,6.77l.06,18.65c-3.15-1.89-4.71-4.33-4.72-6.77"/></g></g><path class="cls-2" d="M328.86,63l.25-.59,0-13.71-.25.59,0,13.71"/><path class="cls-2" d="M327.46,65l.48-.55q0-6.85,0-13.71l-.48.55q0,6.86,0,13.71"/><path class="cls-2" d="M325.28,66.81l.71-.49q0-6.85,0-13.71l-.7.49q0,6.85,0,13.71"/><path class="cls-2" d="M322.42,68.3l.86-.38q0-6.86,0-13.71l-.86.38q0,6.85,0,13.71"/><path class="cls-2" d="M319.15,69.35l1-.25q0-6.85,0-13.72l-1,.25q0,6.87,0,13.72"/><path class="cls-2" d="M315.64,70l1-.13q0-6.85,0-13.72l-1,.13q0,6.85,0,13.72"/><path class="cls-2" d="M312,70.09h1.05V56.37h-1q0,6.85,0,13.72"/><path class="cls-2" d="M308.42,69.78l1,.14q0-6.87,0-13.73l-1-.14q0,6.87,0,13.73"/><path class="cls-2" d="M305,69l.95.27q0-6.87,0-13.74l-.95-.26q0,6.87,0,13.73"/><path class="cls-2" d="M301.83,67.81l.86.39q0-6.87,0-13.73l-.85-.4q0,6.87,0,13.74"/><polygon class="cls-2" points="317.73 52.4 327.84 46.52 332.03 43.42 321.92 49.3 317.73 52.4"/><path class="cls-41" d="M285.89,9.53a9.18,9.18,0,0,1,.89-.28l.12,0c.32-.08.64-.14,1-.19l.21,0c.32-.05.65-.08,1-.1h.13c.31,0,.61,0,.92,0h.16c.32,0,.65,0,1,.06l.2,0c.33,0,.65.07,1,.12h.08l.91.17.19,0,.47.1.21,0,.67.18h0l.61.18.21.07.42.13.23.08.37.13.23.09.35.13.22.09.33.13.2.08.34.15.15.06.46.2h0l.41.19.13.06.25.12.13.07.2.09.11.07.17.08.1.05.13.08.07,0,.13.07,0,0,.1.05,10.11-5.87-.1-.06h0l-.11-.07-.09,0L310.69,6,310.58,6l-.16-.08-.11-.06-.2-.1L310,5.66l-.24-.11-.14-.07-.35-.16-.1-.05-.42-.18L308.57,5l-.33-.15-.2-.08-.33-.13-.22-.09-.34-.13-.24-.08-.37-.13-.23-.08L305.89,4l-.21-.07-.59-.17-.06,0-.67-.17-.21-.05-.47-.11-.08,0-.11,0c-.3-.06-.6-.12-.91-.16l-.08,0c-.32-.05-.64-.09-1-.12l-.2,0c-.32,0-.65-.05-1-.06h-.16c-.31,0-.61,0-.92,0h-.13c-.33,0-.65.06-1,.1l-.21,0c-.32.05-.64.11-1,.19l-.12,0a9.18,9.18,0,0,0-.89.28l-.15,0a8.19,8.19,0,0,0-.91.41l-.09,0-.34.19L284.4,10.22h0l.43-.23c.3-.15.6-.29.91-.41Z"/><path class="cls-25" d="M344.19,79.67l.28.61,0,.1.3.63.09.18.17.36.1.19c0,.1.09.19.13.27l.08.16a2,2,0,0,0,.11.21l.06.12.07.15.05.09.06.12L355.85,77l-.06-.12-.05-.09-.07-.14s-.05-.09-.07-.14-.06-.12-.1-.18a1.42,1.42,0,0,0-.08-.18c0-.08-.09-.17-.13-.26l-.1-.19-.17-.35-.09-.2c-.1-.19-.19-.4-.3-.62a.91.91,0,0,0-.07-.14l-.26-.57c0-.08-.08-.18-.12-.27l-.24-.52-.12-.29c-.12-.25-.24-.52-.36-.8,0-.09-.07-.17-.11-.26l-.47-1.12a2.72,2.72,0,0,0-.11-.25l-.4-1c-.05-.11-.09-.23-.14-.35l-.52-1.33,0-.07-.49-1.34-.15-.4-.44-1.26c0-.09-.06-.18-.1-.28-.17-.51-.35-1-.52-1.56l-.12-.4c-.14-.43-.28-.87-.41-1.31l-.14-.44c-.17-.56-.33-1.13-.49-1.71,0-.09-.05-.18-.08-.26-.13-.51-.27-1-.4-1.53,0-.17-.09-.34-.13-.51-.14-.54-.27-1.08-.4-1.64a1.6,1.6,0,0,1-.05-.21c-.14-.62-.28-1.24-.41-1.87,0-.17-.07-.34-.1-.5-.1-.51-.2-1-.29-1.55l-.09-.46c-.11-.64-.21-1.29-.31-2L346.5,48l-.21-1.64-.06-.56c-.08-.67-.15-1.35-.2-2a4.35,4.35,0,0,1,0-.51,3,3,0,0,1,.58-1.9,1.88,1.88,0,0,1,.51-.43h0L337,46.77a1.85,1.85,0,0,0-.27.19,3.08,3.08,0,0,0-.8,2.66c.05.68.12,1.36.2,2l.06.55.21,1.64.06.4c.1.65.2,1.3.31,1.95l.09.46c.09.52.19,1,.29,1.54,0,.17.07.34.1.5.13.63.27,1.26.41,1.87a1.42,1.42,0,0,0,.05.22c.13.55.26,1.1.4,1.64,0,.17.08.34.13.5.13.52.27,1,.41,1.53a2.68,2.68,0,0,0,.07.27c.16.58.32,1.14.49,1.71.05.14.09.29.14.43.13.45.27.89.41,1.32l.12.39c.17.53.35,1.06.52,1.57a2.31,2.31,0,0,1,.1.28c.15.42.3.84.44,1.25l.15.41c.17.45.33.9.5,1.33l0,.08.52,1.33.14.35.4,1c0,.09.08.17.11.26.16.39.32.76.47,1.11l.11.26c.13.28.24.55.36.81a1.11,1.11,0,0,0,.07.16l.05.12.25.54A2.72,2.72,0,0,0,344.19,79.67Z"/><polygon class="cls-41" points="336.91 32.87 347.02 26.99 311.14 6.28 301.03 12.15 336.91 32.87"/><polygon class="cls-41" points="339.41 32.87 349.52 26.99 347.02 25.55 336.91 31.43 339.41 32.87"/><polygon class="cls-25" points="339.4 34.31 349.51 28.43 349.52 26.99 339.41 32.87 339.4 34.31"/><polygon class="cls-41" points="346.91 38.64 357.02 32.77 349.51 28.43 339.4 34.31 346.91 38.64"/><path class="cls-2" d="M336.91,31.43v1.44L301,12.15c-.86-.48-17.2-9.73-21.66,5.17-.75,2.5,1.18,6.54,3.83,8.06l4,2.33a18.16,18.16,0,0,1,6.63,7.37l2.6,5L317.73,52.4l4.19-3.1,9.18,5.3a76,76,0,0,0,13.28,29l1.36-.77c-.42-.8-8.43-16-9.82-33.24-.22-2.65,1.49-3.86,3.69-2.59L347,51.28l-.07-12.64-7.51-4.33V32.87Z"/><polygon class="cls-25" points="346.98 51.28 357.09 45.41 357.02 32.77 346.91 38.64 346.98 51.28"/><path class="cls-2" d="M354.2,37.36a2.58,2.58,0,0,0-2.61.26A8.05,8.05,0,0,0,347.93,44,2.56,2.56,0,0,0,349,46.32l2.28,1.33a2.58,2.58,0,0,1-1.07-2.36,8.06,8.06,0,0,1,3.66-6.35,2.59,2.59,0,0,1,2.62-.25Z"/><path class="cls-18" d="M353.87,38.94a8.06,8.06,0,0,0-3.66,6.35c0,2.33,1.66,3.27,3.68,2.1A8.09,8.09,0,0,0,357.56,41C357.55,38.71,355.9,37.77,353.87,38.94Z"/><path class="cls-2" d="M353.88,42a2.2,2.2,0,0,0-1,1.75c0,.65.46.91,1,.59a2.26,2.26,0,0,0,1-1.76C354.9,41.93,354.44,41.67,353.88,42Z"/><circle class="cls-8" cx="314.95" cy="155.07" r="10.04"/><circle class="cls-8" cx="304.92" cy="171.9" r="5.18"/><circle class="cls-8" cx="313.66" cy="181.94" r="3.56"/></svg>