<?xml version="1.0" encoding="UTF-8" standalone="no"?>
<svg version="1.1" id="svgAnimation" xmlns="http://www.w3.org/2000/svg" viewBox="0 0 180 190">
  <g id="container">
    <g id="lines">
      <g id="line36">
          <path id="path36" style="fill:#9DCD5D;" d="M0,4.2c0.1,0.4,0.1,0.6,0,1c0.1,1.5,0.3,3.2,0.2,4.7c0.2,3.4,0.3,7.1,0.4,10.4
              c-0.1,2.9,0,6.1,0,9.1c-0.1,1.7-0.2,3.3-0.3,5.2c-0.1,1.7-0.2,3.5-0.1,5.1c0.1,0.6,0.4,1.1,1.1,1.2c0.4,0.1,0.9-0.3,0.9-0.7
              s0.3-0.8,0.2-1.2c0.8-7.1,0.9-14,0.8-21c-0.1-3-0.3-5.7-0.4-8.7c-0.1-1.5-0.1-3-0.1-4.3c0.1-1.5,0.4-3.7-0.9-4.8
              C1.2-0.4,0.4,0.1,0.1,0.9C0,2.2,0,3.2,0,4.2z"/>
      </g>
      <g id="line35">
          <path id="path35" style="fill:#8AC86D;" d="M0,3.1c0.1,1.6,0.3,3,0.2,4.5c0.1,3.5,0.1,7,0.2,10.5c0.1,7,0,14,0,20.8
              c0,1.3-0.2,2.8-0.1,4.2c0,0.6-0.2,3.4,0.8,3.8c0.2,0.1,0.3-0.1,0.4-0.1c1.8-0.6,1.3-3.5,1.4-5c0.4-1.7,0.6-3.3,0.5-5.1
              c0.2-3.4,0.1-6.9,0.1-10.4c0-2.4-0.1-5.2-0.1-7.6c-0.2-3.2-0.1-6.4-0.2-9.7c0-1.3-0.1-2.7,0-4.3c0-1.1,0.1-2.6-0.3-3.6
              C2.6,0.5,1.9-0.1,1.2,0c-1.1,0-1.1,1.4-1.2,2C0.1,2.3,0.1,2.7,0,3.1z"/>
      </g>
      <g id="line34">
          <path id="path34" style="fill:#73C081;" d="M2.3,52.5c-0.4,0.3-0.7,0.4-1,0.2c-0.7-0.4-0.8-1.2-0.9-1.9c0-0.9,0-2,0-3.1
              c0.2-7,0.2-14,0.2-21c0.1-3.5-0.1-6.9,0-10.6c0-1.7-0.1-3.6-0.1-5.3C0.4,8-0.1,5.3,0,2.5C0,1.8,0.1,1.1,0.5,0.4
              C1.1-0.2,1.9,0,2.4,0.5C2.8,1,3,1.5,2.9,2.2c0.3,2.1,0.4,4,0.4,6C3.8,15.1,3.6,22,3.6,28.9c0.1,2.9-0.1,5.7,0,8.6
              c-0.1,2.8,0,5.5-0.3,8.2c0,1.2-0.3,2.5-0.3,3.6c-0.1,0.6-0.1,1.1-0.3,1.8c-0.1,0.2,0,0.4-0.1,0.6C2.3,52.1,2.4,52.4,2.3,52.5z"/>
      </g>
      <g id="line33">
          <path id="path33" style="fill:#5BB995;" d="M2.7,43.7c0.6-5.8,0.9-11.8,0.8-17.5c0-0.6-0.1-1.1,0.2-1.8c0.1-3.4,0.1-6.7-0.2-9.9
              C3.4,11.1,3.5,7.4,3.3,4c0-0.6-0.1-1.1-0.2-1.8c0.1-0.7,0-1.6-0.8-2c-0.8-0.6-1.9,0-2.1,1c-0.3,1-0.1,2.1,0,3.3
              c0.6,6.8,0.5,13.7,0.2,20.6c-0.1,3.4-0.1,7-0.1,10.2c0.1,2.8,0,6,0.4,9.1c0.1,1.1,1.6,1.1,1.8,0.2C2.6,44.1,2.5,43.8,2.7,43.7z"/>
      </g>
      <g id="line32">
          <path id="path32" style="fill:#4CB5A2;" d="M2.7,35.2C3,34.4,3,33,3.1,32.4C2.7,22.5,2.8,12.3,3.1,2.3c0.1-0.8,0-1.9-0.8-2.3
              c-0.7-0.2-1.4,0.1-1.9,1C0.1,1.9,0.1,2.6,0.1,3.3C0.6,13.4-0.6,23.8,0.5,34c0.1,0.4,0.2,1.8,0.9,1.7l0.4-0.1
              C2.2,35.6,2.4,35.5,2.7,35.2z"/>
      </g>
      <g id="line31">
          <path id="path31" style="fill:#40B1AC;" d="M3.1,26.5c0.3-1.9,0.1-3.9,0.1-5.6C3,18.8,3,16.6,3,14.5c0-3.4-0.1-6.7,0-10.2
              c0-0.7-0.1-1.7,0-2.4c0-0.4,0-1.2-0.4-1.5C2-0.2,0.9-0.1,0.5,0.7C0.2,1.3,0.3,1.9,0.3,2.7c0,0.7,0.1,1.7-0.2,2.6
              C0.2,7-0.1,8.8,0,10.5c0,3.4,0.1,7,0.3,10.3c0,0.4,0,0.7,0,1.2c0,1.2,0.2,2.3,0.1,3.5c0,0.7,0.1,4,1.8,2.7c0.2-0.1,0.4-0.5,0.5-0.8
              C3.1,27,3,26.8,3.1,26.5z"/>
      </g>
      <g id="line30">
          <path id="path30" style="fill:#2FACBA;" d="M2,31.6C2.2,31.5,2.2,31.5,2,31.6c0.2-1.1,0.3-2.1,0.4-3.2c0-8.7-0.3-17.6-0.2-26.3
              c0-0.4,0.1-0.9-0.1-1.4C1.9,0.4,1.5-0.1,1.1,0c-0.4,0-0.9,0.4-1,0.8C0,1.1,0,1.5,0,1.7c0,7,0.1,14.1,0,21c0.2,1.5,0.1,3.1,0.2,4.6
              c0,0.6,0.2,1.5,0.2,2.2c0,0.6-0.1,1.4,0.1,2C0.6,32.4,1.7,32.6,2,31.6z"/>
      </g>
      <g id="line29">
          <path id="path29" style="fill:#25A9C3;" d="M2.5,33.9C2.7,26.6,2.7,19.6,3,12.3C3.1,10.6,3,9,3.1,7.3c0.1-0.8-0.1-1.7,0-2.3
              c0.1-0.6,0.1-1.5,0-2.1c0.1-0.6,0-1-0.3-1.7C2.5,0.7,2.2,0.2,1.6,0C1.2,0.1,0.8,0.3,0.5,0.6C0.3,1,0.2,1.5,0.1,2
              c-0.2,3.4,0,7-0.1,10.4c0,3.6,0.1,7.2,0,10.8c0.3,3.8,0.3,7.6,0.3,11.2c0.1,0.4-0.1,0.8,0.2,1.3c0.3,0.6,0.7,0.7,1.3,0.4
              C2.6,35.6,2.6,34.6,2.5,33.9z"/>
      </g>
      <g id="line28">
          <path id="path28" style="fill:#1BA6CB;" d="M2.6,39.6c0.2-0.4,0.2-0.8,0.2-1c0-3.1,0.2-6.3,0.2-9.4c0-3.5,0-7.1-0.2-10.6
              C2.7,13.2,2.7,8,2.9,2.5c0-0.4,0-1,0-1.5c-0.2-0.4-0.4-1-1-1C1.3-0.2,0.7,0.4,0.2,0.8C0,1.4,0,2.1,0,2.7C0,10,1,17.3,0.8,24.6
              c0,3.1-0.2,6.3-0.2,9.2c0,1.5,0,3.1,0,4.6c0,0.6,0.6,1.9,1.2,1.9C2.4,40.2,2.6,40,2.6,39.6z"/>
      </g>
      <g id="line27">
          <path id="path27" style="fill:#1AA5CC;" d="M2.2,46.1L2.4,46c0.3-0.4,0.3-0.8,0.2-1.3c0.1-0.8,0.1-1.7,0-2.5
              c-0.1-0.8,0.1-1.7,0.1-2.7c0.1-1.7,0-3.6,0.1-5.3c0-3.6,0.2-7.2,0.1-10.7C3.1,19,3,14.5,3,10C3,7.3,2.9,4.8,2.8,2
              C2.8,1.4,2.9,0.5,2.4,0.2c-0.7-0.5-1.7,0.1-2.1,1c-0.4,1,0,2.5,0,3.6C0.8,11.6,1,18.6,0.7,25.6c-0.2,3.3-0.4,6.9-0.6,10.3
              c-0.1,1.7,0,3.6-0.1,5.3c0.1,0.8,0.1,1.7,0.2,2.6c0.1,0.6-0.1,1.5,0.3,2C0.9,46.1,1.7,46.5,2.2,46.1z"/>
      </g>
      <g id="line26">
          <path id="path26" style="fill:#0DA2D7;" d="M2.8,36.5c0.2-7.1,0.1-14,0-21.1c0.1-3.1,0-6-0.1-9.2c0-1.6,0.1-3.1-0.1-4.5
              c0-1.1-0.5-2-1.9-1.5c-0.8,0.4-0.4,1.7-0.4,2.3c0.4,6.8,0.2,13.8,0.2,20.7c0,1.8-0.2,3.4-0.1,5.1c0,6.7-0.2,13.3-0.3,20.1
              c0,0.4,0,1.1,0.2,1.7S1,51,1.5,51c0.9-0.1,1.1-1.2,1-2.1C2.6,44.8,2.7,40.7,2.8,36.5z"/>
      </g>
      <g id="line25">
          <path id="path25" style="fill:#0FA2D5;" d="M3,28.8c0.2-2.6-0.1-5.2,0-7.8c-0.1-3.5-0.2-6.9-0.1-10.3C2.9,9,2.7,7.2,2.8,5.5
              c0-0.7,0.1-1.7-0.2-2.6c0-0.7,0.2-1.4,0-2c0-0.7-1.1-1.1-1.6-1S0.1,0.7,0.1,1.5C0,2.9,0,4.1,0.2,5.4c0,1.5,0.3,2.8,0.3,4.3
              c0.2,3,0.4,5.8,0.4,8.7c0,7.8-1.1,15.7-0.5,23.6c0.1,0.5,0.2,1.3,0.6,1.3c0.5,0.3,1-0.1,1.4-0.7c0.3-0.5,0.3-1,0.4-1.5
              C2.7,37.4,2.8,33.2,3,28.8z"/>
      </g>
      <g id="line24">
          <path id="path24" style="fill:#0EA2D6;" d="M3.1,22.7c0-4,0-8.2-0.1-12.3c0-2.7,0-5.5-0.3-8.1c0.1-0.4-0.1-0.8-0.1-1.1
              c-0.1-0.6-0.2-1-0.7-1.1C1-0.4,0,0.8,0.1,1.6c0.1,1.8,0.1,3.5,0,5.2c-0.2,1.8,0.1,3.5-0.1,5.3c0.1,3.5,0.1,7.1,0,10.9
              c0,4.3,0.1,8.5,0,12.7c-0.1,0.4,0,1,0.1,1.4s0.6,0.8,1.2,1c0.8-0.1,1.1-1,1.3-1.9c0.2-1.5,0.1-2.9,0.1-4.4
              C3.1,28.7,3.1,25.7,3.1,22.7z"/>
      </g>
      <g id="line23">
          <path id="path23" style="fill:#0FA3D5;" d="M3,13.8C2.8,10.2,2.8,6.5,2.6,3c0-1,0.1-3-1.6-3C-0.3,0,0,2.4,0.1,3.2
              C0.3,7.5,0.5,12,0.4,16.2s-0.5,8.3-0.2,12.7c0,0.3,0,0.3-0.1,0.6c0.2,0.9,0.2,1.8,0.1,2.9c0.2,0.9,1.4,1.8,1.8,0.7
              c0.5-1.4,0.5-3.1,0.6-4.5c0-1.6,0.2-3.4,0.3-5C3,19.9,3,16.9,3,13.8z"/>
      </g>
      <g id="line22">
          <path id="path22" style="fill:#15A4D0;" d="M2.4,6.2c-0.1-1.3,0-2.9,0-4.1c0-0.4,0-1.2-0.2-1.6C1.9,0,1-0.2,0.5,0.3
              C-0.2,0.7,0.1,1.5,0,2.4C0.2,4.7,0,7,0.2,9.2c0,4.6,0,9.1-0.1,13.9c0,0.7,0.1,1.7-0.1,2.5c0.1,0.2,0.3,2,0.1,2.1
              c-0.2,0.1,0.3,1.2,0.4,1.5c0.3,0.5,1.3,0.2,1.6-0.2c0.2-0.1,0.1-0.3,0.1-0.3c0.2-1.3,0.2-2.6,0.1-3.9c0-4.6,0.1-9,0-13.6
              C2.5,9.5,2.4,7.8,2.4,6.2z"/>
      </g>
      <g id="line21">
          <path id="path21" style="fill:#1CA6CA;" d="M1,0.1C0.5,0.3,0.1,1.2,0.1,2c0,5.1-0.1,10-0.1,15.1c0.1,2.2-0.4,4.6,0.2,6.8
              c0.2,0.6,0.4,1.1,1.1,1.4c2.1,0.1,1.3-4.4,1.3-5.6c0.1-2.1,0.1-4.3,0.2-6.2c0-2.4,0-4.9-0.1-7.5c0-1.3,0-2.4-0.2-3.6
              c0-0.6,0-1.3-0.5-1.9C1.7,0,1.4-0.1,1,0.1z"/>
      </g>
      <g id="line20">
          <path id="path20" style="fill:#24A9C3;" d="M1.7,0.2C1.5-0.1,1.1-0.1,0.5,0.6C0.2,1.1,0.1,1.7,0.2,2.4c0,2.5-0.1,5.1-0.2,7.6
              c0,1.2,0,2.5,0.1,4c0,1-0.2,2.4,0.8,3.2c0.5,0.5,1.5,0.1,1.9-0.3S3,15.9,3,15.2C3,12.5,2.9,9.8,2.9,7c0-1.2,0-2.3-0.2-3.5
              C2.6,2.6,2.4,0.7,1.7,0.2z"/>
      </g>
      <g id="line19">
          <path id="path19" style="fill:#2DABBC;" d="M1.8,0.1c-0.4-0.2-0.6,0-1,0.4C0.4,1.1,0.3,1.7,0.3,2.6C0.1,4.1,0.1,5.5,0,7
              c0,0.8,0,1.5,0,2.3c0,0.6,0,1.5,0.4,2.1c0.4,0.4,1.3,0.2,1.7-0.2c0.2-0.2,0.2-0.6,0.2-1c0.2-2.5,0.3-5,0.3-7.3c0-0.6,0-1.2-0.4-1.9
              C2.2,0.3,2,0.1,1.8,0.1z"/>
      </g>
      <g id="line18">
          <path id="path18" style="fill:#34AEB6;" d="M3,17.6c-0.1-2.3-0.1-4.9-0.2-7.2C2.7,8.7,2.7,7,2.6,5.3c0-1.2,0.7-4.5-1.1-5.2
              c-1.8-0.7-1.3,3.5-1.3,4.5c0.1,2.1,0.1,4.5,0,6.6c0.1,2.1-0.3,4.4-0.2,6.5c0,1.5-0.3,3.3,0.6,4.5c1.3,1.4,2.3-0.1,2.3-1.4
              C2.9,19.7,2.8,18.7,3,17.6z"/>
      </g>
      <g id="line17">
          <path id="path17" style="fill:#3FB1AD;" d="M3.1,28.6c0.4-1.7,0-3.7,0.1-5.1c0-2.2-0.2-4.5-0.1-7c0-2.9-0.2-5.6-0.2-8.5
              c0-1.3,0-2.9,0-4.3C2.9,3,2.9-1.3,0.8,0.4c-1.3,1.3-0.5,4.3-0.5,5.8c0,2.4,0,4.9,0,7.3c0,4.9-0.1,9.8,0,14.6c0,1.1,1,3.9,2.3,1.7
              C2.8,29.6,2.9,29.2,3.1,28.6z"/>
      </g>
      <g id="line16">
          <path id="path16" style="fill:#48B4A5;" d="M2.4,32.3C2.4,27,2.5,22,2.5,16.7c0.1-5.1,0.3-9.9,0.2-15.1c0-1.2-1.4-2.2-2.3-1.1
              c-0.9,1.2-0.2,3.3-0.2,4.8c0,2.5-0.1,4.6-0.1,6.9c0,4.9-0.1,9.6,0,14.3c-0.1,1.7,0,3.4,0,4.9c0,0.7-0.1,2.1,0.4,2.7
              C1.8,35.8,2.3,33.2,2.4,32.3z"/>
      </g>
      <g id="line15">
          <path id="path15" style="fill:#5CBA94;" d="M2.3,39.5c0.6-2,0.5-5.4,0.4-5.9c0.1-3.4,0-6.8,0.1-10.2C3.1,16.2,3.2,8.9,2.8,1.7
              c0-0.6-0.2-1-0.8-1.4C0.3-0.9,0.1,1.7,0,2.7C-0.1,4.8,0.4,6.8,0.4,9c0,3.3,0.1,6.4,0.1,9.6c-0.1,7,0,13.6-0.1,20.6
              c-0.1,0.4,0.1,0.8,0.2,1.3C1.2,41.8,2,40.4,2.3,39.5z"/>
      </g>
      <g id="line14">
          <path id="path14" style="fill:#6FBF84;" d="M2.7,32.2c0.1-1.4,0.1-2.8,0.2-3.7c0.2-2.7,0.2-5.4,0.3-8.3C3.3,14.6,3,8.9,2.7,3.1
              c-0.1-1-0.3-3.6-1.8-3.1C-0.4,0.4,0.1,3,0.3,3.8c0,1.3,0.3,2.7,0.4,4c0.1,2.7,0.2,5.3,0,8c-0.1,3.1-0.2,6.2-0.3,9.3
              c0.1,1.6-0.1,3.1-0.1,4.7c0.1,1-0.4,3.1,0.4,4C1.6,36.4,2.6,33.1,2.7,32.2z"/>
      </g>
      <g id="line13">
          <path id="path13" style="fill:#81C575;" d="M3,29.5c0.5-1.5,0.3-3.7,0.2-5.2c0-2,0-3.8,0-6c0-4.6,0-9.3-0.1-14.1
              C3,3.4,3.2,2.5,3,1.7C2.7,0.9,2.4,0.3,1.6,0c-2.7-0.4-1.1,4.7-1.2,6c0.2,2.3,0.3,4.4,0.3,6.5c0,2.4,0,5.1,0,7.5
              c0.1,2.6-0.1,5.3-0.3,7.9c-0.2,0.5-0.1,1.5,0.2,2c0.4,0.7,1.2,0.8,1.5,0.3C2.7,30.1,2.8,29.8,3,29.5z"/>
      </g>
      <g id="line12">
          <path id="path12" style="fill:#9CCD5E;" d="M2.6,38.1c0.9-1.2,0.5-3,0.4-4.6c-0.3-7-0.4-14.1-0.2-21.2c0-2.2,0-4.5,0.1-6.7
              c0-1.1,0-2.2,0.1-3.3c0-0.6-0.1-1.4-0.4-1.9C2-0.1,1.1-0.2,0.5,0.3C0,0.7,0.1,1.5,0.2,2.2C0.6,9,0.1,15.7,0,22.4
              c0.1,2.6-0.1,5.3,0,8c0.1,1.4,0.1,2.6,0.2,4.2c0,1.1,0,2.4,0.4,3.6C1.1,39,2.2,38.8,2.6,38.1z"/>
      </g>
      <g id="line11">
          <path id="path11" style="fill:#B7D546;" d="M2.3,40.4c0.3-0.7,0.1-1.5,0.2-2.4c0-0.8,0.1-1.7-0.1-2.7c0.1-1.7-0.1-3.6,0-5.3
              c-0.1-3.6-0.2-7.2,0-10.8c0-3.2,0-6.2,0.1-9.4c0-3,0.4-6-0.2-8.9C2.2,0.3,1.5-0.3,0.9,0.1c-0.6,0.3-0.8,1-0.7,1.7
              c0,0.8-0.1,1.7-0.1,2.6C0,6.1,0.2,7.9,0.1,9.7C0.2,13.2,0,16.9,0,20.3C0,26.2,0,32,0.1,37.9c0,0.8,0.5,3.8,2.1,2.8
              C2.2,40.8,2.4,40.6,2.3,40.4z"/>
      </g>
      <g id="line10">
          <path id="path10" style="fill:#DCE027;" d="M2.8,45.5l0-0.8c0.4-7.1,0-14.2,0-21.3s0-14.4,0-21.5C3,1.1,2.8,0,1.8,0
              c-1-0.2-1.5,0.8-1.5,1.7C0,8.8,0,16.1,0,23.2s0.2,14,0.4,21.1c0,0.8-0.2,2.1,0.6,2.7C2.2,48,2.8,46.3,2.8,45.5z"/>
      </g>
      <g id="line9">
          <path id="path9" style="fill:#FAE90F;" d="M1.7,52.6c1,0,0.9-1.8,0.9-2.6c0.1-1.7,0-3.4-0.1-4.9c-0.1-1.7,0-3.6,0-5.3
              c0-3.6,0.1-7.2,0-10.6c-0.1-0.8,0.1-1.7,0.1-2.5c-0.1-0.8,0.1-1.7,0.1-2.5c0.1-1.7,0-3.6,0.2-5.3c0-5.7,0.4-11.4,0.4-16.9
              c0.1-0.4,0-1-0.2-1.4C2.5-0.2,1.4-0.2,0.9,0.5C0.6,0.9,0.5,1.3,0.6,1.8C0.4,8.8,0.6,16,0.3,23c-0.1,7-0.5,14.1-0.1,21
              c0.1,1.7,0.2,3.4,0.3,5.1c0.1,0.8-0.1,1.7,0.1,2.6C0.8,52,1.1,52.5,1.7,52.6z"/>
      </g>
      <g id="line8">
          <path id="path8" style="fill:#ECE51A;" d="M2.7,22.3c0-2.4,0-5.1,0-7.5c0-2.4-0.1-4.7,0.1-7.1c0-1.1,0-2.4,0-3.5
              c0-1.1,0.1-2.2-0.2-3.1C2.3,0.6,1.9,0,1.4,0C0.7,0,0.3,0.7,0,1.3c-0.1,1,0.1,2.2,0.2,3.1c0,1.1,0.1,2.2,0.1,3.3
              c0.1,2.2,0,4.6,0,6.9c0.1,0.4-0.1,0.8-0.1,1.4c0.1,4.7-0.1,9.5,0.1,14.2c0,4.5,0,8.6,0.3,12.9c0.1,0.4,0.1,0.9,0.1,1.4
              c0.1,0.4,0.6,0.6,1.1,0.6c0.7-0.2,0.8-1.1,0.8-1.7c0.1-4.8,0.3-9.5,0.2-14.4C2.8,26.7,2.9,24.5,2.7,22.3z"/>
      </g>
      <g id="line7">
          <path id="path7" style="fill:#E1E223;" d="M2.9,26.2c0.2-2.5,0.3-5.3,0.4-7.9c0.1-4.5-0.2-9.1-0.2-13.8C3,3.3,3.2,2.2,2.8,1
              C2.6,0.2,1.3-0.5,0.5,0.4C0.2,1,0,1.9,0,2.6C0.1,3.3,0,4.3,0,5c-0.1,1.4,0.2,2.7,0.1,4.1c0,2.4,0.1,4.6,0.1,7c0,0.4,0,0.9,0,1.2
              c0,3.5-0.4,7,0.2,10.4c0.1,0.7,0.4,1.4,1.1,1.5c0.4,0,0.8-0.2,1-0.6s0.2-0.8,0.3-1.3C2.8,27.1,2.9,26.6,2.9,26.2z"/>
      </g>
      <g id="line6">
          <path id="path6" style="fill:#DCE028;" d="M3,16.9c0.1-0.7,0.1-1.6,0.1-2.4c0-4.1,0.1-8.2,0-12.1c0-0.6,0.1-1-0.1-1.4
              C2.7,0.4,2-0.2,1.3,0C0.2,0.1-0.1,1.6,0,2.5c0.1,6.9,0.4,14,0.3,21c0,2.3,0.1,4.4-0.1,6.5c-0.1,1,0,2.3,0,3.3
              c0,0.6,0.5,2.7,1.5,1.8c0.1-0.2,0.4-0.5,0.5-0.6C2.8,28.8,2.9,22.8,3,16.9z"/>
      </g>
      <g id="line5">
          <path id="path5" style="fill:#CFDC32;" d="M3.1,5.2c0-0.6-0.1-1-0.1-1.6c0.1-0.1-0.1-1.3-0.1-1.3c0-0.6-0.1-1-0.2-1.4
              C2.4,0.4,1.7-0.2,1.2,0.1C-0.2,0.5,0,1.9,0.1,3c0.2,6.9,0.3,13.8,0.3,20.9c0,0.6,0.3,3.5,1.4,3.2c1-0.4,1.3-1.4,1.4-2.2
              C3.5,18.1,3.3,11.7,3.1,5.2z"/>
      </g>
      <g id="line4">
          <path id="path4" style="fill:#BDD742;" d="M2.7,8.1c0-1.2-0.1-2.6-0.1-3.8c0.1-1,0.4-2.2,0-3.2C2.4,0.3,1.3-0.5,0.5,0.4
              C0.1,0.9,0,1.4,0,2.1C0,4.9,0,7.3,0.1,9.9c0,2.5,0.2,4.8,0.4,7c0,0.7,0.5,2.4,1.5,2c0.8-0.2,0.8-1.2,0.8-1.9
              c0.2-0.8,0.1-1.8,0.1-2.7c0.1-1.8,0-3.6-0.2-5.5C2.6,8.6,2.7,8.4,2.7,8.1z"/>
      </g>
      <g id="line3">
          <path id="path3" style="fill:#BCD742;" d="M2.7,2.4C2.8,2.1,2.8,2.1,2.7,2.4c0-1.1-0.2-1.7-1.1-2.3C1.5-0.1,1.3,0,1.1,0.1
              L0.5,0.3C0.4,0.4,0.4,0.4,0.4,0.6C0,1.1,0,1.6,0.1,2.3C0.2,3.1,0.1,4.1,0,5C0.1,6.8,0,8.4,0,10.2c0,4-0.1,8.3,0.4,12.4
              c0.1,0.4,0.3,1.2,1,1.4L1.6,24l0.7-0.3c0,0,0.2-0.1,0.3-0.3c0,0,0.2-0.1,0.1-0.3c0.8-1.6,0.4-3.5,0.4-5.3c0.1-2.1,0-4-0.1-6
              c0-2.2-0.1-4.5-0.1-6.6C2.8,4.4,2.8,3.2,2.7,2.4z"/>
      </g>
      <g id="line2">
          <path id="path2" style="fill:#B2D44B;" d="M0.1,23.3c-0.1,1.9-0.2,4.3,0.3,6c0,0,0.2,0.2,0.3,0.4l0,0.2c0,0.2,0.2,0.2,0.4,0.1
              c1.3,0,1.5-1.1,1.5-2.2c0.2-3.6,0.3-7.1,0.2-10.6c-0.1-1.7-0.2-3.3-0.1-5.3c-0.1-1.7,0-3.6,0.1-5.3c-0.1-0.4,0-1-0.1-1.5
              c0.1-0.8-0.1-1.7,0-2.5C2.5,1.9,2.4,1,2,0.2C1.8-0.1,1.2,0,0.7,0.3C0.4,0.5,0.4,0.9,0.3,1.4c-0.1,7,0,8.4-0.2,15.5
              C0.3,17.1,0,22.8,0.1,23.3z"/>
      </g>
      <g id="line1">
          <path id="path1" style="fill:#A0CE5A;" d="M1.4,0C1,0,0.8,0.2,0.5,0.4C0.4,0.8,0.1,1.2,0.1,1.6C0,4.9,0,8.9,0.1,12.2
              c0,3.5,0,6.9,0,10.6c0,4.2,0,8.5,0,12.7c0,0.6,0,2.3,1,2.1c0.4,0,0.8-0.4,1-1c0-0.4,0.2-0.6,0.2-1c0.6-6.9,0.4-13.9,0.2-20.8
              c0-3.5-0.2-7.3,0.2-10.8c0-0.4,0-0.8,0-1.5c0-0.2,0-0.4,0-0.6c0-0.4,0-1-0.4-1.7C2.3,0.2,1.9,0,1.4,0z"/>
      </g>
    </g>
  </g>
  <g id="letters">
	<path id="letter8" style="fill-opacity:0;" class="st36 char" d="M172.4,185.3v-18.7h-3.3v21.6H181v-2.9L172.4,185.3L172.4,185.3z"/>
	<path id="letter7" style="fill-opacity:0;" class="st36 char" d="M139.2,177.6c0-3.1,1-5.6,3.3-7.9c2.3-2.3,5-3.3,8.1-3.3s5.8,1,7.9,3.3
		c2.3,2.3,3.3,4.8,3.3,7.9c0,3.1-1,5.8-3.3,7.9c-2.3,2.3-5,3.3-8.1,3.3c-2.9,0-5.4-1-7.5-2.9C140.5,184,139.2,181.1,139.2,177.6z
		 M142.6,177.8c0,2.5,0.8,4.4,2.5,6c1.7,1.5,3.5,2.3,5.6,2.3c2.3,0,4.2-0.8,5.8-2.3c1.7-1.7,2.3-3.5,2.3-5.8s-0.8-4.4-2.3-5.8
		c-1.5-1.7-3.5-2.3-5.8-2.3s-4.2,0.8-5.8,2.3C143.4,173.4,142.6,175.5,142.6,177.8z"/>
	<path id="letter6" style="fill-opacity:0;" class="st36 char" d="M129,182.1l-10.4-15.6h-3.1v21.6h3.3v-15.8l10.4,15.8h3.1v-21.6H129V182.1z"/>
	<path id="letter5" style="fill-opacity:0;" class="st36 char" d="M101.7,166.5h-3.3l-7.9,21.6H94l1.9-5.4h8.4l1.9,5.4h3.5l-7.9-21.4L101.7,166.5L101.7,166.5z
		 M103.1,179.8h-6.3l3.1-8.7L103.1,179.8z"/>
	<path id="letter4" style="fill-opacity:0;" class="st36 char" d="M71,169.2h6.3v18.9h3.3v-18.9h6.3v-2.7H71V169.2z"/>
	<path id="letter3" style="fill-opacity:0;" class="st36 char" d="M45.5,177.6c0-3.1,1-5.6,3.3-7.9c2.3-2.3,5-3.3,8.1-3.3s5.8,1,7.9,3.3
		c2.3,2.3,3.3,4.8,3.3,7.9c0,3.1-1,5.8-3.3,7.9c-2.3,2.3-5,3.3-8.1,3.3c-2.9,0-5.4-1-7.5-2.9C46.8,184,45.5,181.1,45.5,177.6z
		 M48.9,177.8c0,2.5,0.8,4.4,2.5,6c1.7,1.5,3.5,2.3,5.6,2.3c2.3,0,4.2-0.8,5.8-2.3c1.7-1.7,2.3-3.5,2.3-5.8s-0.8-4.4-2.3-5.8
		c-1.5-1.7-3.5-2.3-5.8-2.3s-4.2,0.8-5.8,2.3C49.5,173.4,48.9,175.5,48.9,177.8z"/>
	<path id="letter2" style="fill-opacity:0;" class="st36 char" d="M34.7,175.7h-10v-9.2h-3.3v21.6h3.3v-9.6h10v9.6H38v-21.6h-3.3V175.7z"/>
	<path id="letter1" style="fill-opacity:0;" class="st36 char" d="M11.5,167.4c-1-0.6-2.5-0.8-4.2-0.8H0v21.6h3.3v-8.7h4c1.7,0,3.1-0.2,4.2-0.8
		c1-0.6,1.9-1.5,2.5-2.3c0.6-1,0.8-2.1,0.8-3.3s-0.2-2.3-0.8-3.3C13.6,168.6,12.5,167.8,11.5,167.4z M3.3,169.4h4
		c1.5,0,2.7,0.4,3.3,0.8c0.6,0.6,0.8,1.5,0.8,2.7c0,1-0.2,2.1-0.8,2.7c-0.6,0.6-1.7,0.8-3.3,0.8h-4C3.3,176.4,3.3,169.4,3.3,169.4z"
		/>
  </g>
  <style>
    @keyframes lines {
      0% { transform: rotate(90deg);}
      100% { transform: rotate(180deg);}
    } 
    
    @keyframes path {
      0% { transform: scale(0);}
      100% { transform: scale(1);}
    } 
    
    @keyframes chars {
      0% { fill-opacity: 0; }
      100% { fill-opacity: 1; }
    }
    
    #container {
      transform: translate(48%, 42%);
    }
    
    #lines {
      animation-timing-function: cubic-bezier(.1,.1,0,1);
      animation-duration: 6s;
      animation-name: lines;
      transform: rotate(180deg)
    }
    
    #lines path {
      animation-timing-function: cubic-bezier(0,0,0,1);
      animation-duration: 5s;
      animation-name: path;
      animation-fill-mode: forwards;
      transform: scale(0);
    }
    
    .char {
      animation-timing-function: cubic-bezier(.75,0,1,0.75);
      animation-duration: 1s;
      animation-name: chars;
      animation-fill-mode: forwards;
      fill: #fff;
    }
    
  </style>
  <script><![CDATA[
    const nrOfLines = 36;
    for (var i =  0; i < nrOfLines; i++) {
      var line = document.getElementById("line"+(i+1));
      var degrees = (360 / nrOfLines) * i;
      line.style.transform = "rotate("+degrees+"deg) translate(0px, 38px)";
      var path = document.getElementById("path"+(i+1));
      var length = path.getAttribute('d').length
      path.style.animationDelay = (455-length) * 2 + 'ms';
    }
    
    for (var i = 0; i < 8; i++) {
      var char = document.getElementById("letter"+(i+1));
      char.style.animationDelay = 2 + (i * .15) + 's';
    } 
  
  ]]></script>
</svg>