<?xml version="1.0" encoding="utf-8"?>
<!-- Generator: Adobe Illustrator 24.2.3, SVG Export Plug-In . SVG Version: 6.00 Build 0)  -->
<svg version="1.1" id="Layer_1" xmlns="http://www.w3.org/2000/svg" xmlns:xlink="http://www.w3.org/1999/xlink" x="0px" y="0px"
	 viewBox="0 0 300 300" style="enable-background:new 0 0 300 300;" xml:space="preserve">
<style type="text/css">
	.st0{fill:url(#SVGID_1_);}
</style>
<linearGradient id="SVGID_1_" gradientUnits="userSpaceOnUse" x1="80.0168" y1="116.1697" x2="204.3177" y2="220.7789" gradientTransform="matrix(1 0 0 -1 0 301)">
	<stop  offset="0" style="stop-color:#009EE2"/>
	<stop  offset="9.379900e-02" style="stop-color:#05A0DD"/>
	<stop  offset="0.2124" style="stop-color:#15A4D0"/>
	<stop  offset="0.3445" style="stop-color:#2FACBA"/>
	<stop  offset="0.4862" style="stop-color:#53B79C"/>
	<stop  offset="0.6357" style="stop-color:#82C574"/>
	<stop  offset="0.7918" style="stop-color:#BAD644"/>
	<stop  offset="0.95" style="stop-color:#FCEA0D"/>
</linearGradient>
<path class="st0" d="M101.3,57c0.2-0.4,0.4-0.6,0.8-0.6c0.8,0,1.3,0.6,1.7,1.2c0.4,0.8,1,1.7,1.5,2.7c3.3,6.2,6.7,12.3,10.2,18.3
	c1.7,3.1,3.5,6,5.2,9.2c0.8,1.5,1.9,3.1,2.7,4.6c1.5,2.5,3.3,4.6,4.6,7.1c0.4,0.6,0.6,1.2,0.6,2.1c-0.2,0.8-1,1-1.7,0.8
	c-0.6-0.2-1-0.6-1.3-1.2c-1.3-1.7-2.3-3.3-3.3-5c-3.8-5.8-7.1-11.9-10.4-17.9c-1.5-2.5-2.7-5-4.2-7.5c-1.3-2.5-2.7-4.8-3.8-7.3
	c-0.6-1-1-2.3-1.5-3.3c-0.2-0.6-0.4-1-0.6-1.7c0-0.2-0.2-0.4-0.2-0.6C101.5,57.4,101.3,57.2,101.3,57z M237.2,119.4
	c-0.2-1-1.9-0.6-2.7-0.4c-1.7,0.2-3.3,0.6-4.8,1c-1.7,0.4-3.5,0.6-5.2,1c-3.5,0.6-7.1,1.2-10.4,1.9c-0.8,0.2-1.7,0.2-2.5,0.4
	c-0.8,0.2-1.7,0.2-2.5,0.4c-1.7,0.2-3.5,0.6-5.2,0.8c-5.6,1-11.3,1.7-16.7,2.7c-0.4,0-1,0.2-1.3,0.4c-0.8,0.6-0.6,1.7,0.2,2.1
	c0.4,0.2,0.8,0.2,1.3,0c6.9-1,14-2.5,20.9-3.5c6.9-1.2,14-2.1,20.7-3.7c1.7-0.4,3.3-0.8,5-1.2c0.8-0.2,1.7-0.2,2.5-0.6
	C236.7,120.4,237.2,120,237.2,119.4z M134.7,96.3c-0.6-1.5-1.3-2.7-1.7-4.2c-1.3-3.3-2.5-6.5-3.8-9.8c-2.5-6.5-4.8-13.1-7.1-19.6
	c-0.4-1.2-0.8-2.7-1.3-4c-0.2-0.6-1-3.3-2.1-3.3c-0.2,0-0.2,0.2-0.4,0.2c-1.5,1.2,0,3.7,0.4,5.2c0.2,1.7,0.6,3.3,1.3,5
	c1,3.3,2.3,6.5,3.5,9.8c0.8,2.3,1.9,4.8,2.7,7.1c1.3,2.9,2.3,6,3.5,9c0.4,1.2,1,2.5,1.5,4c0.4,1,0.8,2.5,1.5,3.3
	c0.4,0.6,1.3,1,1.9,0.6c1-0.4,0.6-1.7,0.4-2.3C134.9,97.1,134.7,96.7,134.7,96.3z M93.9,73.8c3.3,4.8,6.9,9.6,10.6,13.9
	c0.4,0.4,0.8,0.8,1,1.5c2.1,2.7,4.2,5.2,6.5,7.5c2.3,2.5,4.6,5.4,6.9,7.9c0.4,0.4,0.8,0.8,1.3,1.2c0.4,0.6,1,1.2,1.9,1
	c1,0,1.5-1.2,1-2.1c-0.4-1-1.3-1.7-2.1-2.5c-4.8-4.8-9.2-10.2-13.4-15.6c-2.1-2.7-4.4-5.4-6.5-7.9c-1.9-2.1-3.8-4.6-6.1-6.7
	c-0.8-0.8-1.9,0.2-1.5,1C93.7,73.4,93.9,73.6,93.9,73.8z M230.9,134.6h-0.8c-7.1-0.4-14.2,0-21.3,0c-7.1,0-14.4,0-21.5,0
	c-0.8,0-1.9,0.2-1.9,1.2c-0.2,1,0.8,1.5,1.7,1.5c7.1,0.2,14.4,0.2,21.5,0.2c7.1,0,14-0.2,21.1-0.4c0.8,0,2.1,0.2,2.7-0.6
	C233.4,135.2,231.7,134.6,230.9,134.6z M140.9,93c-0.2-0.4-0.2-0.6-0.2-1c-0.4-1.5-0.8-3.1-1-4.6c-0.8-3.3-1.5-6.9-2.1-10.2
	c-0.4-2.9-1-6-1.5-9c-0.2-1.7-0.4-3.3-0.6-5.2c-0.2-1.7-0.4-3.5-0.8-5c-0.2-0.6-0.6-1-1.3-1c-0.4,0-0.8,0.4-0.8,0.8s-0.2,0.8,0,1.2
	c0.4,7.1,1.5,13.9,2.7,20.8c0.6,2.9,1.3,5.6,1.9,8.5c0.4,1.5,0.6,2.9,0.8,4.2c0.2,1.5,0.2,3.7,1.7,4.6c0.8,0.6,1.5,0,1.7-0.8
	C141.3,95,141.1,94,140.9,93z M203.8,113.2c-2.3,0.8-4.8,1.7-7.1,2.5c-2.3,0.8-4.4,1.7-6.7,2.3c-1,0.4-2.3,0.8-3.3,1.2
	c-1,0.4-2.1,0.6-2.9,1.2c-0.4,0.4-0.8,1-0.6,1.5c0.2,0.6,1,0.8,1.7,0.8c1-0.2,2.1-0.8,2.9-1.2c1-0.4,2.1-0.8,3.1-1.2
	c2.1-0.8,4.4-1.5,6.5-2.3c0.4-0.2,0.8-0.2,1.3-0.4c4.4-1.7,9-3.1,13.4-4.8c4.2-1.5,8.1-2.9,12.1-4.6c0.4-0.2,0.8-0.4,1.3-0.6
	c0.4-0.2,0.4-0.8,0.2-1.2c-0.4-0.6-1.3-0.4-1.9-0.2c-4.6,1.5-9,2.9-13.6,4.6C207.9,111.7,205.8,112.3,203.8,113.2z M77.9,161.9
	c6.7-2.3,13.2-4.8,19.8-7.3c2.9-1,5.6-2.1,8.6-3.3c1.5-0.6,2.9-1,4.2-1.7c1-0.4,1.7-1.2,0.8-2.3c-0.6-0.6-1.7,0.2-2.3,0.4
	c-6.3,2.7-12.9,5-19.4,7.3c-1.7,0.6-3.3,1-4.8,1.7c-6.3,2.3-12.5,4.4-19,6.7c-0.4,0.2-1,0.4-1.5,0.8c-0.4,0.4-0.6,1-0.4,1.5
	c0.4,0.8,1.5,0.6,2.3,0.2C70.1,164.6,73.9,163.3,77.9,161.9z M64.3,150.4l0.2,0.2c0.4,0.2,0.8,0.2,1.3,0c0.8,0,1.7-0.2,2.5-0.4
	c0.8-0.2,1.7-0.2,2.7-0.4c1.7-0.2,3.5-0.6,5.2-0.8c3.5-0.6,7.1-1,10.6-1.7c4.4-0.6,8.8-1.5,13.2-2.3c2.7-0.4,5.2-1,7.9-1.5
	c0.6-0.2,1.5-0.2,1.7-0.8c0.4-0.8-0.4-1.7-1.3-1.9c-1-0.2-2.5,0.4-3.5,0.6c-6.7,1.7-13.6,3.1-20.5,4c-3.3,0.4-6.9,0.8-10.2,1.2
	c-1.7,0.2-3.5,0.6-5.2,0.8c-0.8,0.2-1.7,0.4-2.5,0.6c-0.6,0.2-1.5,0.2-1.9,0.6C64.1,149.2,63.9,150,64.3,150.4z M89.8,170.2
	c2.3-1.2,4.4-2.7,6.7-4c2.9-1.9,5.8-3.7,8.8-5.4c1.5-0.8,2.9-1.9,4.4-2.7c0.6-0.4,1.5-0.8,2.1-1.5c0.6-0.4,1.3-0.6,1.7-1
	c0.6-0.4,0.4-1.5,0-1.9c-0.4-0.4-1-0.4-1.7,0c-1.3,0.6-2.3,1.2-3.3,2.1c-1.3,0.8-2.3,1.7-3.5,2.5c-2.5,1.7-4.8,3.3-7.3,4.8
	c-6.7,4-14,7.1-20.5,11.7c-0.4,0.4-1,0.8-0.8,1.2c0,0.6,0.6,0.8,1.3,0.8s1-0.2,1.5-0.4C82.3,174.4,86,172.3,89.8,170.2z
	 M197.5,194.1c-0.8-1.9-3.1-4.4-3.5-4.8c-2.1-2.7-4.4-5.2-6.5-7.9c-4.4-5.6-9-11.2-14-16.4c-0.4-0.4-0.8-0.6-1.5-0.6
	c-2.1,0.2-0.6,2.3,0,3.1c1.3,1.7,2.9,2.9,4.4,4.6c2.1,2.5,4.2,4.8,6.3,7.3c4.4,5.4,8.8,10.4,13.2,15.8c0.2,0.4,0.6,0.6,1,0.8
	C198.1,196.6,197.9,195,197.5,194.1z M101.3,175.8c3.1-2.5,6.3-5.2,9.4-7.9c2.1-1.7,4.2-3.5,6.1-5.4c0.4-0.2,0.6-0.6,0.8-0.8
	c0.4-0.4,0.6-0.8,0.4-1.2c-0.2-1-1.7-1-2.3-0.4c-1.3,1.2-2.7,2.3-4,3.3c-1.5,1-2.7,2.3-4.2,3.3c-2.7,2.3-5.4,4.6-8.4,6.9
	c-3.3,2.7-6.5,5.4-9.8,8.1c-0.4,0.2-0.8,0.6-1,1c-0.2,0.4-0.2,1,0,1.5c0.6,0.6,1.5,0.2,2.3-0.2c1.3-0.8,2.3-1.7,3.5-2.7
	C96.7,179.6,99,177.7,101.3,175.8z M225.3,148.1c-0.6-0.4-1.5-0.4-2.3-0.6c-0.8-0.2-1.7-0.4-2.7-0.4c-1.7-0.4-3.5-0.6-5.2-1
	c-3.5-0.6-7.1-1.2-10.6-2.1c-3.1-0.6-6.1-1.2-9.2-1.9c-2.9-0.6-5.8-1.5-8.8-1.5c-0.6,0-1.3,0.6-1,1.2c0.2,0.6,0.8,1,1.5,1
	c0.8,0.2,1.7,0.4,2.5,0.6c1.7,0.4,3.5,0.6,5.2,1c3.5,0.6,7.1,1.5,10.4,2.1c5.8,1.2,11.5,2.3,17.3,3.3c0.8,0.2,3.8,0.2,3.1-1.5
	C225.7,148.3,225.5,148.1,225.3,148.1z M218.4,160.2c-0.8-1.2-2.7-1.5-4.2-1.9c-6.7-2.1-13.4-4.4-20-6.9c-2.1-0.8-4.2-1.5-6.3-2.3
	c-1-0.4-2.1-0.8-3.1-1.2c-0.6-0.2-1.3-0.4-1.9-0.2c-0.6,0.2-1,1-0.8,1.7c0.2,0.6,1,0.8,1.7,1c6.5,1.9,12.7,4.6,19,6.9
	c2.5,0.8,5,1.9,7.5,2.7c1.3,0.4,2.5,0.8,4,1.2c1,0.4,2.3,0.8,3.5,0.8C218.8,161.9,219,160.8,218.4,160.2z M188.1,99.4
	c-0.6,0.4-1.3,1-1.9,1.5c-3.1,2.7-6.3,5.2-9.2,7.9c-0.4,0.4-0.8,0.6-1,1c-0.2,0.6-0.2,1.5,0.4,1.9c0.8,0.8,2.1,0,2.7-0.6
	c5.2-4.6,10.4-9.4,15.7-13.9c1.7-1.5,3.3-2.9,5-4.2c0.8-0.6,1.7-1.5,2.5-2.1c0.4-0.4,1.7-2.1,0.4-2.3c-0.2,0-0.6,0-0.8,0
	C197.3,91.9,192.7,95.7,188.1,99.4z M201.9,179.3c-1-1-2.1-1.9-2.7-2.5c-1.9-1.9-4-3.7-6.1-5.6c-4.2-3.7-8.8-7.1-13.4-10.6
	c-0.8-0.6-2.9-2.1-3.5-0.6c-0.6,1.2,1.7,2.5,2.5,2.9c1,0.8,2.3,1.5,3.3,2.3c2.1,1.7,4.2,3.3,6.1,5.2c2.3,2.1,4.6,4.2,6.9,6.2
	c1.3,1,2.3,2.1,3.5,3.1c0.8,0.6,2.1,2.3,3.3,2.3C204.4,182.9,202.5,180,201.9,179.3z M90.2,89.4c0.4,0.8,1.5,1.7,1.9,2.1
	c7.9,6,15.7,12.5,23.2,19.1c0.6,0.6,1.5,1.2,2.3,0.8c0.6-0.4,0.8-1.2,0.4-2.1c-0.4-0.8-1-1.2-1.5-1.7c-8.1-6-15.4-13.5-24-19.1
	c-0.4-0.2-1.5-1-1.9-0.4l-0.2,0.4C90.2,88.8,90.2,89,90.2,89.4z M69.5,136.3c0.4,0.2,0.8,0.2,1,0.2c3.1,0,6.3,0.2,9.4,0.2
	c3.5,0,7.1,0,10.6-0.2c5.4-0.2,10.6-0.2,16.1,0c0.4,0,1,0,1.5,0c0.4-0.2,1-0.4,1-1c0.2-0.6-0.4-1.2-0.8-1.7
	c-0.6-0.2-1.3-0.2-1.9-0.2c-7.3,0-14.6,1-21.9,0.8c-3.1,0-6.3-0.2-9.2-0.2c-1.5,0-3.1,0-4.6,0c-0.6,0-1.9,0.6-1.9,1.2
	C68.9,136.1,69.1,136.3,69.5,136.3z M76.4,123.8c7.1,1.5,14,2.7,21.1,4.2c1.7,0.4,3.3,0.6,5,1c0.8,0.2,1.7,0.2,2.3,0.4
	c0.6,0.2,1.5,0.4,2.1,0.4c0.6,0.2,1,0.2,1.7,0c0.4-0.2,1-0.4,1.3-1c0-0.4-0.2-0.8-0.4-1.2c-0.4-0.2-0.8-0.4-1.3-0.6
	c-3.3-0.8-6.9-1.2-10.2-1.9c-3.5-0.6-7.1-1.2-10.6-1.9c-3.8-0.4-7.5-1-11.1-1.7c-0.4,0-0.8-0.2-1.3,0c-0.6,0.2-0.8,0.6-0.6,1.2
	C74.7,123.6,75.6,123.8,76.4,123.8z M202.3,102.3c-2.3,1-4.8,2.3-7.1,3.5c-4,2.1-7.9,4.6-11.9,6.9c-1,0.6-2.1,1-2.9,1.9
	c-0.6,0.6-0.6,2.1,0.6,2.3c0.6,0,1.5-0.2,2.1-0.6c0.6-0.4,1.5-0.8,2.1-1.2c1.3-0.6,2.3-1.5,3.5-2.1c2.1-1.2,4-2.3,6.1-3.5
	c0.4-0.2,0.8-0.4,1-0.6c3.1-1.7,6.3-3.1,9-5.2c0.6-0.4,1-1,0.8-1.7c-0.2-0.4-0.6-0.6-1-0.6c-0.4,0-0.8,0.2-1.3,0.4
	C203.1,101.9,202.7,102.1,202.3,102.3z M114.4,176.4c2.1-2.9,4.4-5.8,6.5-8.7c0.6-0.8,1.9-2.3,0.6-3.3c-1-0.8-2.3,1.2-2.7,1.9
	c-2.5,3.5-5.2,7.1-7.9,10.4c-2.7,3.3-5.6,6.2-8.1,9.8c-0.2,0.2-0.2,0.2-0.4,0.4c-0.4,0.8-1,1.5-1.7,2.3c-0.4,0.8,0,2.3,1,1.7
	c1.3-0.8,2.3-2.1,3.3-3.1c1-1.2,2.3-2.5,3.3-3.7C110.6,181.2,112.5,178.9,114.4,176.4z M174.7,100.3c-0.4,0.4-0.6,0.8-1,1.2
	c-0.2,0-0.8,1-0.8,1c-0.4,0.4-0.6,0.8-0.8,1.2c-0.2,0.6,0,1.5,0.6,1.7c1.3,0.6,2.1-0.6,2.7-1.5c4.4-5.4,8.8-10.6,13.4-16
	c0.4-0.4,2.1-2.9,1-3.3c-1-0.4-1.9,0.2-2.5,0.8C182.7,90.3,178.7,95.3,174.7,100.3z M171,196c-0.2-1.7-1.3-3.5-1.7-4.8
	c-0.8-2.1-1.7-4.2-2.5-6.5c-1-2.7-2.1-5.2-3.1-7.9c-0.4-1.2-1-2.7-1.5-4c-0.2-0.8-1.7-4.8-3.1-2.5c-0.8,1.7,1,4.2,1.5,5.6
	c0.8,2.3,1.7,4.6,2.5,6.9c1.7,4.6,3.3,9.2,5,13.7c0.4,1,2.3,3.3,2.7,0.8C171,197,171,196.6,171,196z M90.8,103.8
	c1.5,1.2,3.3,2.1,4.8,2.9c1.9,1,3.8,2.1,5.6,3.1c2.9,1.7,5.8,3.3,8.8,5.2c0.6,0.4,1.5,0.8,2.1,1.2c0.4,0.2,1,0.6,1.5,0.4
	c0.8-0.2,1.3-1.2,0.8-1.9c-0.4-0.6-1-0.8-1.7-1.2c-0.6-0.4-1.5-0.8-2.1-1.5c-1.5-0.8-2.9-1.9-4.4-2.7c-2.9-1.7-6.1-3.5-9-5
	c-0.4-0.2-0.6-0.4-1-0.6c-1-0.6-2.1-1-3.1-1.7c-0.6-0.4-3.5-1.9-3.3,0.2c0,0.2,0.2,0.6,0.4,0.8C90.4,103.6,90.6,103.6,90.8,103.8z
	 M146.6,97.3c0.4,0,0.6-0.2,0.8-0.4c0.2-0.4,0.4-0.8,0.4-1.2c0.2-3.3,0.2-7.3,0-10.6c0-3.5,0-6.9,0-10.6c0-4.2,0-8.5,0-12.7
	c0-0.6,0-2.3-1-2.1c-0.4,0-0.8,0.4-1,1c0,0.4-0.2,0.6-0.2,1c-0.6,6.9-0.4,13.9-0.2,20.8c0,3.5,0.2,7.3-0.2,10.8c0,0.4,0,0.8,0,1.5
	c0,0.2,0,0.4,0,0.6c0,0.4,0,1,0.4,1.7C145.7,97.1,146.1,97.3,146.6,97.3z M81.6,112.5C81.6,112.7,81.6,112.7,81.6,112.5
	c1,0.6,1.9,1,2.9,1.5c8.1,3.1,16.5,6,24.6,9.2c0.4,0.2,0.8,0.4,1.3,0.4c0.4,0,1-0.2,1-0.6c0.2-0.4,0-1-0.4-1.2
	c-0.2-0.2-0.6-0.4-0.8-0.4c-6.5-2.5-13.2-5-19.6-7.5c-1.5-0.4-2.9-1-4.4-1.5c-0.6-0.2-1.5-0.4-2.1-0.6c-0.6-0.2-1.3-0.6-1.9-0.6
	C81.4,110.9,80.8,111.9,81.6,112.5z M183.5,196.2c-2.7-4.6-5.2-8.9-7.9-13.5c-2.5-4.4-4.8-8.7-7.5-13.1c-0.6-1-2.3-1.2-2.5,0.2
	c-0.2,1.5,1.5,2.9,2.3,4.2c1.3,2.1,2.3,4,3.5,6c2.5,4.2,4.8,8.3,7.3,12.3c0.8,1.5,1.7,2.9,2.5,4.2c0.4,0.6,1,1.9,1.7,2.1
	C184.8,199.5,183.9,197,183.5,196.2z M206.9,168.1c-1-1.2-3.1-2.1-4.4-2.7c-1.7-1-3.3-1.9-5.2-2.9c-4-2.3-8.1-4.6-12.3-6.9
	c-0.8-0.4-1.5-1-2.3-1.2c-0.8-0.2-1.5-0.2-2.1,0.4c-1.7,2.1,3.5,3.3,4.6,4c2.1,1,4,1.9,5.8,2.9c2.1,1.2,4.4,2.5,6.5,3.7
	c2.3,1.2,4.6,2.7,6.7,4.2c0.4,0.4,1.3,0.8,1.9,0.8c0.8,0,1.3-0.6,1-1.2C207.3,168.7,207.1,168.5,206.9,168.1z M159.9,96.3
	C159.7,96.5,159.7,96.5,159.9,96.3c-0.4,1-0.4,1.7,0.2,2.5c0,0.2,0.2,0.2,0.4,0.2h0.6c0.2,0,0.2,0,0.2-0.2c0.6-0.4,0.8-0.8,1-1.5
	c0.2-0.8,0.6-1.7,1-2.5c0.6-1.7,1.3-3.1,1.9-4.8c1.5-3.7,3.1-7.7,4.2-11.7c0-0.4,0.2-1.2-0.4-1.7h-0.2h-0.8c0,0-0.2,0-0.4,0.2
	c0,0-0.2,0-0.2,0.2c-1.3,1.2-1.7,3.1-2.3,4.8c-0.8,1.9-1.5,3.7-2.1,5.6c-0.8,2.1-1.5,4.2-2.3,6.2C160.5,94.4,160.1,95.5,159.9,96.3z
	 M159.3,74.6c0.4-1.9,1-4.2,0.8-6c0,0-0.2-0.2-0.2-0.4V68c0-0.2-0.2-0.2-0.4-0.2c-1.3-0.2-1.7,0.8-1.9,1.9
	c-0.8,3.5-1.5,6.9-2.1,10.4c-0.2,1.7-0.4,3.3-0.8,5.2c-0.2,1.7-0.6,3.5-1,5.2c0,0.4-0.2,1-0.2,1.5c-0.2,0.8-0.2,1.7-0.4,2.5
	c0,0.8,0,1.7,0.2,2.5c0.2,0.4,0.8,0.4,1.3,0.2c0.4-0.2,0.4-0.6,0.6-1c1.3-6.9,1.5-8.3,2.9-15.2C158,80.7,159.3,75.1,159.3,74.6z
	 M125.9,174.6c0.6-1.2,1.5-2.5,2.1-3.5c0.2-0.4,0.6-1,0.6-1.5c0-0.6-0.6-1.2-1.3-1c-0.8,0-1,0.8-1.5,1.5c-1,2.1-2.3,4-3.3,6
	c-2.3,4-4.6,7.9-7.1,11.9c-0.4,0.6-0.8,1.5-1.3,2.1c0,0.2-0.8,1.9-1,1.9c-0.2,0-0.4,1.2-0.4,1.5c0,0.6,1,0.8,1.5,0.6
	c0.2,0,0.2-0.2,0.2-0.2c0.8-1,1.5-2.1,2.1-3.3c2.3-4,4.6-7.7,6.9-11.7C124.4,177.5,125.1,176,125.9,174.6z M133.4,171
	c-0.6,0-1.3,0.8-1.5,1.5c-1.7,4.8-3.5,9.4-5.2,14.2c-0.6,2.1-1.9,4.2-2.1,6.5c0,0.6,0,1.2,0.6,1.7c1.9,0.8,2.7-3.7,3.1-4.8
	c0.8-1.9,1.5-4,2.3-5.8c0.8-2.3,1.7-4.6,2.5-7.1c0.4-1.2,0.8-2.3,1-3.5c0.2-0.6,0.4-1.2,0.2-1.9C134,171.2,133.8,171,133.4,171z
	 M158,189.3c-0.4-2.3-0.8-4.8-1.3-7.1c-0.4-1.7-0.6-3.3-1-5c-0.2-1.2,0-4.6-1.9-5s-0.8,3.7-0.6,4.6c0.4,2.1,0.8,4.4,1,6.5
	c0.4,2.1,0.4,4.4,0.8,6.5c0.2,1.5,0.2,3.3,1.3,4.4c1.5,1.2,2.3-0.4,2.1-1.7C158.2,191.4,158,190.4,158,189.3z M168.9,94.8
	c-0.6,1-1.3,2.3-1.9,3.3c-0.6,0.8-1.5,1.7-1.7,2.7c-0.2,0.8,0.4,2.1,1.5,1.7c0.6-0.2,1-0.6,1.3-1.2c1.5-2.3,2.7-4.4,4-6.7
	c1.3-2.1,2.3-4.2,3.3-6.2c0.4-0.6,0.8-2.3-0.2-2.5c-0.8-0.2-1.3,0.6-1.7,1.2c-0.6,0.6-1,1.5-1.5,2.3c-1,1.5-1.9,3.1-2.7,4.8
	C169.3,94.4,169.1,94.6,168.9,94.8z M140.7,172.9c-0.2-0.4-0.6-0.4-1.3,0.2c-0.4,0.4-0.6,1-0.6,1.7c-0.4,2.5-1,5-1.5,7.5
	c-0.2,1.2-0.4,2.5-0.6,4c-0.2,1-0.6,2.3,0.2,3.3c0.4,0.6,1.5,0.4,1.9,0c0.4-0.4,0.4-1,0.6-1.7c0.4-2.7,0.8-5.4,1.3-8.1
	c0.2-1.2,0.4-2.3,0.4-3.5C141.1,175.4,141.3,173.5,140.7,172.9z M147.2,173.3c-0.4-0.2-0.6,0-1,0.4c-0.4,0.6-0.4,1.2-0.4,2.1
	c-0.2,1.5-0.2,2.9-0.2,4.4c0,0.8,0,1.5,0,2.3c0,0.6,0,1.5,0.4,2.1c0.4,0.4,1.3,0.2,1.7-0.2c0.2-0.2,0.2-0.6,0.2-1
	c0.2-2.5,0.2-5,0.2-7.3c0-0.6,0-1.2-0.4-1.9C147.6,173.5,147.4,173.3,147.2,173.3z"/>
<path d="M71,222.9c-1-0.6-2.5-0.8-4.2-0.8h-7.3v21.6h3.3v-8.7h4c1.7,0,3.1-0.2,4.2-0.8c1-0.6,1.9-1.5,2.5-2.3c0.6-1,0.8-2.1,0.8-3.3
	c0-1.2-0.2-2.3-0.8-3.3C73.1,224.1,72,223.3,71,222.9z M62.8,224.9h4c1.5,0,2.7,0.4,3.3,0.8c0.6,0.6,0.8,1.5,0.8,2.7
	c0,1-0.2,2.1-0.8,2.7c-0.6,0.6-1.7,0.8-3.3,0.8h-4V224.9z"/>
<path d="M94.2,231.2h-10V222h-3.3v21.6h3.3v-9.6h10v9.6h3.3V222h-3.3V231.2z"/>
<path d="M130.5,224.7h6.3v18.9h3.3v-18.9h6.3V222h-15.9V224.7z"/>
<path d="M161.2,222h-3.3l-7.9,21.6h3.5l1.9-5.4h8.4l1.9,5.4h3.5l-7.9-21.4V222z M162.6,235.3h-6.3l3.1-8.7L162.6,235.3z"/>
<path d="M188.5,237.6L178.1,222h-3.1v21.6h3.3v-15.8l10.4,15.8h3.1V222h-3.3V237.6z"/>
<path d="M231.9,240.8V222h-3.3v21.6h11.9v-2.9H231.9z"/>
<path d="M105,233.1c0-3.1,1-5.6,3.3-7.9c2.3-2.3,5-3.3,8.1-3.3s5.8,1,7.9,3.3c2.3,2.3,3.3,4.8,3.3,7.9c0,3.1-1,5.8-3.3,7.9
	c-2.3,2.3-5,3.3-8.1,3.3c-2.9,0-5.4-1-7.5-2.9C106.3,239.5,105,236.6,105,233.1z M108.4,233.3c0,2.5,0.8,4.4,2.5,6
	c1.7,1.5,3.5,2.3,5.6,2.3c2.3,0,4.2-0.8,5.8-2.3c1.7-1.7,2.3-3.5,2.3-5.8c0-2.3-0.8-4.4-2.3-5.8c-1.5-1.7-3.5-2.3-5.8-2.3
	c-2.3,0-4.2,0.8-5.8,2.3C109,228.9,108.4,231,108.4,233.3z"/>
<path d="M198.7,233.1c0-3.1,1-5.6,3.3-7.9c2.3-2.3,5-3.3,8.1-3.3c3.1,0,5.8,1,7.9,3.3c2.3,2.3,3.3,4.8,3.3,7.9c0,3.1-1,5.8-3.3,7.9
	c-2.3,2.3-5,3.3-8.1,3.3c-2.9,0-5.4-1-7.5-2.9C200,239.5,198.7,236.6,198.7,233.1z M202.1,233.3c0,2.5,0.8,4.4,2.5,6
	c1.7,1.5,3.5,2.3,5.6,2.3c2.3,0,4.2-0.8,5.8-2.3c1.7-1.7,2.3-3.5,2.3-5.8c0-2.3-0.8-4.4-2.3-5.8c-1.5-1.7-3.5-2.3-5.8-2.3
	c-2.3,0-4.2,0.8-5.8,2.3C202.9,228.9,202.1,231,202.1,233.3z"/>
</svg>
