<svg width="100" height="100" viewBox="0 0 100 100" fill="none" xmlns="http://www.w3.org/2000/svg">
<g clip-path="url(#clip0)">
<path d="M92 61.6C92 60.7 91.5 57.7 91 54.9L88.6 41.1C88 37.9 86.1 37.3 84.6 37.3C81.6 37.3 80.9 39.1 79.3 43.9L76.3 53.1H76.2L73.2 43.9C71.7 39.1 71 37.3 67.9 37.3C66.4 37.3 64.4 37.9 63.9 41.1L61.5 54.8C61 57.6 60.5 60.6 60.5 61.5C60.5 62.9 61.6 64.4 63.4 64.4C66.1 64.4 66.6 62.4 66.9 60.4L68.7 48.5H68.8L73 61.7C73.6 63.7 74.5 64.4 76.3 64.4C78.1 64.4 79 63.6 79.6 61.7L83.7 48.6H83.8L85.6 60.5C85.9 62.6 86.4 64.5 89.1 64.5C91 64.5 92 62.9 92 61.6ZM58.7 51.2C58.7 47.2 57 43.5 54.2 41C53.2 40.1 51.7 40.1 50.8 41.1C49.9 42.1 49.9 43.6 50.9 44.5C52.8 46.1 53.9 48.6 53.9 51.2C53.9 56.2 49.9 60.2 44.9 60.2C39.9 60.2 35.9 56.2 35.9 51.2C35.9 48.5 37.1 46.1 38.9 44.5C39.9 43.6 39.9 42.1 39 41.1C38.1 40.1 36.6 40.1 35.6 41C32.8 43.5 31.1 47.1 31.1 51.2C31.1 58.8 37.2 64.9 44.8 64.9C52.5 64.9 58.7 58.8 58.7 51.2ZM47.3 52.4V37.4C47.3 36.1 46.3 35 45 35C43.7 35 42.6 36.1 42.6 37.4V52.4C42.6 53.7 43.7 54.8 45 54.8C46.3 54.8 47.3 53.7 47.3 52.4ZM27.7 62.5V39.1C27.7 38 27.1 37.3 26 37.3C25 37.3 24.3 38 24.3 39.1V58.5H24.2L10.8 39C9.9 37.7 9.5 37.3 8.5 37.3C7.5 37.3 7 37.9 7 39.2V62.6C7 63.7 7.6 64.4 8.7 64.4C9.7 64.4 10.4 63.7 10.4 62.6V43.3H10.5L24 62.7C24.9 64 25.4 64.4 26.3 64.4C27.3 64.5 27.7 63.8 27.7 62.5Z" fill="#A9A9A9"/>
</g>
<defs>
<clipPath id="clip0">
<rect width="85" height="29.9" fill="white" transform="translate(7 35)"/>
</clipPath>
</defs>
</svg>
