<?xml version="1.0" standalone="no"?>
<!DOCTYPE svg PUBLIC "-//W3C//DTD SVG 20010904//EN"
 "http://www.w3.org/TR/2001/REC-SVG-20010904/DTD/svg10.dtd">
<svg version="1.0" xmlns="http://www.w3.org/2000/svg"
 width="496.000000pt" height="744.000000pt" viewBox="0 0 496.000000 744.000000"
 preserveAspectRatio="xMidYMid meet">

<g transform="translate(0.000000,744.000000) scale(0.100000,-0.100000)"
fill="#000000" stroke="none">
<path d="M0 4960 l0 -2480 2480 0 2480 0 0 2480 0 2480 -2480 0 -2480 0 0
-2480z m4900 0 l0 -2420 -2420 0 -2420 0 0 2420 0 2420 2420 0 2420 0 0 -2420z"/>
<path d="M350 5495 l0 -1595 908 0 907 0 60 103 c467 797 1401 1474 2273 1647
l112 23 0 708 0 709 -892 0 -891 0 -72 -54 c-286 -215 -650 -681 -882 -1128
l-38 -73 -3 628 -2 627 -740 0 -740 0 0 -1595z"/>
<path d="M4451 5345 c-432 -111 -814 -301 -1167 -583 -125 -99 -408 -377 -511
-502 -80 -97 -219 -284 -246 -329 l-18 -31 1045 0 1046 0 0 740 c0 407 -3 740
-7 739 -5 0 -68 -16 -142 -34z"/>
<path d="M2599 3496 c-58 -21 -96 -53 -121 -104 -20 -42 -23 -61 -23 -177 0
-147 12 -184 79 -243 65 -57 208 -67 303 -21 87 42 133 167 118 320 -13 124
-69 202 -164 229 -50 14 -149 12 -192 -4z m162 -72 c51 -26 74 -90 74 -209 0
-84 -4 -108 -23 -147 -39 -79 -130 -101 -189 -46 -87 81 -74 361 19 406 34 16
85 14 119 -4z"/>
<path d="M350 3215 l0 -285 55 0 55 0 0 119 c0 69 4 122 10 126 20 12 104 -8
125 -30 15 -14 30 -55 46 -118 l23 -97 53 0 c63 0 62 -3 29 125 -28 112 -40
133 -79 150 l-31 13 37 15 c105 44 101 199 -6 247 -35 16 -66 20 -179 20
l-138 0 0 -285z m260 197 c13 -11 23 -33 27 -59 8 -59 -30 -97 -105 -107 -29
-4 -57 -4 -62 -1 -6 3 -10 46 -10 96 l0 89 64 0 c46 0 70 -5 86 -18z"/>
<path d="M1040 3215 l0 -285 190 0 190 0 0 35 0 34 -132 3 -133 3 -3 93 -3 92
126 0 125 0 0 35 0 34 -122 3 -123 3 -3 83 -3 82 131 0 130 0 0 35 0 35 -185
0 -185 0 0 -285z"/>
<path d="M1700 3215 l0 -285 45 0 45 0 0 217 c0 154 3 214 11 206 6 -6 64
-102 129 -214 l118 -204 61 -3 61 -3 0 286 0 285 -50 0 -50 0 -2 -202 -3 -203
-116 200 -116 200 -67 3 -66 3 0 -286z"/>
<path d="M3240 3215 l0 -285 175 0 175 0 0 35 0 34 -122 3 -123 3 -3 248 -2
247 -50 0 -50 0 0 -285z"/>
<path d="M3840 3215 l0 -285 55 0 55 0 0 285 0 285 -55 0 -55 0 0 -285z"/>
<path d="M4180 3465 l0 -35 80 0 80 0 0 -250 0 -250 55 0 55 0 0 250 0 250 75
0 75 0 0 35 0 35 -210 0 -210 0 0 -35z"/>
<path d="M4417 1902 c-16 -18 -16 -25 2 -126 10 -57 16 -144 26 -423 6 -147 5
-151 -38 -158 -45 -9 -162 -64 -165 -79 -6 -26 28 -65 62 -71 26 -5 42 0 85
29 53 36 71 43 71 29 7 -117 10 -206 11 -280 0 -91 0 -91 29 -103 16 -6 38 -9
50 -5 20 6 21 11 15 53 -4 26 -11 55 -16 64 -5 10 -12 80 -15 156 -3 106 -2
141 8 149 7 5 49 17 93 28 139 32 208 70 160 89 -8 3 -48 1 -88 -5 -134 -20
-170 -21 -178 -7 -5 7 -9 126 -9 264 0 199 3 260 15 294 19 53 12 76 -28 101
-40 24 -69 24 -90 1z"/>
<path d="M1516 1891 c-13 -15 -17 -45 -20 -162 -2 -79 -11 -234 -19 -344 -19
-235 -21 -367 -6 -382 5 -5 14 -40 20 -77 11 -82 55 -167 110 -214 32 -27 45
-33 57 -26 26 17 25 33 -1 43 -29 11 -64 67 -73 118 -4 21 -10 45 -15 54 -22
43 -30 319 -13 449 3 25 10 90 15 145 6 55 20 141 31 190 27 114 26 155 -3
194 -26 35 -58 40 -83 12z"/>
<path d="M44 1863 c-6 -4 -19 -23 -29 -42 -14 -28 -14 -35 -3 -42 7 -5 16 -9
20 -9 4 0 18 -11 30 -25 l24 -25 74 26 74 26 17 -21 c12 -14 18 -50 23 -126 3
-58 9 -152 12 -209 l6 -104 -34 -23 c-39 -27 -39 -38 5 -88 l29 -34 -7 -167
c-6 -148 -5 -169 10 -183 9 -10 19 -17 23 -18 47 -6 59 -5 70 3 17 15 16 129
-3 154 -15 20 -18 81 -6 124 7 25 7 25 19 4 13 -25 165 -157 261 -227 121 -90
223 -144 316 -171 50 -14 109 -32 132 -40 38 -13 43 -13 57 3 9 10 16 23 16
31 0 19 -31 39 -61 40 -14 0 -59 15 -100 34 -41 18 -102 44 -135 56 -68 24
-160 92 -269 199 -38 37 -107 100 -152 140 -46 40 -83 76 -83 81 0 5 17 14 38
21 44 14 204 83 247 106 265 142 282 153 319 207 68 99 58 154 -38 199 -66 32
-185 67 -240 72 -22 2 -72 7 -111 10 -38 4 -153 8 -255 10 -102 1 -207 6 -235
9 -27 4 -55 3 -61 -1z m730 -133 c101 -31 146 -52 146 -70 0 -13 -80 -100 -91
-100 -5 0 -39 -20 -76 -44 -80 -51 -192 -108 -248 -126 -22 -7 -45 -17 -52
-22 -6 -5 -28 -11 -47 -14 l-36 -4 0 82 c0 46 -3 141 -7 211 l-6 128 159 -6
c138 -4 172 -9 258 -35z"/>
<path d="M4086 1704 c-9 -34 5 -49 60 -68 59 -20 78 -13 70 28 -8 40 -42 65
-87 66 -31 0 -38 -4 -43 -26z"/>
<path d="M2038 1478 c-30 -60 -36 -97 -43 -285 -4 -81 -11 -142 -19 -158 -18
-34 -169 -225 -178 -225 -24 0 -20 103 9 233 18 84 13 109 -32 137 -34 21 -37
21 -61 5 -34 -22 -40 -42 -19 -65 13 -14 15 -28 11 -57 -4 -21 -8 -85 -10
-142 l-3 -105 34 -48 c36 -49 66 -65 106 -54 22 6 99 96 125 146 17 31 42 60
54 60 4 0 8 -33 8 -73 0 -39 5 -88 10 -107 18 -61 24 -288 10 -370 -14 -88
-47 -175 -85 -224 -72 -95 -242 -86 -405 20 -85 56 -108 76 -168 154 -63 83
-79 128 -58 168 18 35 6 52 -36 52 -35 0 -48 -24 -48 -90 0 -73 21 -110 122
-216 103 -107 184 -160 316 -204 111 -37 200 -37 275 -1 70 34 101 70 130 154
52 146 57 296 22 627 -23 218 -21 257 26 395 46 135 56 220 32 273 -18 38 -18
38 -63 47 -34 6 -36 5 -62 -47z"/>
<path d="M2778 1433 c-44 -11 -116 -171 -148 -325 -28 -136 -19 -235 27 -299
15 -22 33 -48 38 -57 9 -15 50 -51 50 -43 0 1 19 -5 42 -14 32 -13 46 -14 62
-6 21 12 122 151 135 186 26 74 30 249 7 350 -13 59 -52 121 -116 188 -25 26
-53 32 -97 20z m128 -173 c20 -48 23 -70 22 -165 -1 -114 -13 -166 -57 -253
-12 -23 -33 -49 -47 -58 -24 -16 -26 -16 -55 12 -48 45 -72 100 -70 162 0 30
4 58 7 64 3 5 6 25 6 45 0 19 11 59 24 89 13 30 24 61 24 69 0 19 49 75 74 85
36 15 47 7 72 -50z"/>
<path d="M1172 1399 c-75 -37 -92 -52 -142 -135 -57 -92 -79 -168 -77 -258 2
-64 5 -75 37 -117 25 -34 54 -56 106 -82 65 -32 74 -34 120 -26 27 5 56 12 64
16 8 3 20 7 26 7 26 2 114 82 125 113 21 64 -17 71 -82 15 -68 -59 -97 -73
-155 -79 -47 -5 -58 -3 -89 21 -19 15 -35 31 -35 37 0 5 46 59 103 120 119
129 159 198 161 279 1 42 -4 62 -21 86 -28 40 -65 40 -141 3z m44 -173 c-17
-36 -50 -74 -98 -117 l-71 -63 6 38 c13 78 85 187 151 227 l31 19 3 -26 c2
-14 -8 -49 -22 -78z"/>
<path d="M3460 1372 c-23 -11 -36 -25 -38 -41 -2 -13 -16 -42 -30 -64 -15 -22
-44 -68 -65 -101 -52 -83 -61 -90 -51 -41 14 67 11 127 -7 138 -9 6 -35 7 -63
3 -46 -7 -47 -8 -41 -36 13 -57 12 -123 -1 -198 -8 -42 -14 -97 -15 -122 0
-25 -4 -56 -8 -70 -9 -29 10 -74 34 -84 41 -15 66 -6 81 29 8 20 14 41 13 48
-1 7 1 25 6 42 11 39 94 216 111 235 7 8 12 17 11 20 -1 3 6 16 16 30 17 24
17 21 11 -83 -8 -115 3 -188 37 -263 11 -22 19 -44 19 -48 0 -31 89 -104 110
-91 15 9 12 45 -4 51 -25 10 -74 158 -63 189 4 8 2 15 -3 15 -18 0 -11 181 12
297 l21 113 -23 25 c-28 30 -26 30 -70 7z"/>
<path d="M4113 1371 c-53 -9 -61 -16 -45 -42 35 -56 45 -113 39 -234 -5 -103
1 -229 16 -339 5 -30 21 -46 48 -46 21 0 43 26 34 40 -5 9 -16 134 -18 210 -1
43 13 273 19 314 7 46 -21 110 -46 105 -3 -1 -24 -5 -47 -8z"/>
<path d="M4812 830 c-26 -24 -27 -33 -7 -50 8 -7 15 -18 15 -25 0 -28 61 -33
109 -9 43 22 37 43 -24 76 -60 33 -65 34 -93 8z"/>
</g>
</svg>
