<svg width="100" height="100" viewBox="0 0 100 100" fill="none" xmlns="http://www.w3.org/2000/svg">
<path d="M78.8358 7.29785H20.2986V65.835H78.8358V7.29785Z" fill="white"/>
<path d="M20 66.234V7H79.234V65.9354V66.234H20ZM78.9354 65.9354V65.6367V65.9354ZM20.6969 65.5372H78.5372V7.69687H20.6969V65.5372Z" fill="#A9A9A9"/>
<path fill-rule="evenodd" clip-rule="evenodd" d="M24.2808 60.8585H25.575V57.9714H25.9732C27.1679 57.9714 27.2674 58.3697 27.5661 59.4647L27.9643 60.8585H29.2585L28.7607 58.967C28.5616 58.2701 28.462 57.6728 27.367 57.4737C28.2629 57.2746 28.9598 56.8764 28.9598 55.8808C28.9598 54.5866 27.9643 54.0889 26.5705 54.0889H24.2808V60.8585ZM25.4755 54.8853H26.471C27.1679 54.8853 27.5661 55.2835 27.5661 55.9804C27.5661 56.9759 26.7696 57.175 25.9732 57.175H25.4755V54.8853Z" fill="#A9A9A9"/>
<path fill-rule="evenodd" clip-rule="evenodd" d="M32.4441 60.8585H36.924V59.9625H33.7383V57.7723H36.7249V56.8764H33.7383V54.8853H36.8244V54.0889H32.4441V60.8585Z" fill="#A9A9A9"/>
<path fill-rule="evenodd" clip-rule="evenodd" d="M40.3088 60.8585H41.4039V55.5822H41.5035L44.4901 60.8585H45.9834V54.0889H44.7887V59.0665L41.8021 54.0889H40.3088V60.8585Z" fill="#A9A9A9"/>
<path fill-rule="evenodd" clip-rule="evenodd" d="M52.2552 60.958C54.6444 60.958 55.3413 59.4647 55.3413 57.4736C55.3413 55.4826 54.6444 53.9893 52.2552 53.9893C49.8659 53.9893 49.169 55.4826 49.169 57.4736C49.2686 59.4647 49.8659 60.958 52.2552 60.958ZM50.6623 57.4736C50.6623 55.9803 50.961 54.7857 52.2552 54.7857C53.5493 54.7857 53.848 55.9803 53.848 57.4736C53.848 58.9669 53.5493 60.1615 52.2552 60.1615C50.961 60.1615 50.6623 58.8674 50.6623 57.4736Z" fill="#A9A9A9"/>
<path fill-rule="evenodd" clip-rule="evenodd" d="M58.6265 60.8585H62.9073V59.9625H59.9207V54.0889H58.6265V60.8585Z" fill="#A9A9A9"/>
<path d="M67.1881 54.0889H65.8939V60.8585H67.1881V54.0889Z" fill="#A9A9A9"/>
<path fill-rule="evenodd" clip-rule="evenodd" d="M71.8671 60.8585H73.1613V54.8853H75.0528V54.0889H69.9756V54.8853H71.8671V60.8585Z" fill="#A9A9A9"/>
<path fill-rule="evenodd" clip-rule="evenodd" d="M49.8659 49.3103H74.9533V31.5898C65.4957 33.4814 56.7351 39.0563 49.8659 49.3103Z" fill="#7C7C7C"/>
<path fill-rule="evenodd" clip-rule="evenodd" d="M24.2808 49.3104H45.8838C51.857 38.1605 64.2016 29.6985 75.0529 28.1057V11.1816H53.7485C48.2731 14.9647 43.4946 22.9289 41.9017 26.3137V11.2812H24.2808V49.3104Z" fill="#A9A9A9"/>
<g clip-path="url(#clip0)">
<path d="M22 73.2973C22.3184 72.4807 22.8189 72.3846 23.5922 72.6248C24.0927 72.7689 24.6841 72.6728 25.23 72.7209C26.7767 72.7689 28.369 72.7209 29.9158 72.913C30.8256 73.0571 31.7355 73.4894 32.5998 73.9217C33.1912 74.2099 33.3732 74.7383 33.0548 75.3628C32.7363 76.0353 32.3724 76.6117 31.69 76.996C29.9612 77.9567 28.278 79.0134 26.4128 79.6379C26.3218 79.6859 26.2308 79.734 26.0944 79.83C26.2308 80.0222 26.3673 80.1663 26.5038 80.3104C27.4591 81.223 28.4145 82.0877 29.2789 83.0484C30.5527 84.3933 32.1904 84.9217 33.7826 85.6423C34.0556 85.7864 34.3741 85.7864 34.647 85.8824C34.738 85.9305 34.8745 86.2667 34.829 86.3147C34.738 86.4588 34.465 86.651 34.3286 86.603C32.9183 86.1226 31.417 85.8824 30.2342 84.8737C28.8694 83.7209 27.5046 82.6161 26.1398 81.5593C26.0944 82.0396 25.9579 82.568 26.2763 83.1444C26.4128 83.5287 26.3673 84.0571 26.3218 84.4894C26.3218 84.7296 26.1398 84.9217 25.8214 84.8257C25.4575 84.7776 25.0935 84.7776 25.048 84.2973C25.0025 83.7689 25.048 83.2405 25.048 82.7121C25.048 82.2318 25.0935 81.7514 25.0935 81.2711C25.139 80.7427 25.048 80.3104 24.5931 79.9741C24.3656 79.734 24.4111 79.4457 24.7296 79.2056C24.9115 79.0615 25.0935 78.7733 25.0935 78.5331C25.048 77.1401 25.0025 75.699 24.9115 74.306C24.9115 73.7776 24.6386 73.5855 24.1382 73.7296C24.0017 73.7776 23.8652 73.8737 23.7287 73.9217C23.3193 74.0178 22.8644 74.4021 22.5459 73.7296C22.4549 73.5855 22.182 73.5855 22 73.4894C22 73.4414 22 73.3453 22 73.2973ZM26.0944 78.5811C26.8677 78.2449 27.6411 78.0527 28.278 77.6685C29.4153 76.996 30.5527 76.3235 31.599 75.5069C32.2359 75.0265 32.0994 74.6903 31.3715 74.4021C29.6428 73.6816 27.8231 73.7296 26.0034 73.6816C25.9579 73.6816 25.9579 73.7296 25.8669 73.7776C25.9579 75.2667 26.0489 76.8038 26.0944 78.5811Z" fill="#949598"/>
<path d="M41.1979 93.9997C40.743 93.8075 40.2881 93.6634 39.8331 93.4713C38.1044 92.8468 36.8761 91.5018 35.8298 90.0128C35.4658 89.4844 35.5113 88.8599 35.6023 88.2355C35.6478 88.0433 35.8298 87.8512 36.0117 87.8032C36.1937 87.7551 36.4212 87.8992 36.6941 87.9953C36.1482 88.7158 36.4212 89.2922 36.7851 89.8687C37.4675 90.9254 38.2864 91.8381 39.4237 92.4145C40.1516 92.7508 40.9705 93.087 41.7893 93.087C42.9722 93.135 43.7 92.2704 44.1095 90.7813C44.5644 89.1001 44.3824 87.4189 44.246 85.7377C44.2005 85.1612 44.155 84.5848 44.064 83.9604C44.064 83.7682 44.0185 83.5761 43.882 83.3839C43.5181 83.8643 43.1996 84.3927 42.8357 84.873C42.7447 85.0171 42.6537 85.1612 42.5172 85.3053C41.9258 86.0739 41.4254 86.0259 40.8795 85.2573C40.561 84.777 40.4246 84.2966 40.47 83.7202C40.561 83.0477 40.561 82.3752 40.561 81.6547C40.561 81.4625 40.47 81.2704 40.47 81.0783C40.47 80.8861 40.4246 80.5979 40.5155 80.5018C40.6975 80.3577 40.9705 80.2617 41.1524 80.3097C41.7438 80.5499 41.8348 80.8861 41.7438 81.6066C41.6074 82.4232 41.5164 83.2879 41.4254 84.1045C41.4254 84.2966 41.4709 84.4407 41.5164 84.6328C41.5619 84.6809 41.6529 84.6809 41.6984 84.7289C42.3807 83.7202 43.1996 82.8075 43.6545 81.7027C43.973 80.8861 43.791 79.8774 43.8365 78.9167C43.882 78.1481 43.9275 77.4276 44.3824 76.7551C44.6099 76.4189 45.2468 76.2748 45.4743 76.7071C45.6562 76.9953 45.7472 77.3315 45.7472 77.6678C45.7927 78.4363 45.6562 79.1569 45.3378 79.8774C44.6099 81.4145 44.7919 83.0477 44.9738 84.6809C45.1558 86.6023 45.4288 88.5237 45.1103 90.4451C44.9738 91.1656 44.7919 91.8861 44.5189 92.5586C44.2005 93.4232 43.3816 93.6634 42.6537 93.9997C42.1078 93.9997 41.6529 93.9997 41.1979 93.9997Z" fill="#949598"/>
<path d="M59.2587 80.5025C59.0767 80.8387 58.8947 81.175 58.7128 81.5112C58.3488 82.3278 58.0304 83.0964 57.7119 83.913C57.6209 84.2012 57.6209 84.5374 57.5299 84.8256C57.439 85.1619 57.257 85.4981 56.8021 85.306C56.4381 85.2099 56.1197 84.9697 56.2107 84.4894C56.3471 83.3365 56.4836 82.1357 56.5746 80.9828C56.6201 80.5505 56.5291 80.1182 56.5291 79.5898C56.6201 79.5418 56.7566 79.4937 56.893 79.4457C57.5299 79.2055 57.9394 79.5418 57.8484 80.2623C57.8029 80.6466 57.7119 80.9828 57.6664 81.3671C57.7119 81.4151 57.7574 81.4632 57.8484 81.4632C57.8939 81.3671 57.8939 81.3191 57.9394 81.223C58.3943 80.3103 58.8492 79.3977 59.3497 78.5811C59.5316 78.3409 59.9866 78.1007 60.2595 78.1488C60.6235 78.1968 60.8054 78.5811 60.7144 79.1095C60.5325 80.3103 60.305 81.5112 60.305 82.664C60.305 83.7688 60.396 84.9217 61.2149 85.7863C61.3058 85.8824 61.2149 86.1226 61.2149 86.3147C60.5325 86.2186 60.214 85.7383 59.9866 85.306C59.3951 84.009 59.0767 82.664 59.3497 81.223C59.3951 81.0309 59.3951 80.8387 59.3951 80.5985C59.3497 80.5505 59.3042 80.5025 59.2587 80.5025Z" fill="#949598"/>
<path d="M70.5864 81.1754C70.177 81.4637 69.813 81.6558 69.4946 81.896C69.0396 82.2322 68.3117 81.896 68.2208 81.3195C68.2208 81.1754 68.3572 80.9353 68.5392 80.8392C69.0396 80.599 69.5855 80.4069 70.086 80.1667C70.2679 80.0706 70.4954 79.8785 70.4954 79.6864C70.4044 77.5728 70.2679 75.4593 70.177 73.3938C70.177 73.2016 70.1315 73.0095 70.086 72.8174C69.9495 72.4811 69.8585 72.0968 70.2679 71.9527C70.5864 71.8567 70.9958 71.9527 71.2688 72.0968C71.4508 72.2409 71.5872 72.6733 71.5417 72.9134C71.3143 73.9702 71.1778 78.5816 71.4963 79.7824C71.9057 79.7344 72.3606 79.6383 72.8155 79.5903C73.2705 79.5423 73.6799 79.4462 74.1348 79.4462C74.2713 79.4462 74.3623 79.5903 74.4988 79.6383C74.4078 79.7344 74.3623 79.8785 74.2258 79.9265C73.4979 80.1667 72.7701 80.4549 71.9967 80.6471C71.5872 80.7431 71.4053 80.9353 71.4508 81.3676C71.4963 81.7999 71.4508 82.2322 71.4963 82.6645C71.5872 83.4331 71.6782 84.2497 71.8147 85.0182C71.9057 85.4025 71.8602 85.6907 71.4963 85.6907C71.1778 85.6907 70.7684 85.6427 70.7684 85.1143C70.7229 83.9134 70.7684 82.6645 70.7229 81.4637C70.6319 81.4637 70.6319 81.3676 70.5864 81.1754Z" fill="#949598"/>
<path d="M32.3268 82.3753C32.5088 80.3578 33.1912 78.6766 35.0109 77.7639C35.4204 77.5718 35.8298 77.4757 36.1482 77.7639C36.4667 78.1002 36.6942 78.5325 36.5577 79.1089C36.3757 80.0696 35.9663 80.8382 35.3294 81.5107C34.9199 81.943 34.5105 82.4233 34.1011 82.9037C33.9191 83.0958 33.6916 83.5281 33.7371 83.5762C34.0101 83.8644 34.3285 84.1526 34.647 84.2006C35.3749 84.3447 36.0118 83.9124 36.5577 83.4321C36.7396 83.2399 36.9216 83.0478 37.1491 82.9517C37.2856 82.9037 37.4675 82.9037 37.604 82.9037C37.604 83.0478 37.6495 83.1919 37.604 83.336C37.3311 84.2486 36.5577 84.5849 35.8298 84.9211C34.3285 85.5456 32.1904 83.9124 32.3268 82.3753ZM35.5113 78.7727C34.465 79.1089 33.2367 81.0303 33.5551 81.7989C34.4195 80.9823 35.5113 80.2617 35.5113 78.7727Z" fill="#949598"/>
<path d="M54.8004 81.9916C54.8914 83.1445 54.3909 84.4894 53.4356 85.6423C52.9352 86.2667 51.7978 86.1707 51.3884 85.4501C51.2519 85.258 51.1609 85.0178 51.0245 84.8257C50.4786 84.2012 50.3876 83.3846 50.4331 82.6161C50.5695 80.9348 50.9335 79.2536 51.9343 77.8126C52.2528 77.3803 52.8897 77.2842 53.2536 77.6685C54.3909 78.7252 54.7549 80.1183 54.8004 81.9916ZM53.8905 80.9829C53.936 80.9829 53.9815 80.9829 54.027 80.9829C53.8905 80.4545 53.7995 79.8781 53.6176 79.3497C53.3901 78.7252 53.1171 78.6772 52.6167 79.1095C52.4348 79.2536 52.2528 79.4938 52.1618 79.734C51.7524 80.7427 51.5249 81.7514 51.4339 82.8562C51.3884 83.5287 51.6159 84.1052 51.9798 84.6335C52.4348 85.306 52.8442 85.258 53.2536 84.5375C53.7995 83.4327 54.027 82.2318 53.8905 80.9829Z" fill="#949598"/>
<path d="M40.2426 85.882C40.1971 85.93 40.1061 86.0741 39.9697 86.2182C38.9233 85.4016 38.4684 84.3929 38.1954 83.0959C37.8315 81.4627 38.0135 79.8776 38.059 78.2444C38.1045 76.371 38.2409 74.5457 38.3774 72.7204C38.3774 72.5282 38.5139 72.192 38.6504 72.144C38.8323 72.0959 39.1508 72.0959 39.2873 72.24C39.6512 72.6243 39.7877 73.0566 39.6512 73.633C39.4692 74.5457 39.2873 75.5064 39.1508 76.4671C38.9688 77.8601 38.8323 79.2051 38.7869 80.5981C38.7414 82.0392 38.9233 83.4322 39.4238 84.7771C39.5602 85.1614 39.9242 85.4977 40.2426 85.882Z" fill="#949598"/>
<path d="M66.31 78.4852C66.8559 78.0529 67.4928 78.1009 67.8113 78.6293C67.8568 78.7253 67.9022 78.9175 67.9022 79.0616C67.8113 80.2144 67.6748 81.3192 67.6748 82.4721C67.6748 83.3847 67.7658 84.3454 67.8113 85.2581C67.8568 85.5463 67.9022 85.8345 67.5838 85.8345C67.3563 85.8345 66.9924 85.5943 66.9924 85.4502C66.8559 84.3454 66.8104 83.2406 66.7649 82.1358C66.7649 81.5114 66.9014 80.8389 66.8104 80.2144C66.7194 79.59 66.4465 79.0616 66.31 78.4852Z" fill="#949598"/>
<path d="M75.2266 85.6419C74.7717 85.6419 74.2712 85.2576 74.2712 84.8253C74.2712 84.6331 74.5897 84.2969 74.6352 84.2969C75.0901 84.489 75.545 84.7292 76 84.9694C75.909 85.1135 75.8635 85.2576 75.7725 85.3536C75.5905 85.4977 75.3631 85.5938 75.2266 85.6419Z" fill="#949598"/>
<path d="M66.583 74.1141C67.4474 74.066 67.8113 74.2101 67.9023 74.7865C67.9478 74.9306 67.9023 75.1228 67.8113 75.2189C67.7658 75.3149 67.5384 75.2669 67.4474 75.2669C67.3109 75.2189 67.1289 75.1708 66.9924 75.1228C66.492 74.9306 66.3555 74.6424 66.583 74.1141Z" fill="#949598"/>
<path d="M26.0944 78.5804C26.0489 76.8031 25.9579 75.266 25.9124 73.7289C25.9579 73.6808 26.0034 73.6328 26.0489 73.6328C27.8686 73.6808 29.6883 73.6328 31.417 74.3533C32.1449 74.6415 32.2359 74.9778 31.6445 75.4581C30.5982 76.2747 29.4609 76.9472 28.3235 77.6197C27.6411 78.004 26.8678 78.2442 26.0944 78.5804Z" fill="white"/>
<path d="M35.5114 78.7734C35.5114 80.2625 34.4196 80.983 33.5552 81.7996C33.2368 81.0311 34.4651 79.1097 35.5114 78.7734Z" fill="white"/>
<path d="M53.8904 80.9823C54.0269 82.2313 53.7995 83.4321 53.2081 84.4889C52.7986 85.2094 52.3892 85.2575 51.9343 84.585C51.5703 84.0566 51.3428 83.5282 51.3883 82.8077C51.4793 81.7029 51.7068 80.6941 52.1162 79.6854C52.2072 79.4452 52.3892 79.205 52.5712 79.0609C53.0716 78.6286 53.3445 78.6767 53.572 79.3011C53.754 79.8295 53.845 80.4059 53.9814 80.9343C53.9814 80.9823 53.9359 80.9823 53.8904 80.9823Z" fill="white"/>
</g>
<defs>
<clipPath id="clip0">
<rect width="54" height="22" fill="white" transform="translate(22 72)"/>
</clipPath>
</defs>
</svg>
