<svg width="100" height="100" viewBox="0 0 100 100" fill="none" xmlns="http://www.w3.org/2000/svg">
<g clip-path="url(#clip0)">
<path d="M19.9727 27H0.640091V65.4104H19.9727V27Z" fill="#A9A9A9"/>
<path d="M10.6469 56.7068H10.3326V55.7686H10.6469V56.7068ZM12.1663 52.5895H11.8519V51.6514H12.1663V52.5895ZM5.93166 51.026C5.93166 51.026 5.7221 51.026 5.7221 51.0781C5.7221 51.1302 5.82688 51.0781 5.93166 51.1302C6.19362 51.1823 6.29841 51.2866 6.50797 51.2866C6.66515 51.2866 6.87472 51.1823 6.76993 50.9217C6.76993 50.8696 6.71754 50.8696 6.71754 50.9217C6.71754 51.026 6.56036 51.0781 6.40319 51.0781C6.24601 51.0781 6.19362 51.026 5.93166 51.026ZM4.09795 51.912C4.15034 51.9641 4.46469 52.381 3.94077 52.5374C3.94077 52.5374 3.88838 52.5895 3.94077 52.5895C4.30752 52.7458 4.46469 52.4853 4.46469 52.4853C4.62187 52.9022 4.35991 53.1107 4.35991 53.1107C4.4123 53.1628 4.56948 53.3191 4.83143 53.3713C4.93622 53.3191 5.09339 53.2149 5.14579 53.0585C5.14579 53.0585 5.19818 53.2149 5.14579 53.4234C5.87927 53.4755 6.14123 52.9022 6.71754 53.0064C6.71754 52.6416 6.50797 51.9641 5.77449 51.8599C5.09339 51.7035 5.25057 51.4429 5.25057 51.4429C5.56492 51.4429 5.7221 51.5471 5.7221 51.5471C5.77449 51.4429 5.7221 51.3908 5.7221 51.3908C5.77449 51.3387 5.77449 51.2344 5.77449 51.2344C5.46014 51.2344 5.35535 51.1823 5.35535 51.1823C5.30296 50.9739 5.46014 50.7133 5.93166 51.026C6.03645 50.9217 6.03645 50.7654 6.03645 50.7654C6.08884 50.7654 6.08884 50.7133 6.08884 50.6612C6.08884 50.5569 5.6697 50.3485 5.61731 50.3485C5.61731 50.2442 5.46014 50.0357 4.98861 50.14C4.77904 50.1921 4.62187 50.0879 4.67426 49.9836H4.62187C4.56948 50.0357 4.51708 50.1921 4.67426 50.2963C4.88383 50.4006 4.88383 50.609 4.88383 50.6612C4.88383 50.7133 4.83143 50.7133 4.83143 50.6612C4.72665 50.2963 4.25513 50.2442 3.94077 50.4006C3.94077 50.609 4.15034 50.7133 4.25512 50.7133C4.30752 50.7133 4.4123 50.6612 4.4123 50.5569C4.4123 50.5048 4.4123 50.5048 4.46469 50.5569C4.51708 50.6612 4.30752 50.9217 4.04556 50.7654C3.7836 51.026 3.88838 51.3908 3.88838 51.5471C3.94077 51.7556 3.83599 52.0162 3.62642 51.912C3.67882 51.912 3.88838 52.0683 4.09795 51.912ZM5.6697 50.5048C5.51253 50.6612 5.30296 50.609 5.25057 50.4006C5.51253 50.3485 5.6697 50.4006 5.6697 50.5048ZM14.1572 51.0781C14 51.0781 13.8952 51.026 13.8428 50.9217C13.8428 50.8696 13.7904 50.8696 13.7904 50.9217C13.738 51.1823 13.8952 51.2866 14.0524 51.2866C14.262 51.2866 14.3667 51.1302 14.6287 51.1302C14.7335 51.1302 14.8383 51.1302 14.8383 51.0781C14.8383 51.026 14.6811 51.026 14.6287 51.026C14.4191 51.026 14.3667 51.0781 14.1572 51.0781ZM16.9339 51.7556C16.9339 51.7035 16.9339 51.7035 16.9339 51.7556C16.7244 51.8599 16.5672 51.5993 16.6196 51.3908C16.672 51.2866 16.7768 50.9217 16.4624 50.609C16.2005 50.7654 15.9909 50.5048 16.0433 50.4006C16.0433 50.3485 16.0957 50.3485 16.0957 50.4006C16.0957 50.5048 16.2005 50.5569 16.2528 50.5569C16.3576 50.5569 16.5672 50.4527 16.5672 50.2442C16.2528 50.0357 15.7813 50.14 15.6765 50.5048C15.6765 50.5569 15.6241 50.5569 15.6241 50.5048C15.6241 50.4527 15.6241 50.2442 15.8337 50.14C16.0433 50.0357 15.9385 49.8794 15.8861 49.8273H15.8337C15.8861 49.9315 15.7289 50.0357 15.5194 49.9836C15.0478 49.9315 14.8907 50.0879 14.8907 50.1921C14.7859 50.1921 14.4191 50.4527 14.4191 50.5048C14.4191 50.5048 14.4191 50.609 14.4715 50.609C14.4715 50.609 14.4715 50.7654 14.5763 50.8696C15.0478 50.5569 15.205 50.8696 15.1526 51.026C15.1526 51.026 15.0478 51.0781 14.7335 51.0781C14.7335 51.0781 14.7335 51.1823 14.7859 51.2344C14.7859 51.2344 14.7335 51.3387 14.7859 51.3908C14.7859 51.3908 14.9431 51.2866 15.2574 51.2866C15.2574 51.2866 15.467 51.5471 14.7335 51.7035C14.0524 51.8599 13.7904 52.4853 13.7904 52.8501C13.7904 52.8501 13.7904 52.9022 13.7904 52.8501C14.3667 52.7458 14.6287 53.3191 15.3622 53.267C15.3098 53.1107 15.3622 52.9022 15.3622 52.9022C15.4146 53.0585 15.5718 53.1628 15.6765 53.2149C15.9385 53.1628 16.0957 53.0585 16.1481 52.9543C16.1481 52.9543 15.8861 52.7458 16.0433 52.3289C16.0433 52.3289 16.2005 52.5895 16.5672 52.4331C16.6196 52.4331 16.5672 52.381 16.5672 52.381C16.0957 52.2247 16.41 51.8077 16.41 51.7556C16.7244 52.0683 16.9339 51.912 16.9339 51.7556ZM15.3622 50.3485C15.3098 50.609 15.1002 50.609 14.9431 50.4527C14.9431 50.4006 15.1002 50.3485 15.3622 50.3485ZM10.1754 46.2833C10.1754 46.3354 10.2278 46.3875 10.2278 46.4397C10.2802 46.4918 10.2802 46.5439 10.2278 46.5439C10.2278 46.5439 10.1754 46.596 10.123 46.5439C10.0706 46.5439 10.0182 46.4918 9.96583 46.4918C9.86105 46.4918 9.80866 46.5439 9.80866 46.596C9.80866 46.6481 9.86105 46.7002 9.96583 46.7002C10.0182 46.7002 10.0706 46.6481 10.123 46.6481C10.1754 46.596 10.2278 46.596 10.2278 46.6481C10.2278 46.6481 10.2278 46.8566 10.1754 47.0651C10.0182 47.1172 9.91344 47.2214 9.91344 47.3256C9.91344 47.5341 10.123 47.6384 10.2802 47.7426C10.4374 47.6905 10.6469 47.5341 10.6469 47.3256C10.6469 47.2214 10.5421 47.1172 10.385 47.0651C10.385 46.9087 10.3326 46.7002 10.3326 46.6481C10.3326 46.6481 10.385 46.596 10.4374 46.6481C10.4897 46.6481 10.5421 46.7002 10.5945 46.7002C10.6993 46.7002 10.7517 46.6481 10.7517 46.596C10.7517 46.5439 10.6993 46.4918 10.5945 46.4918C10.5421 46.4918 10.4897 46.5439 10.4374 46.5439C10.385 46.596 10.3326 46.596 10.3326 46.5439C10.3326 46.5439 10.2802 46.4918 10.3326 46.4397C10.3326 46.3875 10.385 46.3354 10.385 46.2833C10.385 46.1791 10.3326 46.127 10.2802 46.127C10.2278 46.127 10.1754 46.1791 10.1754 46.2833ZM10.3326 47.8468C10.1754 47.8468 10.0706 47.9511 10.0706 48.1074C10.0706 48.2638 10.1754 48.368 10.3326 48.368C10.4898 48.368 10.5945 48.2638 10.5945 48.1074C10.5421 47.9511 10.4374 47.8468 10.3326 47.8468ZM10.3326 50.2963C11.3804 50.2963 11.9567 50.5048 11.9567 50.5048C11.9567 49.9836 11.9567 49.723 12.2711 49.723C12.1139 49.3061 12.795 49.0976 12.795 48.5765C12.795 48.2116 12.533 48.1595 12.4282 48.1595C12.2187 48.1595 12.2187 48.3159 12.0091 48.3159H11.9567C11.9567 48.368 12.0091 48.4722 12.1139 48.4722C12.2187 48.4722 12.2187 48.368 12.3235 48.368C12.3759 48.368 12.4282 48.4201 12.4282 48.5243C12.4282 48.7849 12.2711 49.0455 12.0615 49.254C12.0091 49.2019 11.9567 49.1498 11.9043 49.1498C11.7995 49.1498 11.6948 49.254 11.6948 49.4103C11.6948 49.4625 11.6948 49.5146 11.7472 49.5667C11.6948 49.6188 11.6424 49.6188 11.59 49.6188C11.4852 49.6188 11.3804 49.5667 11.3804 49.4103C11.3804 48.9934 11.9567 48.6286 11.9567 48.1074C11.9567 47.8468 11.7995 47.5862 11.4328 47.5862C11.0661 47.5862 11.1185 47.9511 10.8041 47.9511H10.7517C10.7517 47.9511 10.8041 48.1595 10.9613 48.1595C11.1185 48.1595 11.1708 47.8468 11.328 47.8468C11.3804 47.8468 11.4852 47.8989 11.4852 48.1074C11.4852 48.2638 11.3804 48.5243 11.2756 48.7849C11.2232 48.7328 11.1708 48.7328 11.1185 48.7328C10.9613 48.7328 10.8565 48.8892 10.8565 49.0455C10.8565 49.1498 10.9089 49.254 10.9613 49.3061C10.9089 49.3061 10.8565 49.4103 10.7517 49.4103C10.5421 49.4103 10.4374 49.3061 10.4374 49.1498C10.4374 48.9934 10.6993 48.9413 10.6993 48.7328C10.6993 48.5765 10.5945 48.4722 10.4898 48.4722C10.385 48.4722 10.3326 48.5243 10.3326 48.5243C10.3326 48.5243 10.2802 48.4722 10.1754 48.4722C10.0706 48.4722 9.96583 48.5765 9.96583 48.7328C9.96583 48.9413 10.2278 48.9934 10.2278 49.1498C10.2278 49.3061 10.123 49.4103 9.91344 49.4103C9.80866 49.4103 9.70387 49.3061 9.65148 49.2019C9.70387 49.1498 9.75626 49.0455 9.75626 48.9413C9.75626 48.7849 9.65148 48.6286 9.49431 48.6286C9.44191 48.6286 9.38952 48.6807 9.33713 48.6807C9.23235 48.4201 9.12756 48.1595 9.12756 48.0032C9.12756 47.7947 9.23235 47.7426 9.28474 47.7426C9.44192 47.7426 9.49431 48.0553 9.65148 48.0553C9.80866 48.0553 9.86105 47.8468 9.86105 47.8468C9.86105 47.8468 9.86105 47.8468 9.80866 47.8468C9.49431 47.8468 9.5467 47.482 9.17996 47.482C8.81321 47.482 8.65604 47.7426 8.65604 48.0032C8.65604 48.5243 9.23235 48.8892 9.23235 49.3061C9.23235 49.5146 9.12756 49.5146 9.02278 49.5146C8.97039 49.5146 8.918 49.5146 8.8656 49.4625C8.8656 49.4103 8.918 49.3582 8.918 49.3061C8.918 49.1498 8.81321 49.0455 8.70843 49.0455C8.65604 49.0455 8.60365 49.0976 8.55125 49.1498C8.34169 48.9413 8.18451 48.6807 8.18451 48.4201C8.18451 48.3159 8.2369 48.2638 8.28929 48.2638C8.39408 48.2638 8.39408 48.368 8.49886 48.368C8.60365 48.368 8.65604 48.2638 8.65604 48.2116C8.65604 48.2116 8.65604 48.2116 8.60364 48.2116C8.39408 48.2116 8.44647 48.0553 8.18451 48.0553C8.13212 48.0553 7.81777 48.1074 7.81777 48.4722C7.81777 49.0455 8.49886 49.2019 8.34169 49.6188C8.65604 49.5667 8.65604 49.8794 8.65604 50.4006C8.70843 50.5048 9.28474 50.2963 10.3326 50.2963ZM8.39408 51.026C8.13212 51.0781 7.92255 51.1302 7.81777 51.1823C7.81777 51.0781 7.87016 50.9217 7.97494 50.9217C7.97494 50.9217 7.97494 50.9217 7.97494 50.8696C7.71299 50.7133 7.6082 51.026 7.6082 51.026C7.50342 51.026 7.39863 51.026 7.39863 51.1823C7.39863 51.5471 6.56036 51.7556 6.40319 51.7556C6.71754 51.8599 6.87472 52.2768 6.87472 52.2768C7.13667 52.0162 7.39863 51.8077 7.45103 51.8077C7.50342 51.8077 7.55581 51.912 7.55581 51.912C7.55581 51.912 7.55581 51.912 7.6082 51.912C7.71299 51.7035 7.66059 51.7035 7.66059 51.6514C7.66059 51.5993 7.66059 51.4429 7.87016 51.4429V53.8403H7.76538C7.71298 53.8403 7.39863 53.5276 6.9795 53.267C6.56036 53.0064 6.3508 53.1628 5.93166 53.4234C5.35535 53.7361 4.72665 53.4755 4.72665 53.4755C4.20273 53.8403 4.04556 54.8827 4.04556 54.8827C3.94077 54.9348 3.7836 54.9869 3.62642 54.9869C3.25968 54.9869 3.1549 54.7263 3.1549 54.6221C3.1549 53.9967 3.88838 53.7361 3.88838 53.1628C3.88838 53.0064 3.83599 52.4331 3.10251 52.4331C2.99772 52.4331 2.4738 52.4331 2.4738 52.4331C2.21184 52.4331 2.10706 52.2247 2.10706 52.1726C2.10706 52.1204 2.05467 52.1726 2.05467 52.1726C2.05467 52.2247 2.00228 52.2768 2.00228 52.4331C2.00228 52.6937 2.15945 52.798 2.42141 52.798C2.5262 52.798 2.63098 52.7458 2.68337 52.7458C2.68337 52.7458 2.73576 52.7458 2.68337 52.7458C2.57859 52.9022 2.57859 53.1107 2.63098 53.2149C2.63098 53.2149 2.63098 53.2149 2.68337 53.2149C2.73576 52.9543 2.99772 52.6937 3.31207 52.6937C3.73121 52.6937 3.73121 53.0064 3.73121 53.1107C3.73121 53.5797 2.89294 53.9445 2.89294 54.6221C2.89294 55.2996 3.62642 55.4559 4.04556 55.3517C4.04556 56.0292 3.25968 56.2377 3.20729 55.7686C3.20729 55.7686 3.20729 55.7165 3.1549 55.7686C3.05011 56.0292 3.10251 56.2377 3.41686 56.2898C3.41686 56.2898 3.41686 56.2898 3.41686 56.3419C3.10251 56.5504 3.25968 57.28 3.31207 57.4885C3.31207 57.8012 2.99772 57.7491 2.99772 57.7491C2.99772 57.7491 2.99772 57.7491 2.99772 57.8012C3.20729 58.0618 3.52164 57.8012 3.52164 57.8012C3.73121 57.8533 3.62642 58.0618 3.46925 58.1139V58.166C3.52164 58.166 3.83599 58.2182 3.88838 57.9576C4.04556 58.1139 4.25513 58.0618 4.30752 58.0618C4.35991 58.0097 4.67426 57.9055 4.72665 58.2703C4.93622 58.0097 4.72665 57.8012 4.56948 57.8012C4.56948 57.8012 4.77904 57.6449 4.93622 57.8533C4.93622 57.4885 4.67426 57.4364 4.46469 57.5928C4.46469 57.5406 4.4123 57.3322 4.67426 57.3843C4.46469 57.1237 4.25513 57.3843 4.20273 57.4364C4.09795 57.5406 3.83599 57.4885 3.83599 57.4885C3.88838 56.2377 5.041 56.6546 5.19818 56.0814C5.19818 56.0292 5.19818 56.0814 5.19818 56.0814C5.25057 56.2377 5.61731 56.2377 5.6697 55.9771C5.6697 55.9771 5.6697 55.925 5.6697 55.9771C5.35535 56.2898 4.62187 55.2996 5.61731 54.4657C6.45558 53.7882 7.24146 54.153 7.50342 54.3615C7.50342 54.4657 7.45103 54.5178 7.39863 54.5178C7.50342 54.57 7.6082 54.5178 7.66059 54.4657C7.81777 54.57 7.66059 54.7263 7.6082 54.7784C7.6082 54.7784 7.6082 54.7784 7.6082 54.8305C7.76538 54.8827 7.92255 54.6742 7.92255 54.57H7.97494V55.2996C7.97494 56.3419 9.17995 56.4462 10.4374 57.3322C11.7472 56.4462 12.8998 56.3419 12.8998 55.2996V54.57H12.9522C12.9522 54.6742 13.1093 54.8305 13.2665 54.8305C13.2665 54.8305 13.2665 54.8305 13.2665 54.7784C13.2141 54.7263 13.0569 54.57 13.2141 54.4657C13.2665 54.5178 13.3713 54.57 13.4761 54.5178C13.4237 54.5178 13.3713 54.4657 13.3713 54.3615C13.6857 54.153 14.4191 53.7361 15.2574 54.4657C16.2528 55.2996 15.5194 56.2898 15.205 55.9771C15.2574 56.2898 15.6765 56.2377 15.6765 56.0814C15.8337 56.7068 16.9339 56.2377 17.0387 57.4885C17.0387 57.4885 16.7768 57.5406 16.672 57.4364C16.6196 57.3843 16.4624 57.1758 16.2005 57.3843C16.5148 57.3843 16.41 57.5928 16.41 57.5928C16.2005 57.4364 15.9385 57.4885 15.9385 57.8533C15.9385 57.9055 15.9385 57.8533 15.9385 57.8533C16.0957 57.6449 16.3052 57.8012 16.3052 57.8012C16.1481 57.8012 15.9385 58.0097 16.1481 58.2703C16.1481 58.2703 16.1481 58.3224 16.1481 58.2703C16.2005 57.9576 16.4624 58.0618 16.5672 58.0618C16.6196 58.0618 16.8292 58.166 16.9863 57.9576C17.0387 58.2182 17.3531 58.166 17.4055 58.166C17.4055 58.166 17.4055 58.166 17.4055 58.1139C17.2483 58.0097 17.1435 57.8533 17.3531 57.8012C17.3531 57.8012 17.615 58.0618 17.877 57.8012V57.7491C17.877 57.7491 17.5103 57.8012 17.5626 57.4885C17.5626 57.28 17.7198 56.5504 17.4579 56.3419C17.4579 56.3419 17.4055 56.3419 17.4579 56.2898C17.7722 56.2377 17.8246 56.0292 17.7198 55.7686C17.7198 55.7165 17.6674 55.7686 17.6674 55.7686C17.6674 56.2377 16.8816 56.0292 16.8292 55.3517C17.2483 55.4559 17.9818 55.2996 17.9818 54.6221C17.9818 53.9445 17.1435 53.5797 17.1435 53.1107C17.1435 53.0064 17.1435 52.6937 17.5626 52.6937C17.877 52.6937 18.139 52.9543 18.1913 53.2149C18.1913 53.2149 18.1913 53.2149 18.2437 53.2149C18.2961 53.1628 18.2961 52.9022 18.1913 52.7458C18.1913 52.7458 18.1913 52.6937 18.1913 52.7458C18.2437 52.7458 18.3485 52.798 18.4533 52.798C18.7153 52.798 18.8724 52.6416 18.8724 52.4331C18.8724 52.2768 18.82 52.2247 18.82 52.1726C18.82 52.1726 18.82 52.1204 18.7677 52.1726C18.7153 52.2247 18.6629 52.4331 18.4009 52.4331C18.4009 52.4331 17.8246 52.4331 17.7722 52.4331C17.0387 52.4331 16.9863 53.0064 16.9863 53.1628C16.9863 53.7361 17.7198 53.9967 17.7198 54.6221C17.7198 54.7784 17.6674 54.9869 17.2483 54.9869C17.0911 54.9869 16.9339 54.9348 16.8292 54.8827C16.8292 54.8827 16.672 53.8403 16.1481 53.4755C16.1481 53.4755 15.5194 53.7882 14.9431 53.4234C14.4715 53.1628 14.262 53.0064 13.8952 53.267C13.4761 53.5276 13.1617 53.8403 13.1093 53.8403H13.0046V51.4429C13.2141 51.4429 13.2141 51.5993 13.2141 51.6514C13.2141 51.7035 13.1617 51.7556 13.2665 51.912C13.2665 51.8599 13.3189 51.8077 13.3713 51.8077C13.4237 51.8077 13.738 52.0162 13.9476 52.2768C13.9476 52.2768 14.1048 51.8599 14.4191 51.7556C14.2096 51.7035 13.4237 51.5471 13.4237 51.1823C13.4237 51.0781 13.2665 51.026 13.2141 51.026C13.2141 51.026 13.0569 50.7133 12.8474 50.8696V50.9217C12.9522 50.9217 13.0046 51.0781 13.0046 51.1823C12.7426 51.1302 11.7472 50.8175 10.5421 50.8175C9.96583 50.8175 9.44191 50.8696 8.97039 50.9739V51.8077H8.65604V51.026H8.39408ZM6.19362 59.469C6.08884 59.4169 6.03645 59.3647 6.03645 59.2605V58.7393C5.87927 58.6872 5.51253 58.5309 4.67426 58.5309C3.99317 58.5309 3.7836 58.6872 3.7836 58.7393L3.62642 59.7296C3.62642 59.7296 3.88838 59.469 4.88383 59.5211C6.03645 59.5732 7.24146 60.3028 7.24146 59.5732V59.1563C6.3508 59.1563 6.19362 59.4169 6.19362 59.469ZM13.3713 59.1563V59.5732C13.3713 60.3028 14.5763 59.6253 15.7289 59.5211C16.672 59.469 16.9863 59.7296 16.9863 59.7296L16.8292 58.7393C16.8292 58.6872 16.6196 58.5309 15.9385 58.5309C15.1526 58.5309 14.7335 58.6872 14.5763 58.7393V59.2605C14.5763 59.3647 14.5239 59.4169 14.4191 59.469C14.4191 59.4169 14.262 59.1563 13.3713 59.1563ZM10.3326 58.6872C12.2187 58.6872 14.1048 58.7914 14.3667 59.052H14.4191V58.0618C14.4191 57.7491 12.4282 57.5928 10.385 57.5928C8.28929 57.5928 6.3508 57.7491 6.3508 58.0618V59.052C6.3508 59.052 6.3508 59.1042 6.40319 59.052C6.50797 58.7914 8.44647 58.6872 10.3326 58.6872ZM8.65604 54.0488L8.44647 53.9967L8.2369 53.8924C8.2369 53.8924 8.39408 53.8924 8.44647 53.8924C8.34169 53.7882 8.28929 53.7361 8.28929 53.7361C8.28929 53.7361 8.39408 53.7882 8.49886 53.8403C8.44647 53.7361 8.34169 53.6318 8.34169 53.6318C8.34169 53.6318 8.49886 53.7361 8.55125 53.7882C8.49886 53.684 8.44647 53.5276 8.44647 53.5276L8.65604 53.7361C8.65604 53.6318 8.60364 53.4755 8.60364 53.4755L8.76082 53.684C8.76082 53.6318 8.76082 53.4755 8.76082 53.4755C8.76082 53.4755 8.81321 53.6318 8.8656 53.684L8.918 53.5276V53.7882H8.8656L8.81321 54.0488C9.07517 53.9967 9.44191 53.4755 9.70387 53.4755C10.0182 53.4755 10.123 53.8403 10.7517 53.684C10.9089 53.8924 10.9613 54.1009 11.0137 54.3615C11.2232 54.57 11.59 54.5178 11.59 54.2572C11.59 53.9445 11.2756 53.8924 11.2756 53.5797C11.2756 53.4234 11.3804 53.2149 11.6424 53.2149C11.7995 53.2149 12.0091 53.267 12.1139 53.267C12.2711 53.267 12.2711 53.1628 12.3235 53.1107C12.3235 53.0585 12.3759 53.1107 12.3759 53.1107C12.3759 53.1628 12.3759 53.1628 12.3759 53.267C12.3759 53.4755 12.0615 53.4755 12.0615 53.4755C12.0615 53.4755 12.0091 53.4755 12.0615 53.4755C12.1139 53.5276 12.1139 53.6318 12.0615 53.684C12.0091 53.5276 11.8519 53.3713 11.6948 53.3713C11.6424 53.3713 11.5376 53.4234 11.5376 53.5276C11.5376 53.684 11.9043 53.8924 11.9043 54.2572C11.9043 54.6742 11.5376 54.7263 11.1185 54.6221C11.1185 54.9869 11.6948 55.1954 11.6948 54.9348C11.7995 55.039 11.7472 55.1432 11.6424 55.1954C11.7472 55.2475 11.7472 55.4559 11.7995 55.5602C11.8519 55.7165 12.0091 55.6123 12.0615 55.6123C12.0091 55.7686 11.7995 55.7165 11.7995 55.7165C11.6948 55.7686 11.7995 55.8208 11.9043 55.8729C11.8519 55.8729 11.6948 55.925 11.6424 55.8208C11.59 55.925 11.4852 55.925 11.4328 55.925C11.3804 55.925 11.328 55.9771 11.328 56.0814C11.1708 55.9771 11.2756 55.8208 11.328 55.8208C11.328 55.8208 11.2232 55.7686 11.1708 55.925C11.1185 55.7165 11.2756 55.6644 11.3804 55.7165C11.3804 55.6644 11.328 55.6123 11.1708 55.6123C11.1708 55.5602 11.2756 55.4559 11.4328 55.5602C11.4852 55.6123 11.6424 55.5602 11.6424 55.5602C11.3804 55.0911 10.9089 55.4559 10.8041 55.0911C10.8041 55.1954 10.5421 55.1954 10.5421 55.039C10.5945 55.0911 10.6469 55.0911 10.7517 54.9869C10.8041 54.8827 10.8041 54.7784 10.8041 54.7263C10.8041 54.4136 10.4897 53.9445 10.0182 53.9445C9.70387 53.9445 9.38952 54.0488 9.17996 54.2572L9.38952 54.3094C9.38952 54.5178 9.12756 54.6742 8.97039 54.6221L9.02278 54.3615C8.97039 54.3615 8.918 54.4136 8.8656 54.4657C8.65604 54.2051 8.76082 54.1009 8.81321 54.1009C8.70843 54.1009 8.65604 54.153 8.60364 54.2051C8.60364 54.153 8.60365 54.1009 8.65604 54.0488ZM9.28474 55.7686C9.17996 55.8729 9.12756 55.7686 9.02278 55.7686C8.918 55.7686 8.918 55.8729 8.918 55.8729C8.81321 55.7165 8.918 55.6123 9.02278 55.6123C9.02278 55.6123 8.918 55.5081 8.81321 55.6123C8.81321 55.4038 8.97039 55.4038 9.07517 55.5081C9.07517 55.4559 9.02278 55.4038 8.97039 55.4038C9.02278 55.3517 9.02278 55.3517 9.07517 55.3517C9.17996 55.3517 9.17996 55.5081 9.28474 55.5081C9.38952 55.5081 9.5467 55.3517 9.5467 55.3517C9.5467 55.3517 9.44191 55.039 9.44191 54.8827C9.38952 54.9348 9.23235 54.9348 9.23235 54.7263C9.28474 54.8305 9.38952 54.7263 9.44191 54.6742C9.49431 54.6221 9.75627 54.2051 10.123 54.2051C10.2278 54.2051 10.3326 54.2572 10.385 54.3094C10.2802 54.4657 10.385 54.6221 10.4898 54.57C10.0182 54.7263 9.80866 54.8305 9.80866 55.2475C9.80866 55.4559 9.86105 55.5602 10.0182 55.5602C9.96583 55.6123 9.91344 55.6123 9.86105 55.6123C9.75627 55.6123 9.75627 55.5602 9.70387 55.5602C9.65148 55.5602 9.44191 55.6644 9.44191 55.7686C9.44191 55.8208 9.44192 55.8729 9.5467 55.8729C9.44192 55.8729 9.33713 55.8729 9.28474 55.7686ZM10.5945 51.8077C10.4374 51.8077 10.3326 51.8077 10.3326 51.8599C10.385 51.9641 10.4898 51.9641 10.5945 51.8077ZM10.0182 52.2247C10.123 52.1726 10.2278 52.2247 10.2802 52.2247V52.2768C10.0706 52.3289 10.0706 52.4331 9.91344 52.4331C9.80866 52.4331 9.70387 52.3289 9.75626 52.2247C9.75626 52.1726 9.80866 52.2247 10.0182 52.2247ZM7.08428 57.1237C7.24146 57.3322 7.39863 57.1237 7.55581 57.1237C7.66059 57.1237 7.76538 57.1758 7.76538 57.3322C7.97494 57.0195 7.71299 56.8631 7.6082 56.8631C7.66059 56.811 7.87016 56.7068 7.97494 56.9152C7.97494 56.5504 7.71298 56.5504 7.50342 56.7068C7.45103 56.5504 7.55581 56.4462 7.71298 56.4462C7.45103 56.1856 7.29385 56.4983 7.24146 56.5504C7.13667 56.6546 6.76993 56.4462 6.66515 56.2898C6.66515 56.2898 6.9795 55.9771 6.9795 55.6644V55.6123C7.03189 55.6123 7.03189 55.6644 7.08428 55.6644C7.13667 55.6644 7.29385 55.6644 7.29385 55.4038C7.24146 55.4559 7.24146 55.4559 7.18907 55.4559C6.92711 55.4559 6.40319 54.6221 5.82688 54.6221C5.6697 54.6221 5.35535 54.7263 5.19818 54.8827C5.25057 54.9348 5.30296 55.039 5.30296 55.0911C5.30296 55.1954 5.19818 55.2475 5.14579 55.2475C5.46014 55.3517 6.03645 55.5602 6.14123 55.6644C6.29841 55.7686 6.24601 56.0292 6.19362 56.3941C6.08884 56.7068 5.93166 56.6546 5.87927 56.6546C5.98405 56.7589 6.03645 56.811 6.14123 56.811C6.29841 56.811 6.3508 56.7068 6.45558 56.7068C6.61276 56.7068 6.87472 56.9152 6.87472 57.0716C6.87472 57.1758 6.82232 57.2279 6.71754 57.28C6.76993 57.3322 7.03189 57.3843 7.08428 57.1237ZM13.8952 57.3322C13.7904 57.28 13.738 57.1758 13.738 57.1237C13.738 56.9673 14.0524 56.7589 14.1572 56.7589C14.262 56.7589 14.3144 56.8631 14.4715 56.8631C14.5763 56.8631 14.6287 56.811 14.7335 56.7068C14.6811 56.7068 14.4715 56.7589 14.4191 56.4462C14.3144 56.0814 14.3144 55.8729 14.4715 55.7165C14.5763 55.6123 15.1526 55.4038 15.467 55.2996C15.3622 55.2996 15.3098 55.2475 15.3098 55.1432C15.3098 55.0911 15.3098 54.9869 15.4146 54.9348C15.2574 54.7784 14.9431 54.6742 14.7859 54.6742C14.1572 54.6742 13.6333 55.5081 13.4237 55.5081C13.3713 55.5081 13.3713 55.5081 13.3189 55.4559C13.3189 55.7165 13.4761 55.7165 13.5285 55.7165C13.5809 55.7165 13.6333 55.7165 13.6333 55.6644V55.7165C13.6333 56.0292 13.9476 56.3419 13.9476 56.3419C13.7904 56.4983 13.4761 56.7068 13.3713 56.6025C13.3189 56.5504 13.1617 56.2377 12.8998 56.4983C13.0569 56.4983 13.1617 56.6025 13.1093 56.7589C12.8998 56.6025 12.6378 56.6025 12.6378 56.9673C12.7426 56.7589 12.9522 56.9152 13.0046 56.9152C12.8474 56.9152 12.6378 57.1237 12.8474 57.3843C12.8474 57.1758 13.0046 57.1758 13.0569 57.1758C13.2665 57.1758 13.3713 57.3322 13.5285 57.1758C13.5809 57.3843 13.8428 57.3322 13.8952 57.3322ZM8.918 52.5374C8.918 52.5895 8.81321 52.5374 8.81321 52.5374C8.81321 52.5895 8.8656 52.6937 8.97039 52.6937C9.02278 52.6937 9.07517 52.6937 9.07517 52.6416C9.07517 52.6416 9.44191 52.7458 9.59909 52.798C9.5467 52.9022 9.49431 53.0064 9.49431 53.1107C9.38952 53.0585 8.81321 52.7458 8.81321 52.7458L8.65604 53.0064C8.60365 53.0586 8.49886 52.9543 8.49886 52.9022L8.65604 52.6937C8.60365 52.6416 8.49886 52.6937 8.44647 52.6937C8.44647 52.6416 8.55125 52.5374 8.70843 52.5895C8.70843 52.4853 8.55125 52.5374 8.49886 52.5374C8.55125 52.4853 8.65604 52.381 8.81321 52.4853L8.8656 52.381L8.76082 52.2768L8.81321 52.1726L8.918 52.2768L9.59909 51.3908C9.59909 51.3908 9.75627 51.3387 9.80866 51.3387C9.80866 51.3908 9.80866 51.5471 9.80866 51.5471L9.12756 52.4853L9.28474 52.5374H9.17996L9.02278 52.4853L8.918 52.5374ZM11.2756 52.4331C11.2756 52.5374 11.328 52.6416 11.4328 52.5895C11.4328 52.6937 11.2232 52.7458 11.1708 52.6416C11.1185 52.798 11.1185 52.9022 11.2756 53.0064C11.1708 53.0586 11.0661 53.0585 11.0137 52.9543C10.9089 53.0585 10.9089 53.2149 10.9613 53.3191C10.9613 53.3191 10.6469 53.5276 10.3326 53.3713C10.123 53.267 9.96583 53.1628 9.70387 53.1628C9.75627 52.798 9.91344 52.6937 10.2278 52.6416C10.4898 52.5895 10.5421 52.4853 10.4898 52.381C10.385 52.381 10.2278 52.4331 10.2278 52.4331C10.1754 52.381 10.2278 52.3289 10.2278 52.3289V52.2247C10.4374 52.2247 10.4374 52.1726 10.4374 52.1726C10.4897 51.9641 10.2802 51.9641 10.123 52.0683C10.0706 52.0162 10.0706 51.912 10.0706 51.912L10.0182 51.8599C10.0182 51.8077 10.2278 51.7035 10.2802 51.6514C10.2802 51.5993 10.385 51.495 10.5945 51.495C10.6469 51.4429 10.5945 51.2344 10.5421 51.1302C10.5421 51.1302 10.5421 51.0781 10.5421 51.1302C10.6469 51.1823 10.6993 51.3908 10.7517 51.3908C10.7517 51.3908 11.0137 51.2344 11.0137 51.2866L11.0661 51.5993C11.1185 51.6514 11.328 51.5993 11.3804 51.6514C11.3804 51.6514 11.3804 51.6514 11.3804 51.7035C11.328 51.7035 11.1185 51.8077 11.0661 51.8599C11.328 52.0683 11.2756 52.3289 11.2756 52.4331Z" fill="white"/>
<path d="M24.3736 51.756C24.6355 51.7039 24.7403 51.5475 24.7403 51.2348V48.3684L24.3736 48.2641V48.1078C24.5831 48.0557 24.8451 48.0557 25.0547 48.0557H25.2642L26.9408 50.8179V48.3684L26.574 48.2641V48.1599C26.7836 48.1078 26.9932 48.0557 27.2027 48.0557C27.4647 48.0557 27.5695 48.0557 27.7267 48.1078V48.212C27.4647 48.3163 27.3599 48.4205 27.3599 48.7853V51.9123L27.098 51.9645L25.2119 48.8374V51.5996L25.5786 51.7039V51.8602C25.4214 51.9123 25.2118 51.9645 25.0547 51.9645C24.7927 51.9645 24.6355 51.9645 24.5308 51.9123V51.756H24.3736Z" fill="#7C7C7C"/>
<path d="M29.246 48.9414C29.8747 48.9414 30.2938 49.3583 30.2938 50.088C30.2938 50.1922 30.2938 50.2965 30.2938 50.4528H28.5125C28.5125 51.1303 28.8793 51.4951 29.4032 51.4951C29.7175 51.4951 30.0319 51.3909 30.2415 51.2346C30.2415 51.2867 30.2415 51.3388 30.2415 51.3909C30.2415 51.6515 29.8223 51.9121 29.1936 51.9121C28.5125 51.9121 27.9362 51.3909 27.9362 50.557C27.9886 49.5147 28.6173 48.9414 29.246 48.9414ZM29.8223 50.1401C29.8223 49.5668 29.5604 49.2541 29.1936 49.2541C28.8793 49.2541 28.5125 49.671 28.5125 50.1401H29.8223Z" fill="#7C7C7C"/>
<path d="M30.9749 50.2445V49.4628H30.6606V49.2543L31.2893 48.6289H31.4989V49.1501H32.2847L32.2323 49.4107H31.4465V50.1403C31.4465 50.4009 31.4465 50.6094 31.4465 50.8178C31.4465 51.2869 31.6036 51.4954 31.8132 51.4954C31.9704 51.4954 32.1276 51.4432 32.2847 51.339H32.3371C32.3371 51.7038 32.1276 51.8602 31.7084 51.8602C31.2369 51.8602 30.9749 51.5996 30.9749 51.0263C30.9749 50.8178 30.9749 50.5051 30.9749 50.2445Z" fill="#7C7C7C"/>
<path d="M32.5991 51.7557C32.7563 51.7036 32.9134 51.5993 32.9134 51.443V47.9511L32.5467 47.7948V47.6384C32.8087 47.5863 33.0706 47.5342 33.2802 47.5342H33.4374V47.899V49.3062C33.6469 49.0977 33.9089 48.9935 34.328 48.9935C34.8519 48.9935 35.1663 49.3062 35.1663 49.9316V51.5993L35.4806 51.7036V51.8078C35.3235 51.8599 35.1139 51.912 34.8519 51.912C34.7471 51.912 34.59 51.912 34.4852 51.8599V51.7557C34.6424 51.7036 34.6948 51.5993 34.6948 51.3387V50.1922C34.6948 49.6189 34.4328 49.3583 34.0661 49.3583C33.8565 49.3583 33.5945 49.4625 33.4374 49.5668V51.5993L33.7517 51.7036V51.8078C33.5421 51.8599 33.385 51.912 33.0706 51.912C32.9134 51.912 32.7563 51.912 32.5991 51.8599V51.7557Z" fill="#7C7C7C"/>
<path d="M37.0524 48.9414C37.6811 48.9414 38.1002 49.3583 38.1002 50.088C38.1002 50.1922 38.1002 50.2965 38.1002 50.4528H36.3189C36.3189 51.1303 36.6856 51.4951 37.2096 51.4951C37.5239 51.4951 37.8383 51.3909 38.0478 51.2346C38.0478 51.2867 38.0478 51.3388 38.0478 51.3909C38.0478 51.6515 37.6287 51.9121 37 51.9121C36.3189 51.9121 35.7426 51.3909 35.7426 50.557C35.795 49.5147 36.4237 48.9414 37.0524 48.9414ZM37.5763 50.1401C37.5763 49.5668 37.3143 49.2541 36.9476 49.2541C36.6333 49.2541 36.2665 49.671 36.2665 50.1401H37.5763Z" fill="#7C7C7C"/>
<path d="M38.467 51.7557C38.6241 51.7036 38.7813 51.5994 38.7813 51.443V49.4105L38.4146 49.2541V49.0978C38.6765 49.0456 38.9385 48.9935 39.1481 48.9935H39.3052V49.4105L39.4624 49.202C39.6196 49.0456 39.7768 48.9414 39.9863 48.9414C40.1959 48.9414 40.3007 49.0456 40.3007 49.202C40.3007 49.3062 40.2483 49.4626 40.1959 49.5668C40.0911 49.4626 39.9339 49.4105 39.8292 49.4105C39.6196 49.4105 39.4624 49.5147 39.3052 49.671V51.5994L39.7244 51.7036V51.8079C39.5148 51.86 39.3052 51.9121 38.9909 51.9121C38.8337 51.9121 38.6241 51.9121 38.5194 51.86V51.7557H38.467Z" fill="#7C7C7C"/>
<path d="M40.4055 51.7557C40.5626 51.7036 40.7198 51.5993 40.7198 51.443V47.9511L40.3531 47.7948V47.6384C40.615 47.5863 40.9294 47.5342 41.0866 47.5342H41.2961L41.2437 47.8469V51.5472L41.5581 51.6514V51.7557C41.3485 51.8078 41.139 51.8599 40.877 51.8599C40.7198 51.8599 40.5626 51.8599 40.4055 51.8078V51.7557Z" fill="#7C7C7C"/>
<path d="M43.4966 50.2965V50.1401C43.4966 49.5147 43.3394 49.3583 42.9727 49.3583C42.6583 49.3583 42.344 49.5147 42.082 49.7232C42.082 49.671 42.082 49.6189 42.082 49.5668C42.082 49.202 42.344 48.9414 43.0774 48.9414C43.7061 48.9414 44.0729 49.2541 44.0729 49.7232C44.0729 49.8795 44.0729 50.1401 44.0729 50.3486V51.3388C44.1253 51.443 44.2301 51.5473 44.3348 51.6515C44.2301 51.7557 44.0729 51.86 43.9157 51.9642C43.8109 51.9121 43.7061 51.8079 43.6538 51.6515C43.4966 51.8079 43.1822 51.9642 42.8155 51.9642C42.344 51.9642 42.0296 51.7036 42.0296 51.2867C41.9248 50.7655 42.5011 50.2965 43.4966 50.2965ZM42.9203 51.5994C43.1298 51.5994 43.3394 51.5473 43.4966 51.443V50.6092C42.8155 50.6092 42.4487 50.8697 42.4487 51.2346C42.4487 51.443 42.6059 51.5994 42.9203 51.5994Z" fill="#7C7C7C"/>
<path d="M44.5968 51.7554C44.754 51.7033 44.9112 51.599 44.9112 51.4427V49.4101L44.5444 49.2538V49.0974C44.8064 49.0453 45.0683 48.9932 45.2779 48.9932H45.4351V49.3059C45.6446 49.0974 45.959 48.9932 46.3257 48.9932C46.8497 48.9932 47.164 49.3059 47.164 49.9313V51.599L47.4784 51.7033V51.8075C47.3212 51.8596 47.1116 51.9117 46.8497 51.9117C46.7449 51.9117 46.5877 51.9117 46.4829 51.8596V51.7554C46.6401 51.7033 46.6925 51.599 46.6925 51.3384V50.1919C46.6925 49.6186 46.4305 49.358 46.0638 49.358C45.8018 49.358 45.5923 49.4622 45.4351 49.5665V51.599L45.7494 51.7033V51.8075C45.5399 51.8596 45.3303 51.9117 45.0683 51.9117C44.9112 51.9117 44.754 51.9117 44.5968 51.8596V51.7554Z" fill="#7C7C7C"/>
<path d="M49.2073 48.9941C49.3645 48.9941 49.5216 48.9941 49.6264 49.0462V48.0039L49.2073 47.8475V47.6911C49.4693 47.639 49.7836 47.5869 49.9408 47.5869H50.1504L50.098 47.8996V51.3394C50.1504 51.4436 50.2027 51.5999 50.3075 51.7042C50.2027 51.8084 50.0456 51.9126 49.8884 51.9648C49.7836 51.8605 49.6788 51.7563 49.574 51.5999C49.3645 51.8084 49.0501 51.9648 48.7882 51.9648C48.1595 51.9648 47.6879 51.4436 47.6879 50.6618C47.7927 49.5674 48.4214 48.9941 49.2073 48.9941ZM49.6264 51.3394V49.3589C49.5216 49.3068 49.3645 49.3068 49.2073 49.3068C48.6834 49.3068 48.3166 49.7237 48.3166 50.5576C48.3166 51.2351 48.6834 51.5478 49.0501 51.5478C49.2597 51.5478 49.5216 51.4957 49.6264 51.3394Z" fill="#7C7C7C"/>
<path d="M50.8314 51.2342C51.0934 51.4948 51.3553 51.599 51.6697 51.599C51.9841 51.599 52.1936 51.4427 52.1936 51.2342C52.1936 51.0257 52.0888 50.8694 51.6697 50.713L51.3553 50.6088C50.9886 50.4524 50.8314 50.1919 50.8314 49.8792C50.8314 49.4101 51.2506 48.9932 51.8793 48.9932C52.3508 48.9932 52.5604 49.1495 52.5604 49.358C52.5604 49.4622 52.5604 49.5143 52.508 49.6186C52.2984 49.4622 52.0364 49.4101 51.8269 49.4101C51.4601 49.4101 51.2506 49.5665 51.2506 49.7749C51.2506 49.9834 51.3553 50.0876 51.7221 50.244L52.0364 50.3482C52.4556 50.5046 52.6128 50.713 52.6128 51.0779C52.6128 51.5469 52.1412 51.9639 51.5125 51.9639C50.9886 51.9639 50.7266 51.8075 50.7266 51.4948C50.779 51.3906 50.779 51.2863 50.8314 51.2342Z" fill="#7C7C7C"/>
<path d="M54.1845 51.7039C54.4465 51.6518 54.5513 51.5475 54.5513 51.2348V48.3684L54.1845 48.212V48.0557H56.4374L56.385 48.9417H56.2278V48.8374C56.1754 48.5247 56.0706 48.4205 55.7039 48.4205H55.0752V49.7755H55.7039C55.9658 49.7755 56.0706 49.7234 56.123 49.5671L56.1754 49.4107H56.3326V50.5573H56.1754L56.123 50.4009C56.0706 50.1925 55.9658 50.0882 55.8087 50.0882H55.0752V51.4954H55.8087C56.123 51.4954 56.2802 51.3912 56.385 51.1827L56.4374 51.0785H56.5945L56.4898 51.8602H54.1845V51.7039Z" fill="#7C7C7C"/>
<path d="M56.9613 51.7554C57.1185 51.7033 57.2756 51.599 57.2756 51.4427V49.4101L56.9089 49.2538V49.0974C57.1708 49.0453 57.4328 48.9932 57.6424 48.9932H57.7995V49.3059C58.0091 49.0974 58.3235 48.9932 58.6902 48.9932C59.2141 48.9932 59.5285 49.3059 59.5285 49.9313V51.599L59.8428 51.7033V51.8075C59.6856 51.8596 59.4761 51.9117 59.2141 51.9117C59.1093 51.9117 58.9522 51.9117 58.8474 51.8596V51.7554C59.0046 51.7033 59.0569 51.599 59.0569 51.3384V50.1919C59.0569 49.6186 58.795 49.358 58.4282 49.358C58.1663 49.358 57.9567 49.4622 57.7995 49.5665V51.599L58.1139 51.7033V51.8075C57.9043 51.8596 57.6948 51.9117 57.4328 51.9117C57.2756 51.9117 57.1185 51.9117 56.9613 51.8596V51.7554Z" fill="#7C7C7C"/>
<path d="M60.3667 50.2445V49.4628H60.0524V49.2543L60.6811 48.6289H60.8907V49.1501H61.6765L61.6242 49.4628H60.8383V50.1924C60.8383 50.453 60.8383 50.6615 60.8383 50.8699C60.8383 51.339 60.9954 51.5475 61.205 51.5475C61.3622 51.5475 61.5194 51.4954 61.6765 51.3911H61.7289C61.7289 51.7559 61.5194 51.9123 61.1002 51.9123C60.6287 51.9123 60.3667 51.6517 60.3667 51.0784C60.3667 50.8178 60.3667 50.5051 60.3667 50.2445Z" fill="#7C7C7C"/>
<path d="M63.1959 48.9414C63.8246 48.9414 64.2437 49.3583 64.2437 50.088C64.2437 50.1922 64.2437 50.2965 64.2437 50.4528H62.4624C62.4624 51.1303 62.8292 51.4951 63.3531 51.4951C63.6674 51.4951 63.9818 51.3909 64.1913 51.2346C64.1913 51.2867 64.1913 51.3388 64.1913 51.3909C64.1913 51.6515 63.7722 51.9121 63.1435 51.9121C62.4624 51.9121 61.8861 51.3909 61.8861 50.557C61.9385 49.5147 62.5672 48.9414 63.1959 48.9414ZM63.7198 50.1401C63.7198 49.5668 63.4579 49.2541 63.0911 49.2541C62.7768 49.2541 62.41 49.671 62.41 50.1401H63.7198Z" fill="#7C7C7C"/>
<path d="M64.6105 51.7557C64.7677 51.7036 64.9248 51.5994 64.9248 51.443V49.4105L64.5581 49.2541V49.0978C64.82 49.0456 65.082 48.9935 65.2916 48.9935H65.4488V49.4105L65.6059 49.202C65.7631 49.0456 65.9203 48.9414 66.1298 48.9414C66.3394 48.9414 66.4442 49.0456 66.4442 49.202C66.4442 49.3062 66.3918 49.4626 66.3394 49.5668C66.2346 49.4626 66.0775 49.4105 65.9727 49.4105C65.7631 49.4105 65.6059 49.5147 65.4488 49.671V51.5994L65.8679 51.7036V51.8079C65.6583 51.86 65.4488 51.9121 65.1344 51.9121C64.9772 51.9121 64.7677 51.9121 64.6629 51.86V51.7557H64.6105Z" fill="#7C7C7C"/>
<path d="M67.5444 53.0066L67.9636 53.1108V53.215C67.754 53.2671 67.492 53.3193 67.1777 53.3193C67.0205 53.3193 66.8633 53.3193 66.7062 53.2671V53.1629C66.8633 53.1108 67.0205 53.0066 67.0205 52.8502V49.4105L66.6538 49.2541V49.0978C66.9157 49.0456 67.1777 48.9935 67.3872 48.9935H67.5444V49.2541C67.754 49.0978 68.0683 48.9414 68.3303 48.9414C68.959 48.9414 69.4305 49.4105 69.4305 50.1922C69.4305 51.2867 68.7494 51.86 67.9636 51.86C67.8064 51.86 67.6492 51.8079 67.5968 51.8079V53.0066H67.5444ZM67.9636 51.5994C68.4875 51.5994 68.9066 51.2346 68.9066 50.4007C68.9066 49.7232 68.5399 49.4105 68.1207 49.4105C67.9112 49.4105 67.7016 49.4626 67.5444 49.5668V51.5994C67.6492 51.5994 67.8064 51.5994 67.9636 51.5994Z" fill="#7C7C7C"/>
<path d="M69.7973 51.7557C69.9544 51.7036 70.1116 51.5994 70.1116 51.443V49.4105L69.7449 49.2541V49.0978C70.0068 49.0456 70.2688 48.9935 70.4784 48.9935H70.6355V49.4105L70.7927 49.202C70.9499 49.0456 71.1071 48.9414 71.3166 48.9414C71.5262 48.9414 71.631 49.0456 71.631 49.202C71.631 49.3062 71.5786 49.4626 71.5262 49.5668C71.4214 49.4626 71.2642 49.4105 71.1595 49.4105C70.9499 49.4105 70.7927 49.5147 70.6355 49.671V51.5994L71.0547 51.7036V51.8079C70.8451 51.86 70.6355 51.9121 70.3212 51.9121C70.164 51.9121 69.9544 51.9121 69.8497 51.86V51.7557H69.7973Z" fill="#7C7C7C"/>
<path d="M71.9453 51.7552C72.1025 51.7031 72.2597 51.5989 72.2597 51.4425V49.4099L71.893 49.2536V49.1494C72.1549 49.0972 72.4169 49.0451 72.6264 49.0451H72.836L72.7836 49.3578V51.651L73.098 51.7552V51.8594C72.8884 51.9116 72.7312 51.9637 72.4169 51.9637C72.2597 51.9637 72.1025 51.9637 71.9453 51.9116V51.7552ZM72.2073 48.107C72.2073 47.8985 72.3645 47.7422 72.574 47.7422C72.7312 47.7422 72.8884 47.8464 72.8884 48.0549C72.8884 48.2634 72.7312 48.4197 72.574 48.4197C72.3645 48.4718 72.2073 48.3155 72.2073 48.107Z" fill="#7C7C7C"/>
<path d="M73.5171 51.2342C73.779 51.4948 74.041 51.599 74.3554 51.599C74.6697 51.599 74.8793 51.4427 74.8793 51.2342C74.8793 51.0257 74.7745 50.8694 74.3554 50.713L74.041 50.6088C73.6743 50.4524 73.5171 50.1919 73.5171 49.8792C73.5171 49.4101 73.9362 48.9932 74.5649 48.9932C75.0365 48.9932 75.246 49.1495 75.246 49.358C75.246 49.4622 75.246 49.5143 75.1936 49.6186C74.9841 49.4622 74.7221 49.4101 74.5125 49.4101C74.1458 49.4101 73.9362 49.5665 73.9362 49.7749C73.9362 49.9834 74.041 50.0876 74.4077 50.244L74.7221 50.3482C75.1412 50.5046 75.2984 50.713 75.2984 51.0779C75.2984 51.5469 74.8269 51.9639 74.1982 51.9639C73.6743 51.9639 73.4123 51.8075 73.4123 51.4948C73.4647 51.3906 73.4647 51.2863 73.5171 51.2342Z" fill="#7C7C7C"/>
<path d="M76.975 48.9414C77.6037 48.9414 78.0228 49.3583 78.0228 50.088C78.0228 50.1922 78.0228 50.2965 78.0228 50.4528H76.2415C76.2415 51.1303 76.6082 51.4951 77.1321 51.4951C77.4465 51.4951 77.7608 51.3909 77.9704 51.2346C77.9704 51.2867 77.9704 51.3388 77.9704 51.3909C77.9704 51.6515 77.5513 51.9121 76.9226 51.9121C76.2415 51.9121 75.6652 51.3909 75.6652 50.557C75.7175 49.5147 76.3462 48.9414 76.975 48.9414ZM77.5513 50.1401C77.5513 49.5668 77.2893 49.2541 76.9226 49.2541C76.6082 49.2541 76.2415 49.671 76.2415 50.1401H77.5513Z" fill="#7C7C7C"/>
<path d="M79.1754 51.7554C79.385 51.7033 79.4374 51.599 79.5421 51.3905L80.7472 48.055L81.1663 48.0029L82.2665 51.599L82.5809 51.7033V51.8075C82.4237 51.8596 82.2141 51.9117 82.0046 51.9117C81.795 51.9117 81.5854 51.9117 81.3759 51.8596V51.7554C81.5854 51.7033 81.6902 51.599 81.6378 51.4427L81.4283 50.713H80.2232L79.9613 51.6511L80.328 51.7033V51.8596C80.1185 51.9117 79.9613 51.9638 79.6469 51.9638C79.4898 51.9638 79.3326 51.9638 79.2278 51.9117V51.7554H79.1754ZM81.3759 50.3482L80.9043 48.6283L80.328 50.3482H81.3759Z" fill="#7C7C7C"/>
<path d="M83.3667 50.974C83.1048 50.8697 82.8428 50.557 82.8428 50.1401C82.8428 49.4626 83.3667 48.9414 84.0478 48.9414C84.3098 48.9414 84.5718 49.0456 84.6765 49.1499C84.7813 49.0456 84.9909 48.9414 85.2005 48.9414C85.3052 48.9414 85.41 48.9414 85.4624 48.9935L85.41 49.4105C85.2004 49.3583 84.9909 49.3583 84.7813 49.3583C84.9909 49.5147 85.1481 49.7753 85.1481 50.0359C85.1481 50.7134 84.5717 51.1825 83.943 51.1825C83.7859 51.1825 83.6811 51.1303 83.5763 51.1303C83.4715 51.1825 83.3667 51.2867 83.3667 51.443C83.3667 51.5994 83.5239 51.7036 83.7335 51.7036H84.5718C85.0957 51.7036 85.3576 51.9121 85.3576 52.3812C85.3576 52.9544 84.7289 53.4235 83.8907 53.4235C83.1048 53.4235 82.738 53.1108 82.738 52.746C82.738 52.4333 83 52.1727 83.3143 52.0684C83.1048 52.0163 82.9476 51.8079 82.9476 51.5994C82.9476 51.3909 83.1572 51.0782 83.3667 50.974ZM83.943 53.0066C84.5194 53.0066 84.8861 52.746 84.8861 52.4333C84.8861 52.2248 84.7289 52.0684 84.4146 52.0684H83.4191C83.262 52.1206 83.1048 52.329 83.1048 52.5375C83.2096 52.7981 83.4715 53.0066 83.943 53.0066ZM84.5718 49.9838C84.5718 49.4626 84.3098 49.2541 83.943 49.2541C83.5763 49.2541 83.3143 49.5668 83.3143 50.088C83.3143 50.6092 83.5763 50.8176 83.8907 50.8176C84.3098 50.8697 84.5718 50.6092 84.5718 49.9838Z" fill="#7C7C7C"/>
<path d="M86.8246 48.9414C87.4533 48.9414 87.8724 49.3583 87.8724 50.088C87.8724 50.1922 87.8724 50.2965 87.8724 50.4528H86.0911C86.0911 51.1303 86.4579 51.4951 86.9818 51.4951C87.2961 51.4951 87.6105 51.3909 87.82 51.2346C87.82 51.2867 87.82 51.3388 87.82 51.3909C87.82 51.6515 87.4009 51.9121 86.7722 51.9121C86.0911 51.9121 85.5148 51.3909 85.5148 50.557C85.5672 49.5147 86.2483 48.9414 86.8246 48.9414ZM87.4009 50.1401C87.4009 49.5668 87.1389 49.2541 86.7722 49.2541C86.4579 49.2541 86.0911 49.671 86.0911 50.1401H87.4009Z" fill="#7C7C7C"/>
<path d="M88.2916 51.7554C88.4487 51.7033 88.6059 51.599 88.6059 51.4427V49.4101L88.2392 49.2538V49.0974C88.5011 49.0453 88.7631 48.9932 88.9727 48.9932H89.1298V49.3059C89.3394 49.0974 89.6538 48.9932 90.0205 48.9932C90.5444 48.9932 90.8588 49.3059 90.8588 49.9313V51.599L91.1731 51.7033V51.8075C91.016 51.8596 90.8064 51.9117 90.5444 51.9117C90.4397 51.9117 90.2825 51.9117 90.1777 51.8596V51.7554C90.3349 51.7033 90.3873 51.599 90.3873 51.3384V50.1919C90.3873 49.6186 90.1253 49.358 89.7586 49.358C89.4966 49.358 89.287 49.4622 89.1298 49.5665V51.599L89.4442 51.7033V51.8075C89.2346 51.8596 89.0251 51.9117 88.7631 51.9117C88.6059 51.9117 88.4487 51.9117 88.2916 51.8596V51.7554Z" fill="#7C7C7C"/>
<path d="M92.8497 48.9932C93.3212 48.9932 93.4784 49.1495 93.4784 49.358C93.4784 49.4622 93.426 49.5665 93.426 49.6707C93.2164 49.5143 92.9544 49.4101 92.7449 49.4101C92.3257 49.4101 91.959 49.827 91.959 50.5046C91.959 51.2342 92.3257 51.599 92.7973 51.599C93.0068 51.599 93.3212 51.4948 93.4784 51.3384C93.4784 51.3906 93.5308 51.4427 93.5308 51.4948C93.5308 51.7554 93.2164 52.016 92.6401 52.016C91.959 52.016 91.4351 51.4948 91.4351 50.6609C91.4351 49.5665 92.0638 48.9932 92.8497 48.9932Z" fill="#7C7C7C"/>
<path d="M94.8929 51.7029L93.9499 49.3576L93.7403 49.2013V49.0449H94.8405V49.2013L94.5262 49.3576L95.1549 51.1817L95.7312 49.3576L95.4169 49.2013V49.0449H96.3075V49.2013L96.1503 49.3576L95.3121 51.7029C94.8405 53.0058 94.369 53.4228 94.0547 53.4228C93.7927 53.4228 93.6879 53.3185 93.6879 52.9537C93.7927 52.9537 93.8451 52.9537 93.9499 52.9537C94.2118 52.9537 94.5786 52.641 94.8405 52.0156L94.8929 51.7029Z" fill="#7C7C7C"/>
</g>
<defs>
<clipPath id="clip0">
<rect width="96" height="39" fill="white" transform="translate(1 27)"/>
</clipPath>
</defs>
</svg>
