<svg width="100%" height="100%" viewBox="0 0 40 40" fill="none" xmlns="http://www.w3.org/2000/svg">
<path d="M2.32543 21.2679C1.56923 19.7143 2.43346 19.1786 3.29769 18.9107C4.70207 18.4286 6.21448 18 7.72689 17.7857C16.9634 17.9464 19.286 17.7857 29.7648 18.8036C31.3853 19.1786 33.0597 19.5 34.8422 19.875C32.5736 16.9821 28.6846 15.8036 27.2802 12C28.1984 12.2143 29.2787 12.1607 29.9809 12.6429C32.6276 14.4643 35.1123 16.4464 37.651 18.375C38.0291 18.6429 38.2451 19.0714 38.4612 19.5C39.3254 20.9464 39.1634 21.9107 37.651 22.6071C34.5181 24.0536 31.3313 25.3929 28.1444 26.7321C27.2802 27.1071 26.1999 27.2679 25.7678 26.0893C25.3357 24.9643 26.1459 24.3214 27.0101 23.9464C28.2524 23.4107 29.4948 22.9286 30.7371 22.4464C31.2773 22.2321 31.7634 22.0179 32.6276 21.6964C21.5006 20.7857 12.3181 19.6071 2.32543 21.2679Z" fill="#0A064A"/>
</svg>
