<svg width="40" height="40" viewBox="0 0 40 40" fill="none" xmlns="http://www.w3.org/2000/svg">
<path fill-rule="evenodd" clip-rule="evenodd" d="M5.29028 32H11.637V12H5.29028V32ZM28.5615 32H34.9082V20.706C34.9082 18.004 34.2375 16.08 32.8899 14.646C31.5508 13.214 29.797 12.644 27.6285 12.644C24.7768 12.644 22.6972 14 21.3961 16H21.2649L20.8778 12H15.8682C15.9528 14 15.8682 32 15.8682 32H22.2148V19.476C22.7395 17.922 23.7846 17.146 25.4326 17.146C27.5122 17.146 28.5615 18.532 28.5615 21.316V32Z" fill="#0A064A"/>
<path d="M8.46368 10C10.2747 10 11.7428 8.65685 11.7428 7C11.7428 5.34315 10.2747 4 8.46368 4C6.65268 4 5.18457 5.34315 5.18457 7C5.18457 8.65685 6.65268 10 8.46368 10Z" fill="#0A064A"/>
</svg>
