<svg width="40" height="40" viewBox="0 0 40 40" fill="none" xmlns="http://www.w3.org/2000/svg">
<path d="M33.4377 13.3616C33.1265 12.1854 32.213 11.2611 31.0506 10.9462C28.9436 10.375 20.5 10.375 20.5 10.375C20.5 10.375 12.0564 10.375 9.9516 10.9462C8.78918 11.2611 7.8757 12.1854 7.56454 13.3616C7 15.4913 7 19.9375 7 19.9375C7 19.9375 7 24.3837 7.56454 26.5134C7.8757 27.6896 8.78918 28.6139 9.9516 28.9288C12.0564 29.5 20.5 29.5 20.5 29.5C20.5 29.5 28.9436 29.5 31.0484 28.9288C32.2108 28.6139 33.1243 27.6896 33.4355 26.5134C34 24.3837 34 19.9375 34 19.9375C34 19.9375 34 15.4913 33.4377 13.3616ZM17.7996 24.0351V15.8399L24.814 19.9375L17.7996 24.0351Z" fill="#0A064A"/>
</svg>
