<svg width="181" height="189" viewBox="0 0 181 189" fill="none" xmlns="http://www.w3.org/2000/svg">
<path d="M41.7528 1.45705C41.9615 1.04075 42.1703 0.832599 42.5878 0.832599C43.4229 0.832599 43.8404 1.45705 44.2579 2.0815C44.6755 2.9141 45.3018 3.7467 45.7193 4.78745C49.0596 11.0319 52.3998 17.0683 55.9488 23.1046C57.619 26.2269 59.4978 29.141 61.168 32.2632C62.003 33.7203 63.0469 35.3855 63.8819 36.8425C65.3433 39.3403 67.2222 41.4218 68.4748 43.9196C68.8923 44.5441 69.1011 45.1685 69.1011 46.0011C68.8923 46.8337 68.0573 47.0419 67.431 46.8337C66.8047 46.6256 66.3871 46.2093 66.1784 45.5848C64.9258 43.9196 63.8819 42.2544 62.8381 40.5892C59.0803 34.761 55.7401 28.7247 52.3998 22.6883C50.9384 20.1905 49.6859 17.6927 48.2245 15.1949C46.9719 12.6971 45.5105 10.4075 44.4667 7.90969C43.8404 6.86894 43.4229 5.62004 43.0053 4.5793C42.7966 3.95485 42.5878 3.53855 42.379 2.9141C42.379 2.70595 42.1703 2.4978 42.1703 2.28965C41.9615 1.87335 41.7528 1.6652 41.7528 1.45705ZM177.659 63.902C177.451 62.8612 175.78 63.2775 174.945 63.4857C173.275 63.6938 171.605 64.1101 170.144 64.5264C168.474 64.9427 166.595 65.1509 164.925 65.5672C161.376 66.1916 157.827 66.8161 154.486 67.4405C153.651 67.6487 152.816 67.6487 151.981 67.8568C151.146 68.065 150.311 68.065 149.476 68.2731C147.806 68.4813 145.927 68.8976 144.257 69.1057C138.62 70.1465 132.983 70.7709 127.556 71.8117C127.138 71.8117 126.512 72.0198 126.303 72.228C125.468 72.8524 125.677 73.8932 126.512 74.3095C126.929 74.5176 127.347 74.5176 127.764 74.3095C134.654 73.2687 141.752 71.8117 148.641 70.7709C155.53 69.522 162.628 68.6894 169.309 67.0242C170.979 66.6079 172.649 66.1916 174.319 65.7753C175.154 65.5672 175.989 65.5672 176.824 65.1509C177.242 64.9427 177.659 64.5264 177.659 63.902ZM75.1553 40.7974C74.529 39.3403 73.9027 38.0914 73.4852 36.6344C72.2326 33.304 70.98 30.1817 69.7274 26.8513C67.2222 20.3987 64.9258 13.7379 62.6293 7.28524C62.2118 6.03634 61.7943 4.5793 61.3767 3.3304C61.168 2.70595 60.3329 0 59.2891 0C59.0803 0 59.0803 0.20815 58.8716 0.20815C57.4102 1.45705 58.8716 3.95485 59.2891 5.41189C59.4978 7.07709 59.9154 8.74229 60.5417 10.4075C61.5855 13.7379 62.8381 16.8601 64.0907 20.1905C64.9258 22.4802 65.9696 24.978 66.8047 27.2676C68.0573 30.1817 69.1011 33.304 70.3537 36.2181C70.7712 37.467 71.3975 38.7159 71.815 40.1729C72.2326 41.2137 72.6501 42.6707 73.2764 43.5033C73.6939 44.1278 74.529 44.5441 75.1553 44.1278C76.1991 43.7115 75.7816 42.4626 75.5728 41.8381C75.3641 41.63 75.1553 41.2137 75.1553 40.7974ZM34.4459 18.3172C37.7862 23.1046 41.3352 27.8921 45.093 32.2632C45.5105 32.6795 45.9281 33.0958 46.1368 33.7203C48.2245 36.4262 50.3122 38.924 52.6086 41.2137C54.905 43.7115 57.2014 46.6256 59.4979 49.1234C59.9154 49.5396 60.3329 49.956 60.7504 50.3722C61.168 50.9967 61.7943 51.6212 62.6293 51.413C63.6732 51.413 64.0907 50.1641 63.6732 49.3315C63.2556 48.2908 62.4206 47.6663 61.5855 46.8337C56.7839 42.0463 52.3998 36.6344 48.2245 31.2225C46.1368 28.5165 43.8404 25.8106 41.7528 23.3128C39.8739 21.2313 37.995 18.7335 35.6985 16.652C34.8635 15.8194 33.8196 16.8601 34.2372 17.6927C34.2372 17.9009 34.4459 18.109 34.4459 18.3172ZM171.396 79.0969H170.561C163.463 78.6806 156.365 79.0969 149.267 79.0969C142.169 79.0969 134.862 79.0969 127.764 79.0969C126.929 79.0969 125.885 79.3051 125.885 80.3458C125.677 81.3866 126.72 81.8029 127.556 81.8029C134.654 82.011 141.96 82.011 149.058 82.011C156.156 82.011 163.046 81.8029 170.144 81.5947C170.979 81.5947 172.231 81.8029 172.858 80.9703C173.902 79.7214 172.231 79.0969 171.396 79.0969ZM81.4183 37.467C81.2095 37.0507 81.2095 36.8425 81.2095 36.4262C80.792 34.9692 80.3745 33.304 80.1657 31.8469C79.3306 28.5165 78.7043 24.978 78.078 21.6476C77.6605 18.7335 77.0342 15.6112 76.6167 12.6971C76.4079 11.0319 76.1991 9.36674 75.9904 7.49339C75.7816 5.82819 75.5728 3.95485 75.1553 2.4978C74.9465 1.87335 74.529 1.45705 73.9027 1.45705C73.4852 1.45705 73.0676 1.87335 73.0676 2.28965C73.0676 2.70595 72.8589 3.12225 73.0676 3.53855C73.4852 10.6156 74.529 17.4846 75.7816 24.3535C76.4079 27.2676 77.0342 29.9736 77.6605 32.8877C78.078 34.3447 78.2868 35.8018 78.4955 37.0507C78.7043 38.5077 78.7043 40.7974 80.1657 41.63C81.0007 42.2544 81.627 41.63 81.8358 40.7974C81.8358 39.5485 81.627 38.5077 81.4183 37.467ZM144.257 57.6575C141.96 58.4901 139.455 59.3227 137.159 60.1553C134.862 60.9879 132.775 61.8205 130.478 62.4449C129.434 62.8612 128.182 63.2775 127.138 63.6938C126.094 64.1101 125.05 64.3183 124.215 64.9427C123.798 65.359 123.38 65.9835 123.589 66.3998C123.798 67.0242 124.633 67.2324 125.259 67.2324C126.303 67.0242 127.347 66.3998 128.182 65.9835C129.226 65.5672 130.269 65.1509 131.313 64.7346C133.401 63.902 135.697 63.2775 137.785 62.4449C138.203 62.2368 138.62 62.2368 139.038 62.0286C143.422 60.3634 148.015 58.9064 152.399 57.2412C156.574 55.7841 160.541 54.3271 164.507 52.6619C164.925 52.4537 165.342 52.2456 165.76 52.0374C166.177 51.8293 166.177 51.2048 165.968 50.7885C165.551 50.1641 164.716 50.3722 164.09 50.5804C159.497 52.0374 155.113 53.4945 150.52 55.1597C148.432 56.2004 146.344 56.8249 144.257 57.6575ZM18.371 106.365C25.0515 104.075 31.5232 101.577 38.2037 99.0793C41.1264 98.0386 43.8404 96.9978 46.7631 95.7489C48.2245 95.1245 49.6859 94.7082 50.9384 94.0837C51.9823 93.6674 52.6086 92.8348 51.7735 91.7941C51.1472 91.1696 50.1034 92.0022 49.4771 92.2104C43.2141 94.9163 36.5336 97.2059 30.0619 99.4956C28.3917 100.12 26.7216 100.536 25.2602 101.161C18.9973 103.45 12.7343 105.532 6.26255 107.822C5.84502 108.03 5.21872 108.238 4.80119 108.654C4.38366 109.07 4.17489 109.695 4.38366 110.111C4.80119 110.944 5.84502 110.736 6.68008 110.319C10.6466 109.07 14.4044 107.822 18.371 106.365ZM4.80119 94.9163L5.00996 95.1245C5.42749 95.3326 5.84502 95.3326 6.26255 95.1245C7.09761 95.1245 7.93268 94.9163 8.76774 94.7082C9.60281 94.5 10.4379 94.5 11.4817 94.2919C13.1518 94.0837 15.0307 93.6674 16.7008 93.4593C20.2499 92.8348 23.7989 92.4185 27.3479 91.7941C31.732 91.1696 36.1161 90.337 40.5002 89.5044C43.2141 89.0881 45.7193 88.4637 48.4333 88.0474C49.0596 87.8392 49.8946 87.8392 50.1034 87.2148C50.5209 86.3822 49.6859 85.5496 48.8508 85.3414C47.807 85.1333 46.3456 85.7577 45.3018 85.9659C38.6213 87.6311 31.732 89.0881 24.8427 89.9207C21.5025 90.337 17.9534 90.7533 14.6132 91.1696C12.9431 91.3778 11.0642 91.7941 9.39404 92.0022C8.55898 92.2104 7.72391 92.4185 6.88885 92.6267C6.26255 92.8348 5.42749 92.8348 5.00996 93.2511C4.59242 93.6674 4.38366 94.5 4.80119 94.9163ZM30.2706 114.691C32.5671 113.442 34.6547 111.985 36.9511 110.736C39.8739 108.862 42.7966 106.989 45.7193 105.324C47.1807 104.491 48.642 103.45 50.1034 102.618C50.7297 102.202 51.5647 101.785 52.191 101.161C52.8173 100.744 53.4436 100.536 53.8612 100.12C54.4875 99.7037 54.2787 98.663 53.8612 98.2467C53.4436 97.8304 52.8173 97.8304 52.191 98.2467C50.9384 98.8712 49.8946 99.4956 48.8508 100.328C47.5982 101.161 46.5544 101.993 45.3018 102.826C42.7966 104.491 40.5002 106.156 37.995 107.613C31.3145 111.568 24.0077 114.691 17.5359 119.27C17.1184 119.686 16.4921 120.102 16.7008 120.519C16.7008 121.143 17.3271 121.351 17.9534 121.351C18.5797 121.351 18.9973 121.143 19.4148 120.935C22.7551 118.854 26.5128 116.772 30.2706 114.691ZM137.994 138.628C137.159 136.754 134.862 134.257 134.445 133.84C132.357 131.134 130.061 128.637 127.973 125.931C123.589 120.311 118.996 114.691 113.986 109.487C113.568 109.07 113.151 108.862 112.524 108.862C110.437 109.07 111.898 111.152 112.524 111.985C113.777 113.65 115.447 114.899 116.908 116.564C118.996 119.062 121.084 121.351 123.171 123.849C127.556 129.261 131.94 134.257 136.324 139.669C136.532 140.085 136.95 140.293 137.368 140.501C138.62 141.126 138.411 139.46 137.994 138.628ZM41.7528 120.311C44.8842 117.813 48.0157 115.107 51.1472 112.401C53.2349 110.736 55.3225 108.862 57.2014 106.989C57.619 106.781 57.8277 106.365 58.0365 106.156C58.454 105.74 58.6628 105.324 58.454 104.908C58.2453 103.867 56.7839 103.867 56.1576 104.491C54.905 105.74 53.4436 106.781 52.191 107.822C50.7297 108.862 49.4771 110.111 48.0157 111.152C45.3018 113.442 42.5878 115.731 39.6651 118.021C36.3248 120.727 33.1934 123.433 29.8531 126.139C29.4356 126.347 29.018 126.763 28.8093 127.18C28.6005 127.596 28.6005 128.22 28.8093 128.637C29.4356 129.261 30.2706 128.845 31.1057 128.428C32.3583 127.596 33.4021 126.763 34.6547 125.722C37.1599 124.057 39.4563 122.184 41.7528 120.311ZM165.76 92.6267C165.133 92.2104 164.298 92.2104 163.463 92.0022C162.628 91.7941 161.793 91.5859 160.749 91.5859C159.079 91.1696 157.2 90.9615 155.53 90.5452C151.981 89.9207 148.432 89.2963 144.883 88.4637C141.752 87.8392 138.829 87.2148 135.697 86.5903C132.775 85.9659 129.852 85.1333 126.929 85.1333C126.303 85.1333 125.677 85.7577 125.885 86.3822C126.094 87.0066 126.72 87.4229 127.347 87.4229C128.182 87.6311 129.017 87.8392 129.852 88.0474C131.522 88.4637 133.401 88.6718 135.071 89.0881C138.62 89.7126 142.169 90.5452 145.509 91.1696C151.355 92.4185 156.992 93.4593 162.837 94.5C163.672 94.7082 166.595 94.7082 165.968 93.043C166.177 92.8348 165.968 92.6267 165.76 92.6267ZM158.87 104.699C158.035 103.45 156.156 103.242 154.695 102.826C148.015 100.744 141.334 98.4548 134.654 95.9571C132.566 95.1245 130.478 94.5 128.391 93.6674C127.347 93.2511 126.303 92.8348 125.259 92.4185C124.633 92.2104 124.007 92.0022 123.38 92.2104C122.754 92.4185 122.336 93.2511 122.545 93.8755C122.754 94.5 123.589 94.7082 124.215 94.9163C130.687 96.7896 136.95 99.4956 143.213 101.785C145.718 102.618 148.223 103.659 150.729 104.491C151.981 104.907 153.234 105.324 154.695 105.74C155.739 106.156 156.992 106.573 158.244 106.573C159.288 106.365 159.497 105.324 158.87 104.699ZM128.599 43.9196C127.973 44.3359 127.347 44.9604 126.72 45.3767C123.589 48.0826 120.457 50.5804 117.535 53.2863C117.117 53.7026 116.7 53.9108 116.491 54.3271C116.282 54.9515 116.282 55.7841 116.908 56.2004C117.744 57.033 118.996 56.2004 119.622 55.576C124.842 50.9967 130.061 46.2093 135.28 41.63C136.95 40.1729 138.62 38.7159 140.29 37.467C141.125 36.8425 141.96 36.0099 142.795 35.3855C143.213 34.9692 144.466 33.304 143.213 33.0958C143.004 33.0958 142.587 33.0958 142.378 33.0958C137.785 36.4262 133.192 40.1729 128.599 43.9196ZM142.378 123.849C141.334 122.808 140.29 121.976 139.664 121.351C137.785 119.478 135.697 117.605 133.61 115.731C129.434 111.985 124.842 108.654 120.249 105.116C119.414 104.491 117.326 103.034 116.7 104.491C116.073 105.74 118.37 106.989 119.205 107.405C120.249 108.238 121.501 108.862 122.545 109.695C124.633 111.36 126.72 113.025 128.599 114.899C130.896 116.98 133.192 119.062 135.489 121.143C136.741 122.184 137.785 123.225 139.038 124.265C139.873 124.89 141.125 126.555 142.378 126.555C144.883 127.388 143.004 124.474 142.378 123.849ZM30.6882 33.9284C31.1057 34.761 32.1495 35.5936 32.5671 36.0099C40.5002 42.0463 48.2245 48.4989 55.7401 55.1597C56.3664 55.7841 57.2014 56.4086 58.0365 55.9923C58.6628 55.576 58.8716 54.7434 58.454 53.9108C58.0365 53.0782 57.4102 52.6619 56.9927 52.2456C48.8508 46.2093 41.544 38.7159 32.9846 33.0958C32.5671 32.8877 31.5232 32.0551 31.1057 32.6795L30.8969 33.0958C30.6882 33.304 30.6882 33.5121 30.6882 33.9284ZM10.0203 80.7621C10.4379 80.9703 10.8554 80.9703 11.0642 80.9703C14.1957 80.9703 17.3271 81.1784 20.4586 81.1784C24.0077 81.1784 27.5567 81.1784 31.1057 80.9703C36.5336 80.7621 41.7528 80.7621 47.1807 80.9703C47.5982 80.9703 48.2245 80.9703 48.642 80.9703C49.0596 80.7621 49.6859 80.554 49.6859 79.9295C49.8946 79.3051 49.2683 78.6806 48.8508 78.2643C48.2245 78.0562 47.5982 78.0562 46.9719 78.0562C39.6651 78.0562 32.3583 79.0969 25.0515 78.8888C21.92 78.8888 18.7885 78.6806 15.8658 78.6806C14.4044 78.6806 12.7343 78.6806 11.2729 78.6806C10.6466 78.6806 9.39404 79.3051 9.39404 79.9295C9.39404 80.554 9.60281 80.7621 10.0203 80.7621ZM16.9096 68.2731C24.0077 69.7302 30.8969 70.9791 37.995 72.4361C39.6651 72.8524 41.3352 73.0606 43.0053 73.4769C43.8404 73.685 44.6755 73.685 45.3018 73.8932C45.9281 74.1013 46.7631 74.3095 47.3894 74.3095C48.0157 74.5176 48.4333 74.5176 49.0596 74.3095C49.4771 74.1013 50.1034 73.8932 50.3122 73.2687C50.3122 72.8524 50.1034 72.4361 49.8946 72.0198C49.4771 71.8117 49.0596 71.6035 48.642 71.3954C45.3018 70.5628 41.7528 70.1465 38.4125 69.522C34.8635 68.8976 31.3145 68.2731 27.7654 67.6487C24.0077 67.2324 20.2499 66.6079 16.7008 65.9835C16.2833 65.9835 15.8658 65.7753 15.4482 65.9835C14.822 66.1916 14.6132 66.6079 14.822 67.2324C15.2395 68.065 16.0745 68.2731 16.9096 68.2731ZM142.795 46.8337C140.499 47.8745 137.994 49.1234 135.697 50.3722C131.731 52.4538 127.764 54.9515 123.798 57.2412C122.754 57.8656 121.71 58.2819 120.875 59.1145C120.249 59.739 120.249 61.196 121.501 61.4042C122.128 61.4042 122.963 61.196 123.589 60.7797C124.215 60.3634 125.05 59.9471 125.677 59.5308C126.929 58.9064 127.973 58.0738 129.226 57.4493C131.313 56.2004 133.192 55.1597 135.28 53.9108C135.697 53.7026 136.115 53.4945 136.324 53.2863C139.455 51.6211 142.587 50.1641 145.301 48.0826C145.927 47.6663 146.344 47.0419 146.136 46.4174C145.927 46.0011 145.509 45.793 145.092 45.793C144.674 45.793 144.257 46.0011 143.839 46.2093C143.631 46.4174 143.213 46.6256 142.795 46.8337ZM54.905 120.935C56.9927 118.021 59.2891 115.107 61.3767 112.193C62.003 111.36 63.2556 109.903 62.003 108.862C60.9592 108.03 59.7066 110.111 59.2891 110.736C56.7839 114.274 54.0699 117.813 51.356 121.143C48.642 124.474 45.7193 127.388 43.2141 130.926C43.0053 131.134 43.0053 131.134 42.7966 131.343C42.379 132.175 41.7528 132.8 41.1265 133.632C40.7089 134.465 41.1265 135.922 42.1703 135.297C43.4229 134.465 44.4667 133.216 45.5105 132.175C46.5544 130.926 47.807 129.677 48.8508 128.428C51.1472 125.722 53.0261 123.433 54.905 120.935ZM115.238 44.7522C114.821 45.1685 114.612 45.5848 114.195 46.0011C113.986 46.0011 113.359 47.0419 113.359 47.0419C112.942 47.4582 112.733 47.8745 112.524 48.2908C112.316 48.9152 112.524 49.7478 113.151 49.9559C114.403 50.5804 115.238 49.3315 115.865 48.4989C120.249 43.087 124.633 37.8833 129.226 32.4714C129.643 32.0551 131.313 29.5573 130.269 29.141C129.226 28.7247 128.391 29.3491 127.764 29.9736C123.171 34.761 119.205 39.7566 115.238 44.7522ZM111.481 140.501C111.272 138.836 110.228 136.963 109.81 135.714C108.975 133.632 108.14 131.551 107.305 129.261C106.261 126.555 105.218 124.057 104.174 121.351C103.756 120.102 103.13 118.645 102.712 117.396C102.504 116.564 101.042 112.609 99.5809 114.899C98.7458 116.564 100.625 119.062 101.042 120.519C101.877 122.808 102.712 125.098 103.547 127.388C105.218 131.967 106.888 136.546 108.558 141.126C108.975 142.166 110.854 144.456 111.272 141.958C111.481 141.542 111.481 141.126 111.481 140.501ZM31.3145 48.2908C32.7758 49.5396 34.6547 50.3722 36.1161 51.2048C37.995 52.2456 39.8739 53.2863 41.7528 54.3271C44.6755 55.9923 47.5982 57.6575 50.5209 59.5308C51.1472 59.9471 51.9823 60.3634 52.6086 60.7797C53.0261 60.9879 53.6524 61.4042 54.0699 61.196C54.905 60.9879 55.3225 59.9471 54.905 59.3227C54.4875 58.6982 53.8612 58.4901 53.2349 58.0738C52.6086 57.6575 51.7735 57.2412 51.1472 56.6167C49.6859 55.7841 48.2245 54.7434 46.7631 53.9108C43.8404 52.2456 40.7089 50.3722 37.7862 48.9152C37.3687 48.7071 37.1599 48.4989 36.7424 48.2908C35.6985 47.6663 34.6547 47.25 33.6109 46.6256C32.9846 46.2093 30.0619 44.7522 30.2706 46.8337C30.2706 47.0419 30.4794 47.4582 30.6882 47.6663C30.8969 48.0826 31.1057 48.0826 31.3145 48.2908ZM87.055 41.8381C87.4725 41.8381 87.6812 41.63 87.89 41.4218C88.0988 41.0055 88.3075 40.5892 88.3075 40.1729C88.5163 36.8425 88.5163 32.8877 88.3075 29.5573C88.3075 26.0187 88.3075 22.6883 88.3075 18.9416C88.3075 14.7786 88.3075 10.4075 88.3075 6.24449C88.3075 5.62004 88.3075 3.95485 87.2637 4.163C86.8462 4.163 86.4286 4.5793 86.2199 5.20374C86.2199 5.62004 86.0111 5.82819 86.0111 6.24449C85.3848 13.1134 85.5936 20.1905 85.8024 27.0595C85.8024 30.598 86.0111 34.3447 85.5936 37.8833C85.5936 38.2996 85.5936 38.7159 85.5936 39.3403C85.5936 39.5485 85.5936 39.7566 85.5936 39.9648C85.5936 40.3811 85.5936 41.0055 86.0111 41.63C86.2199 41.63 86.6374 41.8381 87.055 41.8381ZM22.1288 57.033C22.1288 57.2412 22.1288 57.2412 22.1288 57.033C23.1726 57.6575 24.0077 58.0738 25.0515 58.4901C33.1934 61.6123 41.544 64.5264 49.6859 67.6487C50.1034 67.8568 50.5209 68.065 50.9384 68.065C51.356 68.065 51.9823 67.8568 51.9823 67.4405C52.191 67.0242 51.9823 66.3998 51.5648 66.1916C51.356 65.9835 50.9384 65.7753 50.7297 65.7753C44.2579 63.2775 37.5774 60.7797 31.1057 58.2819C29.6443 57.8656 28.183 57.2412 26.7216 56.8249C26.0953 56.6167 25.2602 56.4086 24.6339 56.2004C24.0077 55.9923 23.3814 55.576 22.7551 55.576C21.92 55.3678 21.2937 56.4086 22.1288 57.033ZM124.007 140.709C121.293 136.13 118.787 131.759 116.073 127.18C113.568 122.808 111.272 118.437 108.558 114.066C107.932 113.025 106.261 112.817 106.053 114.274C105.844 115.731 107.514 117.188 108.349 118.437C109.602 120.519 110.645 122.392 111.898 124.474C114.403 128.637 116.7 132.8 119.205 136.754C120.04 138.211 120.875 139.669 121.71 140.917C122.128 141.542 122.754 142.791 123.38 142.999C125.259 144.04 124.424 141.542 124.007 140.709ZM147.388 112.609C146.344 111.36 144.257 110.528 143.004 109.903C141.334 108.862 139.664 108.03 137.785 106.989C133.819 104.699 129.643 102.41 125.468 100.12C124.633 99.7037 124.007 99.0793 123.171 98.8711C122.336 98.663 121.71 98.663 121.084 99.2875C119.414 101.369 124.633 102.618 125.677 103.242C127.764 104.283 129.643 105.116 131.522 106.156C133.61 107.405 135.906 108.654 137.994 109.903C140.29 111.152 142.587 112.609 144.674 114.066C145.092 114.482 145.927 114.899 146.553 114.899C147.388 114.899 147.806 114.274 147.597 113.65C147.806 113.233 147.597 113.025 147.388 112.609ZM100.416 40.7974C100.207 41.0055 100.207 41.0055 100.416 40.7974C99.9984 41.8381 99.9984 42.4626 100.625 43.2952C100.625 43.5033 100.834 43.5033 101.042 43.5033H101.669C101.877 43.5033 101.877 43.5033 101.877 43.2952C102.504 42.8789 102.712 42.4626 102.921 41.8381C103.13 41.0055 103.547 40.1729 103.965 39.3403C104.591 37.6751 105.218 36.2181 105.844 34.5529C107.305 30.8062 108.975 26.8513 110.019 22.8965C110.019 22.4802 110.228 21.6476 109.602 21.2313H109.393H108.558C108.558 21.2313 108.349 21.2313 108.14 21.4394C108.14 21.4394 107.932 21.4394 107.932 21.6476C106.679 22.8965 106.261 24.7698 105.635 26.435C104.8 28.3084 104.174 30.1817 103.547 32.0551C102.712 34.1366 102.086 36.2181 101.251 38.2996C101.042 38.924 100.625 39.9648 100.416 40.7974ZM99.7897 19.1498C100.207 17.2764 100.834 14.9868 100.625 13.1134C100.625 13.1134 100.416 12.9053 100.416 12.6971V12.489C100.416 12.2808 100.207 12.2808 99.9984 12.2808C98.7458 12.0727 98.3283 13.1134 98.1195 14.1542C97.2845 17.6927 96.6582 21.0231 96.0319 24.5617C95.8231 26.2269 95.6143 27.8921 95.1968 29.7654C94.9881 31.4306 94.5705 33.304 94.153 34.9692C94.153 35.3855 93.9442 36.0099 93.9442 36.4262C93.7355 37.2588 93.7355 38.0914 93.5267 38.924C93.5267 39.7566 93.5267 40.5892 93.7355 41.4218C93.9442 41.8381 94.5705 41.8381 94.9881 41.63C95.4056 41.4218 95.4056 41.0055 95.6143 40.5892C96.867 33.7203 97.0757 32.2632 98.5371 25.3943C98.5371 25.1861 99.7897 19.5661 99.7897 19.1498ZM66.3871 119.062C67.0134 117.813 67.8485 116.564 68.4748 115.523C68.6835 115.107 69.1011 114.482 69.1011 114.066C69.1011 113.442 68.4748 112.817 67.8485 113.025C67.0134 113.025 66.8047 113.858 66.3871 114.482C65.3433 116.564 64.0907 118.437 63.0469 120.519C60.7504 124.474 58.454 128.428 55.9488 132.383C55.5313 133.008 55.1138 133.84 54.6962 134.465C54.6962 134.673 53.8612 136.338 53.6524 136.338C53.4436 136.338 53.2349 137.587 53.2349 137.795C53.2349 138.42 54.2787 138.628 54.6962 138.42C54.905 138.42 54.905 138.211 54.905 138.211C55.7401 137.171 56.3664 136.13 56.9927 134.881C59.2891 130.926 61.5855 127.18 63.8819 123.225C64.9258 121.976 65.5521 120.519 66.3871 119.062ZM73.9027 115.523C73.2764 115.523 72.6501 116.356 72.4413 116.98C70.7712 121.768 68.8923 126.347 67.2222 131.134C66.5959 133.216 65.3433 135.297 65.1345 137.587C65.1345 138.211 65.1345 138.836 65.7608 139.252C67.6397 140.085 68.4748 135.506 68.8923 134.465C69.7274 132.591 70.3537 130.51 71.1887 128.637C72.0238 126.347 72.8589 124.057 73.6939 121.559C74.1115 120.311 74.529 119.27 74.7378 118.021C74.9465 117.396 75.1553 116.772 74.9465 116.148C74.529 115.731 74.3202 115.523 73.9027 115.523ZM98.5371 133.84C98.1195 131.551 97.702 129.053 97.2845 126.763C96.8669 125.098 96.6582 123.433 96.2406 121.768C96.0319 120.519 96.2407 117.188 94.3618 116.772C92.4829 116.356 93.5267 120.519 93.7355 121.351C94.153 123.433 94.5705 125.722 94.7793 127.804C95.1968 129.885 95.1968 132.175 95.6143 134.257C95.8231 135.714 95.8231 137.587 96.867 138.628C98.3283 139.877 99.1634 138.211 98.9546 136.963C98.7458 135.922 98.5371 134.881 98.5371 133.84ZM109.393 39.3403C108.767 40.3811 108.14 41.63 107.514 42.6707C106.888 43.5033 106.053 44.3359 105.844 45.3767C105.635 46.2093 106.261 47.4582 107.305 47.0419C107.932 46.8337 108.349 46.4174 108.558 45.793C110.019 43.5033 111.272 41.4218 112.524 39.1322C113.777 37.0507 114.821 34.9692 115.865 32.8877C116.282 32.2632 116.7 30.598 115.656 30.3899C114.821 30.1817 114.403 31.0143 113.986 31.6388C113.359 32.2632 112.942 33.0958 112.524 33.9284C111.481 35.3855 110.645 37.0507 109.81 38.7159C109.81 38.924 109.602 39.1322 109.393 39.3403ZM81.2095 117.396C81.0007 116.98 80.5832 116.98 79.9569 117.605C79.5394 118.021 79.3306 118.645 79.3306 119.27C78.9131 121.768 78.2868 124.265 77.8693 126.763C77.6605 128.012 77.4517 129.261 77.243 130.718C77.0342 131.759 76.6167 133.008 77.4517 134.048C77.8692 134.673 78.9131 134.465 79.3306 134.048C79.7481 133.632 79.7481 133.008 79.9569 132.383C80.3744 129.677 80.792 126.971 81.2095 124.265C81.4183 123.017 81.627 121.976 81.627 120.727C81.627 119.894 81.8358 118.021 81.2095 117.396ZM87.6813 117.813C87.2637 117.605 87.055 117.813 86.6374 118.229C86.2199 118.854 86.2199 119.478 86.2199 120.311C86.0111 121.768 86.0111 123.225 86.0111 124.682C86.0111 125.514 86.0111 126.139 86.0111 126.971C86.0111 127.596 86.0111 128.428 86.4287 129.053C86.8462 129.469 87.6813 129.261 88.0988 128.845C88.3075 128.637 88.3075 128.22 88.3075 127.804C88.5163 125.306 88.5163 122.808 88.5163 120.519C88.5163 119.894 88.5163 119.27 88.0988 118.645C88.0988 118.021 87.89 117.813 87.6813 117.813Z" fill="url(#paint0_linear)"/>
<path d="M11.4821 167.352C10.4383 166.728 8.97693 166.52 7.30681 166.52H0V188.167H3.34025V179.425H7.30681C8.97693 179.425 10.4383 179.217 11.4821 178.593C12.526 177.968 13.361 177.135 13.9873 176.303C14.6136 175.262 14.8224 174.221 14.8224 172.972C14.8224 171.724 14.6136 170.683 13.9873 169.642C13.5698 168.601 12.526 167.769 11.4821 167.352ZM3.34025 169.434H7.30681C8.76817 169.434 10.0208 169.85 10.6471 170.267C11.2734 170.891 11.4821 171.724 11.4821 172.972C11.4821 174.013 11.2734 175.054 10.6471 175.678C10.0208 176.303 8.97693 176.511 7.30681 176.511H3.34025V169.434Z" fill="white"/>
<path d="M34.655 175.678H24.6342V166.52H21.2939V188.167H24.6342V178.593H34.655V188.167H37.9952V166.52H34.655V175.678Z" fill="white"/>
<path d="M70.9805 169.226H77.2434V188.167H80.5837V169.226H86.8467V166.52H70.9805V169.226Z" fill="white"/>
<path d="M101.669 166.52H98.3286L90.3955 188.167H93.9445L95.8234 182.756H104.174L106.053 188.167H109.602L101.669 166.728V166.52ZM103.13 179.841H96.8673L99.9987 171.099L103.13 179.841Z" fill="white"/>
<path d="M129.017 182.131L118.579 166.52H115.447V188.167H118.788V172.348L129.226 188.167H132.357V166.52H129.017V182.131Z" fill="white"/>
<path d="M172.441 185.253V166.52H169.101V188.167H181V185.253H172.441Z" fill="white"/>
<path d="M45.5107 177.552C45.5107 174.43 46.5546 171.932 48.851 169.642C51.1474 167.352 53.8614 166.312 56.9929 166.312C60.1244 166.312 62.8383 167.352 64.926 169.642C67.2224 171.932 68.2662 174.43 68.2662 177.552C68.2662 180.674 67.2224 183.38 64.926 185.461C62.6295 187.751 59.9156 188.792 56.7841 188.792C53.8614 188.792 51.3562 187.751 49.2685 185.878C46.7633 184.004 45.5107 181.09 45.5107 177.552ZM48.851 177.76C48.851 180.258 49.6861 182.131 51.3562 183.796C53.0263 185.253 54.9052 186.086 56.9929 186.086C59.2893 186.086 61.1682 185.253 62.8383 183.796C64.5084 182.131 65.1347 180.258 65.1347 177.968C65.1347 175.678 64.2997 173.597 62.8383 172.14C61.377 170.475 59.2893 169.85 56.9929 169.85C54.6964 169.85 52.8175 170.683 51.1474 172.14C49.4773 173.389 48.851 175.47 48.851 177.76Z" fill="white"/>
<path d="M139.247 177.552C139.247 174.43 140.291 171.932 142.587 169.642C144.884 167.352 147.598 166.312 150.729 166.312C153.861 166.312 156.575 167.352 158.662 169.642C160.959 171.932 162.003 174.43 162.003 177.552C162.003 180.674 160.959 183.38 158.662 185.461C156.366 187.751 153.652 188.792 150.52 188.792C147.598 188.792 145.093 187.751 143.005 185.878C140.5 184.004 139.247 181.09 139.247 177.552ZM142.587 177.76C142.587 180.258 143.422 182.131 145.093 183.796C146.763 185.253 148.642 186.086 150.729 186.086C153.026 186.086 154.905 185.253 156.575 183.796C158.245 182.131 158.871 180.258 158.871 177.968C158.871 175.678 158.036 173.597 156.575 172.14C155.113 170.475 153.026 169.85 150.729 169.85C148.433 169.85 146.554 170.683 144.884 172.14C143.422 173.389 142.587 175.47 142.587 177.76Z" fill="white"/>
<defs>
<linearGradient id="paint0_linear" x1="20.439" y1="128.994" x2="144.666" y2="24.4469" gradientUnits="userSpaceOnUse">
<stop stop-color="#009EE2"/>
<stop offset="0.093799" stop-color="#05A0DD"/>
<stop offset="0.2124" stop-color="#15A4D0"/>
<stop offset="0.3445" stop-color="#2FACBA"/>
<stop offset="0.4862" stop-color="#53B79C"/>
<stop offset="0.6357" stop-color="#82C574"/>
<stop offset="0.7918" stop-color="#BAD644"/>
<stop offset="0.95" stop-color="#FCEA0D"/>
</linearGradient>
</defs>
</svg>
