<svg width="63" height="77" viewBox="0 0 63 77" fill="none" xmlns="http://www.w3.org/2000/svg">
<path d="M44.5178 25.952C41.1182 31.8404 37.8444 37.5106 34.4448 43.399C37.5665 45.4921 39.8774 47.9894 41.9365 50.9229C39.6348 55.4097 37.7661 60.1464 34.5077 63.79C33.6616 64.7555 32.4731 65.814 30.9776 66.4044C26.1484 68.2688 21.0121 69.6651 15.8006 68.6917C15.2417 68.6598 14.8086 68.4098 13.9073 68.471C12.4424 65.0082 10.887 61.2023 9.76453 57.6465C8.24439 53.2794 8.65286 48.572 10.8287 44.3033C11.836 42.5586 12.8433 40.8139 13.9765 38.8511C14.4801 37.9788 14.8579 37.3245 15.2709 36.1091C18.8763 35.8644 22.6276 36.8671 26.6859 38.3378C29.9596 32.6676 33.3593 26.7792 36.7589 20.8909C36.7589 20.8909 36.5777 20.2047 36.2706 19.7366C34.9163 18.0824 34.8057 16.2738 35.2541 14.4972C36.6192 10.6328 38.2914 7.23654 40.7037 4.55832C45.8092 7.21524 51.509 9.34289 56.2921 13.5583C55.1589 15.5211 54.2775 17.0477 53.2702 18.7924C52.3888 20.319 50.9485 21.8137 49.8506 23.2153C48.2844 24.9281 46.537 25.9547 44.5178 25.952ZM15.7254 66.322C16.2843 66.3539 17.0597 66.5109 17.6186 66.5428C22.2159 66.58 26.4509 65.2449 30.8117 63.6916C32.5238 63.2262 34.0547 62.0746 34.9361 60.548C36.6989 57.4948 38.4617 54.4416 40.4763 50.9522C38.4724 48.9229 36.2521 46.7687 34.0318 44.6144C33.654 45.2687 33.2763 45.9229 32.8985 46.5772C31.4782 49.5373 29.5342 51.9044 27.2832 53.8033C25.9688 55.0799 24.4379 56.2315 22.2375 55.5427C20.1385 49.6783 23.2509 44.7873 25.588 39.7394C22.1792 38.6437 19.0775 38.016 15.598 38.0426C14.3389 40.2235 13.4222 42.3113 12.163 44.4921C10.4003 47.5454 9.84594 51.0055 10.5354 54.3113C11.1542 58.7396 13.1426 62.7954 15.7254 66.322ZM29.2794 36.3458C27.7331 39.524 25.6279 42.6703 24.1723 46.1916C23.0037 48.7155 22.2682 51.4895 23.2095 54.3592C26.9761 53.3352 31.9619 47.1995 35.1251 39.7208C33.6249 36.8192 32.7588 36.3192 29.2794 36.3458ZM38.0088 11.7259C35.2388 16.5238 37.2625 20.0185 40.8172 22.3616C44.5884 24.8297 47.3278 24.085 50.9992 19.2259C46.8856 16.8509 42.5555 14.3509 38.0088 11.7259ZM42.6245 25.7313C40.676 24.6063 38.9439 23.6063 37.2119 22.6063C35.0714 26.3138 32.9308 30.0213 30.7903 33.7287C32.6483 34.5106 34.7228 35.4176 36.5807 36.1995C38.4694 32.9282 40.6099 29.2207 42.6245 25.7313ZM40.5977 6.24184C40.0587 7.67536 39.4292 8.7658 38.6737 10.0743C43.2203 12.6993 47.767 15.3243 52.5301 18.0743C53.2856 16.7658 53.8246 15.3323 54.4541 14.2418C49.691 11.4918 45.1443 8.86684 40.5977 6.24184Z" fill="white"/>
</svg>
