<svg width="16" height="15" viewBox="0 0 16 15" fill="none" xmlns="http://www.w3.org/2000/svg">
<path d="M15.4071 1.79862C15.2792 2.11089 15.1002 2.42315 14.8956 2.7094C13.6423 4.53096 12.4145 6.35252 11.1612 8.17408C11.1612 8.17408 11.1357 8.17408 11.1357 8.14806C9.8312 10.0217 8.52674 11.9213 7.22229 13.7949C7.11998 13.925 7.01767 14.0811 6.8642 14.1852C6.45496 14.5495 5.89226 14.5756 5.45744 14.2893C5.35513 14.2373 5.2784 14.1592 5.22724 14.0811C5.17608 14.0551 5.15051 14.0291 5.12493 14.0031C3.48797 12.2856 1.87658 10.5681 0.265194 8.87669C0.162884 8.7726 0.0861512 8.61646 0.034996 8.48635C-0.0673142 8.22613 0.0605736 7.91386 0.341927 7.60159C0.62328 7.31535 0.955788 7.15921 1.23714 7.2633C1.41618 7.34137 1.56965 7.44546 1.69754 7.54955C2.5416 8.30419 3.38566 9.05884 4.20414 9.83951C4.20414 9.83951 4.20414 9.86553 4.17856 9.86553C4.76684 10.412 5.35513 10.9585 5.94341 11.4789C8.45001 8.12204 10.9566 4.76516 13.4376 1.40828C13.6167 1.17408 13.8213 0.965905 14.0515 0.783748C14.4352 0.445459 14.8444 0.419436 15.1769 0.653637C15.5094 0.887838 15.6117 1.30419 15.4071 1.79862Z" fill="#62B55A"/>
</svg>
