<svg width="100" height="100" viewBox="0 0 100 100" fill="none" xmlns="http://www.w3.org/2000/svg">
<path d="M78.4445 70.5926L78.3704 70.5185L78.1482 70.2222C73.2593 74.2222 66.963 76.4444 60.5926 76.4444C53.2593 76.4444 46.3704 73.6296 41.1852 68.5926C36 63.5556 33.1111 56.8148 33.1111 49.6296C33.1111 44.0741 34.8149 38.7407 38.0741 34.2222C41.2593 29.7778 45.6297 26.4444 50.8149 24.5185L50.5186 24C45.2593 25.9259 40.8149 29.4074 37.5556 33.9259C34.2223 38.5185 32.5186 44 32.5186 49.6296C32.5186 56.963 35.4074 63.8519 40.7408 68.963C41.2593 69.4815 41.7778 69.9259 42.2963 70.3704L41.5556 71.1852C46.8149 75.6296 53.5556 78.0741 60.5186 78.0741C67.3334 78.0741 73.926 75.7037 79.1852 71.4815L78.4445 70.5926Z" fill="#939598"/>
<path d="M37.5556 33.9257C37.7778 33.6294 38 33.3331 38.2222 32.9627C38.0741 32.5183 38 32.0738 38 31.6294C38 29.6294 39.3333 27.8516 41.7037 27.8516C42.2222 27.8516 42.6667 27.9257 43.1111 28.0738C43.5556 27.7035 44 27.4072 44.4444 27.1109C43.6296 26.6664 42.7407 26.3701 41.7037 26.3701C38.7407 26.3701 36.2963 28.7405 36.2963 31.6294C36.2963 32.6664 36.5926 33.6294 37.1111 34.4442C37.3333 34.222 37.4815 34.0738 37.5556 33.9257ZM45.4815 31.6294C45.4815 33.7035 44 35.4072 41.7778 35.4072C40.5185 35.4072 39.4815 34.8886 38.8148 33.9997C38.6667 34.1479 38.5926 34.3701 38.4444 34.5183C38.2222 34.8146 38.0741 35.0368 37.9259 35.3331C38.8889 36.296 40.2963 36.8886 41.7778 36.8886C44.7407 36.8886 47.1852 34.6664 47.1852 31.6294C47.1852 30.1479 46.5185 28.7405 45.4074 27.7775C44.963 28.0738 44.5926 28.3701 44.1481 28.6664C45.037 29.4072 45.4815 30.4442 45.4815 31.6294ZM33.6296 48.7405C33.6296 49.0368 33.6296 49.3331 33.6296 49.6294C33.6296 49.8516 33.6296 50.0738 33.6296 50.296C35.9259 49.7035 37.6296 47.7035 37.6296 45.259C37.6296 43.4072 36.6667 41.8516 35.1852 40.8886C35.037 41.3331 34.8889 41.8516 34.7407 42.3701C35.5556 43.0368 36.0741 44.1479 36.0741 45.259C35.9259 46.8146 35.037 48.1479 33.6296 48.7405ZM32.5185 50.4442C32.5185 50.1479 32.5185 49.8516 32.5185 49.5553C32.5185 49.3331 32.5185 49.1109 32.5185 48.9627C32.4444 48.9627 32.2963 48.9627 32.2222 48.9627C30 48.9627 28.5185 47.259 28.5185 45.1849C28.5185 43.1849 29.8519 41.4072 32.2222 41.4072C32.7407 41.4072 33.2593 41.4812 33.7037 41.7035C33.8519 41.259 34 40.7405 34.1481 40.296C33.5556 40.0738 32.8889 39.9257 32.2222 39.9257C29.2593 39.9257 26.8148 42.296 26.8148 45.1849C26.8148 48.1479 29.2593 50.4442 32.2222 50.4442C32.2963 50.4442 32.4444 50.4442 32.5185 50.4442ZM36.0741 53.7034C35.3333 53.7034 34.6667 53.8516 34 54.1479C34.0741 54.6664 34.2222 55.1109 34.2963 55.6294C34.8148 55.4072 35.4074 55.259 36.0741 55.259C38.5185 55.259 39.7778 57.0368 39.7778 59.0368C39.7778 60.7405 38.6667 62.222 37.037 62.6664C37.2593 63.1109 37.5556 63.5553 37.8519 63.9997C39.9259 63.3331 41.4074 61.4072 41.4074 59.0368C41.4074 55.9997 38.963 53.7034 36.0741 53.7034ZM32.2963 58.8886C32.2963 57.8516 32.6667 56.8886 33.3333 56.222C33.1852 55.7035 33.1111 55.1849 32.963 54.5923C31.5556 55.5553 30.6667 57.1109 30.6667 58.8886C30.6667 61.8516 33.1111 64.1479 36.0741 64.1479C36.2963 64.1479 36.5185 64.1479 36.7407 64.0738C36.4444 63.6294 36.1481 63.1109 35.8519 62.6664C33.7778 62.5183 32.2963 60.8886 32.2963 58.8886ZM62.1481 59.9257C62.1481 61.3331 61.7037 62.5923 59.9259 62.5923C58.1481 62.5923 57.7037 61.259 57.7037 59.9257V53.8516H56.0741V60.222C56.0741 62.4442 57.4815 64.1479 60 64.1479C62.5185 64.1479 63.9259 62.4442 63.9259 60.222V53.8516H62.2963V59.9257H62.1481ZM68 35.259H63.4815V26.5923H61.8518V36.5923H68V35.259ZM8 50.296H13.8519V48.8146H9.62963V45.4812H13.7037V43.9997H9.62963V41.6294H13.8519V40.1479H8V50.296ZM49.4815 40.222H47.8518V46.7405L40.963 39.7035V50.222H42.5926V43.6294L49.4815 50.6664V40.222ZM82.0741 50.296H83.7037V40.222H82.0741V50.296ZM22.5185 63.9257H24.1481V59.1849H27.7037V57.7035H24.1481V55.3331H27.8519V53.8516H22.5185V63.9257ZM27.7037 29.5553L31.2593 37.1109L34.0741 26.6664H32.4444L30.8148 32.8886L27.7778 26.3701L24.5926 32.8886L22.963 26.5923H21.3333L24.1481 37.0368L27.7037 29.5553ZM69.037 43.9997L72.1481 50.4442L75.1852 43.9997L76.8148 50.296H78.4444L75.6296 39.8516L72.0741 47.4072L68.5185 39.8516L65.7037 50.296H67.3333L69.037 43.9997ZM73.037 61.0368L69.4815 53.4812L66.6667 63.9257H68.2963L69.9259 57.6294L73.037 64.0738L76.1481 57.6294L77.7778 63.9257H79.4074L76.5926 53.4812L73.037 61.0368ZM51.8519 56.7405C51.8519 55.7775 51.3333 54.8146 50.5185 54.3701C49.7037 53.9257 48.6667 53.9257 47.7037 53.9257H44.963V63.9257H46.5926V59.7035H47.7037L50.7407 63.9257H52.5926L49.3333 59.5553C50.8148 59.4072 51.8519 58.1479 51.8519 56.7405ZM47.3333 58.3701H46.5926V55.259H47.2593C48.5185 55.259 50.1481 55.259 50.1481 56.8146C50.2222 58.3701 48.6667 58.3701 47.3333 58.3701ZM52.2222 32.3701H53.3333L56.3704 36.5923H58.2222L54.963 32.222C56.4444 32.0738 57.4074 30.8886 57.4074 29.4072C57.4074 28.4442 56.8889 27.4812 56.0741 27.0368C55.2593 26.5923 54.2222 26.5923 53.2593 26.5923H50.5185V36.5923H52.1481V32.3701H52.2222ZM52.2222 27.9997H52.8889C54.1481 27.9997 55.7778 27.9997 55.7778 29.5553C55.7778 31.1849 54.2222 31.1109 52.8889 31.1109H52.1481V27.9997H52.2222ZM73.6296 26.5923H70.8889V36.5923H73.6296C76.8889 36.5923 79.4074 35.0368 79.4074 31.5553C79.4074 28.1479 76.8148 26.5923 73.6296 26.5923ZM73.4815 35.259H72.5185V27.9997H73.4815C75.7037 27.9997 77.7778 28.7405 77.7778 31.5553C77.7778 34.4442 75.7037 35.259 73.4815 35.259ZM94.6667 48.5183C94.1481 48.8146 93.5555 48.9627 92.8148 48.9627C90.5926 48.9627 89.1111 47.259 89.1111 45.1849C89.1111 43.1849 90.4444 41.4072 92.8148 41.4072C93.5555 41.4072 94.1481 41.5553 94.6667 41.8516L95.4815 40.6664C94.6667 40.222 93.7778 39.9997 92.8148 39.9997C89.8519 39.9997 87.4074 42.3701 87.4074 45.1849C87.4074 48.1479 89.8519 50.4442 92.8148 50.4442C93.7778 50.4442 94.7407 50.222 95.4815 49.7775L94.6667 48.5183ZM24.2222 48.5183C23.7037 48.8146 23.1111 48.9627 22.3704 48.9627C20.1481 48.9627 18.6667 47.259 18.6667 45.1849C18.6667 43.1849 20 41.4072 22.3704 41.4072C23.1111 41.4072 23.7037 41.5553 24.2222 41.8516L25.037 40.6664C24.2222 40.222 23.3333 39.9997 22.3704 39.9997C19.4074 39.9997 16.963 42.3701 16.963 45.1849C16.963 48.1479 19.4074 50.4442 22.3704 50.4442C23.3333 50.4442 24.2963 50.222 25.037 49.7775L24.2222 48.5183ZM63.7037 45.259C63.7037 42.3701 61.2593 40.0738 58.2963 40.0738C55.3333 40.0738 52.8889 42.4442 52.8889 45.259C52.8889 48.222 55.3333 50.5183 58.2963 50.5183C61.2593 50.4442 63.7037 48.222 63.7037 45.259ZM54.5926 45.259C54.5926 43.259 55.9259 41.4812 58.2963 41.4812C60.6667 41.4812 62 43.259 62 45.259C62 47.3331 60.5185 49.0368 58.2963 49.0368C56.0741 48.9627 54.5926 47.259 54.5926 45.259Z" fill="#706F6F"/>
</svg>
